<svg width="842" height="595" viewBox="0 0 842 595" fill="none" xmlns="http://www.w3.org/2000/svg">
<rect x="0.5" y="0.5" width="841" height="594" fill="white"/>
<rect x="0.5" y="0.5" width="841" height="594" stroke="#17324D"/>
<path d="M187 31C187 26.5817 190.582 23 195 23H804C808.418 23 812 26.5817 812 31V564C812 568.418 808.418 572 804 572H195C190.582 572 187 568.418 187 564V31Z" fill="#004080" fill-opacity="0.1"/>
<path d="M219.727 85.5H217.666V79.38H219.727C220.255 79.38 220.69 79.437 221.032 79.551C221.374 79.659 221.638 79.842 221.824 80.1C222.016 80.352 222.148 80.652 222.22 81C222.292 81.342 222.328 81.789 222.328 82.341C222.328 82.893 222.295 83.352 222.229 83.718C222.163 84.078 222.037 84.402 221.851 84.69C221.671 84.972 221.407 85.179 221.059 85.311C220.711 85.437 220.267 85.5 219.727 85.5ZM221.032 83.07C221.044 82.878 221.05 82.614 221.05 82.278C221.05 81.936 221.038 81.663 221.014 81.459C220.99 81.255 220.933 81.069 220.843 80.901C220.753 80.733 220.618 80.619 220.438 80.559C220.264 80.493 220.027 80.46 219.727 80.46H218.908V84.42H219.727C220.177 84.42 220.504 84.306 220.708 84.078C220.882 83.892 220.99 83.556 221.032 83.07ZM224.287 83.763C224.293 84.039 224.365 84.24 224.503 84.366C224.647 84.486 224.851 84.546 225.115 84.546C225.673 84.546 226.171 84.528 226.609 84.492L226.861 84.465L226.879 85.356C226.189 85.524 225.565 85.608 225.007 85.608C224.329 85.608 223.837 85.428 223.531 85.068C223.225 84.708 223.072 84.123 223.072 83.313C223.072 81.699 223.735 80.892 225.061 80.892C226.369 80.892 227.023 81.57 227.023 82.926L226.933 83.763H224.287ZM225.835 82.845C225.835 82.485 225.778 82.236 225.664 82.098C225.55 81.954 225.349 81.882 225.061 81.882C224.779 81.882 224.578 81.957 224.458 82.107C224.344 82.251 224.284 82.497 224.278 82.845H225.835ZM230.378 82.026H229.271V83.871C229.271 84.051 229.274 84.18 229.28 84.258C229.292 84.33 229.325 84.393 229.379 84.447C229.439 84.501 229.529 84.528 229.649 84.528L230.333 84.51L230.387 85.473C229.985 85.563 229.679 85.608 229.469 85.608C228.929 85.608 228.56 85.488 228.362 85.248C228.164 85.002 228.065 84.552 228.065 83.898V82.026H227.534V81H228.065V79.749H229.271V81H230.378V82.026ZM234.61 82.404V84.276C234.622 84.42 234.646 84.522 234.682 84.582C234.718 84.636 234.793 84.675 234.907 84.699L234.871 85.608C234.565 85.608 234.319 85.587 234.133 85.545C233.953 85.503 233.77 85.419 233.584 85.293C233.152 85.503 232.711 85.608 232.261 85.608C231.331 85.608 230.866 85.116 230.866 84.132C230.866 83.652 230.995 83.313 231.253 83.115C231.511 82.911 231.907 82.791 232.441 82.755L233.404 82.683V82.404C233.404 82.218 233.362 82.092 233.278 82.026C233.194 81.954 233.059 81.918 232.873 81.918L231.181 81.99L231.145 81.153C231.787 80.979 232.396 80.892 232.972 80.892C233.554 80.892 233.971 81.012 234.223 81.252C234.481 81.492 234.61 81.876 234.61 82.404ZM232.585 83.592C232.249 83.622 232.081 83.802 232.081 84.132C232.081 84.462 232.228 84.627 232.522 84.627C232.75 84.627 232.999 84.591 233.269 84.519L233.404 84.483V83.52L232.585 83.592ZM235.76 85.5V81H236.966V85.5H235.76ZM235.76 80.424V79.2H236.966V80.424H235.76ZM238.134 85.5V79.2H239.34V85.5H238.134ZM245.904 79.38H247.209L245.787 85.5H243.492L242.07 79.38H243.375L244.437 84.42H244.842L245.904 79.38ZM247.907 85.5V81H249.113V85.5H247.907ZM247.907 80.424V79.2H249.113V80.424H247.907ZM251.217 83.763C251.223 84.039 251.295 84.24 251.433 84.366C251.577 84.486 251.781 84.546 252.045 84.546C252.603 84.546 253.101 84.528 253.539 84.492L253.791 84.465L253.809 85.356C253.119 85.524 252.495 85.608 251.937 85.608C251.259 85.608 250.767 85.428 250.461 85.068C250.155 84.708 250.002 84.123 250.002 83.313C250.002 81.699 250.665 80.892 251.991 80.892C253.299 80.892 253.953 81.57 253.953 82.926L253.863 83.763H251.217ZM252.765 82.845C252.765 82.485 252.708 82.236 252.594 82.098C252.48 81.954 252.279 81.882 251.991 81.882C251.709 81.882 251.508 81.957 251.388 82.107C251.274 82.251 251.214 82.497 251.208 82.845H252.765ZM254.473 81H255.661L256.21 84.474H256.426L257.11 81.09H258.352L259.036 84.474H259.252L259.801 81H260.989L260.134 85.5H258.244L257.731 82.746L257.218 85.5H255.328L254.473 81Z" fill="#17324D"/>
<rect x="217" y="101.5" width="160" height="1" fill="#17324D"/>
<path d="M440.149 85.5H436.666V79.38H437.908V84.402H440.149V85.5ZM440.803 85.5V81H442.009V85.5H440.803ZM440.803 80.424V79.2H442.009V80.424H440.803ZM446.354 82.125C445.61 82.029 445.088 81.981 444.788 81.981C444.494 81.981 444.302 82.008 444.212 82.062C444.128 82.116 444.086 82.203 444.086 82.323C444.086 82.437 444.143 82.518 444.257 82.566C444.377 82.608 444.677 82.674 445.157 82.764C445.643 82.848 445.988 82.989 446.192 83.187C446.396 83.385 446.498 83.706 446.498 84.15C446.498 85.122 445.895 85.608 444.689 85.608C444.293 85.608 443.813 85.554 443.249 85.446L442.961 85.392L442.997 84.384C443.741 84.48 444.257 84.528 444.545 84.528C444.839 84.528 445.037 84.501 445.139 84.447C445.247 84.387 445.301 84.3 445.301 84.186C445.301 84.072 445.244 83.988 445.13 83.934C445.022 83.88 444.734 83.814 444.266 83.736C443.804 83.658 443.459 83.526 443.231 83.34C443.003 83.154 442.889 82.824 442.889 82.35C442.889 81.87 443.051 81.51 443.375 81.27C443.699 81.024 444.116 80.901 444.626 80.901C444.98 80.901 445.463 80.958 446.075 81.072L446.372 81.126L446.354 82.125ZM449.862 82.026H448.755V83.871C448.755 84.051 448.758 84.18 448.764 84.258C448.776 84.33 448.809 84.393 448.863 84.447C448.923 84.501 449.013 84.528 449.133 84.528L449.817 84.51L449.871 85.473C449.469 85.563 449.163 85.608 448.953 85.608C448.413 85.608 448.044 85.488 447.846 85.248C447.648 85.002 447.549 84.552 447.549 83.898V82.026H447.018V81H447.549V79.749H448.755V81H449.862V82.026ZM452.867 81.513C453.185 81.099 453.716 80.892 454.46 80.892C455.204 80.892 455.735 81.099 456.053 81.513C456.371 81.921 456.53 82.497 456.53 83.241C456.53 84.819 455.84 85.608 454.46 85.608C453.08 85.608 452.39 84.819 452.39 83.241C452.39 82.497 452.549 81.921 452.867 81.513ZM453.794 84.258C453.92 84.474 454.142 84.582 454.46 84.582C454.778 84.582 454.997 84.474 455.117 84.258C455.243 84.042 455.306 83.703 455.306 83.241C455.306 82.779 455.243 82.443 455.117 82.233C454.997 82.023 454.778 81.918 454.46 81.918C454.142 81.918 453.92 82.023 453.794 82.233C453.674 82.443 453.614 82.779 453.614 83.241C453.614 83.703 453.674 84.042 453.794 84.258ZM458.836 82.026V85.5H457.63V82.026H457.144V81H457.63V80.802C457.63 80.154 457.726 79.707 457.918 79.461C458.11 79.215 458.452 79.092 458.944 79.092C459.16 79.092 459.439 79.122 459.781 79.182L459.97 79.209L459.952 80.19C459.688 80.178 459.466 80.172 459.286 80.172C459.106 80.172 458.986 80.22 458.926 80.316C458.866 80.412 458.836 80.577 458.836 80.811V81H459.925V82.026H458.836ZM466.434 79.2V85.5H465.237V85.311C464.817 85.509 464.454 85.608 464.148 85.608C463.494 85.608 463.038 85.419 462.78 85.041C462.522 84.663 462.393 84.066 462.393 83.25C462.393 82.428 462.546 81.831 462.852 81.459C463.164 81.081 463.632 80.892 464.256 80.892C464.448 80.892 464.715 80.922 465.057 80.982L465.228 81.018V79.2H466.434ZM465.102 84.42L465.228 84.393V82.026C464.898 81.966 464.604 81.936 464.346 81.936C463.86 81.936 463.617 82.368 463.617 83.232C463.617 83.7 463.671 84.033 463.779 84.231C463.887 84.429 464.064 84.528 464.31 84.528C464.562 84.528 464.826 84.492 465.102 84.42ZM468.538 83.763C468.544 84.039 468.616 84.24 468.754 84.366C468.898 84.486 469.102 84.546 469.366 84.546C469.924 84.546 470.422 84.528 470.86 84.492L471.112 84.465L471.13 85.356C470.44 85.524 469.816 85.608 469.258 85.608C468.58 85.608 468.088 85.428 467.782 85.068C467.476 84.708 467.323 84.123 467.323 83.313C467.323 81.699 467.986 80.892 469.312 80.892C470.62 80.892 471.274 81.57 471.274 82.926L471.184 83.763H468.538ZM470.086 82.845C470.086 82.485 470.029 82.236 469.915 82.098C469.801 81.954 469.6 81.882 469.312 81.882C469.03 81.882 468.829 81.957 468.709 82.107C468.595 82.251 468.535 82.497 468.529 82.845H470.086ZM475.367 82.125C474.623 82.029 474.101 81.981 473.801 81.981C473.507 81.981 473.315 82.008 473.225 82.062C473.141 82.116 473.099 82.203 473.099 82.323C473.099 82.437 473.156 82.518 473.27 82.566C473.39 82.608 473.69 82.674 474.17 82.764C474.656 82.848 475.001 82.989 475.205 83.187C475.409 83.385 475.511 83.706 475.511 84.15C475.511 85.122 474.908 85.608 473.702 85.608C473.306 85.608 472.826 85.554 472.262 85.446L471.974 85.392L472.01 84.384C472.754 84.48 473.27 84.528 473.558 84.528C473.852 84.528 474.05 84.501 474.152 84.447C474.26 84.387 474.314 84.3 474.314 84.186C474.314 84.072 474.257 83.988 474.143 83.934C474.035 83.88 473.747 83.814 473.279 83.736C472.817 83.658 472.472 83.526 472.244 83.34C472.016 83.154 471.902 82.824 471.902 82.35C471.902 81.87 472.064 81.51 472.388 81.27C472.712 81.024 473.129 80.901 473.639 80.901C473.993 80.901 474.476 80.958 475.088 81.072L475.385 81.126L475.367 82.125ZM478.064 80.892C478.376 80.892 478.775 80.94 479.261 81.036L479.504 81.09L479.468 82.044C478.994 81.996 478.643 81.972 478.415 81.972C478.001 81.972 477.725 82.062 477.587 82.242C477.455 82.416 477.389 82.749 477.389 83.241C477.389 83.733 477.455 84.072 477.587 84.258C477.725 84.438 478.004 84.528 478.424 84.528L479.468 84.456L479.504 85.419C478.862 85.545 478.373 85.608 478.037 85.608C477.371 85.608 476.891 85.422 476.597 85.05C476.309 84.672 476.165 84.069 476.165 83.241C476.165 82.413 476.315 81.816 476.615 81.45C476.915 81.078 477.398 80.892 478.064 80.892ZM480.398 85.5V81H481.595V81.477C482.099 81.177 482.579 80.982 483.035 80.892V82.107C482.549 82.209 482.132 82.314 481.784 82.422L481.604 82.485V85.5H480.398ZM483.746 85.5V81H484.952V85.5H483.746ZM483.746 80.424V79.2H484.952V80.424H483.746ZM486.067 87.39V81H487.264V81.243C487.654 81.009 487.996 80.892 488.29 80.892C488.896 80.892 489.343 81.075 489.631 81.441C489.919 81.801 490.063 82.416 490.063 83.286C490.063 84.156 489.904 84.762 489.586 85.104C489.268 85.44 488.746 85.608 488.02 85.608C487.822 85.608 487.609 85.59 487.381 85.554L487.273 85.536V87.39H486.067ZM488.056 81.972C487.834 81.972 487.609 82.017 487.381 82.107L487.273 82.152V84.51C487.543 84.546 487.762 84.564 487.93 84.564C488.278 84.564 488.515 84.462 488.641 84.258C488.773 84.054 488.839 83.706 488.839 83.214C488.839 82.386 488.578 81.972 488.056 81.972ZM493.455 82.026H492.348V83.871C492.348 84.051 492.351 84.18 492.357 84.258C492.369 84.33 492.402 84.393 492.456 84.447C492.516 84.501 492.606 84.528 492.726 84.528L493.41 84.51L493.464 85.473C493.062 85.563 492.756 85.608 492.546 85.608C492.006 85.608 491.637 85.488 491.439 85.248C491.241 85.002 491.142 84.552 491.142 83.898V82.026H490.611V81H491.142V79.749H492.348V81H493.455V82.026ZM494.241 85.5V81H495.447V85.5H494.241ZM494.241 80.424V79.2H495.447V80.424H494.241ZM496.804 81.513C497.122 81.099 497.653 80.892 498.397 80.892C499.141 80.892 499.672 81.099 499.99 81.513C500.308 81.921 500.467 82.497 500.467 83.241C500.467 84.819 499.777 85.608 498.397 85.608C497.017 85.608 496.327 84.819 496.327 83.241C496.327 82.497 496.486 81.921 496.804 81.513ZM497.731 84.258C497.857 84.474 498.079 84.582 498.397 84.582C498.715 84.582 498.934 84.474 499.054 84.258C499.18 84.042 499.243 83.703 499.243 83.241C499.243 82.779 499.18 82.443 499.054 82.233C498.934 82.023 498.715 81.918 498.397 81.918C498.079 81.918 497.857 82.023 497.731 82.233C497.611 82.443 497.551 82.779 497.551 83.241C497.551 83.703 497.611 84.042 497.731 84.258ZM502.557 85.5H501.351V81H502.548V81.252C502.956 81.012 503.331 80.892 503.673 80.892C504.273 80.892 504.687 81.069 504.915 81.423C505.143 81.777 505.257 82.323 505.257 83.061V85.5H504.051V83.097C504.051 82.713 504.006 82.431 503.916 82.251C503.826 82.065 503.646 81.972 503.376 81.972C503.13 81.972 502.893 82.014 502.665 82.098L502.557 82.134V85.5ZM509.689 80.766C509.509 81.588 509.419 82.263 509.419 82.791C509.419 83.319 509.491 83.904 509.635 84.546C509.779 85.182 509.923 85.686 510.067 86.058L510.274 86.625H509.131C509.047 86.493 508.936 86.271 508.798 85.959C508.66 85.647 508.543 85.35 508.447 85.068C508.357 84.786 508.273 84.438 508.195 84.024C508.123 83.604 508.087 83.193 508.087 82.791C508.087 82.389 508.123 81.975 508.195 81.549C508.267 81.123 508.354 80.751 508.456 80.433C508.672 79.761 508.861 79.269 509.023 78.957L509.131 78.75H510.274C510.07 79.272 509.875 79.944 509.689 80.766ZM511.18 85.5V79.38H512.422V85.5H511.18ZM513.755 85.5V79.38H514.997V85.5H513.755ZM518.254 85.5V79.2H519.46V85.5H518.254ZM521.615 83.763C521.621 84.039 521.693 84.24 521.831 84.366C521.975 84.486 522.179 84.546 522.443 84.546C523.001 84.546 523.499 84.528 523.937 84.492L524.189 84.465L524.207 85.356C523.517 85.524 522.893 85.608 522.335 85.608C521.657 85.608 521.165 85.428 520.859 85.068C520.553 84.708 520.4 84.123 520.4 83.313C520.4 81.699 521.063 80.892 522.389 80.892C523.697 80.892 524.351 81.57 524.351 82.926L524.261 83.763H521.615ZM523.163 82.845C523.163 82.485 523.106 82.236 522.992 82.098C522.878 81.954 522.677 81.882 522.389 81.882C522.107 81.882 521.906 81.957 521.786 82.107C521.672 82.251 521.612 82.497 521.606 82.845H523.163ZM524.738 81H525.998L526.718 84.474H526.97L527.726 81H528.95L527.87 85.5H525.818L524.738 81ZM530.571 83.763C530.577 84.039 530.649 84.24 530.787 84.366C530.931 84.486 531.135 84.546 531.399 84.546C531.957 84.546 532.455 84.528 532.893 84.492L533.145 84.465L533.163 85.356C532.473 85.524 531.849 85.608 531.291 85.608C530.613 85.608 530.121 85.428 529.815 85.068C529.509 84.708 529.356 84.123 529.356 83.313C529.356 81.699 530.019 80.892 531.345 80.892C532.653 80.892 533.307 81.57 533.307 82.926L533.217 83.763H530.571ZM532.119 82.845C532.119 82.485 532.062 82.236 531.948 82.098C531.834 81.954 531.633 81.882 531.345 81.882C531.063 81.882 530.862 81.957 530.742 82.107C530.628 82.251 530.568 82.497 530.562 82.845H532.119ZM534.223 85.5V79.2H535.429V85.5H534.223ZM538.35 81.54C538.428 81.972 538.467 82.389 538.467 82.791C538.467 83.193 538.431 83.601 538.359 84.015C538.287 84.423 538.2 84.777 538.098 85.077C537.882 85.707 537.693 86.16 537.531 86.436L537.423 86.625H536.28C536.484 86.163 536.676 85.542 536.856 84.762C537.042 83.976 537.135 83.319 537.135 82.791C537.135 82.263 537.063 81.663 536.919 80.991C536.781 80.313 536.64 79.77 536.496 79.362L536.28 78.75H537.423C537.507 78.9 537.618 79.146 537.756 79.488C537.894 79.824 538.008 80.142 538.098 80.442C538.194 80.742 538.278 81.108 538.35 81.54Z" fill="#17324D"/>
<rect x="436" y="101.5" width="160" height="1" fill="#17324D"/>
<path d="M627.149 85.5H623.666V79.38H624.908V84.402H627.149V85.5ZM627.803 85.5V81H629.009V85.5H627.803ZM627.803 80.424V79.2H629.009V80.424H627.803ZM633.354 82.125C632.61 82.029 632.088 81.981 631.788 81.981C631.494 81.981 631.302 82.008 631.212 82.062C631.128 82.116 631.086 82.203 631.086 82.323C631.086 82.437 631.143 82.518 631.257 82.566C631.377 82.608 631.677 82.674 632.157 82.764C632.643 82.848 632.988 82.989 633.192 83.187C633.396 83.385 633.498 83.706 633.498 84.15C633.498 85.122 632.895 85.608 631.689 85.608C631.293 85.608 630.813 85.554 630.249 85.446L629.961 85.392L629.997 84.384C630.741 84.48 631.257 84.528 631.545 84.528C631.839 84.528 632.037 84.501 632.139 84.447C632.247 84.387 632.301 84.3 632.301 84.186C632.301 84.072 632.244 83.988 632.13 83.934C632.022 83.88 631.734 83.814 631.266 83.736C630.804 83.658 630.459 83.526 630.231 83.34C630.003 83.154 629.889 82.824 629.889 82.35C629.889 81.87 630.051 81.51 630.375 81.27C630.699 81.024 631.116 80.901 631.626 80.901C631.98 80.901 632.463 80.958 633.075 81.072L633.372 81.126L633.354 82.125ZM636.862 82.026H635.755V83.871C635.755 84.051 635.758 84.18 635.764 84.258C635.776 84.33 635.809 84.393 635.863 84.447C635.923 84.501 636.013 84.528 636.133 84.528L636.817 84.51L636.871 85.473C636.469 85.563 636.163 85.608 635.953 85.608C635.413 85.608 635.044 85.488 634.846 85.248C634.648 85.002 634.549 84.552 634.549 83.898V82.026H634.018V81H634.549V79.749H635.755V81H636.862V82.026ZM639.867 81.513C640.185 81.099 640.716 80.892 641.46 80.892C642.204 80.892 642.735 81.099 643.053 81.513C643.371 81.921 643.53 82.497 643.53 83.241C643.53 84.819 642.84 85.608 641.46 85.608C640.08 85.608 639.39 84.819 639.39 83.241C639.39 82.497 639.549 81.921 639.867 81.513ZM640.794 84.258C640.92 84.474 641.142 84.582 641.46 84.582C641.778 84.582 641.997 84.474 642.117 84.258C642.243 84.042 642.306 83.703 642.306 83.241C642.306 82.779 642.243 82.443 642.117 82.233C641.997 82.023 641.778 81.918 641.46 81.918C641.142 81.918 640.92 82.023 640.794 82.233C640.674 82.443 640.614 82.779 640.614 83.241C640.614 83.703 640.674 84.042 640.794 84.258ZM645.836 82.026V85.5H644.63V82.026H644.144V81H644.63V80.802C644.63 80.154 644.726 79.707 644.918 79.461C645.11 79.215 645.452 79.092 645.944 79.092C646.16 79.092 646.439 79.122 646.781 79.182L646.97 79.209L646.952 80.19C646.688 80.178 646.466 80.172 646.286 80.172C646.106 80.172 645.986 80.22 645.926 80.316C645.866 80.412 645.836 80.577 645.836 80.811V81H646.925V82.026H645.836ZM649.204 85.5L650.581 79.38H652.939L654.316 85.5H653.074L652.831 84.393H650.689L650.446 85.5H649.204ZM651.544 80.406L650.923 83.313H652.597L651.976 80.406H651.544ZM657.419 82.026H656.312V83.871C656.312 84.051 656.315 84.18 656.321 84.258C656.333 84.33 656.366 84.393 656.42 84.447C656.48 84.501 656.57 84.528 656.69 84.528L657.374 84.51L657.428 85.473C657.026 85.563 656.72 85.608 656.51 85.608C655.97 85.608 655.601 85.488 655.403 85.248C655.205 85.002 655.106 84.552 655.106 83.898V82.026H654.575V81H655.106V79.749H656.312V81H657.419V82.026ZM660.697 82.026H659.59V83.871C659.59 84.051 659.593 84.18 659.599 84.258C659.611 84.33 659.644 84.393 659.698 84.447C659.758 84.501 659.848 84.528 659.968 84.528L660.652 84.51L660.706 85.473C660.304 85.563 659.998 85.608 659.788 85.608C659.248 85.608 658.879 85.488 658.681 85.248C658.483 85.002 658.384 84.552 658.384 83.898V82.026H657.853V81H658.384V79.749H659.59V81H660.697V82.026ZM661.483 85.5V81H662.68V81.477C663.184 81.177 663.664 80.982 664.12 80.892V82.107C663.634 82.209 663.217 82.314 662.869 82.422L662.689 82.485V85.5H661.483ZM664.831 85.5V81H666.037V85.5H664.831ZM664.831 80.424V79.2H666.037V80.424H664.831ZM669.33 80.892C669.96 80.892 670.419 81.066 670.707 81.414C671.001 81.756 671.148 82.371 671.148 83.259C671.148 84.147 670.98 84.762 670.644 85.104C670.308 85.44 669.729 85.608 668.907 85.608C668.649 85.608 668.178 85.578 667.494 85.518L667.152 85.482V79.2H668.358V81.135C668.742 80.973 669.066 80.892 669.33 80.892ZM668.907 84.528C669.309 84.528 669.579 84.432 669.717 84.24C669.855 84.042 669.924 83.691 669.924 83.187C669.924 82.377 669.672 81.972 669.168 81.972C668.928 81.972 668.7 82.002 668.484 82.062L668.358 82.089V84.492C668.634 84.516 668.817 84.528 668.907 84.528ZM674.702 81H675.908V85.5H674.711V85.248C674.279 85.488 673.904 85.608 673.586 85.608C672.962 85.608 672.542 85.437 672.326 85.095C672.11 84.747 672.002 84.168 672.002 83.358V81H673.208V83.376C673.208 83.82 673.244 84.123 673.316 84.285C673.388 84.447 673.562 84.528 673.838 84.528C674.102 84.528 674.351 84.486 674.585 84.402L674.702 84.366V81ZM679.515 82.026H678.408V83.871C678.408 84.051 678.411 84.18 678.417 84.258C678.429 84.33 678.462 84.393 678.516 84.447C678.576 84.501 678.666 84.528 678.786 84.528L679.47 84.51L679.524 85.473C679.122 85.563 678.816 85.608 678.606 85.608C678.066 85.608 677.697 85.488 677.499 85.248C677.301 85.002 677.202 84.552 677.202 83.898V82.026H676.671V81H677.202V79.749H678.408V81H679.515V82.026ZM681.29 83.763C681.296 84.039 681.368 84.24 681.506 84.366C681.65 84.486 681.854 84.546 682.118 84.546C682.676 84.546 683.174 84.528 683.612 84.492L683.864 84.465L683.882 85.356C683.192 85.524 682.568 85.608 682.01 85.608C681.332 85.608 680.84 85.428 680.534 85.068C680.228 84.708 680.075 84.123 680.075 83.313C680.075 81.699 680.738 80.892 682.064 80.892C683.372 80.892 684.026 81.57 684.026 82.926L683.936 83.763H681.29ZM682.838 82.845C682.838 82.485 682.781 82.236 682.667 82.098C682.553 81.954 682.352 81.882 682.064 81.882C681.782 81.882 681.581 81.957 681.461 82.107C681.347 82.251 681.287 82.497 681.281 82.845H682.838ZM688.119 82.125C687.375 82.029 686.853 81.981 686.553 81.981C686.259 81.981 686.067 82.008 685.977 82.062C685.893 82.116 685.851 82.203 685.851 82.323C685.851 82.437 685.908 82.518 686.022 82.566C686.142 82.608 686.442 82.674 686.922 82.764C687.408 82.848 687.753 82.989 687.957 83.187C688.161 83.385 688.263 83.706 688.263 84.15C688.263 85.122 687.66 85.608 686.454 85.608C686.058 85.608 685.578 85.554 685.014 85.446L684.726 85.392L684.762 84.384C685.506 84.48 686.022 84.528 686.31 84.528C686.604 84.528 686.802 84.501 686.904 84.447C687.012 84.387 687.066 84.3 687.066 84.186C687.066 84.072 687.009 83.988 686.895 83.934C686.787 83.88 686.499 83.814 686.031 83.736C685.569 83.658 685.224 83.526 684.996 83.34C684.768 83.154 684.654 82.824 684.654 82.35C684.654 81.87 684.816 81.51 685.14 81.27C685.464 81.024 685.881 80.901 686.391 80.901C686.745 80.901 687.228 80.958 687.84 81.072L688.137 81.126L688.119 82.125ZM690.769 81H691.957L692.506 84.474H692.722L693.406 81.09H694.648L695.332 84.474H695.548L696.097 81H697.285L696.43 85.5H694.54L694.027 82.746L693.514 85.5H691.624L690.769 81ZM698.063 85.5V81H699.269V85.5H698.063ZM698.063 80.424V79.2H699.269V80.424H698.063ZM702.876 82.026H701.769V83.871C701.769 84.051 701.772 84.18 701.778 84.258C701.79 84.33 701.823 84.393 701.877 84.447C701.937 84.501 702.027 84.528 702.147 84.528L702.831 84.51L702.885 85.473C702.483 85.563 702.177 85.608 701.967 85.608C701.427 85.608 701.058 85.488 700.86 85.248C700.662 85.002 700.563 84.552 700.563 83.898V82.026H700.032V81H700.563V79.749H701.769V81H702.876V82.026ZM704.868 85.5H703.662V79.2H704.868V81.216C705.282 81 705.654 80.892 705.984 80.892C706.584 80.892 706.998 81.069 707.226 81.423C707.454 81.777 707.568 82.323 707.568 83.061V85.5H706.362V83.088C706.362 82.71 706.317 82.431 706.227 82.251C706.137 82.065 705.957 81.972 705.687 81.972C705.453 81.972 705.219 82.008 704.985 82.08L704.868 82.116V85.5ZM710.191 81H711.451L712.171 84.474H712.423L713.179 81H714.403L713.323 85.5H711.271L710.191 81ZM718.49 82.404V84.276C718.502 84.42 718.526 84.522 718.562 84.582C718.598 84.636 718.673 84.675 718.787 84.699L718.751 85.608C718.445 85.608 718.199 85.587 718.013 85.545C717.833 85.503 717.65 85.419 717.464 85.293C717.032 85.503 716.591 85.608 716.141 85.608C715.211 85.608 714.746 85.116 714.746 84.132C714.746 83.652 714.875 83.313 715.133 83.115C715.391 82.911 715.787 82.791 716.321 82.755L717.284 82.683V82.404C717.284 82.218 717.242 82.092 717.158 82.026C717.074 81.954 716.939 81.918 716.753 81.918L715.061 81.99L715.025 81.153C715.667 80.979 716.276 80.892 716.852 80.892C717.434 80.892 717.851 81.012 718.103 81.252C718.361 81.492 718.49 81.876 718.49 82.404ZM716.465 83.592C716.129 83.622 715.961 83.802 715.961 84.132C715.961 84.462 716.108 84.627 716.402 84.627C716.63 84.627 716.879 84.591 717.149 84.519L717.284 84.483V83.52L716.465 83.592ZM719.694 85.5V79.2H720.9V85.5H719.694ZM724.721 81H725.927V85.5H724.73V85.248C724.298 85.488 723.923 85.608 723.605 85.608C722.981 85.608 722.561 85.437 722.345 85.095C722.129 84.747 722.021 84.168 722.021 83.358V81H723.227V83.376C723.227 83.82 723.263 84.123 723.335 84.285C723.407 84.447 723.581 84.528 723.857 84.528C724.121 84.528 724.37 84.486 724.604 84.402L724.721 84.366V81ZM728.03 83.763C728.036 84.039 728.108 84.24 728.246 84.366C728.39 84.486 728.594 84.546 728.858 84.546C729.416 84.546 729.914 84.528 730.352 84.492L730.604 84.465L730.622 85.356C729.932 85.524 729.308 85.608 728.75 85.608C728.072 85.608 727.58 85.428 727.274 85.068C726.968 84.708 726.815 84.123 726.815 83.313C726.815 81.699 727.478 80.892 728.804 80.892C730.112 80.892 730.766 81.57 730.766 82.926L730.676 83.763H728.03ZM729.578 82.845C729.578 82.485 729.521 82.236 729.407 82.098C729.293 81.954 729.092 81.882 728.804 81.882C728.522 81.882 728.321 81.957 728.201 82.107C728.087 82.251 728.027 82.497 728.021 82.845H729.578ZM734.992 80.766C734.812 81.588 734.722 82.263 734.722 82.791C734.722 83.319 734.794 83.904 734.938 84.546C735.082 85.182 735.226 85.686 735.37 86.058L735.577 86.625H734.434C734.35 86.493 734.239 86.271 734.101 85.959C733.963 85.647 733.846 85.35 733.75 85.068C733.66 84.786 733.576 84.438 733.498 84.024C733.426 83.604 733.39 83.193 733.39 82.791C733.39 82.389 733.426 81.975 733.498 81.549C733.57 81.123 733.657 80.751 733.759 80.433C733.975 79.761 734.164 79.269 734.326 78.957L734.434 78.75H735.577C735.373 79.272 735.178 79.944 734.992 80.766ZM736.482 85.5V79.38H737.724V85.5H736.482ZM739.058 85.5V79.38H740.3V85.5H739.058ZM743.556 85.5V79.2H744.762V85.5H743.556ZM746.918 83.763C746.924 84.039 746.996 84.24 747.134 84.366C747.278 84.486 747.482 84.546 747.746 84.546C748.304 84.546 748.802 84.528 749.24 84.492L749.492 84.465L749.51 85.356C748.82 85.524 748.196 85.608 747.638 85.608C746.96 85.608 746.468 85.428 746.162 85.068C745.856 84.708 745.703 84.123 745.703 83.313C745.703 81.699 746.366 80.892 747.692 80.892C749 80.892 749.654 81.57 749.654 82.926L749.564 83.763H746.918ZM748.466 82.845C748.466 82.485 748.409 82.236 748.295 82.098C748.181 81.954 747.98 81.882 747.692 81.882C747.41 81.882 747.209 81.957 747.089 82.107C746.975 82.251 746.915 82.497 746.909 82.845H748.466ZM750.04 81H751.3L752.02 84.474H752.272L753.028 81H754.252L753.172 85.5H751.12L750.04 81ZM755.874 83.763C755.88 84.039 755.952 84.24 756.09 84.366C756.234 84.486 756.438 84.546 756.702 84.546C757.26 84.546 757.758 84.528 758.196 84.492L758.448 84.465L758.466 85.356C757.776 85.524 757.152 85.608 756.594 85.608C755.916 85.608 755.424 85.428 755.118 85.068C754.812 84.708 754.659 84.123 754.659 83.313C754.659 81.699 755.322 80.892 756.648 80.892C757.956 80.892 758.61 81.57 758.61 82.926L758.52 83.763H755.874ZM757.422 82.845C757.422 82.485 757.365 82.236 757.251 82.098C757.137 81.954 756.936 81.882 756.648 81.882C756.366 81.882 756.165 81.957 756.045 82.107C755.931 82.251 755.871 82.497 755.865 82.845H757.422ZM759.526 85.5V79.2H760.732V85.5H759.526ZM763.653 81.54C763.731 81.972 763.77 82.389 763.77 82.791C763.77 83.193 763.734 83.601 763.662 84.015C763.59 84.423 763.503 84.777 763.401 85.077C763.185 85.707 762.996 86.16 762.834 86.436L762.726 86.625H761.583C761.787 86.163 761.979 85.542 762.159 84.762C762.345 83.976 762.438 83.319 762.438 82.791C762.438 82.263 762.366 81.663 762.222 80.991C762.084 80.313 761.943 79.77 761.799 79.362L761.583 78.75H762.726C762.81 78.9 762.921 79.146 763.059 79.488C763.197 79.824 763.311 80.142 763.401 80.442C763.497 80.742 763.581 81.108 763.653 81.54Z" fill="#17324D"/>
<rect x="623" y="101.5" width="160" height="1" fill="#17324D"/>
<path d="M187 31C187 26.5817 190.582 23 195 23H804C808.418 23 812 26.5817 812 31V49.5H187V31Z" fill="#004080"/>
<path d="M459.979 31.78H461.383L462.559 38.848H462.811L464.371 31.804H465.931L467.491 38.848H467.755L468.931 31.78H470.335L468.715 40H466.567L465.151 33.412L463.747 40H461.587L459.979 31.78ZM475.681 35.848V38.584C475.689 38.76 475.733 38.892 475.813 38.98C475.901 39.06 476.033 39.112 476.209 39.136L476.173 40.132C475.485 40.132 474.953 39.984 474.577 39.688C473.937 39.984 473.293 40.132 472.645 40.132C471.453 40.132 470.857 39.496 470.857 38.224C470.857 37.616 471.017 37.176 471.337 36.904C471.665 36.632 472.165 36.468 472.837 36.412L474.385 36.28V35.848C474.385 35.528 474.313 35.304 474.169 35.176C474.033 35.048 473.829 34.984 473.557 34.984C473.045 34.984 472.405 35.016 471.637 35.08L471.253 35.104L471.205 34.18C472.077 33.972 472.877 33.868 473.605 33.868C474.341 33.868 474.869 34.028 475.189 34.348C475.517 34.66 475.681 35.16 475.681 35.848ZM472.993 37.336C472.441 37.384 472.165 37.684 472.165 38.236C472.165 38.788 472.409 39.064 472.897 39.064C473.297 39.064 473.721 39 474.169 38.872L474.385 38.8V37.204L472.993 37.336ZM477.395 40V31.504H478.703V40H477.395ZM480.43 40V31.504H481.738V40H480.43ZM487.665 38.92L488.001 38.884L488.025 39.856C487.113 40.04 486.305 40.132 485.601 40.132C484.713 40.132 484.073 39.888 483.681 39.4C483.297 38.912 483.105 38.132 483.105 37.06C483.105 34.932 483.973 33.868 485.709 33.868C487.389 33.868 488.229 34.784 488.229 36.616L488.145 37.552H484.425C484.433 38.048 484.541 38.412 484.749 38.644C484.957 38.876 485.345 38.992 485.913 38.992C486.481 38.992 487.065 38.968 487.665 38.92ZM486.945 36.544C486.945 35.952 486.849 35.54 486.657 35.308C486.473 35.068 486.157 34.948 485.709 34.948C485.261 34.948 484.933 35.072 484.725 35.32C484.525 35.568 484.421 35.976 484.413 36.544H486.945ZM492.715 35.116H491.059V37.756C491.059 38.244 491.095 38.568 491.167 38.728C491.239 38.888 491.423 38.968 491.719 38.968L492.703 38.932L492.763 39.976C492.227 40.08 491.819 40.132 491.539 40.132C490.859 40.132 490.391 39.976 490.135 39.664C489.887 39.352 489.763 38.764 489.763 37.9V35.116H488.995V34H489.763V32.26H491.059V34H492.715V35.116ZM496.58 40V31.78H497.912V40H496.58ZM500.955 40H499.647V34H500.943V34.372C501.527 34.036 502.079 33.868 502.599 33.868C503.399 33.868 503.943 34.096 504.231 34.552C504.527 35 504.675 35.744 504.675 36.784V40H503.379V36.82C503.379 36.172 503.307 35.712 503.163 35.44C503.027 35.168 502.743 35.032 502.311 35.032C501.903 35.032 501.511 35.112 501.135 35.272L500.955 35.344V40ZM510.362 35.236C509.418 35.108 508.734 35.044 508.31 35.044C507.886 35.044 507.59 35.096 507.422 35.2C507.262 35.296 507.182 35.452 507.182 35.668C507.182 35.884 507.27 36.036 507.446 36.124C507.63 36.212 508.054 36.316 508.718 36.436C509.39 36.548 509.866 36.728 510.146 36.976C510.426 37.224 510.566 37.664 510.566 38.296C510.566 38.928 510.362 39.392 509.954 39.688C509.554 39.984 508.966 40.132 508.19 40.132C507.702 40.132 507.086 40.064 506.342 39.928L505.97 39.868L506.018 38.776C506.978 38.904 507.67 38.968 508.094 38.968C508.518 38.968 508.818 38.916 508.994 38.812C509.178 38.708 509.27 38.536 509.27 38.296C509.27 38.056 509.182 37.892 509.006 37.804C508.838 37.708 508.426 37.608 507.77 37.504C507.122 37.392 506.646 37.22 506.342 36.988C506.038 36.756 505.886 36.332 505.886 35.716C505.886 35.1 506.094 34.64 506.51 34.336C506.934 34.032 507.474 33.88 508.13 33.88C508.642 33.88 509.27 33.944 510.014 34.072L510.386 34.144L510.362 35.236ZM515.051 35.116H513.395V37.756C513.395 38.244 513.431 38.568 513.503 38.728C513.575 38.888 513.759 38.968 514.055 38.968L515.039 38.932L515.099 39.976C514.563 40.08 514.155 40.132 513.875 40.132C513.195 40.132 512.727 39.976 512.471 39.664C512.223 39.352 512.099 38.764 512.099 37.9V35.116H511.331V34H512.099V32.26H513.395V34H515.051V35.116ZM520.564 35.848V38.584C520.572 38.76 520.616 38.892 520.696 38.98C520.784 39.06 520.916 39.112 521.092 39.136L521.056 40.132C520.368 40.132 519.836 39.984 519.46 39.688C518.82 39.984 518.176 40.132 517.528 40.132C516.336 40.132 515.74 39.496 515.74 38.224C515.74 37.616 515.9 37.176 516.22 36.904C516.548 36.632 517.048 36.468 517.72 36.412L519.268 36.28V35.848C519.268 35.528 519.196 35.304 519.052 35.176C518.916 35.048 518.712 34.984 518.44 34.984C517.928 34.984 517.288 35.016 516.52 35.08L516.136 35.104L516.088 34.18C516.96 33.972 517.76 33.868 518.488 33.868C519.224 33.868 519.752 34.028 520.072 34.348C520.4 34.66 520.564 35.16 520.564 35.848ZM517.876 37.336C517.324 37.384 517.048 37.684 517.048 38.236C517.048 38.788 517.292 39.064 517.78 39.064C518.18 39.064 518.604 39 519.052 38.872L519.268 38.8V37.204L517.876 37.336ZM523.514 40H522.206V34H523.502V34.372C524.086 34.036 524.638 33.868 525.158 33.868C525.958 33.868 526.502 34.096 526.79 34.552C527.086 35 527.234 35.744 527.234 36.784V40H525.938V36.82C525.938 36.172 525.866 35.712 525.722 35.44C525.586 35.168 525.302 35.032 524.87 35.032C524.462 35.032 524.07 35.112 523.694 35.272L523.514 35.344V40ZM531.001 33.868C531.425 33.868 531.925 33.924 532.501 34.036L532.801 34.096L532.753 35.128C532.121 35.064 531.653 35.032 531.349 35.032C530.741 35.032 530.333 35.168 530.125 35.44C529.917 35.712 529.813 36.224 529.813 36.976C529.813 37.728 529.913 38.248 530.113 38.536C530.313 38.824 530.729 38.968 531.361 38.968L532.765 38.872L532.801 39.916C531.993 40.06 531.385 40.132 530.977 40.132C530.065 40.132 529.421 39.888 529.045 39.4C528.677 38.904 528.493 38.096 528.493 36.976C528.493 35.856 528.689 35.06 529.081 34.588C529.473 34.108 530.113 33.868 531.001 33.868ZM538.279 38.92L538.615 38.884L538.639 39.856C537.727 40.04 536.919 40.132 536.215 40.132C535.327 40.132 534.687 39.888 534.295 39.4C533.911 38.912 533.719 38.132 533.719 37.06C533.719 34.932 534.587 33.868 536.323 33.868C538.003 33.868 538.843 34.784 538.843 36.616L538.759 37.552H535.039C535.047 38.048 535.155 38.412 535.363 38.644C535.571 38.876 535.959 38.992 536.527 38.992C537.095 38.992 537.679 38.968 538.279 38.92ZM537.559 36.544C537.559 35.952 537.463 35.54 537.271 35.308C537.087 35.068 536.771 34.948 536.323 34.948C535.875 34.948 535.547 35.072 535.339 35.32C535.139 35.568 535.035 35.976 535.027 36.544H537.559Z" fill="white"/>
<g filter="url(#filter0_d_1721_68288)">
<path d="M218 141C218 134.373 223.373 129 230 129H366C372.627 129 378 134.373 378 141V548H218V141Z" fill="white"/>
<path d="M229.16 152H226.79V145.15H229.16C230.213 145.15 230.933 145.417 231.32 145.95C231.707 146.483 231.9 147.32 231.9 148.46C231.9 149.04 231.86 149.533 231.78 149.94C231.707 150.34 231.573 150.703 231.38 151.03C231 151.677 230.26 152 229.16 152ZM230.75 148.46C230.75 147.633 230.647 147.037 230.44 146.67C230.233 146.303 229.807 146.12 229.16 146.12H227.9V151.02H229.16C229.82 151.02 230.26 150.777 230.48 150.29C230.587 150.043 230.657 149.78 230.69 149.5C230.73 149.22 230.75 148.873 230.75 148.46ZM233.336 147.54C233.683 147.107 234.256 146.89 235.056 146.89C235.856 146.89 236.426 147.107 236.766 147.54C237.113 147.973 237.286 148.623 237.286 149.49C237.286 150.357 237.12 151.01 236.786 151.45C236.453 151.89 235.876 152.11 235.056 152.11C234.236 152.11 233.66 151.89 233.326 151.45C232.993 151.01 232.826 150.357 232.826 149.49C232.826 148.623 232.996 147.973 233.336 147.54ZM234.156 150.79C234.31 151.057 234.61 151.19 235.056 151.19C235.503 151.19 235.803 151.057 235.956 150.79C236.11 150.523 236.186 150.087 236.186 149.48C236.186 148.873 236.103 148.443 235.936 148.19C235.776 147.937 235.483 147.81 235.056 147.81C234.63 147.81 234.333 147.937 234.166 148.19C234.006 148.443 233.926 148.873 233.926 149.48C233.926 150.087 234.003 150.523 234.156 150.79ZM240.239 146.89C240.592 146.89 241.009 146.937 241.489 147.03L241.739 147.08L241.699 147.94C241.172 147.887 240.782 147.86 240.529 147.86C240.022 147.86 239.682 147.973 239.509 148.2C239.336 148.427 239.249 148.853 239.249 149.48C239.249 150.107 239.332 150.54 239.499 150.78C239.666 151.02 240.012 151.14 240.539 151.14L241.709 151.06L241.739 151.93C241.066 152.05 240.559 152.11 240.219 152.11C239.459 152.11 238.922 151.907 238.609 151.5C238.302 151.087 238.149 150.413 238.149 149.48C238.149 148.547 238.312 147.883 238.639 147.49C238.966 147.09 239.499 146.89 240.239 146.89ZM245.823 147H246.903V152H245.823V151.69C245.336 151.97 244.886 152.11 244.473 152.11C243.786 152.11 243.326 151.927 243.093 151.56C242.859 151.187 242.743 150.537 242.743 149.61V147H243.833V149.62C243.833 150.22 243.883 150.623 243.983 150.83C244.083 151.037 244.316 151.14 244.683 151.14C245.043 151.14 245.373 151.073 245.673 150.94L245.823 150.88V147ZM249.313 152H248.222V147H249.303V147.31C249.776 147.03 250.209 146.89 250.603 146.89C251.183 146.89 251.606 147.053 251.873 147.38C252.479 147.053 253.083 146.89 253.683 146.89C254.283 146.89 254.706 147.077 254.953 147.45C255.199 147.817 255.323 148.44 255.323 149.32V152H254.243V149.35C254.243 148.81 254.186 148.427 254.073 148.2C253.966 147.973 253.739 147.86 253.393 147.86C253.093 147.86 252.769 147.927 252.423 148.06L252.253 148.13C252.306 148.263 252.333 148.69 252.333 149.41V152H251.253V149.43C251.253 148.837 251.199 148.427 251.093 148.2C250.986 147.973 250.753 147.86 250.393 147.86C250.059 147.86 249.749 147.927 249.463 148.06L249.313 148.12V152ZM260.161 151.1L260.441 151.07L260.461 151.88C259.701 152.033 259.028 152.11 258.441 152.11C257.701 152.11 257.168 151.907 256.841 151.5C256.521 151.093 256.361 150.443 256.361 149.55C256.361 147.777 257.085 146.89 258.531 146.89C259.931 146.89 260.631 147.653 260.631 149.18L260.561 149.96H257.461C257.468 150.373 257.558 150.677 257.731 150.87C257.905 151.063 258.228 151.16 258.701 151.16C259.175 151.16 259.661 151.14 260.161 151.1ZM259.561 149.12C259.561 148.627 259.481 148.283 259.321 148.09C259.168 147.89 258.905 147.79 258.531 147.79C258.158 147.79 257.885 147.893 257.711 148.1C257.545 148.307 257.458 148.647 257.451 149.12H259.561ZM262.77 152H261.68V147H262.76V147.31C263.246 147.03 263.706 146.89 264.14 146.89C264.806 146.89 265.26 147.08 265.5 147.46C265.746 147.833 265.87 148.453 265.87 149.32V152H264.79V149.35C264.79 148.81 264.73 148.427 264.61 148.2C264.496 147.973 264.26 147.86 263.9 147.86C263.56 147.86 263.233 147.927 262.92 148.06L262.77 148.12V152ZM269.829 147.93H268.449V150.13C268.449 150.537 268.479 150.807 268.539 150.94C268.599 151.073 268.752 151.14 268.999 151.14L269.819 151.11L269.869 151.98C269.422 152.067 269.082 152.11 268.849 152.11C268.282 152.11 267.892 151.98 267.679 151.72C267.472 151.46 267.369 150.97 267.369 150.25V147.93H266.729V147H267.369V145.55H268.449V147H269.829V147.93Z" fill="#5C6F82"/>
<path fill-rule="evenodd" clip-rule="evenodd" d="M226 164C226 162.895 226.895 162 228 162H366C367.105 162 368 162.895 368 164C368 165.105 367.105 166 366 166H228C226.895 166 226 165.105 226 164Z" fill="#D9DADB" stroke="#768594" stroke-width="0.25"/>
<path fill-rule="evenodd" clip-rule="evenodd" d="M226 172C226 170.895 226.895 170 228 170H351.698C352.802 170 353.698 170.895 353.698 172C353.698 173.105 352.802 174 351.698 174H228C226.895 174 226 173.105 226 172Z" fill="#D9DADB" stroke="#768594" stroke-width="0.25"/>
<g clip-path="url(#clip0_1721_68288)">
<rect x="226" y="186" width="144" height="89" rx="8" fill="#F2F7FC"/>
</g>
<rect x="226.25" y="186.25" width="143.5" height="88.5" rx="7.75" stroke="#929DA9" stroke-width="0.5"/>
<path fill-rule="evenodd" clip-rule="evenodd" d="M234 197.5C234 195.671 235.483 194.188 237.313 194.188H352.709C354.539 194.188 356.022 195.671 356.022 197.5C356.022 199.329 354.539 200.813 352.709 200.813H237.313C235.483 200.813 234 199.329 234 197.5Z" fill="#768594"/>
<path fill-rule="evenodd" clip-rule="evenodd" d="M234 207.625C234 205.796 235.483 204.312 237.313 204.312H342.688C344.517 204.312 346 205.796 346 207.625C346 209.454 344.517 210.938 342.688 210.938H237.312C235.483 210.938 234 209.454 234 207.625Z" fill="#768594"/>
<path fill-rule="evenodd" clip-rule="evenodd" d="M235 290C235 288.343 236.343 287 238 287H289C290.657 287 292 288.343 292 290C292 291.657 290.657 293 289 293H238C236.343 293 235 291.657 235 290Z" fill="#C5C7C9" stroke="#768594" stroke-width="0.25"/>
<path fill-rule="evenodd" clip-rule="evenodd" d="M235 299C235 297.895 235.895 297 237 297H346C347.105 297 348 297.895 348 299C348 300.105 347.105 301 346 301H237C235.895 301 235 300.105 235 299Z" fill="#D9DADB" stroke="#768594" stroke-width="0.25"/>
<ellipse cx="227.995" cy="295" rx="1.99468" ry="2" fill="#5C6F82"/>
<path fill-rule="evenodd" clip-rule="evenodd" d="M235 312C235 310.343 236.343 309 238 309H289C290.657 309 292 310.343 292 312C292 313.657 290.657 315 289 315H238C236.343 315 235 313.657 235 312Z" fill="#C5C7C9" stroke="#768594" stroke-width="0.25"/>
<path fill-rule="evenodd" clip-rule="evenodd" d="M235 321C235 319.895 235.895 319 237 319H346C347.105 319 348 319.895 348 321C348 322.105 347.105 323 346 323H237C235.895 323 235 322.105 235 321Z" fill="#D9DADB" stroke="#768594" stroke-width="0.25"/>
<ellipse cx="227.995" cy="317" rx="1.99468" ry="2" fill="#5C6F82"/>
<path fill-rule="evenodd" clip-rule="evenodd" d="M236.621 333.5C236.621 333.224 236.845 333 237.121 333H369.5C369.776 333 370 333.224 370 333.5C370 333.776 369.776 334 369.5 334H237.121C236.845 334 236.621 333.776 236.621 333.5Z" fill="#768594" stroke="#768594" stroke-width="0.25"/>
<ellipse cx="228.354" cy="333" rx="2.35438" ry="2" fill="white"/>
<path fill-rule="evenodd" clip-rule="evenodd" d="M235 346C235 344.343 236.343 343 238 343H289C290.657 343 292 344.343 292 346C292 347.657 290.657 349 289 349H238C236.343 349 235 347.657 235 346Z" fill="#C5C7C9" stroke="#768594" stroke-width="0.25"/>
<path fill-rule="evenodd" clip-rule="evenodd" d="M235 355C235 353.895 235.895 353 237 353H346C347.105 353 348 353.895 348 355C348 356.105 347.105 357 346 357H237C235.895 357 235 356.105 235 355Z" fill="#D9DADB" stroke="#768594" stroke-width="0.25"/>
<ellipse cx="227.995" cy="351" rx="1.99468" ry="2" fill="#5C6F82"/>
<path fill-rule="evenodd" clip-rule="evenodd" d="M235 368C235 366.343 236.343 365 238 365H289C290.657 365 292 366.343 292 368C292 369.657 290.657 371 289 371H238C236.343 371 235 369.657 235 368Z" fill="#C5C7C9" stroke="#768594" stroke-width="0.25"/>
<path fill-rule="evenodd" clip-rule="evenodd" d="M235 377C235 375.895 235.895 375 237 375H346C347.105 375 348 375.895 348 377C348 378.105 347.105 379 346 379H237C235.895 379 235 378.105 235 377Z" fill="#D9DADB" stroke="#768594" stroke-width="0.25"/>
<ellipse cx="227.995" cy="373" rx="1.99468" ry="2" fill="#5C6F82"/>
<path fill-rule="evenodd" clip-rule="evenodd" d="M235 390C235 388.343 236.343 387 238 387H289C290.657 387 292 388.343 292 390C292 391.657 290.657 393 289 393H238C236.343 393 235 391.657 235 390Z" fill="#C5C7C9" stroke="#768594" stroke-width="0.25"/>
<path fill-rule="evenodd" clip-rule="evenodd" d="M235 399C235 397.895 235.895 397 237 397H346C347.105 397 348 397.895 348 399C348 400.105 347.105 401 346 401H237C235.895 401 235 400.105 235 399Z" fill="#D9DADB" stroke="#768594" stroke-width="0.25"/>
<ellipse cx="227.995" cy="395" rx="1.99468" ry="2" fill="#5C6F82"/>
<path fill-rule="evenodd" clip-rule="evenodd" d="M235 412C235 410.343 236.343 409 238 409H289C290.657 409 292 410.343 292 412C292 413.657 290.657 415 289 415H238C236.343 415 235 413.657 235 412Z" fill="#C5C7C9" stroke="#768594" stroke-width="0.25"/>
<path fill-rule="evenodd" clip-rule="evenodd" d="M235 421C235 419.895 235.895 419 237 419H346C347.105 419 348 419.895 348 421C348 422.105 347.105 423 346 423H237C235.895 423 235 422.105 235 421Z" fill="#D9DADB" stroke="#768594" stroke-width="0.25"/>
<ellipse cx="227.995" cy="417" rx="1.99468" ry="2" fill="#5C6F82"/>
<path fill-rule="evenodd" clip-rule="evenodd" d="M235 435C235 433.343 236.343 432 238 432H289C290.657 432 292 433.343 292 435C292 436.657 290.657 438 289 438H238C236.343 438 235 436.657 235 435Z" fill="#C5C7C9" stroke="#768594" stroke-width="0.25"/>
<path fill-rule="evenodd" clip-rule="evenodd" d="M235 444C235 442.895 235.895 442 237 442H346C347.105 442 348 442.895 348 444C348 445.105 347.105 446 346 446H237C235.895 446 235 445.105 235 444Z" fill="#D9DADB" stroke="#768594" stroke-width="0.25"/>
<ellipse cx="227.995" cy="440" rx="1.99468" ry="2" fill="#5C6F82"/>
<path d="M354 434.4C354 432.522 355.522 431 357.4 431H366.6C368.478 431 370 432.522 370 434.4V443.6C370 445.478 368.478 447 366.6 447H357.4C355.522 447 354 445.478 354 443.6V434.4Z" fill="#F2F7FC"/>
<path fill-rule="evenodd" clip-rule="evenodd" d="M360.925 436.249C361.091 436.084 361.36 436.084 361.526 436.249L364.076 438.799C364.242 438.965 364.242 439.235 364.076 439.401L361.526 441.951C361.36 442.116 361.091 442.116 360.925 441.951C360.759 441.785 360.759 441.515 360.925 441.349L363.175 439.1L360.925 436.851C360.759 436.685 360.759 436.415 360.925 436.249Z" fill="#0066CC"/>
<path fill-rule="evenodd" clip-rule="evenodd" d="M235 459C235 457.343 236.343 456 238 456H289C290.657 456 292 457.343 292 459C292 460.657 290.657 462 289 462H238C236.343 462 235 460.657 235 459Z" fill="#C5C7C9" stroke="#768594" stroke-width="0.25"/>
<path fill-rule="evenodd" clip-rule="evenodd" d="M235 468C235 466.895 235.895 466 237 466H346C347.105 466 348 466.895 348 468C348 469.105 347.105 470 346 470H237C235.895 470 235 469.105 235 468Z" fill="#D9DADB" stroke="#768594" stroke-width="0.25"/>
<ellipse cx="227.995" cy="464" rx="1.99468" ry="2" fill="#5C6F82"/>
<path d="M354 458.4C354 456.522 355.522 455 357.4 455H366.6C368.478 455 370 456.522 370 458.4V467.6C370 469.478 368.478 471 366.6 471H357.4C355.522 471 354 469.478 354 467.6V458.4Z" fill="#F2F7FC"/>
<path fill-rule="evenodd" clip-rule="evenodd" d="M360.925 460.249C361.091 460.084 361.36 460.084 361.526 460.249L364.076 462.799C364.242 462.965 364.242 463.235 364.076 463.401L361.526 465.951C361.36 466.116 361.091 466.116 360.925 465.951C360.759 465.785 360.759 465.515 360.925 465.349L363.175 463.1L360.925 460.851C360.759 460.685 360.759 460.415 360.925 460.249Z" fill="#0066CC"/>
<path fill-rule="evenodd" clip-rule="evenodd" d="M236.621 481.5C236.621 481.224 236.845 481 237.121 481H369.5C369.776 481 370 481.224 370 481.5C370 481.776 369.776 482 369.5 482H237.121C236.845 482 236.621 481.776 236.621 481.5Z" fill="#768594" stroke="#768594" stroke-width="0.25"/>
<ellipse cx="228.354" cy="481" rx="2.35438" ry="2" fill="white"/>
<path fill-rule="evenodd" clip-rule="evenodd" d="M235 494C235 492.343 236.343 491 238 491H289C290.657 491 292 492.343 292 494C292 495.657 290.657 497 289 497H238C236.343 497 235 495.657 235 494Z" fill="#C5C7C9" stroke="#768594" stroke-width="0.25"/>
<path fill-rule="evenodd" clip-rule="evenodd" d="M235 503C235 501.895 235.895 501 237 501H346C347.105 501 348 501.895 348 503C348 504.105 347.105 505 346 505H237C235.895 505 235 504.105 235 503Z" fill="#D9DADB" stroke="#768594" stroke-width="0.25"/>
<ellipse cx="227.995" cy="499" rx="1.99468" ry="2" fill="#5C6F82"/>
<path fill-rule="evenodd" clip-rule="evenodd" d="M235 516C235 514.343 236.343 513 238 513H289C290.657 513 292 514.343 292 516C292 517.657 290.657 519 289 519H238C236.343 519 235 517.657 235 516Z" fill="#C5C7C9" stroke="#768594" stroke-width="0.25"/>
<path fill-rule="evenodd" clip-rule="evenodd" d="M235 525C235 523.895 235.895 523 237 523H346C347.105 523 348 523.895 348 525C348 526.105 347.105 527 346 527H237C235.895 527 235 526.105 235 525Z" fill="#D9DADB" stroke="#768594" stroke-width="0.25"/>
<ellipse cx="227.995" cy="521" rx="1.99468" ry="2" fill="#5C6F82"/>
</g>
<g filter="url(#filter1_d_1721_68288)">
<rect x="623" y="129" width="160" height="296" rx="12" fill="#768594"/>
</g>
<rect x="623" y="221" width="160" height="204" rx="12" fill="white"/>
<path fill-rule="evenodd" clip-rule="evenodd" d="M640 245C640 243.343 641.343 242 643 242H694C695.657 242 697 243.343 697 245C697 246.657 695.657 248 694 248H643C641.343 248 640 246.657 640 245Z" fill="#C5C7C9" stroke="#768594" stroke-width="0.25"/>
<path fill-rule="evenodd" clip-rule="evenodd" d="M640 254C640 252.895 640.895 252 642 252H751C752.105 252 753 252.895 753 254C753 255.105 752.105 256 751 256H642C640.895 256 640 255.105 640 254Z" fill="#D9DADB" stroke="#768594" stroke-width="0.25"/>
<ellipse cx="632.995" cy="250" rx="1.99468" ry="2" fill="#5C6F82"/>
<path fill-rule="evenodd" clip-rule="evenodd" d="M640 271C640 269.343 641.343 268 643 268H694C695.657 268 697 269.343 697 271C697 272.657 695.657 274 694 274H643C641.343 274 640 272.657 640 271Z" fill="#C5C7C9" stroke="#768594" stroke-width="0.25"/>
<path fill-rule="evenodd" clip-rule="evenodd" d="M640 280C640 278.895 640.895 278 642 278H751C752.105 278 753 278.895 753 280C753 281.105 752.105 282 751 282H642C640.895 282 640 281.105 640 280Z" fill="#D9DADB" stroke="#768594" stroke-width="0.25"/>
<ellipse cx="632.995" cy="276" rx="1.99468" ry="2" fill="#5C6F82"/>
<path fill-rule="evenodd" clip-rule="evenodd" d="M640 297C640 295.343 641.343 294 643 294H694C695.657 294 697 295.343 697 297C697 298.657 695.657 300 694 300H643C641.343 300 640 298.657 640 297Z" fill="#C5C7C9" stroke="#768594" stroke-width="0.25"/>
<path fill-rule="evenodd" clip-rule="evenodd" d="M640 306C640 304.895 640.895 304 642 304H751C752.105 304 753 304.895 753 306C753 307.105 752.105 308 751 308H642C640.895 308 640 307.105 640 306Z" fill="#D9DADB" stroke="#768594" stroke-width="0.25"/>
<ellipse cx="632.995" cy="302" rx="1.99468" ry="2" fill="#5C6F82"/>
<path fill-rule="evenodd" clip-rule="evenodd" d="M640 323C640 321.343 641.343 320 643 320H694C695.657 320 697 321.343 697 323C697 324.657 695.657 326 694 326H643C641.343 326 640 324.657 640 323Z" fill="#C5C7C9" stroke="#768594" stroke-width="0.25"/>
<path fill-rule="evenodd" clip-rule="evenodd" d="M640 332C640 330.895 640.895 330 642 330H751C752.105 330 753 330.895 753 332C753 333.105 752.105 334 751 334H642C640.895 334 640 333.105 640 332Z" fill="#D9DADB" stroke="#768594" stroke-width="0.25"/>
<ellipse cx="632.995" cy="328" rx="1.99468" ry="2" fill="#5C6F82"/>
<path fill-rule="evenodd" clip-rule="evenodd" d="M640 349C640 347.343 641.343 346 643 346H694C695.657 346 697 347.343 697 349C697 350.657 695.657 352 694 352H643C641.343 352 640 350.657 640 349Z" fill="#C5C7C9" stroke="#768594" stroke-width="0.25"/>
<path fill-rule="evenodd" clip-rule="evenodd" d="M640 358C640 356.895 640.895 356 642 356H751C752.105 356 753 356.895 753 358C753 359.105 752.105 360 751 360H642C640.895 360 640 359.105 640 358Z" fill="#D9DADB" stroke="#768594" stroke-width="0.25"/>
<ellipse cx="632.995" cy="354" rx="1.99468" ry="2" fill="#5C6F82"/>
<path fill-rule="evenodd" clip-rule="evenodd" d="M640 375C640 373.343 641.343 372 643 372H694C695.657 372 697 373.343 697 375C697 376.657 695.657 378 694 378H643C641.343 378 640 376.657 640 375Z" fill="#C5C7C9" stroke="#768594" stroke-width="0.25"/>
<path fill-rule="evenodd" clip-rule="evenodd" d="M640 384C640 382.895 640.895 382 642 382H751C752.105 382 753 382.895 753 384C753 385.105 752.105 386 751 386H642C640.895 386 640 385.105 640 384Z" fill="#D9DADB" stroke="#768594" stroke-width="0.25"/>
<ellipse cx="632.995" cy="380" rx="1.99468" ry="2" fill="#5C6F82"/>
<g filter="url(#filter2_d_1721_68288)">
<rect x="436" y="129" width="160" height="296" rx="12" fill="#768594"/>
</g>
<rect x="436" y="221" width="160" height="204" rx="12" fill="white"/>
<path fill-rule="evenodd" clip-rule="evenodd" d="M444 245C444 243.343 445.343 242 447 242H498C499.657 242 501 243.343 501 245C501 246.657 499.657 248 498 248H447C445.343 248 444 246.657 444 245Z" fill="#C5C7C9" stroke="#768594" stroke-width="0.25"/>
<path fill-rule="evenodd" clip-rule="evenodd" d="M444 260C444 258.895 444.895 258 446 258H586C587.105 258 588 258.895 588 260C588 261.105 587.105 262 586 262H446C444.895 262 444 261.105 444 260Z" fill="#D9DADB" stroke="#768594" stroke-width="0.25"/>
<path fill-rule="evenodd" clip-rule="evenodd" d="M444 268C444 266.895 444.895 266 446 266H586C587.105 266 588 266.895 588 268C588 269.105 587.105 270 586 270H446C444.895 270 444 269.105 444 268Z" fill="#D9DADB" stroke="#768594" stroke-width="0.25"/>
<path fill-rule="evenodd" clip-rule="evenodd" d="M444 276C444 274.895 444.895 274 446 274H586C587.105 274 588 274.895 588 276C588 277.105 587.105 278 586 278H446C444.895 278 444 277.105 444 276Z" fill="#D9DADB" stroke="#768594" stroke-width="0.25"/>
<path fill-rule="evenodd" clip-rule="evenodd" d="M444 284C444 282.895 444.895 282 446 282H545C546.105 282 547 282.895 547 284C547 285.105 546.105 286 545 286H446C444.895 286 444 285.105 444 284Z" fill="#D9DADB" stroke="#768594" stroke-width="0.25"/>
<path fill-rule="evenodd" clip-rule="evenodd" d="M444 300C444 298.895 444.895 298 446 298H586C587.105 298 588 298.895 588 300C588 301.105 587.105 302 586 302H446C444.895 302 444 301.105 444 300Z" fill="#D9DADB" stroke="#768594" stroke-width="0.25"/>
<path fill-rule="evenodd" clip-rule="evenodd" d="M444 308C444 306.895 444.895 306 446 306H586C587.105 306 588 306.895 588 308C588 309.105 587.105 310 586 310H446C444.895 310 444 309.105 444 308Z" fill="#D9DADB" stroke="#768594" stroke-width="0.25"/>
<path fill-rule="evenodd" clip-rule="evenodd" d="M444 316C444 314.895 444.895 314 446 314H586C587.105 314 588 314.895 588 316C588 317.105 587.105 318 586 318H446C444.895 318 444 317.105 444 316Z" fill="#D9DADB" stroke="#768594" stroke-width="0.25"/>
<path fill-rule="evenodd" clip-rule="evenodd" d="M444 324C444 322.895 444.895 322 446 322H545C546.105 322 547 322.895 547 324C547 325.105 546.105 326 545 326H446C444.895 326 444 325.105 444 324Z" fill="#D9DADB" stroke="#768594" stroke-width="0.25"/>
<path fill-rule="evenodd" clip-rule="evenodd" d="M444 340C444 338.895 444.895 338 446 338H586C587.105 338 588 338.895 588 340C588 341.105 587.105 342 586 342H446C444.895 342 444 341.105 444 340Z" fill="#D9DADB" stroke="#768594" stroke-width="0.25"/>
<path fill-rule="evenodd" clip-rule="evenodd" d="M444 348C444 346.895 444.895 346 446 346H586C587.105 346 588 346.895 588 348C588 349.105 587.105 350 586 350H446C444.895 350 444 349.105 444 348Z" fill="#D9DADB" stroke="#768594" stroke-width="0.25"/>
<path fill-rule="evenodd" clip-rule="evenodd" d="M444 356C444 354.895 444.895 354 446 354H586C587.105 354 588 354.895 588 356C588 357.105 587.105 358 586 358H446C444.895 358 444 357.105 444 356Z" fill="#D9DADB" stroke="#768594" stroke-width="0.25"/>
<path fill-rule="evenodd" clip-rule="evenodd" d="M444 364C444 362.895 444.895 362 446 362H545C546.105 362 547 362.895 547 364C547 365.105 546.105 366 545 366H446C444.895 366 444 365.105 444 364Z" fill="#D9DADB" stroke="#768594" stroke-width="0.25"/>
<path fill-rule="evenodd" clip-rule="evenodd" d="M444 380C444 378.895 444.895 378 446 378H586C587.105 378 588 378.895 588 380C588 381.105 587.105 382 586 382H446C444.895 382 444 381.105 444 380Z" fill="#D9DADB" stroke="#768594" stroke-width="0.25"/>
<path fill-rule="evenodd" clip-rule="evenodd" d="M444 388C444 386.895 444.895 386 446 386H586C587.105 386 588 386.895 588 388C588 389.105 587.105 390 586 390H446C444.895 390 444 389.105 444 388Z" fill="#D9DADB" stroke="#768594" stroke-width="0.25"/>
<path fill-rule="evenodd" clip-rule="evenodd" d="M444 396C444 394.895 444.895 394 446 394H586C587.105 394 588 394.895 588 396C588 397.105 587.105 398 586 398H446C444.895 398 444 397.105 444 396Z" fill="#D9DADB" stroke="#768594" stroke-width="0.25"/>
<path fill-rule="evenodd" clip-rule="evenodd" d="M444 404C444 402.895 444.895 402 446 402H545C546.105 402 547 402.895 547 404C547 405.105 546.105 406 545 406H446C444.895 406 444 405.105 444 404Z" fill="#D9DADB" stroke="#768594" stroke-width="0.25"/>
<path d="M377.667 465.604C376.563 465.606 375.666 464.711 375.665 463.607C375.663 462.502 376.558 461.606 377.662 461.604C378.767 461.603 379.663 462.497 379.665 463.601C379.666 464.706 378.772 465.603 377.667 465.604ZM690.912 463.503L690.912 463.128L690.912 463.503ZM700.606 425.087C700.753 424.94 700.99 424.94 701.137 425.086L703.526 427.469C703.673 427.616 703.673 427.853 703.527 428C703.381 428.146 703.143 428.147 702.997 428L700.873 425.882L698.754 428.006C698.608 428.153 698.37 428.153 698.224 428.007C698.077 427.86 698.077 427.623 698.223 427.476L700.606 425.087ZM377.665 463.604L377.665 463.229L690.912 463.128L690.912 463.503L690.912 463.878L377.665 463.979L377.665 463.604ZM700.909 453.49L700.534 453.491L700.497 425.352L700.872 425.352L701.247 425.351L701.284 453.49L700.909 453.49ZM690.912 463.503L690.912 463.128C696.231 463.127 700.541 458.81 700.534 453.491L700.909 453.49L701.284 453.49C701.291 459.224 696.646 463.876 690.912 463.878L690.912 463.503Z" fill="#004080"/>
<path d="M377.717 440.418C376.612 440.419 375.716 439.525 375.714 438.421C375.713 437.316 376.607 436.419 377.712 436.418C378.816 436.417 379.713 437.311 379.714 438.415C379.716 439.52 378.822 440.417 377.717 440.418ZM505.957 438.407L505.957 438.032L505.957 438.407ZM515.957 428.391L515.582 428.392L515.957 428.391ZM515.686 424.842C515.832 424.695 516.069 424.695 516.216 424.841L518.606 427.224C518.753 427.37 518.753 427.607 518.607 427.754C518.461 427.901 518.224 427.901 518.077 427.755L515.952 425.637L513.834 427.762C513.688 427.908 513.451 427.909 513.304 427.763C513.157 427.616 513.157 427.379 513.303 427.232L515.686 424.842ZM377.714 438.418L377.714 438.043L505.957 438.032L505.957 438.407L505.957 438.782L377.714 438.793L377.714 438.418ZM515.957 428.391L515.582 428.392L515.576 425.107L515.951 425.107L516.326 425.106L516.332 428.39L515.957 428.391ZM505.957 438.407L505.957 438.032C511.279 438.032 515.59 433.713 515.582 428.392L515.957 428.391L516.332 428.39C516.341 434.127 511.694 438.782 505.957 438.782L505.957 438.407Z" fill="#004080"/>
<circle opacity="0.4" cx="377.5" cy="463.5" r="7.25" fill="#004080" stroke="#004080" stroke-width="0.5"/>
<circle opacity="0.4" cx="377.5" cy="438.5" r="7.25" fill="#004080" stroke="#004080" stroke-width="0.5"/>
<path d="M162.66 274H34.3401C33.6006 274 33 274.663 33 275.478V306.522C33 307.337 33.6006 308 34.3401 308H162.66C163.4 308 164 307.337 164 306.522V275.478C164 274.663 163.4 274 162.66 274Z" fill="#EAEAEA"/>
<path d="M162.66 132H34.3401C33.6006 132 33 132.663 33 133.478V164.522C33 165.337 33.6006 166 34.3401 166H162.66C163.4 166 164 165.337 164 164.522V133.478C164 132.663 163.4 132 162.66 132Z" fill="#EAEAEA"/>
<path d="M162.66 379H34.3401C33.6006 379 33 379.663 33 380.478V411.522C33 412.337 33.6006 413 34.3401 413H162.66C163.4 413 164 412.337 164 411.522V380.478C164 379.663 163.4 379 162.66 379Z" fill="#EAEAEA"/>
<path d="M579.66 478H451.34C450.601 478 450 478.663 450 479.478V510.522C450 511.337 450.601 512 451.34 512H579.66C580.4 512 581 511.337 581 510.522V479.478C581 478.663 580.4 478 579.66 478Z" fill="white"/>
<path d="M764.66 478H636.34C635.601 478 635 478.663 635 479.478V510.522C635 511.337 635.601 512 636.34 512H764.66C765.4 512 766 511.337 766 510.522V479.478C766 478.663 765.4 478 764.66 478Z" fill="white"/>
<path d="M162.66 478H34.3401C33.6006 478 33 478.663 33 479.478V510.522C33 511.337 33.6006 512 34.3401 512H162.66C163.4 512 164 511.337 164 510.522V479.478C164 478.663 163.4 478 162.66 478Z" fill="#EAEAEA"/>
<path d="M45.592 293.039V287.599H46.696V293.039H45.592ZM51.146 287.439V293.039H50.082V292.871C49.7087 293.047 49.386 293.135 49.114 293.135C48.5327 293.135 48.1273 292.967 47.898 292.631C47.6687 292.295 47.554 291.764 47.554 291.039C47.554 290.308 47.69 289.778 47.962 289.447C48.2393 289.111 48.6553 288.943 49.21 288.943C49.3807 288.943 49.618 288.97 49.922 289.023L50.074 289.055V287.439H51.146ZM49.962 292.079L50.074 292.055V289.951C49.7807 289.898 49.5193 289.871 49.29 289.871C48.858 289.871 48.642 290.255 48.642 291.023C48.642 291.439 48.69 291.735 48.786 291.911C48.882 292.087 49.0393 292.175 49.258 292.175C49.482 292.175 49.7167 292.143 49.962 292.079ZM53.0166 291.495C53.022 291.74 53.086 291.919 53.2086 292.031C53.3366 292.138 53.518 292.191 53.7526 292.191C54.2486 292.191 54.6913 292.175 55.0806 292.143L55.3046 292.119L55.3206 292.911C54.7073 293.06 54.1526 293.135 53.6566 293.135C53.054 293.135 52.6166 292.975 52.3446 292.655C52.0726 292.335 51.9366 291.815 51.9366 291.095C51.9366 289.66 52.526 288.943 53.7046 288.943C54.8673 288.943 55.4486 289.546 55.4486 290.751L55.3686 291.495H53.0166ZM54.3926 290.679C54.3926 290.359 54.342 290.138 54.2406 290.015C54.1393 289.887 53.9606 289.823 53.7046 289.823C53.454 289.823 53.2753 289.89 53.1686 290.023C53.0673 290.151 53.014 290.37 53.0086 290.679H54.3926ZM57.2868 293.039H56.2148V289.039H57.2788V289.263C57.6414 289.05 57.9748 288.943 58.2788 288.943C58.8121 288.943 59.1801 289.1 59.3828 289.415C59.5854 289.73 59.6868 290.215 59.6868 290.871V293.039H58.6148V290.903C58.6148 290.562 58.5748 290.311 58.4948 290.151C58.4148 289.986 58.2548 289.903 58.0148 289.903C57.7961 289.903 57.5854 289.94 57.3828 290.015L57.2868 290.047V293.039ZM62.8526 289.951H61.8686V291.591C61.8686 291.751 61.8713 291.866 61.8766 291.935C61.8873 291.999 61.9166 292.055 61.9646 292.103C62.018 292.151 62.098 292.175 62.2046 292.175L62.8126 292.159L62.8606 293.015C62.5033 293.095 62.2313 293.135 62.0446 293.135C61.5646 293.135 61.2366 293.028 61.0606 292.815C60.8846 292.596 60.7966 292.196 60.7966 291.615V289.951H60.3246V289.039H60.7966V287.927H61.8686V289.039H62.8526V289.951ZM63.5507 293.039V289.039H64.6227V293.039H63.5507ZM63.5507 288.527V287.439H64.6227V288.527H63.5507ZM66.8772 289.951V293.039H65.8052V289.951H65.3732V289.039H65.8052V288.863C65.8052 288.287 65.8905 287.89 66.0612 287.671C66.2319 287.452 66.5359 287.343 66.9732 287.343C67.1652 287.343 67.4132 287.37 67.7172 287.423L67.8852 287.447L67.8692 288.319C67.6345 288.308 67.4372 288.303 67.2772 288.303C67.1172 288.303 67.0105 288.346 66.9572 288.431C66.9039 288.516 66.8772 288.663 66.8772 288.871V289.039H67.8452V289.951H66.8772ZM68.4726 293.039V289.039H69.5446V293.039H68.4726ZM68.4726 288.527V287.439H69.5446V288.527H68.4726ZM72.0311 288.943C72.3084 288.943 72.6631 288.986 73.0951 289.071L73.3111 289.119L73.2791 289.967C72.8577 289.924 72.5457 289.903 72.3431 289.903C71.9751 289.903 71.7297 289.983 71.6071 290.143C71.4897 290.298 71.4311 290.594 71.4311 291.031C71.4311 291.468 71.4897 291.77 71.6071 291.935C71.7297 292.095 71.9777 292.175 72.3511 292.175L73.2791 292.111L73.3111 292.967C72.7404 293.079 72.3057 293.135 72.0071 293.135C71.4151 293.135 70.9884 292.97 70.7271 292.639C70.4711 292.303 70.3431 291.767 70.3431 291.031C70.3431 290.295 70.4764 289.764 70.7431 289.439C71.0097 289.108 71.4391 288.943 72.0311 288.943ZM77.1694 290.287V291.951C77.18 292.079 77.2014 292.17 77.2334 292.223C77.2654 292.271 77.332 292.306 77.4334 292.327L77.4014 293.135C77.1294 293.135 76.9107 293.116 76.7454 293.079C76.5854 293.042 76.4227 292.967 76.2574 292.855C75.8734 293.042 75.4814 293.135 75.0814 293.135C74.2547 293.135 73.8414 292.698 73.8414 291.823C73.8414 291.396 73.956 291.095 74.1854 290.919C74.4147 290.738 74.7667 290.631 75.2414 290.599L76.0974 290.535V290.287C76.0974 290.122 76.06 290.01 75.9854 289.951C75.9107 289.887 75.7907 289.855 75.6254 289.855L74.1214 289.919L74.0894 289.175C74.66 289.02 75.2014 288.943 75.7134 288.943C76.2307 288.943 76.6014 289.05 76.8254 289.263C77.0547 289.476 77.1694 289.818 77.1694 290.287ZM75.3694 291.343C75.0707 291.37 74.9214 291.53 74.9214 291.823C74.9214 292.116 75.052 292.263 75.3134 292.263C75.516 292.263 75.7374 292.231 75.9774 292.167L76.0974 292.135V291.279L75.3694 291.343ZM80.4073 289.951H79.4233V291.591C79.4233 291.751 79.426 291.866 79.4313 291.935C79.442 291.999 79.4713 292.055 79.5193 292.103C79.5726 292.151 79.6526 292.175 79.7593 292.175L80.3673 292.159L80.4153 293.015C80.058 293.095 79.786 293.135 79.5993 293.135C79.1193 293.135 78.7913 293.028 78.6153 292.815C78.4393 292.596 78.3513 292.196 78.3513 291.615V289.951H77.8793V289.039H78.3513V287.927H79.4233V289.039H80.4073V289.951ZM81.1054 293.039V289.039H82.1774V293.039H81.1054ZM81.1054 288.527V287.439H82.1774V288.527H81.1054ZM83.3839 289.495C83.6665 289.127 84.1385 288.943 84.7999 288.943C85.4612 288.943 85.9332 289.127 86.2159 289.495C86.4985 289.858 86.6399 290.37 86.6399 291.031C86.6399 292.434 86.0265 293.135 84.7999 293.135C83.5732 293.135 82.9599 292.434 82.9599 291.031C82.9599 290.37 83.1012 289.858 83.3839 289.495ZM84.2079 291.935C84.3199 292.127 84.5172 292.223 84.7999 292.223C85.0825 292.223 85.2772 292.127 85.3839 291.935C85.4959 291.743 85.5519 291.442 85.5519 291.031C85.5519 290.62 85.4959 290.322 85.3839 290.135C85.2772 289.948 85.0825 289.855 84.7999 289.855C84.5172 289.855 84.3199 289.948 84.2079 290.135C84.1012 290.322 84.0479 290.62 84.0479 291.031C84.0479 291.442 84.1012 291.743 84.2079 291.935ZM88.4977 293.039H87.4257V289.039H88.4897V289.263C88.8524 289.05 89.1857 288.943 89.4897 288.943C90.023 288.943 90.391 289.1 90.5937 289.415C90.7964 289.73 90.8977 290.215 90.8977 290.871V293.039H89.8257V290.903C89.8257 290.562 89.7857 290.311 89.7057 290.151C89.6257 289.986 89.4657 289.903 89.2257 289.903C89.007 289.903 88.7964 289.94 88.5937 290.015L88.4977 290.047V293.039ZM93.2454 293.039L94.4694 287.599H96.5654L97.7894 293.039H96.6854L96.4694 292.055H94.5654L94.3494 293.039H93.2454ZM95.3254 288.511L94.7734 291.095H96.2614L95.7094 288.511H95.3254ZM100.548 289.951H99.5639V291.591C99.5639 291.751 99.5666 291.866 99.5719 291.935C99.5826 291.999 99.6119 292.055 99.6599 292.103C99.7133 292.151 99.7933 292.175 99.8999 292.175L100.508 292.159L100.556 293.015C100.199 293.095 99.9266 293.135 99.7399 293.135C99.2599 293.135 98.9319 293.028 98.7559 292.815C98.5799 292.596 98.4919 292.196 98.4919 291.615V289.951H98.0199V289.039H98.4919V287.927H99.5639V289.039H100.548V289.951ZM103.462 289.951H102.478V291.591C102.478 291.751 102.481 291.866 102.486 291.935C102.497 291.999 102.526 292.055 102.574 292.103C102.627 292.151 102.707 292.175 102.814 292.175L103.422 292.159L103.47 293.015C103.113 293.095 102.841 293.135 102.654 293.135C102.174 293.135 101.846 293.028 101.67 292.815C101.494 292.596 101.406 292.196 101.406 291.615V289.951H100.934V289.039H101.406V287.927H102.478V289.039H103.462V289.951ZM104.16 293.039V289.039H105.224V289.463C105.672 289.196 106.099 289.023 106.504 288.943V290.023C106.072 290.114 105.701 290.207 105.392 290.303L105.232 290.359V293.039H104.16ZM107.137 293.039V289.039H108.209V293.039H107.137ZM107.137 288.527V287.439H108.209V288.527H107.137ZM111.135 288.943C111.695 288.943 112.103 289.098 112.359 289.407C112.62 289.711 112.751 290.258 112.751 291.047C112.751 291.836 112.602 292.383 112.303 292.687C112.004 292.986 111.49 293.135 110.759 293.135C110.53 293.135 110.111 293.108 109.503 293.055L109.199 293.023V287.439H110.271V289.159C110.612 289.015 110.9 288.943 111.135 288.943ZM110.759 292.175C111.116 292.175 111.356 292.09 111.479 291.919C111.602 291.743 111.663 291.431 111.663 290.983C111.663 290.263 111.439 289.903 110.991 289.903C110.778 289.903 110.575 289.93 110.383 289.983L110.271 290.007V292.143C110.516 292.164 110.679 292.175 110.759 292.175ZM115.911 289.039H116.983V293.039H115.919V292.815C115.535 293.028 115.201 293.135 114.919 293.135C114.364 293.135 113.991 292.983 113.799 292.679C113.607 292.37 113.511 291.855 113.511 291.135V289.039H114.583V291.151C114.583 291.546 114.615 291.815 114.679 291.959C114.743 292.103 114.897 292.175 115.143 292.175C115.377 292.175 115.599 292.138 115.807 292.063L115.911 292.031V289.039ZM120.189 289.951H119.205V291.591C119.205 291.751 119.207 291.866 119.213 291.935C119.223 291.999 119.253 292.055 119.301 292.103C119.354 292.151 119.434 292.175 119.541 292.175L120.149 292.159L120.197 293.015C119.839 293.095 119.567 293.135 119.381 293.135C118.901 293.135 118.573 293.028 118.397 292.815C118.221 292.596 118.133 292.196 118.133 291.615V289.951H117.661V289.039H118.133V287.927H119.205V289.039H120.189V289.951ZM121.767 291.495C121.772 291.74 121.836 291.919 121.959 292.031C122.087 292.138 122.268 292.191 122.503 292.191C122.999 292.191 123.441 292.175 123.831 292.143L124.055 292.119L124.071 292.911C123.457 293.06 122.903 293.135 122.407 293.135C121.804 293.135 121.367 292.975 121.095 292.655C120.823 292.335 120.687 291.815 120.687 291.095C120.687 289.66 121.276 288.943 122.455 288.943C123.617 288.943 124.199 289.546 124.199 290.751L124.119 291.495H121.767ZM123.143 290.679C123.143 290.359 123.092 290.138 122.991 290.015C122.889 289.887 122.711 289.823 122.455 289.823C122.204 289.823 122.025 289.89 121.919 290.023C121.817 290.151 121.764 290.37 121.759 290.679H123.143ZM127.837 290.039C127.175 289.954 126.711 289.911 126.445 289.911C126.183 289.911 126.013 289.935 125.933 289.983C125.858 290.031 125.821 290.108 125.821 290.215C125.821 290.316 125.871 290.388 125.973 290.431C126.079 290.468 126.346 290.527 126.773 290.607C127.205 290.682 127.511 290.807 127.693 290.983C127.874 291.159 127.965 291.444 127.965 291.839C127.965 292.703 127.429 293.135 126.357 293.135C126.005 293.135 125.578 293.087 125.077 292.991L124.821 292.943L124.853 292.047C125.514 292.132 125.973 292.175 126.229 292.175C126.49 292.175 126.666 292.151 126.757 292.103C126.853 292.05 126.901 291.972 126.901 291.871C126.901 291.77 126.85 291.695 126.749 291.647C126.653 291.599 126.397 291.54 125.981 291.471C125.57 291.402 125.263 291.284 125.061 291.119C124.858 290.954 124.757 290.66 124.757 290.239C124.757 289.812 124.901 289.492 125.189 289.279C125.477 289.06 125.847 288.951 126.301 288.951C126.615 288.951 127.045 289.002 127.589 289.103L127.853 289.151L127.837 290.039Z" fill="#1F1C3D"/>
<path d="M45.592 151.039V145.599H49.112V146.559H46.696V147.831H48.632V148.775H46.696V150.079H49.112V151.039H45.592ZM49.5657 151.039L50.7897 145.599H52.8857L54.1097 151.039H53.0057L52.7897 150.055H50.8857L50.6697 151.039H49.5657ZM51.6457 146.511L51.0937 149.095H52.5817L52.0297 146.511H51.6457ZM54.3782 151.039L55.6022 145.599H57.6982L58.9222 151.039H57.8182L57.6022 150.055H55.6982L55.4822 151.039H54.3782ZM56.4582 146.511L55.9062 149.095H57.3942L56.8422 146.511H56.4582ZM62.3805 151.039H61.3085V147.039H62.3725V147.263C62.7352 147.05 63.0685 146.943 63.3725 146.943C63.9058 146.943 64.2738 147.1 64.4765 147.415C64.6792 147.73 64.7805 148.215 64.7805 148.871V151.039H63.7085V148.903C63.7085 148.562 63.6685 148.311 63.5885 148.151C63.5085 147.986 63.3485 147.903 63.1085 147.903C62.8898 147.903 62.6792 147.94 62.4765 148.015L62.3805 148.047V151.039ZM68.7944 148.287V149.951C68.805 150.079 68.8264 150.17 68.8584 150.223C68.8904 150.271 68.957 150.306 69.0584 150.327L69.0264 151.135C68.7544 151.135 68.5357 151.116 68.3704 151.079C68.2104 151.042 68.0477 150.967 67.8824 150.855C67.4984 151.042 67.1064 151.135 66.7064 151.135C65.8797 151.135 65.4664 150.698 65.4664 149.823C65.4664 149.396 65.581 149.095 65.8104 148.919C66.0397 148.738 66.3917 148.631 66.8664 148.599L67.7224 148.535V148.287C67.7224 148.122 67.685 148.01 67.6104 147.951C67.5357 147.887 67.4157 147.855 67.2504 147.855L65.7464 147.919L65.7144 147.175C66.285 147.02 66.8264 146.943 67.3384 146.943C67.8557 146.943 68.2264 147.05 68.4504 147.263C68.6797 147.476 68.7944 147.818 68.7944 148.287ZM66.9944 149.343C66.6957 149.37 66.5464 149.53 66.5464 149.823C66.5464 150.116 66.677 150.263 66.9384 150.263C67.141 150.263 67.3624 150.231 67.6024 150.167L67.7224 150.135V149.279L66.9944 149.343ZM70.8883 151.039H69.8163V147.039H70.8803V147.263C71.2483 147.05 71.563 146.943 71.8243 146.943C72.2563 146.943 72.5896 147.068 72.8243 147.319C73.315 147.068 73.763 146.943 74.1683 146.943C74.6963 146.943 75.0616 147.098 75.2643 147.407C75.4723 147.711 75.5763 148.199 75.5763 148.871V151.039H74.5043V148.903C74.5043 148.562 74.467 148.311 74.3923 148.151C74.3176 147.986 74.1683 147.903 73.9443 147.903C73.7736 147.903 73.5656 147.94 73.3203 148.015L73.2003 148.055C73.2216 148.455 73.2323 148.759 73.2323 148.967V151.039H72.1603V148.983C72.1603 148.588 72.1256 148.311 72.0563 148.151C71.987 147.986 71.835 147.903 71.6003 147.903C71.3923 147.903 71.187 147.94 70.9843 148.015L70.8883 148.047V151.039ZM77.4073 149.495C77.4126 149.74 77.4766 149.919 77.5993 150.031C77.7273 150.138 77.9086 150.191 78.1432 150.191C78.6393 150.191 79.0819 150.175 79.4713 150.143L79.6953 150.119L79.7113 150.911C79.0979 151.06 78.5433 151.135 78.0473 151.135C77.4446 151.135 77.0073 150.975 76.7353 150.655C76.4633 150.335 76.3273 149.815 76.3273 149.095C76.3273 147.66 76.9166 146.943 78.0953 146.943C79.2579 146.943 79.8393 147.546 79.8393 148.751L79.7593 149.495H77.4073ZM78.7833 148.679C78.7833 148.359 78.7326 148.138 78.6313 148.015C78.5299 147.887 78.3513 147.823 78.0953 147.823C77.8446 147.823 77.6659 147.89 77.5593 148.023C77.4579 148.151 77.4046 148.37 77.3993 148.679H78.7833Z" fill="#1F1C3D"/>
<path d="M48.688 398.039H45.592V392.599H46.696V397.063H48.688V398.039ZM50.1494 396.495C50.1548 396.74 50.2188 396.919 50.3414 397.031C50.4694 397.138 50.6508 397.191 50.8854 397.191C51.3814 397.191 51.8241 397.175 52.2134 397.143L52.4374 397.119L52.4534 397.911C51.8401 398.06 51.2854 398.135 50.7894 398.135C50.1868 398.135 49.7494 397.975 49.4774 397.655C49.2054 397.335 49.0694 396.815 49.0694 396.095C49.0694 394.66 49.6588 393.943 50.8374 393.943C52.0001 393.943 52.5814 394.546 52.5814 395.751L52.5014 396.495H50.1494ZM51.5254 395.679C51.5254 395.359 51.4748 395.138 51.3734 395.015C51.2721 394.887 51.0934 394.823 50.8374 394.823C50.5868 394.823 50.4081 394.89 50.3014 395.023C50.2001 395.151 50.1468 395.37 50.1414 395.679H51.5254ZM52.9247 394.039H54.0447L54.6847 397.127H54.9087L55.5807 394.039H56.6687L55.7087 398.039H53.8847L52.9247 394.039ZM58.1104 396.495C58.1157 396.74 58.1797 396.919 58.3024 397.031C58.4304 397.138 58.6117 397.191 58.8464 397.191C59.3424 397.191 59.785 397.175 60.1744 397.143L60.3984 397.119L60.4144 397.911C59.801 398.06 59.2464 398.135 58.7504 398.135C58.1477 398.135 57.7104 397.975 57.4384 397.655C57.1664 397.335 57.0304 396.815 57.0304 396.095C57.0304 394.66 57.6197 393.943 58.7984 393.943C59.961 393.943 60.5424 394.546 60.5424 395.751L60.4624 396.495H58.1104ZM59.4864 395.679C59.4864 395.359 59.4357 395.138 59.3344 395.015C59.233 394.887 59.0544 394.823 58.7984 394.823C58.5477 394.823 58.369 394.89 58.2624 395.023C58.161 395.151 58.1077 395.37 58.1024 395.679H59.4864ZM61.3565 398.039V392.439H62.4285V398.039H61.3565ZM65.3186 398.039V392.599H66.4226V398.039H65.3186ZM68.9094 398.039L70.1334 392.599H72.2294L73.4534 398.039H72.3494L72.1334 397.055H70.2294L70.0134 398.039H68.9094ZM70.9894 393.511L70.4374 396.095H71.9254L71.3734 393.511H70.9894ZM76.212 394.951H75.228V396.591C75.228 396.751 75.2307 396.866 75.236 396.935C75.2467 396.999 75.276 397.055 75.324 397.103C75.3773 397.151 75.4573 397.175 75.564 397.175L76.172 397.159L76.22 398.015C75.8627 398.095 75.5907 398.135 75.404 398.135C74.924 398.135 74.596 398.028 74.42 397.815C74.244 397.596 74.156 397.196 74.156 396.615V394.951H73.684V394.039H74.156V392.927H75.228V394.039H76.212V394.951ZM79.1261 394.951H78.1421V396.591C78.1421 396.751 78.1447 396.866 78.1501 396.935C78.1607 396.999 78.1901 397.055 78.2381 397.103C78.2914 397.151 78.3714 397.175 78.4781 397.175L79.0861 397.159L79.1341 398.015C78.7767 398.095 78.5047 398.135 78.3181 398.135C77.8381 398.135 77.5101 398.028 77.3341 397.815C77.1581 397.596 77.0701 397.196 77.0701 396.615V394.951H76.5981V394.039H77.0701V392.927H78.1421V394.039H79.1261V394.951ZM79.8241 398.039V394.039H80.8881V394.463C81.3361 394.196 81.7628 394.023 82.1681 393.943V395.023C81.7361 395.114 81.3655 395.207 81.0561 395.303L80.8961 395.359V398.039H79.8241ZM82.8007 398.039V394.039H83.8727V398.039H82.8007ZM82.8007 393.527V392.439H83.8727V393.527H82.8007ZM86.7992 393.943C87.3592 393.943 87.7672 394.098 88.0232 394.407C88.2845 394.711 88.4152 395.258 88.4152 396.047C88.4152 396.836 88.2659 397.383 87.9672 397.687C87.6685 397.986 87.1539 398.135 86.4232 398.135C86.1939 398.135 85.7752 398.108 85.1672 398.055L84.8632 398.023V392.439H85.9352V394.159C86.2765 394.015 86.5645 393.943 86.7992 393.943ZM86.4232 397.175C86.7805 397.175 87.0205 397.09 87.1432 396.919C87.2659 396.743 87.3272 396.431 87.3272 395.983C87.3272 395.263 87.1032 394.903 86.6552 394.903C86.4419 394.903 86.2392 394.93 86.0472 394.983L85.9352 395.007V397.143C86.1805 397.164 86.3432 397.175 86.4232 397.175ZM91.5748 394.039H92.6468V398.039H91.5828V397.815C91.1988 398.028 90.8654 398.135 90.5828 398.135C90.0281 398.135 89.6548 397.983 89.4628 397.679C89.2708 397.37 89.1748 396.855 89.1748 396.135V394.039H90.2468V396.151C90.2468 396.546 90.2788 396.815 90.3428 396.959C90.4068 397.103 90.5614 397.175 90.8068 397.175C91.0414 397.175 91.2628 397.138 91.4708 397.063L91.5748 397.031V394.039ZM95.8526 394.951H94.8686V396.591C94.8686 396.751 94.8713 396.866 94.8766 396.935C94.8873 396.999 94.9166 397.055 94.9646 397.103C95.018 397.151 95.098 397.175 95.2046 397.175L95.8126 397.159L95.8606 398.015C95.5033 398.095 95.2313 398.135 95.0446 398.135C94.5646 398.135 94.2366 398.028 94.0606 397.815C93.8846 397.596 93.7966 397.196 93.7966 396.615V394.951H93.3246V394.039H93.7966V392.927H94.8686V394.039H95.8526V394.951ZM97.4307 396.495C97.436 396.74 97.5 396.919 97.6227 397.031C97.7507 397.138 97.932 397.191 98.1667 397.191C98.6627 397.191 99.1054 397.175 99.4947 397.143L99.7187 397.119L99.7347 397.911C99.1214 398.06 98.5667 398.135 98.0707 398.135C97.468 398.135 97.0307 397.975 96.7587 397.655C96.4867 397.335 96.3507 396.815 96.3507 396.095C96.3507 394.66 96.94 393.943 98.1187 393.943C99.2814 393.943 99.8627 394.546 99.8627 395.751L99.7827 396.495H97.4307ZM98.8067 395.679C98.8067 395.359 98.756 395.138 98.6547 395.015C98.5534 394.887 98.3747 394.823 98.1187 394.823C97.868 394.823 97.6894 394.89 97.5827 395.023C97.4814 395.151 97.428 395.37 97.4227 395.679H98.8067ZM103.501 395.039C102.839 394.954 102.375 394.911 102.109 394.911C101.847 394.911 101.677 394.935 101.597 394.983C101.522 395.031 101.485 395.108 101.485 395.215C101.485 395.316 101.535 395.388 101.637 395.431C101.743 395.468 102.01 395.527 102.437 395.607C102.869 395.682 103.175 395.807 103.357 395.983C103.538 396.159 103.629 396.444 103.629 396.839C103.629 397.703 103.093 398.135 102.021 398.135C101.669 398.135 101.242 398.087 100.741 397.991L100.485 397.943L100.517 397.047C101.178 397.132 101.637 397.175 101.893 397.175C102.154 397.175 102.33 397.151 102.421 397.103C102.517 397.05 102.565 396.972 102.565 396.871C102.565 396.77 102.514 396.695 102.413 396.647C102.317 396.599 102.061 396.54 101.645 396.471C101.234 396.402 100.927 396.284 100.725 396.119C100.522 395.954 100.421 395.66 100.421 395.239C100.421 394.812 100.565 394.492 100.853 394.279C101.141 394.06 101.511 393.951 101.965 393.951C102.279 393.951 102.709 394.002 103.253 394.103L103.517 394.151L103.501 395.039Z" fill="#1F1C3D"/>
<path d="M465.688 499H462.592V493.56H463.696V498.024H465.688V499ZM467.149 497.456C467.155 497.701 467.219 497.88 467.341 497.992C467.469 498.099 467.651 498.152 467.885 498.152C468.381 498.152 468.824 498.136 469.213 498.104L469.437 498.08L469.453 498.872C468.84 499.021 468.285 499.096 467.789 499.096C467.187 499.096 466.749 498.936 466.477 498.616C466.205 498.296 466.069 497.776 466.069 497.056C466.069 495.621 466.659 494.904 467.837 494.904C469 494.904 469.581 495.507 469.581 496.712L469.501 497.456H467.149ZM468.525 496.64C468.525 496.32 468.475 496.099 468.373 495.976C468.272 495.848 468.093 495.784 467.837 495.784C467.587 495.784 467.408 495.851 467.301 495.984C467.2 496.112 467.147 496.331 467.141 496.64H468.525ZM469.925 495H471.045L471.685 498.088H471.909L472.581 495H473.669L472.709 499H470.885L469.925 495ZM475.11 497.456C475.116 497.701 475.18 497.88 475.302 497.992C475.43 498.099 475.612 498.152 475.846 498.152C476.342 498.152 476.785 498.136 477.174 498.104L477.398 498.08L477.414 498.872C476.801 499.021 476.246 499.096 475.75 499.096C475.148 499.096 474.71 498.936 474.438 498.616C474.166 498.296 474.03 497.776 474.03 497.056C474.03 495.621 474.62 494.904 475.798 494.904C476.961 494.904 477.542 495.507 477.542 496.712L477.462 497.456H475.11ZM476.486 496.64C476.486 496.32 476.436 496.099 476.334 495.976C476.233 495.848 476.054 495.784 475.798 495.784C475.548 495.784 475.369 495.851 475.262 495.984C475.161 496.112 475.108 496.331 475.102 496.64H476.486ZM478.357 499V493.4H479.429V499H478.357ZM482.319 499V493.56H483.423V499H482.319ZM484.608 499V493.56H485.712V499H484.608ZM488.199 499L489.423 493.56H491.519L492.743 499H491.639L491.423 498.016H489.519L489.303 499H488.199ZM490.279 494.472L489.727 497.056H491.215L490.663 494.472H490.279ZM495.501 495.912H494.517V497.552C494.517 497.712 494.52 497.827 494.525 497.896C494.536 497.96 494.565 498.016 494.613 498.064C494.666 498.112 494.746 498.136 494.853 498.136L495.461 498.12L495.509 498.976C495.152 499.056 494.88 499.096 494.693 499.096C494.213 499.096 493.885 498.989 493.709 498.776C493.533 498.557 493.445 498.157 493.445 497.576V495.912H492.973V495H493.445V493.888H494.517V495H495.501V495.912ZM498.415 495.912H497.431V497.552C497.431 497.712 497.434 497.827 497.439 497.896C497.45 497.96 497.479 498.016 497.527 498.064C497.58 498.112 497.66 498.136 497.767 498.136L498.375 498.12L498.423 498.976C498.066 499.056 497.794 499.096 497.607 499.096C497.127 499.096 496.799 498.989 496.623 498.776C496.447 498.557 496.359 498.157 496.359 497.576V495.912H495.887V495H496.359V493.888H497.431V495H498.415V495.912ZM499.113 499V495H500.177V495.424C500.625 495.157 501.052 494.984 501.457 494.904V495.984C501.025 496.075 500.655 496.168 500.345 496.264L500.185 496.32V499H499.113ZM502.09 499V495H503.162V499H502.09ZM502.09 494.488V493.4H503.162V494.488H502.09ZM506.088 494.904C506.648 494.904 507.056 495.059 507.312 495.368C507.574 495.672 507.704 496.219 507.704 497.008C507.704 497.797 507.555 498.344 507.256 498.648C506.958 498.947 506.443 499.096 505.712 499.096C505.483 499.096 505.064 499.069 504.456 499.016L504.152 498.984V493.4H505.224V495.12C505.566 494.976 505.854 494.904 506.088 494.904ZM505.712 498.136C506.07 498.136 506.31 498.051 506.432 497.88C506.555 497.704 506.616 497.392 506.616 496.944C506.616 496.224 506.392 495.864 505.944 495.864C505.731 495.864 505.528 495.891 505.336 495.944L505.224 495.968V498.104C505.47 498.125 505.632 498.136 505.712 498.136ZM510.864 495H511.936V499H510.872V498.776C510.488 498.989 510.154 499.096 509.872 499.096C509.317 499.096 508.944 498.944 508.752 498.64C508.56 498.331 508.464 497.816 508.464 497.096V495H509.536V497.112C509.536 497.507 509.568 497.776 509.632 497.92C509.696 498.064 509.85 498.136 510.096 498.136C510.33 498.136 510.552 498.099 510.76 498.024L510.864 497.992V495ZM515.142 495.912H514.158V497.552C514.158 497.712 514.16 497.827 514.166 497.896C514.176 497.96 514.206 498.016 514.254 498.064C514.307 498.112 514.387 498.136 514.494 498.136L515.102 498.12L515.15 498.976C514.792 499.056 514.52 499.096 514.334 499.096C513.854 499.096 513.526 498.989 513.35 498.776C513.174 498.557 513.086 498.157 513.086 497.576V495.912H512.614V495H513.086V493.888H514.158V495H515.142V495.912ZM516.72 497.456C516.725 497.701 516.789 497.88 516.912 497.992C517.04 498.099 517.221 498.152 517.456 498.152C517.952 498.152 518.394 498.136 518.784 498.104L519.008 498.08L519.024 498.872C518.41 499.021 517.856 499.096 517.36 499.096C516.757 499.096 516.32 498.936 516.048 498.616C515.776 498.296 515.64 497.776 515.64 497.056C515.64 495.621 516.229 494.904 517.408 494.904C518.57 494.904 519.152 495.507 519.152 496.712L519.072 497.456H516.72ZM518.096 496.64C518.096 496.32 518.045 496.099 517.944 495.976C517.842 495.848 517.664 495.784 517.408 495.784C517.157 495.784 516.978 495.851 516.872 495.984C516.77 496.112 516.717 496.331 516.712 496.64H518.096ZM522.79 496C522.129 495.915 521.665 495.872 521.398 495.872C521.137 495.872 520.966 495.896 520.886 495.944C520.811 495.992 520.774 496.069 520.774 496.176C520.774 496.277 520.825 496.349 520.926 496.392C521.033 496.429 521.299 496.488 521.726 496.568C522.158 496.643 522.465 496.768 522.646 496.944C522.827 497.12 522.918 497.405 522.918 497.8C522.918 498.664 522.382 499.096 521.31 499.096C520.958 499.096 520.531 499.048 520.03 498.952L519.774 498.904L519.806 498.008C520.467 498.093 520.926 498.136 521.182 498.136C521.443 498.136 521.619 498.112 521.71 498.064C521.806 498.011 521.854 497.933 521.854 497.832C521.854 497.731 521.803 497.656 521.702 497.608C521.606 497.56 521.35 497.501 520.934 497.432C520.523 497.363 520.217 497.245 520.014 497.08C519.811 496.915 519.71 496.621 519.71 496.2C519.71 495.773 519.854 495.453 520.142 495.24C520.43 495.021 520.801 494.912 521.254 494.912C521.569 494.912 521.998 494.963 522.542 495.064L522.806 495.112L522.79 496Z" fill="#1F1C3D"/>
<path d="M650.688 499H647.592V493.56H648.696V498.024H650.688V499ZM652.149 497.456C652.155 497.701 652.219 497.88 652.341 497.992C652.469 498.099 652.651 498.152 652.885 498.152C653.381 498.152 653.824 498.136 654.213 498.104L654.437 498.08L654.453 498.872C653.84 499.021 653.285 499.096 652.789 499.096C652.187 499.096 651.749 498.936 651.477 498.616C651.205 498.296 651.069 497.776 651.069 497.056C651.069 495.621 651.659 494.904 652.837 494.904C654 494.904 654.581 495.507 654.581 496.712L654.501 497.456H652.149ZM653.525 496.64C653.525 496.32 653.475 496.099 653.373 495.976C653.272 495.848 653.093 495.784 652.837 495.784C652.587 495.784 652.408 495.851 652.301 495.984C652.2 496.112 652.147 496.331 652.141 496.64H653.525ZM654.925 495H656.045L656.685 498.088H656.909L657.581 495H658.669L657.709 499H655.885L654.925 495ZM660.11 497.456C660.116 497.701 660.18 497.88 660.302 497.992C660.43 498.099 660.612 498.152 660.846 498.152C661.342 498.152 661.785 498.136 662.174 498.104L662.398 498.08L662.414 498.872C661.801 499.021 661.246 499.096 660.75 499.096C660.148 499.096 659.71 498.936 659.438 498.616C659.166 498.296 659.03 497.776 659.03 497.056C659.03 495.621 659.62 494.904 660.798 494.904C661.961 494.904 662.542 495.507 662.542 496.712L662.462 497.456H660.11ZM661.486 496.64C661.486 496.32 661.436 496.099 661.334 495.976C661.233 495.848 661.054 495.784 660.798 495.784C660.548 495.784 660.369 495.851 660.262 495.984C660.161 496.112 660.108 496.331 660.102 496.64H661.486ZM663.357 499V493.4H664.429V499H663.357ZM667.319 499V493.56H668.423V499H667.319ZM669.608 499V493.56H670.712V499H669.608ZM673.199 499L674.423 493.56H676.519L677.743 499H676.639L676.423 498.016H674.519L674.303 499H673.199ZM675.279 494.472L674.727 497.056H676.215L675.663 494.472H675.279ZM680.501 495.912H679.517V497.552C679.517 497.712 679.52 497.827 679.525 497.896C679.536 497.96 679.565 498.016 679.613 498.064C679.666 498.112 679.746 498.136 679.853 498.136L680.461 498.12L680.509 498.976C680.152 499.056 679.88 499.096 679.693 499.096C679.213 499.096 678.885 498.989 678.709 498.776C678.533 498.557 678.445 498.157 678.445 497.576V495.912H677.973V495H678.445V493.888H679.517V495H680.501V495.912ZM683.415 495.912H682.431V497.552C682.431 497.712 682.434 497.827 682.439 497.896C682.45 497.96 682.479 498.016 682.527 498.064C682.58 498.112 682.66 498.136 682.767 498.136L683.375 498.12L683.423 498.976C683.066 499.056 682.794 499.096 682.607 499.096C682.127 499.096 681.799 498.989 681.623 498.776C681.447 498.557 681.359 498.157 681.359 497.576V495.912H680.887V495H681.359V493.888H682.431V495H683.415V495.912ZM684.113 499V495H685.177V495.424C685.625 495.157 686.052 494.984 686.457 494.904V495.984C686.025 496.075 685.655 496.168 685.345 496.264L685.185 496.32V499H684.113ZM687.09 499V495H688.162V499H687.09ZM687.09 494.488V493.4H688.162V494.488H687.09ZM691.088 494.904C691.648 494.904 692.056 495.059 692.312 495.368C692.574 495.672 692.704 496.219 692.704 497.008C692.704 497.797 692.555 498.344 692.256 498.648C691.958 498.947 691.443 499.096 690.712 499.096C690.483 499.096 690.064 499.069 689.456 499.016L689.152 498.984V493.4H690.224V495.12C690.566 494.976 690.854 494.904 691.088 494.904ZM690.712 498.136C691.07 498.136 691.31 498.051 691.432 497.88C691.555 497.704 691.616 497.392 691.616 496.944C691.616 496.224 691.392 495.864 690.944 495.864C690.731 495.864 690.528 495.891 690.336 495.944L690.224 495.968V498.104C690.47 498.125 690.632 498.136 690.712 498.136ZM695.864 495H696.936V499H695.872V498.776C695.488 498.989 695.154 499.096 694.872 499.096C694.317 499.096 693.944 498.944 693.752 498.64C693.56 498.331 693.464 497.816 693.464 497.096V495H694.536V497.112C694.536 497.507 694.568 497.776 694.632 497.92C694.696 498.064 694.85 498.136 695.096 498.136C695.33 498.136 695.552 498.099 695.76 498.024L695.864 497.992V495ZM700.142 495.912H699.158V497.552C699.158 497.712 699.16 497.827 699.166 497.896C699.176 497.96 699.206 498.016 699.254 498.064C699.307 498.112 699.387 498.136 699.494 498.136L700.102 498.12L700.15 498.976C699.792 499.056 699.52 499.096 699.334 499.096C698.854 499.096 698.526 498.989 698.35 498.776C698.174 498.557 698.086 498.157 698.086 497.576V495.912H697.614V495H698.086V493.888H699.158V495H700.142V495.912ZM701.72 497.456C701.725 497.701 701.789 497.88 701.912 497.992C702.04 498.099 702.221 498.152 702.456 498.152C702.952 498.152 703.394 498.136 703.784 498.104L704.008 498.08L704.024 498.872C703.41 499.021 702.856 499.096 702.36 499.096C701.757 499.096 701.32 498.936 701.048 498.616C700.776 498.296 700.64 497.776 700.64 497.056C700.64 495.621 701.229 494.904 702.408 494.904C703.57 494.904 704.152 495.507 704.152 496.712L704.072 497.456H701.72ZM703.096 496.64C703.096 496.32 703.045 496.099 702.944 495.976C702.842 495.848 702.664 495.784 702.408 495.784C702.157 495.784 701.978 495.851 701.872 495.984C701.77 496.112 701.717 496.331 701.712 496.64H703.096ZM707.79 496C707.129 495.915 706.665 495.872 706.398 495.872C706.137 495.872 705.966 495.896 705.886 495.944C705.811 495.992 705.774 496.069 705.774 496.176C705.774 496.277 705.825 496.349 705.926 496.392C706.033 496.429 706.299 496.488 706.726 496.568C707.158 496.643 707.465 496.768 707.646 496.944C707.827 497.12 707.918 497.405 707.918 497.8C707.918 498.664 707.382 499.096 706.31 499.096C705.958 499.096 705.531 499.048 705.03 498.952L704.774 498.904L704.806 498.008C705.467 498.093 705.926 498.136 706.182 498.136C706.443 498.136 706.619 498.112 706.71 498.064C706.806 498.011 706.854 497.933 706.854 497.832C706.854 497.731 706.803 497.656 706.702 497.608C706.606 497.56 706.35 497.501 705.934 497.432C705.523 497.363 705.217 497.245 705.014 497.08C704.811 496.915 704.71 496.621 704.71 496.2C704.71 495.773 704.854 495.453 705.142 495.24C705.43 495.021 705.801 494.912 706.254 494.912C706.569 494.912 706.998 494.963 707.542 495.064L707.806 495.112L707.79 496Z" fill="#1F1C3D"/>
<path d="M45.592 497.039V491.599H47.472L48.432 495.567L49.392 491.599H51.272V497.039H50.168V492.831H50.048L48.984 496.799H47.88L46.816 492.831H46.696V497.039H45.592ZM53.1963 495.495C53.2016 495.74 53.2656 495.919 53.3883 496.031C53.5163 496.138 53.6976 496.191 53.9323 496.191C54.4283 496.191 54.871 496.175 55.2603 496.143L55.4843 496.119L55.5003 496.911C54.887 497.06 54.3323 497.135 53.8363 497.135C53.2336 497.135 52.7963 496.975 52.5243 496.655C52.2523 496.335 52.1163 495.815 52.1163 495.095C52.1163 493.66 52.7056 492.943 53.8843 492.943C55.047 492.943 55.6283 493.546 55.6283 494.751L55.5483 495.495H53.1963ZM54.5723 494.679C54.5723 494.359 54.5216 494.138 54.4203 494.015C54.319 493.887 54.1403 493.823 53.8843 493.823C53.6336 493.823 53.455 493.89 53.3483 494.023C53.247 494.151 53.1936 494.37 53.1883 494.679H54.5723ZM58.6104 493.951H57.6264V495.591C57.6264 495.751 57.6291 495.866 57.6344 495.935C57.6451 495.999 57.6744 496.055 57.7224 496.103C57.7758 496.151 57.8558 496.175 57.9624 496.175L58.5704 496.159L58.6184 497.015C58.2611 497.095 57.9891 497.135 57.8024 497.135C57.3224 497.135 56.9944 497.028 56.8184 496.815C56.6424 496.596 56.5544 496.196 56.5544 495.615V493.951H56.0824V493.039H56.5544V491.927H57.6264V493.039H58.6104V493.951ZM62.3725 494.287V495.951C62.3832 496.079 62.4045 496.17 62.4365 496.223C62.4685 496.271 62.5352 496.306 62.6365 496.327L62.6045 497.135C62.3325 497.135 62.1138 497.116 61.9485 497.079C61.7885 497.042 61.6258 496.967 61.4605 496.855C61.0765 497.042 60.6845 497.135 60.2845 497.135C59.4578 497.135 59.0445 496.698 59.0445 495.823C59.0445 495.396 59.1592 495.095 59.3885 494.919C59.6178 494.738 59.9698 494.631 60.4445 494.599L61.3005 494.535V494.287C61.3005 494.122 61.2632 494.01 61.1885 493.951C61.1138 493.887 60.9938 493.855 60.8285 493.855L59.3245 493.919L59.2925 493.175C59.8632 493.02 60.4045 492.943 60.9165 492.943C61.4338 492.943 61.8045 493.05 62.0285 493.263C62.2578 493.476 62.3725 493.818 62.3725 494.287ZM60.5725 495.343C60.2738 495.37 60.1245 495.53 60.1245 495.823C60.1245 496.116 60.2552 496.263 60.5165 496.263C60.7192 496.263 60.9405 496.231 61.1805 496.167L61.3005 496.135V495.279L60.5725 495.343ZM66.7944 491.439V497.039H65.7304V496.871C65.3571 497.047 65.0344 497.135 64.7624 497.135C64.1811 497.135 63.7758 496.967 63.5464 496.631C63.3171 496.295 63.2024 495.764 63.2024 495.039C63.2024 494.308 63.3384 493.778 63.6104 493.447C63.8878 493.111 64.3038 492.943 64.8584 492.943C65.0291 492.943 65.2664 492.97 65.5704 493.023L65.7224 493.055V491.439H66.7944ZM65.6104 496.079L65.7224 496.055V493.951C65.4291 493.898 65.1678 493.871 64.9384 493.871C64.5064 493.871 64.2904 494.255 64.2904 495.023C64.2904 495.439 64.3384 495.735 64.4344 495.911C64.5304 496.087 64.6878 496.175 64.9064 496.175C65.1304 496.175 65.3651 496.143 65.6104 496.079ZM70.8491 494.287V495.951C70.8597 496.079 70.8811 496.17 70.9131 496.223C70.9451 496.271 71.0117 496.306 71.1131 496.327L71.0811 497.135C70.8091 497.135 70.5904 497.116 70.4251 497.079C70.2651 497.042 70.1024 496.967 69.9371 496.855C69.5531 497.042 69.1611 497.135 68.7611 497.135C67.9344 497.135 67.5211 496.698 67.5211 495.823C67.5211 495.396 67.6357 495.095 67.8651 494.919C68.0944 494.738 68.4464 494.631 68.9211 494.599L69.7771 494.535V494.287C69.7771 494.122 69.7397 494.01 69.6651 493.951C69.5904 493.887 69.4704 493.855 69.3051 493.855L67.8011 493.919L67.7691 493.175C68.3397 493.02 68.8811 492.943 69.3931 492.943C69.9104 492.943 70.2811 493.05 70.5051 493.263C70.7344 493.476 70.8491 493.818 70.8491 494.287ZM69.0491 495.343C68.7504 495.37 68.6011 495.53 68.6011 495.823C68.6011 496.116 68.7317 496.263 68.9931 496.263C69.1957 496.263 69.4171 496.231 69.6571 496.167L69.7771 496.135V495.279L69.0491 495.343ZM74.087 493.951H73.103V495.591C73.103 495.751 73.1057 495.866 73.111 495.935C73.1217 495.999 73.151 496.055 73.199 496.103C73.2523 496.151 73.3323 496.175 73.439 496.175L74.047 496.159L74.095 497.015C73.7377 497.095 73.4657 497.135 73.279 497.135C72.799 497.135 72.471 497.028 72.295 496.815C72.119 496.596 72.031 496.196 72.031 495.615V493.951H71.559V493.039H72.031V491.927H73.103V493.039H74.087V493.951ZM77.8491 494.287V495.951C77.8597 496.079 77.8811 496.17 77.9131 496.223C77.9451 496.271 78.0117 496.306 78.1131 496.327L78.0811 497.135C77.8091 497.135 77.5904 497.116 77.4251 497.079C77.2651 497.042 77.1024 496.967 76.9371 496.855C76.5531 497.042 76.1611 497.135 75.7611 497.135C74.9344 497.135 74.5211 496.698 74.5211 495.823C74.5211 495.396 74.6357 495.095 74.8651 494.919C75.0944 494.738 75.4464 494.631 75.9211 494.599L76.7771 494.535V494.287C76.7771 494.122 76.7397 494.01 76.6651 493.951C76.5904 493.887 76.4704 493.855 76.3051 493.855L74.8011 493.919L74.7691 493.175C75.3397 493.02 75.8811 492.943 76.3931 492.943C76.9104 492.943 77.2811 493.05 77.5051 493.263C77.7344 493.476 77.8491 493.818 77.8491 494.287ZM76.0491 495.343C75.7504 495.37 75.6011 495.53 75.6011 495.823C75.6011 496.116 75.7317 496.263 75.9931 496.263C76.1957 496.263 76.4171 496.231 76.6571 496.167L76.7771 496.135V495.279L76.0491 495.343Z" fill="#1F1C3D"/>
<path d="M213 290.039C213 292.248 214.791 294.039 217 294.039C219.209 294.039 221 292.248 221 290.039C221 287.83 219.209 286.039 217 286.039C214.791 286.039 213 287.83 213 290.039ZM164 290.039V290.789H165.472V290.039V289.289H164V290.039ZM168.417 290.039V290.789H171.361V290.039V289.289H168.417V290.039ZM174.306 290.039V290.789H177.25V290.039V289.289H174.306V290.039ZM180.194 290.039V290.789H183.139V290.039V289.289H180.194V290.039ZM186.083 290.039V290.789H189.028V290.039V289.289H186.083V290.039ZM191.972 290.039V290.789H194.917V290.039V289.289H191.972V290.039ZM197.861 290.039V290.789H200.806V290.039V289.289H197.861V290.039ZM203.75 290.039V290.789H206.694V290.039V289.289H203.75V290.039ZM209.639 290.039V290.789H212.583V290.039V289.289H209.639V290.039ZM215.528 290.039V290.789H217V290.039V289.289H215.528V290.039Z" fill="black"/>
<path d="M213 148.039C213 150.248 214.791 152.039 217 152.039C219.209 152.039 221 150.248 221 148.039C221 145.83 219.209 144.039 217 144.039C214.791 144.039 213 145.83 213 148.039ZM164 148.039V148.789H165.472V148.039V147.289H164V148.039ZM168.417 148.039V148.789H171.361V148.039V147.289H168.417V148.039ZM174.306 148.039V148.789H177.25V148.039V147.289H174.306V148.039ZM180.194 148.039V148.789H183.139V148.039V147.289H180.194V148.039ZM186.083 148.039V148.789H189.028V148.039V147.289H186.083V148.039ZM191.972 148.039V148.789H194.917V148.039V147.289H191.972V148.039ZM197.861 148.039V148.789H200.806V148.039V147.289H197.861V148.039ZM203.75 148.039V148.789H206.694V148.039V147.289H203.75V148.039ZM209.639 148.039V148.789H212.583V148.039V147.289H209.639V148.039ZM215.528 148.039V148.789H217V148.039V147.289H215.528V148.039Z" fill="black"/>
<path d="M213 398.039C213 400.248 214.791 402.039 217 402.039C219.209 402.039 221 400.248 221 398.039C221 395.83 219.209 394.039 217 394.039C214.791 394.039 213 395.83 213 398.039ZM164 398.039V398.789H165.472V398.039V397.289H164V398.039ZM168.417 398.039V398.789H171.361V398.039V397.289H168.417V398.039ZM174.306 398.039V398.789H177.25V398.039V397.289H174.306V398.039ZM180.194 398.039V398.789H183.139V398.039V397.289H180.194V398.039ZM186.083 398.039V398.789H189.028V398.039V397.289H186.083V398.039ZM191.972 398.039V398.789H194.917V398.039V397.289H191.972V398.039ZM197.861 398.039V398.789H200.806V398.039V397.289H197.861V398.039ZM203.75 398.039V398.789H206.694V398.039V397.289H203.75V398.039ZM209.639 398.039V398.789H212.583V398.039V397.289H209.639V398.039ZM215.528 398.039V398.789H217V398.039V397.289H215.528V398.039Z" fill="black"/>
<path d="M213 495.039C213 497.248 214.791 499.039 217 499.039C219.209 499.039 221 497.248 221 495.039C221 492.83 219.209 491.039 217 491.039C214.791 491.039 213 492.83 213 495.039ZM164 495.039V495.789H165.472V495.039V494.289H164V495.039ZM168.417 495.039V495.789H171.361V495.039V494.289H168.417V495.039ZM174.306 495.039V495.789H177.25V495.039V494.289H174.306V495.039ZM180.194 495.039V495.789H183.139V495.039V494.289H180.194V495.039ZM186.083 495.039V495.789H189.028V495.039V494.289H186.083V495.039ZM191.972 495.039V495.789H194.917V495.039V494.289H191.972V495.039ZM197.861 495.039V495.789H200.806V495.039V494.289H197.861V495.039ZM203.75 495.039V495.789H206.694V495.039V494.289H203.75V495.039ZM209.639 495.039V495.789H212.583V495.039V494.289H209.639V495.039ZM215.528 495.039V495.789H217V495.039V494.289H215.528V495.039Z" fill="black"/>
<path d="M218 528C218 521.373 223.373 516 230 516H366C372.627 516 378 521.373 378 528V559H218V528Z" fill="url(#paint0_linear_1721_68288)"/>
<defs>
<filter id="filter0_d_1721_68288" x="208" y="119" width="180" height="439" filterUnits="userSpaceOnUse" color-interpolation-filters="sRGB">
<feFlood flood-opacity="0" result="BackgroundImageFix"/>
<feColorMatrix in="SourceAlpha" type="matrix" values="0 0 0 0 0 0 0 0 0 0 0 0 0 0 0 0 0 0 127 0" result="hardAlpha"/>
<feOffset/>
<feGaussianBlur stdDeviation="5"/>
<feComposite in2="hardAlpha" operator="out"/>
<feColorMatrix type="matrix" values="0 0 0 0 0 0 0 0 0 0 0 0 0 0 0 0 0 0 0.2 0"/>
<feBlend mode="normal" in2="BackgroundImageFix" result="effect1_dropShadow_1721_68288"/>
<feBlend mode="normal" in="SourceGraphic" in2="effect1_dropShadow_1721_68288" result="shape"/>
</filter>
<filter id="filter1_d_1721_68288" x="613" y="119" width="180" height="316" filterUnits="userSpaceOnUse" color-interpolation-filters="sRGB">
<feFlood flood-opacity="0" result="BackgroundImageFix"/>
<feColorMatrix in="SourceAlpha" type="matrix" values="0 0 0 0 0 0 0 0 0 0 0 0 0 0 0 0 0 0 127 0" result="hardAlpha"/>
<feOffset/>
<feGaussianBlur stdDeviation="5"/>
<feComposite in2="hardAlpha" operator="out"/>
<feColorMatrix type="matrix" values="0 0 0 0 0 0 0 0 0 0 0 0 0 0 0 0 0 0 0.2 0"/>
<feBlend mode="normal" in2="BackgroundImageFix" result="effect1_dropShadow_1721_68288"/>
<feBlend mode="normal" in="SourceGraphic" in2="effect1_dropShadow_1721_68288" result="shape"/>
</filter>
<filter id="filter2_d_1721_68288" x="426" y="119" width="180" height="316" filterUnits="userSpaceOnUse" color-interpolation-filters="sRGB">
<feFlood flood-opacity="0" result="BackgroundImageFix"/>
<feColorMatrix in="SourceAlpha" type="matrix" values="0 0 0 0 0 0 0 0 0 0 0 0 0 0 0 0 0 0 127 0" result="hardAlpha"/>
<feOffset/>
<feGaussianBlur stdDeviation="5"/>
<feComposite in2="hardAlpha" operator="out"/>
<feColorMatrix type="matrix" values="0 0 0 0 0 0 0 0 0 0 0 0 0 0 0 0 0 0 0.2 0"/>
<feBlend mode="normal" in2="BackgroundImageFix" result="effect1_dropShadow_1721_68288"/>
<feBlend mode="normal" in="SourceGraphic" in2="effect1_dropShadow_1721_68288" result="shape"/>
</filter>
<linearGradient id="paint0_linear_1721_68288" x1="298" y1="516" x2="298" y2="559" gradientUnits="userSpaceOnUse">
<stop stop-color="white" stop-opacity="0"/>
<stop offset="0.745192" stop-color="#E5ECF2"/>
</linearGradient>
<clipPath id="clip0_1721_68288">
<rect x="226" y="186" width="144" height="89" rx="8" fill="white"/>
</clipPath>
</defs>
</svg>
