<svg width="223" height="48" viewBox="0 0 223 48" fill="none" xmlns="http://www.w3.org/2000/svg">
<rect width="222.076" height="48" rx="4" fill="#0066CC"/>
<g clip-path="url(#clip0_2158_1689)">
<path d="M33.4711 12.1181C33.3255 12.0357 33.1708 11.9991 33.0207 12C32.5465 12.0037 32.1117 12.3836 32.1144 12.9127L32.141 17.7572L25.3722 13.9609C25.2258 13.8785 25.0711 13.8419 24.9209 13.8428C24.4467 13.8464 24.0156 14.2264 24.0146 14.7555L24 30.7225C24 31.4429 24.3241 32.0709 25.018 32.46L31.1029 35.8819C31.2493 35.9643 31.404 36.0009 31.5542 36C32.0284 35.9963 32.4605 35.6164 32.4605 35.0873V18.7138L35.6773 20.5044C36.3721 20.8907 36.6953 21.5215 36.6953 22.2419V31.8357L42.7124 35.2109C42.8589 35.2933 43.0136 35.3299 43.1637 35.329C43.6379 35.3253 44.07 34.9454 44.07 34.4163L44.0764 19.2338C44.0764 18.5133 43.7523 17.8854 43.0584 17.4963L33.4711 12.1181Z" fill="white"/>
</g>
<path d="M67.8047 30H61.6607V19.04H63.4367V28.416H67.8047V30ZM69.4785 22.864C70.0331 22.1707 70.9505 21.824 72.2305 21.824C73.5105 21.824 74.4225 22.1707 74.9665 22.864C75.5211 23.5573 75.7985 24.5973 75.7985 25.984C75.7985 27.3707 75.5318 28.416 74.9985 29.12C74.4651 29.824 73.5425 30.176 72.2305 30.176C70.9185 30.176 69.9958 29.824 69.4625 29.12C68.9291 28.416 68.6625 27.3707 68.6625 25.984C68.6625 24.5973 68.9345 23.5573 69.4785 22.864ZM70.7905 28.064C71.0358 28.4907 71.5158 28.704 72.2305 28.704C72.9451 28.704 73.4251 28.4907 73.6705 28.064C73.9158 27.6373 74.0385 26.9387 74.0385 25.968C74.0385 24.9973 73.9051 24.3093 73.6385 23.904C73.3825 23.4987 72.9131 23.296 72.2305 23.296C71.5478 23.296 71.0731 23.4987 70.8065 23.904C70.5505 24.3093 70.4225 24.9973 70.4225 25.968C70.4225 26.9387 70.5451 27.6373 70.7905 28.064ZM84.5229 31.088C84.5229 32.8373 83.2589 33.712 80.7309 33.712C79.5149 33.712 78.6135 33.5467 78.0269 33.216C77.4402 32.8853 77.1469 32.2827 77.1469 31.408C77.1469 31.0133 77.2429 30.672 77.4349 30.384C77.6269 30.1067 77.9362 29.8027 78.3629 29.472C78.0109 29.2373 77.8349 28.848 77.8349 28.304C77.8349 28.0907 77.9789 27.744 78.2669 27.264L78.4109 27.024C77.6429 26.5653 77.2589 25.7653 77.2589 24.624C77.2589 23.664 77.5469 22.96 78.1229 22.512C78.6989 22.064 79.4775 21.84 80.4589 21.84C80.9282 21.84 81.3922 21.8933 81.8509 22L82.0909 22.048L84.5709 21.984V23.392L83.2429 23.312C83.5309 23.6853 83.6749 24.1227 83.6749 24.624C83.6749 25.6693 83.4082 26.3947 82.8749 26.8C82.3522 27.1947 81.5309 27.392 80.4109 27.392C80.1335 27.392 79.8989 27.3707 79.7069 27.328C79.5575 27.6907 79.4829 27.9733 79.4829 28.176C79.4829 28.368 79.5789 28.5013 79.7709 28.576C79.9735 28.6507 80.4535 28.6933 81.2109 28.704C82.4802 28.7147 83.3495 28.8853 83.8189 29.216C84.2882 29.5467 84.5229 30.1707 84.5229 31.088ZM78.8589 31.248C78.8589 31.6213 79.0082 31.888 79.3069 32.048C79.6055 32.208 80.1175 32.288 80.8429 32.288C82.1335 32.288 82.7789 31.92 82.7789 31.184C82.7789 30.768 82.6615 30.5013 82.4269 30.384C82.2029 30.2773 81.7495 30.2187 81.0669 30.208L79.4989 30.112C79.2642 30.304 79.0989 30.48 79.0029 30.64C78.9069 30.8107 78.8589 31.0133 78.8589 31.248ZM78.9869 24.624C78.9869 25.1147 79.1042 25.4773 79.3389 25.712C79.5735 25.936 79.9522 26.048 80.4749 26.048C80.9975 26.048 81.3709 25.936 81.5949 25.712C81.8295 25.4773 81.9469 25.1147 81.9469 24.624C81.9469 24.1333 81.8295 23.776 81.5949 23.552C81.3602 23.3173 80.9815 23.2 80.4589 23.2C79.4775 23.2 78.9869 23.6747 78.9869 24.624ZM85.9371 30V22H87.6811V30H85.9371ZM85.9371 20.64V18.8H87.6811V20.64H85.9371ZM91.5405 30H89.7965V22H91.5245V22.496C92.3031 22.048 93.0391 21.824 93.7325 21.824C94.7991 21.824 95.5245 22.128 95.9085 22.736C96.3031 23.3333 96.5005 24.3253 96.5005 25.712V30H94.7725V25.76C94.7725 24.896 94.6765 24.2827 94.4845 23.92C94.3031 23.5573 93.9245 23.376 93.3485 23.376C92.8045 23.376 92.2818 23.4827 91.7805 23.696L91.5405 23.792V30ZM101.422 22H103.134L104.398 28.512H104.718L106.238 22.16H108.03L109.55 28.512H109.87L111.118 22H112.846L111.15 30H108.382L107.134 24.512L105.886 30H103.118L101.422 22ZM114.328 30V22H116.072V30H114.328ZM114.328 20.64V18.8H116.072V20.64H114.328ZM122.491 23.488H120.283V27.008C120.283 27.6587 120.331 28.0907 120.427 28.304C120.523 28.5173 120.768 28.624 121.163 28.624L122.475 28.576L122.555 29.968C121.84 30.1067 121.296 30.176 120.923 30.176C120.016 30.176 119.392 29.968 119.051 29.552C118.72 29.136 118.555 28.352 118.555 27.2V23.488H117.531V22H118.555V19.68H120.283V22H122.491V23.488ZM125.665 30H123.921V18.672H125.665V22.416C126.455 22.0213 127.185 21.824 127.857 21.824C128.924 21.824 129.649 22.128 130.033 22.736C130.428 23.3333 130.625 24.3253 130.625 25.712V30H128.881V25.76C128.881 24.896 128.791 24.2827 128.609 23.92C128.428 23.5573 128.044 23.376 127.457 23.376C126.945 23.376 126.433 23.4613 125.921 23.632L125.665 23.728V30ZM136.379 30V19.04H138.155V30H136.379ZM139.62 20.624V19.04H147.62V20.624H144.532V30H142.74V20.624H139.62ZM147.857 26.48V24.896H152.641V26.48H147.857ZM153.734 19.04H155.606L157.174 28.464H157.51L159.59 19.072H161.67L163.75 28.464H164.102L165.67 19.04H167.542L165.382 30H162.518L160.63 21.216L158.758 30H155.878L153.734 19.04ZM174.67 24.464V28.112C174.68 28.3467 174.739 28.5227 174.846 28.64C174.963 28.7467 175.139 28.816 175.374 28.848L175.326 30.176C174.408 30.176 173.699 29.9787 173.198 29.584C172.344 29.9787 171.486 30.176 170.622 30.176C169.032 30.176 168.238 29.328 168.238 27.632C168.238 26.8213 168.451 26.2347 168.878 25.872C169.315 25.5093 169.982 25.2907 170.878 25.216L172.942 25.04V24.464C172.942 24.0373 172.846 23.7387 172.654 23.568C172.472 23.3973 172.2 23.312 171.838 23.312C171.155 23.312 170.302 23.3547 169.278 23.44L168.766 23.472L168.702 22.24C169.864 21.9627 170.931 21.824 171.902 21.824C172.883 21.824 173.587 22.0373 174.014 22.464C174.451 22.88 174.67 23.5467 174.67 24.464ZM171.086 26.448C170.35 26.512 169.982 26.912 169.982 27.648C169.982 28.384 170.307 28.752 170.958 28.752C171.491 28.752 172.056 28.6667 172.654 28.496L172.942 28.4V26.272L171.086 26.448ZM176.955 30V18.672H178.699V30H176.955ZM181.002 30V18.672H182.746V30H181.002ZM190.649 28.56L191.097 28.512L191.129 29.808C189.913 30.0533 188.835 30.176 187.897 30.176C186.713 30.176 185.859 29.8507 185.337 29.2C184.825 28.5493 184.569 27.5093 184.569 26.08C184.569 23.2427 185.726 21.824 188.041 21.824C190.281 21.824 191.401 23.0453 191.401 25.488L191.289 26.736H186.329C186.339 27.3973 186.483 27.8827 186.761 28.192C187.038 28.5013 187.555 28.656 188.313 28.656C189.07 28.656 189.849 28.624 190.649 28.56ZM189.689 25.392C189.689 24.6027 189.561 24.0533 189.305 23.744C189.059 23.424 188.638 23.264 188.041 23.264C187.443 23.264 187.006 23.4293 186.729 23.76C186.462 24.0907 186.323 24.6347 186.313 25.392H189.689ZM197.382 23.488H195.174V27.008C195.174 27.6587 195.222 28.0907 195.318 28.304C195.414 28.5173 195.659 28.624 196.054 28.624L197.366 28.576L197.446 29.968C196.731 30.1067 196.187 30.176 195.814 30.176C194.907 30.176 194.283 29.968 193.942 29.552C193.611 29.136 193.446 28.352 193.446 27.2V23.488H192.422V22H193.446V19.68H195.174V22H197.382V23.488Z" fill="white"/>
<defs>
<clipPath id="clip0_2158_1689">
<rect width="20.0764" height="24" fill="white" transform="translate(24 12)"/>
</clipPath>
</defs>
</svg>
