<svg width="300" height="48" viewBox="0 0 300 48" fill="none" xmlns="http://www.w3.org/2000/svg">
<rect width="300" height="48" rx="4" fill="#0066CC"/>
<g clip-path="url(#clip0_2158_1695)">
<path d="M75.4329 12.1181C75.2873 12.0357 75.1326 11.9991 74.9825 12C74.5083 12.0037 74.0735 12.3836 74.0762 12.9127L74.1028 17.7572L67.334 13.9609C67.1876 13.8785 67.0329 13.8419 66.8827 13.8428C66.4085 13.8464 65.9774 14.2264 65.9764 14.7555L65.9618 30.7225C65.9618 31.4429 66.2859 32.0709 66.9798 32.46L73.0647 35.8819C73.2111 35.9643 73.3658 36.0009 73.516 36C73.9902 35.9963 74.4222 35.6164 74.4222 35.0873V18.7138L77.6391 20.5044C78.3339 20.8907 78.657 21.5215 78.657 22.2419V31.8357L84.6742 35.2109C84.8207 35.2933 84.9754 35.3299 85.1255 35.329C85.5997 35.3253 86.0318 34.9454 86.0318 34.4163L86.0382 19.2338C86.0382 18.5133 85.7141 17.8854 85.0202 17.4963L75.4329 12.1181Z" fill="white"/>
</g>
<path d="M103.767 30H97.6225V19.04H99.3985V28.416H103.767V30ZM105.44 22.864C105.995 22.1707 106.912 21.824 108.192 21.824C109.472 21.824 110.384 22.1707 110.928 22.864C111.483 23.5573 111.76 24.5973 111.76 25.984C111.76 27.3707 111.494 28.416 110.96 29.12C110.427 29.824 109.504 30.176 108.192 30.176C106.88 30.176 105.958 29.824 105.424 29.12C104.891 28.416 104.624 27.3707 104.624 25.984C104.624 24.5973 104.896 23.5573 105.44 22.864ZM106.752 28.064C106.998 28.4907 107.478 28.704 108.192 28.704C108.907 28.704 109.387 28.4907 109.632 28.064C109.878 27.6373 110 26.9387 110 25.968C110 24.9973 109.867 24.3093 109.6 23.904C109.344 23.4987 108.875 23.296 108.192 23.296C107.51 23.296 107.035 23.4987 106.768 23.904C106.512 24.3093 106.384 24.9973 106.384 25.968C106.384 26.9387 106.507 27.6373 106.752 28.064ZM120.485 31.088C120.485 32.8373 119.221 33.712 116.693 33.712C115.477 33.712 114.575 33.5467 113.989 33.216C113.402 32.8853 113.109 32.2827 113.109 31.408C113.109 31.0133 113.205 30.672 113.397 30.384C113.589 30.1067 113.898 29.8027 114.325 29.472C113.973 29.2373 113.797 28.848 113.797 28.304C113.797 28.0907 113.941 27.744 114.229 27.264L114.373 27.024C113.605 26.5653 113.221 25.7653 113.221 24.624C113.221 23.664 113.509 22.96 114.085 22.512C114.661 22.064 115.439 21.84 116.421 21.84C116.89 21.84 117.354 21.8933 117.813 22L118.053 22.048L120.533 21.984V23.392L119.205 23.312C119.493 23.6853 119.637 24.1227 119.637 24.624C119.637 25.6693 119.37 26.3947 118.837 26.8C118.314 27.1947 117.493 27.392 116.373 27.392C116.095 27.392 115.861 27.3707 115.669 27.328C115.519 27.6907 115.445 27.9733 115.445 28.176C115.445 28.368 115.541 28.5013 115.733 28.576C115.935 28.6507 116.415 28.6933 117.173 28.704C118.442 28.7147 119.311 28.8853 119.781 29.216C120.25 29.5467 120.485 30.1707 120.485 31.088ZM114.821 31.248C114.821 31.6213 114.97 31.888 115.269 32.048C115.567 32.208 116.079 32.288 116.805 32.288C118.095 32.288 118.741 31.92 118.741 31.184C118.741 30.768 118.623 30.5013 118.389 30.384C118.165 30.2773 117.711 30.2187 117.029 30.208L115.461 30.112C115.226 30.304 115.061 30.48 114.965 30.64C114.869 30.8107 114.821 31.0133 114.821 31.248ZM114.949 24.624C114.949 25.1147 115.066 25.4773 115.301 25.712C115.535 25.936 115.914 26.048 116.437 26.048C116.959 26.048 117.333 25.936 117.557 25.712C117.791 25.4773 117.909 25.1147 117.909 24.624C117.909 24.1333 117.791 23.776 117.557 23.552C117.322 23.3173 116.943 23.2 116.421 23.2C115.439 23.2 114.949 23.6747 114.949 24.624ZM121.899 30V22H123.643V30H121.899ZM121.899 20.64V18.8H123.643V20.64H121.899ZM127.502 30H125.758V22H127.486V22.496C128.265 22.048 129.001 21.824 129.694 21.824C130.761 21.824 131.486 22.128 131.87 22.736C132.265 23.3333 132.462 24.3253 132.462 25.712V30H130.734V25.76C130.734 24.896 130.638 24.2827 130.446 23.92C130.265 23.5573 129.886 23.376 129.31 23.376C128.766 23.376 128.244 23.4827 127.742 23.696L127.502 23.792V30ZM137.384 22H139.096L140.36 28.512H140.68L142.2 22.16H143.992L145.512 28.512H145.832L147.08 22H148.808L147.112 30H144.344L143.096 24.512L141.848 30H139.08L137.384 22ZM150.29 30V22H152.034V30H150.29ZM150.29 20.64V18.8H152.034V20.64H150.29ZM158.453 23.488H156.245V27.008C156.245 27.6587 156.293 28.0907 156.389 28.304C156.485 28.5173 156.73 28.624 157.125 28.624L158.437 28.576L158.517 29.968C157.802 30.1067 157.258 30.176 156.885 30.176C155.978 30.176 155.354 29.968 155.013 29.552C154.682 29.136 154.517 28.352 154.517 27.2V23.488H153.493V22H154.517V19.68H156.245V22H158.453V23.488ZM161.627 30H159.883V18.672H161.627V22.416C162.417 22.0213 163.147 21.824 163.819 21.824C164.886 21.824 165.611 22.128 165.995 22.736C166.39 23.3333 166.587 24.3253 166.587 25.712V30H164.843V25.76C164.843 24.896 164.753 24.2827 164.571 23.92C164.39 23.5573 164.006 23.376 163.419 23.376C162.907 23.376 162.395 23.4613 161.883 23.632L161.627 23.728V30ZM172.341 30V19.04H174.117V30H172.341ZM175.582 20.624V19.04H183.582V20.624H180.494V30H178.702V20.624H175.582ZM183.819 26.48V24.896H188.603V26.48H183.819ZM189.696 19.04H191.568L193.136 28.464H193.472L195.552 19.072H197.632L199.712 28.464H200.064L201.632 19.04H203.504L201.344 30H198.48L196.592 21.216L194.72 30H191.84L189.696 19.04ZM210.631 24.464V28.112C210.642 28.3467 210.701 28.5227 210.807 28.64C210.925 28.7467 211.101 28.816 211.335 28.848L211.287 30.176C210.37 30.176 209.661 29.9787 209.159 29.584C208.306 29.9787 207.447 30.176 206.583 30.176C204.994 30.176 204.199 29.328 204.199 27.632C204.199 26.8213 204.413 26.2347 204.839 25.872C205.277 25.5093 205.943 25.2907 206.839 25.216L208.903 25.04V24.464C208.903 24.0373 208.807 23.7387 208.615 23.568C208.434 23.3973 208.162 23.312 207.799 23.312C207.117 23.312 206.263 23.3547 205.239 23.44L204.727 23.472L204.663 22.24C205.826 21.9627 206.893 21.824 207.863 21.824C208.845 21.824 209.549 22.0373 209.975 22.464C210.413 22.88 210.631 23.5467 210.631 24.464ZM207.047 26.448C206.311 26.512 205.943 26.912 205.943 27.648C205.943 28.384 206.269 28.752 206.919 28.752C207.453 28.752 208.018 28.6667 208.615 28.496L208.903 28.4V26.272L207.047 26.448ZM212.917 30V18.672H214.661V30H212.917ZM216.964 30V18.672H218.708V30H216.964ZM226.611 28.56L227.059 28.512L227.091 29.808C225.875 30.0533 224.797 30.176 223.859 30.176C222.675 30.176 221.821 29.8507 221.299 29.2C220.787 28.5493 220.531 27.5093 220.531 26.08C220.531 23.2427 221.688 21.824 224.003 21.824C226.243 21.824 227.363 23.0453 227.363 25.488L227.251 26.736H222.291C222.301 27.3973 222.445 27.8827 222.723 28.192C223 28.5013 223.517 28.656 224.275 28.656C225.032 28.656 225.811 28.624 226.611 28.56ZM225.651 25.392C225.651 24.6027 225.523 24.0533 225.267 23.744C225.021 23.424 224.6 23.264 224.003 23.264C223.405 23.264 222.968 23.4293 222.691 23.76C222.424 24.0907 222.285 24.6347 222.275 25.392H225.651ZM233.344 23.488H231.136V27.008C231.136 27.6587 231.184 28.0907 231.28 28.304C231.376 28.5173 231.621 28.624 232.016 28.624L233.328 28.576L233.408 29.968C232.693 30.1067 232.149 30.176 231.776 30.176C230.869 30.176 230.245 29.968 229.904 29.552C229.573 29.136 229.408 28.352 229.408 27.2V23.488H228.384V22H229.408V19.68H231.136V22H233.344V23.488Z" fill="white"/>
<defs>
<clipPath id="clip0_2158_1695">
<rect width="20.0764" height="24" fill="white" transform="translate(65.9618 12)"/>
</clipPath>
</defs>
</svg>
