<svg width="300" height="300" viewBox="0 0 300 300" fill="none" xmlns="http://www.w3.org/2000/svg">
<path d="M188.11 192.49C152.67 168.7 129.89 116.01 137.22 74.7999C144.55 33.5899 179.23 19.4699 214.66 43.2599C250.1 67.0499 272.88 119.74 265.55 160.95C258.22 202.16 223.54 216.28 188.11 192.49Z" fill="#0066CC"/>
<path d="M171 201.88C135.56 178.09 112.78 125.4 120.11 84.19C127.44 42.98 162.12 28.86 197.55 52.65C232.99 76.44 255.77 129.13 248.44 170.34C241.11 211.55 206.43 225.67 171 201.88Z" fill="#FFB458"/>
<path d="M154.46 211.61C119.02 187.82 96.2398 135.13 103.57 93.92C110.9 52.71 145.58 38.59 181.01 62.38C216.45 86.17 239.23 138.86 231.9 180.07C224.57 221.28 189.89 235.4 154.46 211.61Z" fill="#7AC1FA"/>
<path d="M179.35 166.14L174.4 163.28C173.74 162.9 172.89 163.12 172.5 163.77C167.69 171.83 163.19 172.76 155.69 169.14C148.29 165.58 143.32 156.39 142.45 146.49C142.34 145.29 141.64 144.22 140.6 143.62L136.03 140.98C135.44 140.64 134.68 141.07 134.7 141.76C135.13 155.13 141.05 169.24 151.69 175.66C163.31 182.67 172.75 178.85 179.96 168.98C180.65 168.04 180.36 166.71 179.35 166.13V166.14Z" fill="#003366"/>
<path d="M136.43 129.03L141.31 131.85C142.48 132.53 143.94 131.68 143.94 130.33V103.34C143.94 102.08 143.27 100.93 142.18 100.3L137.3 97.4799C136.13 96.7999 134.67 97.6499 134.67 98.9999V125.99C134.67 127.25 135.34 128.4 136.43 129.03Z" fill="#003366"/>
<path d="M182.96 120.94L178.08 118.12C176.91 117.44 175.45 118.29 175.45 119.64V146.63C175.45 147.89 176.12 149.04 177.21 149.67L182.09 152.49C183.26 153.17 184.72 152.32 184.72 150.97V123.98C184.72 122.72 184.05 121.57 182.96 120.94Z" fill="#003366"/>
<path d="M65.8308 216.58C65.0908 213.91 64.7508 211.17 64.6508 208.02C64.4408 201.78 64.2308 195.54 64.0408 189.3C63.8608 183.53 63.7208 177.77 63.5408 172C63.4908 170.45 63.3908 168.91 63.6508 167.36C64.2608 163.75 67.7108 160.52 71.3608 160.2C73.2408 160.03 72.9308 160.35 73.1208 158.5C73.6408 153.58 74.1408 148.66 74.5708 143.73C74.7408 141.78 74.7608 139.82 75.4008 137.93C77.3208 132.2 85.0908 130.13 89.6008 134.14C94.1708 138.01 92.5808 142.77 92.2408 147.94C92.2308 148.1 92.1908 148.28 92.5008 148.49C94.0808 143.08 95.2708 137.62 96.9008 132.23C100.591 120.7 117.381 125.78 114.191 137.32C111.301 147.99 108.621 158.42 105.611 169.1C114.891 163.71 126.261 164.38 134.001 172.09C138.101 176.08 140.861 180.89 141.951 186.51C142.801 190.91 142.311 195.2 139.311 198.79C132.801 206.59 126.001 195.71 124.201 189.58C120.201 178.04 111.131 185.13 109.401 193.72C108.221 198.41 108.931 205.43 112.601 208.92C115.471 211.64 120.311 211.49 123.501 209.41C128.601 206.22 137.211 197.08 141.141 206.42C143.371 212.39 142.031 217.71 137.901 222.4C134.631 226.11 131.511 227.2 127.071 228.56C121.861 230.16 116.761 234.42 112.101 237.24C106.531 240.6 100.681 244.06 94.1908 244.46C88.1308 244.83 83.6108 242.01 80.1708 237.35C76.5408 232.44 71.6508 229.07 68.6108 223.43C67.3308 221.06 66.4308 218.84 65.8108 216.58H65.8308Z" fill="#FFB458"/>
<path d="M102.73 240.8C102.73 226.12 90.8305 207.35 76.1505 198.87C67.6505 193.96 60.0905 193.59 55.2205 196.99L39.2705 206.34C34.3105 208.31 31.2305 213.27 31.2305 220.74C31.2305 235.42 43.1305 254.19 57.8105 262.67C65.3505 267.02 72.1405 267.8 76.9805 265.56C77.6105 265.27 78.2105 264.92 78.7705 264.53L95.8205 254.69C95.8905 254.65 95.9605 254.6 96.0405 254.56L96.1605 254.49C100.25 252.18 102.73 247.49 102.73 240.8Z" fill="#0066CC"/>
</svg>
