<svg width="300" height="48" viewBox="0 0 300 48" fill="none" xmlns="http://www.w3.org/2000/svg">
<rect width="300" height="48" rx="4" fill="#0066CC"/>
<g clip-path="url(#clip0_2149_27009)">
<path d="M33.4711 12.1181C33.3255 12.0357 33.1708 11.9991 33.0207 12C32.5465 12.0037 32.1117 12.3836 32.1144 12.9127L32.141 17.7572L25.3722 13.9609C25.2258 13.8785 25.0711 13.8419 24.9209 13.8428C24.4467 13.8464 24.0156 14.2264 24.0146 14.7555L24 30.7225C24 31.4429 24.3241 32.0709 25.018 32.46L31.1029 35.8819C31.2493 35.9643 31.404 36.0009 31.5542 36C32.0284 35.9963 32.4605 35.6164 32.4605 35.0873V18.7138L35.6773 20.5044C36.3721 20.8907 36.6953 21.5215 36.6953 22.2419V31.8357L42.7124 35.2109C42.8589 35.2933 43.0136 35.3299 43.1637 35.329C43.6379 35.3253 44.07 34.9454 44.07 34.4163L44.0764 19.2338C44.0764 18.5133 43.7523 17.8854 43.0584 17.4963L33.4711 12.1181Z" fill="white"/>
</g>
<path d="M107.755 30V19.04H114.667V20.592H109.531V23.696H113.707V25.232H109.531V28.432H114.667V30H107.755ZM118.135 30H116.391V22H118.119V22.496C118.898 22.048 119.634 21.824 120.327 21.824C121.394 21.824 122.119 22.128 122.503 22.736C122.898 23.3333 123.095 24.3253 123.095 25.712V30H121.367V25.76C121.367 24.896 121.271 24.2827 121.079 23.92C120.898 23.5573 120.519 23.376 119.943 23.376C119.399 23.376 118.876 23.4827 118.375 23.696L118.135 23.792V30ZM129.429 23.488H127.221V27.008C127.221 27.6587 127.269 28.0907 127.365 28.304C127.461 28.5173 127.707 28.624 128.101 28.624L129.413 28.576L129.493 29.968C128.779 30.1067 128.235 30.176 127.861 30.176C126.955 30.176 126.331 29.968 125.989 29.552C125.659 29.136 125.493 28.352 125.493 27.2V23.488H124.469V22H125.493V19.68H127.221V22H129.429V23.488ZM130.86 30V22H132.588V22.96C133.494 22.3733 134.401 21.9947 135.308 21.824V23.568C134.39 23.7493 133.606 23.984 132.956 24.272L132.604 24.416V30H130.86ZM142.561 24.464V28.112C142.572 28.3467 142.63 28.5227 142.737 28.64C142.854 28.7467 143.03 28.816 143.265 28.848L143.217 30.176C142.3 30.176 141.59 29.9787 141.089 29.584C140.236 29.9787 139.377 30.176 138.513 30.176C136.924 30.176 136.129 29.328 136.129 27.632C136.129 26.8213 136.342 26.2347 136.769 25.872C137.206 25.5093 137.873 25.2907 138.769 25.216L140.833 25.04V24.464C140.833 24.0373 140.737 23.7387 140.545 23.568C140.364 23.3973 140.092 23.312 139.729 23.312C139.046 23.312 138.193 23.3547 137.169 23.44L136.657 23.472L136.593 22.24C137.756 21.9627 138.822 21.824 139.793 21.824C140.774 21.824 141.478 22.0373 141.905 22.464C142.342 22.88 142.561 23.5467 142.561 24.464ZM138.977 26.448C138.241 26.512 137.873 26.912 137.873 27.648C137.873 28.384 138.198 28.752 138.849 28.752C139.382 28.752 139.948 28.6667 140.545 28.496L140.833 28.4V26.272L138.977 26.448ZM151.258 21.824C151.823 21.824 152.49 21.8987 153.258 22.048L153.658 22.128L153.594 23.504C152.751 23.4187 152.127 23.376 151.722 23.376C150.911 23.376 150.367 23.5573 150.09 23.92C149.813 24.2827 149.674 24.9653 149.674 25.968C149.674 26.9707 149.807 27.664 150.074 28.048C150.341 28.432 150.895 28.624 151.738 28.624L153.61 28.496L153.658 29.888C152.581 30.08 151.77 30.176 151.226 30.176C150.01 30.176 149.151 29.8507 148.65 29.2C148.159 28.5387 147.914 27.4613 147.914 25.968C147.914 24.4747 148.175 23.4133 148.698 22.784C149.221 22.144 150.074 21.824 151.258 21.824ZM155.698 22.864C156.253 22.1707 157.17 21.824 158.45 21.824C159.73 21.824 160.642 22.1707 161.186 22.864C161.741 23.5573 162.018 24.5973 162.018 25.984C162.018 27.3707 161.751 28.416 161.218 29.12C160.685 29.824 159.762 30.176 158.45 30.176C157.138 30.176 156.215 29.824 155.682 29.12C155.149 28.416 154.882 27.3707 154.882 25.984C154.882 24.5973 155.154 23.5573 155.698 22.864ZM157.01 28.064C157.255 28.4907 157.735 28.704 158.45 28.704C159.165 28.704 159.645 28.4907 159.89 28.064C160.135 27.6373 160.258 26.9387 160.258 25.968C160.258 24.9973 160.125 24.3093 159.858 23.904C159.602 23.4987 159.133 23.296 158.45 23.296C157.767 23.296 157.293 23.4987 157.026 23.904C156.77 24.3093 156.642 24.9973 156.642 25.968C156.642 26.9387 156.765 27.6373 157.01 28.064ZM165.494 30H163.75V22H165.478V22.496C166.257 22.048 166.993 21.824 167.686 21.824C168.753 21.824 169.478 22.128 169.862 22.736C170.257 23.3333 170.454 24.3253 170.454 25.712V30H168.726V25.76C168.726 24.896 168.63 24.2827 168.438 23.92C168.257 23.5573 167.878 23.376 167.302 23.376C166.758 23.376 166.236 23.4827 165.734 23.696L165.494 23.792V30ZM176.208 30V19.04H177.984V30H176.208ZM179.449 20.624V19.04H187.449V20.624H184.361V30H182.569V20.624H179.449ZM187.686 26.48V24.896H192.47V26.48H187.686ZM193.563 19.04H195.435L197.003 28.464H197.339L199.419 19.072H201.499L203.579 28.464H203.931L205.499 19.04H207.371L205.211 30H202.347L200.459 21.216L198.587 30H195.707L193.563 19.04ZM214.498 24.464V28.112C214.509 28.3467 214.568 28.5227 214.674 28.64C214.792 28.7467 214.968 28.816 215.202 28.848L215.154 30.176C214.237 30.176 213.528 29.9787 213.026 29.584C212.173 29.9787 211.314 30.176 210.45 30.176C208.861 30.176 208.066 29.328 208.066 27.632C208.066 26.8213 208.28 26.2347 208.706 25.872C209.144 25.5093 209.81 25.2907 210.706 25.216L212.77 25.04V24.464C212.77 24.0373 212.674 23.7387 212.482 23.568C212.301 23.3973 212.029 23.312 211.666 23.312C210.984 23.312 210.13 23.3547 209.106 23.44L208.594 23.472L208.53 22.24C209.693 21.9627 210.76 21.824 211.73 21.824C212.712 21.824 213.416 22.0373 213.842 22.464C214.28 22.88 214.498 23.5467 214.498 24.464ZM210.914 26.448C210.178 26.512 209.81 26.912 209.81 27.648C209.81 28.384 210.136 28.752 210.786 28.752C211.32 28.752 211.885 28.6667 212.482 28.496L212.77 28.4V26.272L210.914 26.448ZM216.784 30V18.672H218.528V30H216.784ZM220.831 30V18.672H222.575V30H220.831ZM230.478 28.56L230.926 28.512L230.958 29.808C229.742 30.0533 228.664 30.176 227.726 30.176C226.542 30.176 225.688 29.8507 225.166 29.2C224.654 28.5493 224.398 27.5093 224.398 26.08C224.398 23.2427 225.555 21.824 227.87 21.824C230.11 21.824 231.23 23.0453 231.23 25.488L231.118 26.736H226.158C226.168 27.3973 226.312 27.8827 226.59 28.192C226.867 28.5013 227.384 28.656 228.142 28.656C228.899 28.656 229.678 28.624 230.478 28.56ZM229.518 25.392C229.518 24.6027 229.39 24.0533 229.134 23.744C228.888 23.424 228.467 23.264 227.87 23.264C227.272 23.264 226.835 23.4293 226.558 23.76C226.291 24.0907 226.152 24.6347 226.142 25.392H229.518ZM237.211 23.488H235.003V27.008C235.003 27.6587 235.051 28.0907 235.147 28.304C235.243 28.5173 235.488 28.624 235.883 28.624L237.195 28.576L237.275 29.968C236.56 30.1067 236.016 30.176 235.643 30.176C234.736 30.176 234.112 29.968 233.771 29.552C233.44 29.136 233.275 28.352 233.275 27.2V23.488H232.251V22H233.275V19.68H235.003V22H237.211V23.488Z" fill="white"/>
<defs>
<clipPath id="clip0_2149_27009">
<rect width="20.0764" height="24" fill="white" transform="translate(24 12)"/>
</clipPath>
</defs>
</svg>
