<svg width="300" height="300" viewBox="0 0 300 300" fill="none" xmlns="http://www.w3.org/2000/svg">
<path d="M103.51 117.31C97.2697 124.52 99.1397 135.62 107.39 140.39L246.96 220.97C259.62 228.28 274.28 215.22 268.47 201.8L198.7 40.6398C194.26 30.3798 180.62 28.2798 173.3 36.7398L103.51 117.32V117.31Z" fill="#0066CC"/>
<path d="M86.7001 127.02C80.4601 134.23 82.3301 145.33 90.5801 150.1L230.15 230.68C242.81 237.99 257.47 224.93 251.66 211.51L181.88 50.34C177.44 40.08 163.8 37.98 156.48 46.44L86.6901 127.02H86.7001Z" fill="#FFB357"/>
<path d="M69.6503 137.04C63.4103 144.25 65.2803 155.35 73.5303 160.12L213.1 240.7C225.76 248.01 240.42 234.95 234.61 221.53L164.84 60.36C160.4 50.1 146.76 48 139.44 56.46L69.6503 137.04Z" fill="#7AC1FA"/>
<path d="M185.7 142.37L183.15 138.63C182.68 137.94 181.78 137.67 181.01 138L171.36 142.08L163.12 129.11C162.67 128.4 161.77 128.11 160.98 128.42L157.87 129.66C156.85 130.07 156.45 131.31 157.04 132.24L165 144.77L155.18 148.92C154.16 149.35 153.79 150.61 154.41 151.53L156.96 155.27C157.43 155.96 158.33 156.23 159.1 155.9L169.32 151.58L177.4 164.29C177.85 165 178.75 165.29 179.54 164.98L182.65 163.74C183.67 163.33 184.07 162.09 183.48 161.16L175.68 148.89L184.92 144.99C185.94 144.56 186.31 143.3 185.69 142.38L185.7 142.37Z" fill="#003366"/>
<path d="M117.76 132.14L127.64 127.97L135.51 140.36C136.08 141.26 137.22 141.63 138.21 141.23L140.45 140.34C141.74 139.82 142.25 138.26 141.5 137.08L134 125.28L142.72 121.6C144.01 121.05 144.48 119.46 143.69 118.3L141.67 115.34C141.07 114.46 139.94 114.13 138.97 114.54L129.67 118.47L121.63 105.82C121.06 104.92 119.92 104.55 118.93 104.95L116.69 105.84C115.4 106.36 114.89 107.92 115.64 109.1L123.3 121.16L114.01 125.09C112.72 125.64 112.25 127.23 113.04 128.39L115.06 131.35C115.66 132.22 116.79 132.56 117.76 132.15V132.14Z" fill="#003366"/>
<path d="M171.819 184.56L117.169 153.01C116.029 152.35 114.609 153.17 114.609 154.49V157.09C114.609 158.31 115.259 159.43 116.309 160.04L170.959 191.59C172.099 192.25 173.519 191.43 173.519 190.11V187.51C173.519 186.29 172.869 185.17 171.819 184.56Z" fill="#003366"/>
<path d="M128.54 206.33L122.25 210.51L124.08 173.35C124.73 160.21 117.29 146.68 106.68 141.68L98.3104 137.74C86.6004 132.23 75.2404 139.02 72.9404 152.91L65.4004 199.9L82.4504 232.12L94.0604 229.24L68.4604 246.25L74.2704 248.12L90.2504 253.96L140.5 224.69C143.78 222.56 145.67 218.83 145.46 214.93C145.01 206.51 135.61 201.73 128.55 206.33H128.54Z" fill="#FFB357"/>
<path d="M103.3 242.61C103.3 227.8 91.2997 208.87 76.4897 200.32C67.9197 195.37 60.2897 195 55.3797 198.42L39.2897 207.85C38.1497 208.3 37.1097 208.91 36.1897 209.67C33.0397 212.25 31.1797 216.55 31.1797 222.37C31.1797 237.18 43.1797 256.11 57.9897 264.66C66.5797 269.62 74.2197 269.99 79.1297 266.53L96.3297 256.61C100.66 254.35 103.3 249.55 103.3 242.6V242.61Z" fill="#0066CC"/>
</svg>
