<svg width="365" height="2437" viewBox="0 0 365 2437" fill="none" xmlns="http://www.w3.org/2000/svg">
<g clip-path="url(#clip0_4177_47332)">
<rect width="360" height="2436" transform="translate(0.0117188 0.5)" fill="white"/>
<rect width="360" height="48" transform="translate(0.0117188 0.5)" fill="#004D99"/>
<text fill="white" style="white-space: pre" xml:space="preserve" font-family="Titillium Web" font-size="14" font-weight="600" letter-spacing="0px"><tspan x="12.0117" y="29.715">Organization name</tspan></text>
<g clip-path="url(#clip1_4177_47332)">
<text fill="white" style="white-space: pre" xml:space="preserve" font-family="Titillium Web" font-size="14" font-weight="600" letter-spacing="0em"><tspan x="301.012" y="29.715">ENG</tspan></text>
<path d="M343.012 27.7L337.412 22.1L338.112 21.3L343.012 26.2L347.912 21.3L348.612 22.1L343.012 27.7Z" fill="white"/>
</g>
<rect width="360" height="72" transform="translate(0.0117188 48.5)" fill="#F2F7FC"/>
<rect x="12.5117" y="69.5" width="106" height="30" fill="#F2F7FC"/>
<rect x="12.5117" y="69.5" width="106" height="30" stroke="#C5C7C9"/>
<line x1="13.2094" y1="69.8958" x2="117.911" y2="99.5189" stroke="#C5C7C9"/>
<text fill="black" style="white-space: pre" xml:space="preserve" font-family="Titillium Web" font-size="16" font-weight="600" letter-spacing="0px"><tspan x="22.3135" y="92.8999">YOUR LOGO</tspan></text>
<path d="M131.012 69V100" stroke="#C5C7C9" stroke-linejoin="round"/>
<path d="M152.032 72.5004C152.182 72.4995 152.337 72.5362 152.482 72.6185L162.07 77.9965C162.764 78.3855 163.088 79.0134 163.088 79.7338L163.082 94.9164C163.082 95.4454 162.65 95.8257 162.176 95.8295C162.026 95.8304 161.871 95.7935 161.725 95.7113L155.707 92.3353V82.7416C155.707 82.0214 155.384 81.3905 154.689 81.0043L151.473 79.2143V95.5873C151.473 96.1164 151.04 96.4967 150.565 96.5004C150.415 96.5012 150.261 96.4645 150.114 96.3822L144.029 92.9603C143.336 92.5714 143.012 91.9432 143.012 91.223L143.026 75.2553C143.027 74.7263 143.459 74.3468 143.933 74.3432C144.083 74.3422 144.237 74.3789 144.384 74.4613L151.152 78.2572L151.126 73.4125C151.123 72.8836 151.558 72.5042 152.032 72.5004ZM221.482 80.3734C224.84 80.3734 226.782 82.0635 226.782 84.9369V88.6488C226.782 89.1236 226.99 89.3538 227.338 89.3539H227.786L227.785 89.3559C227.955 89.3561 228.082 89.4865 228.082 89.6566V92.0434C228.082 92.2136 227.961 92.3422 227.791 92.3422H225.672C224.748 92.3422 223.989 92.0083 223.546 91.4838C222.544 92.2654 221.269 92.6605 219.91 92.6605C217.35 92.6605 215.834 91.2584 215.834 88.851C215.834 86.5743 217.19 85.4176 220.179 85.2162L223.025 85.0238V84.5551C223.024 83.5831 222.35 83.0443 221.237 83.0443C220.463 83.0444 219.957 83.3068 219.719 83.7562C219.614 83.9521 219.513 84.0199 219.335 84.0199H216.156C215.977 84.0199 215.858 83.916 215.855 83.7641C215.854 83.6689 215.899 83.5255 215.979 83.3373C216.738 81.5431 218.715 80.3736 221.482 80.3734ZM247.08 80.3734C250.644 80.3734 252.784 82.5451 252.784 85.9623V87.0912C252.784 87.2613 252.656 87.3908 252.486 87.391H244.868C244.967 88.7989 245.591 89.9457 247.201 89.9457C247.957 89.9457 248.562 89.6917 248.871 89.2084C248.989 89.0247 249.097 88.9712 249.2 88.9711H252.251C252.493 88.9712 252.574 89.1169 252.575 89.2787C252.576 89.3711 252.549 89.4695 252.487 89.6312C251.756 91.5362 249.956 92.6605 247.276 92.6605C243.472 92.6605 241.232 90.3594 241.231 86.5092C241.231 82.6592 243.426 80.3739 247.08 80.3734ZM215.746 76.3402V76.3412C215.937 76.3414 216.093 76.5209 216.06 76.7094L213.362 92.0902C213.337 92.2384 213.209 92.3429 213.059 92.3432H208.471C208.325 92.3431 208.205 92.2438 208.174 92.1019L205.723 80.8588H205.501L203.051 92.1019C203.02 92.2438 202.896 92.3432 202.751 92.3432H198.163C198.014 92.3432 197.888 92.2376 197.862 92.0902L195.164 76.7094C195.131 76.5208 195.285 76.3412 195.477 76.3412H198.506C198.657 76.3414 198.786 76.4567 198.811 76.6049L200.628 87.4799H200.827L203.15 76.5922C203.182 76.4494 203.313 76.3412 203.459 76.3412H207.915C208.062 76.3412 208.181 76.4494 208.211 76.5922L210.488 87.5014H210.686L212.528 76.6059C212.553 76.4568 212.673 76.3405 212.824 76.3402H215.746ZM174.75 76.3393C174.92 76.3393 175.048 76.4649 175.048 76.6351V92.0434C175.048 92.2136 174.919 92.3422 174.749 92.3422H171.358C171.188 92.3422 171.059 92.2136 171.059 92.0434L171.053 76.6361C171.053 76.4659 171.188 76.3402 171.358 76.3402H174.75V76.3393ZM188.815 76.3393C188.987 76.3393 189.115 76.4903 189.115 76.6605V79.3051H189.114C189.114 79.4763 188.986 79.6254 188.815 79.6254H184.592V92.0424C184.592 92.2126 184.442 92.3411 184.271 92.3412H180.922C180.752 92.3412 180.603 92.2105 180.603 92.0404V79.6254H176.377C176.207 79.6254 176.079 79.4744 176.079 79.3041V76.6586C176.079 76.4884 176.209 76.3393 176.379 76.3393H188.815ZM232.486 76.3402C232.658 76.3402 232.786 76.4688 232.786 76.6391V88.5883C232.786 89.064 233.059 89.3537 233.534 89.3539H234.258C234.428 89.3539 234.577 89.4805 234.577 89.6508V92.0443C234.577 92.2146 234.443 92.3412 234.272 92.3412H232.618C230.124 92.3421 228.924 91.2383 228.924 88.9711V76.6391C228.924 76.4689 229.052 76.3404 229.222 76.3402H232.486ZM238.889 76.3402C239.059 76.3402 239.196 76.4688 239.196 76.6391V88.5883C239.196 89.0641 239.461 89.3539 239.937 89.3539H240.66C240.83 89.3539 240.989 89.4885 240.989 89.6586V92.0443C240.989 92.2146 240.845 92.3412 240.675 92.3412H239.021C236.526 92.342 235.326 91.2382 235.326 88.9711V76.6391C235.326 76.4688 235.455 76.3402 235.625 76.3402H238.889ZM258.168 77.5131C258.338 77.5131 258.468 77.6416 258.468 77.8119V80.6928H260.43C260.601 80.6928 260.75 80.8204 260.75 80.9906V83.3803C260.75 83.5513 260.62 83.6781 260.45 83.6781H258.468V88.5873C258.468 89.0632 258.738 89.3529 259.214 89.3529H260.452C260.622 89.353 260.75 89.5032 260.75 89.6732V92.0424C260.75 92.2124 260.621 92.3402 260.451 92.3402H258.768C256.007 92.3402 254.627 90.9807 254.627 88.2875V83.6781H253.262C253.091 83.6781 252.963 83.5495 252.963 83.3793V80.9906C252.963 80.8205 253.112 80.6918 253.282 80.6918H254.626V77.8168C254.626 77.6466 254.773 77.5131 254.943 77.5131H258.168ZM220.995 87.5238C219.898 87.6062 219.501 88.0001 219.501 88.6928C219.501 89.4699 219.999 89.9456 221.017 89.9457C221.645 89.9457 222.327 89.766 223.027 89.3119H223.028V87.3715L220.995 87.5238ZM194.148 84.3197H194.149C194.32 84.3197 194.449 84.4483 194.449 84.6185V87.1361C194.449 87.3062 194.318 87.4347 194.148 87.435H188.012C187.841 87.4349 187.707 87.3073 187.706 87.1371V84.6156C187.706 84.4446 187.834 84.3178 188.004 84.3178L194.148 84.3197ZM247.079 82.8168C245.763 82.8169 244.891 83.6257 244.883 84.9447H249.193C249.213 83.6155 248.395 82.8168 247.079 82.8168Z" fill="#0066CC"/>
<rect width="360" height="132" transform="translate(0.0117188 120.5)" fill="white"/>
<path d="M33.0113 148H17.5113L22.8113 142.6L22.1113 141.9L15.6113 148.5L22.1113 155.1L22.8113 154.4L17.5113 149H33.0113V148Z" fill="#0066CC"/>
<text fill="#17324D" style="white-space: pre" xml:space="preserve" font-family="Titillium Web" font-size="28" font-weight="bold" letter-spacing="0px"><tspan x="87.5215" y="158.93">Choose the app</tspan></text>
<path d="M340.912 151.7L336.012 146.8L331.112 151.7L330.412 150.9L336.012 145.3L341.612 150.9L340.912 151.7Z" fill="#0066CC"/>
<text fill="#17324D" style="white-space: pre" xml:space="preserve" font-family="Titillium Web" font-size="20" letter-spacing="0px"><tspan x="30.2852" y="199.95">Select the digital wallet you want to </tspan><tspan x="122.785" y="231.95">continue with</tspan></text>
<g clip-path="url(#clip2_4177_47332)">
<path fill-rule="evenodd" clip-rule="evenodd" d="M36.0117 299.8L41.9117 305.6L41.1117 306.4L35.3117 300.5C33.8343 301.768 31.9583 302.475 30.0117 302.5C25.5934 302.5 22.0117 298.918 22.0117 294.5C22.0117 290.082 25.5934 286.5 30.0117 286.5C34.43 286.5 38.0117 290.082 38.0117 294.5C37.9872 296.447 37.2793 298.323 36.0117 299.8ZM23.0117 294.5C23.0117 298.366 26.1457 301.5 30.0117 301.5C31.8682 301.5 33.6487 300.763 34.9615 299.45C36.2742 298.137 37.0117 296.357 37.0117 294.5C37.0117 290.634 33.8777 287.5 30.0117 287.5C26.1457 287.5 23.0117 290.634 23.0117 294.5Z" fill="#5C6F82"/>
<text fill="#5C6F82" style="white-space: pre" xml:space="preserve" font-family="Titillium Web" font-size="20" letter-spacing="0px"><tspan x="52.0117" y="303.95">Search by name</tspan></text>
</g>
<rect x="12.5117" y="269" width="177" height="47" rx="3.5" stroke="#C5C7C9"/>
<rect x="202.012" y="268.5" width="79" height="48" rx="4" fill="#D9DADB"/>
<text fill="#5C6F82" style="white-space: pre" xml:space="preserve" font-family="Titillium Web" font-size="16" font-weight="600" letter-spacing="0em"><tspan x="218.285" y="298.46">Search</tspan></text>
<rect x="294.012" y="269.5" width="46" height="46" rx="3" stroke="#003366" stroke-width="2"/>
<mask id="path-22-inside-1_4177_47332" fill="white">
<path d="M322.719 281.947C322.599 281.961 322.489 282.018 322.41 282.108C322.331 282.198 322.288 282.315 322.291 282.435V282.914C322.29 282.978 322.302 283.041 322.326 283.1C322.349 283.159 322.385 283.213 322.429 283.258C322.474 283.303 322.527 283.339 322.586 283.364C322.644 283.388 322.707 283.401 322.771 283.401C322.835 283.401 322.898 283.388 322.956 283.364C323.015 283.339 323.068 283.303 323.113 283.258C323.158 283.213 323.193 283.159 323.216 283.1C323.24 283.041 323.252 282.978 323.251 282.914V282.435C323.252 282.37 323.24 282.307 323.216 282.247C323.192 282.187 323.156 282.133 323.11 282.088C323.065 282.042 323.011 282.007 322.951 281.982C322.892 281.958 322.828 281.946 322.764 281.947C322.749 281.947 322.734 281.947 322.719 281.947ZM311.184 281.955C311.085 281.969 310.994 282.014 310.921 282.082C310.179 282.796 309.232 283.568 306.579 286.422C306.536 286.468 306.503 286.522 306.481 286.581C306.459 286.641 306.449 286.703 306.452 286.766C306.454 286.829 306.469 286.891 306.495 286.948C306.522 287.006 306.559 287.057 306.605 287.1C306.652 287.143 306.706 287.176 306.765 287.198C306.824 287.22 306.887 287.23 306.95 287.227C307.013 287.225 307.075 287.21 307.132 287.184C307.19 287.157 307.241 287.12 307.284 287.074C309.154 285.063 310.091 284.17 310.771 283.536V302.58C310.77 302.644 310.782 302.707 310.806 302.766C310.83 302.825 310.865 302.879 310.91 302.924C310.954 302.969 311.007 303.005 311.066 303.03C311.125 303.054 311.188 303.067 311.251 303.067C311.315 303.067 311.378 303.054 311.437 303.03C311.495 303.005 311.549 302.969 311.593 302.924C311.638 302.879 311.673 302.825 311.697 302.766C311.721 302.707 311.732 302.644 311.731 302.58V283.536C312.412 284.17 313.349 285.063 315.219 287.074C315.262 287.12 315.313 287.157 315.37 287.184C315.428 287.21 315.49 287.225 315.553 287.227C315.616 287.23 315.679 287.22 315.738 287.198C315.797 287.176 315.851 287.143 315.897 287.1C315.944 287.057 315.981 287.006 316.008 286.948C316.034 286.891 316.049 286.829 316.051 286.766C316.054 286.703 316.044 286.641 316.022 286.581C316 286.522 315.967 286.468 315.924 286.422C313.27 283.568 312.324 282.796 311.581 282.082C311.529 282.033 311.466 281.995 311.397 281.973C311.328 281.951 311.255 281.945 311.184 281.955ZM322.719 284.346C322.599 284.359 322.489 284.416 322.41 284.506C322.331 284.596 322.288 284.713 322.291 284.833V285.313C322.29 285.376 322.302 285.439 322.326 285.498C322.349 285.557 322.385 285.611 322.429 285.656C322.474 285.701 322.527 285.737 322.586 285.762C322.644 285.786 322.707 285.799 322.771 285.799C322.835 285.799 322.898 285.786 322.956 285.762C323.015 285.737 323.068 285.701 323.113 285.656C323.158 285.611 323.193 285.557 323.216 285.498C323.24 285.439 323.252 285.376 323.251 285.313V284.833C323.252 284.765 323.239 284.697 323.212 284.634C323.186 284.571 323.146 284.515 323.095 284.469C323.045 284.423 322.985 284.388 322.92 284.367C322.855 284.345 322.786 284.338 322.719 284.346ZM322.719 286.744C322.599 286.757 322.489 286.814 322.41 286.905C322.331 286.995 322.288 287.111 322.291 287.231V301.479C321.611 300.845 320.674 299.945 318.804 297.934C318.755 297.88 318.694 297.837 318.627 297.81C318.559 297.783 318.486 297.771 318.414 297.776C318.323 297.782 318.235 297.814 318.162 297.868C318.088 297.922 318.032 297.996 317.999 298.081C317.966 298.166 317.958 298.258 317.975 298.348C317.993 298.437 318.036 298.52 318.099 298.586C320.752 301.439 321.699 302.211 322.441 302.925C322.53 303.009 322.648 303.056 322.771 303.056C322.894 303.056 323.012 303.009 323.101 302.925C323.844 302.211 324.79 301.439 327.443 298.586C327.53 298.492 327.576 298.368 327.571 298.241C327.566 298.114 327.511 297.994 327.417 297.907C327.324 297.821 327.2 297.775 327.072 297.78C326.945 297.785 326.825 297.84 326.738 297.934C324.868 299.945 323.931 300.845 323.251 301.479V287.231C323.252 287.163 323.239 287.095 323.212 287.032C323.186 286.97 323.146 286.913 323.095 286.867C323.045 286.821 322.985 286.786 322.92 286.765C322.855 286.744 322.786 286.737 322.719 286.744Z"/>
</mask>
<path d="M322.719 281.947C322.599 281.961 322.489 282.018 322.41 282.108C322.331 282.198 322.288 282.315 322.291 282.435V282.914C322.29 282.978 322.302 283.041 322.326 283.1C322.349 283.159 322.385 283.213 322.429 283.258C322.474 283.303 322.527 283.339 322.586 283.364C322.644 283.388 322.707 283.401 322.771 283.401C322.835 283.401 322.898 283.388 322.956 283.364C323.015 283.339 323.068 283.303 323.113 283.258C323.158 283.213 323.193 283.159 323.216 283.1C323.24 283.041 323.252 282.978 323.251 282.914V282.435C323.252 282.37 323.24 282.307 323.216 282.247C323.192 282.187 323.156 282.133 323.11 282.088C323.065 282.042 323.011 282.007 322.951 281.982C322.892 281.958 322.828 281.946 322.764 281.947C322.749 281.947 322.734 281.947 322.719 281.947ZM311.184 281.955C311.085 281.969 310.994 282.014 310.921 282.082C310.179 282.796 309.232 283.568 306.579 286.422C306.536 286.468 306.503 286.522 306.481 286.581C306.459 286.641 306.449 286.703 306.452 286.766C306.454 286.829 306.469 286.891 306.495 286.948C306.522 287.006 306.559 287.057 306.605 287.1C306.652 287.143 306.706 287.176 306.765 287.198C306.824 287.22 306.887 287.23 306.95 287.227C307.013 287.225 307.075 287.21 307.132 287.184C307.19 287.157 307.241 287.12 307.284 287.074C309.154 285.063 310.091 284.17 310.771 283.536V302.58C310.77 302.644 310.782 302.707 310.806 302.766C310.83 302.825 310.865 302.879 310.91 302.924C310.954 302.969 311.007 303.005 311.066 303.03C311.125 303.054 311.188 303.067 311.251 303.067C311.315 303.067 311.378 303.054 311.437 303.03C311.495 303.005 311.549 302.969 311.593 302.924C311.638 302.879 311.673 302.825 311.697 302.766C311.721 302.707 311.732 302.644 311.731 302.58V283.536C312.412 284.17 313.349 285.063 315.219 287.074C315.262 287.12 315.313 287.157 315.37 287.184C315.428 287.21 315.49 287.225 315.553 287.227C315.616 287.23 315.679 287.22 315.738 287.198C315.797 287.176 315.851 287.143 315.897 287.1C315.944 287.057 315.981 287.006 316.008 286.948C316.034 286.891 316.049 286.829 316.051 286.766C316.054 286.703 316.044 286.641 316.022 286.581C316 286.522 315.967 286.468 315.924 286.422C313.27 283.568 312.324 282.796 311.581 282.082C311.529 282.033 311.466 281.995 311.397 281.973C311.328 281.951 311.255 281.945 311.184 281.955ZM322.719 284.346C322.599 284.359 322.489 284.416 322.41 284.506C322.331 284.596 322.288 284.713 322.291 284.833V285.313C322.29 285.376 322.302 285.439 322.326 285.498C322.349 285.557 322.385 285.611 322.429 285.656C322.474 285.701 322.527 285.737 322.586 285.762C322.644 285.786 322.707 285.799 322.771 285.799C322.835 285.799 322.898 285.786 322.956 285.762C323.015 285.737 323.068 285.701 323.113 285.656C323.158 285.611 323.193 285.557 323.216 285.498C323.24 285.439 323.252 285.376 323.251 285.313V284.833C323.252 284.765 323.239 284.697 323.212 284.634C323.186 284.571 323.146 284.515 323.095 284.469C323.045 284.423 322.985 284.388 322.92 284.367C322.855 284.345 322.786 284.338 322.719 284.346ZM322.719 286.744C322.599 286.757 322.489 286.814 322.41 286.905C322.331 286.995 322.288 287.111 322.291 287.231V301.479C321.611 300.845 320.674 299.945 318.804 297.934C318.755 297.88 318.694 297.837 318.627 297.81C318.559 297.783 318.486 297.771 318.414 297.776C318.323 297.782 318.235 297.814 318.162 297.868C318.088 297.922 318.032 297.996 317.999 298.081C317.966 298.166 317.958 298.258 317.975 298.348C317.993 298.437 318.036 298.52 318.099 298.586C320.752 301.439 321.699 302.211 322.441 302.925C322.53 303.009 322.648 303.056 322.771 303.056C322.894 303.056 323.012 303.009 323.101 302.925C323.844 302.211 324.79 301.439 327.443 298.586C327.53 298.492 327.576 298.368 327.571 298.241C327.566 298.114 327.511 297.994 327.417 297.907C327.324 297.821 327.2 297.775 327.072 297.78C326.945 297.785 326.825 297.84 326.738 297.934C324.868 299.945 323.931 300.845 323.251 301.479V287.231C323.252 287.163 323.239 287.095 323.212 287.032C323.186 286.97 323.146 286.913 323.095 286.867C323.045 286.821 322.985 286.786 322.92 286.765C322.855 286.744 322.786 286.737 322.719 286.744Z" fill="#003366" stroke="#003366" stroke-width="2" mask="url(#path-22-inside-1_4177_47332)"/>
<g filter="url(#filter0_d_4177_47332)">
<g clip-path="url(#clip3_4177_47332)">
<rect width="336" height="88.0001" transform="translate(12.0117 340.5)" fill="white"/>
<path d="M79.3457 370.5V398.5L56.0117 412.5L32.6787 398.5V370.5L56.0117 356.5L79.3457 370.5ZM35.0215 371.905V397.095L56.0117 409.688L77.0029 397.095V371.905L56.0117 359.312L35.0215 371.905Z" fill="#0066CC"/>
<text fill="#0066CC" style="white-space: pre" xml:space="preserve" font-family="Titillium Web" font-size="20" font-weight="600" letter-spacing="0px" text-decoration="underline"><tspan x="100.012" y="391.95">IT-Wallet app name</tspan></text>
<g clip-path="url(#clip4_4177_47332)">
<path d="M321.912 377.5L321.212 378.2L326.512 383.6H311.012V384.6H326.512L321.212 390L321.912 390.7L328.512 384.1L321.912 377.5Z" fill="#0066CC"/>
</g>
</g>
<rect x="12.5117" y="341" width="335" height="87.0001" rx="3.5" stroke="#C5C7C9"/>
</g>
<g filter="url(#filter1_d_4177_47332)">
<g clip-path="url(#clip5_4177_47332)">
<rect width="336" height="88.0001" transform="translate(12.0117 440.5)" fill="white"/>
<path d="M79.3457 470.5V498.5L56.0117 512.5L32.6787 498.5V470.5L56.0117 456.5L79.3457 470.5ZM35.0215 471.905V497.095L56.0117 509.689L77.0029 497.095V471.905L56.0117 459.312L35.0215 471.905Z" fill="#0066CC"/>
<text fill="#0066CC" style="white-space: pre" xml:space="preserve" font-family="Titillium Web" font-size="20" font-weight="600" letter-spacing="0px" text-decoration="underline"><tspan x="100.012" y="479.95">IT-Wallet app name </tspan><tspan x="100.012" y="503.95">lorem ipsum dolor sit</tspan></text>
<g clip-path="url(#clip6_4177_47332)">
<path d="M321.912 477.5L321.212 478.2L326.512 483.6H311.012V484.6H326.512L321.212 490L321.912 490.7L328.512 484.1L321.912 477.5Z" fill="#0066CC"/>
</g>
</g>
<rect x="12.5117" y="441" width="335" height="87.0001" rx="3.5" stroke="#C5C7C9"/>
</g>
<g filter="url(#filter2_d_4177_47332)">
<g clip-path="url(#clip7_4177_47332)">
<rect width="336" height="88.0001" transform="translate(12.0117 540.5)" fill="white"/>
<path d="M79.3457 570.5V598.5L56.0117 612.5L32.6787 598.5V570.5L56.0117 556.5L79.3457 570.5ZM35.0215 571.905V597.095L56.0117 609.689L77.0029 597.095V571.905L56.0117 559.312L35.0215 571.905Z" fill="#0066CC"/>
<text fill="#0066CC" style="white-space: pre" xml:space="preserve" font-family="Titillium Web" font-size="20" font-weight="600" letter-spacing="0px" text-decoration="underline"><tspan x="100.012" y="591.95">IT-Wallet app name</tspan></text>
<g clip-path="url(#clip8_4177_47332)">
<path d="M321.912 577.5L321.212 578.2L326.512 583.6H311.012V584.6H326.512L321.212 590L321.912 590.7L328.512 584.1L321.912 577.5Z" fill="#0066CC"/>
</g>
</g>
<rect x="12.5117" y="541" width="335" height="87.0001" rx="3.5" stroke="#C5C7C9"/>
</g>
<g filter="url(#filter3_d_4177_47332)">
<g clip-path="url(#clip9_4177_47332)">
<rect width="336" height="88.0001" transform="translate(12.0117 640.5)" fill="white"/>
<path d="M79.3457 670.5V698.5L56.0117 712.5L32.6787 698.5V670.5L56.0117 656.5L79.3457 670.5ZM35.0215 671.905V697.095L56.0117 709.689L77.0029 697.095V671.905L56.0117 659.312L35.0215 671.905Z" fill="#0066CC"/>
<text fill="#0066CC" style="white-space: pre" xml:space="preserve" font-family="Titillium Web" font-size="20" font-weight="600" letter-spacing="0px" text-decoration="underline"><tspan x="100.012" y="691.95">IT-Wallet app name</tspan></text>
<g clip-path="url(#clip10_4177_47332)">
<path d="M321.912 677.5L321.212 678.2L326.512 683.6H311.012V684.6H326.512L321.212 690L321.912 690.7L328.512 684.1L321.912 677.5Z" fill="#0066CC"/>
</g>
</g>
<rect x="12.5117" y="641" width="335" height="87" rx="3.5" stroke="#C5C7C9"/>
</g>
<g filter="url(#filter4_d_4177_47332)">
<g clip-path="url(#clip11_4177_47332)">
<rect width="336" height="88.0001" transform="translate(12.0117 740.5)" fill="white"/>
<path d="M79.3457 770.5V798.5L56.0117 812.5L32.6787 798.5V770.5L56.0117 756.5L79.3457 770.5ZM35.0215 771.906V797.095L56.0117 809.689L77.0029 797.095V771.906L56.0117 759.312L35.0215 771.906Z" fill="#0066CC"/>
<text fill="#0066CC" style="white-space: pre" xml:space="preserve" font-family="Titillium Web" font-size="20" font-weight="600" letter-spacing="0px" text-decoration="underline"><tspan x="100.012" y="791.95">IT-Wallet app name</tspan></text>
<g clip-path="url(#clip12_4177_47332)">
<path d="M321.912 777.5L321.212 778.2L326.512 783.6H311.012V784.6H326.512L321.212 790L321.912 790.7L328.512 784.1L321.912 777.5Z" fill="#0066CC"/>
</g>
</g>
<rect x="12.5117" y="741" width="335" height="87.0001" rx="3.5" stroke="#C5C7C9"/>
</g>
<g filter="url(#filter5_d_4177_47332)">
<g clip-path="url(#clip13_4177_47332)">
<rect width="336" height="88" transform="translate(12.0117 840.5)" fill="white"/>
<path d="M79.3457 870.5V898.5L56.0117 912.5L32.6787 898.5V870.5L56.0117 856.5L79.3457 870.5ZM35.0215 871.906V897.095L56.0117 909.689L77.0029 897.095V871.906L56.0117 859.312L35.0215 871.906Z" fill="#0066CC"/>
<text fill="#0066CC" style="white-space: pre" xml:space="preserve" font-family="Titillium Web" font-size="20" font-weight="600" letter-spacing="0px" text-decoration="underline"><tspan x="100.012" y="891.95">IT-Wallet app name</tspan></text>
<g clip-path="url(#clip14_4177_47332)">
<path d="M321.912 877.5L321.212 878.2L326.512 883.6H311.012V884.6H326.512L321.212 890L321.912 890.7L328.512 884.1L321.912 877.5Z" fill="#0066CC"/>
</g>
</g>
<rect x="12.5117" y="841" width="335" height="87" rx="3.5" stroke="#C5C7C9"/>
</g>
<g filter="url(#filter6_d_4177_47332)">
<g clip-path="url(#clip15_4177_47332)">
<rect width="336" height="88.0001" transform="translate(12.0117 940.5)" fill="white"/>
<path d="M79.3457 970.5V998.5L56.0117 1012.5L32.6787 998.5V970.5L56.0117 956.5L79.3457 970.5ZM35.0215 971.906V997.095L56.0117 1009.69L77.0029 997.095V971.906L56.0117 959.312L35.0215 971.906Z" fill="#0066CC"/>
<text fill="#0066CC" style="white-space: pre" xml:space="preserve" font-family="Titillium Web" font-size="20" font-weight="600" letter-spacing="0px" text-decoration="underline"><tspan x="100.012" y="991.95">IT-Wallet app name</tspan></text>
<g clip-path="url(#clip16_4177_47332)">
<path d="M321.912 977.5L321.212 978.2L326.512 983.6H311.012V984.6H326.512L321.212 990L321.912 990.7L328.512 984.1L321.912 977.5Z" fill="#0066CC"/>
</g>
</g>
<rect x="12.5117" y="941" width="335" height="87.0001" rx="3.5" stroke="#C5C7C9"/>
</g>
<g filter="url(#filter7_d_4177_47332)">
<g clip-path="url(#clip17_4177_47332)">
<rect width="336" height="88.0001" transform="translate(12.0117 1040.5)" fill="white"/>
<path d="M79.3457 1070.5V1098.5L56.0117 1112.5L32.6787 1098.5V1070.5L56.0117 1056.5L79.3457 1070.5ZM35.0215 1071.91V1097.1L56.0117 1109.69L77.0029 1097.1V1071.91L56.0117 1059.31L35.0215 1071.91Z" fill="#0066CC"/>
<text fill="#0066CC" style="white-space: pre" xml:space="preserve" font-family="Titillium Web" font-size="20" font-weight="600" letter-spacing="0px" text-decoration="underline"><tspan x="100.012" y="1091.95">IT-Wallet app name</tspan></text>
<g clip-path="url(#clip18_4177_47332)">
<path d="M321.912 1077.5L321.212 1078.2L326.512 1083.6H311.012V1084.6H326.512L321.212 1090L321.912 1090.7L328.512 1084.1L321.912 1077.5Z" fill="#0066CC"/>
</g>
</g>
<rect x="12.5117" y="1041" width="335" height="87.0001" rx="3.5" stroke="#C5C7C9"/>
</g>
<g filter="url(#filter8_d_4177_47332)">
<g clip-path="url(#clip19_4177_47332)">
<rect width="336" height="88.0001" transform="translate(12.0117 1140.5)" fill="white"/>
<path d="M79.3457 1170.5V1198.5L56.0117 1212.5L32.6787 1198.5V1170.5L56.0117 1156.5L79.3457 1170.5ZM35.0215 1171.91V1197.1L56.0117 1209.69L77.0029 1197.1V1171.91L56.0117 1159.31L35.0215 1171.91Z" fill="#0066CC"/>
<text fill="#0066CC" style="white-space: pre" xml:space="preserve" font-family="Titillium Web" font-size="20" font-weight="600" letter-spacing="0px" text-decoration="underline"><tspan x="100.012" y="1191.95">IT-Wallet app name</tspan></text>
<g clip-path="url(#clip20_4177_47332)">
<path d="M321.912 1177.5L321.212 1178.2L326.512 1183.6H311.012V1184.6H326.512L321.212 1190L321.912 1190.7L328.512 1184.1L321.912 1177.5Z" fill="#0066CC"/>
</g>
</g>
<rect x="12.5117" y="1141" width="335" height="87.0001" rx="3.5" stroke="#C5C7C9"/>
</g>
<g filter="url(#filter9_d_4177_47332)">
<g clip-path="url(#clip21_4177_47332)">
<rect width="336" height="88.0001" transform="translate(12.0117 1240.5)" fill="white"/>
<path d="M79.3457 1270.5V1298.5L56.0117 1312.5L32.6787 1298.5V1270.5L56.0117 1256.5L79.3457 1270.5ZM35.0215 1271.91V1297.1L56.0117 1309.69L77.0029 1297.1V1271.91L56.0117 1259.31L35.0215 1271.91Z" fill="#0066CC"/>
<text fill="#0066CC" style="white-space: pre" xml:space="preserve" font-family="Titillium Web" font-size="20" font-weight="600" letter-spacing="0px" text-decoration="underline"><tspan x="100.012" y="1291.95">IT-Wallet app name</tspan></text>
<g clip-path="url(#clip22_4177_47332)">
<path d="M321.912 1277.5L321.212 1278.2L326.512 1283.6H311.012V1284.6H326.512L321.212 1290L321.912 1290.7L328.512 1284.1L321.912 1277.5Z" fill="#0066CC"/>
</g>
</g>
<rect x="12.5117" y="1241" width="335" height="87.0001" rx="3.5" stroke="#C5C7C9"/>
</g>
<g filter="url(#filter10_d_4177_47332)">
<g clip-path="url(#clip23_4177_47332)">
<rect width="336" height="88" transform="translate(12.0117 1340.5)" fill="white"/>
<path d="M79.3457 1370.5V1398.5L56.0117 1412.5L32.6787 1398.5V1370.5L56.0117 1356.5L79.3457 1370.5ZM35.0215 1371.91V1397.1L56.0117 1409.69L77.0029 1397.1V1371.91L56.0117 1359.31L35.0215 1371.91Z" fill="#0066CC"/>
<text fill="#0066CC" style="white-space: pre" xml:space="preserve" font-family="Titillium Web" font-size="20" font-weight="600" letter-spacing="0px" text-decoration="underline"><tspan x="100.012" y="1391.95">IT-Wallet app name</tspan></text>
<g clip-path="url(#clip24_4177_47332)">
<path d="M321.912 1377.5L321.212 1378.2L326.512 1383.6H311.012V1384.6H326.512L321.212 1390L321.912 1390.7L328.512 1384.1L321.912 1377.5Z" fill="#0066CC"/>
</g>
</g>
<rect x="12.5117" y="1341" width="335" height="87" rx="3.5" stroke="#C5C7C9"/>
</g>
<g filter="url(#filter11_d_4177_47332)">
<g clip-path="url(#clip25_4177_47332)">
<rect width="336" height="88.0001" transform="translate(12.0117 1440.5)" fill="white"/>
<path d="M79.3457 1470.5V1498.5L56.0117 1512.5L32.6787 1498.5V1470.5L56.0117 1456.5L79.3457 1470.5ZM35.0215 1471.91V1497.1L56.0117 1509.69L77.0029 1497.1V1471.91L56.0117 1459.31L35.0215 1471.91Z" fill="#0066CC"/>
<text fill="#0066CC" style="white-space: pre" xml:space="preserve" font-family="Titillium Web" font-size="20" font-weight="600" letter-spacing="0px" text-decoration="underline"><tspan x="100.012" y="1491.95">IT-Wallet app name</tspan></text>
<g clip-path="url(#clip26_4177_47332)">
<path d="M321.912 1477.5L321.212 1478.2L326.512 1483.6H311.012V1484.6H326.512L321.212 1490L321.912 1490.7L328.512 1484.1L321.912 1477.5Z" fill="#0066CC"/>
</g>
</g>
<rect x="12.5117" y="1441" width="335" height="87.0001" rx="3.5" stroke="#C5C7C9"/>
</g>
<g filter="url(#filter12_d_4177_47332)">
<g clip-path="url(#clip27_4177_47332)">
<rect width="336" height="88.0001" transform="translate(12.0117 1540.5)" fill="white"/>
<path d="M79.3457 1570.5V1598.5L56.0117 1612.5L32.6787 1598.5V1570.5L56.0117 1556.5L79.3457 1570.5ZM35.0215 1571.91V1597.1L56.0117 1609.69L77.0029 1597.1V1571.91L56.0117 1559.31L35.0215 1571.91Z" fill="#0066CC"/>
<text fill="#0066CC" style="white-space: pre" xml:space="preserve" font-family="Titillium Web" font-size="20" font-weight="600" letter-spacing="0px" text-decoration="underline"><tspan x="100.012" y="1591.95">IT-Wallet app name</tspan></text>
<g clip-path="url(#clip28_4177_47332)">
<path d="M321.912 1577.5L321.212 1578.2L326.512 1583.6H311.012V1584.6H326.512L321.212 1590L321.912 1590.7L328.512 1584.1L321.912 1577.5Z" fill="#0066CC"/>
</g>
</g>
<rect x="12.5117" y="1541" width="335" height="87.0001" rx="3.5" stroke="#C5C7C9"/>
</g>
<g filter="url(#filter13_d_4177_47332)">
<g clip-path="url(#clip29_4177_47332)">
<rect width="336" height="88.0001" transform="translate(12.0117 1640.5)" fill="white"/>
<path d="M79.3457 1670.5V1698.5L56.0117 1712.5L32.6787 1698.5V1670.5L56.0117 1656.5L79.3457 1670.5ZM35.0215 1671.91V1697.1L56.0117 1709.69L77.0029 1697.1V1671.91L56.0117 1659.31L35.0215 1671.91Z" fill="#0066CC"/>
<text fill="#0066CC" style="white-space: pre" xml:space="preserve" font-family="Titillium Web" font-size="20" font-weight="600" letter-spacing="0px" text-decoration="underline"><tspan x="100.012" y="1691.95">IT-Wallet app name</tspan></text>
<g clip-path="url(#clip30_4177_47332)">
<path d="M321.912 1677.5L321.212 1678.2L326.512 1683.6H311.012V1684.6H326.512L321.212 1690L321.912 1690.7L328.512 1684.1L321.912 1677.5Z" fill="#0066CC"/>
</g>
</g>
<rect x="12.5117" y="1641" width="335" height="87.0001" rx="3.5" stroke="#C5C7C9"/>
</g>
<g filter="url(#filter14_d_4177_47332)">
<g clip-path="url(#clip31_4177_47332)">
<rect width="336" height="88.0001" transform="translate(12.0117 1740.5)" fill="white"/>
<path d="M79.3457 1770.5V1798.5L56.0117 1812.5L32.6787 1798.5V1770.5L56.0117 1756.5L79.3457 1770.5ZM35.0215 1771.91V1797.1L56.0117 1809.69L77.0029 1797.1V1771.91L56.0117 1759.31L35.0215 1771.91Z" fill="#0066CC"/>
<text fill="#0066CC" style="white-space: pre" xml:space="preserve" font-family="Titillium Web" font-size="20" font-weight="600" letter-spacing="0px" text-decoration="underline"><tspan x="100.012" y="1791.95">IT-Wallet app name</tspan></text>
<g clip-path="url(#clip32_4177_47332)">
<path d="M321.912 1777.5L321.212 1778.2L326.512 1783.6H311.012V1784.6H326.512L321.212 1790L321.912 1790.7L328.512 1784.1L321.912 1777.5Z" fill="#0066CC"/>
</g>
</g>
<rect x="12.5117" y="1741" width="335" height="87.0001" rx="3.5" stroke="#C5C7C9"/>
</g>
<g filter="url(#filter15_d_4177_47332)">
<g clip-path="url(#clip33_4177_47332)">
<rect width="336" height="88.0001" transform="translate(12.0117 1840.5)" fill="white"/>
<path d="M79.3457 1870.5V1898.5L56.0117 1912.5L32.6787 1898.5V1870.5L56.0117 1856.5L79.3457 1870.5ZM35.0215 1871.91V1897.1L56.0117 1909.69L77.0029 1897.1V1871.91L56.0117 1859.31L35.0215 1871.91Z" fill="#0066CC"/>
<text fill="#0066CC" style="white-space: pre" xml:space="preserve" font-family="Titillium Web" font-size="20" font-weight="600" letter-spacing="0px" text-decoration="underline"><tspan x="100.012" y="1891.95">IT-Wallet app name</tspan></text>
<g clip-path="url(#clip34_4177_47332)">
<path d="M321.912 1877.5L321.212 1878.2L326.512 1883.6H311.012V1884.6H326.512L321.212 1890L321.912 1890.7L328.512 1884.1L321.912 1877.5Z" fill="#0066CC"/>
</g>
</g>
<rect x="12.5117" y="1841" width="335" height="87.0001" rx="3.5" stroke="#C5C7C9"/>
</g>
<g filter="url(#filter16_d_4177_47332)">
<g clip-path="url(#clip35_4177_47332)">
<rect width="336" height="88.0001" transform="translate(12.0117 1940.5)" fill="white"/>
<path d="M79.3457 1970.5V1998.5L56.0117 2012.5L32.6787 1998.5V1970.5L56.0117 1956.5L79.3457 1970.5ZM35.0215 1971.91V1997.1L56.0117 2009.69L77.0029 1997.1V1971.91L56.0117 1959.31L35.0215 1971.91Z" fill="#0066CC"/>
<text fill="#0066CC" style="white-space: pre" xml:space="preserve" font-family="Titillium Web" font-size="20" font-weight="600" letter-spacing="0px" text-decoration="underline"><tspan x="100.012" y="1991.95">IT-Wallet app name</tspan></text>
<g clip-path="url(#clip36_4177_47332)">
<path d="M321.912 1977.5L321.212 1978.2L326.512 1983.6H311.012V1984.6H326.512L321.212 1990L321.912 1990.7L328.512 1984.1L321.912 1977.5Z" fill="#0066CC"/>
</g>
</g>
<rect x="12.5117" y="1941" width="335" height="87.0001" rx="3.5" stroke="#C5C7C9"/>
</g>
<g filter="url(#filter17_d_4177_47332)">
<g clip-path="url(#clip37_4177_47332)">
<rect width="336" height="88.0001" transform="translate(12.0117 2040.5)" fill="white"/>
<path d="M79.3457 2070.5V2098.5L56.0117 2112.5L32.6787 2098.5V2070.5L56.0117 2056.5L79.3457 2070.5ZM35.0215 2071.91V2097.1L56.0117 2109.69L77.0029 2097.1V2071.91L56.0117 2059.31L35.0215 2071.91Z" fill="#0066CC"/>
<text fill="#0066CC" style="white-space: pre" xml:space="preserve" font-family="Titillium Web" font-size="20" font-weight="600" letter-spacing="0px" text-decoration="underline"><tspan x="100.012" y="2091.95">IT-Wallet app name</tspan></text>
<g clip-path="url(#clip38_4177_47332)">
<path d="M321.912 2077.5L321.212 2078.2L326.512 2083.6H311.012V2084.6H326.512L321.212 2090L321.912 2090.7L328.512 2084.1L321.912 2077.5Z" fill="#0066CC"/>
</g>
</g>
<rect x="12.5117" y="2041" width="335" height="87.0001" rx="3.5" stroke="#C5C7C9"/>
</g>
<g filter="url(#filter18_d_4177_47332)">
<g clip-path="url(#clip39_4177_47332)">
<rect width="336" height="88.0001" transform="translate(12.0117 2140.5)" fill="white"/>
<path d="M79.3457 2170.5V2198.5L56.0117 2212.5L32.6787 2198.5V2170.5L56.0117 2156.5L79.3457 2170.5ZM35.0215 2171.91V2197.1L56.0117 2209.69L77.0029 2197.1V2171.91L56.0117 2159.31L35.0215 2171.91Z" fill="#0066CC"/>
<text fill="#0066CC" style="white-space: pre" xml:space="preserve" font-family="Titillium Web" font-size="20" font-weight="600" letter-spacing="0px" text-decoration="underline"><tspan x="100.012" y="2191.95">IT-Wallet app name</tspan></text>
<g clip-path="url(#clip40_4177_47332)">
<path d="M321.912 2177.5L321.212 2178.2L326.512 2183.6H311.012V2184.6H326.512L321.212 2190L321.912 2190.7L328.512 2184.1L321.912 2177.5Z" fill="#0066CC"/>
</g>
</g>
<rect x="12.5117" y="2141" width="335" height="87.0001" rx="3.5" stroke="#C5C7C9"/>
</g>
<rect width="360" height="160" transform="translate(0.0117188 2276.5)" fill="#003366"/>
<text fill="white" style="white-space: pre" xml:space="preserve" font-family="Titillium Web" font-size="14" font-weight="600" letter-spacing="0em" text-decoration="underline"><tspan x="12.0117" y="2321.72">Legal notes</tspan></text>
<text fill="white" style="white-space: pre" xml:space="preserve" font-family="Titillium Web" font-size="14" font-weight="600" letter-spacing="0em" text-decoration="underline"><tspan x="12.0117" y="2361.72">Privacy Policy</tspan></text>
<text fill="white" style="white-space: pre" xml:space="preserve" font-family="Titillium Web" font-size="14" font-weight="600" letter-spacing="0em" text-decoration="underline"><tspan x="12.0117" y="2401.72">Accessibility statement</tspan></text>
</g>
<rect x="152.512" y="329" width="195" height="39" rx="3.5" fill="white"/>
<rect x="152.512" y="329" width="195" height="39" rx="3.5" stroke="#5C6F82"/>
<text fill="#1A1A1A" style="white-space: pre" xml:space="preserve" font-family="Titillium Web" font-size="16" font-weight="bold" letter-spacing="0em"><tspan x="160.012" y="354.46">Value</tspan></text>
<path d="M328.012 351.7L322.412 346.1L323.112 345.3L328.012 350.2L332.912 345.3L333.612 346.1L328.012 351.7Z" fill="#1A1A1A"/>
<g filter="url(#filter19_d_4177_47332)">
<g clip-path="url(#clip41_4177_47332)">
<path d="M152.012 332.5C152.012 330.291 153.803 328.5 156.012 328.5H344.012C346.221 328.5 348.012 330.291 348.012 332.5V524.5C348.012 526.709 346.221 528.5 344.012 528.5H156.012C153.803 528.5 152.012 526.709 152.012 524.5V332.5Z" fill="white"/>
<text fill="#2F475E" style="white-space: pre" xml:space="preserve" font-family="Titillium Web" font-size="16" font-weight="bold" letter-spacing="0em"><tspan x="184.457" y="378.46">Default order</tspan></text>
<text fill="#2F475E" style="white-space: pre" xml:space="preserve" font-family="Titillium Web" font-size="16" letter-spacing="0em"><tspan x="184.23" y="434.46">Alphabetical A-Z</tspan></text>
<text fill="#2F475E" style="white-space: pre" xml:space="preserve" font-family="Titillium Web" font-size="16" letter-spacing="0em"><tspan x="184.262" y="490.46">Alphabetical Z-A</tspan></text>
</g>
</g>
<defs>
<filter id="filter0_d_4177_47332" x="-3.98828" y="332.5" width="368" height="120" filterUnits="userSpaceOnUse" color-interpolation-filters="sRGB">
<feFlood flood-opacity="0" result="BackgroundImageFix"/>
<feColorMatrix in="SourceAlpha" type="matrix" values="0 0 0 0 0 0 0 0 0 0 0 0 0 0 0 0 0 0 127 0" result="hardAlpha"/>
<feOffset dy="8"/>
<feGaussianBlur stdDeviation="8"/>
<feColorMatrix type="matrix" values="0 0 0 0 0 0 0 0 0 0 0 0 0 0 0 0 0 0 0.15 0"/>
<feBlend mode="normal" in2="BackgroundImageFix" result="effect1_dropShadow_4177_47332"/>
<feBlend mode="normal" in="SourceGraphic" in2="effect1_dropShadow_4177_47332" result="shape"/>
</filter>
<filter id="filter1_d_4177_47332" x="-3.98828" y="432.5" width="368" height="120" filterUnits="userSpaceOnUse" color-interpolation-filters="sRGB">
<feFlood flood-opacity="0" result="BackgroundImageFix"/>
<feColorMatrix in="SourceAlpha" type="matrix" values="0 0 0 0 0 0 0 0 0 0 0 0 0 0 0 0 0 0 127 0" result="hardAlpha"/>
<feOffset dy="8"/>
<feGaussianBlur stdDeviation="8"/>
<feColorMatrix type="matrix" values="0 0 0 0 0 0 0 0 0 0 0 0 0 0 0 0 0 0 0.15 0"/>
<feBlend mode="normal" in2="BackgroundImageFix" result="effect1_dropShadow_4177_47332"/>
<feBlend mode="normal" in="SourceGraphic" in2="effect1_dropShadow_4177_47332" result="shape"/>
</filter>
<filter id="filter2_d_4177_47332" x="-3.98828" y="532.5" width="368" height="120" filterUnits="userSpaceOnUse" color-interpolation-filters="sRGB">
<feFlood flood-opacity="0" result="BackgroundImageFix"/>
<feColorMatrix in="SourceAlpha" type="matrix" values="0 0 0 0 0 0 0 0 0 0 0 0 0 0 0 0 0 0 127 0" result="hardAlpha"/>
<feOffset dy="8"/>
<feGaussianBlur stdDeviation="8"/>
<feColorMatrix type="matrix" values="0 0 0 0 0 0 0 0 0 0 0 0 0 0 0 0 0 0 0.15 0"/>
<feBlend mode="normal" in2="BackgroundImageFix" result="effect1_dropShadow_4177_47332"/>
<feBlend mode="normal" in="SourceGraphic" in2="effect1_dropShadow_4177_47332" result="shape"/>
</filter>
<filter id="filter3_d_4177_47332" x="-3.98828" y="632.5" width="368" height="120" filterUnits="userSpaceOnUse" color-interpolation-filters="sRGB">
<feFlood flood-opacity="0" result="BackgroundImageFix"/>
<feColorMatrix in="SourceAlpha" type="matrix" values="0 0 0 0 0 0 0 0 0 0 0 0 0 0 0 0 0 0 127 0" result="hardAlpha"/>
<feOffset dy="8"/>
<feGaussianBlur stdDeviation="8"/>
<feColorMatrix type="matrix" values="0 0 0 0 0 0 0 0 0 0 0 0 0 0 0 0 0 0 0.15 0"/>
<feBlend mode="normal" in2="BackgroundImageFix" result="effect1_dropShadow_4177_47332"/>
<feBlend mode="normal" in="SourceGraphic" in2="effect1_dropShadow_4177_47332" result="shape"/>
</filter>
<filter id="filter4_d_4177_47332" x="-3.98828" y="732.5" width="368" height="120" filterUnits="userSpaceOnUse" color-interpolation-filters="sRGB">
<feFlood flood-opacity="0" result="BackgroundImageFix"/>
<feColorMatrix in="SourceAlpha" type="matrix" values="0 0 0 0 0 0 0 0 0 0 0 0 0 0 0 0 0 0 127 0" result="hardAlpha"/>
<feOffset dy="8"/>
<feGaussianBlur stdDeviation="8"/>
<feColorMatrix type="matrix" values="0 0 0 0 0 0 0 0 0 0 0 0 0 0 0 0 0 0 0.15 0"/>
<feBlend mode="normal" in2="BackgroundImageFix" result="effect1_dropShadow_4177_47332"/>
<feBlend mode="normal" in="SourceGraphic" in2="effect1_dropShadow_4177_47332" result="shape"/>
</filter>
<filter id="filter5_d_4177_47332" x="-3.98828" y="832.5" width="368" height="120" filterUnits="userSpaceOnUse" color-interpolation-filters="sRGB">
<feFlood flood-opacity="0" result="BackgroundImageFix"/>
<feColorMatrix in="SourceAlpha" type="matrix" values="0 0 0 0 0 0 0 0 0 0 0 0 0 0 0 0 0 0 127 0" result="hardAlpha"/>
<feOffset dy="8"/>
<feGaussianBlur stdDeviation="8"/>
<feColorMatrix type="matrix" values="0 0 0 0 0 0 0 0 0 0 0 0 0 0 0 0 0 0 0.15 0"/>
<feBlend mode="normal" in2="BackgroundImageFix" result="effect1_dropShadow_4177_47332"/>
<feBlend mode="normal" in="SourceGraphic" in2="effect1_dropShadow_4177_47332" result="shape"/>
</filter>
<filter id="filter6_d_4177_47332" x="-3.98828" y="932.5" width="368" height="120" filterUnits="userSpaceOnUse" color-interpolation-filters="sRGB">
<feFlood flood-opacity="0" result="BackgroundImageFix"/>
<feColorMatrix in="SourceAlpha" type="matrix" values="0 0 0 0 0 0 0 0 0 0 0 0 0 0 0 0 0 0 127 0" result="hardAlpha"/>
<feOffset dy="8"/>
<feGaussianBlur stdDeviation="8"/>
<feColorMatrix type="matrix" values="0 0 0 0 0 0 0 0 0 0 0 0 0 0 0 0 0 0 0.15 0"/>
<feBlend mode="normal" in2="BackgroundImageFix" result="effect1_dropShadow_4177_47332"/>
<feBlend mode="normal" in="SourceGraphic" in2="effect1_dropShadow_4177_47332" result="shape"/>
</filter>
<filter id="filter7_d_4177_47332" x="-3.98828" y="1032.5" width="368" height="120" filterUnits="userSpaceOnUse" color-interpolation-filters="sRGB">
<feFlood flood-opacity="0" result="BackgroundImageFix"/>
<feColorMatrix in="SourceAlpha" type="matrix" values="0 0 0 0 0 0 0 0 0 0 0 0 0 0 0 0 0 0 127 0" result="hardAlpha"/>
<feOffset dy="8"/>
<feGaussianBlur stdDeviation="8"/>
<feColorMatrix type="matrix" values="0 0 0 0 0 0 0 0 0 0 0 0 0 0 0 0 0 0 0.15 0"/>
<feBlend mode="normal" in2="BackgroundImageFix" result="effect1_dropShadow_4177_47332"/>
<feBlend mode="normal" in="SourceGraphic" in2="effect1_dropShadow_4177_47332" result="shape"/>
</filter>
<filter id="filter8_d_4177_47332" x="-3.98828" y="1132.5" width="368" height="120" filterUnits="userSpaceOnUse" color-interpolation-filters="sRGB">
<feFlood flood-opacity="0" result="BackgroundImageFix"/>
<feColorMatrix in="SourceAlpha" type="matrix" values="0 0 0 0 0 0 0 0 0 0 0 0 0 0 0 0 0 0 127 0" result="hardAlpha"/>
<feOffset dy="8"/>
<feGaussianBlur stdDeviation="8"/>
<feColorMatrix type="matrix" values="0 0 0 0 0 0 0 0 0 0 0 0 0 0 0 0 0 0 0.15 0"/>
<feBlend mode="normal" in2="BackgroundImageFix" result="effect1_dropShadow_4177_47332"/>
<feBlend mode="normal" in="SourceGraphic" in2="effect1_dropShadow_4177_47332" result="shape"/>
</filter>
<filter id="filter9_d_4177_47332" x="-3.98828" y="1232.5" width="368" height="120" filterUnits="userSpaceOnUse" color-interpolation-filters="sRGB">
<feFlood flood-opacity="0" result="BackgroundImageFix"/>
<feColorMatrix in="SourceAlpha" type="matrix" values="0 0 0 0 0 0 0 0 0 0 0 0 0 0 0 0 0 0 127 0" result="hardAlpha"/>
<feOffset dy="8"/>
<feGaussianBlur stdDeviation="8"/>
<feColorMatrix type="matrix" values="0 0 0 0 0 0 0 0 0 0 0 0 0 0 0 0 0 0 0.15 0"/>
<feBlend mode="normal" in2="BackgroundImageFix" result="effect1_dropShadow_4177_47332"/>
<feBlend mode="normal" in="SourceGraphic" in2="effect1_dropShadow_4177_47332" result="shape"/>
</filter>
<filter id="filter10_d_4177_47332" x="-3.98828" y="1332.5" width="368" height="120" filterUnits="userSpaceOnUse" color-interpolation-filters="sRGB">
<feFlood flood-opacity="0" result="BackgroundImageFix"/>
<feColorMatrix in="SourceAlpha" type="matrix" values="0 0 0 0 0 0 0 0 0 0 0 0 0 0 0 0 0 0 127 0" result="hardAlpha"/>
<feOffset dy="8"/>
<feGaussianBlur stdDeviation="8"/>
<feColorMatrix type="matrix" values="0 0 0 0 0 0 0 0 0 0 0 0 0 0 0 0 0 0 0.15 0"/>
<feBlend mode="normal" in2="BackgroundImageFix" result="effect1_dropShadow_4177_47332"/>
<feBlend mode="normal" in="SourceGraphic" in2="effect1_dropShadow_4177_47332" result="shape"/>
</filter>
<filter id="filter11_d_4177_47332" x="-3.98828" y="1432.5" width="368" height="120" filterUnits="userSpaceOnUse" color-interpolation-filters="sRGB">
<feFlood flood-opacity="0" result="BackgroundImageFix"/>
<feColorMatrix in="SourceAlpha" type="matrix" values="0 0 0 0 0 0 0 0 0 0 0 0 0 0 0 0 0 0 127 0" result="hardAlpha"/>
<feOffset dy="8"/>
<feGaussianBlur stdDeviation="8"/>
<feColorMatrix type="matrix" values="0 0 0 0 0 0 0 0 0 0 0 0 0 0 0 0 0 0 0.15 0"/>
<feBlend mode="normal" in2="BackgroundImageFix" result="effect1_dropShadow_4177_47332"/>
<feBlend mode="normal" in="SourceGraphic" in2="effect1_dropShadow_4177_47332" result="shape"/>
</filter>
<filter id="filter12_d_4177_47332" x="-3.98828" y="1532.5" width="368" height="120" filterUnits="userSpaceOnUse" color-interpolation-filters="sRGB">
<feFlood flood-opacity="0" result="BackgroundImageFix"/>
<feColorMatrix in="SourceAlpha" type="matrix" values="0 0 0 0 0 0 0 0 0 0 0 0 0 0 0 0 0 0 127 0" result="hardAlpha"/>
<feOffset dy="8"/>
<feGaussianBlur stdDeviation="8"/>
<feColorMatrix type="matrix" values="0 0 0 0 0 0 0 0 0 0 0 0 0 0 0 0 0 0 0.15 0"/>
<feBlend mode="normal" in2="BackgroundImageFix" result="effect1_dropShadow_4177_47332"/>
<feBlend mode="normal" in="SourceGraphic" in2="effect1_dropShadow_4177_47332" result="shape"/>
</filter>
<filter id="filter13_d_4177_47332" x="-3.98828" y="1632.5" width="368" height="120" filterUnits="userSpaceOnUse" color-interpolation-filters="sRGB">
<feFlood flood-opacity="0" result="BackgroundImageFix"/>
<feColorMatrix in="SourceAlpha" type="matrix" values="0 0 0 0 0 0 0 0 0 0 0 0 0 0 0 0 0 0 127 0" result="hardAlpha"/>
<feOffset dy="8"/>
<feGaussianBlur stdDeviation="8"/>
<feColorMatrix type="matrix" values="0 0 0 0 0 0 0 0 0 0 0 0 0 0 0 0 0 0 0.15 0"/>
<feBlend mode="normal" in2="BackgroundImageFix" result="effect1_dropShadow_4177_47332"/>
<feBlend mode="normal" in="SourceGraphic" in2="effect1_dropShadow_4177_47332" result="shape"/>
</filter>
<filter id="filter14_d_4177_47332" x="-3.98828" y="1732.5" width="368" height="120" filterUnits="userSpaceOnUse" color-interpolation-filters="sRGB">
<feFlood flood-opacity="0" result="BackgroundImageFix"/>
<feColorMatrix in="SourceAlpha" type="matrix" values="0 0 0 0 0 0 0 0 0 0 0 0 0 0 0 0 0 0 127 0" result="hardAlpha"/>
<feOffset dy="8"/>
<feGaussianBlur stdDeviation="8"/>
<feColorMatrix type="matrix" values="0 0 0 0 0 0 0 0 0 0 0 0 0 0 0 0 0 0 0.15 0"/>
<feBlend mode="normal" in2="BackgroundImageFix" result="effect1_dropShadow_4177_47332"/>
<feBlend mode="normal" in="SourceGraphic" in2="effect1_dropShadow_4177_47332" result="shape"/>
</filter>
<filter id="filter15_d_4177_47332" x="-3.98828" y="1832.5" width="368" height="120" filterUnits="userSpaceOnUse" color-interpolation-filters="sRGB">
<feFlood flood-opacity="0" result="BackgroundImageFix"/>
<feColorMatrix in="SourceAlpha" type="matrix" values="0 0 0 0 0 0 0 0 0 0 0 0 0 0 0 0 0 0 127 0" result="hardAlpha"/>
<feOffset dy="8"/>
<feGaussianBlur stdDeviation="8"/>
<feColorMatrix type="matrix" values="0 0 0 0 0 0 0 0 0 0 0 0 0 0 0 0 0 0 0.15 0"/>
<feBlend mode="normal" in2="BackgroundImageFix" result="effect1_dropShadow_4177_47332"/>
<feBlend mode="normal" in="SourceGraphic" in2="effect1_dropShadow_4177_47332" result="shape"/>
</filter>
<filter id="filter16_d_4177_47332" x="-3.98828" y="1932.5" width="368" height="120" filterUnits="userSpaceOnUse" color-interpolation-filters="sRGB">
<feFlood flood-opacity="0" result="BackgroundImageFix"/>
<feColorMatrix in="SourceAlpha" type="matrix" values="0 0 0 0 0 0 0 0 0 0 0 0 0 0 0 0 0 0 127 0" result="hardAlpha"/>
<feOffset dy="8"/>
<feGaussianBlur stdDeviation="8"/>
<feColorMatrix type="matrix" values="0 0 0 0 0 0 0 0 0 0 0 0 0 0 0 0 0 0 0.15 0"/>
<feBlend mode="normal" in2="BackgroundImageFix" result="effect1_dropShadow_4177_47332"/>
<feBlend mode="normal" in="SourceGraphic" in2="effect1_dropShadow_4177_47332" result="shape"/>
</filter>
<filter id="filter17_d_4177_47332" x="-3.98828" y="2032.5" width="368" height="120" filterUnits="userSpaceOnUse" color-interpolation-filters="sRGB">
<feFlood flood-opacity="0" result="BackgroundImageFix"/>
<feColorMatrix in="SourceAlpha" type="matrix" values="0 0 0 0 0 0 0 0 0 0 0 0 0 0 0 0 0 0 127 0" result="hardAlpha"/>
<feOffset dy="8"/>
<feGaussianBlur stdDeviation="8"/>
<feColorMatrix type="matrix" values="0 0 0 0 0 0 0 0 0 0 0 0 0 0 0 0 0 0 0.15 0"/>
<feBlend mode="normal" in2="BackgroundImageFix" result="effect1_dropShadow_4177_47332"/>
<feBlend mode="normal" in="SourceGraphic" in2="effect1_dropShadow_4177_47332" result="shape"/>
</filter>
<filter id="filter18_d_4177_47332" x="-3.98828" y="2132.5" width="368" height="120" filterUnits="userSpaceOnUse" color-interpolation-filters="sRGB">
<feFlood flood-opacity="0" result="BackgroundImageFix"/>
<feColorMatrix in="SourceAlpha" type="matrix" values="0 0 0 0 0 0 0 0 0 0 0 0 0 0 0 0 0 0 127 0" result="hardAlpha"/>
<feOffset dy="8"/>
<feGaussianBlur stdDeviation="8"/>
<feColorMatrix type="matrix" values="0 0 0 0 0 0 0 0 0 0 0 0 0 0 0 0 0 0 0.15 0"/>
<feBlend mode="normal" in2="BackgroundImageFix" result="effect1_dropShadow_4177_47332"/>
<feBlend mode="normal" in="SourceGraphic" in2="effect1_dropShadow_4177_47332" result="shape"/>
</filter>
<filter id="filter19_d_4177_47332" x="136.012" y="312.5" width="228" height="232" filterUnits="userSpaceOnUse" color-interpolation-filters="sRGB">
<feFlood flood-opacity="0" result="BackgroundImageFix"/>
<feColorMatrix in="SourceAlpha" type="matrix" values="0 0 0 0 0 0 0 0 0 0 0 0 0 0 0 0 0 0 127 0" result="hardAlpha"/>
<feOffset/>
<feGaussianBlur stdDeviation="8"/>
<feColorMatrix type="matrix" values="0 0 0 0 0 0 0 0 0 0 0 0 0 0 0 0 0 0 0.15 0"/>
<feBlend mode="normal" in2="BackgroundImageFix" result="effect1_dropShadow_4177_47332"/>
<feBlend mode="normal" in="SourceGraphic" in2="effect1_dropShadow_4177_47332" result="shape"/>
</filter>
<clipPath id="clip0_4177_47332">
<rect width="360" height="2436" fill="white" transform="translate(0.0117188 0.5)"/>
</clipPath>
<clipPath id="clip1_4177_47332">
<rect width="47" height="24" fill="white" transform="translate(301.012 12.5)"/>
</clipPath>
<clipPath id="clip2_4177_47332">
<rect x="12.0117" y="268.5" width="178" height="48" rx="4" fill="white"/>
</clipPath>
<clipPath id="clip3_4177_47332">
<rect x="12.0117" y="340.5" width="336" height="88.0001" rx="4" fill="white"/>
</clipPath>
<clipPath id="clip4_4177_47332">
<rect width="24" height="24" fill="white" transform="translate(308.012 372.5)"/>
</clipPath>
<clipPath id="clip5_4177_47332">
<rect x="12.0117" y="440.5" width="336" height="88.0001" rx="4" fill="white"/>
</clipPath>
<clipPath id="clip6_4177_47332">
<rect width="24" height="24" fill="white" transform="translate(308.012 472.5)"/>
</clipPath>
<clipPath id="clip7_4177_47332">
<rect x="12.0117" y="540.5" width="336" height="88.0001" rx="4" fill="white"/>
</clipPath>
<clipPath id="clip8_4177_47332">
<rect width="24" height="24" fill="white" transform="translate(308.012 572.5)"/>
</clipPath>
<clipPath id="clip9_4177_47332">
<rect x="12.0117" y="640.5" width="336" height="88" rx="4" fill="white"/>
</clipPath>
<clipPath id="clip10_4177_47332">
<rect width="24" height="24" fill="white" transform="translate(308.012 672.5)"/>
</clipPath>
<clipPath id="clip11_4177_47332">
<rect x="12.0117" y="740.5" width="336" height="88.0001" rx="4" fill="white"/>
</clipPath>
<clipPath id="clip12_4177_47332">
<rect width="24" height="24" fill="white" transform="translate(308.012 772.5)"/>
</clipPath>
<clipPath id="clip13_4177_47332">
<rect x="12.0117" y="840.5" width="336" height="88" rx="4" fill="white"/>
</clipPath>
<clipPath id="clip14_4177_47332">
<rect width="24" height="24" fill="white" transform="translate(308.012 872.5)"/>
</clipPath>
<clipPath id="clip15_4177_47332">
<rect x="12.0117" y="940.5" width="336" height="88.0001" rx="4" fill="white"/>
</clipPath>
<clipPath id="clip16_4177_47332">
<rect width="24" height="24" fill="white" transform="translate(308.012 972.5)"/>
</clipPath>
<clipPath id="clip17_4177_47332">
<rect x="12.0117" y="1040.5" width="336" height="88.0001" rx="4" fill="white"/>
</clipPath>
<clipPath id="clip18_4177_47332">
<rect width="24" height="24" fill="white" transform="translate(308.012 1072.5)"/>
</clipPath>
<clipPath id="clip19_4177_47332">
<rect x="12.0117" y="1140.5" width="336" height="88.0001" rx="4" fill="white"/>
</clipPath>
<clipPath id="clip20_4177_47332">
<rect width="24" height="24" fill="white" transform="translate(308.012 1172.5)"/>
</clipPath>
<clipPath id="clip21_4177_47332">
<rect x="12.0117" y="1240.5" width="336" height="88.0001" rx="4" fill="white"/>
</clipPath>
<clipPath id="clip22_4177_47332">
<rect width="24" height="24" fill="white" transform="translate(308.012 1272.5)"/>
</clipPath>
<clipPath id="clip23_4177_47332">
<rect x="12.0117" y="1340.5" width="336" height="88" rx="4" fill="white"/>
</clipPath>
<clipPath id="clip24_4177_47332">
<rect width="24" height="24" fill="white" transform="translate(308.012 1372.5)"/>
</clipPath>
<clipPath id="clip25_4177_47332">
<rect x="12.0117" y="1440.5" width="336" height="88.0001" rx="4" fill="white"/>
</clipPath>
<clipPath id="clip26_4177_47332">
<rect width="24" height="24" fill="white" transform="translate(308.012 1472.5)"/>
</clipPath>
<clipPath id="clip27_4177_47332">
<rect x="12.0117" y="1540.5" width="336" height="88.0001" rx="4" fill="white"/>
</clipPath>
<clipPath id="clip28_4177_47332">
<rect width="24" height="24" fill="white" transform="translate(308.012 1572.5)"/>
</clipPath>
<clipPath id="clip29_4177_47332">
<rect x="12.0117" y="1640.5" width="336" height="88.0001" rx="4" fill="white"/>
</clipPath>
<clipPath id="clip30_4177_47332">
<rect width="24" height="24" fill="white" transform="translate(308.012 1672.5)"/>
</clipPath>
<clipPath id="clip31_4177_47332">
<rect x="12.0117" y="1740.5" width="336" height="88.0001" rx="4" fill="white"/>
</clipPath>
<clipPath id="clip32_4177_47332">
<rect width="24" height="24" fill="white" transform="translate(308.012 1772.5)"/>
</clipPath>
<clipPath id="clip33_4177_47332">
<rect x="12.0117" y="1840.5" width="336" height="88.0001" rx="4" fill="white"/>
</clipPath>
<clipPath id="clip34_4177_47332">
<rect width="24" height="24" fill="white" transform="translate(308.012 1872.5)"/>
</clipPath>
<clipPath id="clip35_4177_47332">
<rect x="12.0117" y="1940.5" width="336" height="88.0001" rx="4" fill="white"/>
</clipPath>
<clipPath id="clip36_4177_47332">
<rect width="24" height="24" fill="white" transform="translate(308.012 1972.5)"/>
</clipPath>
<clipPath id="clip37_4177_47332">
<rect x="12.0117" y="2040.5" width="336" height="88.0001" rx="4" fill="white"/>
</clipPath>
<clipPath id="clip38_4177_47332">
<rect width="24" height="24" fill="white" transform="translate(308.012 2072.5)"/>
</clipPath>
<clipPath id="clip39_4177_47332">
<rect x="12.0117" y="2140.5" width="336" height="88.0001" rx="4" fill="white"/>
</clipPath>
<clipPath id="clip40_4177_47332">
<rect width="24" height="24" fill="white" transform="translate(308.012 2172.5)"/>
</clipPath>
<clipPath id="clip41_4177_47332">
<rect width="196" height="200" fill="white" transform="translate(152.012 328.5)"/>
</clipPath>
</defs>
</svg>
