<svg width="360" height="2436" viewBox="0 0 360 2436" fill="none" xmlns="http://www.w3.org/2000/svg">
<g clip-path="url(#clip0_4177_47330)">
<rect width="360" height="2436" fill="white"/>
<rect width="360" height="48" fill="#004D99"/>
<text fill="white" style="white-space: pre" xml:space="preserve" font-family="Titillium Web" font-size="14" font-weight="600" letter-spacing="0px"><tspan x="12" y="29.215">Organization name</tspan></text>
<g clip-path="url(#clip1_4177_47330)">
<text fill="white" style="white-space: pre" xml:space="preserve" font-family="Titillium Web" font-size="14" font-weight="600" letter-spacing="0em"><tspan x="301" y="29.215">ENG</tspan></text>
<path d="M343 27.2L337.4 21.6L338.1 20.8L343 25.7L347.9 20.8L348.6 21.6L343 27.2Z" fill="white"/>
</g>
<rect width="360" height="72" transform="translate(0 48)" fill="#F2F7FC"/>
<rect x="12.5" y="69" width="106" height="30" fill="#F2F7FC"/>
<rect x="12.5" y="69" width="106" height="30" stroke="#C5C7C9"/>
<line x1="13.1976" y1="69.3958" x2="117.9" y2="99.0189" stroke="#C5C7C9"/>
<text fill="black" style="white-space: pre" xml:space="preserve" font-family="Titillium Web" font-size="16" font-weight="600" letter-spacing="0px"><tspan x="22.3018" y="92.3999">YOUR LOGO</tspan></text>
<path d="M131 68.5V99.5" stroke="#C5C7C9" stroke-linejoin="round"/>
<path d="M152.021 72.0004C152.171 71.9995 152.325 72.0362 152.471 72.1185L162.059 77.4965C162.752 77.8855 163.076 78.5134 163.076 79.2338L163.07 94.4164C163.07 94.9454 162.638 95.3257 162.164 95.3295C162.014 95.3304 161.859 95.2935 161.713 95.2113L155.695 91.8353V82.2416C155.695 81.5214 155.372 80.8905 154.678 80.5043L151.461 78.7143V95.0873C151.461 95.6164 151.028 95.9967 150.554 96.0004C150.404 96.0012 150.249 95.9645 150.103 95.8822L144.018 92.4603C143.324 92.0714 143 91.4432 143 90.723L143.015 74.7553C143.016 74.2263 143.447 73.8468 143.921 73.8432C144.071 73.8422 144.226 73.8789 144.372 73.9613L151.141 77.7572L151.114 72.9125C151.112 72.3836 151.546 72.0042 152.021 72.0004ZM221.471 79.8734C224.828 79.8734 226.77 81.5635 226.771 84.4369V88.1488C226.771 88.6236 226.978 88.8538 227.326 88.8539H227.774L227.773 88.8559C227.943 88.8561 228.07 88.9865 228.07 89.1566V91.5434C228.07 91.7136 227.95 91.8422 227.779 91.8422H225.66C224.736 91.8422 223.977 91.5083 223.534 90.9838C222.532 91.7654 221.258 92.1605 219.898 92.1605C217.338 92.1605 215.822 90.7584 215.822 88.351C215.822 86.0743 217.178 84.9176 220.167 84.7162L223.014 84.5238V84.0551C223.013 83.0831 222.339 82.5443 221.226 82.5443C220.451 82.5444 219.945 82.8068 219.707 83.2562C219.603 83.4521 219.502 83.5199 219.323 83.5199H216.145C215.965 83.5199 215.846 83.416 215.844 83.2641C215.842 83.1689 215.887 83.0255 215.967 82.8373C216.727 81.0431 218.704 79.8736 221.471 79.8734ZM247.068 79.8734C250.632 79.8734 252.772 82.0451 252.772 85.4623V86.5912C252.772 86.7613 252.645 86.8908 252.475 86.891H244.856C244.955 88.2989 245.579 89.4457 247.189 89.4457C247.946 89.4457 248.55 89.1917 248.859 88.7084C248.977 88.5247 249.085 88.4712 249.188 88.4711H252.239C252.481 88.4712 252.562 88.6169 252.563 88.7787C252.564 88.8711 252.538 88.9695 252.476 89.1312C251.744 91.0362 249.944 92.1605 247.265 92.1605C243.46 92.1605 241.22 89.8594 241.22 86.0092C241.22 82.1592 243.415 79.8739 247.068 79.8734ZM215.734 75.8402V75.8412C215.926 75.8414 216.081 76.0209 216.048 76.2094L213.351 91.5902C213.325 91.7384 213.197 91.8429 213.047 91.8432H208.459C208.314 91.8431 208.193 91.7438 208.162 91.6019L205.711 80.3588H205.489L203.039 91.6019C203.008 91.7438 202.884 91.8432 202.739 91.8432H198.151C198.002 91.8432 197.876 91.7376 197.851 91.5902L195.152 76.2094C195.119 76.0208 195.274 75.8412 195.465 75.8412H198.494C198.645 75.8414 198.774 75.9567 198.799 76.1049L200.616 86.9799H200.815L203.139 76.0922C203.17 75.9494 203.302 75.8412 203.447 75.8412H207.903C208.05 75.8412 208.169 75.9494 208.199 76.0922L210.477 87.0014H210.674L212.517 76.1059C212.541 75.9568 212.662 75.8405 212.812 75.8402H215.734ZM174.738 75.8393C174.908 75.8393 175.036 75.9649 175.036 76.1351V91.5434C175.036 91.7136 174.908 91.8422 174.737 91.8422H171.347C171.176 91.8422 171.047 91.7136 171.047 91.5434L171.041 76.1361C171.041 75.9659 171.176 75.8402 171.347 75.8402H174.738V75.8393ZM188.804 75.8393C188.975 75.8393 189.103 75.9903 189.104 76.1605V78.8051H189.103C189.103 78.9763 188.974 79.1254 188.804 79.1254H184.58V91.5424C184.58 91.7126 184.43 91.8411 184.26 91.8412H180.91C180.74 91.8412 180.591 91.7105 180.591 91.5404V79.1254H176.365C176.195 79.1254 176.067 78.9744 176.067 78.8041V76.1586C176.068 75.9884 176.197 75.8393 176.367 75.8393H188.804ZM232.475 75.8402C232.646 75.8402 232.774 75.9688 232.774 76.1391V88.0883C232.775 88.564 233.047 88.8537 233.522 88.8539H234.246C234.416 88.8539 234.565 88.9805 234.565 89.1508V91.5443C234.565 91.7146 234.431 91.8412 234.261 91.8412H232.606C230.112 91.8421 228.912 90.7383 228.912 88.4711V76.1391C228.912 75.9689 229.04 75.8404 229.21 75.8402H232.475ZM238.877 75.8402C239.047 75.8402 239.185 75.9688 239.185 76.1391V88.0883C239.185 88.5641 239.449 88.8539 239.925 88.8539H240.648C240.819 88.8539 240.977 88.9885 240.978 89.1586V91.5443C240.978 91.7146 240.833 91.8412 240.663 91.8412H239.009C236.515 91.842 235.315 90.7382 235.314 88.4711V76.1391C235.314 75.9688 235.443 75.8402 235.613 75.8402H238.877ZM258.156 77.0131C258.327 77.0131 258.456 77.1416 258.456 77.3119V80.1928H260.418C260.589 80.1928 260.738 80.3204 260.738 80.4906V82.8803C260.738 83.0513 260.609 83.1781 260.438 83.1781H258.456V88.0873C258.456 88.5632 258.726 88.8529 259.202 88.8529H260.44C260.611 88.853 260.738 89.0032 260.738 89.1732V91.5424C260.738 91.7124 260.61 91.8402 260.439 91.8402H258.756C255.995 91.8402 254.615 90.4807 254.615 87.7875V83.1781H253.25C253.079 83.1781 252.951 83.0495 252.951 82.8793V80.4906C252.951 80.3205 253.1 80.1918 253.271 80.1918H254.614V77.3168C254.614 77.1466 254.761 77.0131 254.932 77.0131H258.156ZM220.983 87.0238C219.886 87.1062 219.489 87.5001 219.489 88.1928C219.489 88.9699 219.987 89.4456 221.005 89.4457C221.633 89.4457 222.315 89.266 223.016 88.8119H223.017V86.8715L220.983 87.0238ZM194.137 83.8197H194.138C194.308 83.8197 194.437 83.9483 194.438 84.1185V86.6361C194.437 86.8062 194.307 86.9347 194.137 86.935H188C187.829 86.9349 187.695 86.8073 187.694 86.6371V84.1156C187.694 83.9446 187.822 83.8178 187.992 83.8178L194.137 83.8197ZM247.067 82.3168C245.751 82.3169 244.879 83.1257 244.871 84.4447H249.182C249.201 83.1155 248.384 82.3168 247.067 82.3168Z" fill="#0066CC"/>
<rect width="360" height="132" transform="translate(0 120)" fill="white"/>
<path d="M32.9996 147.5H17.4996L22.7996 142.1L22.0996 141.4L15.5996 148L22.0996 154.6L22.7996 153.9L17.4996 148.5H32.9996V147.5Z" fill="#0066CC"/>
<text fill="#17324D" style="white-space: pre" xml:space="preserve" font-family="Titillium Web" font-size="28" font-weight="bold" letter-spacing="0px"><tspan x="87.5098" y="158.43">Choose the app</tspan></text>
<path d="M340.9 151.2L336 146.3L331.1 151.2L330.4 150.4L336 144.8L341.6 150.4L340.9 151.2Z" fill="#0066CC"/>
<text fill="#17324D" style="white-space: pre" xml:space="preserve" font-family="Titillium Web" font-size="20" letter-spacing="0px"><tspan x="30.2734" y="199.45">Select the digital wallet you want to </tspan><tspan x="122.773" y="231.45">continue with</tspan></text>
<g clip-path="url(#clip2_4177_47330)">
<path fill-rule="evenodd" clip-rule="evenodd" d="M36 299.3L41.9 305.1L41.1 305.9L35.3 300C33.8225 301.268 31.9465 301.975 30 302C25.5817 302 22 298.418 22 294C22 289.582 25.5817 286 30 286C34.4183 286 38 289.582 38 294C37.9755 295.947 37.2676 297.823 36 299.3ZM23 294C23 297.866 26.134 301 30 301C31.8565 301 33.637 300.263 34.9497 298.95C36.2625 297.637 37 295.857 37 294C37 290.134 33.866 287 30 287C26.134 287 23 290.134 23 294Z" fill="#5C6F82"/>
<text fill="#5C6F82" style="white-space: pre" xml:space="preserve" font-family="Titillium Web" font-size="20" letter-spacing="0px"><tspan x="52" y="303.45">Search by name</tspan></text>
</g>
<rect x="12.5" y="268.5" width="177" height="47" rx="3.5" stroke="#C5C7C9"/>
<rect x="202" y="268" width="79" height="48" rx="4" fill="#D9DADB"/>
<text fill="#5C6F82" style="white-space: pre" xml:space="preserve" font-family="Titillium Web" font-size="16" font-weight="600" letter-spacing="0em"><tspan x="218.273" y="297.96">Search</tspan></text>
<rect x="294" y="269" width="46" height="46" rx="3" stroke="#0066CC" stroke-width="2"/>
<mask id="path-22-inside-1_4177_47330" fill="white">
<path d="M322.707 281.447C322.588 281.461 322.477 281.518 322.398 281.608C322.319 281.698 322.277 281.815 322.279 281.935V282.414C322.278 282.478 322.29 282.541 322.314 282.6C322.338 282.659 322.373 282.713 322.417 282.758C322.462 282.803 322.515 282.839 322.574 282.864C322.633 282.888 322.696 282.901 322.759 282.901C322.823 282.901 322.886 282.888 322.945 282.864C323.003 282.839 323.056 282.803 323.101 282.758C323.146 282.713 323.181 282.659 323.205 282.6C323.228 282.541 323.24 282.478 323.239 282.414V281.935C323.24 281.87 323.228 281.807 323.204 281.747C323.18 281.687 323.144 281.633 323.099 281.588C323.053 281.542 322.999 281.507 322.94 281.482C322.88 281.458 322.816 281.446 322.752 281.447C322.737 281.447 322.722 281.447 322.707 281.447ZM311.172 281.455C311.074 281.469 310.982 281.514 310.91 281.582C310.167 282.296 309.221 283.068 306.567 285.922C306.524 285.968 306.491 286.022 306.469 286.081C306.447 286.141 306.437 286.203 306.44 286.266C306.442 286.329 306.457 286.391 306.483 286.448C306.51 286.506 306.547 286.557 306.594 286.6C306.64 286.643 306.694 286.676 306.753 286.698C306.812 286.72 306.875 286.73 306.938 286.727C307.001 286.725 307.063 286.71 307.121 286.684C307.178 286.657 307.229 286.62 307.272 286.574C309.142 284.563 310.079 283.67 310.76 283.036V302.08C310.759 302.144 310.771 302.207 310.794 302.266C310.818 302.325 310.853 302.379 310.898 302.424C310.942 302.469 310.996 302.505 311.054 302.53C311.113 302.554 311.176 302.567 311.24 302.567C311.303 302.567 311.366 302.554 311.425 302.53C311.484 302.505 311.537 302.469 311.581 302.424C311.626 302.379 311.661 302.325 311.685 302.266C311.709 302.207 311.721 302.144 311.72 302.08V283.036C312.4 283.67 313.337 284.563 315.207 286.574C315.25 286.62 315.301 286.657 315.359 286.684C315.416 286.71 315.478 286.725 315.541 286.727C315.604 286.73 315.667 286.72 315.726 286.698C315.785 286.676 315.839 286.643 315.886 286.6C315.932 286.557 315.969 286.506 315.996 286.448C316.022 286.391 316.037 286.329 316.039 286.266C316.042 286.203 316.032 286.141 316.01 286.081C315.988 286.022 315.955 285.968 315.912 285.922C313.259 283.068 312.312 282.296 311.57 281.582C311.517 281.533 311.454 281.495 311.385 281.473C311.317 281.451 311.244 281.445 311.172 281.455ZM322.707 283.846C322.588 283.859 322.477 283.916 322.398 284.006C322.319 284.096 322.277 284.213 322.279 284.333V284.813C322.278 284.876 322.29 284.939 322.314 284.998C322.338 285.057 322.373 285.111 322.417 285.156C322.462 285.201 322.515 285.237 322.574 285.262C322.633 285.286 322.696 285.299 322.759 285.299C322.823 285.299 322.886 285.286 322.945 285.262C323.003 285.237 323.056 285.201 323.101 285.156C323.146 285.111 323.181 285.057 323.205 284.998C323.228 284.939 323.24 284.876 323.239 284.813V284.333C323.241 284.265 323.228 284.197 323.201 284.134C323.174 284.071 323.134 284.015 323.084 283.969C323.033 283.923 322.973 283.888 322.908 283.867C322.844 283.845 322.775 283.838 322.707 283.846ZM322.707 286.244C322.588 286.257 322.477 286.314 322.398 286.405C322.319 286.495 322.277 286.611 322.279 286.731V300.979C321.599 300.345 320.662 299.445 318.792 297.434C318.743 297.38 318.683 297.337 318.615 297.31C318.548 297.283 318.475 297.271 318.402 297.276C318.311 297.282 318.224 297.314 318.15 297.368C318.077 297.422 318.02 297.496 317.987 297.581C317.954 297.666 317.946 297.758 317.964 297.848C317.981 297.937 318.024 298.02 318.087 298.086C320.74 300.939 321.687 301.711 322.429 302.425C322.518 302.509 322.637 302.556 322.759 302.556C322.882 302.556 323 302.509 323.089 302.425C323.832 301.711 324.778 300.939 327.432 298.086C327.518 297.992 327.564 297.868 327.559 297.741C327.554 297.614 327.499 297.494 327.405 297.407C327.312 297.321 327.188 297.275 327.061 297.28C326.933 297.285 326.813 297.34 326.727 297.434C324.856 299.445 323.92 300.345 323.239 300.979V286.731C323.241 286.663 323.228 286.595 323.201 286.532C323.174 286.47 323.134 286.413 323.084 286.367C323.033 286.321 322.973 286.286 322.908 286.265C322.844 286.244 322.775 286.237 322.707 286.244Z"/>
</mask>
<path d="M322.707 281.447C322.588 281.461 322.477 281.518 322.398 281.608C322.319 281.698 322.277 281.815 322.279 281.935V282.414C322.278 282.478 322.29 282.541 322.314 282.6C322.338 282.659 322.373 282.713 322.417 282.758C322.462 282.803 322.515 282.839 322.574 282.864C322.633 282.888 322.696 282.901 322.759 282.901C322.823 282.901 322.886 282.888 322.945 282.864C323.003 282.839 323.056 282.803 323.101 282.758C323.146 282.713 323.181 282.659 323.205 282.6C323.228 282.541 323.24 282.478 323.239 282.414V281.935C323.24 281.87 323.228 281.807 323.204 281.747C323.18 281.687 323.144 281.633 323.099 281.588C323.053 281.542 322.999 281.507 322.94 281.482C322.88 281.458 322.816 281.446 322.752 281.447C322.737 281.447 322.722 281.447 322.707 281.447ZM311.172 281.455C311.074 281.469 310.982 281.514 310.91 281.582C310.167 282.296 309.221 283.068 306.567 285.922C306.524 285.968 306.491 286.022 306.469 286.081C306.447 286.141 306.437 286.203 306.44 286.266C306.442 286.329 306.457 286.391 306.483 286.448C306.51 286.506 306.547 286.557 306.594 286.6C306.64 286.643 306.694 286.676 306.753 286.698C306.812 286.72 306.875 286.73 306.938 286.727C307.001 286.725 307.063 286.71 307.121 286.684C307.178 286.657 307.229 286.62 307.272 286.574C309.142 284.563 310.079 283.67 310.76 283.036V302.08C310.759 302.144 310.771 302.207 310.794 302.266C310.818 302.325 310.853 302.379 310.898 302.424C310.942 302.469 310.996 302.505 311.054 302.53C311.113 302.554 311.176 302.567 311.24 302.567C311.303 302.567 311.366 302.554 311.425 302.53C311.484 302.505 311.537 302.469 311.581 302.424C311.626 302.379 311.661 302.325 311.685 302.266C311.709 302.207 311.721 302.144 311.72 302.08V283.036C312.4 283.67 313.337 284.563 315.207 286.574C315.25 286.62 315.301 286.657 315.359 286.684C315.416 286.71 315.478 286.725 315.541 286.727C315.604 286.73 315.667 286.72 315.726 286.698C315.785 286.676 315.839 286.643 315.886 286.6C315.932 286.557 315.969 286.506 315.996 286.448C316.022 286.391 316.037 286.329 316.039 286.266C316.042 286.203 316.032 286.141 316.01 286.081C315.988 286.022 315.955 285.968 315.912 285.922C313.259 283.068 312.312 282.296 311.57 281.582C311.517 281.533 311.454 281.495 311.385 281.473C311.317 281.451 311.244 281.445 311.172 281.455ZM322.707 283.846C322.588 283.859 322.477 283.916 322.398 284.006C322.319 284.096 322.277 284.213 322.279 284.333V284.813C322.278 284.876 322.29 284.939 322.314 284.998C322.338 285.057 322.373 285.111 322.417 285.156C322.462 285.201 322.515 285.237 322.574 285.262C322.633 285.286 322.696 285.299 322.759 285.299C322.823 285.299 322.886 285.286 322.945 285.262C323.003 285.237 323.056 285.201 323.101 285.156C323.146 285.111 323.181 285.057 323.205 284.998C323.228 284.939 323.24 284.876 323.239 284.813V284.333C323.241 284.265 323.228 284.197 323.201 284.134C323.174 284.071 323.134 284.015 323.084 283.969C323.033 283.923 322.973 283.888 322.908 283.867C322.844 283.845 322.775 283.838 322.707 283.846ZM322.707 286.244C322.588 286.257 322.477 286.314 322.398 286.405C322.319 286.495 322.277 286.611 322.279 286.731V300.979C321.599 300.345 320.662 299.445 318.792 297.434C318.743 297.38 318.683 297.337 318.615 297.31C318.548 297.283 318.475 297.271 318.402 297.276C318.311 297.282 318.224 297.314 318.15 297.368C318.077 297.422 318.02 297.496 317.987 297.581C317.954 297.666 317.946 297.758 317.964 297.848C317.981 297.937 318.024 298.02 318.087 298.086C320.74 300.939 321.687 301.711 322.429 302.425C322.518 302.509 322.637 302.556 322.759 302.556C322.882 302.556 323 302.509 323.089 302.425C323.832 301.711 324.778 300.939 327.432 298.086C327.518 297.992 327.564 297.868 327.559 297.741C327.554 297.614 327.499 297.494 327.405 297.407C327.312 297.321 327.188 297.275 327.061 297.28C326.933 297.285 326.813 297.34 326.727 297.434C324.856 299.445 323.92 300.345 323.239 300.979V286.731C323.241 286.663 323.228 286.595 323.201 286.532C323.174 286.47 323.134 286.413 323.084 286.367C323.033 286.321 322.973 286.286 322.908 286.265C322.844 286.244 322.775 286.237 322.707 286.244Z" fill="#0066CC" stroke="#0066CC" stroke-width="2" mask="url(#path-22-inside-1_4177_47330)"/>
<g filter="url(#filter0_d_4177_47330)">
<g clip-path="url(#clip3_4177_47330)">
<rect width="336" height="88.0001" transform="translate(12 340)" fill="white"/>
<path d="M79.334 370V398L56 412L32.667 398V370L56 356L79.334 370ZM35.0098 371.405V396.595L56 409.188L76.9912 396.595V371.405L56 358.812L35.0098 371.405Z" fill="#0066CC"/>
<text fill="#0066CC" style="white-space: pre" xml:space="preserve" font-family="Titillium Web" font-size="20" font-weight="600" letter-spacing="0px" text-decoration="underline"><tspan x="100" y="391.45">IT-Wallet app name</tspan></text>
<g clip-path="url(#clip4_4177_47330)">
<path d="M321.9 377L321.2 377.7L326.5 383.1H311V384.1H326.5L321.2 389.5L321.9 390.2L328.5 383.6L321.9 377Z" fill="#0066CC"/>
</g>
</g>
<rect x="12.5" y="340.5" width="335" height="87.0001" rx="3.5" stroke="#C5C7C9"/>
</g>
<g filter="url(#filter1_d_4177_47330)">
<g clip-path="url(#clip5_4177_47330)">
<rect width="336" height="88.0001" transform="translate(12 440)" fill="white"/>
<path d="M79.334 470V498L56 512L32.667 498V470L56 456L79.334 470ZM35.0098 471.405V496.595L56 509.189L76.9912 496.595V471.405L56 458.812L35.0098 471.405Z" fill="#0066CC"/>
<text fill="#0066CC" style="white-space: pre" xml:space="preserve" font-family="Titillium Web" font-size="20" font-weight="600" letter-spacing="0px" text-decoration="underline"><tspan x="100" y="479.45">IT-Wallet app name </tspan><tspan x="100" y="503.45">lorem ipsum dolor sit</tspan></text>
<g clip-path="url(#clip6_4177_47330)">
<path d="M321.9 477L321.2 477.7L326.5 483.1H311V484.1H326.5L321.2 489.5L321.9 490.2L328.5 483.6L321.9 477Z" fill="#0066CC"/>
</g>
</g>
<rect x="12.5" y="440.5" width="335" height="87.0001" rx="3.5" stroke="#C5C7C9"/>
</g>
<g filter="url(#filter2_d_4177_47330)">
<g clip-path="url(#clip7_4177_47330)">
<rect width="336" height="88.0001" transform="translate(12 540)" fill="white"/>
<path d="M79.334 570V598L56 612L32.667 598V570L56 556L79.334 570ZM35.0098 571.405V596.595L56 609.189L76.9912 596.595V571.405L56 558.812L35.0098 571.405Z" fill="#0066CC"/>
<text fill="#0066CC" style="white-space: pre" xml:space="preserve" font-family="Titillium Web" font-size="20" font-weight="600" letter-spacing="0px" text-decoration="underline"><tspan x="100" y="591.45">IT-Wallet app name</tspan></text>
<g clip-path="url(#clip8_4177_47330)">
<path d="M321.9 577L321.2 577.7L326.5 583.1H311V584.1H326.5L321.2 589.5L321.9 590.2L328.5 583.6L321.9 577Z" fill="#0066CC"/>
</g>
</g>
<rect x="12.5" y="540.5" width="335" height="87.0001" rx="3.5" stroke="#C5C7C9"/>
</g>
<g filter="url(#filter3_d_4177_47330)">
<g clip-path="url(#clip9_4177_47330)">
<rect width="336" height="88.0001" transform="translate(12 640)" fill="white"/>
<path d="M79.334 670V698L56 712L32.667 698V670L56 656L79.334 670ZM35.0098 671.405V696.595L56 709.189L76.9912 696.595V671.405L56 658.812L35.0098 671.405Z" fill="#0066CC"/>
<text fill="#0066CC" style="white-space: pre" xml:space="preserve" font-family="Titillium Web" font-size="20" font-weight="600" letter-spacing="0px" text-decoration="underline"><tspan x="100" y="691.45">IT-Wallet app name</tspan></text>
<g clip-path="url(#clip10_4177_47330)">
<path d="M321.9 677L321.2 677.7L326.5 683.1H311V684.1H326.5L321.2 689.5L321.9 690.2L328.5 683.6L321.9 677Z" fill="#0066CC"/>
</g>
</g>
<rect x="12.5" y="640.5" width="335" height="87" rx="3.5" stroke="#C5C7C9"/>
</g>
<g filter="url(#filter4_d_4177_47330)">
<g clip-path="url(#clip11_4177_47330)">
<rect width="336" height="88.0001" transform="translate(12 740)" fill="white"/>
<path d="M79.334 770V798L56 812L32.667 798V770L56 756L79.334 770ZM35.0098 771.406V796.595L56 809.189L76.9912 796.595V771.406L56 758.812L35.0098 771.406Z" fill="#0066CC"/>
<text fill="#0066CC" style="white-space: pre" xml:space="preserve" font-family="Titillium Web" font-size="20" font-weight="600" letter-spacing="0px" text-decoration="underline"><tspan x="100" y="791.45">IT-Wallet app name</tspan></text>
<g clip-path="url(#clip12_4177_47330)">
<path d="M321.9 777L321.2 777.7L326.5 783.1H311V784.1H326.5L321.2 789.5L321.9 790.2L328.5 783.6L321.9 777Z" fill="#0066CC"/>
</g>
</g>
<rect x="12.5" y="740.5" width="335" height="87.0001" rx="3.5" stroke="#C5C7C9"/>
</g>
<g filter="url(#filter5_d_4177_47330)">
<g clip-path="url(#clip13_4177_47330)">
<rect width="336" height="88" transform="translate(12 840)" fill="white"/>
<path d="M79.334 870V898L56 912L32.667 898V870L56 856L79.334 870ZM35.0098 871.406V896.595L56 909.189L76.9912 896.595V871.406L56 858.812L35.0098 871.406Z" fill="#0066CC"/>
<text fill="#0066CC" style="white-space: pre" xml:space="preserve" font-family="Titillium Web" font-size="20" font-weight="600" letter-spacing="0px" text-decoration="underline"><tspan x="100" y="891.45">IT-Wallet app name</tspan></text>
<g clip-path="url(#clip14_4177_47330)">
<path d="M321.9 877L321.2 877.7L326.5 883.1H311V884.1H326.5L321.2 889.5L321.9 890.2L328.5 883.6L321.9 877Z" fill="#0066CC"/>
</g>
</g>
<rect x="12.5" y="840.5" width="335" height="87" rx="3.5" stroke="#C5C7C9"/>
</g>
<g filter="url(#filter6_d_4177_47330)">
<g clip-path="url(#clip15_4177_47330)">
<rect width="336" height="88.0001" transform="translate(12 940)" fill="white"/>
<path d="M79.334 970V998L56 1012L32.667 998V970L56 956L79.334 970ZM35.0098 971.406V996.595L56 1009.19L76.9912 996.595V971.406L56 958.812L35.0098 971.406Z" fill="#0066CC"/>
<text fill="#0066CC" style="white-space: pre" xml:space="preserve" font-family="Titillium Web" font-size="20" font-weight="600" letter-spacing="0px" text-decoration="underline"><tspan x="100" y="991.45">IT-Wallet app name</tspan></text>
<g clip-path="url(#clip16_4177_47330)">
<path d="M321.9 977L321.2 977.7L326.5 983.1H311V984.1H326.5L321.2 989.5L321.9 990.2L328.5 983.6L321.9 977Z" fill="#0066CC"/>
</g>
</g>
<rect x="12.5" y="940.5" width="335" height="87.0001" rx="3.5" stroke="#C5C7C9"/>
</g>
<g filter="url(#filter7_d_4177_47330)">
<g clip-path="url(#clip17_4177_47330)">
<rect width="336" height="88.0001" transform="translate(12 1040)" fill="white"/>
<path d="M79.334 1070V1098L56 1112L32.667 1098V1070L56 1056L79.334 1070ZM35.0098 1071.41V1096.6L56 1109.19L76.9912 1096.6V1071.41L56 1058.81L35.0098 1071.41Z" fill="#0066CC"/>
<text fill="#0066CC" style="white-space: pre" xml:space="preserve" font-family="Titillium Web" font-size="20" font-weight="600" letter-spacing="0px" text-decoration="underline"><tspan x="100" y="1091.45">IT-Wallet app name</tspan></text>
<g clip-path="url(#clip18_4177_47330)">
<path d="M321.9 1077L321.2 1077.7L326.5 1083.1H311V1084.1H326.5L321.2 1089.5L321.9 1090.2L328.5 1083.6L321.9 1077Z" fill="#0066CC"/>
</g>
</g>
<rect x="12.5" y="1040.5" width="335" height="87.0001" rx="3.5" stroke="#C5C7C9"/>
</g>
<g filter="url(#filter8_d_4177_47330)">
<g clip-path="url(#clip19_4177_47330)">
<rect width="336" height="88.0001" transform="translate(12 1140)" fill="white"/>
<path d="M79.334 1170V1198L56 1212L32.667 1198V1170L56 1156L79.334 1170ZM35.0098 1171.41V1196.6L56 1209.19L76.9912 1196.6V1171.41L56 1158.81L35.0098 1171.41Z" fill="#0066CC"/>
<text fill="#0066CC" style="white-space: pre" xml:space="preserve" font-family="Titillium Web" font-size="20" font-weight="600" letter-spacing="0px" text-decoration="underline"><tspan x="100" y="1191.45">IT-Wallet app name</tspan></text>
<g clip-path="url(#clip20_4177_47330)">
<path d="M321.9 1177L321.2 1177.7L326.5 1183.1H311V1184.1H326.5L321.2 1189.5L321.9 1190.2L328.5 1183.6L321.9 1177Z" fill="#0066CC"/>
</g>
</g>
<rect x="12.5" y="1140.5" width="335" height="87.0001" rx="3.5" stroke="#C5C7C9"/>
</g>
<g filter="url(#filter9_d_4177_47330)">
<g clip-path="url(#clip21_4177_47330)">
<rect width="336" height="88.0001" transform="translate(12 1240)" fill="white"/>
<path d="M79.334 1270V1298L56 1312L32.667 1298V1270L56 1256L79.334 1270ZM35.0098 1271.41V1296.6L56 1309.19L76.9912 1296.6V1271.41L56 1258.81L35.0098 1271.41Z" fill="#0066CC"/>
<text fill="#0066CC" style="white-space: pre" xml:space="preserve" font-family="Titillium Web" font-size="20" font-weight="600" letter-spacing="0px" text-decoration="underline"><tspan x="100" y="1291.45">IT-Wallet app name</tspan></text>
<g clip-path="url(#clip22_4177_47330)">
<path d="M321.9 1277L321.2 1277.7L326.5 1283.1H311V1284.1H326.5L321.2 1289.5L321.9 1290.2L328.5 1283.6L321.9 1277Z" fill="#0066CC"/>
</g>
</g>
<rect x="12.5" y="1240.5" width="335" height="87.0001" rx="3.5" stroke="#C5C7C9"/>
</g>
<g filter="url(#filter10_d_4177_47330)">
<g clip-path="url(#clip23_4177_47330)">
<rect width="336" height="88" transform="translate(12 1340)" fill="white"/>
<path d="M79.334 1370V1398L56 1412L32.667 1398V1370L56 1356L79.334 1370ZM35.0098 1371.41V1396.6L56 1409.19L76.9912 1396.6V1371.41L56 1358.81L35.0098 1371.41Z" fill="#0066CC"/>
<text fill="#0066CC" style="white-space: pre" xml:space="preserve" font-family="Titillium Web" font-size="20" font-weight="600" letter-spacing="0px" text-decoration="underline"><tspan x="100" y="1391.45">IT-Wallet app name</tspan></text>
<g clip-path="url(#clip24_4177_47330)">
<path d="M321.9 1377L321.2 1377.7L326.5 1383.1H311V1384.1H326.5L321.2 1389.5L321.9 1390.2L328.5 1383.6L321.9 1377Z" fill="#0066CC"/>
</g>
</g>
<rect x="12.5" y="1340.5" width="335" height="87" rx="3.5" stroke="#C5C7C9"/>
</g>
<g filter="url(#filter11_d_4177_47330)">
<g clip-path="url(#clip25_4177_47330)">
<rect width="336" height="88.0001" transform="translate(12 1440)" fill="white"/>
<path d="M79.334 1470V1498L56 1512L32.667 1498V1470L56 1456L79.334 1470ZM35.0098 1471.41V1496.6L56 1509.19L76.9912 1496.6V1471.41L56 1458.81L35.0098 1471.41Z" fill="#0066CC"/>
<text fill="#0066CC" style="white-space: pre" xml:space="preserve" font-family="Titillium Web" font-size="20" font-weight="600" letter-spacing="0px" text-decoration="underline"><tspan x="100" y="1491.45">IT-Wallet app name</tspan></text>
<g clip-path="url(#clip26_4177_47330)">
<path d="M321.9 1477L321.2 1477.7L326.5 1483.1H311V1484.1H326.5L321.2 1489.5L321.9 1490.2L328.5 1483.6L321.9 1477Z" fill="#0066CC"/>
</g>
</g>
<rect x="12.5" y="1440.5" width="335" height="87.0001" rx="3.5" stroke="#C5C7C9"/>
</g>
<g filter="url(#filter12_d_4177_47330)">
<g clip-path="url(#clip27_4177_47330)">
<rect width="336" height="88.0001" transform="translate(12 1540)" fill="white"/>
<path d="M79.334 1570V1598L56 1612L32.667 1598V1570L56 1556L79.334 1570ZM35.0098 1571.41V1596.6L56 1609.19L76.9912 1596.6V1571.41L56 1558.81L35.0098 1571.41Z" fill="#0066CC"/>
<text fill="#0066CC" style="white-space: pre" xml:space="preserve" font-family="Titillium Web" font-size="20" font-weight="600" letter-spacing="0px" text-decoration="underline"><tspan x="100" y="1591.45">IT-Wallet app name</tspan></text>
<g clip-path="url(#clip28_4177_47330)">
<path d="M321.9 1577L321.2 1577.7L326.5 1583.1H311V1584.1H326.5L321.2 1589.5L321.9 1590.2L328.5 1583.6L321.9 1577Z" fill="#0066CC"/>
</g>
</g>
<rect x="12.5" y="1540.5" width="335" height="87.0001" rx="3.5" stroke="#C5C7C9"/>
</g>
<g filter="url(#filter13_d_4177_47330)">
<g clip-path="url(#clip29_4177_47330)">
<rect width="336" height="88.0001" transform="translate(12 1640)" fill="white"/>
<path d="M79.334 1670V1698L56 1712L32.667 1698V1670L56 1656L79.334 1670ZM35.0098 1671.41V1696.6L56 1709.19L76.9912 1696.6V1671.41L56 1658.81L35.0098 1671.41Z" fill="#0066CC"/>
<text fill="#0066CC" style="white-space: pre" xml:space="preserve" font-family="Titillium Web" font-size="20" font-weight="600" letter-spacing="0px" text-decoration="underline"><tspan x="100" y="1691.45">IT-Wallet app name</tspan></text>
<g clip-path="url(#clip30_4177_47330)">
<path d="M321.9 1677L321.2 1677.7L326.5 1683.1H311V1684.1H326.5L321.2 1689.5L321.9 1690.2L328.5 1683.6L321.9 1677Z" fill="#0066CC"/>
</g>
</g>
<rect x="12.5" y="1640.5" width="335" height="87.0001" rx="3.5" stroke="#C5C7C9"/>
</g>
<g filter="url(#filter14_d_4177_47330)">
<g clip-path="url(#clip31_4177_47330)">
<rect width="336" height="88.0001" transform="translate(12 1740)" fill="white"/>
<path d="M79.334 1770V1798L56 1812L32.667 1798V1770L56 1756L79.334 1770ZM35.0098 1771.41V1796.6L56 1809.19L76.9912 1796.6V1771.41L56 1758.81L35.0098 1771.41Z" fill="#0066CC"/>
<text fill="#0066CC" style="white-space: pre" xml:space="preserve" font-family="Titillium Web" font-size="20" font-weight="600" letter-spacing="0px" text-decoration="underline"><tspan x="100" y="1791.45">IT-Wallet app name</tspan></text>
<g clip-path="url(#clip32_4177_47330)">
<path d="M321.9 1777L321.2 1777.7L326.5 1783.1H311V1784.1H326.5L321.2 1789.5L321.9 1790.2L328.5 1783.6L321.9 1777Z" fill="#0066CC"/>
</g>
</g>
<rect x="12.5" y="1740.5" width="335" height="87.0001" rx="3.5" stroke="#C5C7C9"/>
</g>
<g filter="url(#filter15_d_4177_47330)">
<g clip-path="url(#clip33_4177_47330)">
<rect width="336" height="88.0001" transform="translate(12 1840)" fill="white"/>
<path d="M79.334 1870V1898L56 1912L32.667 1898V1870L56 1856L79.334 1870ZM35.0098 1871.41V1896.6L56 1909.19L76.9912 1896.6V1871.41L56 1858.81L35.0098 1871.41Z" fill="#0066CC"/>
<text fill="#0066CC" style="white-space: pre" xml:space="preserve" font-family="Titillium Web" font-size="20" font-weight="600" letter-spacing="0px" text-decoration="underline"><tspan x="100" y="1891.45">IT-Wallet app name</tspan></text>
<g clip-path="url(#clip34_4177_47330)">
<path d="M321.9 1877L321.2 1877.7L326.5 1883.1H311V1884.1H326.5L321.2 1889.5L321.9 1890.2L328.5 1883.6L321.9 1877Z" fill="#0066CC"/>
</g>
</g>
<rect x="12.5" y="1840.5" width="335" height="87.0001" rx="3.5" stroke="#C5C7C9"/>
</g>
<g filter="url(#filter16_d_4177_47330)">
<g clip-path="url(#clip35_4177_47330)">
<rect width="336" height="88.0001" transform="translate(12 1940)" fill="white"/>
<path d="M79.334 1970V1998L56 2012L32.667 1998V1970L56 1956L79.334 1970ZM35.0098 1971.41V1996.6L56 2009.19L76.9912 1996.6V1971.41L56 1958.81L35.0098 1971.41Z" fill="#0066CC"/>
<text fill="#0066CC" style="white-space: pre" xml:space="preserve" font-family="Titillium Web" font-size="20" font-weight="600" letter-spacing="0px" text-decoration="underline"><tspan x="100" y="1991.45">IT-Wallet app name</tspan></text>
<g clip-path="url(#clip36_4177_47330)">
<path d="M321.9 1977L321.2 1977.7L326.5 1983.1H311V1984.1H326.5L321.2 1989.5L321.9 1990.2L328.5 1983.6L321.9 1977Z" fill="#0066CC"/>
</g>
</g>
<rect x="12.5" y="1940.5" width="335" height="87.0001" rx="3.5" stroke="#C5C7C9"/>
</g>
<g filter="url(#filter17_d_4177_47330)">
<g clip-path="url(#clip37_4177_47330)">
<rect width="336" height="88.0001" transform="translate(12 2040)" fill="white"/>
<path d="M79.334 2070V2098L56 2112L32.667 2098V2070L56 2056L79.334 2070ZM35.0098 2071.41V2096.6L56 2109.19L76.9912 2096.6V2071.41L56 2058.81L35.0098 2071.41Z" fill="#0066CC"/>
<text fill="#0066CC" style="white-space: pre" xml:space="preserve" font-family="Titillium Web" font-size="20" font-weight="600" letter-spacing="0px" text-decoration="underline"><tspan x="100" y="2091.45">IT-Wallet app name</tspan></text>
<g clip-path="url(#clip38_4177_47330)">
<path d="M321.9 2077L321.2 2077.7L326.5 2083.1H311V2084.1H326.5L321.2 2089.5L321.9 2090.2L328.5 2083.6L321.9 2077Z" fill="#0066CC"/>
</g>
</g>
<rect x="12.5" y="2040.5" width="335" height="87.0001" rx="3.5" stroke="#C5C7C9"/>
</g>
<g filter="url(#filter18_d_4177_47330)">
<g clip-path="url(#clip39_4177_47330)">
<rect width="336" height="88.0001" transform="translate(12 2140)" fill="white"/>
<path d="M79.334 2170V2198L56 2212L32.667 2198V2170L56 2156L79.334 2170ZM35.0098 2171.41V2196.6L56 2209.19L76.9912 2196.6V2171.41L56 2158.81L35.0098 2171.41Z" fill="#0066CC"/>
<text fill="#0066CC" style="white-space: pre" xml:space="preserve" font-family="Titillium Web" font-size="20" font-weight="600" letter-spacing="0px" text-decoration="underline"><tspan x="100" y="2191.45">IT-Wallet app name</tspan></text>
<g clip-path="url(#clip40_4177_47330)">
<path d="M321.9 2177L321.2 2177.7L326.5 2183.1H311V2184.1H326.5L321.2 2189.5L321.9 2190.2L328.5 2183.6L321.9 2177Z" fill="#0066CC"/>
</g>
</g>
<rect x="12.5" y="2140.5" width="335" height="87.0001" rx="3.5" stroke="#C5C7C9"/>
</g>
<rect width="360" height="160" transform="translate(0 2276)" fill="#003366"/>
<text fill="white" style="white-space: pre" xml:space="preserve" font-family="Titillium Web" font-size="14" font-weight="600" letter-spacing="0em" text-decoration="underline"><tspan x="12" y="2321.22">Legal notes</tspan></text>
<text fill="white" style="white-space: pre" xml:space="preserve" font-family="Titillium Web" font-size="14" font-weight="600" letter-spacing="0em" text-decoration="underline"><tspan x="12" y="2361.22">Privacy Policy</tspan></text>
<text fill="white" style="white-space: pre" xml:space="preserve" font-family="Titillium Web" font-size="14" font-weight="600" letter-spacing="0em" text-decoration="underline"><tspan x="12" y="2401.22">Accessibility statement</tspan></text>
</g>
<defs>
<filter id="filter0_d_4177_47330" x="-4" y="332" width="368" height="120" filterUnits="userSpaceOnUse" color-interpolation-filters="sRGB">
<feFlood flood-opacity="0" result="BackgroundImageFix"/>
<feColorMatrix in="SourceAlpha" type="matrix" values="0 0 0 0 0 0 0 0 0 0 0 0 0 0 0 0 0 0 127 0" result="hardAlpha"/>
<feOffset dy="8"/>
<feGaussianBlur stdDeviation="8"/>
<feColorMatrix type="matrix" values="0 0 0 0 0 0 0 0 0 0 0 0 0 0 0 0 0 0 0.15 0"/>
<feBlend mode="normal" in2="BackgroundImageFix" result="effect1_dropShadow_4177_47330"/>
<feBlend mode="normal" in="SourceGraphic" in2="effect1_dropShadow_4177_47330" result="shape"/>
</filter>
<filter id="filter1_d_4177_47330" x="-4" y="432" width="368" height="120" filterUnits="userSpaceOnUse" color-interpolation-filters="sRGB">
<feFlood flood-opacity="0" result="BackgroundImageFix"/>
<feColorMatrix in="SourceAlpha" type="matrix" values="0 0 0 0 0 0 0 0 0 0 0 0 0 0 0 0 0 0 127 0" result="hardAlpha"/>
<feOffset dy="8"/>
<feGaussianBlur stdDeviation="8"/>
<feColorMatrix type="matrix" values="0 0 0 0 0 0 0 0 0 0 0 0 0 0 0 0 0 0 0.15 0"/>
<feBlend mode="normal" in2="BackgroundImageFix" result="effect1_dropShadow_4177_47330"/>
<feBlend mode="normal" in="SourceGraphic" in2="effect1_dropShadow_4177_47330" result="shape"/>
</filter>
<filter id="filter2_d_4177_47330" x="-4" y="532" width="368" height="120" filterUnits="userSpaceOnUse" color-interpolation-filters="sRGB">
<feFlood flood-opacity="0" result="BackgroundImageFix"/>
<feColorMatrix in="SourceAlpha" type="matrix" values="0 0 0 0 0 0 0 0 0 0 0 0 0 0 0 0 0 0 127 0" result="hardAlpha"/>
<feOffset dy="8"/>
<feGaussianBlur stdDeviation="8"/>
<feColorMatrix type="matrix" values="0 0 0 0 0 0 0 0 0 0 0 0 0 0 0 0 0 0 0.15 0"/>
<feBlend mode="normal" in2="BackgroundImageFix" result="effect1_dropShadow_4177_47330"/>
<feBlend mode="normal" in="SourceGraphic" in2="effect1_dropShadow_4177_47330" result="shape"/>
</filter>
<filter id="filter3_d_4177_47330" x="-4" y="632" width="368" height="120" filterUnits="userSpaceOnUse" color-interpolation-filters="sRGB">
<feFlood flood-opacity="0" result="BackgroundImageFix"/>
<feColorMatrix in="SourceAlpha" type="matrix" values="0 0 0 0 0 0 0 0 0 0 0 0 0 0 0 0 0 0 127 0" result="hardAlpha"/>
<feOffset dy="8"/>
<feGaussianBlur stdDeviation="8"/>
<feColorMatrix type="matrix" values="0 0 0 0 0 0 0 0 0 0 0 0 0 0 0 0 0 0 0.15 0"/>
<feBlend mode="normal" in2="BackgroundImageFix" result="effect1_dropShadow_4177_47330"/>
<feBlend mode="normal" in="SourceGraphic" in2="effect1_dropShadow_4177_47330" result="shape"/>
</filter>
<filter id="filter4_d_4177_47330" x="-4" y="732" width="368" height="120" filterUnits="userSpaceOnUse" color-interpolation-filters="sRGB">
<feFlood flood-opacity="0" result="BackgroundImageFix"/>
<feColorMatrix in="SourceAlpha" type="matrix" values="0 0 0 0 0 0 0 0 0 0 0 0 0 0 0 0 0 0 127 0" result="hardAlpha"/>
<feOffset dy="8"/>
<feGaussianBlur stdDeviation="8"/>
<feColorMatrix type="matrix" values="0 0 0 0 0 0 0 0 0 0 0 0 0 0 0 0 0 0 0.15 0"/>
<feBlend mode="normal" in2="BackgroundImageFix" result="effect1_dropShadow_4177_47330"/>
<feBlend mode="normal" in="SourceGraphic" in2="effect1_dropShadow_4177_47330" result="shape"/>
</filter>
<filter id="filter5_d_4177_47330" x="-4" y="832" width="368" height="120" filterUnits="userSpaceOnUse" color-interpolation-filters="sRGB">
<feFlood flood-opacity="0" result="BackgroundImageFix"/>
<feColorMatrix in="SourceAlpha" type="matrix" values="0 0 0 0 0 0 0 0 0 0 0 0 0 0 0 0 0 0 127 0" result="hardAlpha"/>
<feOffset dy="8"/>
<feGaussianBlur stdDeviation="8"/>
<feColorMatrix type="matrix" values="0 0 0 0 0 0 0 0 0 0 0 0 0 0 0 0 0 0 0.15 0"/>
<feBlend mode="normal" in2="BackgroundImageFix" result="effect1_dropShadow_4177_47330"/>
<feBlend mode="normal" in="SourceGraphic" in2="effect1_dropShadow_4177_47330" result="shape"/>
</filter>
<filter id="filter6_d_4177_47330" x="-4" y="932" width="368" height="120" filterUnits="userSpaceOnUse" color-interpolation-filters="sRGB">
<feFlood flood-opacity="0" result="BackgroundImageFix"/>
<feColorMatrix in="SourceAlpha" type="matrix" values="0 0 0 0 0 0 0 0 0 0 0 0 0 0 0 0 0 0 127 0" result="hardAlpha"/>
<feOffset dy="8"/>
<feGaussianBlur stdDeviation="8"/>
<feColorMatrix type="matrix" values="0 0 0 0 0 0 0 0 0 0 0 0 0 0 0 0 0 0 0.15 0"/>
<feBlend mode="normal" in2="BackgroundImageFix" result="effect1_dropShadow_4177_47330"/>
<feBlend mode="normal" in="SourceGraphic" in2="effect1_dropShadow_4177_47330" result="shape"/>
</filter>
<filter id="filter7_d_4177_47330" x="-4" y="1032" width="368" height="120" filterUnits="userSpaceOnUse" color-interpolation-filters="sRGB">
<feFlood flood-opacity="0" result="BackgroundImageFix"/>
<feColorMatrix in="SourceAlpha" type="matrix" values="0 0 0 0 0 0 0 0 0 0 0 0 0 0 0 0 0 0 127 0" result="hardAlpha"/>
<feOffset dy="8"/>
<feGaussianBlur stdDeviation="8"/>
<feColorMatrix type="matrix" values="0 0 0 0 0 0 0 0 0 0 0 0 0 0 0 0 0 0 0.15 0"/>
<feBlend mode="normal" in2="BackgroundImageFix" result="effect1_dropShadow_4177_47330"/>
<feBlend mode="normal" in="SourceGraphic" in2="effect1_dropShadow_4177_47330" result="shape"/>
</filter>
<filter id="filter8_d_4177_47330" x="-4" y="1132" width="368" height="120" filterUnits="userSpaceOnUse" color-interpolation-filters="sRGB">
<feFlood flood-opacity="0" result="BackgroundImageFix"/>
<feColorMatrix in="SourceAlpha" type="matrix" values="0 0 0 0 0 0 0 0 0 0 0 0 0 0 0 0 0 0 127 0" result="hardAlpha"/>
<feOffset dy="8"/>
<feGaussianBlur stdDeviation="8"/>
<feColorMatrix type="matrix" values="0 0 0 0 0 0 0 0 0 0 0 0 0 0 0 0 0 0 0.15 0"/>
<feBlend mode="normal" in2="BackgroundImageFix" result="effect1_dropShadow_4177_47330"/>
<feBlend mode="normal" in="SourceGraphic" in2="effect1_dropShadow_4177_47330" result="shape"/>
</filter>
<filter id="filter9_d_4177_47330" x="-4" y="1232" width="368" height="120" filterUnits="userSpaceOnUse" color-interpolation-filters="sRGB">
<feFlood flood-opacity="0" result="BackgroundImageFix"/>
<feColorMatrix in="SourceAlpha" type="matrix" values="0 0 0 0 0 0 0 0 0 0 0 0 0 0 0 0 0 0 127 0" result="hardAlpha"/>
<feOffset dy="8"/>
<feGaussianBlur stdDeviation="8"/>
<feColorMatrix type="matrix" values="0 0 0 0 0 0 0 0 0 0 0 0 0 0 0 0 0 0 0.15 0"/>
<feBlend mode="normal" in2="BackgroundImageFix" result="effect1_dropShadow_4177_47330"/>
<feBlend mode="normal" in="SourceGraphic" in2="effect1_dropShadow_4177_47330" result="shape"/>
</filter>
<filter id="filter10_d_4177_47330" x="-4" y="1332" width="368" height="120" filterUnits="userSpaceOnUse" color-interpolation-filters="sRGB">
<feFlood flood-opacity="0" result="BackgroundImageFix"/>
<feColorMatrix in="SourceAlpha" type="matrix" values="0 0 0 0 0 0 0 0 0 0 0 0 0 0 0 0 0 0 127 0" result="hardAlpha"/>
<feOffset dy="8"/>
<feGaussianBlur stdDeviation="8"/>
<feColorMatrix type="matrix" values="0 0 0 0 0 0 0 0 0 0 0 0 0 0 0 0 0 0 0.15 0"/>
<feBlend mode="normal" in2="BackgroundImageFix" result="effect1_dropShadow_4177_47330"/>
<feBlend mode="normal" in="SourceGraphic" in2="effect1_dropShadow_4177_47330" result="shape"/>
</filter>
<filter id="filter11_d_4177_47330" x="-4" y="1432" width="368" height="120" filterUnits="userSpaceOnUse" color-interpolation-filters="sRGB">
<feFlood flood-opacity="0" result="BackgroundImageFix"/>
<feColorMatrix in="SourceAlpha" type="matrix" values="0 0 0 0 0 0 0 0 0 0 0 0 0 0 0 0 0 0 127 0" result="hardAlpha"/>
<feOffset dy="8"/>
<feGaussianBlur stdDeviation="8"/>
<feColorMatrix type="matrix" values="0 0 0 0 0 0 0 0 0 0 0 0 0 0 0 0 0 0 0.15 0"/>
<feBlend mode="normal" in2="BackgroundImageFix" result="effect1_dropShadow_4177_47330"/>
<feBlend mode="normal" in="SourceGraphic" in2="effect1_dropShadow_4177_47330" result="shape"/>
</filter>
<filter id="filter12_d_4177_47330" x="-4" y="1532" width="368" height="120" filterUnits="userSpaceOnUse" color-interpolation-filters="sRGB">
<feFlood flood-opacity="0" result="BackgroundImageFix"/>
<feColorMatrix in="SourceAlpha" type="matrix" values="0 0 0 0 0 0 0 0 0 0 0 0 0 0 0 0 0 0 127 0" result="hardAlpha"/>
<feOffset dy="8"/>
<feGaussianBlur stdDeviation="8"/>
<feColorMatrix type="matrix" values="0 0 0 0 0 0 0 0 0 0 0 0 0 0 0 0 0 0 0.15 0"/>
<feBlend mode="normal" in2="BackgroundImageFix" result="effect1_dropShadow_4177_47330"/>
<feBlend mode="normal" in="SourceGraphic" in2="effect1_dropShadow_4177_47330" result="shape"/>
</filter>
<filter id="filter13_d_4177_47330" x="-4" y="1632" width="368" height="120" filterUnits="userSpaceOnUse" color-interpolation-filters="sRGB">
<feFlood flood-opacity="0" result="BackgroundImageFix"/>
<feColorMatrix in="SourceAlpha" type="matrix" values="0 0 0 0 0 0 0 0 0 0 0 0 0 0 0 0 0 0 127 0" result="hardAlpha"/>
<feOffset dy="8"/>
<feGaussianBlur stdDeviation="8"/>
<feColorMatrix type="matrix" values="0 0 0 0 0 0 0 0 0 0 0 0 0 0 0 0 0 0 0.15 0"/>
<feBlend mode="normal" in2="BackgroundImageFix" result="effect1_dropShadow_4177_47330"/>
<feBlend mode="normal" in="SourceGraphic" in2="effect1_dropShadow_4177_47330" result="shape"/>
</filter>
<filter id="filter14_d_4177_47330" x="-4" y="1732" width="368" height="120" filterUnits="userSpaceOnUse" color-interpolation-filters="sRGB">
<feFlood flood-opacity="0" result="BackgroundImageFix"/>
<feColorMatrix in="SourceAlpha" type="matrix" values="0 0 0 0 0 0 0 0 0 0 0 0 0 0 0 0 0 0 127 0" result="hardAlpha"/>
<feOffset dy="8"/>
<feGaussianBlur stdDeviation="8"/>
<feColorMatrix type="matrix" values="0 0 0 0 0 0 0 0 0 0 0 0 0 0 0 0 0 0 0.15 0"/>
<feBlend mode="normal" in2="BackgroundImageFix" result="effect1_dropShadow_4177_47330"/>
<feBlend mode="normal" in="SourceGraphic" in2="effect1_dropShadow_4177_47330" result="shape"/>
</filter>
<filter id="filter15_d_4177_47330" x="-4" y="1832" width="368" height="120" filterUnits="userSpaceOnUse" color-interpolation-filters="sRGB">
<feFlood flood-opacity="0" result="BackgroundImageFix"/>
<feColorMatrix in="SourceAlpha" type="matrix" values="0 0 0 0 0 0 0 0 0 0 0 0 0 0 0 0 0 0 127 0" result="hardAlpha"/>
<feOffset dy="8"/>
<feGaussianBlur stdDeviation="8"/>
<feColorMatrix type="matrix" values="0 0 0 0 0 0 0 0 0 0 0 0 0 0 0 0 0 0 0.15 0"/>
<feBlend mode="normal" in2="BackgroundImageFix" result="effect1_dropShadow_4177_47330"/>
<feBlend mode="normal" in="SourceGraphic" in2="effect1_dropShadow_4177_47330" result="shape"/>
</filter>
<filter id="filter16_d_4177_47330" x="-4" y="1932" width="368" height="120" filterUnits="userSpaceOnUse" color-interpolation-filters="sRGB">
<feFlood flood-opacity="0" result="BackgroundImageFix"/>
<feColorMatrix in="SourceAlpha" type="matrix" values="0 0 0 0 0 0 0 0 0 0 0 0 0 0 0 0 0 0 127 0" result="hardAlpha"/>
<feOffset dy="8"/>
<feGaussianBlur stdDeviation="8"/>
<feColorMatrix type="matrix" values="0 0 0 0 0 0 0 0 0 0 0 0 0 0 0 0 0 0 0.15 0"/>
<feBlend mode="normal" in2="BackgroundImageFix" result="effect1_dropShadow_4177_47330"/>
<feBlend mode="normal" in="SourceGraphic" in2="effect1_dropShadow_4177_47330" result="shape"/>
</filter>
<filter id="filter17_d_4177_47330" x="-4" y="2032" width="368" height="120" filterUnits="userSpaceOnUse" color-interpolation-filters="sRGB">
<feFlood flood-opacity="0" result="BackgroundImageFix"/>
<feColorMatrix in="SourceAlpha" type="matrix" values="0 0 0 0 0 0 0 0 0 0 0 0 0 0 0 0 0 0 127 0" result="hardAlpha"/>
<feOffset dy="8"/>
<feGaussianBlur stdDeviation="8"/>
<feColorMatrix type="matrix" values="0 0 0 0 0 0 0 0 0 0 0 0 0 0 0 0 0 0 0.15 0"/>
<feBlend mode="normal" in2="BackgroundImageFix" result="effect1_dropShadow_4177_47330"/>
<feBlend mode="normal" in="SourceGraphic" in2="effect1_dropShadow_4177_47330" result="shape"/>
</filter>
<filter id="filter18_d_4177_47330" x="-4" y="2132" width="368" height="120" filterUnits="userSpaceOnUse" color-interpolation-filters="sRGB">
<feFlood flood-opacity="0" result="BackgroundImageFix"/>
<feColorMatrix in="SourceAlpha" type="matrix" values="0 0 0 0 0 0 0 0 0 0 0 0 0 0 0 0 0 0 127 0" result="hardAlpha"/>
<feOffset dy="8"/>
<feGaussianBlur stdDeviation="8"/>
<feColorMatrix type="matrix" values="0 0 0 0 0 0 0 0 0 0 0 0 0 0 0 0 0 0 0.15 0"/>
<feBlend mode="normal" in2="BackgroundImageFix" result="effect1_dropShadow_4177_47330"/>
<feBlend mode="normal" in="SourceGraphic" in2="effect1_dropShadow_4177_47330" result="shape"/>
</filter>
<clipPath id="clip0_4177_47330">
<rect width="360" height="2436" fill="white"/>
</clipPath>
<clipPath id="clip1_4177_47330">
<rect width="47" height="24" fill="white" transform="translate(301 12)"/>
</clipPath>
<clipPath id="clip2_4177_47330">
<rect x="12" y="268" width="178" height="48" rx="4" fill="white"/>
</clipPath>
<clipPath id="clip3_4177_47330">
<rect x="12" y="340" width="336" height="88.0001" rx="4" fill="white"/>
</clipPath>
<clipPath id="clip4_4177_47330">
<rect width="24" height="24" fill="white" transform="translate(308 372)"/>
</clipPath>
<clipPath id="clip5_4177_47330">
<rect x="12" y="440" width="336" height="88.0001" rx="4" fill="white"/>
</clipPath>
<clipPath id="clip6_4177_47330">
<rect width="24" height="24" fill="white" transform="translate(308 472)"/>
</clipPath>
<clipPath id="clip7_4177_47330">
<rect x="12" y="540" width="336" height="88.0001" rx="4" fill="white"/>
</clipPath>
<clipPath id="clip8_4177_47330">
<rect width="24" height="24" fill="white" transform="translate(308 572)"/>
</clipPath>
<clipPath id="clip9_4177_47330">
<rect x="12" y="640" width="336" height="88" rx="4" fill="white"/>
</clipPath>
<clipPath id="clip10_4177_47330">
<rect width="24" height="24" fill="white" transform="translate(308 672)"/>
</clipPath>
<clipPath id="clip11_4177_47330">
<rect x="12" y="740" width="336" height="88.0001" rx="4" fill="white"/>
</clipPath>
<clipPath id="clip12_4177_47330">
<rect width="24" height="24" fill="white" transform="translate(308 772)"/>
</clipPath>
<clipPath id="clip13_4177_47330">
<rect x="12" y="840" width="336" height="88" rx="4" fill="white"/>
</clipPath>
<clipPath id="clip14_4177_47330">
<rect width="24" height="24" fill="white" transform="translate(308 872)"/>
</clipPath>
<clipPath id="clip15_4177_47330">
<rect x="12" y="940" width="336" height="88.0001" rx="4" fill="white"/>
</clipPath>
<clipPath id="clip16_4177_47330">
<rect width="24" height="24" fill="white" transform="translate(308 972)"/>
</clipPath>
<clipPath id="clip17_4177_47330">
<rect x="12" y="1040" width="336" height="88.0001" rx="4" fill="white"/>
</clipPath>
<clipPath id="clip18_4177_47330">
<rect width="24" height="24" fill="white" transform="translate(308 1072)"/>
</clipPath>
<clipPath id="clip19_4177_47330">
<rect x="12" y="1140" width="336" height="88.0001" rx="4" fill="white"/>
</clipPath>
<clipPath id="clip20_4177_47330">
<rect width="24" height="24" fill="white" transform="translate(308 1172)"/>
</clipPath>
<clipPath id="clip21_4177_47330">
<rect x="12" y="1240" width="336" height="88.0001" rx="4" fill="white"/>
</clipPath>
<clipPath id="clip22_4177_47330">
<rect width="24" height="24" fill="white" transform="translate(308 1272)"/>
</clipPath>
<clipPath id="clip23_4177_47330">
<rect x="12" y="1340" width="336" height="88" rx="4" fill="white"/>
</clipPath>
<clipPath id="clip24_4177_47330">
<rect width="24" height="24" fill="white" transform="translate(308 1372)"/>
</clipPath>
<clipPath id="clip25_4177_47330">
<rect x="12" y="1440" width="336" height="88.0001" rx="4" fill="white"/>
</clipPath>
<clipPath id="clip26_4177_47330">
<rect width="24" height="24" fill="white" transform="translate(308 1472)"/>
</clipPath>
<clipPath id="clip27_4177_47330">
<rect x="12" y="1540" width="336" height="88.0001" rx="4" fill="white"/>
</clipPath>
<clipPath id="clip28_4177_47330">
<rect width="24" height="24" fill="white" transform="translate(308 1572)"/>
</clipPath>
<clipPath id="clip29_4177_47330">
<rect x="12" y="1640" width="336" height="88.0001" rx="4" fill="white"/>
</clipPath>
<clipPath id="clip30_4177_47330">
<rect width="24" height="24" fill="white" transform="translate(308 1672)"/>
</clipPath>
<clipPath id="clip31_4177_47330">
<rect x="12" y="1740" width="336" height="88.0001" rx="4" fill="white"/>
</clipPath>
<clipPath id="clip32_4177_47330">
<rect width="24" height="24" fill="white" transform="translate(308 1772)"/>
</clipPath>
<clipPath id="clip33_4177_47330">
<rect x="12" y="1840" width="336" height="88.0001" rx="4" fill="white"/>
</clipPath>
<clipPath id="clip34_4177_47330">
<rect width="24" height="24" fill="white" transform="translate(308 1872)"/>
</clipPath>
<clipPath id="clip35_4177_47330">
<rect x="12" y="1940" width="336" height="88.0001" rx="4" fill="white"/>
</clipPath>
<clipPath id="clip36_4177_47330">
<rect width="24" height="24" fill="white" transform="translate(308 1972)"/>
</clipPath>
<clipPath id="clip37_4177_47330">
<rect x="12" y="2040" width="336" height="88.0001" rx="4" fill="white"/>
</clipPath>
<clipPath id="clip38_4177_47330">
<rect width="24" height="24" fill="white" transform="translate(308 2072)"/>
</clipPath>
<clipPath id="clip39_4177_47330">
<rect x="12" y="2140" width="336" height="88.0001" rx="4" fill="white"/>
</clipPath>
<clipPath id="clip40_4177_47330">
<rect width="24" height="24" fill="white" transform="translate(308 2172)"/>
</clipPath>
</defs>
</svg>
