<svg width="595" height="415" viewBox="0 0 595 415" fill="none" xmlns="http://www.w3.org/2000/svg">
<rect width="595" height="415" fill="white"/>
<g clip-path="url(#clip0_40000356_3227)">
<path d="M393.673 31.1078H-140.695C-144.25 31.1078 -147.133 33.5795 -147.133 36.6284V381.67C-147.133 384.719 -144.25 387.19 -140.695 387.19H393.673C397.229 387.19 400.112 384.719 400.112 381.67V36.6284C400.112 33.5795 397.229 31.1078 393.673 31.1078Z" fill="#004080" fill-opacity="0.1"/>
<path d="M-147.133 37.5454C-147.133 33.9898 -144.252 31.1078 -140.695 31.1078H393.673C397.23 31.1078 400.112 33.9898 400.112 37.5454V52.4322H-147.133V37.5454Z" fill="#004080"/>
<path d="M171.373 45.19V38.5754H172.443V45.19H171.373ZM177.192 41.3564C176.431 41.2534 175.88 41.2019 175.542 41.2019C175.2 41.2019 174.962 41.2438 174.826 41.3274C174.697 41.4047 174.632 41.5302 174.632 41.704C174.632 41.8778 174.705 42.0001 174.846 42.071C174.994 42.1418 175.332 42.2255 175.868 42.322C176.411 42.4122 176.793 42.557 177.019 42.7566C177.244 42.9561 177.356 43.3102 177.356 43.8188C177.356 44.3273 177.191 44.7007 176.862 44.9389C176.54 45.1771 176.069 45.2962 175.445 45.2962C175.051 45.2962 174.556 45.2415 173.956 45.132L173.659 45.0838L173.695 44.205C174.467 44.308 175.027 44.3595 175.365 44.3595C175.707 44.3595 175.948 44.3177 176.089 44.234C176.238 44.1503 176.314 44.0119 176.314 43.8188C176.314 43.6256 176.242 43.4937 176.101 43.4228C175.964 43.3456 175.634 43.2651 175.107 43.1814C174.584 43.0913 174.202 42.9529 173.956 42.7662C173.711 42.5795 173.59 42.2383 173.59 41.7427C173.59 41.247 173.755 40.8768 174.093 40.6322C174.431 40.3875 174.866 40.2652 175.397 40.2652C175.807 40.2652 176.314 40.3167 176.91 40.4197L177.212 40.4777L177.192 41.3564ZM180.966 41.2598H179.634V43.3842C179.634 43.7769 179.662 44.0376 179.719 44.1664C179.779 44.2951 179.924 44.3595 180.165 44.3595L180.954 44.3306L181.002 45.1707C180.572 45.2544 180.246 45.2962 180.02 45.2962C179.473 45.2962 179.095 45.1707 178.89 44.9196C178.688 44.6685 178.588 44.1954 178.588 43.5001V41.2598H177.972V40.3618H178.588V38.9616H179.634V40.3618H180.966V41.2598ZM185.4 41.8489V44.0505C185.408 44.1922 185.444 44.2984 185.509 44.3692C185.577 44.4336 185.686 44.4754 185.827 44.4947L185.799 45.2962C185.243 45.2962 184.817 45.1771 184.515 44.9389C184 45.1771 183.481 45.2962 182.958 45.2962C182 45.2962 181.521 44.7844 181.521 43.7608C181.521 43.2716 181.65 42.9175 181.907 42.6986C182.169 42.4797 182.571 42.3478 183.115 42.3027L184.358 42.1965V41.8489C184.358 41.5914 184.302 41.4111 184.185 41.3081C184.076 41.2051 183.911 41.1536 183.694 41.1536C183.28 41.1536 182.765 41.1794 182.149 41.2309L181.839 41.2502L181.799 40.5066C182.503 40.3393 183.147 40.2556 183.73 40.2556C184.322 40.2556 184.748 40.3843 185.006 40.6418C185.271 40.8929 185.4 41.2952 185.4 41.8489ZM183.239 43.0463C182.793 43.0849 182.571 43.3263 182.571 43.7705C182.571 44.2147 182.769 44.4368 183.163 44.4368C183.485 44.4368 183.823 44.3853 184.185 44.2823L184.358 44.2243V42.94L183.239 43.0463ZM187.774 45.19H186.724V40.3618H187.766V40.6611C188.237 40.3908 188.68 40.2556 189.098 40.2556C189.742 40.2556 190.181 40.439 190.414 40.806C190.651 41.1665 190.768 41.7652 190.768 42.6021V45.19H189.726V42.631C189.726 42.1096 189.669 41.7394 189.553 41.5206C189.444 41.3017 189.215 41.1923 188.869 41.1923C188.539 41.1923 188.225 41.2566 187.919 41.3854L187.774 41.4433V45.19ZM191.754 41.2985V40.3618H195.335V41.2985L193.017 44.2533H195.335V45.19H191.754V44.2533L194.08 41.2985H191.754ZM199.955 41.8489V44.0505C199.959 44.1922 199.995 44.2984 200.059 44.3692C200.132 44.4336 200.236 44.4754 200.377 44.4947L200.349 45.2962C199.798 45.2962 199.367 45.1771 199.065 44.9389C198.55 45.1771 198.031 45.2962 197.512 45.2962C196.55 45.2962 196.071 44.7844 196.071 43.7608C196.071 43.2716 196.2 42.9175 196.458 42.6986C196.723 42.4797 197.126 42.3478 197.665 42.3027L198.912 42.1965V41.8489C198.912 41.5914 198.852 41.4111 198.735 41.3081C198.627 41.2051 198.462 41.1536 198.244 41.1536C197.834 41.1536 197.319 41.1794 196.699 41.2309L196.389 41.2502L196.353 40.5066C197.053 40.3393 197.697 40.2556 198.285 40.2556C198.876 40.2556 199.299 40.3843 199.556 40.6418C199.822 40.8929 199.955 41.2952 199.955 41.8489ZM197.79 43.0463C197.347 43.0849 197.126 43.3263 197.126 43.7705C197.126 44.2147 197.319 44.4368 197.713 44.4368C198.035 44.4368 198.377 44.3853 198.735 44.2823L198.912 44.2243V42.94L197.79 43.0463ZM207.338 38.3533V45.19H206.296V44.9389C205.825 45.1771 205.395 45.2962 205 45.2962C204.369 45.2962 203.906 45.1063 203.608 44.7265C203.318 44.3467 203.174 43.7093 203.174 42.8145C203.174 41.9197 203.335 41.2695 203.656 40.8639C203.986 40.4584 204.493 40.2556 205.186 40.2556C205.415 40.2556 205.781 40.2974 206.284 40.3811V38.3533H207.338ZM206.119 44.1857L206.284 44.1181V41.2598C205.898 41.1955 205.54 41.1633 205.214 41.1633C204.562 41.1633 204.236 41.704 204.236 42.7855C204.236 43.3778 204.312 43.7898 204.461 44.0216C204.614 44.2469 204.856 44.3595 205.186 44.3595C205.511 44.3595 205.825 44.3016 206.119 44.1857ZM212.05 44.3209L212.32 44.2919L212.34 45.0741C211.608 45.2221 210.956 45.2962 210.388 45.2962C209.676 45.2962 209.161 45.0998 208.843 44.7071C208.533 44.3145 208.38 43.6868 208.38 42.8242C208.38 41.1118 209.081 40.2556 210.477 40.2556C211.829 40.2556 212.505 40.9927 212.505 42.4669L212.437 43.2201H209.443C209.451 43.6192 209.535 43.9121 209.704 44.0988C209.869 44.2855 210.183 44.3788 210.642 44.3788C211.097 44.3788 211.567 44.3595 212.05 44.3209ZM211.471 42.4089C211.471 41.9326 211.394 41.601 211.237 41.4143C211.093 41.2212 210.835 41.1246 210.477 41.1246C210.115 41.1246 209.853 41.2244 209.684 41.424C209.523 41.6236 209.439 41.9519 209.435 42.4089H211.471ZM213.575 45.19V38.3533H214.625V45.19H213.575ZM217.676 38.5754H218.806L219.752 44.263H219.953L221.209 38.5947H222.464L223.719 44.263H223.933L224.878 38.5754H226.009L224.705 45.19H222.979L221.836 39.8886L220.71 45.19H218.971L217.676 38.5754ZM230.31 41.8489V44.0505C230.319 44.1922 230.355 44.2984 230.419 44.3692C230.488 44.4336 230.596 44.4754 230.737 44.4947L230.709 45.2962C230.154 45.2962 229.727 45.1771 229.425 44.9389C228.91 45.1771 228.391 45.2962 227.868 45.2962C226.91 45.2962 226.431 44.7844 226.431 43.7608C226.431 43.2716 226.56 42.9175 226.818 42.6986C227.079 42.4797 227.482 42.3478 228.025 42.3027L229.268 42.1965V41.8489C229.268 41.5914 229.212 41.4111 229.095 41.3081C228.987 41.2051 228.822 41.1536 228.604 41.1536C228.19 41.1536 227.675 41.1794 227.059 41.2309L226.749 41.2502L226.709 40.5066C227.413 40.3393 228.057 40.2556 228.641 40.2556C229.232 40.2556 229.659 40.3843 229.916 40.6418C230.182 40.8929 230.31 41.2952 230.31 41.8489ZM228.15 43.0463C227.703 43.0849 227.482 43.3263 227.482 43.7705C227.482 44.2147 227.679 44.4368 228.073 44.4368C228.395 44.4368 228.733 44.3853 229.095 44.2823L229.268 44.2243V42.94L228.15 43.0463ZM231.691 45.19V38.3533H232.745V45.19H231.691ZM234.133 45.19V38.3533H235.187V45.19H234.133ZM239.956 44.3209L240.225 44.2919L240.245 45.0741C239.513 45.2221 238.861 45.2962 238.294 45.2962C237.582 45.2962 237.067 45.0998 236.749 44.7071C236.443 44.3145 236.286 43.6868 236.286 42.8242C236.286 41.1118 236.986 40.2556 238.382 40.2556C239.734 40.2556 240.41 40.9927 240.41 42.4669L240.342 43.2201H237.348C237.356 43.6192 237.441 43.9121 237.61 44.0988C237.779 44.2855 238.089 44.3788 238.547 44.3788C239.002 44.3788 239.473 44.3595 239.956 44.3209ZM239.376 42.4089C239.376 41.9326 239.3 41.601 239.147 41.4143C238.998 41.2212 238.744 41.1246 238.382 41.1246C238.02 41.1246 237.759 41.2244 237.59 41.424C237.429 41.6236 237.344 41.9519 237.34 42.4089H239.376ZM244.02 41.2598H242.688V43.3842C242.688 43.7769 242.716 44.0376 242.776 44.1664C242.833 44.2951 242.982 44.3595 243.219 44.3595L244.012 44.3306L244.06 45.1707C243.629 45.2544 243.299 45.2962 243.074 45.2962C242.527 45.2962 242.149 45.1707 241.943 44.9196C241.746 44.6685 241.646 44.1954 241.646 43.5001V41.2598H241.026V40.3618H241.646V38.9616H242.688V40.3618H244.02V41.2598Z" fill="white"/>
<g filter="url(#filter0_d_40000356_3227)">
<path d="M12.2116 149.398H-97.2373C-102.571 149.398 -106.895 153.721 -106.895 159.054V368.275C-106.895 373.608 -102.571 377.932 -97.2373 377.932H12.2116C17.5452 377.932 21.8689 373.608 21.8689 368.275V159.054C21.8689 153.721 17.5452 149.398 12.2116 149.398Z" fill="white"/>
</g>
<path d="M21.8689 134.109H-106.895V134.914H21.8689V134.109Z" fill="#17324D"/>
<path d="M231.234 91.6361L232.341 86.7114H234.24L235.347 91.6361H234.349L234.152 90.7453H232.429L232.232 91.6361H231.234ZM233.118 87.537L232.615 89.8762H233.963L233.464 87.537H233.118ZM237.846 88.8406H236.952V90.3253C236.952 90.4701 236.956 90.5739 236.96 90.6367C236.968 90.6946 236.997 90.7453 237.041 90.7888C237.089 90.8322 237.162 90.854 237.258 90.854L237.809 90.8395L237.85 91.6144C237.528 91.6868 237.282 91.723 237.113 91.723C236.679 91.723 236.381 91.6264 236.22 91.4333C236.063 91.2354 235.983 90.8733 235.983 90.347V88.8406H235.556V88.015H235.983V87.0083H236.952V88.015H237.846V88.8406ZM240.481 88.8406H239.592V90.3253C239.592 90.4701 239.596 90.5739 239.6 90.6367C239.608 90.6946 239.636 90.7453 239.68 90.7888C239.729 90.8322 239.801 90.854 239.898 90.854L240.445 90.8395L240.489 91.6144C240.167 91.6868 239.922 91.723 239.753 91.723C239.318 91.723 239.021 91.6264 238.86 91.4333C238.703 91.2354 238.622 90.8733 238.622 90.347V88.8406H238.196V88.015H238.622V87.0083H239.592V88.015H240.481V88.8406ZM241.113 91.6361V88.015H242.087V91.6361H241.113ZM241.113 87.5515V86.5665H242.087V87.5515H241.113ZM242.642 88.015H243.656L244.235 90.8105H244.437L245.044 88.015H246.03L245.161 91.6361H243.511L242.642 88.015ZM249.322 89.1448V90.6512C249.33 90.767 249.35 90.8491 249.378 90.8974C249.406 90.9408 249.466 90.9722 249.559 90.9915L249.531 91.723C249.285 91.723 249.088 91.7061 248.935 91.6723C248.79 91.6385 248.646 91.5709 248.497 91.4695C248.147 91.6385 247.793 91.723 247.43 91.723C246.682 91.723 246.308 91.3271 246.308 90.5353C246.308 90.149 246.412 89.8762 246.618 89.7169C246.827 89.5527 247.145 89.4562 247.575 89.4272L248.352 89.3693V89.1448C248.352 88.9951 248.316 88.8937 248.247 88.8406C248.183 88.7827 248.074 88.7537 247.921 88.7537L246.561 88.8116L246.533 88.1381C247.048 87.9981 247.539 87.9281 248.002 87.9281C248.473 87.9281 248.807 88.0246 249.008 88.2178C249.217 88.4109 249.322 88.7199 249.322 89.1448ZM247.692 90.1008C247.422 90.1249 247.285 90.2697 247.285 90.5353C247.285 90.8008 247.402 90.9336 247.64 90.9336C247.825 90.9336 248.026 90.9046 248.243 90.8467L248.352 90.8177V90.0428L247.692 90.1008ZM250.094 88.884V88.015H252.782V88.884L251.261 90.767H252.782V91.6361H250.094V90.767L251.615 88.884H250.094ZM253.535 91.6361V88.015H254.504V91.6361H253.535ZM253.535 87.5515V86.5665H254.504V87.5515H253.535ZM255.599 88.4278C255.852 88.0946 256.283 87.9281 256.878 87.9281C257.478 87.9281 257.904 88.0946 258.162 88.4278C258.42 88.7561 258.544 89.2196 258.544 89.8183C258.544 91.0881 257.989 91.723 256.878 91.723C255.768 91.723 255.212 91.0881 255.212 89.8183C255.212 89.2196 255.341 88.7561 255.599 88.4278ZM256.343 90.6367C256.444 90.8105 256.625 90.8974 256.878 90.8974C257.136 90.8974 257.313 90.8105 257.41 90.6367C257.51 90.4629 257.562 90.1901 257.562 89.8183C257.562 89.4465 257.51 89.1761 257.41 89.0072C257.313 88.8382 257.136 88.7537 256.878 88.7537C256.625 88.7537 256.444 88.8382 256.343 89.0072C256.247 89.1761 256.198 89.4465 256.198 89.8183C256.198 90.1901 256.247 90.4629 256.343 90.6367ZM260.226 91.6361H259.256V88.015H260.222V88.2178C260.548 88.0246 260.85 87.9281 261.128 87.9281C261.61 87.9281 261.94 88.0705 262.126 88.3554C262.311 88.6402 262.399 89.0796 262.399 89.6735V91.6361H261.429V89.7024C261.429 89.3934 261.393 89.1665 261.321 89.0217C261.248 88.872 261.103 88.7971 260.886 88.7971C260.689 88.7971 260.5 88.8309 260.315 88.8985L260.226 88.9275V91.6361ZM264.057 90.2383C264.061 90.4604 264.121 90.6222 264.23 90.7236C264.347 90.8201 264.512 90.8684 264.725 90.8684C265.172 90.8684 265.574 90.8539 265.928 90.825L266.129 90.8032L266.145 91.5202C265.59 91.6554 265.087 91.723 264.636 91.723C264.093 91.723 263.695 91.5782 263.449 91.2885C263.204 90.9988 263.079 90.528 263.079 89.8762C263.079 88.5774 263.614 87.9281 264.681 87.9281C265.735 87.9281 266.258 88.4736 266.258 89.5648L266.186 90.2383H264.057ZM265.304 89.4996C265.304 89.2099 265.256 89.0096 265.167 88.8985C265.075 88.7826 264.914 88.7247 264.681 88.7247C264.455 88.7247 264.29 88.7851 264.194 88.9058C264.105 89.0216 264.057 89.2196 264.049 89.4996H265.304ZM269.9 87.9281C270.149 87.9281 270.471 87.9667 270.861 88.0439L271.058 88.0874L271.03 88.8551C270.648 88.8165 270.366 88.7971 270.181 88.7971C269.847 88.7971 269.626 88.8696 269.513 89.0144C269.409 89.1544 269.356 89.4224 269.356 89.8183C269.356 90.2142 269.409 90.487 269.513 90.6367C269.626 90.7815 269.851 90.854 270.189 90.854L271.03 90.796L271.058 91.5709C270.539 91.6723 270.149 91.723 269.875 91.723C269.34 91.723 268.954 91.5733 268.717 91.274C268.487 90.9698 268.371 90.4846 268.371 89.8183C268.371 89.152 268.491 88.6716 268.733 88.3771C268.974 88.0777 269.364 87.9281 269.9 87.9281ZM271.944 88.4278C272.201 88.0946 272.628 87.9281 273.227 87.9281C273.823 87.9281 274.253 88.0946 274.507 88.4278C274.764 88.7561 274.893 89.2196 274.893 89.8183C274.893 91.0881 274.338 91.723 273.227 91.723C272.117 91.723 271.561 91.0881 271.561 89.8183C271.561 89.2196 271.686 88.7561 271.944 88.4278ZM272.688 90.6367C272.793 90.8105 272.97 90.8974 273.227 90.8974C273.481 90.8974 273.658 90.8105 273.754 90.6367C273.855 90.4629 273.907 90.1901 273.907 89.8183C273.907 89.4465 273.855 89.1761 273.754 89.0072C273.658 88.8382 273.481 88.7537 273.227 88.7537C272.97 88.7537 272.793 88.8382 272.688 89.0072C272.592 89.1761 272.543 89.4465 272.543 89.8183C272.543 90.1901 272.592 90.4629 272.688 90.6367ZM276.575 91.6361H275.601V88.015H276.567V88.2178C276.901 88.0246 277.183 87.9281 277.42 87.9281C277.811 87.9281 278.112 88.0415 278.326 88.2685C278.772 88.0415 279.175 87.9281 279.545 87.9281C280.02 87.9281 280.354 88.0681 280.535 88.3481C280.724 88.6233 280.816 89.0651 280.816 89.6735V91.6361H279.847V89.7024C279.847 89.3934 279.814 89.1665 279.746 89.0217C279.678 88.872 279.545 88.7971 279.34 88.7971C279.187 88.7971 278.998 88.8309 278.776 88.8985L278.668 88.9347C278.688 89.2969 278.696 89.5721 278.696 89.7604V91.6361H277.726V89.7749C277.726 89.4176 277.694 89.1665 277.629 89.0217C277.569 88.872 277.432 88.7971 277.219 88.7971C277.03 88.7971 276.845 88.8309 276.66 88.8985L276.575 88.9275V91.6361ZM281.677 93.157V88.015H282.643V88.2105C282.957 88.0222 283.231 87.9281 283.468 87.9281C283.955 87.9281 284.317 88.0753 284.546 88.3698C284.78 88.6595 284.896 89.1544 284.896 89.8545C284.896 90.5546 284.768 91.0422 284.51 91.3174C284.257 91.5878 283.834 91.723 283.251 91.723C283.09 91.723 282.921 91.7085 282.736 91.6795L282.651 91.6651V93.157H281.677ZM283.279 88.7971C283.102 88.7971 282.921 88.8333 282.736 88.9058L282.651 88.942V90.8395C282.869 90.8684 283.041 90.8829 283.178 90.8829C283.46 90.8829 283.649 90.8008 283.75 90.6367C283.858 90.4725 283.911 90.1925 283.911 89.7966C283.911 89.1303 283.701 88.7971 283.279 88.7971ZM285.661 91.6361V86.5665H286.635V91.6361H285.661ZM288.369 90.2383C288.373 90.4604 288.429 90.6222 288.542 90.7236C288.659 90.8201 288.824 90.8684 289.033 90.8684C289.484 90.8684 289.886 90.8539 290.236 90.825L290.441 90.8032L290.453 91.5202C289.898 91.6554 289.395 91.723 288.949 91.723C288.401 91.723 288.007 91.5782 287.762 91.2885C287.512 90.9988 287.391 90.528 287.391 89.8762C287.391 88.5774 287.922 87.9281 288.993 87.9281C290.043 87.9281 290.57 88.4736 290.57 89.5648L290.498 90.2383H288.369ZM289.612 89.4996C289.612 89.2099 289.568 89.0096 289.476 88.8985C289.383 88.7826 289.222 88.7247 288.993 88.7247C288.763 88.7247 288.602 88.7851 288.506 88.9058C288.413 89.0216 288.365 89.2196 288.361 89.4996H289.612ZM293.27 88.8406H292.377V90.3253C292.377 90.4701 292.381 90.5739 292.385 90.6367C292.397 90.6946 292.421 90.7453 292.465 90.7888C292.514 90.8322 292.586 90.854 292.683 90.854L293.234 90.8395L293.278 91.6144C292.952 91.6868 292.707 91.723 292.538 91.723C292.103 91.723 291.805 91.6264 291.649 91.4333C291.488 91.2354 291.407 90.8733 291.407 90.347V88.8406H290.981V88.015H291.407V87.0083H292.377V88.015H293.27V88.8406ZM296.674 89.1448V90.6512C296.686 90.767 296.707 90.8491 296.735 90.8974C296.763 90.9408 296.823 90.9722 296.916 90.9915L296.888 91.723C296.638 91.723 296.441 91.7061 296.292 91.6723C296.147 91.6385 295.998 91.5709 295.849 91.4695C295.503 91.6385 295.149 91.723 294.787 91.723C294.039 91.723 293.664 91.3271 293.664 90.5353C293.664 90.149 293.765 89.8762 293.974 89.7169C294.184 89.5527 294.501 89.4562 294.932 89.4272L295.705 89.3693V89.1448C295.705 88.9951 295.672 88.8937 295.604 88.8406C295.536 88.7827 295.427 88.7537 295.278 88.7537L293.918 88.8116L293.886 88.1381C294.405 87.9981 294.896 87.9281 295.358 87.9281C295.825 87.9281 296.163 88.0246 296.364 88.2178C296.574 88.4109 296.674 88.7199 296.674 89.1448ZM295.045 90.1008C294.775 90.1249 294.642 90.2697 294.642 90.5353C294.642 90.8008 294.759 90.9336 294.996 90.9336C295.177 90.9336 295.379 90.9046 295.596 90.8467L295.705 90.8177V90.0428L295.045 90.1008ZM299.608 88.8406H298.714V90.3253C298.714 90.4701 298.718 90.5739 298.722 90.6367C298.735 90.6946 298.759 90.7453 298.803 90.7888C298.851 90.8322 298.924 90.854 299.02 90.854L299.571 90.8395L299.616 91.6144C299.29 91.6868 299.044 91.723 298.875 91.723C298.441 91.723 298.143 91.6264 297.986 91.4333C297.825 91.2354 297.745 90.8733 297.745 90.347V88.8406H297.318V88.015H297.745V87.0083H298.714V88.015H299.608V88.8406ZM303.012 89.1448V90.6512C303.024 90.767 303.044 90.8491 303.072 90.8974C303.1 90.9408 303.161 90.9722 303.253 90.9915L303.225 91.723C302.976 91.723 302.779 91.7061 302.63 91.6723C302.485 91.6385 302.336 91.5709 302.187 91.4695C301.841 91.6385 301.487 91.723 301.125 91.723C300.376 91.723 300.002 91.3271 300.002 90.5353C300.002 90.149 300.103 89.8762 300.312 89.7169C300.521 89.5527 300.839 89.4562 301.27 89.4272L302.042 89.3693V89.1448C302.042 88.9951 302.01 88.8937 301.942 88.8406C301.873 88.7827 301.764 88.7537 301.616 88.7537L300.256 88.8116L300.223 88.1381C300.742 87.9981 301.233 87.9281 301.696 87.9281C302.163 87.9281 302.501 88.0246 302.702 88.2178C302.911 88.4109 303.012 88.7199 303.012 89.1448ZM301.382 90.1008C301.113 90.1249 300.98 90.2697 300.98 90.5353C300.98 90.8008 301.097 90.9336 301.334 90.9336C301.515 90.9336 301.716 90.9046 301.934 90.8467L302.042 90.8177V90.0428L301.382 90.1008Z" fill="#17324D"/>
<path d="M359.873 104.109H231.109V104.914H359.873V104.109Z" fill="#17324D"/>
<g filter="url(#filter1_d_40000356_3227)">
<path d="M181.214 126.64H71.7647C66.4311 126.64 62.1074 130.964 62.1074 136.297V345.518C62.1074 350.851 66.4311 355.174 71.7647 355.174H181.214C186.547 355.174 190.871 350.851 190.871 345.518V136.297C190.871 130.964 186.547 126.64 181.214 126.64Z" fill="white"/>
<path d="M121.979 229.179C121.609 229.179 121.307 229.476 121.307 229.847V231.798C121.307 232.168 121.609 232.47 121.979 232.47C122.349 232.47 122.647 232.168 122.647 231.798V229.847C122.647 229.476 122.349 229.179 121.979 229.179Z" fill="#768594"/>
<path d="M131 232.47C131.371 232.47 131.673 232.168 131.673 231.798V229.847C131.673 229.476 131.371 229.179 131 229.179C130.63 229.179 130.328 229.476 130.328 229.847V231.798C130.328 232.168 130.63 232.47 131 232.47Z" fill="#768594"/>
<path d="M130.988 237.423C130.727 237.161 130.3 237.161 130.039 237.423C129.093 238.368 127.83 238.891 126.49 238.891C125.15 238.891 123.89 238.368 122.941 237.423C122.679 237.161 122.253 237.161 121.991 237.423C121.73 237.684 121.73 238.107 121.991 238.368C123.194 239.571 124.792 240.231 126.49 240.231C128.188 240.231 129.785 239.571 130.988 238.368C131.25 238.107 131.25 237.684 130.988 237.423Z" fill="#768594"/>
<path d="M125.736 235.986C126.952 235.986 127.768 235.17 127.768 233.955V229.847C127.768 229.476 127.471 229.179 127.097 229.179C126.726 229.179 126.429 229.476 126.429 229.847V233.955C126.429 234.566 126.058 234.643 125.736 234.643C125.366 234.643 125.064 234.944 125.064 235.315C125.064 235.685 125.366 235.986 125.736 235.986Z" fill="#768594"/>
<path d="M115.09 230.519C115.46 230.519 115.758 230.221 115.758 229.847V226.423C115.758 224.278 117.504 222.532 119.649 222.532H121.858C122.228 222.532 122.526 222.234 122.526 221.864C122.526 221.494 122.228 221.192 121.854 221.192H119.649C116.764 221.192 114.418 223.538 114.418 226.423V229.851C114.418 230.221 114.72 230.519 115.09 230.519Z" fill="#768594"/>
<path d="M121.854 243.993H119.649C117.504 243.993 115.758 242.247 115.758 240.102V236.678C115.758 236.304 115.46 236.007 115.09 236.007C114.72 236.007 114.418 236.304 114.418 236.678V240.102C114.418 242.987 116.764 245.333 119.649 245.333H121.858C122.228 245.333 122.526 245.031 122.526 244.661C122.526 244.291 122.228 243.993 121.854 243.993Z" fill="#768594"/>
<path d="M133.33 221.192H131.121C130.751 221.192 130.453 221.494 130.453 221.864C130.453 222.234 130.751 222.532 131.121 222.532H133.33C135.475 222.532 137.221 224.278 137.221 226.423V229.851C137.221 230.221 137.519 230.519 137.889 230.519C138.259 230.519 138.561 230.221 138.561 229.851V226.423C138.561 223.538 136.215 221.192 133.33 221.192Z" fill="#768594"/>
<path d="M137.889 236.007C137.519 236.007 137.221 236.304 137.221 236.678V240.102C137.221 242.247 135.475 243.993 133.33 243.993H131.121C130.751 243.993 130.453 244.291 130.453 244.661C130.453 245.031 130.751 245.333 131.121 245.333H133.33C136.215 245.333 138.561 242.987 138.561 240.102V236.678C138.561 236.304 138.259 236.007 137.889 236.007Z" fill="#768594"/>
<path d="M118.518 258.208V254.309H120.851V254.692H118.952V256.212H120.558V256.599H118.952V258.208H118.518ZM123.209 256.241V257.685C123.222 257.822 123.33 257.906 123.539 257.931L123.519 258.264C123.226 258.264 123 258.188 122.851 258.039C122.513 258.188 122.175 258.264 121.837 258.264C121.576 258.264 121.379 258.192 121.246 258.043C121.109 257.898 121.041 257.689 121.041 257.416C121.041 257.138 121.113 256.941 121.25 256.812C121.391 256.679 121.608 256.599 121.906 256.571L122.787 256.486V256.241C122.787 256.052 122.747 255.915 122.666 255.83C122.582 255.75 122.469 255.706 122.328 255.706C122.026 255.706 121.713 255.726 121.391 255.762L121.218 255.782L121.202 255.46C121.612 255.376 121.978 255.335 122.3 255.335C122.618 255.335 122.847 255.408 122.992 255.557C123.137 255.702 123.209 255.931 123.209 256.241ZM121.475 257.391C121.475 257.737 121.62 257.91 121.906 257.91C122.159 257.91 122.413 257.866 122.658 257.782L122.787 257.733V256.804L121.954 256.884C121.785 256.9 121.664 256.949 121.588 257.029C121.515 257.114 121.475 257.234 121.475 257.391ZM125.097 255.335C125.221 255.335 125.431 255.36 125.728 255.404L125.865 255.42L125.849 255.762C125.547 255.73 125.326 255.714 125.181 255.714C124.863 255.714 124.646 255.79 124.529 255.943C124.417 256.096 124.36 256.377 124.36 256.788C124.36 257.198 124.413 257.484 124.517 257.645C124.626 257.806 124.851 257.886 125.189 257.886L125.853 257.838L125.869 258.184C125.519 258.236 125.262 258.264 125.089 258.264C124.646 258.264 124.344 258.152 124.175 257.926C124.01 257.701 123.926 257.323 123.926 256.788C123.926 256.253 124.018 255.875 124.195 255.661C124.376 255.444 124.678 255.335 125.097 255.335ZM128.38 257.858L128.545 257.842L128.557 258.176C128.127 258.236 127.76 258.264 127.459 258.264C127.052 258.264 126.762 258.148 126.593 257.914C126.424 257.677 126.34 257.311 126.34 256.816C126.34 255.83 126.734 255.335 127.519 255.335C127.897 255.335 128.183 255.444 128.368 255.657C128.557 255.866 128.65 256.2 128.65 256.655L128.63 256.973H126.771C126.771 257.287 126.827 257.516 126.94 257.669C127.052 257.818 127.245 257.894 127.523 257.894C127.805 257.894 128.09 257.882 128.38 257.858ZM128.227 256.635C128.227 256.293 128.171 256.048 128.058 255.903C127.949 255.762 127.768 255.689 127.519 255.689C127.27 255.689 127.084 255.766 126.956 255.915C126.831 256.068 126.766 256.305 126.762 256.635H128.227ZM130.621 258.208V254.309H131.056V258.208H130.621ZM133.398 258.208H132.006V254.309H133.398C134.034 254.309 134.452 254.563 134.661 255.066C134.782 255.355 134.842 255.734 134.842 256.204C134.842 257.182 134.597 257.802 134.11 258.055C133.913 258.156 133.675 258.208 133.398 258.208ZM134.396 256.204C134.396 255.456 134.227 254.989 133.893 254.804C133.76 254.732 133.595 254.692 133.398 254.692H132.44V257.826H133.398C134.062 257.826 134.396 257.283 134.396 256.204Z" fill="#5C6F82"/>
</g>
<path d="M62.2324 91.6361L63.339 86.7114H65.2382L66.3448 91.6361H65.3469L65.1497 90.7453H63.4275L63.2303 91.6361H62.2324ZM64.1156 87.537L63.6126 89.8762H64.9606L64.4617 87.537H64.1156ZM69.0488 88.015H70.0226V91.6361H69.0569V91.4333C68.7108 91.6264 68.409 91.723 68.1515 91.723C67.6485 91.723 67.3105 91.5854 67.1375 91.3102C66.9645 91.0302 66.876 90.5642 66.876 89.9124V88.015H67.8497V89.9269C67.8497 90.2842 67.8779 90.528 67.9342 90.6584C67.9946 90.7888 68.1314 90.854 68.3567 90.854C68.566 90.854 68.7671 90.8201 68.9563 90.7526L69.0488 90.7236V88.015ZM72.9237 88.8406H72.0345V90.3253C72.0345 90.4701 72.0345 90.5739 72.0385 90.6367C72.0506 90.6946 72.0747 90.7453 72.119 90.7888C72.1673 90.8322 72.2397 90.854 72.3363 90.854L72.8876 90.8395L72.9318 91.6144C72.6059 91.6868 72.3605 91.723 72.1915 91.723C71.7569 91.723 71.4591 91.6264 71.3022 91.4333C71.1413 91.2354 71.0607 90.8733 71.0607 90.347V88.8406H70.6342V88.015H71.0607V87.0083H72.0345V88.015H72.9237V88.8406ZM73.7527 88.4278C74.0062 88.0946 74.4328 87.9281 75.0323 87.9281C75.6319 87.9281 76.0584 88.0946 76.3159 88.4278C76.5694 88.7561 76.6982 89.2196 76.6982 89.8183C76.6982 91.0881 76.1429 91.723 75.0323 91.723C73.9217 91.723 73.3664 91.0881 73.3664 89.8183C73.3664 89.2196 73.4951 88.7561 73.7527 88.4278ZM74.4971 90.6367C74.5977 90.8105 74.7788 90.8974 75.0323 90.8974C75.2899 90.8974 75.4668 90.8105 75.5634 90.6367C75.664 90.4629 75.7123 90.1901 75.7123 89.8183C75.7123 89.4465 75.664 89.1761 75.5634 89.0072C75.4668 88.8382 75.2899 88.7537 75.0323 88.7537C74.7788 88.7537 74.5977 88.8382 74.4971 89.0072C74.4006 89.1761 74.3522 89.4465 74.3522 89.8183C74.3522 90.1901 74.4006 90.4629 74.4971 90.6367ZM77.4104 91.6361V88.015H78.3721V88.3988C78.7785 88.1574 79.1648 88.0005 79.531 87.9281V88.9058C79.1407 88.9878 78.8067 89.0723 78.525 89.1592L78.3801 89.2099V91.6361H77.4104ZM80.1064 91.6361V88.015H81.0761V91.6361H80.1064ZM80.1064 87.5515V86.5665H81.0761V87.5515H80.1064ZM81.8205 88.884V88.015H84.5084V88.884L82.9874 90.767H84.5084V91.6361H81.8205V90.767L83.3416 88.884H81.8205ZM85.108 88.884V88.015H87.796V88.884L86.275 90.767H87.796V91.6361H85.108V90.767L86.629 88.884H85.108ZM91.3249 89.1448V90.6512C91.333 90.767 91.353 90.8491 91.3812 90.8974C91.4134 90.9408 91.4737 90.9722 91.5623 90.9915L91.5341 91.723C91.2886 91.723 91.0915 91.7061 90.9426 91.6723C90.7977 91.6385 90.6489 91.5709 90.5 91.4695C90.1499 91.6385 89.7958 91.723 89.4336 91.723C88.6852 91.723 88.3111 91.3271 88.3111 90.5353C88.3111 90.149 88.4156 89.8762 88.6248 89.7169C88.83 89.5527 89.148 89.4562 89.5785 89.4272L90.3551 89.3693V89.1448C90.3551 88.9951 90.3189 88.8937 90.2545 88.8406C90.1861 88.7827 90.0774 88.7537 89.9286 88.7537L88.5645 88.8116L88.5363 88.1381C89.0514 87.9981 89.5423 87.9281 90.0051 87.9281C90.4759 87.9281 90.8099 88.0246 91.0151 88.2178C91.2203 88.4109 91.3249 88.7199 91.3249 89.1448ZM89.6952 90.1008C89.4256 90.1249 89.2888 90.2697 89.2888 90.5353C89.2888 90.8008 89.4095 90.9336 89.6429 90.9336C89.828 90.9336 90.0292 90.9046 90.2465 90.8467L90.3551 90.8177V90.0428L89.6952 90.1008ZM92.0975 88.884V88.015H94.7854V88.884L93.2643 90.767H94.7854V91.6361H92.0975V90.767L93.6185 88.884H92.0975ZM95.5379 91.6361V88.015H96.5076V91.6361H95.5379ZM95.5379 87.5515V86.5665H96.5076V87.5515H95.5379ZM97.6021 88.4278C97.8596 88.0946 98.2861 87.9281 98.8857 87.9281C99.4812 87.9281 99.9118 88.0946 100.165 88.4278C100.423 88.7561 100.552 89.2196 100.552 89.8183C100.552 91.0881 99.9962 91.723 98.8857 91.723C97.7751 91.723 97.2198 91.0881 97.2198 89.8183C97.2198 89.2196 97.3446 88.7561 97.6021 88.4278ZM98.3465 90.6367C98.4511 90.8105 98.6281 90.8974 98.8857 90.8974C99.1392 90.8974 99.3162 90.8105 99.4128 90.6367C99.5134 90.4629 99.5658 90.1901 99.5658 89.8183C99.5658 89.4465 99.5134 89.1761 99.4128 89.0072C99.3162 88.8382 99.1392 88.7537 98.8857 88.7537C98.6281 88.7537 98.4511 88.8382 98.3465 89.0072C98.25 89.1761 98.2016 89.4465 98.2016 89.8183C98.2016 90.1901 98.25 90.4629 98.3465 90.6367ZM102.234 91.6361H101.26V88.015H102.225V88.2178C102.551 88.0246 102.853 87.9281 103.131 87.9281C103.614 87.9281 103.948 88.0705 104.129 88.3554C104.314 88.6402 104.406 89.0796 104.406 89.6735V91.6361H103.433V89.7024C103.433 89.3934 103.396 89.1665 103.324 89.0217C103.252 88.872 103.107 88.7971 102.889 88.7971C102.692 88.7971 102.503 88.8309 102.318 88.8985L102.234 88.9275V91.6361ZM106.06 90.2383C106.064 90.4604 106.125 90.6222 106.233 90.7236C106.35 90.8201 106.515 90.8684 106.728 90.8684C107.175 90.8684 107.577 90.8539 107.931 90.825L108.132 90.8032L108.149 91.5202C107.593 91.6554 107.09 91.723 106.64 91.723C106.096 91.723 105.698 91.5782 105.453 91.2885C105.207 90.9988 105.082 90.528 105.082 89.8762C105.082 88.5774 105.618 87.9281 106.684 87.9281C107.738 87.9281 108.261 88.4736 108.261 89.5648L108.189 90.2383H106.06ZM107.308 89.4996C107.308 89.2099 107.259 89.0096 107.171 88.8985C107.078 88.7826 106.917 88.7247 106.684 88.7247C106.459 88.7247 106.294 88.7851 106.197 88.9058C106.109 89.0216 106.06 89.2196 106.052 89.4996H107.308ZM110.744 88.4278C111.002 88.0946 111.428 87.9281 112.028 87.9281C112.623 87.9281 113.054 88.0946 113.307 88.4278C113.565 88.7561 113.693 89.2196 113.693 89.8183C113.693 91.0881 113.138 91.723 112.028 91.723C110.917 91.723 110.362 91.0881 110.362 89.8183C110.362 89.2196 110.487 88.7561 110.744 88.4278ZM111.488 90.6367C111.593 90.8105 111.77 90.8974 112.028 90.8974C112.281 90.8974 112.458 90.8105 112.555 90.6367C112.655 90.4629 112.708 90.1901 112.708 89.8183C112.708 89.4465 112.655 89.1761 112.555 89.0072C112.458 88.8382 112.281 88.7537 112.028 88.7537C111.77 88.7537 111.593 88.8382 111.488 89.0072C111.392 89.1761 111.344 89.4465 111.344 89.8183C111.344 90.1901 111.392 90.4629 111.488 90.6367ZM114.402 93.157V88.015H115.367V88.2105C115.681 88.0222 115.955 87.9281 116.192 87.9281C116.679 87.9281 117.041 88.0753 117.271 88.3698C117.504 88.6595 117.621 89.1544 117.621 89.8545C117.621 90.5546 117.492 91.0422 117.234 91.3174C116.981 91.5878 116.559 91.723 115.975 91.723C115.814 91.723 115.645 91.7085 115.46 91.6795L115.375 91.6651V93.157H114.402ZM116.003 88.7971C115.826 88.7971 115.645 88.8333 115.46 88.9058L115.375 88.942V90.8395C115.593 90.8684 115.766 90.8829 115.903 90.8829C116.184 90.8829 116.373 90.8008 116.474 90.6367C116.583 90.4725 116.635 90.1925 116.635 89.7966C116.635 89.1303 116.426 88.7971 116.003 88.7971ZM119.138 90.2383C119.146 90.4604 119.202 90.6222 119.315 90.7236C119.427 90.8201 119.592 90.8684 119.806 90.8684C120.256 90.8684 120.655 90.8539 121.009 90.825L121.21 90.8032L121.226 91.5202C120.671 91.6554 120.168 91.723 119.717 91.723C119.174 91.723 118.776 91.5782 118.53 91.2885C118.285 90.9988 118.16 90.528 118.16 89.8762C118.16 88.5774 118.695 87.9281 119.761 87.9281C120.816 87.9281 121.343 88.4736 121.343 89.5648L121.27 90.2383H119.138ZM120.385 89.4996C120.385 89.2099 120.341 89.0096 120.248 88.8985C120.156 88.7826 119.995 88.7247 119.761 88.7247C119.536 88.7247 119.375 88.7851 119.279 88.9058C119.186 89.0216 119.138 89.2196 119.134 89.4996H120.385ZM122.035 91.6361V88.015H122.997V88.3988C123.403 88.1574 123.789 88.0005 124.155 87.9281V88.9058C123.765 88.9878 123.431 89.0723 123.15 89.1592L123.005 89.2099V91.6361H122.035ZM127.503 89.1448V90.6512C127.515 90.767 127.532 90.8491 127.564 90.8974C127.592 90.9408 127.652 90.9722 127.745 90.9915L127.713 91.723C127.467 91.723 127.27 91.7061 127.121 91.6723C126.976 91.6385 126.827 91.5709 126.678 91.4695C126.332 91.6385 125.974 91.723 125.612 91.723C124.864 91.723 124.49 91.3271 124.49 90.5353C124.49 90.149 124.594 89.8762 124.803 89.7169C125.009 89.5527 125.33 89.4562 125.757 89.4272L126.534 89.3693V89.1448C126.534 88.9951 126.501 88.8937 126.433 88.8406C126.365 88.7827 126.256 88.7537 126.107 88.7537L124.743 88.8116L124.715 88.1381C125.234 87.9981 125.721 87.9281 126.188 87.9281C126.654 87.9281 126.988 88.0246 127.194 88.2178C127.399 88.4109 127.503 88.7199 127.503 89.1448ZM125.874 90.1008C125.604 90.1249 125.467 90.2697 125.467 90.5353C125.467 90.8008 125.588 90.9336 125.825 90.9336C126.007 90.9336 126.208 90.9046 126.425 90.8467L126.534 90.8177V90.0428L125.874 90.1008ZM128.276 88.884V88.015H130.964V88.884L129.443 90.767H130.964V91.6361H128.276V90.767L129.797 88.884H128.276ZM131.716 91.6361V88.015H132.69V91.6361H131.716ZM131.716 87.5515V86.5665H132.69V87.5515H131.716ZM133.781 88.4278C134.038 88.0946 134.465 87.9281 135.064 87.9281C135.664 87.9281 136.09 88.0946 136.344 88.4278C136.601 88.7561 136.73 89.2196 136.73 89.8183C136.73 91.0881 136.175 91.723 135.064 91.723C133.954 91.723 133.398 91.0881 133.398 89.8183C133.398 89.2196 133.527 88.7561 133.781 88.4278ZM134.529 90.6367C134.63 90.8105 134.807 90.8974 135.064 90.8974C135.318 90.8974 135.495 90.8105 135.591 90.6367C135.692 90.4629 135.744 90.1901 135.744 89.8183C135.744 89.4465 135.692 89.1761 135.591 89.0072C135.495 88.8382 135.318 88.7537 135.064 88.7537C134.807 88.7537 134.63 88.8382 134.529 89.0072C134.432 89.1761 134.384 89.4465 134.384 89.8183C134.384 90.1901 134.432 90.4629 134.529 90.6367ZM138.412 91.6361H137.442V88.015H138.404V88.2178C138.734 88.0246 139.036 87.9281 139.309 87.9281C139.792 87.9281 140.126 88.0705 140.307 88.3554C140.492 88.6402 140.585 89.0796 140.585 89.6735V91.6361H139.615V89.7024C139.615 89.3934 139.579 89.1665 139.507 89.0217C139.434 88.872 139.289 88.7971 139.072 88.7971C138.871 88.7971 138.682 88.8309 138.497 88.8985L138.412 88.9275V91.6361ZM142.239 90.2383C142.247 90.4604 142.303 90.6222 142.416 90.7236C142.528 90.8201 142.693 90.8684 142.907 90.8684C143.357 90.8684 143.756 90.8539 144.11 90.825L144.311 90.8032L144.327 91.5202C143.772 91.6554 143.269 91.723 142.818 91.723C142.275 91.723 141.877 91.5782 141.631 91.2885C141.386 90.9988 141.261 90.528 141.261 89.8762C141.261 88.5774 141.796 87.9281 142.862 87.9281C143.917 87.9281 144.444 88.4736 144.444 89.5648L144.371 90.2383H142.239ZM143.486 89.4996C143.486 89.2099 143.442 89.0096 143.349 88.8985C143.257 88.7826 143.096 88.7247 142.862 88.7247C142.637 88.7247 142.476 88.7851 142.38 88.9058C142.287 89.0216 142.239 89.2196 142.235 89.4996H143.486Z" fill="#17324D"/>
<path d="M190.871 104.109H62.1074V104.914H190.871V104.109Z" fill="#17324D"/>
<path d="M189.262 240.907C189.262 241.796 189.982 242.517 190.871 242.517C191.761 242.517 192.481 241.796 192.481 240.907C192.481 240.018 191.761 239.298 190.871 239.298C189.982 239.298 189.262 240.018 189.262 240.907ZM231.323 241.12C231.44 241.004 231.44 240.811 231.323 240.694L229.404 238.775C229.283 238.654 229.094 238.654 228.977 238.775C228.856 238.891 228.856 239.081 228.977 239.201L230.683 240.907L228.977 242.613C228.856 242.734 228.856 242.923 228.977 243.04C229.094 243.16 229.283 243.16 229.404 243.04L231.323 241.12ZM190.871 240.907V241.209H231.11V240.907V240.605H190.871V240.907Z" fill="#004080"/>
<path d="M13.418 310.767C13.418 311.656 14.1382 312.376 15.0275 312.376C15.9168 312.376 16.6371 311.656 16.6371 310.767C16.6371 309.878 15.9168 309.157 15.0275 309.157C14.1382 309.157 13.418 309.878 13.418 310.767ZM62.3199 239.913C62.4366 239.797 62.4366 239.604 62.3199 239.487L60.4005 237.568C60.2798 237.447 60.0907 237.447 59.974 237.568C59.8532 237.684 59.8532 237.874 59.974 237.994L61.6801 239.7L59.974 241.406C59.8532 241.527 59.8532 241.716 59.974 241.833C60.0907 241.953 60.2798 241.953 60.4005 241.833L62.3199 239.913ZM15.0275 310.767V311.069L31.3241 311.169L31.3282 310.867V310.566L15.0275 310.465V310.767ZM39.4241 302.821H39.7259V247.747H39.4241H39.1223V302.821H39.4241ZM47.4718 239.7V240.002H62.1066V239.7V239.398H47.4718V239.7ZM39.4241 247.747H39.7259C39.7259 243.47 43.1945 240.002 47.4718 240.002V239.7V239.398C42.8605 239.398 39.1223 243.136 39.1223 247.747H39.4241ZM31.3282 310.867L31.3241 311.169C35.9556 311.197 39.7259 307.452 39.7259 302.821H39.4241H39.1223C39.1223 307.114 35.6256 310.59 31.3282 310.566V310.867Z" fill="#004080"/>
<g filter="url(#filter2_d_40000356_3227)">
<path d="M350.216 126.64H240.767C235.433 126.64 231.109 130.964 231.109 136.297V345.518C231.109 350.851 235.433 355.174 240.767 355.174H350.216C355.549 355.174 359.873 350.851 359.873 345.518V136.297C359.873 130.964 355.549 126.64 350.216 126.64Z" fill="white"/>
<path d="M239.105 214.867L240.465 209.355H242.244L243.612 214.867H242.711L242.413 213.684H240.297L239.999 214.867H239.105ZM241.158 210.103L240.474 212.896H242.236L241.56 210.103H241.158ZM246.356 211.592H245.246V213.362C245.246 213.692 245.27 213.91 245.318 214.014C245.367 214.123 245.491 214.175 245.688 214.175L246.348 214.151L246.389 214.851C246.03 214.924 245.757 214.956 245.568 214.956C245.113 214.956 244.799 214.851 244.626 214.642C244.461 214.433 244.377 214.038 244.377 213.459V211.592H243.862V210.844H244.377V209.677H245.246V210.844H246.356V211.592ZM249.242 211.592H248.131V213.362C248.131 213.692 248.155 213.91 248.203 214.014C248.252 214.123 248.372 214.175 248.574 214.175L249.233 214.151L249.274 214.851C248.912 214.924 248.638 214.956 248.453 214.956C247.994 214.956 247.68 214.851 247.511 214.642C247.342 214.433 247.262 214.038 247.262 213.459V211.592H246.747V210.844H247.262V209.677H248.131V210.844H249.242V211.592ZM249.962 214.867V210.844H250.839V214.867H249.962ZM249.962 210.16V209.234H250.839V210.16H249.962ZM251.523 210.844H252.44L253.213 214.119H253.471L254.275 210.844H255.169L254.122 214.867H252.561L251.523 210.844ZM258.778 212.083V213.918C258.782 214.038 258.81 214.127 258.867 214.183C258.923 214.24 259.011 214.272 259.132 214.288L259.108 214.956C258.645 214.956 258.287 214.859 258.038 214.658C257.607 214.859 257.177 214.956 256.742 214.956C255.941 214.956 255.543 214.529 255.543 213.676C255.543 213.27 255.648 212.976 255.865 212.791C256.082 212.61 256.42 212.501 256.871 212.461L257.909 212.373V212.083C257.909 211.87 257.861 211.721 257.764 211.632C257.671 211.548 257.535 211.504 257.354 211.504C257.008 211.504 256.581 211.528 256.066 211.568L255.808 211.584L255.776 210.964C256.36 210.828 256.895 210.755 257.386 210.755C257.877 210.755 258.231 210.864 258.448 211.077C258.665 211.286 258.778 211.624 258.778 212.083ZM256.975 213.081C256.605 213.113 256.42 213.314 256.42 213.684C256.42 214.054 256.581 214.24 256.911 214.24C257.177 214.24 257.462 214.199 257.764 214.111L257.909 214.063V212.992L256.975 213.081ZM259.675 211.624V210.844H262.661V211.624L260.73 214.087H262.661V214.867H259.675V214.087L261.615 211.624H259.675ZM263.534 214.867V210.844H264.411V214.867H263.534ZM263.534 210.16V209.234H264.411V210.16H263.534ZM265.691 211.278C265.969 210.932 266.431 210.755 267.075 210.755C267.719 210.755 268.178 210.932 268.451 211.278C268.729 211.628 268.87 212.151 268.87 212.847C268.87 213.548 268.737 214.071 268.468 214.425C268.198 214.779 267.735 214.956 267.075 214.956C266.415 214.956 265.953 214.779 265.683 214.425C265.413 214.071 265.281 213.548 265.281 212.847C265.281 212.151 265.417 211.628 265.691 211.278ZM266.351 213.894C266.476 214.111 266.717 214.215 267.075 214.215C267.433 214.215 267.675 214.111 267.8 213.894C267.924 213.68 267.985 213.33 267.985 212.839C267.985 212.353 267.916 212.007 267.783 211.801C267.655 211.6 267.417 211.496 267.075 211.496C266.733 211.496 266.492 211.6 266.359 211.801C266.23 212.007 266.166 212.353 266.166 212.839C266.166 213.33 266.226 213.68 266.351 213.894ZM270.62 214.867H269.743V210.844H270.612V211.093C271.002 210.868 271.373 210.755 271.723 210.755C272.258 210.755 272.624 210.908 272.817 211.214C273.014 211.516 273.115 212.015 273.115 212.711V214.867H272.246V212.735C272.246 212.3 272.198 211.994 272.101 211.809C272.009 211.628 271.819 211.536 271.53 211.536C271.256 211.536 270.99 211.592 270.741 211.697L270.62 211.745V214.867ZM276.998 214.143L277.223 214.119L277.239 214.771C276.628 214.895 276.089 214.956 275.614 214.956C275.018 214.956 274.592 214.795 274.326 214.465C274.069 214.139 273.94 213.616 273.94 212.896C273.94 211.471 274.523 210.755 275.686 210.755C276.813 210.755 277.376 211.371 277.376 212.598L277.32 213.226H274.825C274.833 213.56 274.906 213.805 275.042 213.958C275.183 214.115 275.445 214.191 275.823 214.191C276.205 214.191 276.596 214.175 276.998 214.143ZM276.515 212.55C276.515 212.155 276.451 211.878 276.322 211.721C276.201 211.56 275.988 211.479 275.686 211.479C275.389 211.479 275.167 211.564 275.026 211.729C274.894 211.898 274.825 212.172 274.817 212.55H276.515ZM280.092 214.867V209.355H280.986V214.867H280.092ZM281.726 210.152V209.355H285.75V210.152H284.197V214.867H283.295V210.152H281.726ZM285.867 213.097V212.3H288.273V213.097H285.867ZM288.824 209.355H289.766L290.554 214.095H290.723L291.77 209.371H292.816L293.862 214.095H294.039L294.828 209.355H295.769L294.683 214.867H293.242L292.293 210.449L291.351 214.867H289.903L288.824 209.355ZM299.355 212.083V213.918C299.359 214.038 299.387 214.127 299.443 214.183C299.5 214.24 299.588 214.272 299.709 214.288L299.685 214.956C299.222 214.956 298.864 214.859 298.614 214.658C298.184 214.859 297.753 214.956 297.319 214.956C296.518 214.956 296.119 214.529 296.119 213.676C296.119 213.27 296.224 212.976 296.441 212.791C296.659 212.61 296.997 212.501 297.447 212.461L298.485 212.373V212.083C298.485 211.87 298.437 211.721 298.341 211.632C298.248 211.548 298.111 211.504 297.93 211.504C297.584 211.504 297.158 211.528 296.643 211.568L296.385 211.584L296.353 210.964C296.936 210.828 297.471 210.755 297.962 210.755C298.453 210.755 298.807 210.864 299.025 211.077C299.242 211.286 299.355 211.624 299.355 212.083ZM297.552 213.081C297.182 213.113 296.997 213.314 296.997 213.684C296.997 214.054 297.158 214.24 297.488 214.24C297.753 214.24 298.039 214.199 298.341 214.111L298.485 214.063V212.992L297.552 213.081ZM300.501 214.867V209.17H301.379V214.867H300.501ZM302.537 214.867V209.17H303.415V214.867H302.537ZM307.39 214.143L307.616 214.119L307.632 214.771C307.02 214.895 306.477 214.956 306.006 214.956C305.41 214.956 304.98 214.795 304.718 214.465C304.461 214.139 304.332 213.616 304.332 212.896C304.332 211.471 304.916 210.755 306.079 210.755C307.205 210.755 307.769 211.371 307.769 212.598L307.712 213.226H305.217C305.221 213.56 305.294 213.805 305.435 213.958C305.575 214.115 305.833 214.191 306.215 214.191C306.598 214.191 306.988 214.175 307.39 214.143ZM306.907 212.55C306.907 212.155 306.843 211.878 306.714 211.721C306.589 211.56 306.38 211.479 306.079 211.479C305.777 211.479 305.559 211.564 305.419 211.729C305.286 211.898 305.213 212.172 305.209 212.55H306.907ZM310.778 211.592H309.668V213.362C309.668 213.692 309.692 213.91 309.74 214.014C309.788 214.123 309.909 214.175 310.11 214.175L310.77 214.151L310.811 214.851C310.448 214.924 310.175 214.956 309.99 214.956C309.531 214.956 309.217 214.851 309.048 214.642C308.879 214.433 308.799 214.038 308.799 213.459V211.592H308.284V210.844H308.799V209.677H309.668V210.844H310.778V211.592ZM314.77 210.755C315.056 210.755 315.39 210.795 315.776 210.868L315.977 210.908L315.945 211.6C315.523 211.56 315.209 211.536 315.003 211.536C314.597 211.536 314.323 211.628 314.183 211.809C314.042 211.994 313.973 212.336 313.973 212.839C313.973 213.346 314.042 213.692 314.174 213.885C314.307 214.079 314.589 214.175 315.011 214.175L315.953 214.111L315.977 214.811C315.434 214.907 315.028 214.956 314.754 214.956C314.142 214.956 313.712 214.795 313.458 214.465C313.213 214.135 313.088 213.592 313.088 212.839C313.088 212.091 313.221 211.556 313.482 211.238C313.744 210.916 314.174 210.755 314.77 210.755ZM317.003 211.278C317.281 210.932 317.744 210.755 318.387 210.755C319.031 210.755 319.49 210.932 319.764 211.278C320.041 211.628 320.182 212.151 320.182 212.847C320.182 213.548 320.049 214.071 319.78 214.425C319.51 214.779 319.047 214.956 318.387 214.956C317.728 214.956 317.265 214.779 316.995 214.425C316.726 214.071 316.593 213.548 316.593 212.847C316.593 212.151 316.73 211.628 317.003 211.278ZM317.663 213.894C317.788 214.111 318.029 214.215 318.387 214.215C318.746 214.215 318.987 214.111 319.112 213.894C319.236 213.68 319.297 213.33 319.297 212.839C319.297 212.353 319.228 212.007 319.096 211.801C318.967 211.6 318.729 211.496 318.387 211.496C318.045 211.496 317.804 211.6 317.671 211.801C317.542 212.007 317.478 212.353 317.478 212.839C317.478 213.33 317.538 213.68 317.663 213.894ZM321.932 214.867H321.055V210.844H321.924V211.093C322.303 210.868 322.653 210.755 322.971 210.755C323.437 210.755 323.775 210.888 323.993 211.15C324.48 210.888 324.966 210.755 325.449 210.755C325.932 210.755 326.27 210.908 326.471 211.206C326.669 211.504 326.769 212.003 326.769 212.711V214.867H325.9V212.735C325.9 212.3 325.852 211.994 325.763 211.809C325.675 211.628 325.494 211.536 325.216 211.536C324.975 211.536 324.713 211.592 324.435 211.697L324.299 211.753C324.339 211.862 324.363 212.204 324.363 212.783V214.867H323.494V212.799C323.494 212.324 323.449 211.994 323.365 211.809C323.276 211.628 323.091 211.536 322.802 211.536C322.532 211.536 322.283 211.592 322.053 211.697L321.932 211.745V214.867ZM327.795 216.597V210.844H328.664V211.093C329.035 210.868 329.381 210.755 329.703 210.755C330.234 210.755 330.624 210.92 330.869 211.246C331.119 211.568 331.24 212.115 331.24 212.88C331.24 213.644 331.099 214.179 330.813 214.489C330.535 214.803 330.077 214.956 329.437 214.956C329.22 214.956 328.962 214.932 328.672 214.883V216.597H327.795ZM329.55 211.536C329.3 211.536 329.047 211.592 328.793 211.705L328.672 211.761V214.135C328.89 214.179 329.123 214.199 329.381 214.199C329.747 214.199 330 214.095 330.137 213.885C330.278 213.676 330.346 213.322 330.346 212.815C330.346 211.962 330.081 211.536 329.55 211.536ZM332.169 214.867V209.17H333.046V214.867H332.169ZM337.018 214.143L337.243 214.119L337.259 214.771C336.648 214.895 336.109 214.956 335.634 214.956C335.038 214.956 334.612 214.795 334.346 214.465C334.089 214.139 333.96 213.616 333.96 212.896C333.96 211.471 334.543 210.755 335.706 210.755C336.833 210.755 337.396 211.371 337.396 212.598L337.34 213.226H334.845C334.853 213.56 334.926 213.805 335.062 213.958C335.203 214.115 335.465 214.191 335.843 214.191C336.225 214.191 336.616 214.175 337.018 214.143ZM336.535 212.55C336.535 212.155 336.471 211.878 336.342 211.721C336.221 211.56 336.008 211.479 335.706 211.479C335.408 211.479 335.187 211.564 335.046 211.729C334.913 211.898 334.845 212.172 334.837 212.55H336.535ZM340.406 211.592H339.295V213.362C339.295 213.692 339.32 213.91 339.368 214.014C339.416 214.123 339.541 214.175 339.738 214.175L340.398 214.151L340.438 214.851C340.08 214.924 339.806 214.956 339.617 214.956C339.163 214.956 338.849 214.851 338.676 214.642C338.511 214.433 338.426 214.038 338.426 213.459V211.592H337.911V210.844H338.426V209.677H339.295V210.844H340.406V211.592ZM344.104 212.083V213.918C344.108 214.038 344.136 214.127 344.192 214.183C344.249 214.24 344.337 214.272 344.458 214.288L344.434 214.956C343.971 214.956 343.613 214.859 343.364 214.658C342.933 214.859 342.502 214.956 342.068 214.956C341.267 214.956 340.869 214.529 340.869 213.676C340.869 213.27 340.973 212.976 341.191 212.791C341.408 212.61 341.746 212.501 342.197 212.461L343.235 212.373V212.083C343.235 211.87 343.187 211.721 343.09 211.632C342.997 211.548 342.861 211.504 342.679 211.504C342.333 211.504 341.907 211.528 341.392 211.568L341.134 211.584L341.102 210.964C341.686 210.828 342.221 210.755 342.712 210.755C343.203 210.755 343.557 210.864 343.774 211.077C343.991 211.286 344.104 211.624 344.104 212.083ZM342.301 213.081C341.931 213.113 341.746 213.314 341.746 213.684C341.746 214.054 341.907 214.24 342.237 214.24C342.502 214.24 342.788 214.199 343.09 214.111L343.235 214.063V212.992L342.301 213.081ZM347.367 211.592H346.257V213.362C346.257 213.692 346.281 213.91 346.329 214.014C346.377 214.123 346.502 214.175 346.699 214.175L347.359 214.151L347.399 214.851C347.041 214.924 346.768 214.956 346.579 214.956C346.124 214.956 345.81 214.851 345.637 214.642C345.472 214.433 345.388 214.038 345.388 213.459V211.592H344.872V210.844H345.388V209.677H346.257V210.844H347.367V211.592ZM351.065 212.083V213.918C351.073 214.038 351.101 214.127 351.154 214.183C351.214 214.24 351.303 214.272 351.419 214.288L351.395 214.956C350.936 214.956 350.578 214.859 350.325 214.658C349.898 214.859 349.464 214.956 349.029 214.956C348.232 214.956 347.83 214.529 347.83 213.676C347.83 213.27 347.939 212.976 348.152 212.791C348.373 212.61 348.707 212.501 349.158 212.461L350.196 212.373V212.083C350.196 211.87 350.148 211.721 350.051 211.632C349.963 211.548 349.826 211.504 349.641 211.504C349.299 211.504 348.868 211.528 348.353 211.568L348.096 211.584L348.063 210.964C348.651 210.828 349.186 210.755 349.673 210.755C350.168 210.755 350.522 210.864 350.735 211.077C350.957 211.286 351.065 211.624 351.065 212.083ZM349.262 213.081C348.892 213.113 348.707 213.314 348.707 213.684C348.707 214.054 348.872 214.24 349.198 214.24C349.468 214.24 349.753 214.199 350.051 214.111L350.196 214.063V212.992L349.262 213.081Z" fill="#5C6F82"/>
<path fill-rule="evenodd" clip-rule="evenodd" d="M291.379 249.594C291.066 249.908 290.555 249.908 290.241 249.594L285.291 244.641C285.014 244.363 284.571 244.355 284.285 244.617C283.98 244.898 283.968 245.377 284.265 245.671L290.237 251.602C290.555 251.919 291.066 251.915 291.379 251.597L306.425 236.316C306.666 236.075 306.666 235.681 306.429 235.439C306.183 235.19 305.781 235.186 305.535 235.435L291.379 249.594Z" fill="#768594"/>
<path fill-rule="evenodd" clip-rule="evenodd" d="M244.59 270.681C244.59 269.792 245.31 269.072 246.199 269.072H344.381C345.271 269.072 345.991 269.792 345.991 270.681C345.991 271.57 345.271 272.29 344.381 272.29H246.199C245.31 272.29 244.59 271.57 244.59 270.681Z" fill="#D9DADB" stroke="#768594" stroke-width="0.5"/>
<path fill-rule="evenodd" clip-rule="evenodd" d="M249.586 277.118C249.586 276.229 250.306 275.509 251.195 275.509H339.165C340.054 275.509 340.775 276.229 340.775 277.118C340.775 278.008 340.054 278.728 339.165 278.728H251.195C250.306 278.728 249.586 278.008 249.586 277.118Z" fill="#D9DADB" stroke="#768594" stroke-width="0.5"/>
</g>
</g>
<rect x="46.0082" y="95.9434" width="16.3" height="16.3" rx="8.15" stroke="#17324D" stroke-width="0.7"/>
<path d="M53.6763 104.7C53.6763 105.021 53.6387 105.305 53.5635 105.551C53.4906 105.795 53.3846 105.999 53.2456 106.163C53.1066 106.329 52.9368 106.454 52.7363 106.539C52.5358 106.623 52.3102 106.665 52.0596 106.665C51.8112 106.665 51.5868 106.623 51.3862 106.539C51.1857 106.454 51.016 106.329 50.877 106.163C50.7357 105.999 50.6263 105.795 50.5488 105.551C50.4736 105.305 50.436 105.021 50.436 104.7V103.51C50.436 103.189 50.4736 102.907 50.5488 102.663C50.624 102.417 50.7323 102.21 50.8735 102.044C51.0125 101.88 51.1812 101.756 51.3794 101.672C51.5799 101.587 51.8044 101.545 52.0527 101.545C52.3034 101.545 52.529 101.587 52.7295 101.672C52.93 101.756 53.1009 101.88 53.2422 102.044C53.3812 102.21 53.4883 102.417 53.5635 102.663C53.6387 102.907 53.6763 103.189 53.6763 103.51V104.7ZM51.3931 104.29L52.7192 103.302C52.7147 103.115 52.6942 102.956 52.6577 102.823C52.6235 102.689 52.5723 102.582 52.5039 102.502C52.4515 102.438 52.3866 102.392 52.3091 102.362C52.2339 102.33 52.1484 102.314 52.0527 102.314C51.9456 102.314 51.8511 102.335 51.769 102.376C51.6893 102.414 51.6221 102.474 51.5674 102.553C51.5081 102.638 51.4637 102.747 51.4341 102.881C51.4067 103.016 51.3931 103.175 51.3931 103.36V103.91C51.3931 104.02 51.3931 104.093 51.3931 104.129C51.3931 104.165 51.3931 104.219 51.3931 104.29ZM52.7192 104.843V104.266C52.7192 104.191 52.7192 104.136 52.7192 104.102C52.7192 104.065 52.7192 104.014 52.7192 103.948L51.3931 104.932C51.3976 105.083 51.4124 105.216 51.4375 105.332C51.4648 105.448 51.5024 105.545 51.5503 105.623C51.605 105.716 51.6745 105.786 51.7588 105.831C51.8431 105.877 51.9434 105.9 52.0596 105.9C52.1667 105.9 52.2612 105.88 52.3433 105.841C52.4253 105.8 52.4937 105.739 52.5483 105.657C52.6053 105.57 52.6475 105.46 52.6748 105.325C52.7044 105.189 52.7192 105.028 52.7192 104.843ZM57.1626 101.576V102.365H57.1079C56.8573 102.365 56.6351 102.398 56.4414 102.464C56.25 102.531 56.0871 102.624 55.9526 102.745C55.8159 102.866 55.7077 103.01 55.6279 103.179C55.5505 103.347 55.5015 103.535 55.481 103.743C55.5334 103.686 55.5938 103.63 55.6621 103.575C55.7305 103.518 55.8079 103.467 55.8945 103.422C55.9788 103.378 56.0711 103.343 56.1714 103.316C56.2716 103.288 56.3799 103.275 56.4961 103.275C56.7331 103.275 56.9393 103.32 57.1147 103.411C57.2925 103.5 57.4406 103.621 57.5591 103.774C57.6776 103.929 57.7653 104.109 57.8223 104.314C57.8815 104.516 57.9111 104.731 57.9111 104.956C57.9111 105.198 57.8724 105.422 57.7949 105.63C57.7174 105.837 57.6069 106.017 57.4634 106.17C57.3198 106.322 57.1455 106.443 56.9404 106.532C56.7354 106.618 56.5052 106.662 56.25 106.662C55.9834 106.662 55.743 106.613 55.5288 106.515C55.3146 106.415 55.1335 106.277 54.9854 106.101C54.835 105.926 54.7188 105.718 54.6367 105.479C54.557 105.238 54.5171 104.974 54.5171 104.69V104.324C54.5171 103.93 54.5706 103.565 54.6777 103.23C54.7848 102.893 54.9443 102.601 55.1562 102.355C55.3682 102.111 55.6313 101.921 55.9458 101.784C56.2603 101.645 56.6237 101.576 57.0361 101.576H57.1626ZM56.2192 104.037C56.1281 104.037 56.0426 104.05 55.9629 104.078C55.8831 104.103 55.8102 104.139 55.7441 104.187C55.6872 104.23 55.6348 104.281 55.5869 104.338C55.5413 104.394 55.5026 104.457 55.4707 104.526V104.806C55.4707 104.988 55.4889 105.148 55.5254 105.284C55.5641 105.421 55.6177 105.534 55.686 105.623C55.7544 105.714 55.8353 105.782 55.9287 105.828C56.0221 105.873 56.1235 105.896 56.2329 105.896C56.3446 105.896 56.446 105.873 56.5371 105.828C56.6283 105.78 56.7057 105.715 56.7695 105.633C56.8333 105.551 56.8823 105.454 56.9165 105.342C56.9507 105.228 56.9678 105.104 56.9678 104.97C56.9678 104.835 56.9507 104.711 56.9165 104.597C56.8823 104.483 56.8333 104.384 56.7695 104.3C56.7057 104.218 56.6271 104.154 56.5337 104.109C56.4425 104.061 56.3377 104.037 56.2192 104.037Z" fill="#17324D"/>
<rect x="215.162" y="95.9434" width="16.3" height="16.3" rx="8.15" stroke="#17324D" stroke-width="0.7"/>
<path d="M222.831 104.7C222.831 105.021 222.793 105.305 222.718 105.551C222.645 105.795 222.539 105.999 222.4 106.163C222.261 106.329 222.091 106.454 221.891 106.539C221.69 106.623 221.465 106.665 221.214 106.665C220.965 106.665 220.741 106.623 220.541 106.539C220.34 106.454 220.17 106.329 220.031 106.163C219.89 105.999 219.781 105.795 219.703 105.551C219.628 105.305 219.59 105.021 219.59 104.7V103.51C219.59 103.189 219.628 102.907 219.703 102.663C219.778 102.417 219.887 102.21 220.028 102.044C220.167 101.88 220.335 101.756 220.534 101.672C220.734 101.587 220.959 101.545 221.207 101.545C221.458 101.545 221.683 101.587 221.884 101.672C222.084 101.756 222.255 101.88 222.396 102.044C222.535 102.21 222.643 102.417 222.718 102.663C222.793 102.907 222.831 103.189 222.831 103.51V104.7ZM220.547 104.29L221.874 103.302C221.869 103.115 221.848 102.956 221.812 102.823C221.778 102.689 221.727 102.582 221.658 102.502C221.606 102.438 221.541 102.392 221.463 102.362C221.388 102.33 221.303 102.314 221.207 102.314C221.1 102.314 221.005 102.335 220.923 102.376C220.844 102.414 220.776 102.474 220.722 102.553C220.662 102.638 220.618 102.747 220.588 102.881C220.561 103.016 220.547 103.175 220.547 103.36V103.91C220.547 104.02 220.547 104.093 220.547 104.129C220.547 104.165 220.547 104.219 220.547 104.29ZM221.874 104.843V104.266C221.874 104.191 221.874 104.136 221.874 104.102C221.874 104.065 221.874 104.014 221.874 103.948L220.547 104.932C220.552 105.083 220.567 105.216 220.592 105.332C220.619 105.448 220.657 105.545 220.705 105.623C220.759 105.716 220.829 105.786 220.913 105.831C220.997 105.877 221.098 105.9 221.214 105.9C221.321 105.9 221.416 105.88 221.498 105.841C221.58 105.8 221.648 105.739 221.703 105.657C221.76 105.57 221.802 105.46 221.829 105.325C221.859 105.189 221.874 105.028 221.874 104.843ZM227.045 102.147L225.107 106.593H224.105L226.047 102.393H223.548V101.617H227.045V102.147Z" fill="#17324D"/>
<defs>
<filter id="filter0_d_40000356_3227" x="-126.895" y="129.398" width="168.764" height="268.534" filterUnits="userSpaceOnUse" color-interpolation-filters="sRGB">
<feFlood flood-opacity="0" result="BackgroundImageFix"/>
<feColorMatrix in="SourceAlpha" type="matrix" values="0 0 0 0 0 0 0 0 0 0 0 0 0 0 0 0 0 0 127 0" result="hardAlpha"/>
<feOffset/>
<feGaussianBlur stdDeviation="10"/>
<feComposite in2="hardAlpha" operator="out"/>
<feColorMatrix type="matrix" values="0 0 0 0 0 0 0 0 0 0 0 0 0 0 0 0 0 0 0.2 0"/>
<feBlend mode="normal" in2="BackgroundImageFix" result="effect1_dropShadow_40000356_3227"/>
<feBlend mode="normal" in="SourceGraphic" in2="effect1_dropShadow_40000356_3227" result="shape"/>
</filter>
<filter id="filter1_d_40000356_3227" x="42.1074" y="106.64" width="168.764" height="268.534" filterUnits="userSpaceOnUse" color-interpolation-filters="sRGB">
<feFlood flood-opacity="0" result="BackgroundImageFix"/>
<feColorMatrix in="SourceAlpha" type="matrix" values="0 0 0 0 0 0 0 0 0 0 0 0 0 0 0 0 0 0 127 0" result="hardAlpha"/>
<feOffset/>
<feGaussianBlur stdDeviation="10"/>
<feComposite in2="hardAlpha" operator="out"/>
<feColorMatrix type="matrix" values="0 0 0 0 0 0 0 0 0 0 0 0 0 0 0 0 0 0 0.2 0"/>
<feBlend mode="normal" in2="BackgroundImageFix" result="effect1_dropShadow_40000356_3227"/>
<feBlend mode="normal" in="SourceGraphic" in2="effect1_dropShadow_40000356_3227" result="shape"/>
</filter>
<filter id="filter2_d_40000356_3227" x="211.109" y="106.64" width="168.764" height="268.534" filterUnits="userSpaceOnUse" color-interpolation-filters="sRGB">
<feFlood flood-opacity="0" result="BackgroundImageFix"/>
<feColorMatrix in="SourceAlpha" type="matrix" values="0 0 0 0 0 0 0 0 0 0 0 0 0 0 0 0 0 0 127 0" result="hardAlpha"/>
<feOffset/>
<feGaussianBlur stdDeviation="10"/>
<feComposite in2="hardAlpha" operator="out"/>
<feColorMatrix type="matrix" values="0 0 0 0 0 0 0 0 0 0 0 0 0 0 0 0 0 0 0.2 0"/>
<feBlend mode="normal" in2="BackgroundImageFix" result="effect1_dropShadow_40000356_3227"/>
<feBlend mode="normal" in="SourceGraphic" in2="effect1_dropShadow_40000356_3227" result="shape"/>
</filter>
<clipPath id="clip0_40000356_3227">
<rect width="475" height="384" fill="white" transform="translate(21.6582 31)"/>
</clipPath>
</defs>
</svg>
