<svg width="595" height="412" viewBox="0 0 595 412" fill="none" xmlns="http://www.w3.org/2000/svg">
<g clip-path="url(#clip0_40000384_3832)">
<rect width="595" height="412" fill="white"/>
<g clip-path="url(#clip1_40000384_3832)">
<path d="M-776.726 -912.889C-776.726 -929.896 -762.967 -943.682 -745.995 -943.682H729.474C746.445 -943.682 760.205 -929.896 760.205 -912.889V473.981C760.205 490.987 746.445 504.775 729.474 504.775H-745.995C-762.967 504.775 -776.726 490.987 -776.726 473.981V-912.889Z" fill="white"/>
<path d="M-745.994 -943.682V-942.143H729.474V-943.682V-945.222H-745.994V-943.682ZM760.205 -912.889H758.669V473.981H760.205H761.742V-912.889H760.205ZM729.474 504.775V503.235H-745.994V504.775V506.314H729.474V504.775ZM-776.725 473.981H-775.189V-912.889H-776.725H-778.262V473.981H-776.725ZM-745.994 504.775V503.235C-762.118 503.235 -775.189 490.136 -775.189 473.981H-776.725H-778.262C-778.262 491.838 -763.815 506.314 -745.994 506.314V504.775ZM760.205 473.981H758.669C758.669 490.136 745.597 503.235 729.474 503.235V504.775V506.314C747.294 506.314 761.742 491.838 761.742 473.981H760.205ZM729.474 -943.682V-942.143C745.597 -942.143 758.669 -929.045 758.669 -912.889H760.205H761.742C761.742 -930.746 747.294 -945.222 729.474 -945.222V-943.682ZM-745.994 -943.682V-945.222C-763.815 -945.222 -778.262 -930.746 -778.262 -912.889H-776.725H-775.189C-775.189 -929.045 -762.118 -942.143 -745.994 -942.143V-943.682Z" fill="#0066CC"/>
<path d="M-699.899 36.0452C-699.899 33.0103 -697.148 30.5521 -693.753 30.5521H564.131C567.527 30.5521 570.278 33.0103 570.278 36.0452V379.361C570.278 382.396 567.527 384.854 564.131 384.854H-693.753C-697.148 384.854 -699.899 382.396 -699.899 379.361V36.0452Z" fill="#004080" fill-opacity="0.1"/>
<path d="M213.106 44.0244V37.6963H214.128V44.0244H213.106ZM218.661 40.3561C217.935 40.2599 217.409 40.2099 217.086 40.2099C216.76 40.2099 216.533 40.2483 216.402 40.3291C216.279 40.4023 216.218 40.5217 216.218 40.691C216.218 40.8566 216.287 40.972 216.422 41.0413C216.564 41.1067 216.886 41.1876 217.397 41.28C217.916 41.3685 218.281 41.507 218.496 41.6956C218.711 41.8881 218.819 42.2269 218.819 42.7119C218.819 43.2007 218.661 43.5548 218.346 43.7857C218.039 44.0128 217.589 44.1245 216.994 44.1245C216.617 44.1245 216.145 44.0745 215.573 43.9706L215.288 43.9243L215.323 43.0814C216.06 43.1815 216.594 43.2315 216.917 43.2315C217.244 43.2315 217.474 43.1892 217.609 43.1084C217.751 43.0314 217.824 42.8966 217.824 42.7119C217.824 42.5271 217.754 42.4001 217.62 42.3347C217.489 42.2615 217.174 42.1845 216.671 42.1037C216.172 42.0151 215.807 41.8843 215.573 41.7072C215.338 41.5263 215.223 41.1991 215.223 40.7256C215.223 40.2522 215.381 39.898 215.703 39.6632C216.026 39.4284 216.441 39.313 216.948 39.313C217.34 39.313 217.824 39.363 218.392 39.4592L218.68 39.517L218.661 40.3561ZM222.264 40.2637H220.993V42.2961C220.993 42.6734 221.02 42.9235 221.073 43.0467C221.131 43.1699 221.269 43.2315 221.5 43.2315L222.253 43.2007L222.299 44.0052C221.888 44.086 221.577 44.1245 221.362 44.1245C220.839 44.1245 220.478 44.0052 220.282 43.7666C220.09 43.5241 219.994 43.0737 219.994 42.4078V40.2637H219.406V39.4054H219.994V38.0659H220.993V39.4054H222.264V40.2637ZM226.497 40.8296V42.9351C226.505 43.0698 226.54 43.1699 226.601 43.2392C226.666 43.3008 226.77 43.3393 226.905 43.3585L226.878 44.1245C226.348 44.1245 225.94 44.0128 225.652 43.7857C225.161 44.0128 224.665 44.1245 224.166 44.1245C223.252 44.1245 222.794 43.6356 222.794 42.6579C222.794 42.1883 222.917 41.8496 223.163 41.6418C223.413 41.4301 223.797 41.3069 224.316 41.2607L225.503 41.1606V40.8296C225.503 40.5832 225.449 40.4101 225.337 40.31C225.234 40.2137 225.076 40.1637 224.869 40.1637C224.473 40.1637 223.981 40.1867 223.394 40.2368L223.098 40.256L223.059 39.544C223.732 39.3823 224.346 39.3053 224.903 39.3053C225.468 39.3053 225.875 39.4284 226.121 39.6748C226.375 39.9134 226.497 40.2984 226.497 40.8296ZM224.435 41.9728C224.008 42.0113 223.797 42.2422 223.797 42.6656C223.797 43.0929 223.985 43.3046 224.362 43.3046C224.669 43.3046 224.992 43.2546 225.337 43.1545L225.503 43.1006V41.8727L224.435 41.9728ZM228.764 44.0244H227.761V39.4054H228.756V39.6902C229.206 39.4323 229.628 39.3053 230.028 39.3053C230.642 39.3053 231.061 39.4785 231.284 39.8288C231.51 40.1752 231.622 40.7488 231.622 41.5494V44.0244H230.627V41.5763C230.627 41.0759 230.573 40.7218 230.462 40.5139C230.358 40.306 230.139 40.1983 229.809 40.1983C229.494 40.1983 229.194 40.2599 228.902 40.3831L228.764 40.4408V44.0244ZM232.563 40.3023V39.4054H235.982V40.3023L233.769 43.1275H235.982V44.0244H232.563V43.1275L234.783 40.3023H232.563ZM240.392 40.8296V42.9351C240.396 43.0698 240.43 43.1699 240.492 43.2392C240.561 43.3008 240.661 43.3393 240.795 43.3585L240.768 44.1245C240.242 44.1245 239.831 44.0128 239.543 43.7857C239.051 44.0128 238.556 44.1245 238.06 44.1245C237.142 44.1245 236.685 43.6356 236.685 42.6579C236.685 42.1883 236.808 41.8496 237.054 41.6418C237.307 41.4301 237.691 41.3069 238.206 41.2607L239.397 41.1606V40.8296C239.397 40.5832 239.339 40.4101 239.228 40.31C239.124 40.2137 238.967 40.1637 238.759 40.1637C238.367 40.1637 237.876 40.1867 237.284 40.2368L236.988 40.256L236.954 39.544C237.622 39.3823 238.237 39.3053 238.798 39.3053C239.362 39.3053 239.766 39.4284 240.011 39.6748C240.265 39.9134 240.392 40.2984 240.392 40.8296ZM238.325 41.9728C237.902 42.0113 237.691 42.2422 237.691 42.6656C237.691 43.0929 237.876 43.3046 238.252 43.3046C238.559 43.3046 238.886 43.2546 239.228 43.1545L239.397 43.1006V41.8727L238.325 41.9728ZM247.441 37.4846V44.0244H246.446V43.7857C245.996 44.0128 245.585 44.1245 245.209 44.1245C244.606 44.1245 244.164 43.9436 243.88 43.5818C243.603 43.2161 243.465 42.6079 243.465 41.7534C243.465 40.8951 243.618 40.2753 243.926 39.8865C244.241 39.4978 244.725 39.3053 245.385 39.3053C245.604 39.3053 245.954 39.3438 246.434 39.4246V37.4846H247.441ZM246.277 43.0621L246.434 43.0006V40.2637C246.065 40.2021 245.724 40.1714 245.412 40.1714C244.79 40.1714 244.479 40.691 244.479 41.7226C244.479 42.2923 244.552 42.6849 244.694 42.9082C244.84 43.1237 245.07 43.2315 245.385 43.2315C245.697 43.2315 245.996 43.1737 246.277 43.0621ZM251.939 43.193L252.196 43.1661L252.215 43.9128C251.516 44.0552 250.894 44.1245 250.352 44.1245C249.672 44.1245 249.181 43.9398 248.877 43.5625C248.581 43.1853 248.436 42.5849 248.436 41.7611C248.436 40.1214 249.104 39.3053 250.437 39.3053C251.728 39.3053 252.373 40.0097 252.373 41.4185L252.308 42.1383H249.45C249.457 42.5233 249.538 42.8004 249.699 42.9813C249.857 43.1584 250.156 43.2469 250.594 43.2469C251.028 43.2469 251.478 43.2315 251.939 43.193ZM251.386 41.3647C251.386 40.9066 251.313 40.591 251.163 40.4139C251.025 40.2291 250.779 40.1367 250.437 40.1367C250.091 40.1367 249.841 40.2291 249.68 40.4215C249.526 40.614 249.446 40.9258 249.442 41.3647H251.386ZM253.395 44.0244V37.4846H254.397V44.0244H253.395ZM257.309 37.6963H258.388L259.291 43.1391H259.483L260.682 37.7156H261.88L263.079 43.1391H263.282L264.185 37.6963H265.265L264.02 44.0244H262.372L261.281 38.9512L260.205 44.0244H258.546L257.309 37.6963ZM269.371 40.8296V42.9351C269.379 43.0698 269.413 43.1699 269.475 43.2392C269.54 43.3008 269.644 43.3393 269.778 43.3585L269.751 44.1245C269.221 44.1245 268.814 44.0128 268.526 43.7857C268.034 44.0128 267.539 44.1245 267.039 44.1245C266.125 44.1245 265.668 43.6356 265.668 42.6579C265.668 42.1883 265.791 41.8496 266.037 41.6418C266.286 41.4301 266.671 41.3069 267.189 41.2607L268.376 41.1606V40.8296C268.376 40.5832 268.322 40.4101 268.211 40.31C268.107 40.2137 267.95 40.1637 267.742 40.1637C267.347 40.1637 266.855 40.1867 266.267 40.2368L265.971 40.256L265.933 39.544C266.605 39.3823 267.22 39.3053 267.777 39.3053C268.341 39.3053 268.749 39.4284 268.995 39.6748C269.248 39.9134 269.371 40.2984 269.371 40.8296ZM267.308 41.9728C266.882 42.0113 266.67 42.2422 266.67 42.6656C266.67 43.0929 266.859 43.3046 267.235 43.3046C267.542 43.3046 267.865 43.2546 268.211 43.1545L268.376 43.1006V41.8727L267.308 41.9728ZM270.689 44.0244V37.4846H271.695V44.0244H270.689ZM273.02 44.0244V37.4846H274.027V44.0244H273.02ZM278.579 43.193L278.836 43.1661L278.855 43.9128C278.156 44.0552 277.534 44.1245 276.992 44.1245C276.312 44.1245 275.821 43.9398 275.517 43.5625C275.225 43.1853 275.075 42.5849 275.075 41.7611C275.075 40.1214 275.744 39.3053 277.077 39.3053C278.367 39.3053 279.013 40.0097 279.013 41.4185L278.947 42.1383H276.09C276.097 42.5233 276.178 42.8004 276.339 42.9813C276.5 43.1584 276.796 43.2469 277.234 43.2469C277.668 43.2469 278.118 43.2315 278.579 43.193ZM278.026 41.3647C278.026 40.9066 277.953 40.591 277.807 40.4139C277.664 40.2291 277.422 40.1367 277.077 40.1367C276.731 40.1367 276.481 40.2291 276.32 40.4215C276.166 40.614 276.086 40.9258 276.082 41.3647H278.026ZM282.459 40.2637H281.187V42.2961C281.187 42.6734 281.214 42.9235 281.272 43.0467C281.325 43.1699 281.467 43.2315 281.694 43.2315L282.451 43.2007L282.497 44.0052C282.086 44.086 281.771 44.1245 281.556 44.1245C281.033 44.1245 280.672 44.0052 280.476 43.7666C280.288 43.5241 280.192 43.0737 280.192 42.4078V40.2637H279.6V39.4054H280.192V38.0659H281.187V39.4054H282.459V40.2637Z" fill="white"/>
<g filter="url(#filter0_d_40000384_3832)">
<path d="M175.543 122.647H71.0581C65.9665 122.647 61.8389 126.783 61.8389 131.886V332.044C61.8389 337.146 65.9665 341.283 71.0581 341.283H175.543C180.635 341.283 184.763 337.146 184.763 332.044V131.886C184.763 126.783 180.635 122.647 175.543 122.647Z" fill="white"/>
<path d="M118.994 220.745C118.641 220.745 118.353 221.029 118.353 221.384V223.25C118.353 223.605 118.641 223.893 118.994 223.893C119.347 223.893 119.632 223.605 119.632 223.25V221.384C119.632 221.029 119.347 220.745 118.994 220.745Z" fill="#929DA9"/>
<path d="M127.606 223.893C127.96 223.893 128.248 223.605 128.248 223.25V221.384C128.248 221.029 127.96 220.745 127.606 220.745C127.253 220.745 126.965 221.029 126.965 221.384V223.25C126.965 223.605 127.253 223.893 127.606 223.893Z" fill="#929DA9"/>
<path d="M127.595 228.631C127.345 228.381 126.938 228.381 126.688 228.631C125.782 229.536 124.579 230.036 123.3 230.036C122.021 230.036 120.815 229.536 119.912 228.631C119.663 228.381 119.255 228.381 119.006 228.631C118.756 228.882 118.756 229.286 119.006 229.536C120.154 230.687 121.679 231.318 123.3 231.318C124.921 231.318 126.446 230.687 127.595 229.536C127.845 229.286 127.845 228.882 127.595 228.631Z" fill="#929DA9"/>
<path d="M122.582 227.257C123.742 227.257 124.522 226.476 124.522 225.314V221.384C124.522 221.029 124.234 220.745 123.88 220.745C123.527 220.745 123.243 221.029 123.243 221.384V225.314C123.243 225.899 122.889 225.972 122.582 225.972C122.229 225.972 121.94 226.261 121.94 226.615C121.94 226.969 122.229 227.257 122.582 227.257Z" fill="#929DA9"/>
<path d="M112.418 222.026C112.771 222.026 113.056 221.742 113.056 221.384V218.108C113.056 216.056 114.723 214.386 116.77 214.386H118.875C119.229 214.386 119.517 214.101 119.517 213.747C119.517 213.393 119.229 213.104 118.875 213.104H116.77C114.016 213.104 111.776 215.348 111.776 218.108V221.387C111.776 221.742 112.061 222.026 112.418 222.026Z" fill="#929DA9"/>
<path d="M118.875 234.917H116.77C114.723 234.917 113.056 233.247 113.056 231.195V227.919C113.056 227.561 112.771 227.277 112.418 227.277C112.061 227.277 111.776 227.561 111.776 227.919V231.195C111.776 233.955 114.016 236.199 116.77 236.199H118.875C119.229 236.199 119.517 235.91 119.517 235.556C119.517 235.202 119.229 234.917 118.875 234.917Z" fill="#929DA9"/>
<path d="M129.831 213.104H127.723C127.369 213.104 127.085 213.393 127.085 213.747C127.085 214.101 127.369 214.386 127.723 214.386H129.831C131.879 214.386 133.542 216.056 133.542 218.108V221.387C133.542 221.742 133.83 222.026 134.184 222.026C134.537 222.026 134.825 221.742 134.825 221.387V218.108C134.825 215.348 132.586 213.104 129.831 213.104Z" fill="#929DA9"/>
<path d="M134.184 227.277C133.83 227.277 133.542 227.561 133.542 227.919V231.195C133.542 233.247 131.879 234.917 129.831 234.917H127.723C127.369 234.917 127.085 235.202 127.085 235.556C127.085 235.91 127.369 236.199 127.723 236.199H129.831C132.586 236.199 134.825 233.955 134.825 231.195V227.919C134.825 227.561 134.537 227.277 134.184 227.277Z" fill="#929DA9"/>
<path d="M115.69 248.517V244.787H117.915V245.153H116.105V246.608H117.638V246.977H116.105V248.517H115.69ZM120.169 246.635V248.016C120.181 248.147 120.285 248.228 120.481 248.251L120.465 248.571C120.185 248.571 119.97 248.498 119.828 248.355C119.505 248.498 119.182 248.571 118.86 248.571C118.61 248.571 118.422 248.501 118.295 248.359C118.164 248.22 118.099 248.02 118.099 247.758C118.099 247.493 118.168 247.304 118.299 247.181C118.433 247.054 118.641 246.977 118.921 246.95L119.766 246.869V246.635C119.766 246.454 119.728 246.323 119.647 246.242C119.57 246.165 119.463 246.123 119.324 246.123C119.04 246.123 118.74 246.142 118.433 246.176L118.268 246.196L118.249 245.888C118.644 245.807 118.994 245.768 119.297 245.768C119.605 245.768 119.824 245.838 119.962 245.98C120.1 246.119 120.169 246.338 120.169 246.635ZM118.514 247.735C118.514 248.066 118.652 248.232 118.921 248.232C119.167 248.232 119.405 248.19 119.643 248.109L119.766 248.063V247.173L118.971 247.25C118.81 247.266 118.694 247.312 118.621 247.389C118.548 247.47 118.514 247.585 118.514 247.735ZM121.971 245.768C122.09 245.768 122.29 245.791 122.574 245.834L122.705 245.849L122.686 246.176C122.401 246.146 122.19 246.13 122.052 246.13C121.748 246.13 121.541 246.203 121.429 246.35C121.322 246.496 121.268 246.765 121.268 247.158C121.268 247.551 121.318 247.824 121.418 247.978C121.522 248.132 121.737 248.209 122.059 248.209L122.693 248.163L122.709 248.494C122.374 248.544 122.125 248.571 121.959 248.571C121.541 248.571 121.253 248.463 121.091 248.247C120.934 248.032 120.853 247.67 120.853 247.158C120.853 246.646 120.938 246.284 121.111 246.08C121.283 245.872 121.572 245.768 121.971 245.768ZM125.106 248.182L125.263 248.166L125.271 248.486C124.864 248.544 124.514 248.571 124.222 248.571C123.838 248.571 123.561 248.459 123.4 248.236C123.239 248.009 123.158 247.658 123.158 247.185C123.158 246.242 123.534 245.768 124.284 245.768C124.645 245.768 124.917 245.872 125.094 246.076C125.275 246.276 125.363 246.596 125.363 247.031L125.344 247.335H123.569C123.569 247.635 123.623 247.855 123.73 248.001C123.838 248.143 124.022 248.216 124.287 248.216C124.556 248.216 124.829 248.205 125.106 248.182ZM124.96 247.012C124.96 246.685 124.906 246.45 124.798 246.311C124.695 246.176 124.522 246.107 124.284 246.107C124.045 246.107 123.869 246.18 123.746 246.323C123.627 246.469 123.565 246.696 123.561 247.012H124.96ZM127.245 248.517V244.787H127.656V248.517H127.245ZM129.896 248.517H128.567V244.787H129.896C130.503 244.787 130.902 245.029 131.102 245.51C131.213 245.788 131.271 246.149 131.271 246.6C131.271 247.535 131.041 248.128 130.572 248.371C130.387 248.467 130.161 248.517 129.896 248.517ZM130.848 246.6C130.848 245.884 130.687 245.437 130.368 245.26C130.242 245.191 130.084 245.153 129.896 245.153H128.981V248.151H129.896C130.53 248.151 130.848 247.631 130.848 246.6Z" fill="#768594"/>
</g>
<g filter="url(#filter1_d_40000384_3832)">
<path d="M175.39 122.647H70.9048C65.8132 122.647 61.6855 126.783 61.6855 131.886V332.044C61.6855 337.146 65.8132 341.283 70.9048 341.283H175.39C180.482 341.283 184.609 337.146 184.609 332.044V131.886C184.609 126.783 180.482 122.647 175.39 122.647Z" fill="white"/>
<path d="M118.841 220.745C118.487 220.745 118.199 221.029 118.199 221.384V223.25C118.199 223.605 118.487 223.893 118.841 223.893C119.194 223.893 119.478 223.605 119.478 223.25V221.384C119.478 221.029 119.194 220.745 118.841 220.745Z" fill="#768594"/>
<path d="M127.453 223.893C127.806 223.893 128.094 223.605 128.094 223.25V221.384C128.094 221.029 127.806 220.745 127.453 220.745C127.1 220.745 126.812 221.029 126.812 221.384V223.25C126.812 223.605 127.1 223.893 127.453 223.893Z" fill="#768594"/>
<path d="M127.443 228.631C127.193 228.381 126.786 228.381 126.536 228.631C125.633 229.536 124.427 230.036 123.148 230.036C121.869 230.036 120.666 229.536 119.76 228.631C119.51 228.381 119.103 228.381 118.853 228.631C118.604 228.882 118.604 229.286 118.853 229.536C120.002 230.687 121.527 231.318 123.148 231.318C124.769 231.318 126.294 230.687 127.443 229.536C127.692 229.286 127.692 228.882 127.443 228.631Z" fill="#768594"/>
<path d="M122.429 227.257C123.589 227.257 124.368 226.476 124.368 225.314V221.384C124.368 221.029 124.084 220.745 123.727 220.745C123.374 220.745 123.089 221.029 123.089 221.384V225.314C123.089 225.899 122.736 225.972 122.429 225.972C122.075 225.972 121.787 226.261 121.787 226.615C121.787 226.969 122.075 227.257 122.429 227.257Z" fill="#768594"/>
<path d="M112.265 222.026C112.618 222.026 112.902 221.742 112.902 221.384V218.108C112.902 216.056 114.569 214.386 116.617 214.386H118.726C119.079 214.386 119.363 214.101 119.363 213.747C119.363 213.393 119.079 213.104 118.722 213.104H116.617C113.863 213.104 111.623 215.348 111.623 218.108V221.387C111.623 221.742 111.911 222.026 112.265 222.026Z" fill="#768594"/>
<path d="M118.722 234.917H116.617C114.569 234.917 112.902 233.247 112.902 231.195V227.919C112.902 227.561 112.618 227.277 112.265 227.277C111.911 227.277 111.623 227.561 111.623 227.919V231.195C111.623 233.955 113.863 236.199 116.617 236.199H118.726C119.079 236.199 119.363 235.91 119.363 235.556C119.363 235.202 119.079 234.917 118.722 234.917Z" fill="#768594"/>
<path d="M129.678 213.104H127.569C127.216 213.104 126.932 213.393 126.932 213.747C126.932 214.101 127.216 214.386 127.569 214.386H129.678C131.726 214.386 133.393 216.056 133.393 218.108V221.387C133.393 221.742 133.677 222.026 134.03 222.026C134.384 222.026 134.672 221.742 134.672 221.387V218.108C134.672 215.348 132.432 213.104 129.678 213.104Z" fill="#768594"/>
<path d="M134.03 227.277C133.677 227.277 133.393 227.561 133.393 227.919V231.195C133.393 233.247 131.726 234.917 129.678 234.917H127.569C127.216 234.917 126.932 235.202 126.932 235.556C126.932 235.91 127.216 236.199 127.569 236.199H129.678C132.432 236.199 134.672 233.955 134.672 231.195V227.919C134.672 227.561 134.384 227.277 134.03 227.277Z" fill="#768594"/>
<path d="M115.537 248.517V244.787H117.765V245.153H115.952V246.608H117.485V246.977H115.952V248.517H115.537ZM120.016 246.635V248.016C120.028 248.147 120.131 248.228 120.331 248.251L120.312 248.571C120.032 248.571 119.816 248.498 119.674 248.355C119.352 248.498 119.029 248.571 118.706 248.571C118.457 248.571 118.268 248.501 118.142 248.359C118.011 248.22 117.946 248.02 117.946 247.758C117.946 247.493 118.015 247.304 118.145 247.181C118.28 247.054 118.487 246.977 118.772 246.95L119.613 246.869V246.635C119.613 246.454 119.574 246.323 119.498 246.242C119.417 246.165 119.309 246.123 119.175 246.123C118.887 246.123 118.587 246.142 118.28 246.176L118.115 246.196L118.099 245.888C118.491 245.807 118.841 245.768 119.148 245.768C119.452 245.768 119.67 245.838 119.809 245.98C119.947 246.119 120.016 246.338 120.016 246.635ZM118.361 247.735C118.361 248.066 118.499 248.232 118.772 248.232C119.014 248.232 119.256 248.19 119.49 248.109L119.613 248.063V247.173L118.818 247.25C118.656 247.266 118.541 247.312 118.468 247.389C118.399 247.47 118.361 247.585 118.361 247.735ZM121.818 245.768C121.937 245.768 122.137 245.791 122.421 245.834L122.551 245.849L122.536 246.176C122.248 246.146 122.037 246.13 121.898 246.13C121.595 246.13 121.387 246.203 121.276 246.35C121.169 246.496 121.115 246.765 121.115 247.158C121.115 247.551 121.165 247.824 121.265 247.978C121.368 248.132 121.583 248.209 121.906 248.209L122.54 248.163L122.555 248.494C122.221 248.544 121.975 248.571 121.81 248.571C121.388 248.571 121.099 248.463 120.938 248.247C120.781 248.032 120.7 247.67 120.7 247.158C120.7 246.646 120.788 246.284 120.957 246.08C121.13 245.872 121.418 245.768 121.818 245.768ZM124.952 248.182L125.11 248.166L125.121 248.486C124.71 248.544 124.361 248.571 124.073 248.571C123.685 248.571 123.408 248.459 123.247 248.236C123.085 248.009 123.005 247.658 123.005 247.185C123.005 246.242 123.381 245.768 124.13 245.768C124.491 245.768 124.764 245.872 124.941 246.076C125.121 246.276 125.21 246.596 125.21 247.031L125.191 247.335H123.416C123.416 247.635 123.47 247.855 123.577 248.001C123.685 248.143 123.869 248.216 124.134 248.216C124.403 248.216 124.676 248.205 124.952 248.182ZM124.806 247.012C124.806 246.685 124.753 246.45 124.645 246.311C124.541 246.176 124.368 246.107 124.13 246.107C123.892 246.107 123.715 246.18 123.592 246.323C123.473 246.469 123.412 246.696 123.408 247.012H124.806ZM127.092 248.517V244.787H127.507V248.517H127.092ZM129.742 248.517H128.413V244.787H129.742C130.349 244.787 130.749 245.029 130.949 245.51C131.064 245.788 131.122 246.149 131.122 246.6C131.122 247.535 130.887 248.128 130.422 248.371C130.234 248.467 130.008 248.517 129.742 248.517ZM130.695 246.6C130.695 245.884 130.534 245.437 130.215 245.26C130.088 245.191 129.931 245.153 129.742 245.153H128.828V248.151H129.742C130.376 248.151 130.695 247.631 130.695 246.6Z" fill="#5C6F82"/>
</g>
<path d="M61.9551 89.1596L63.0153 84.4482H64.8246L65.8848 89.1596H64.9283L64.7439 88.309H63.096L62.9116 89.1596H61.9551ZM63.7528 85.2373L63.2765 87.4775H64.5634L64.0871 85.2373H63.7528ZM68.4662 85.6953H69.392V89.1596H68.4739V88.9672C68.1435 89.1519 67.8554 89.2443 67.6096 89.2443C67.1294 89.2443 66.8067 89.1095 66.6415 88.8478C66.4763 88.5784 66.3919 88.1357 66.3919 87.5121V85.6953H67.3176V87.5237C67.3176 87.8663 67.3483 88.1011 67.4021 88.2243C67.4559 88.3475 67.5904 88.4129 67.8016 88.4129C68.0052 88.4129 68.1973 88.3782 68.3778 88.3128L68.4662 88.2858V85.6953ZM72.1655 86.4844H71.3127V87.9048C71.3127 88.0433 71.3165 88.1434 71.3204 88.205C71.3319 88.2589 71.3549 88.3089 71.3972 88.3474C71.4433 88.3897 71.5124 88.4129 71.6046 88.4129L72.1309 88.3975L72.1731 89.1403C71.862 89.2096 71.6276 89.2443 71.4663 89.2443C71.0514 89.2443 70.7672 89.1519 70.6174 88.9672C70.4637 88.7747 70.3869 88.4283 70.3869 87.9279V86.4844H69.9797V85.6953H70.3869V84.733H71.3127V85.6953H72.1655V86.4844ZM72.953 86.0918C73.1988 85.7723 73.606 85.6107 74.1783 85.6107C74.7507 85.6107 75.1579 85.7723 75.4037 86.0918C75.6457 86.4036 75.7686 86.8462 75.7686 87.4198C75.7686 88.6361 75.2385 89.2443 74.1783 89.2443C73.1181 89.2443 72.588 88.6361 72.588 87.4198C72.588 86.8462 72.711 86.4036 72.953 86.0918ZM73.6674 88.205C73.7634 88.3705 73.9325 88.4513 74.1783 88.4513C74.4242 88.4513 74.5894 88.3705 74.6816 88.205C74.7814 88.0356 74.8275 87.7777 74.8275 87.4198C74.8275 87.0656 74.7814 86.8077 74.6816 86.6461C74.5894 86.4844 74.4242 86.4036 74.1783 86.4036C73.9325 86.4036 73.7634 86.4844 73.6674 86.6461C73.5752 86.8077 73.5292 87.0656 73.5292 87.4198C73.5292 87.7777 73.5752 88.0356 73.6674 88.205ZM76.4485 89.1596V85.6953H77.3667V86.061C77.7547 85.83 78.1234 85.6799 78.473 85.6107V86.546C78.1003 86.6268 77.7815 86.7077 77.5126 86.7885L77.3744 86.8385V89.1596H76.4485ZM79.0222 89.1596V85.6953H79.9481V89.1596H79.0222ZM79.0222 85.2527V84.3096H79.9481V85.2527H79.0222ZM80.6587 86.5267V85.6953H83.2248V86.5267L81.7727 88.3282H83.2248V89.1596H80.6587V88.3282L82.1107 86.5267H80.6587ZM83.7971 86.5267V85.6953H86.3631V86.5267L84.9111 88.3282H86.3631V89.1596H83.7971V88.3282L85.2492 86.5267H83.7971ZM89.732 86.777V88.2166C89.7397 88.3282 89.7589 88.4051 89.7858 88.4513C89.8126 88.4937 89.8703 88.5245 89.9587 88.5437L89.9318 89.2443C89.6975 89.2443 89.5092 89.2251 89.3633 89.1943C89.225 89.1635 89.0866 89.0981 88.9445 89.0018C88.6103 89.1635 88.2723 89.2443 87.9266 89.2443C87.2121 89.2443 86.8548 88.8632 86.8548 88.1049C86.8548 87.7354 86.9547 87.4775 87.1506 87.3235C87.3504 87.1657 87.6538 87.0733 88.0648 87.0464L88.8063 86.9926V86.777C88.8063 86.6346 88.7717 86.5345 88.7064 86.4844C88.6449 86.4305 88.5412 86.4036 88.3952 86.4036L87.0968 86.4575L87.07 85.8147C87.5617 85.6799 88.0303 85.6107 88.472 85.6107C88.9215 85.6107 89.2403 85.703 89.4324 85.8878C89.6321 86.0725 89.732 86.369 89.732 86.777ZM88.1762 87.6892C87.9189 87.7123 87.7883 87.8509 87.7883 88.1049C87.7883 88.359 87.8997 88.486 88.1264 88.486C88.3031 88.486 88.4951 88.4591 88.7026 88.4052L88.8063 88.3782V87.6353L88.1762 87.6892ZM90.4695 86.5267V85.6953H93.0356V86.5267L91.5836 88.3282H93.0356V89.1596H90.4695V88.3282L91.9216 86.5267H90.4695ZM93.7539 89.1596V85.6953H94.6796V89.1596H93.7539ZM93.7539 85.2527V84.3096H94.6796V85.2527H93.7539ZM95.7246 86.0918C95.9666 85.7723 96.3776 85.6107 96.9461 85.6107C97.5185 85.6107 97.9256 85.7723 98.1715 86.0918C98.4173 86.4036 98.5364 86.8462 98.5364 87.4198C98.5364 88.6361 98.0063 89.2443 96.9461 89.2443C95.8859 89.2443 95.3557 88.6361 95.3557 87.4198C95.3557 86.8462 95.4787 86.4036 95.7246 86.0918ZM96.4352 88.205C96.5312 88.3705 96.7041 88.4513 96.9461 88.4513C97.192 88.4513 97.361 88.3705 97.4532 88.205C97.5492 88.0356 97.5991 87.7777 97.5991 87.4198C97.5991 87.0656 97.5492 86.8077 97.4532 86.6461C97.361 86.4844 97.192 86.4036 96.9461 86.4036C96.7041 86.4036 96.5312 86.4844 96.4352 86.6461C96.343 86.8077 96.2969 87.0656 96.2969 87.4198C96.2969 87.7777 96.343 88.0356 96.4352 88.205ZM100.142 89.1596H99.2163V85.6953H100.138V85.8878C100.449 85.703 100.738 85.6107 101.003 85.6107C101.464 85.6107 101.779 85.7492 101.955 86.0225C102.132 86.292 102.216 86.7154 102.216 87.2812V89.1596H101.291V87.3081C101.291 87.0156 101.256 86.7962 101.187 86.6576C101.118 86.5152 100.98 86.442 100.772 86.442C100.584 86.442 100.403 86.4767 100.227 86.5421L100.142 86.5691V89.1596ZM103.799 87.8239C103.803 88.0357 103.861 88.1896 103.964 88.2858C104.076 88.3782 104.233 88.4244 104.437 88.4244C104.863 88.4244 105.247 88.4129 105.585 88.3821L105.777 88.3628L105.793 89.048C105.263 89.1788 104.783 89.2443 104.352 89.2443C103.834 89.2443 103.453 89.1057 103.219 88.8285C102.985 88.5514 102.866 88.101 102.866 87.4775C102.866 86.2342 103.377 85.6107 104.394 85.6107C105.401 85.6107 105.9 86.1342 105.9 87.1773L105.831 87.8239H103.799ZM104.99 87.1157C104.99 86.8385 104.944 86.6461 104.859 86.5421C104.771 86.4305 104.617 86.3728 104.394 86.3728C104.179 86.3728 104.022 86.4305 103.93 86.546C103.845 86.6576 103.799 86.8462 103.791 87.1157H104.99ZM108.27 86.0918C108.512 85.7723 108.923 85.6107 109.492 85.6107C110.064 85.6107 110.472 85.7723 110.717 86.0918C110.963 86.4036 111.082 86.8462 111.082 87.4198C111.082 88.6361 110.552 89.2443 109.492 89.2443C108.432 89.2443 107.902 88.6361 107.902 87.4198C107.902 86.8462 108.025 86.4036 108.27 86.0918ZM108.981 88.205C109.077 88.3705 109.25 88.4513 109.492 88.4513C109.738 88.4513 109.907 88.3705 109.999 88.205C110.095 88.0356 110.145 87.7777 110.145 87.4198C110.145 87.0656 110.095 86.8077 109.999 86.6461C109.907 86.4844 109.738 86.4036 109.492 86.4036C109.25 86.4036 109.077 86.4844 108.981 86.6461C108.889 86.8077 108.843 87.0656 108.843 87.4198C108.843 87.7777 108.889 88.0356 108.981 88.205ZM111.762 90.6146V85.6953H112.684V85.8839C112.984 85.703 113.245 85.6107 113.472 85.6107C113.936 85.6107 114.278 85.753 114.501 86.034C114.724 86.3112 114.832 86.7847 114.832 87.4544C114.832 88.1242 114.712 88.5899 114.467 88.8555C114.221 89.1134 113.821 89.2443 113.264 89.2443C113.111 89.2443 112.949 89.2289 112.773 89.202L112.688 89.1866V90.6146H111.762ZM113.291 86.442C113.122 86.442 112.949 86.4767 112.773 86.546L112.688 86.5807V88.3975C112.895 88.4244 113.064 88.4398 113.195 88.4398C113.46 88.4398 113.645 88.359 113.741 88.205C113.84 88.0472 113.894 87.7777 113.894 87.4005C113.894 86.7615 113.691 86.442 113.291 86.442ZM116.283 87.8239C116.291 88.0357 116.345 88.1896 116.453 88.2858C116.56 88.3782 116.718 88.4244 116.921 88.4244C117.351 88.4244 117.732 88.4129 118.07 88.3821L118.262 88.3628L118.277 89.048C117.747 89.1788 117.267 89.2443 116.837 89.2443C116.318 89.2443 115.938 89.1057 115.704 88.8285C115.469 88.5514 115.35 88.101 115.35 87.4775C115.35 86.2342 115.861 85.6107 116.879 85.6107C117.885 85.6107 118.389 86.1342 118.389 87.1773L118.319 87.8239H116.283ZM117.474 87.1157C117.474 86.8385 117.432 86.6461 117.344 86.5421C117.255 86.4305 117.102 86.3728 116.879 86.3728C116.664 86.3728 116.51 86.4305 116.418 86.546C116.33 86.6576 116.284 86.8462 116.28 87.1157H117.474ZM119.049 89.1596V85.6953H119.967V86.061C120.355 85.83 120.724 85.6799 121.074 85.6107V86.546C120.701 86.6268 120.382 86.7077 120.113 86.7885L119.975 86.8385V89.1596H119.049ZM124.27 86.777V88.2166C124.277 88.3282 124.297 88.4051 124.324 88.4513C124.354 88.4937 124.412 88.5245 124.496 88.5437L124.469 89.2443C124.235 89.2443 124.047 89.2251 123.905 89.1943C123.766 89.1635 123.624 89.0981 123.482 89.0018C123.148 89.1635 122.81 89.2443 122.464 89.2443C121.75 89.2443 121.393 88.8632 121.393 88.1049C121.393 87.7354 121.492 87.4775 121.692 87.3235C121.888 87.1657 122.192 87.0733 122.603 87.0464L123.344 86.9926V86.777C123.344 86.6346 123.309 86.5345 123.248 86.4844C123.183 86.4305 123.079 86.4036 122.937 86.4036L121.635 86.4575L121.608 85.8147C122.099 85.6799 122.568 85.6107 123.01 85.6107C123.459 85.6107 123.778 85.703 123.974 85.8878C124.17 86.0725 124.27 86.369 124.27 86.777ZM122.714 87.6892C122.457 87.7123 122.326 87.8509 122.326 88.1049C122.326 88.359 122.441 88.486 122.664 88.486C122.841 88.486 123.033 88.4591 123.24 88.4052L123.344 88.3782V87.6353L122.714 87.6892ZM125.007 86.5267V85.6953H127.573V86.5267L126.121 88.3282H127.573V89.1596H125.007V88.3282L126.459 86.5267H125.007ZM128.292 89.1596V85.6953H129.221V89.1596H128.292ZM128.292 85.2527V84.3096H129.221V85.2527H128.292ZM130.262 86.0918C130.508 85.7723 130.915 85.6107 131.488 85.6107C132.056 85.6107 132.467 85.7723 132.709 86.0918C132.955 86.4036 133.078 86.8462 133.078 87.4198C133.078 88.6361 132.548 89.2443 131.488 89.2443C130.427 89.2443 129.897 88.6361 129.897 87.4198C129.897 86.8462 130.016 86.4036 130.262 86.0918ZM130.973 88.205C131.073 88.3705 131.242 88.4513 131.488 88.4513C131.73 88.4513 131.899 88.3705 131.991 88.205C132.087 88.0356 132.137 87.7777 132.137 87.4198C132.137 87.0656 132.087 86.8077 131.991 86.6461C131.899 86.4844 131.73 86.4036 131.488 86.4036C131.242 86.4036 131.073 86.4844 130.973 86.6461C130.881 86.8077 130.835 87.0656 130.835 87.4198C130.835 87.7777 130.881 88.0356 130.973 88.205ZM134.684 89.1596H133.754V85.6953H134.676V85.8878C134.987 85.703 135.275 85.6107 135.54 85.6107C136.001 85.6107 136.32 85.7492 136.493 86.0225C136.67 86.292 136.758 86.7154 136.758 87.2812V89.1596H135.828V87.3081C135.828 87.0156 135.794 86.7962 135.725 86.6576C135.656 86.5152 135.517 86.442 135.31 86.442C135.122 86.442 134.941 86.4767 134.764 86.5421L134.684 86.5691V89.1596ZM138.337 87.8239C138.345 88.0357 138.398 88.1896 138.506 88.2858C138.613 88.3782 138.771 88.4244 138.974 88.4244C139.405 88.4244 139.785 88.4129 140.123 88.3821L140.315 88.3628L140.33 89.048C139.8 89.1788 139.32 89.2443 138.89 89.2443C138.371 89.2443 137.991 89.1057 137.757 88.8285C137.522 88.5514 137.403 88.101 137.403 87.4775C137.403 86.2342 137.914 85.6107 138.932 85.6107C139.939 85.6107 140.442 86.1342 140.442 87.1773L140.373 87.8239H138.337ZM139.528 87.1157C139.528 86.8385 139.485 86.6461 139.397 86.5421C139.309 86.4305 139.155 86.3728 138.932 86.3728C138.717 86.3728 138.563 86.4305 138.471 86.546C138.383 86.6576 138.337 86.8462 138.333 87.1157H139.528Z" fill="#17324D"/>
<rect x="45.0355" y="93.7118" width="16.3" height="16.3" rx="8.15" stroke="#17324D" stroke-width="0.7"/>
<path d="M52.7036 102.468C52.7036 102.79 52.666 103.073 52.5908 103.319C52.5179 103.563 52.4119 103.767 52.2729 103.931C52.134 104.097 51.9642 104.223 51.7637 104.307C51.5632 104.391 51.3376 104.434 51.0869 104.434C50.8385 104.434 50.6141 104.391 50.4136 104.307C50.2131 104.223 50.0433 104.097 49.9043 103.931C49.763 103.767 49.6536 103.563 49.5762 103.319C49.501 103.073 49.4634 102.79 49.4634 102.468V101.279C49.4634 100.958 49.501 100.675 49.5762 100.431C49.6514 100.185 49.7596 99.9788 49.9009 99.8125C50.0399 99.6484 50.2085 99.5243 50.4067 99.4399C50.6073 99.3556 50.8317 99.3135 51.0801 99.3135C51.3307 99.3135 51.5563 99.3556 51.7568 99.4399C51.9574 99.5243 52.1283 99.6484 52.2695 99.8125C52.4085 99.9788 52.5156 100.185 52.5908 100.431C52.666 100.675 52.7036 100.958 52.7036 101.279V102.468ZM50.4204 102.058L51.7466 101.07C51.742 100.883 51.7215 100.724 51.6851 100.592C51.6509 100.457 51.5996 100.35 51.5312 100.271C51.4788 100.207 51.4139 100.16 51.3364 100.13C51.2612 100.098 51.1758 100.083 51.0801 100.083C50.973 100.083 50.8784 100.103 50.7964 100.144C50.7166 100.183 50.6494 100.242 50.5947 100.322C50.5355 100.406 50.491 100.515 50.4614 100.65C50.4341 100.784 50.4204 100.944 50.4204 101.128V101.679C50.4204 101.788 50.4204 101.861 50.4204 101.897C50.4204 101.934 50.4204 101.987 50.4204 102.058ZM51.7466 102.612V102.034C51.7466 101.959 51.7466 101.904 51.7466 101.87C51.7466 101.834 51.7466 101.782 51.7466 101.716L50.4204 102.701C50.425 102.851 50.4398 102.984 50.4648 103.101C50.4922 103.217 50.5298 103.314 50.5776 103.391C50.6323 103.485 50.7018 103.554 50.7861 103.6C50.8704 103.645 50.9707 103.668 51.0869 103.668C51.194 103.668 51.2886 103.649 51.3706 103.61C51.4526 103.569 51.521 103.507 51.5757 103.425C51.6326 103.339 51.6748 103.228 51.7021 103.094C51.7318 102.957 51.7466 102.796 51.7466 102.612ZM53.7153 101.911L53.999 99.3853H56.7607V100.192H54.7817L54.6621 101.286C54.7327 101.245 54.833 101.202 54.9629 101.159C55.0928 101.116 55.242 101.094 55.4106 101.094C55.6499 101.094 55.863 101.133 56.0498 101.21C56.2389 101.286 56.3984 101.395 56.5283 101.539C56.6559 101.682 56.7539 101.858 56.8223 102.065C56.8906 102.272 56.9248 102.507 56.9248 102.769C56.9248 102.992 56.8918 103.204 56.8257 103.405C56.7596 103.605 56.6582 103.782 56.5215 103.935C56.3848 104.087 56.2127 104.208 56.0054 104.297C55.798 104.386 55.5531 104.43 55.2705 104.43C55.0563 104.43 54.849 104.398 54.6484 104.334C54.4502 104.271 54.2736 104.177 54.1187 104.054C53.9637 103.931 53.8372 103.781 53.7393 103.603C53.6436 103.423 53.5923 103.218 53.5854 102.988H54.522C54.5448 103.204 54.6222 103.372 54.7544 103.49C54.8888 103.609 55.0597 103.668 55.2671 103.668C55.3947 103.668 55.5029 103.644 55.5918 103.596C55.6829 103.548 55.757 103.482 55.814 103.398C55.8687 103.314 55.9085 103.213 55.9336 103.097C55.9609 102.981 55.9746 102.856 55.9746 102.721C55.9746 102.589 55.9575 102.468 55.9233 102.359C55.8914 102.247 55.8413 102.152 55.7729 102.072C55.7046 101.992 55.6191 101.931 55.5166 101.887C55.4141 101.844 55.2933 101.822 55.1543 101.822C55.0609 101.822 54.98 101.83 54.9116 101.846C54.8433 101.862 54.7829 101.883 54.7305 101.908C54.6781 101.933 54.6313 101.962 54.5903 101.997C54.5493 102.028 54.5106 102.063 54.4741 102.099L53.7153 101.911Z" fill="#17324D"/>
<rect x="212.503" y="93.7118" width="16.3" height="16.3" rx="8.15" stroke="#17324D" stroke-width="0.7"/>
<path d="M220.171 102.468C220.171 102.79 220.134 103.073 220.059 103.319C219.986 103.563 219.88 103.767 219.741 103.931C219.602 104.097 219.432 104.223 219.231 104.307C219.031 104.391 218.805 104.434 218.555 104.434C218.306 104.434 218.082 104.391 217.881 104.307C217.681 104.223 217.511 104.097 217.372 103.931C217.231 103.767 217.121 103.563 217.044 103.319C216.969 103.073 216.931 102.79 216.931 102.468V101.279C216.931 100.958 216.969 100.675 217.044 100.431C217.119 100.185 217.227 99.9788 217.369 99.8125C217.508 99.6484 217.676 99.5243 217.875 99.4399C218.075 99.3556 218.299 99.3135 218.548 99.3135C218.799 99.3135 219.024 99.3556 219.225 99.4399C219.425 99.5243 219.596 99.6484 219.737 99.8125C219.876 99.9788 219.983 100.185 220.059 100.431C220.134 100.675 220.171 100.958 220.171 101.279V102.468ZM217.888 102.058L219.214 101.07C219.21 100.883 219.189 100.724 219.153 100.592C219.119 100.457 219.067 100.35 218.999 100.271C218.947 100.207 218.882 100.16 218.804 100.13C218.729 100.098 218.644 100.083 218.548 100.083C218.441 100.083 218.346 100.103 218.264 100.144C218.184 100.183 218.117 100.242 218.062 100.322C218.003 100.406 217.959 100.515 217.929 100.65C217.902 100.784 217.888 100.944 217.888 101.128V101.679C217.888 101.788 217.888 101.861 217.888 101.897C217.888 101.934 217.888 101.987 217.888 102.058ZM219.214 102.612V102.034C219.214 101.959 219.214 101.904 219.214 101.87C219.214 101.834 219.214 101.782 219.214 101.716L217.888 102.701C217.893 102.851 217.908 102.984 217.933 103.101C217.96 103.217 217.998 103.314 218.045 103.391C218.1 103.485 218.17 103.554 218.254 103.6C218.338 103.645 218.438 103.668 218.555 103.668C218.662 103.668 218.756 103.649 218.838 103.61C218.92 103.569 218.989 103.507 219.043 103.425C219.1 103.339 219.143 103.228 219.17 103.094C219.2 102.957 219.214 102.796 219.214 102.612ZM223.658 99.3442V100.134H223.603C223.352 100.134 223.13 100.167 222.937 100.233C222.745 100.299 222.582 100.392 222.448 100.513C222.311 100.634 222.203 100.779 222.123 100.947C222.046 101.116 221.997 101.304 221.976 101.511C222.028 101.454 222.089 101.398 222.157 101.344C222.226 101.287 222.303 101.236 222.39 101.19C222.474 101.147 222.566 101.111 222.667 101.084C222.767 101.057 222.875 101.043 222.991 101.043C223.228 101.043 223.434 101.089 223.61 101.18C223.788 101.269 223.936 101.389 224.054 101.542C224.173 101.697 224.26 101.877 224.317 102.082C224.377 102.285 224.406 102.499 224.406 102.725C224.406 102.966 224.368 103.191 224.29 103.398C224.213 103.605 224.102 103.785 223.958 103.938C223.815 104.091 223.641 104.211 223.436 104.3C223.23 104.387 223 104.43 222.745 104.43C222.479 104.43 222.238 104.381 222.024 104.283C221.81 104.183 221.629 104.045 221.48 103.87C221.33 103.694 221.214 103.487 221.132 103.248C221.052 103.006 221.012 102.743 221.012 102.458V102.092C221.012 101.698 221.066 101.333 221.173 100.999C221.28 100.661 221.439 100.37 221.651 100.124C221.863 99.8797 222.126 99.6895 222.441 99.5527C222.755 99.4137 223.119 99.3442 223.531 99.3442H223.658ZM222.714 101.805C222.623 101.805 222.538 101.819 222.458 101.846C222.378 101.871 222.305 101.908 222.239 101.956C222.182 101.999 222.13 102.049 222.082 102.106C222.036 102.163 221.998 102.226 221.966 102.294V102.574C221.966 102.757 221.984 102.916 222.021 103.053C222.059 103.189 222.113 103.302 222.181 103.391C222.25 103.482 222.33 103.551 222.424 103.596C222.517 103.642 222.619 103.665 222.728 103.665C222.84 103.665 222.941 103.642 223.032 103.596C223.123 103.548 223.201 103.483 223.265 103.401C223.328 103.319 223.377 103.222 223.412 103.111C223.446 102.997 223.463 102.873 223.463 102.738C223.463 102.604 223.446 102.48 223.412 102.366C223.377 102.252 223.328 102.153 223.265 102.068C223.201 101.986 223.122 101.923 223.029 101.877C222.938 101.829 222.833 101.805 222.714 101.805Z" fill="#17324D"/>
<rect x="383.145" y="93.7118" width="16.3" height="16.3" rx="8.15" stroke="#17324D" stroke-width="0.7"/>
<path d="M390.813 102.468C390.813 102.79 390.775 103.073 390.7 103.319C390.627 103.563 390.521 103.767 390.382 103.931C390.243 104.097 390.074 104.223 389.873 104.307C389.673 104.391 389.447 104.434 389.196 104.434C388.948 104.434 388.723 104.391 388.523 104.307C388.322 104.223 388.153 104.097 388.014 103.931C387.872 103.767 387.763 103.563 387.686 103.319C387.61 103.073 387.573 102.79 387.573 102.468V101.279C387.573 100.958 387.61 100.675 387.686 100.431C387.761 100.185 387.869 99.9788 388.01 99.8125C388.149 99.6484 388.318 99.5243 388.516 99.4399C388.717 99.3556 388.941 99.3135 389.189 99.3135C389.44 99.3135 389.666 99.3556 389.866 99.4399C390.067 99.5243 390.238 99.6484 390.379 99.8125C390.518 99.9788 390.625 100.185 390.7 100.431C390.775 100.675 390.813 100.958 390.813 101.279V102.468ZM388.53 102.058L389.856 101.07C389.851 100.883 389.831 100.724 389.794 100.592C389.76 100.457 389.709 100.35 389.641 100.271C389.588 100.207 389.523 100.16 389.446 100.13C389.371 100.098 389.285 100.083 389.189 100.083C389.082 100.083 388.988 100.103 388.906 100.144C388.826 100.183 388.759 100.242 388.704 100.322C388.645 100.406 388.6 100.515 388.571 100.65C388.543 100.784 388.53 100.944 388.53 101.128V101.679C388.53 101.788 388.53 101.861 388.53 101.897C388.53 101.934 388.53 101.987 388.53 102.058ZM389.856 102.612V102.034C389.856 101.959 389.856 101.904 389.856 101.87C389.856 101.834 389.856 101.782 389.856 101.716L388.53 102.701C388.534 102.851 388.549 102.984 388.574 103.101C388.602 103.217 388.639 103.314 388.687 103.391C388.742 103.485 388.811 103.554 388.896 103.6C388.98 103.645 389.08 103.668 389.196 103.668C389.303 103.668 389.398 103.649 389.48 103.61C389.562 103.569 389.63 103.507 389.685 103.425C389.742 103.339 389.784 103.228 389.812 103.094C389.841 102.957 389.856 102.796 389.856 102.612ZM395.027 99.915L393.089 104.362H392.088L394.029 100.161H391.531V99.3853H395.027V99.915Z" fill="#17324D"/>
<path d="M184.763 101.092H61.8389V101.862H184.763V101.092Z" fill="#17324D"/>
<path d="M232.961 89.0824C232.473 89.1901 232.032 89.244 231.64 89.244C231.248 89.244 230.933 89.194 230.699 89.0978C230.464 89.0015 230.28 88.8436 230.145 88.6319C230.011 88.4202 229.919 88.1701 229.869 87.8852C229.819 87.5965 229.792 87.2385 229.792 86.8036C229.792 85.8951 229.919 85.2601 230.172 84.9059C230.433 84.5441 230.906 84.3632 231.59 84.3632C231.989 84.3632 232.446 84.4287 232.969 84.5518L232.938 85.314C232.485 85.2447 232.104 85.21 231.797 85.21C231.498 85.21 231.286 85.2524 231.156 85.3332C231.025 85.4141 230.929 85.5642 230.864 85.7913C230.806 86.0184 230.775 86.4033 230.775 86.9499C230.775 87.4926 230.837 87.8737 230.964 88.0854C231.09 88.2932 231.344 88.3972 231.724 88.3972C232.105 88.3972 232.512 88.3664 232.938 88.301L232.961 89.0824ZM233.783 86.0915C234.029 85.772 234.436 85.6104 235.009 85.6104C235.581 85.6104 235.988 85.772 236.234 86.0915C236.476 86.4033 236.599 86.8459 236.599 87.4195C236.599 88.6358 236.069 89.244 235.009 89.244C233.948 89.244 233.418 88.6358 233.418 87.4195C233.418 86.8459 233.541 86.4033 233.783 86.0915ZM234.498 88.2047C234.594 88.3702 234.763 88.451 235.009 88.451C235.254 88.451 235.42 88.3702 235.512 88.2047C235.612 88.0354 235.658 87.7774 235.658 87.4195C235.658 87.0653 235.612 86.8074 235.512 86.6458C235.42 86.4841 235.254 86.4033 235.009 86.4033C234.763 86.4033 234.594 86.4841 234.498 86.6458C234.405 86.8074 234.359 87.0653 234.359 87.4195C234.359 87.7774 234.405 88.0354 234.498 88.2047ZM238.205 89.1593H237.279V85.695H238.197V85.8875C238.512 85.7027 238.8 85.6104 239.061 85.6104C239.522 85.6104 239.841 85.749 240.018 86.0223C240.191 86.2917 240.279 86.7151 240.279 87.281V89.1593H239.353V87.3078C239.353 87.0153 239.319 86.7959 239.249 86.6573C239.18 86.5149 239.042 86.4418 238.835 86.4418C238.646 86.4418 238.462 86.4764 238.289 86.5418L238.205 86.5688V89.1593ZM242.192 86.4841V89.1593H241.266V86.4841H240.894V85.695H241.266V85.5411C241.266 85.0446 241.339 84.6981 241.485 84.5094C241.635 84.3208 241.896 84.2246 242.276 84.2246C242.442 84.2246 242.657 84.2478 242.918 84.294L243.064 84.317L243.049 85.0714C242.845 85.0637 242.676 85.0561 242.538 85.0561C242.399 85.0561 242.307 85.0945 242.261 85.1676C242.215 85.2408 242.192 85.3679 242.192 85.5488V85.695H243.029V86.4841H242.192ZM244.305 87.8237C244.309 88.0354 244.366 88.1893 244.47 88.2855C244.581 88.3779 244.739 88.4242 244.942 88.4242C245.369 88.4242 245.753 88.4126 246.087 88.3818L246.283 88.3625L246.294 89.0477C245.764 89.1786 245.288 89.244 244.858 89.244C244.335 89.244 243.959 89.1054 243.725 88.8282C243.49 88.5511 243.371 88.1007 243.371 87.4772C243.371 86.2339 243.882 85.6104 244.9 85.6104C245.903 85.6104 246.406 86.1339 246.406 87.177L246.337 87.8237H244.305ZM245.496 87.1154C245.496 86.8382 245.449 86.6458 245.361 86.5418C245.277 86.4302 245.119 86.3725 244.9 86.3725C244.681 86.3725 244.528 86.4302 244.435 86.5457C244.347 86.6573 244.301 86.8459 244.297 87.1154H245.496ZM247.07 89.1593V85.695H247.989V86.0607C248.377 85.8297 248.745 85.6796 249.095 85.6104V86.5457C248.722 86.6265 248.4 86.7074 248.135 86.7882L247.996 86.8382V89.1593H247.07ZM250.566 89.1593H249.64V85.695H250.562V85.8875C250.877 85.7027 251.15 85.6104 251.377 85.6104C251.749 85.6104 252.037 85.7219 252.241 85.9375C252.663 85.7219 253.051 85.6104 253.401 85.6104C253.858 85.6104 254.173 85.7451 254.35 86.0145C254.53 86.2763 254.619 86.6997 254.619 87.281V89.1593H253.693V87.3078C253.693 87.0153 253.662 86.7959 253.597 86.6573C253.532 86.5149 253.401 86.4418 253.209 86.4418C253.063 86.4418 252.882 86.4764 252.671 86.5418L252.567 86.5765C252.583 86.9229 252.594 87.1847 252.594 87.3656V89.1593H251.669V87.3772C251.669 87.0385 251.638 86.7959 251.576 86.6573C251.519 86.5149 251.384 86.4418 251.185 86.4418C251.004 86.4418 250.827 86.4764 250.651 86.5418L250.566 86.5688V89.1593ZM258.091 86.7767V88.2163C258.099 88.3279 258.118 88.4048 258.145 88.451C258.172 88.4934 258.23 88.5242 258.318 88.5434L258.291 89.244C258.057 89.244 257.865 89.2248 257.723 89.194C257.584 89.1632 257.446 89.0978 257.3 89.0015C256.97 89.1632 256.632 89.244 256.286 89.244C255.571 89.244 255.214 88.8629 255.214 88.1046C255.214 87.7351 255.314 87.4772 255.51 87.3232C255.71 87.1654 256.013 87.0731 256.424 87.0461L257.162 86.9923V86.7767C257.162 86.6343 257.131 86.5342 257.066 86.4841C257 86.4303 256.897 86.4033 256.755 86.4033L255.456 86.4572L255.429 85.8144C255.921 85.6797 256.39 85.6104 256.831 85.6104C257.277 85.6104 257.6 85.7027 257.792 85.8875C257.991 86.0723 258.091 86.3687 258.091 86.7767ZM256.536 87.6889C256.274 87.712 256.148 87.8506 256.148 88.1046C256.148 88.3587 256.259 88.4857 256.486 88.4857C256.662 88.4857 256.851 88.4588 257.058 88.4049L257.162 88.3779V87.635L256.536 87.6889ZM260.492 90.6143V85.695H261.41V85.8836C261.71 85.7027 261.975 85.6104 262.202 85.6104C262.666 85.6104 263.008 85.7527 263.231 86.0337C263.45 86.3109 263.561 86.7844 263.561 87.4541C263.561 88.1239 263.438 88.5896 263.196 88.8552C262.951 89.1131 262.551 89.244 261.994 89.244C261.841 89.244 261.675 89.2286 261.502 89.2017L261.418 89.1863V90.6143H260.492ZM262.021 86.4418C261.848 86.4418 261.675 86.4764 261.502 86.5457L261.418 86.5804V88.3972C261.625 88.4241 261.794 88.4395 261.925 88.4395C262.19 88.4395 262.374 88.3587 262.471 88.2047C262.57 88.0469 262.62 87.7774 262.62 87.4002C262.62 86.7612 262.421 86.4418 262.021 86.4418ZM264.253 89.1593V85.695H265.175V86.0607C265.559 85.8297 265.928 85.6796 266.281 85.6104V86.5457C265.905 86.6265 265.586 86.7074 265.317 86.7882L265.179 86.8382V89.1593H264.253ZM267.587 87.8237C267.591 88.0354 267.649 88.1893 267.752 88.2855C267.864 88.3779 268.021 88.4242 268.225 88.4242C268.651 88.4242 269.035 88.4126 269.37 88.3818L269.566 88.3625L269.577 89.0477C269.047 89.1786 268.571 89.244 268.14 89.244C267.618 89.244 267.242 89.1054 267.007 88.8282C266.773 88.5511 266.654 88.1007 266.654 87.4772C266.654 86.2339 267.165 85.6104 268.183 85.6104C269.185 85.6104 269.688 86.1339 269.688 87.177L269.619 87.8237H267.587ZM268.778 87.1154C268.778 86.8382 268.732 86.6458 268.644 86.5418C268.559 86.4302 268.402 86.3725 268.183 86.3725C267.964 86.3725 267.81 86.4302 267.718 86.5457C267.629 86.6573 267.583 86.8459 267.58 87.1154H268.778ZM272.835 86.5611C272.262 86.488 271.859 86.4495 271.628 86.4495C271.405 86.4495 271.256 86.4726 271.187 86.5111C271.121 86.5535 271.091 86.6227 271.091 86.715C271.091 86.7997 271.133 86.8651 271.221 86.8998C271.313 86.9344 271.544 86.9845 271.913 87.0538C272.285 87.1193 272.55 87.2271 272.708 87.3772C272.865 87.5312 272.942 87.7775 272.942 88.1201C272.942 88.8668 272.481 89.244 271.555 89.244C271.248 89.244 270.879 89.2016 270.449 89.1169L270.226 89.0746L270.253 88.301C270.825 88.3741 271.221 88.4126 271.444 88.4126C271.671 88.4126 271.82 88.3894 271.901 88.3471C271.982 88.3009 272.024 88.2356 272.024 88.147C272.024 88.0585 271.982 87.9969 271.893 87.9546C271.809 87.9122 271.59 87.8621 271.229 87.8005C270.875 87.7428 270.61 87.6389 270.434 87.4964C270.257 87.354 270.172 87.1 270.172 86.7343C270.172 86.3648 270.295 86.0877 270.545 85.9029C270.795 85.7143 271.114 85.6181 271.505 85.6181C271.778 85.6181 272.147 85.6642 272.619 85.7489L272.846 85.7913L272.835 86.5611ZM276.261 86.7767V88.2163C276.269 88.3279 276.288 88.4048 276.315 88.451C276.346 88.4934 276.403 88.5242 276.488 88.5434L276.461 89.244C276.226 89.244 276.038 89.2248 275.896 89.194C275.758 89.1632 275.616 89.0978 275.473 89.0015C275.139 89.1632 274.801 89.244 274.456 89.244C273.741 89.244 273.384 88.8629 273.384 88.1046C273.384 87.7351 273.484 87.4772 273.683 87.3232C273.879 87.1654 274.183 87.0731 274.594 87.0461L275.335 86.9923V86.7767C275.335 86.6343 275.301 86.5342 275.239 86.4841C275.174 86.4303 275.07 86.4033 274.928 86.4033L273.626 86.4572L273.599 85.8144C274.091 85.6797 274.559 85.6104 275.001 85.6104C275.45 85.6104 275.769 85.7027 275.965 85.8875C276.161 86.0723 276.261 86.3687 276.261 86.7767ZM274.705 87.6889C274.448 87.712 274.317 87.8506 274.317 88.1046C274.317 88.3587 274.433 88.4857 274.655 88.4857C274.832 88.4857 275.024 88.4588 275.232 88.4049L275.335 88.3779V87.635L274.705 87.6889ZM278.662 89.1593V85.695H279.591V89.1593H278.662ZM278.662 85.2524V84.3093H279.591V85.2524H278.662ZM281.374 89.1593H280.444V85.695H281.366V85.8875C281.677 85.7027 281.965 85.6104 282.23 85.6104C282.691 85.6104 283.01 85.749 283.183 86.0223C283.36 86.2917 283.448 86.7151 283.448 87.281V89.1593H282.519V87.3078C282.519 87.0153 282.484 86.7959 282.415 86.6573C282.346 86.5149 282.207 86.4418 282 86.4418C281.812 86.4418 281.631 86.4764 281.455 86.5418L281.374 86.5688V89.1593ZM287.078 85.6104C287.32 85.6104 287.628 85.6489 288 85.722L288.185 85.7643L288.158 86.4996C287.793 86.4611 287.524 86.4418 287.351 86.4418C287.032 86.4418 286.821 86.5111 286.713 86.6496C286.613 86.7844 286.56 87.0422 286.56 87.4195C286.56 87.8005 286.613 88.0585 286.713 88.2047C286.821 88.3433 287.032 88.4126 287.355 88.4126L288.158 88.3548L288.185 89.0978C287.693 89.194 287.316 89.244 287.059 89.244C286.548 89.244 286.179 89.0978 285.953 88.8129C285.73 88.5204 285.622 88.0584 285.622 87.4195C285.622 86.7844 285.738 86.3224 285.968 86.0414C286.199 85.7566 286.567 85.6104 287.078 85.6104ZM291.523 86.7767V88.2163C291.53 88.3279 291.55 88.4048 291.577 88.451C291.603 88.4934 291.661 88.5242 291.749 88.5434L291.722 89.244C291.488 89.244 291.296 89.2248 291.154 89.194C291.016 89.1632 290.877 89.0978 290.731 89.0015C290.401 89.1632 290.063 89.244 289.717 89.244C289.003 89.244 288.646 88.8629 288.646 88.1046C288.646 87.7351 288.745 87.4772 288.941 87.3232C289.141 87.1654 289.445 87.0731 289.856 87.0461L290.593 86.9923V86.7767C290.593 86.6343 290.562 86.5342 290.497 86.4841C290.432 86.4303 290.328 86.4033 290.186 86.4033L288.888 86.4572L288.861 85.8144C289.352 85.6797 289.821 85.6104 290.263 85.6104C290.708 85.6104 291.031 85.7027 291.223 85.8875C291.423 86.0723 291.523 86.3687 291.523 86.7767ZM289.967 87.6889C289.706 87.712 289.579 87.8506 289.579 88.1046C289.579 88.3587 289.69 88.4857 289.917 88.4857C290.094 88.4857 290.282 88.4588 290.489 88.4049L290.593 88.3779V87.635L289.967 87.6889ZM292.406 89.1593V85.695H293.324V86.0607C293.712 85.8297 294.081 85.6796 294.431 85.6104V86.5457C294.058 86.6265 293.735 86.7074 293.47 86.7882L293.332 86.8382V89.1593H292.406ZM294.976 89.1593V85.695H295.902V89.1593H294.976ZM294.976 85.2524V84.3093H295.902V85.2524H294.976ZM298.053 85.6104C298.291 85.6104 298.599 85.6489 298.971 85.722L299.159 85.7643L299.132 86.4996C298.768 86.4611 298.499 86.4418 298.322 86.4418C298.003 86.4418 297.792 86.5111 297.688 86.6496C297.584 86.7844 297.535 87.0422 297.535 87.4195C297.535 87.8005 297.584 88.0585 297.688 88.2047C297.792 88.3433 298.007 88.4126 298.33 88.4126L299.132 88.3548L299.159 89.0978C298.668 89.194 298.291 89.244 298.034 89.244C297.519 89.244 297.15 89.0978 296.928 88.8129C296.705 88.5204 296.593 88.0584 296.593 87.4195C296.593 86.7844 296.709 86.3224 296.939 86.0414C297.17 85.7566 297.542 85.6104 298.053 85.6104ZM300.004 86.0915C300.25 85.772 300.657 85.6104 301.23 85.6104C301.802 85.6104 302.209 85.772 302.451 86.0915C302.697 86.4033 302.82 86.8459 302.82 87.4195C302.82 88.6358 302.29 89.244 301.23 89.244C300.17 89.244 299.64 88.6358 299.64 87.4195C299.64 86.8459 299.762 86.4033 300.004 86.0915ZM300.719 88.2047C300.815 88.3702 300.984 88.451 301.23 88.451C301.472 88.451 301.641 88.3702 301.733 88.2047C301.829 88.0354 301.879 87.7774 301.879 87.4195C301.879 87.0653 301.829 86.8074 301.733 86.6458C301.641 86.4841 301.472 86.4033 301.23 86.4033C300.984 86.4033 300.815 86.4841 300.719 86.6458C300.627 86.8074 300.581 87.0653 300.581 87.4195C300.581 87.7774 300.627 88.0354 300.719 88.2047Z" fill="#17324D"/>
<path d="M352.392 101.092H229.469V101.862H352.392V101.092Z" fill="#17324D"/>
<path d="M401.888 89.1594H400.306V84.448H401.888C402.295 84.448 402.63 84.4904 402.891 84.5789C403.156 84.6636 403.356 84.8021 403.502 85.0023C403.648 85.1947 403.747 85.4257 403.805 85.6951C403.859 85.9569 403.886 86.3033 403.886 86.7267C403.886 87.154 403.863 87.5042 403.813 87.7891C403.759 88.0662 403.663 88.3126 403.521 88.5358C403.383 88.7514 403.179 88.9131 402.914 89.0132C402.645 89.1094 402.303 89.1594 401.888 89.1594ZM402.891 87.2887C402.902 87.1424 402.906 86.9385 402.906 86.6806C402.906 86.415 402.895 86.2071 402.879 86.0492C402.86 85.8914 402.814 85.749 402.745 85.6182C402.676 85.4911 402.572 85.4026 402.434 85.3565C402.303 85.3064 402.119 85.2794 401.888 85.2794H401.258V88.328H401.888C402.234 88.328 402.488 88.2394 402.641 88.0662C402.776 87.9199 402.86 87.662 402.891 87.2887ZM404.819 86.0916C405.061 85.7721 405.472 85.6105 406.041 85.6105C406.613 85.6105 407.02 85.7721 407.266 86.0916C407.512 86.4034 407.631 86.846 407.631 87.4196C407.631 88.6359 407.101 89.2441 406.041 89.2441C404.981 89.2441 404.451 88.6359 404.451 87.4196C404.451 86.846 404.573 86.4034 404.819 86.0916ZM405.53 88.2048C405.626 88.3703 405.799 88.4511 406.041 88.4511C406.287 88.4511 406.456 88.3703 406.548 88.2048C406.644 88.0355 406.694 87.7776 406.694 87.4196C406.694 87.0654 406.644 86.8075 406.548 86.6459C406.456 86.4842 406.287 86.4034 406.041 86.4034C405.799 86.4034 405.626 86.4842 405.53 86.6459C405.438 86.8075 405.392 87.0654 405.392 87.4196C405.392 87.7776 405.438 88.0355 405.53 88.2048ZM409.606 85.6105C409.844 85.6105 410.151 85.649 410.524 85.7221L410.712 85.7644L410.685 86.4997C410.32 86.4612 410.051 86.4419 409.874 86.4419C409.556 86.4419 409.344 86.5112 409.237 86.6497C409.137 86.7845 409.087 87.0424 409.087 87.4196C409.087 87.8006 409.137 88.0586 409.237 88.2048C409.344 88.3434 409.559 88.4127 409.882 88.4127L410.685 88.3549L410.712 89.0979C410.216 89.1941 409.844 89.2441 409.583 89.2441C409.072 89.2441 408.703 89.0979 408.476 88.813C408.257 88.5205 408.146 88.0585 408.146 87.4196C408.146 86.7845 408.261 86.3225 408.492 86.0415C408.722 85.7567 409.095 85.6105 409.606 85.6105ZM413.439 85.6951H414.365V89.1594H413.443V88.967C413.113 89.1517 412.825 89.2441 412.579 89.2441C412.102 89.2441 411.78 89.1094 411.611 88.8476C411.446 88.5782 411.365 88.1355 411.365 87.512V85.6951H412.291V87.5235C412.291 87.8661 412.318 88.1009 412.371 88.2241C412.429 88.3473 412.563 88.4127 412.775 88.4127C412.978 88.4127 413.167 88.3781 413.347 88.3126L413.439 88.2856V85.6951ZM416.147 89.1594H415.222V85.6951H416.14V85.8876C416.459 85.7028 416.731 85.6105 416.954 85.6105C417.331 85.6105 417.619 85.722 417.818 85.9376C418.245 85.722 418.633 85.6105 418.982 85.6105C419.439 85.6105 419.755 85.7452 419.927 86.0147C420.108 86.2764 420.2 86.6998 420.2 87.2811V89.1594H419.27V87.3079C419.27 87.0154 419.24 86.796 419.174 86.6574C419.109 86.515 418.982 86.4419 418.786 86.4419C418.64 86.4419 418.46 86.4765 418.249 86.5419L418.145 86.5766C418.164 86.9231 418.172 87.1848 418.172 87.3657V89.1594H417.246V87.3773C417.246 87.0386 417.215 86.796 417.158 86.6574C417.096 86.515 416.966 86.4419 416.762 86.4419C416.581 86.4419 416.405 86.4765 416.228 86.5419L416.147 86.5689V89.1594ZM421.779 87.8238C421.787 88.0355 421.84 88.1894 421.948 88.2856C422.055 88.378 422.213 88.4243 422.417 88.4243C422.847 88.4243 423.227 88.4127 423.565 88.3819L423.757 88.3626L423.773 89.0478C423.242 89.1787 422.762 89.2441 422.332 89.2441C421.813 89.2441 421.433 89.1055 421.199 88.8284C420.964 88.5512 420.845 88.1008 420.845 87.4773C420.845 86.234 421.356 85.6105 422.374 85.6105C423.381 85.6105 423.884 86.134 423.884 87.1771L423.815 87.8238H421.779ZM422.97 87.1155C422.97 86.8383 422.927 86.6459 422.839 86.5419C422.751 86.4303 422.597 86.3726 422.374 86.3726C422.159 86.3726 422.006 86.4303 421.913 86.5458C421.825 86.6574 421.779 86.846 421.775 87.1155H422.97ZM425.47 89.1594H424.545V85.6951H425.463V85.8876C425.778 85.7028 426.066 85.6105 426.327 85.6105C426.788 85.6105 427.107 85.7491 427.284 86.0224C427.456 86.2918 427.545 86.7152 427.545 87.2811V89.1594H426.619V87.3079C426.619 87.0154 426.584 86.796 426.515 86.6574C426.446 86.515 426.308 86.4419 426.1 86.4419C425.912 86.4419 425.728 86.4765 425.555 86.5419L425.47 86.5689V89.1594ZM430.284 86.4842H429.431V87.9046C429.431 88.0432 429.435 88.1432 429.439 88.2048C429.446 88.2587 429.473 88.3087 429.515 88.3472C429.562 88.3895 429.631 88.4127 429.723 88.4127L430.249 88.3973L430.288 89.1402C429.98 89.2094 429.746 89.2441 429.585 89.2441C429.17 89.2441 428.885 89.1517 428.732 88.967C428.582 88.7745 428.505 88.4281 428.505 87.9277V86.4842H428.098V85.6951H428.505V84.7328H429.431V85.6951H430.284V86.4842ZM431.071 86.0916C431.317 85.7721 431.724 85.6105 432.297 85.6105C432.869 85.6105 433.276 85.7721 433.518 86.0916C433.764 86.4034 433.887 86.846 433.887 87.4196C433.887 88.6359 433.357 89.2441 432.297 89.2441C431.236 89.2441 430.706 88.6359 430.706 87.4196C430.706 86.846 430.829 86.4034 431.071 86.0916ZM431.786 88.2048C431.882 88.3703 432.051 88.4511 432.297 88.4511C432.539 88.4511 432.708 88.3703 432.8 88.2048C432.896 88.0355 432.946 87.7776 432.946 87.4196C432.946 87.0654 432.896 86.8075 432.8 86.6459C432.708 86.4842 432.539 86.4034 432.297 86.4034C432.051 86.4034 431.882 86.4842 431.786 86.6459C431.693 86.8075 431.647 87.0654 431.647 87.4196C431.647 87.7776 431.693 88.0355 431.786 88.2048ZM436.084 90.6144V85.6951H437.006V85.8837C437.306 85.7028 437.567 85.6105 437.793 85.6105C438.258 85.6105 438.6 85.7528 438.823 86.0338C439.046 86.311 439.153 86.7845 439.153 87.4543C439.153 88.124 439.034 88.5897 438.788 88.8553C438.543 89.1132 438.143 89.2441 437.586 89.2441C437.432 89.2441 437.271 89.2288 437.094 89.2018L437.01 89.1864V90.6144H436.084ZM437.613 86.4419C437.444 86.4419 437.271 86.4765 437.094 86.5458L437.01 86.5805V88.3973C437.217 88.4242 437.386 88.4396 437.517 88.4396C437.782 88.4396 437.966 88.3588 438.062 88.2048C438.162 88.047 438.216 87.7775 438.216 87.4003C438.216 86.7613 438.012 86.4419 437.613 86.4419ZM439.845 89.1594V85.6951H440.767V86.0608C441.151 85.8298 441.52 85.6798 441.873 85.6105V86.5458C441.497 86.6266 441.178 86.7075 440.909 86.7883L440.771 86.8383V89.1594H439.845ZM442.607 86.0916C442.849 85.7721 443.256 85.6105 443.828 85.6105C444.401 85.6105 444.808 85.7721 445.054 86.0916C445.296 86.4034 445.419 86.846 445.419 87.4196C445.419 88.6359 444.889 89.2441 443.828 89.2441C442.768 89.2441 442.238 88.6359 442.238 87.4196C442.238 86.846 442.361 86.4034 442.607 86.0916ZM443.317 88.2048C443.413 88.3703 443.586 88.4511 443.828 88.4511C444.074 88.4511 444.243 88.3703 444.335 88.2048C444.431 88.0355 444.478 87.7776 444.478 87.4196C444.478 87.0654 444.431 86.8075 444.335 86.6459C444.243 86.4842 444.074 86.4034 443.828 86.4034C443.586 86.4034 443.413 86.4842 443.317 86.6459C443.225 86.8075 443.179 87.0654 443.179 87.4196C443.179 87.7776 443.225 88.0355 443.317 88.2048ZM447.024 89.1594H446.099V85.6951H447.017V85.8876C447.332 85.7028 447.62 85.6105 447.881 85.6105C448.342 85.6105 448.661 85.7491 448.837 86.0224C449.01 86.2918 449.099 86.7152 449.099 87.2811V89.1594H448.173V87.3079C448.173 87.0154 448.138 86.796 448.069 86.6574C448 86.515 447.862 86.4419 447.654 86.4419C447.466 86.4419 447.282 86.4765 447.109 86.5419L447.024 86.5689V89.1594ZM451.838 86.4842H450.985V87.9046C450.985 88.0432 450.989 88.1432 450.992 88.2048C451 88.2587 451.027 88.3087 451.069 88.3472C451.115 88.3895 451.185 88.4127 451.277 88.4127L451.803 88.3973L451.841 89.1402C451.534 89.2094 451.3 89.2441 451.138 89.2441C450.724 89.2441 450.439 89.1517 450.286 88.967C450.136 88.7745 450.059 88.4281 450.059 87.9277V86.4842H449.652V85.6951H450.059V84.7328H450.985V85.6951H451.838V86.4842ZM452.625 86.0916C452.871 85.7721 453.278 85.6105 453.85 85.6105C454.423 85.6105 454.83 85.7721 455.072 86.0916C455.318 86.4034 455.441 86.846 455.441 87.4196C455.441 88.6359 454.911 89.2441 453.85 89.2441C452.79 89.2441 452.26 88.6359 452.26 87.4196C452.26 86.846 452.383 86.4034 452.625 86.0916ZM453.34 88.2048C453.436 88.3703 453.605 88.4511 453.85 88.4511C454.092 88.4511 454.261 88.3703 454.354 88.2048C454.45 88.0355 454.5 87.7776 454.5 87.4196C454.5 87.0654 454.45 86.8075 454.354 86.6459C454.261 86.4842 454.092 86.4034 453.85 86.4034C453.605 86.4034 453.436 86.4842 453.34 86.6459C453.247 86.8075 453.201 87.0654 453.201 87.4196C453.201 87.7776 453.247 88.0355 453.34 88.2048Z" fill="#17324D"/>
<path d="M522.719 101.092H399.795V101.862H522.719V101.092Z" fill="#17324D"/>
<path d="M183.226 231.965C183.226 232.816 183.913 233.505 184.762 233.505C185.611 233.505 186.299 232.816 186.299 231.965C186.299 231.114 185.611 230.425 184.762 230.425C183.913 230.425 183.226 231.114 183.226 231.965ZM227.903 232.169C228.015 232.057 228.015 231.873 227.903 231.761L226.071 229.925C225.956 229.81 225.775 229.81 225.664 229.925C225.549 230.037 225.549 230.218 225.664 230.333L227.293 231.965L225.664 233.597C225.549 233.713 225.549 233.894 225.664 234.005C225.775 234.121 225.956 234.121 226.071 234.005L227.903 232.169ZM184.762 231.965V232.254H227.7V231.965V231.676H184.762V231.965Z" fill="#004080"/>
<g filter="url(#filter2_d_40000384_3832)">
<path d="M513.499 122.647H409.014C403.923 122.647 399.795 126.783 399.795 131.886V332.044C399.795 337.146 403.923 341.283 409.014 341.283H513.499C518.591 341.283 522.719 337.146 522.719 332.044V131.886C522.719 126.783 518.591 122.647 513.499 122.647Z" fill="white"/>
<path d="M513.5 128.806H409.014C407.317 128.806 405.941 130.185 405.941 131.886V153.441C405.941 155.142 407.317 156.52 409.014 156.52H513.5C515.197 156.52 516.573 155.142 516.573 153.441V131.886C516.573 130.185 515.197 128.806 513.5 128.806Z" fill="#5C6F82" stroke="#768594" stroke-width="0.5"/>
<path fill-rule="evenodd" clip-rule="evenodd" d="M414.234 140.646C414.092 140.781 413.869 140.785 413.723 140.654L412.74 139.792C412.594 139.665 412.371 139.692 412.256 139.846C412.16 139.98 412.175 140.165 412.295 140.281L413.716 141.636C413.866 141.782 414.1 141.778 414.25 141.632L418.033 137.929C418.145 137.817 418.153 137.636 418.053 137.517C417.941 137.386 417.742 137.375 417.619 137.49L414.234 140.646Z" fill="white"/>
<path d="M426.077 141.509H424.802V137.817H426.077C426.646 137.817 427.03 137.96 427.241 138.248C427.448 138.537 427.552 138.987 427.552 139.599C427.552 139.915 427.529 140.181 427.487 140.4C427.448 140.616 427.375 140.808 427.272 140.985C427.068 141.335 426.669 141.509 426.077 141.509ZM426.934 139.599C426.934 139.157 426.876 138.833 426.765 138.637C426.653 138.437 426.427 138.341 426.077 138.341H425.401V140.981H426.077C426.434 140.981 426.669 140.85 426.788 140.589C426.845 140.454 426.884 140.311 426.899 140.161C426.922 140.011 426.934 139.823 426.934 139.599ZM428.324 139.107C428.509 138.872 428.82 138.756 429.25 138.756C429.68 138.756 429.984 138.872 430.168 139.107C430.356 139.338 430.449 139.688 430.449 140.157C430.449 140.623 430.36 140.974 430.18 141.212C429.999 141.451 429.688 141.566 429.25 141.566C428.808 141.566 428.497 141.451 428.317 141.212C428.14 140.974 428.048 140.623 428.048 140.157C428.048 139.688 428.14 139.338 428.324 139.107ZM428.766 140.858C428.847 141 429.008 141.074 429.25 141.074C429.488 141.074 429.65 141 429.734 140.858C429.815 140.712 429.857 140.477 429.857 140.15C429.857 139.823 429.811 139.592 429.723 139.457C429.634 139.318 429.477 139.249 429.25 139.249C429.02 139.249 428.858 139.318 428.77 139.457C428.685 139.592 428.639 139.823 428.639 140.15C428.639 140.477 428.681 140.712 428.766 140.858ZM432.035 138.756C432.227 138.756 432.45 138.779 432.707 138.83L432.842 138.857L432.822 139.322C432.538 139.291 432.327 139.276 432.193 139.276C431.92 139.276 431.735 139.338 431.643 139.461C431.551 139.584 431.505 139.811 431.505 140.15C431.505 140.489 431.547 140.723 431.639 140.85C431.728 140.981 431.916 141.047 432.196 141.047L432.826 141L432.842 141.47C432.481 141.535 432.208 141.566 432.024 141.566C431.616 141.566 431.328 141.459 431.159 141.239C430.994 141.016 430.913 140.654 430.913 140.15C430.913 139.649 431.002 139.291 431.175 139.08C431.351 138.864 431.639 138.756 432.035 138.756ZM435.039 138.814H435.619V141.509H435.039V141.343C434.778 141.493 434.536 141.566 434.313 141.566C433.944 141.566 433.694 141.47 433.572 141.27C433.445 141.07 433.383 140.719 433.383 140.219V138.814H433.967V140.227C433.967 140.55 433.994 140.766 434.048 140.877C434.102 140.989 434.228 141.047 434.424 141.047C434.62 141.047 434.797 141.008 434.958 140.939L435.039 140.904V138.814ZM436.917 141.509H436.33V138.814H436.91V138.98C437.163 138.829 437.398 138.756 437.609 138.756C437.92 138.756 438.15 138.841 438.293 139.018C438.619 138.841 438.942 138.756 439.264 138.756C439.587 138.756 439.818 138.856 439.948 139.057C440.083 139.253 440.148 139.592 440.148 140.065V141.509H439.568V140.081C439.568 139.788 439.537 139.584 439.476 139.461C439.418 139.338 439.295 139.276 439.111 139.276C438.95 139.276 438.773 139.315 438.588 139.384L438.496 139.422C438.527 139.495 438.538 139.726 438.538 140.111V141.509H437.958V140.123C437.958 139.803 437.932 139.584 437.874 139.461C437.816 139.338 437.69 139.276 437.497 139.276C437.317 139.276 437.152 139.315 436.998 139.384L436.917 139.418V141.509ZM442.749 141.024L442.902 141.008L442.91 141.443C442.503 141.528 442.142 141.566 441.827 141.566C441.427 141.566 441.139 141.459 440.966 141.239C440.793 141.02 440.705 140.669 440.705 140.188C440.705 139.234 441.097 138.756 441.873 138.756C442.626 138.756 443.002 139.164 443.002 139.988L442.964 140.408H441.297C441.3 140.631 441.35 140.796 441.442 140.9C441.535 141.004 441.711 141.054 441.965 141.054C442.218 141.054 442.48 141.047 442.749 141.024ZM442.426 139.957C442.426 139.692 442.384 139.507 442.299 139.403C442.215 139.295 442.073 139.241 441.873 139.241C441.673 139.241 441.527 139.295 441.431 139.407C441.343 139.519 441.297 139.703 441.293 139.957H442.426ZM444.155 141.509H443.567V138.814H444.147V138.98C444.408 138.829 444.658 138.756 444.888 138.756C445.249 138.756 445.491 138.856 445.622 139.06C445.753 139.264 445.822 139.596 445.822 140.065V141.509H445.238V140.081C445.238 139.788 445.207 139.584 445.142 139.461C445.08 139.338 444.954 139.276 444.761 139.276C444.577 139.276 444.4 139.315 444.235 139.384L444.155 139.418V141.509ZM447.95 139.315H447.208V140.5C447.208 140.719 447.224 140.866 447.255 140.939C447.289 141.008 447.37 141.047 447.504 141.047L447.942 141.027L447.969 141.497C447.731 141.543 447.546 141.566 447.424 141.566C447.116 141.566 446.909 141.497 446.794 141.358C446.682 141.216 446.625 140.954 446.625 140.566V139.315H446.283V138.814H446.625V138.033H447.208V138.814H447.95V139.315ZM448.576 139.107C448.76 138.872 449.072 138.756 449.502 138.756C449.932 138.756 450.235 138.872 450.42 139.107C450.604 139.338 450.7 139.688 450.7 140.157C450.7 140.623 450.608 140.974 450.431 141.212C450.251 141.451 449.94 141.566 449.502 141.566C449.06 141.566 448.749 141.451 448.568 141.212C448.392 140.974 448.299 140.623 448.299 140.157C448.299 139.688 448.392 139.338 448.576 139.107ZM449.018 140.858C449.098 141 449.26 141.074 449.502 141.074C449.74 141.074 449.901 141 449.986 140.858C450.066 140.712 450.109 140.477 450.109 140.15C450.109 139.823 450.063 139.592 449.974 139.457C449.886 139.318 449.728 139.249 449.502 139.249C449.271 139.249 449.11 139.318 449.022 139.457C448.937 139.592 448.891 139.823 448.891 140.15C448.891 140.477 448.933 140.712 449.018 140.858ZM452.463 142.667V138.814H453.043V138.98C453.293 138.829 453.524 138.756 453.739 138.756C454.092 138.756 454.353 138.864 454.519 139.084C454.684 139.299 454.764 139.665 454.764 140.177C454.764 140.689 454.668 141.047 454.48 141.255C454.292 141.462 453.988 141.566 453.562 141.566C453.412 141.566 453.243 141.551 453.051 141.52V142.667H452.463ZM453.635 139.276C453.466 139.276 453.297 139.315 453.132 139.391L453.051 139.43V141.02C453.193 141.047 453.351 141.062 453.524 141.062C453.766 141.062 453.935 140.993 454.027 140.85C454.123 140.712 454.169 140.473 454.169 140.134C454.169 139.565 453.992 139.276 453.635 139.276ZM455.352 141.509V138.814H455.932V139.137C456.236 138.941 456.543 138.814 456.846 138.756V139.342C456.539 139.403 456.274 139.484 456.055 139.58L455.94 139.626V141.509H455.352ZM457.419 139.107C457.607 138.872 457.914 138.756 458.344 138.756C458.775 138.756 459.082 138.872 459.263 139.107C459.451 139.338 459.543 139.688 459.543 140.157C459.543 140.623 459.455 140.974 459.274 141.212C459.094 141.451 458.786 141.566 458.344 141.566C457.903 141.566 457.592 141.451 457.415 141.212C457.234 140.974 457.146 140.623 457.146 140.157C457.146 139.688 457.234 139.338 457.419 139.107ZM457.861 140.858C457.941 141 458.102 141.074 458.344 141.074C458.583 141.074 458.744 141 458.829 140.858C458.909 140.712 458.951 140.477 458.951 140.15C458.951 139.823 458.905 139.592 458.817 139.457C458.733 139.318 458.575 139.249 458.344 139.249C458.114 139.249 457.957 139.318 457.864 139.457C457.78 139.592 457.738 139.823 457.738 140.15C457.738 140.477 457.776 140.712 457.861 140.858ZM460.711 141.509H460.127V138.814H460.707V138.98C460.968 138.829 461.214 138.756 461.448 138.756C461.806 138.756 462.052 138.856 462.178 139.06C462.313 139.264 462.378 139.596 462.378 140.065V141.509H461.798V140.081C461.798 139.788 461.767 139.584 461.702 139.461C461.64 139.338 461.514 139.276 461.318 139.276C461.137 139.276 460.961 139.315 460.791 139.384L460.711 139.418V141.509ZM464.51 139.315H463.765V140.5C463.765 140.719 463.784 140.866 463.815 140.939C463.845 141.008 463.93 141.047 464.06 141.047L464.502 141.027L464.529 141.497C464.291 141.543 464.107 141.566 463.98 141.566C463.676 141.566 463.465 141.497 463.354 141.358C463.242 141.216 463.185 140.954 463.185 140.566V139.315H462.843V138.814H463.185V138.033H463.765V138.814H464.51V139.315ZM465.132 139.107C465.32 138.872 465.628 138.756 466.058 138.756C466.488 138.756 466.796 138.872 466.98 139.107C467.164 139.338 467.257 139.688 467.257 140.157C467.257 140.623 467.168 140.974 466.988 141.212C466.811 141.451 466.5 141.566 466.058 141.566C465.616 141.566 465.309 141.451 465.128 141.212C464.948 140.974 464.86 140.623 464.86 140.157C464.86 139.688 464.952 139.338 465.132 139.107ZM465.574 140.858C465.658 141 465.82 141.074 466.058 141.074C466.3 141.074 466.461 141 466.542 140.858C466.627 140.712 466.665 140.477 466.665 140.15C466.665 139.823 466.623 139.592 466.53 139.457C466.446 139.318 466.288 139.249 466.058 139.249C465.831 139.249 465.67 139.318 465.582 139.457C465.493 139.592 465.451 139.823 465.451 140.15C465.451 140.477 465.493 140.712 465.574 140.858Z" fill="white"/>
<path fill-rule="evenodd" clip-rule="evenodd" d="M412.087 148.822C412.087 147.971 412.775 147.282 413.623 147.282H508.889C509.738 147.282 510.426 147.971 510.426 148.822C510.426 149.673 509.738 150.362 508.889 150.362H413.623C412.775 150.362 412.087 149.673 412.087 148.822Z" fill="#EBECED"/>
<path d="M513.499 131.886L510.426 134.965M510.426 131.886L513.499 134.965" stroke="white" stroke-width="1.5" stroke-linecap="round" stroke-linejoin="round"/>
</g>
<g filter="url(#filter3_d_40000384_3832)">
<path d="M343.211 122.647H238.726C233.634 122.647 229.507 126.783 229.507 131.886V332.044C229.507 337.146 233.634 341.283 238.726 341.283H343.211C348.303 341.283 352.431 337.146 352.431 332.044V131.886C352.431 126.783 348.303 122.647 343.211 122.647Z" fill="white"/>
<path d="M252.771 205.174V207.053H251.918V201.779H253.915C255.102 201.779 255.698 202.341 255.698 203.458C255.698 204.208 255.41 204.716 254.837 204.982L255.706 207.053H254.768L254.008 205.174H252.771ZM254.822 203.465C254.822 202.834 254.519 202.518 253.915 202.518H252.771V204.435H253.931C254.238 204.435 254.461 204.351 254.607 204.174C254.749 203.996 254.822 203.758 254.822 203.465ZM256.566 207.053V203.204H257.403V207.053H256.566ZM256.566 202.549V201.664H257.403V202.549H256.566ZM259.854 203.119C260.127 203.119 260.446 203.157 260.815 203.227L261.007 203.265L260.976 203.927C260.573 203.889 260.273 203.866 260.077 203.866C259.689 203.866 259.428 203.954 259.293 204.127C259.163 204.304 259.094 204.632 259.094 205.113C259.094 205.598 259.159 205.929 259.286 206.114C259.416 206.298 259.681 206.391 260.085 206.391L260.984 206.329L261.007 206.999C260.492 207.091 260.1 207.137 259.839 207.137C259.255 207.137 258.844 206.983 258.602 206.668C258.368 206.352 258.249 205.833 258.249 205.113C258.249 204.397 258.375 203.885 258.625 203.581C258.879 203.273 259.286 203.119 259.854 203.119ZM262.655 207.053H261.817V201.602H262.655V203.404C263.035 203.215 263.384 203.119 263.707 203.119C264.218 203.119 264.568 203.265 264.752 203.558C264.94 203.846 265.036 204.324 265.036 204.99V207.053H264.199V205.013C264.199 204.597 264.157 204.304 264.068 204.127C263.98 203.954 263.795 203.866 263.515 203.866C263.269 203.866 263.023 203.908 262.778 203.989L262.655 204.035V207.053ZM266.012 207.053V203.204H266.849V207.053H266.012ZM266.012 202.549V201.664H266.849V202.549H266.012ZM270.598 206.36L270.814 206.337L270.829 206.96C270.245 207.08 269.73 207.137 269.277 207.137C268.709 207.137 268.301 206.983 268.048 206.668C267.802 206.356 267.679 205.856 267.679 205.167C267.679 203.804 268.236 203.119 269.346 203.119C270.422 203.119 270.96 203.708 270.96 204.882L270.906 205.482H268.524C268.532 205.802 268.601 206.037 268.732 206.183C268.866 206.333 269.116 206.406 269.477 206.406C269.842 206.406 270.214 206.391 270.598 206.36ZM270.138 204.836C270.138 204.458 270.076 204.193 269.953 204.043C269.838 203.889 269.634 203.812 269.346 203.812C269.062 203.812 268.851 203.893 268.716 204.05C268.589 204.212 268.524 204.474 268.516 204.836H270.138ZM274.432 203.996C273.829 203.916 273.391 203.873 273.118 203.873C272.846 203.873 272.657 203.908 272.55 203.973C272.446 204.035 272.396 204.135 272.396 204.274C272.396 204.412 272.454 204.512 272.565 204.566C272.684 204.624 272.953 204.689 273.38 204.766C273.81 204.839 274.113 204.955 274.294 205.113C274.474 205.274 274.563 205.555 274.563 205.96C274.563 206.368 274.432 206.664 274.171 206.853C273.914 207.045 273.537 207.137 273.042 207.137C272.73 207.137 272.335 207.095 271.858 207.007L271.62 206.968L271.651 206.267C272.266 206.352 272.707 206.391 272.98 206.391C273.253 206.391 273.445 206.36 273.556 206.291C273.675 206.225 273.733 206.113 273.733 205.96C273.733 205.806 273.675 205.702 273.564 205.644C273.456 205.582 273.191 205.521 272.773 205.452C272.358 205.382 272.054 205.271 271.858 205.12C271.663 204.974 271.567 204.701 271.567 204.304C271.567 203.912 271.701 203.615 271.966 203.419C272.239 203.227 272.584 203.127 273.003 203.127C273.33 203.127 273.733 203.169 274.209 203.25L274.448 203.296L274.432 203.996ZM277.432 203.919H276.372V205.613C276.372 205.929 276.395 206.137 276.441 206.237C276.487 206.341 276.606 206.391 276.795 206.391L277.425 206.368L277.463 207.037C277.121 207.107 276.86 207.137 276.679 207.137C276.245 207.137 275.946 207.037 275.78 206.837C275.623 206.637 275.542 206.26 275.542 205.706V203.919H275.051V203.204H275.542V202.087H276.372V203.204H277.432V203.919ZM280.962 204.389V206.144C280.97 206.26 280.997 206.345 281.047 206.398C281.105 206.452 281.189 206.483 281.301 206.498L281.277 207.137C280.84 207.137 280.498 207.045 280.256 206.853C279.849 207.045 279.434 207.137 279.019 207.137C278.258 207.137 277.874 206.729 277.874 205.913C277.874 205.525 277.978 205.244 278.181 205.067C278.393 204.893 278.711 204.789 279.142 204.751L280.133 204.666V204.389C280.133 204.185 280.087 204.043 279.994 203.958C279.91 203.877 279.779 203.835 279.603 203.835C279.276 203.835 278.865 203.858 278.373 203.896L278.128 203.912L278.097 203.319C278.658 203.188 279.169 203.119 279.633 203.119C280.106 203.119 280.444 203.223 280.647 203.427C280.859 203.627 280.962 203.95 280.962 204.389ZM279.242 205.344C278.888 205.375 278.711 205.567 278.711 205.921C278.711 206.275 278.869 206.452 279.18 206.452C279.438 206.452 279.71 206.414 279.994 206.329L280.133 206.283V205.259L279.242 205.344ZM283.701 208.708V203.204H284.531V203.442C284.885 203.227 285.215 203.119 285.522 203.119C286.029 203.119 286.402 203.277 286.636 203.588C286.874 203.896 286.99 204.42 286.99 205.151C286.99 205.883 286.855 206.395 286.582 206.691C286.317 206.991 285.879 207.137 285.269 207.137C285.061 207.137 284.815 207.114 284.539 207.068V208.708H283.701ZM285.376 203.866C285.138 203.866 284.896 203.919 284.654 204.027L284.539 204.081V206.352C284.746 206.394 284.969 206.414 285.215 206.414C285.564 206.414 285.806 206.314 285.937 206.114C286.071 205.913 286.137 205.575 286.137 205.09C286.137 204.274 285.883 203.866 285.376 203.866ZM287.831 207.053V203.204H288.661V203.665C289.095 203.384 289.529 203.204 289.967 203.119V203.958C289.525 204.046 289.148 204.158 288.837 204.297L288.668 204.366V207.053H287.831ZM293.309 206.36L293.524 206.337L293.539 206.96C292.955 207.08 292.44 207.137 291.987 207.137C291.419 207.137 291.011 206.983 290.758 206.668C290.512 206.356 290.389 205.856 290.389 205.167C290.389 203.804 290.946 203.119 292.056 203.119C293.132 203.119 293.67 203.708 293.67 204.882L293.616 205.482H291.234C291.242 205.802 291.311 206.037 291.442 206.183C291.576 206.333 291.826 206.406 292.187 206.406C292.552 206.406 292.925 206.391 293.309 206.36ZM292.848 204.836C292.848 204.458 292.786 204.193 292.663 204.043C292.548 203.889 292.344 203.812 292.056 203.812C291.772 203.812 291.561 203.893 291.426 204.05C291.3 204.212 291.234 204.474 291.227 204.836H292.848ZM297.142 203.996C296.539 203.916 296.101 203.873 295.829 203.873C295.556 203.873 295.368 203.908 295.26 203.973C295.156 204.035 295.106 204.135 295.106 204.274C295.106 204.412 295.164 204.512 295.275 204.566C295.394 204.624 295.663 204.689 296.09 204.766C296.52 204.839 296.823 204.955 297.004 205.113C297.185 205.274 297.273 205.555 297.273 205.96C297.273 206.368 297.142 206.664 296.881 206.853C296.624 207.045 296.247 207.137 295.752 207.137C295.441 207.137 295.045 207.095 294.569 207.007L294.33 206.968L294.361 206.267C294.976 206.352 295.418 206.391 295.69 206.391C295.963 206.391 296.155 206.36 296.267 206.291C296.386 206.225 296.443 206.113 296.443 205.96C296.443 205.806 296.386 205.702 296.274 205.644C296.167 205.582 295.902 205.521 295.483 205.452C295.068 205.382 294.765 205.271 294.569 205.12C294.373 204.974 294.277 204.701 294.277 204.304C294.277 203.912 294.411 203.615 294.676 203.419C294.949 203.227 295.295 203.127 295.713 203.127C296.04 203.127 296.443 203.169 296.92 203.25L297.158 203.296L297.142 203.996ZM300.922 204.389V206.144C300.926 206.26 300.953 206.345 301.007 206.398C301.06 206.452 301.145 206.483 301.26 206.498L301.237 207.137C300.795 207.137 300.454 207.045 300.215 206.853C299.804 207.045 299.393 207.137 298.979 207.137C298.214 207.137 297.834 206.729 297.834 205.913C297.834 205.525 297.934 205.244 298.141 205.067C298.348 204.893 298.671 204.789 299.101 204.751L300.093 204.666V204.389C300.093 204.185 300.046 204.043 299.954 203.958C299.866 203.877 299.735 203.835 299.562 203.835C299.232 203.835 298.825 203.858 298.333 203.896L298.087 203.912L298.057 203.319C298.614 203.188 299.124 203.119 299.593 203.119C300.062 203.119 300.4 203.223 300.607 203.427C300.815 203.627 300.922 203.95 300.922 204.389ZM299.201 205.344C298.848 205.375 298.671 205.567 298.671 205.921C298.671 206.275 298.825 206.452 299.14 206.452C299.393 206.452 299.666 206.414 299.954 206.329L300.093 206.283V205.259L299.201 205.344ZM303.661 207.053V203.204H304.499V207.053H303.661ZM303.661 202.549V201.664H304.499V202.549H303.661ZM306.35 207.053H305.513V203.204H306.342V203.442C306.715 203.227 307.068 203.119 307.403 203.119C307.914 203.119 308.263 203.265 308.447 203.558C308.636 203.846 308.732 204.324 308.732 204.99V207.053H307.902V205.013C307.902 204.597 307.856 204.304 307.764 204.127C307.675 203.954 307.495 203.866 307.218 203.866C306.957 203.866 306.707 203.919 306.465 204.02L306.35 204.066V207.053ZM312.83 203.119C313.103 203.119 313.422 203.157 313.791 203.227L313.983 203.265L313.952 203.927C313.549 203.889 313.249 203.866 313.053 203.866C312.665 203.866 312.404 203.954 312.27 204.127C312.139 204.304 312.07 204.632 312.07 205.113C312.07 205.598 312.135 205.929 312.262 206.114C312.393 206.298 312.658 206.391 313.061 206.391L313.96 206.329L313.983 206.999C313.468 207.091 313.076 207.137 312.815 207.137C312.231 207.137 311.82 206.983 311.578 206.668C311.344 206.352 311.225 205.833 311.225 205.113C311.225 204.397 311.352 203.885 311.601 203.581C311.855 203.273 312.262 203.119 312.83 203.119ZM317.636 204.389V206.144C317.64 206.26 317.671 206.345 317.72 206.398C317.778 206.452 317.863 206.483 317.974 206.498L317.951 207.137C317.509 207.137 317.171 207.045 316.929 206.853C316.518 207.045 316.107 207.137 315.692 207.137C314.928 207.137 314.548 206.729 314.548 205.913C314.548 205.525 314.651 205.244 314.855 205.067C315.066 204.893 315.385 204.789 315.815 204.751L316.806 204.666V204.389C316.806 204.185 316.76 204.043 316.668 203.958C316.58 203.877 316.449 203.835 316.276 203.835C315.95 203.835 315.539 203.858 315.047 203.896L314.801 203.912L314.77 203.319C315.327 203.188 315.842 203.119 316.307 203.119C316.779 203.119 317.117 203.223 317.321 203.427C317.532 203.627 317.636 203.95 317.636 204.389ZM315.915 205.344C315.562 205.375 315.385 205.567 315.385 205.921C315.385 206.275 315.542 206.452 315.854 206.452C316.111 206.452 316.38 206.414 316.668 206.329L316.806 206.283V205.259L315.915 205.344ZM318.689 207.053V203.204H319.518V203.665C319.952 203.384 320.386 203.204 320.824 203.119V203.958C320.383 204.046 320.006 204.158 319.695 204.297L319.526 204.366V207.053H318.689ZM321.462 207.053V203.204H322.299V207.053H321.462ZM321.462 202.549V201.664H322.299V202.549H321.462ZM324.754 203.119C325.027 203.119 325.346 203.157 325.714 203.227L325.906 203.265L325.876 203.927C325.472 203.889 325.173 203.866 324.977 203.866C324.589 203.866 324.328 203.954 324.193 204.127C324.059 204.304 323.993 204.632 323.993 205.113C323.993 205.598 324.059 205.929 324.186 206.114C324.312 206.298 324.581 206.391 324.985 206.391L325.883 206.329L325.906 206.999C325.388 207.091 325 207.137 324.739 207.137C324.155 207.137 323.744 206.983 323.502 206.668C323.267 206.352 323.148 205.833 323.148 205.113C323.148 204.397 323.275 203.885 323.525 203.581C323.775 203.273 324.186 203.119 324.754 203.119ZM326.886 203.619C327.151 203.288 327.593 203.119 328.207 203.119C328.822 203.119 329.26 203.288 329.521 203.619C329.786 203.954 329.921 204.455 329.921 205.12C329.921 205.79 329.794 206.291 329.537 206.629C329.279 206.968 328.837 207.137 328.207 207.137C327.577 207.137 327.136 206.968 326.878 206.629C326.621 206.291 326.494 205.79 326.494 205.12C326.494 204.455 326.625 203.954 326.886 203.619ZM327.516 206.121C327.635 206.329 327.866 206.429 328.207 206.429C328.549 206.429 328.78 206.329 328.899 206.121C329.018 205.917 329.076 205.582 329.076 205.113C329.076 204.647 329.01 204.316 328.884 204.12C328.761 203.927 328.534 203.827 328.207 203.827C327.881 203.827 327.65 203.927 327.524 204.12C327.401 204.316 327.339 204.647 327.339 205.113C327.339 205.582 327.397 205.917 327.516 206.121Z" fill="#5C6F82"/>
<path fill-rule="evenodd" clip-rule="evenodd" d="M287.043 240.275C286.743 240.576 286.256 240.576 285.956 240.275L281.231 235.537C280.966 235.271 280.543 235.264 280.271 235.514C279.979 235.783 279.967 236.242 280.252 236.523L285.952 242.196C286.256 242.5 286.743 242.496 287.043 242.192L301.406 227.573C301.636 227.342 301.636 226.965 301.41 226.734C301.175 226.495 300.791 226.491 300.557 226.73L287.043 240.275Z" fill="#768594"/>
<path fill-rule="evenodd" clip-rule="evenodd" d="M242.376 260.449C242.376 259.599 243.064 258.91 243.913 258.91H337.642C338.491 258.91 339.178 259.599 339.178 260.449C339.178 261.3 338.491 261.989 337.642 261.989H243.913C243.064 261.989 242.376 261.3 242.376 260.449Z" fill="#D9DADB" stroke="#768594" stroke-width="0.5"/>
<path fill-rule="evenodd" clip-rule="evenodd" d="M247.146 266.608C247.146 265.757 247.834 265.068 248.683 265.068H332.663C333.512 265.068 334.2 265.757 334.2 266.608C334.2 267.458 333.512 268.147 332.663 268.147H248.683C247.834 268.147 247.146 267.458 247.146 266.608Z" fill="#D9DADB" stroke="#768594" stroke-width="0.5"/>
</g>
</g>
<path d="M20.7393 36.7109C20.7393 33.3082 23.492 30.5521 26.8881 30.5521H564.128C567.526 30.5521 570.277 33.3082 570.277 36.7109V50.9529H20.7393V36.7109Z" fill="#004080"/>
<path d="M263.586 37.655H264.549V44H263.586V37.655ZM268.93 40.301C268.93 40.301 267.886 40.157 267.319 40.157C266.815 40.157 266.545 40.292 266.545 40.679C266.545 40.922 266.653 41.021 267.157 41.174L268.084 41.462C268.876 41.705 269.101 41.993 269.101 42.65C269.101 43.739 268.426 44.117 267.373 44.117C266.68 44.117 265.645 43.91 265.645 43.91L265.681 43.118C265.681 43.118 266.752 43.28 267.274 43.28C267.895 43.28 268.174 43.127 268.174 42.695C268.174 42.434 268.066 42.335 267.643 42.209L266.608 41.903C265.906 41.687 265.618 41.381 265.618 40.715C265.618 39.698 266.419 39.32 267.265 39.32C267.931 39.32 268.948 39.518 268.948 39.518L268.93 40.301ZM271.196 42.425C271.196 43.037 271.223 43.28 271.709 43.28C271.961 43.28 272.474 43.244 272.474 43.244L272.519 44C272.519 44 271.898 44.117 271.583 44.117C270.575 44.117 270.26 43.739 270.26 42.443V40.256H269.675V39.455H270.26V38.123H271.187V39.455H272.465V40.256H271.196V42.425ZM276.661 42.992C276.661 43.262 276.805 43.361 277.075 43.406L277.039 44.117C276.499 44.117 276.184 44.036 275.86 43.775C275.86 43.775 275.131 44.117 274.384 44.117C273.511 44.117 273.061 43.622 273.061 42.677C273.061 41.714 273.574 41.372 274.528 41.291L275.725 41.192V40.805C275.725 40.292 275.5 40.121 275.05 40.121C274.438 40.121 273.358 40.22 273.358 40.22L273.322 39.554C273.322 39.554 274.303 39.32 275.113 39.32C276.211 39.32 276.661 39.788 276.661 40.805V42.992ZM274.645 41.957C274.204 42.002 274.006 42.209 274.006 42.65C274.006 43.091 274.177 43.352 274.573 43.352C275.104 43.352 275.725 43.136 275.725 43.136V41.858L274.645 41.957ZM277.937 44V39.455H278.864V39.752C278.864 39.752 279.53 39.32 280.124 39.32C281.375 39.32 281.69 40.022 281.69 41.516V44H280.754V41.543C280.754 40.598 280.637 40.157 279.926 40.157C279.386 40.157 278.873 40.454 278.873 40.454V44H277.937ZM282.643 39.455H285.982V40.427L283.759 42.983V43.163H285.982V44H282.643V43.028L284.857 40.472V40.292H282.643V39.455ZM290.284 42.992C290.284 43.262 290.428 43.361 290.698 43.406L290.662 44.117C290.122 44.117 289.807 44.036 289.483 43.775C289.483 43.775 288.754 44.117 288.007 44.117C287.134 44.117 286.684 43.622 286.684 42.677C286.684 41.714 287.197 41.372 288.151 41.291L289.348 41.192V40.805C289.348 40.292 289.123 40.121 288.673 40.121C288.061 40.121 286.981 40.22 286.981 40.22L286.945 39.554C286.945 39.554 287.926 39.32 288.736 39.32C289.834 39.32 290.284 39.788 290.284 40.805V42.992ZM288.268 41.957C287.827 42.002 287.629 42.209 287.629 42.65C287.629 43.091 287.8 43.352 288.196 43.352C288.727 43.352 289.348 43.136 289.348 43.136V41.858L288.268 41.957ZM295.078 43.28C295.6 43.28 296.149 43.001 296.149 43.001V40.22C296.077 40.202 295.546 40.13 295.204 40.13C294.475 40.13 294.205 40.616 294.205 41.804C294.205 42.974 294.529 43.28 295.078 43.28ZM297.085 44H296.167V43.721C296.167 43.721 295.591 44.117 294.88 44.117C293.881 44.117 293.242 43.541 293.242 41.804C293.242 40.04 293.854 39.32 295.087 39.32C295.501 39.32 296.077 39.419 296.149 39.437V37.43H297.085V44ZM300.137 43.298C300.704 43.298 301.748 43.262 301.748 43.262L301.766 43.964C301.766 43.964 300.74 44.117 299.957 44.117C298.607 44.117 298.103 43.379 298.103 41.741C298.103 40.04 298.796 39.32 300.056 39.32C301.28 39.32 301.919 39.977 301.919 41.399L301.856 42.074H299.039C299.048 42.929 299.237 43.298 300.137 43.298ZM300.992 41.354C300.992 40.409 300.713 40.094 300.029 40.094C299.363 40.094 299.039 40.445 299.03 41.354H300.992ZM303.807 42.623C303.807 43.091 303.834 43.289 304.185 43.289C304.437 43.289 304.653 43.271 304.653 43.271L304.698 44.018C304.698 44.018 304.392 44.117 304.077 44.117C303.204 44.117 302.871 43.739 302.871 42.902V37.43H303.807V42.623ZM307.773 37.655L308.682 43.145H308.952L310.068 37.79H311.184L312.309 43.145H312.579L313.488 37.655H314.46L313.245 44H311.643L310.617 38.915L309.6 44H307.998L306.774 37.655H307.773ZM318.488 42.992C318.488 43.262 318.632 43.361 318.902 43.406L318.866 44.117C318.326 44.117 318.011 44.036 317.687 43.775C317.687 43.775 316.958 44.117 316.211 44.117C315.338 44.117 314.888 43.622 314.888 42.677C314.888 41.714 315.401 41.372 316.355 41.291L317.552 41.192V40.805C317.552 40.292 317.327 40.121 316.877 40.121C316.265 40.121 315.185 40.22 315.185 40.22L315.149 39.554C315.149 39.554 316.13 39.32 316.94 39.32C318.038 39.32 318.488 39.788 318.488 40.805V42.992ZM316.472 41.957C316.031 42.002 315.833 42.209 315.833 42.65C315.833 43.091 316.004 43.352 316.4 43.352C316.931 43.352 317.552 43.136 317.552 43.136V41.858L316.472 41.957ZM320.673 42.623C320.673 43.091 320.7 43.289 321.051 43.289C321.303 43.289 321.519 43.271 321.519 43.271L321.564 44.018C321.564 44.018 321.258 44.117 320.943 44.117C320.07 44.117 319.737 43.739 319.737 42.902V37.43H320.673V42.623ZM323.23 42.623C323.23 43.091 323.257 43.289 323.608 43.289C323.86 43.289 324.076 43.271 324.076 43.271L324.121 44.018C324.121 44.018 323.815 44.117 323.5 44.117C322.627 44.117 322.294 43.739 322.294 42.902V37.43H323.23V42.623ZM326.662 43.298C327.229 43.298 328.273 43.262 328.273 43.262L328.291 43.964C328.291 43.964 327.265 44.117 326.482 44.117C325.132 44.117 324.628 43.379 324.628 41.741C324.628 40.04 325.321 39.32 326.581 39.32C327.805 39.32 328.444 39.977 328.444 41.399L328.381 42.074H325.564C325.573 42.929 325.762 43.298 326.662 43.298ZM327.517 41.354C327.517 40.409 327.238 40.094 326.554 40.094C325.888 40.094 325.564 40.445 325.555 41.354H327.517ZM330.575 42.425C330.575 43.037 330.602 43.28 331.088 43.28C331.34 43.28 331.853 43.244 331.853 43.244L331.898 44C331.898 44 331.277 44.117 330.962 44.117C329.954 44.117 329.639 43.739 329.639 42.443V40.256H329.054V39.455H329.639V38.123H330.566V39.455H331.844V40.256H330.575V42.425Z" fill="white"/>
</g>
<defs>
<filter id="filter0_d_40000384_3832" x="41.8389" y="102.647" width="162.924" height="258.635" filterUnits="userSpaceOnUse" color-interpolation-filters="sRGB">
<feFlood flood-opacity="0" result="BackgroundImageFix"/>
<feColorMatrix in="SourceAlpha" type="matrix" values="0 0 0 0 0 0 0 0 0 0 0 0 0 0 0 0 0 0 127 0" result="hardAlpha"/>
<feOffset/>
<feGaussianBlur stdDeviation="10"/>
<feComposite in2="hardAlpha" operator="out"/>
<feColorMatrix type="matrix" values="0 0 0 0 0 0 0 0 0 0 0 0 0 0 0 0 0 0 0.2 0"/>
<feBlend mode="normal" in2="BackgroundImageFix" result="effect1_dropShadow_40000384_3832"/>
<feBlend mode="normal" in="SourceGraphic" in2="effect1_dropShadow_40000384_3832" result="shape"/>
</filter>
<filter id="filter1_d_40000384_3832" x="41.6855" y="102.647" width="162.924" height="258.635" filterUnits="userSpaceOnUse" color-interpolation-filters="sRGB">
<feFlood flood-opacity="0" result="BackgroundImageFix"/>
<feColorMatrix in="SourceAlpha" type="matrix" values="0 0 0 0 0 0 0 0 0 0 0 0 0 0 0 0 0 0 127 0" result="hardAlpha"/>
<feOffset/>
<feGaussianBlur stdDeviation="10"/>
<feComposite in2="hardAlpha" operator="out"/>
<feColorMatrix type="matrix" values="0 0 0 0 0 0 0 0 0 0 0 0 0 0 0 0 0 0 0.2 0"/>
<feBlend mode="normal" in2="BackgroundImageFix" result="effect1_dropShadow_40000384_3832"/>
<feBlend mode="normal" in="SourceGraphic" in2="effect1_dropShadow_40000384_3832" result="shape"/>
</filter>
<filter id="filter2_d_40000384_3832" x="379.795" y="102.647" width="162.924" height="258.635" filterUnits="userSpaceOnUse" color-interpolation-filters="sRGB">
<feFlood flood-opacity="0" result="BackgroundImageFix"/>
<feColorMatrix in="SourceAlpha" type="matrix" values="0 0 0 0 0 0 0 0 0 0 0 0 0 0 0 0 0 0 127 0" result="hardAlpha"/>
<feOffset/>
<feGaussianBlur stdDeviation="10"/>
<feComposite in2="hardAlpha" operator="out"/>
<feColorMatrix type="matrix" values="0 0 0 0 0 0 0 0 0 0 0 0 0 0 0 0 0 0 0.2 0"/>
<feBlend mode="normal" in2="BackgroundImageFix" result="effect1_dropShadow_40000384_3832"/>
<feBlend mode="normal" in="SourceGraphic" in2="effect1_dropShadow_40000384_3832" result="shape"/>
</filter>
<filter id="filter3_d_40000384_3832" x="209.507" y="102.647" width="162.924" height="258.635" filterUnits="userSpaceOnUse" color-interpolation-filters="sRGB">
<feFlood flood-opacity="0" result="BackgroundImageFix"/>
<feColorMatrix in="SourceAlpha" type="matrix" values="0 0 0 0 0 0 0 0 0 0 0 0 0 0 0 0 0 0 127 0" result="hardAlpha"/>
<feOffset/>
<feGaussianBlur stdDeviation="10"/>
<feComposite in2="hardAlpha" operator="out"/>
<feColorMatrix type="matrix" values="0 0 0 0 0 0 0 0 0 0 0 0 0 0 0 0 0 0 0.2 0"/>
<feBlend mode="normal" in2="BackgroundImageFix" result="effect1_dropShadow_40000384_3832"/>
<feBlend mode="normal" in="SourceGraphic" in2="effect1_dropShadow_40000384_3832" result="shape"/>
</filter>
<clipPath id="clip0_40000384_3832">
<rect width="595" height="412" fill="white"/>
</clipPath>
<clipPath id="clip1_40000384_3832">
<rect width="662" height="416" fill="white" transform="translate(20.7393 8)"/>
</clipPath>
</defs>
</svg>
