<svg width="360" height="733" viewBox="0 0 360 733" fill="none" xmlns="http://www.w3.org/2000/svg">
<g clip-path="url(#clip0_4168_45412)">
<rect width="360" height="733" fill="white"/>
<rect width="360" height="48" fill="#004D99"/>
<path d="M13.19 29V19.312H19.084V20.264H14.268V23.61H18.244V24.548H14.268V28.048H19.084V29H13.19ZM21.7963 29H20.7463V22H21.7823V22.49C22.5383 22.07 23.2616 21.86 23.9523 21.86C24.8856 21.86 25.5109 22.112 25.8283 22.616C26.1549 23.12 26.3183 24.016 26.3183 25.304V29H25.2823V25.332C25.2823 24.3613 25.1843 23.6987 24.9883 23.344C24.8016 22.98 24.3956 22.798 23.7703 22.798C23.4716 22.798 23.1543 22.8447 22.8183 22.938C22.4916 23.022 22.2396 23.106 22.0623 23.19L21.7963 23.316V29ZM31.8508 22.91H29.6248V26.256C29.6248 27.0587 29.6808 27.586 29.7928 27.838C29.9141 28.09 30.1941 28.216 30.6328 28.216L31.8788 28.132L31.9488 29C31.3235 29.1027 30.8475 29.154 30.5208 29.154C29.7928 29.154 29.2888 28.9767 29.0088 28.622C28.7288 28.2673 28.5888 27.5907 28.5888 26.592V22.91H27.5948V22H28.5888V19.858H29.6248V22H31.8508V22.91ZM37.893 28.132L38.299 28.09L38.327 28.916C37.263 29.0653 36.353 29.14 35.597 29.14C34.589 29.14 33.875 28.8507 33.455 28.272C33.035 27.684 32.825 26.774 32.825 25.542C32.825 23.0873 33.8003 21.86 35.751 21.86C36.6937 21.86 37.3983 22.126 37.865 22.658C38.3317 23.1807 38.565 24.0067 38.565 25.136L38.509 25.934H33.889C33.889 26.7087 34.029 27.2827 34.309 27.656C34.589 28.0293 35.0743 28.216 35.765 28.216C36.465 28.216 37.1743 28.188 37.893 28.132ZM37.515 25.094C37.515 24.2353 37.375 23.6287 37.095 23.274C36.8243 22.9193 36.3763 22.742 35.751 22.742C35.135 22.742 34.6683 22.9287 34.351 23.302C34.043 23.6753 33.8843 24.2727 33.875 25.094H37.515ZM48.2195 24.114V27.698C48.2475 28.0433 48.5182 28.2487 49.0315 28.314L48.9895 29.14C48.2522 29.14 47.6969 28.9533 47.3235 28.58C46.4835 28.9533 45.6435 29.14 44.8035 29.14C44.1595 29.14 43.6695 28.958 43.3335 28.594C42.9975 28.23 42.8295 27.7073 42.8295 27.026C42.8295 26.3447 43.0022 25.8453 43.3475 25.528C43.6929 25.2013 44.2342 25.0007 44.9715 24.926L47.1695 24.716V24.114C47.1695 23.638 47.0669 23.2973 46.8615 23.092C46.6562 22.8867 46.3762 22.784 46.0215 22.784C45.2749 22.784 44.5002 22.8307 43.6975 22.924L43.2635 22.966L43.2215 22.168C44.2482 21.9627 45.1582 21.86 45.9515 21.86C46.7449 21.86 47.3189 22.042 47.6735 22.406C48.0375 22.77 48.2195 23.3393 48.2195 24.114ZM43.9075 26.97C43.9075 27.8287 44.2622 28.258 44.9715 28.258C45.6062 28.258 46.2315 28.1507 46.8475 27.936L47.1695 27.824V25.514L45.0975 25.71C44.6775 25.7473 44.3742 25.8687 44.1875 26.074C44.0009 26.2793 43.9075 26.578 43.9075 26.97ZM50.2912 32.108V22H51.3272V22.504C52.0365 22.0747 52.7365 21.86 53.4272 21.86C54.3139 21.86 54.9579 22.1447 55.3592 22.714C55.7605 23.274 55.9612 24.2027 55.9612 25.5C55.9612 26.7973 55.7232 27.7307 55.2472 28.3C54.7805 28.86 54.0012 29.14 52.9092 29.14C52.3399 29.14 51.8172 29.0887 51.3412 28.986V32.108H50.2912ZM53.2732 22.798C52.9932 22.798 52.6899 22.8447 52.3632 22.938C52.0459 23.0313 51.7939 23.1247 51.6072 23.218L51.3412 23.358V28.076C52.0039 28.1787 52.5079 28.23 52.8532 28.23C53.6092 28.23 54.1365 28.0153 54.4352 27.586C54.7432 27.1567 54.8972 26.4567 54.8972 25.486C54.8972 24.5153 54.7572 23.8247 54.4772 23.414C54.2065 23.0033 53.8052 22.798 53.2732 22.798ZM57.674 32.108V22H58.71V22.504C59.4193 22.0747 60.1193 21.86 60.81 21.86C61.6967 21.86 62.3407 22.1447 62.742 22.714C63.1433 23.274 63.344 24.2027 63.344 25.5C63.344 26.7973 63.106 27.7307 62.63 28.3C62.1633 28.86 61.384 29.14 60.292 29.14C59.7227 29.14 59.2 29.0887 58.724 28.986V32.108H57.674ZM60.656 22.798C60.376 22.798 60.0727 22.8447 59.746 22.938C59.4287 23.0313 59.1767 23.1247 58.99 23.218L58.724 23.358V28.076C59.3867 28.1787 59.8907 28.23 60.236 28.23C60.992 28.23 61.5193 28.0153 61.818 27.586C62.126 27.1567 62.28 26.4567 62.28 25.486C62.28 24.5153 62.14 23.8247 61.86 23.414C61.5893 23.0033 61.188 22.798 60.656 22.798ZM69.9988 24.114V27.698C70.0268 28.0433 70.2975 28.2487 70.8108 28.314L70.7688 29.14C70.0315 29.14 69.4762 28.9533 69.1028 28.58C68.2628 28.9533 67.4228 29.14 66.5828 29.14C65.9388 29.14 65.4488 28.958 65.1128 28.594C64.7768 28.23 64.6088 27.7073 64.6088 27.026C64.6088 26.3447 64.7815 25.8453 65.1268 25.528C65.4722 25.2013 66.0135 25.0007 66.7508 24.926L68.9488 24.716V24.114C68.9488 23.638 68.8462 23.2973 68.6408 23.092C68.4355 22.8867 68.1555 22.784 67.8008 22.784C67.0542 22.784 66.2795 22.8307 65.4768 22.924L65.0428 22.966L65.0008 22.168C66.0275 21.9627 66.9375 21.86 67.7308 21.86C68.5242 21.86 69.0982 22.042 69.4528 22.406C69.8168 22.77 69.9988 23.3393 69.9988 24.114ZM65.6868 26.97C65.6868 27.8287 66.0415 28.258 66.7508 28.258C67.3855 28.258 68.0108 28.1507 68.6268 27.936L68.9488 27.824V25.514L66.8768 25.71C66.4568 25.7473 66.1535 25.8687 65.9668 26.074C65.7802 26.2793 65.6868 26.578 65.6868 26.97ZM72.0705 29V22H73.1065V22.952C73.9185 22.392 74.7725 22.0233 75.6685 21.846V22.91C75.2765 22.9847 74.8658 23.1013 74.4365 23.26C74.0165 23.4187 73.6945 23.5587 73.4705 23.68L73.1205 23.862V29H72.0705ZM80.5363 22.91H78.3103V26.256C78.3103 27.0587 78.3663 27.586 78.4783 27.838C78.5997 28.09 78.8797 28.216 79.3183 28.216L80.5643 28.132L80.6343 29C80.009 29.1027 79.533 29.154 79.2063 29.154C78.4783 29.154 77.9743 28.9767 77.6943 28.622C77.4143 28.2673 77.2743 27.5907 77.2743 26.592V22.91H76.2803V22H77.2743V19.858H78.3103V22H80.5363V22.91ZM86.5785 28.132L86.9845 28.09L87.0125 28.916C85.9485 29.0653 85.0385 29.14 84.2825 29.14C83.2745 29.14 82.5605 28.8507 82.1405 28.272C81.7205 27.684 81.5105 26.774 81.5105 25.542C81.5105 23.0873 82.4859 21.86 84.4365 21.86C85.3792 21.86 86.0839 22.126 86.5505 22.658C87.0172 23.1807 87.2505 24.0067 87.2505 25.136L87.1945 25.934H82.5745C82.5745 26.7087 82.7145 27.2827 82.9945 27.656C83.2745 28.0293 83.7599 28.216 84.4505 28.216C85.1505 28.216 85.8599 28.188 86.5785 28.132ZM86.2005 25.094C86.2005 24.2353 86.0605 23.6287 85.7805 23.274C85.5099 22.9193 85.0619 22.742 84.4365 22.742C83.8205 22.742 83.3539 22.9287 83.0365 23.302C82.7285 23.6753 82.5699 24.2727 82.5605 25.094H86.2005ZM89.9369 29H88.8869V22H89.9229V22.49C90.6789 22.07 91.4022 21.86 92.0929 21.86C93.0262 21.86 93.6516 22.112 93.9689 22.616C94.2956 23.12 94.4589 24.016 94.4589 25.304V29H93.4229V25.332C93.4229 24.3613 93.3249 23.6987 93.1289 23.344C92.9422 22.98 92.5362 22.798 91.9109 22.798C91.6122 22.798 91.2949 22.8447 90.9589 22.938C90.6322 23.022 90.3802 23.106 90.2029 23.19L89.9369 23.316V29ZM101.166 28.132L101.572 28.09L101.6 28.916C100.536 29.0653 99.6264 29.14 98.8704 29.14C97.8624 29.14 97.1484 28.8507 96.7284 28.272C96.3084 27.684 96.0984 26.774 96.0984 25.542C96.0984 23.0873 97.0738 21.86 99.0244 21.86C99.9671 21.86 100.672 22.126 101.138 22.658C101.605 23.1807 101.838 24.0067 101.838 25.136L101.782 25.934H97.1624C97.1624 26.7087 97.3024 27.2827 97.5824 27.656C97.8624 28.0293 98.3478 28.216 99.0384 28.216C99.7384 28.216 100.448 28.188 101.166 28.132ZM100.788 25.094C100.788 24.2353 100.648 23.6287 100.368 23.274C100.098 22.9193 99.6498 22.742 99.0244 22.742C98.4084 22.742 97.9418 22.9287 97.6244 23.302C97.3164 23.6753 97.1578 24.2727 97.1484 25.094H100.788ZM104.525 29H103.475V22H104.511V22.49C105.267 22.07 105.99 21.86 106.681 21.86C107.614 21.86 108.239 22.112 108.557 22.616C108.883 23.12 109.047 24.016 109.047 25.304V29H108.011V25.332C108.011 24.3613 107.913 23.6987 107.717 23.344C107.53 22.98 107.124 22.798 106.499 22.798C106.2 22.798 105.883 22.8447 105.547 22.938C105.22 23.022 104.968 23.106 104.791 23.19L104.525 23.316V29ZM110.574 22.938V22H115.768V22.938L111.848 28.062H115.768V29H110.574V28.062L114.494 22.938H110.574ZM122.307 24.114V27.698C122.335 28.0433 122.606 28.2487 123.119 28.314L123.077 29.14C122.34 29.14 121.785 28.9533 121.411 28.58C120.571 28.9533 119.731 29.14 118.891 29.14C118.247 29.14 117.757 28.958 117.421 28.594C117.085 28.23 116.917 27.7073 116.917 27.026C116.917 26.3447 117.09 25.8453 117.435 25.528C117.781 25.2013 118.322 25.0007 119.059 24.926L121.257 24.716V24.114C121.257 23.638 121.155 23.2973 120.949 23.092C120.744 22.8867 120.464 22.784 120.109 22.784C119.363 22.784 118.588 22.8307 117.785 22.924L117.351 22.966L117.309 22.168C118.336 21.9627 119.246 21.86 120.039 21.86C120.833 21.86 121.407 22.042 121.761 22.406C122.125 22.77 122.307 23.3393 122.307 24.114ZM117.995 26.97C117.995 27.8287 118.35 28.258 119.059 28.258C119.694 28.258 120.319 28.1507 120.935 27.936L121.257 27.824V25.514L119.185 25.71C118.765 25.7473 118.462 25.8687 118.275 26.074C118.089 26.2793 117.995 26.578 117.995 26.97Z" fill="white"/>
<g clip-path="url(#clip1_4168_45412)">
<path d="M302.106 29V19.41H303.66V29H302.106ZM304.942 20.796V19.41H311.942V20.796H309.24V29H307.672V20.796H304.942ZM311.835 29L314.201 19.41H317.295L319.675 29H318.107L317.589 26.942H313.907L313.389 29H311.835ZM315.405 20.712L314.215 25.57H317.281L316.105 20.712H315.405Z" fill="white"/>
<path d="M336 27.1998L330.4 21.5998L331.1 20.7998L336 25.6998L340.9 20.7998L341.6 21.5998L336 27.1998Z" fill="white"/>
</g>
<rect width="360" height="72" transform="translate(0 48)" fill="#F2F7FC"/>
<rect x="12.5" y="69" width="106" height="30" fill="#F2F7FC"/>
<rect x="12.5" y="69" width="106" height="30" stroke="#C5C7C9"/>
<line x1="13.1976" y1="69.3958" x2="117.9" y2="99.0189" stroke="#C5C7C9"/>
<path d="M23.5658 92.4399V81.4799H25.3418V92.4399H23.5658ZM34.0066 92.4399H27.8626V81.4799H29.6386V90.8559H34.0066V92.4399ZM37.916 83.0639V81.4799H45.916V83.0639H42.828V92.4399H41.036V83.0639H37.916ZM49.0899 88.9359C49.0899 90.3546 49.8365 91.0639 51.3299 91.0639C52.8232 91.0639 53.5699 90.3546 53.5699 88.9359V81.4799H55.3619V88.9039C55.3619 90.1946 55.0205 91.1386 54.3379 91.7359C53.6659 92.3226 52.6579 92.6159 51.3139 92.6159C49.9805 92.6159 48.9779 92.3226 48.3059 91.7359C47.6339 91.1386 47.2979 90.1946 47.2979 88.9039V81.4799H49.0899V88.9359ZM59.7041 90.1199C60.0668 90.7493 60.7601 91.0639 61.7841 91.0639C62.8081 91.0639 63.4961 90.7546 63.8481 90.1359C64.2108 89.5173 64.3921 88.4826 64.3921 87.0319C64.3921 85.5706 64.2055 84.5093 63.8321 83.8479C63.4695 83.1866 62.7868 82.8559 61.7841 82.8559C60.7815 82.8559 60.0935 83.1866 59.7201 83.8479C59.3468 84.5093 59.1601 85.5653 59.1601 87.0159C59.1601 88.4559 59.3415 89.4906 59.7041 90.1199ZM65.2401 91.2719C64.5895 92.1679 63.4375 92.6159 61.7841 92.6159C60.1308 92.6159 58.9735 92.1679 58.3121 91.2719C57.6508 90.3653 57.3201 88.9466 57.3201 87.0159C57.3201 85.0853 57.6508 83.6506 58.3121 82.7119C58.9841 81.7733 60.1415 81.3039 61.7841 81.3039C63.4268 81.3039 64.5788 81.7733 65.2401 82.7119C65.9015 83.6399 66.2321 85.0746 66.2321 87.0159C66.2321 88.9573 65.9015 90.3759 65.2401 91.2719ZM77.9598 92.4399H71.8158V81.4799H73.5918V90.8559H77.9598V92.4399ZM81.126 90.1199C81.4887 90.7493 82.182 91.0639 83.206 91.0639C84.23 91.0639 84.918 90.7546 85.27 90.1359C85.6327 89.5173 85.814 88.4826 85.814 87.0319C85.814 85.5706 85.6273 84.5093 85.254 83.8479C84.8913 83.1866 84.2087 82.8559 83.206 82.8559C82.2033 82.8559 81.5153 83.1866 81.142 83.8479C80.7687 84.5093 80.582 85.5653 80.582 87.0159C80.582 88.4559 80.7633 89.4906 81.126 90.1199ZM86.662 91.2719C86.0113 92.1679 84.8593 92.6159 83.206 92.6159C81.5527 92.6159 80.3953 92.1679 79.734 91.2719C79.0727 90.3653 78.742 88.9466 78.742 87.0159C78.742 85.0853 79.0727 83.6506 79.734 82.7119C80.406 81.7733 81.5633 81.3039 83.206 81.3039C84.8487 81.3039 86.0007 81.7733 86.662 82.7119C87.3233 83.6399 87.654 85.0746 87.654 87.0159C87.654 88.9573 87.3233 90.3759 86.662 91.2719ZM94.186 88.2479V86.6799H97.306V92.2479C97.018 92.3226 96.4313 92.4026 95.546 92.4879C94.6713 92.5733 94.0367 92.6159 93.642 92.6159C91.978 92.6159 90.8313 92.1573 90.202 91.2399C89.5727 90.3226 89.258 88.8879 89.258 86.9359C89.258 84.9733 89.578 83.5439 90.218 82.6479C90.8687 81.7519 91.9887 81.3039 93.578 81.3039C94.5167 81.3039 95.5727 81.4106 96.746 81.6239L97.306 81.7359L97.242 83.1439C95.9513 82.9733 94.794 82.8879 93.77 82.8879C92.746 82.8879 92.042 83.1759 91.658 83.7519C91.2847 84.3279 91.098 85.3946 91.098 86.9519C91.098 88.5093 91.274 89.5866 91.626 90.1839C91.9887 90.7706 92.714 91.0639 93.802 91.0639C94.5807 91.0639 95.162 91.0159 95.546 90.9199V88.2479H94.186ZM101.439 90.1199C101.801 90.7493 102.495 91.0639 103.519 91.0639C104.543 91.0639 105.231 90.7546 105.583 90.1359C105.945 89.5173 106.127 88.4826 106.127 87.0319C106.127 85.5706 105.94 84.5093 105.567 83.8479C105.204 83.1866 104.521 82.8559 103.519 82.8559C102.516 82.8559 101.828 83.1866 101.455 83.8479C101.081 84.5093 100.895 85.5653 100.895 87.0159C100.895 88.4559 101.076 89.4906 101.439 90.1199ZM106.975 91.2719C106.324 92.1679 105.172 92.6159 103.519 92.6159C101.865 92.6159 100.708 92.1679 100.047 91.2719C99.3852 90.3653 99.0545 88.9466 99.0545 87.0159C99.0545 85.0853 99.3852 83.6506 100.047 82.7119C100.719 81.7733 101.876 81.3039 103.519 81.3039C105.161 81.3039 106.313 81.7733 106.975 82.7119C107.636 83.6399 107.967 85.0746 107.967 87.0159C107.967 88.9573 107.636 90.3759 106.975 91.2719Z" fill="black"/>
<path d="M131 68.5V99.5" stroke="#C5C7C9" stroke-linejoin="round"/>
<path d="M152.021 72.0005C152.171 71.9996 152.325 72.0363 152.471 72.1187L162.059 77.4966C162.752 77.8857 163.076 78.5135 163.076 79.2339L163.07 94.4165C163.07 94.9455 162.638 95.3258 162.164 95.3296C162.014 95.3305 161.859 95.2936 161.713 95.2114L155.695 91.8355V82.2417C155.695 81.5215 155.372 80.8907 154.678 80.5044L151.461 78.7144V95.0874C151.461 95.6165 151.028 95.9968 150.554 96.0005C150.404 96.0013 150.249 95.9646 150.103 95.8823L144.018 92.4605C143.324 92.0715 143 91.4433 143 90.7232L143.015 74.7554C143.016 74.2264 143.447 73.847 143.921 73.8433C144.071 73.8424 144.226 73.8791 144.372 73.9614L151.141 77.7573L151.114 72.9126C151.112 72.3837 151.546 72.0043 152.021 72.0005ZM221.471 79.8736C224.828 79.8736 226.77 81.5637 226.771 84.437V88.1489C226.771 88.6237 226.978 88.854 227.326 88.854H227.774L227.773 88.856C227.943 88.8562 228.07 88.9866 228.07 89.1568V91.5435C228.07 91.7137 227.95 91.8423 227.779 91.8423H225.66C224.736 91.8423 223.977 91.5084 223.534 90.9839C222.532 91.7655 221.258 92.1607 219.898 92.1607C217.338 92.1607 215.822 90.7585 215.822 88.3511C215.822 86.0744 217.178 84.9177 220.167 84.7163L223.014 84.5239V84.0552C223.013 83.0832 222.339 82.5445 221.226 82.5445C220.451 82.5445 219.945 82.8069 219.707 83.2564C219.603 83.4523 219.502 83.52 219.323 83.52H216.145C215.965 83.52 215.846 83.4161 215.844 83.2642C215.842 83.169 215.887 83.0256 215.967 82.8374C216.727 81.0433 218.704 79.8737 221.471 79.8736ZM247.068 79.8736C250.632 79.8736 252.772 82.0452 252.772 85.4624V86.5913C252.772 86.7615 252.645 86.8909 252.475 86.8911H244.856C244.955 88.2991 245.579 89.4458 247.189 89.4458C247.946 89.4458 248.55 89.1918 248.859 88.7085C248.977 88.5249 249.085 88.4713 249.188 88.4712H252.239C252.481 88.4713 252.562 88.617 252.563 88.7788C252.564 88.8712 252.538 88.9696 252.476 89.1314C251.744 91.0363 249.944 92.1606 247.265 92.1607C243.46 92.1607 241.22 89.8595 241.22 86.0093C241.22 82.1594 243.415 79.874 247.068 79.8736ZM215.734 75.8403V75.8413C215.926 75.8415 216.081 76.021 216.048 76.2095L213.351 91.5903C213.325 91.7385 213.197 91.8431 213.047 91.8433H208.459C208.314 91.8432 208.193 91.7439 208.162 91.6021L205.711 80.3589H205.489L203.039 91.6021C203.008 91.744 202.884 91.8433 202.739 91.8433H198.151C198.002 91.8433 197.876 91.7377 197.851 91.5903L195.152 76.2095C195.119 76.0209 195.274 75.8413 195.465 75.8413H198.494C198.645 75.8415 198.774 75.9568 198.799 76.105L200.616 86.98H200.815L203.139 76.0923C203.17 75.9495 203.302 75.8413 203.447 75.8413H207.903C208.05 75.8413 208.169 75.9495 208.199 76.0923L210.477 87.0015H210.674L212.517 76.106C212.541 75.9569 212.662 75.8406 212.812 75.8403H215.734ZM174.738 75.8394C174.908 75.8394 175.036 75.965 175.036 76.1353V91.5435C175.036 91.7137 174.908 91.8423 174.737 91.8423H171.347C171.176 91.8423 171.047 91.7137 171.047 91.5435L171.041 76.1362C171.041 75.966 171.176 75.8403 171.347 75.8403H174.738V75.8394ZM188.804 75.8394C188.975 75.8394 189.103 75.9905 189.104 76.1607V78.8052H189.103C189.103 78.9764 188.974 79.1255 188.804 79.1255H184.58V91.5425C184.58 91.7127 184.43 91.8412 184.26 91.8413H180.91C180.74 91.8413 180.591 91.7106 180.591 91.5405V79.1255H176.365C176.195 79.1255 176.067 78.9745 176.067 78.8042V76.1587C176.068 75.9886 176.197 75.8394 176.367 75.8394H188.804ZM232.475 75.8403C232.646 75.8403 232.774 75.9689 232.774 76.1392V88.0884C232.775 88.5641 233.047 88.8539 233.522 88.854H234.246C234.416 88.854 234.565 88.9806 234.565 89.1509V91.5445C234.565 91.7147 234.431 91.8413 234.261 91.8413H232.606C230.112 91.8422 228.912 90.7384 228.912 88.4712V76.1392C228.912 75.969 229.04 75.8405 229.21 75.8403H232.475ZM238.877 75.8403C239.047 75.8403 239.185 75.9689 239.185 76.1392V88.0884C239.185 88.5642 239.449 88.854 239.925 88.854H240.648C240.819 88.854 240.977 88.9886 240.978 89.1587V91.5445C240.978 91.7147 240.833 91.8413 240.663 91.8413H239.009C236.515 91.8422 235.315 90.7383 235.314 88.4712V76.1392C235.314 75.9689 235.443 75.8403 235.613 75.8403H238.877ZM258.156 77.0132C258.327 77.0132 258.456 77.1418 258.456 77.312V80.1929H260.418C260.589 80.1929 260.738 80.3205 260.738 80.4907V82.8804C260.738 83.0515 260.609 83.1782 260.438 83.1782H258.456V88.0874C258.456 88.5633 258.726 88.853 259.202 88.853H260.44C260.611 88.8531 260.738 89.0033 260.738 89.1734V91.5425C260.738 91.7125 260.61 91.8403 260.439 91.8403H258.756C255.995 91.8403 254.615 90.4808 254.615 87.7876V83.1782H253.25C253.079 83.1782 252.951 83.0496 252.951 82.8794V80.4907C252.951 80.3206 253.1 80.192 253.271 80.1919H254.614V77.3169C254.614 77.1467 254.761 77.0132 254.932 77.0132H258.156ZM220.983 87.0239C219.886 87.1063 219.489 87.5002 219.489 88.1929C219.489 88.97 219.987 89.4457 221.005 89.4458C221.633 89.4458 222.315 89.2661 223.016 88.812H223.017V86.8716L220.983 87.0239ZM194.137 83.8198H194.138C194.308 83.8198 194.437 83.9484 194.438 84.1187V86.6362C194.437 86.8063 194.307 86.9348 194.137 86.9351H188C187.829 86.935 187.695 86.8074 187.694 86.6372V84.1157C187.694 83.9447 187.822 83.8179 187.992 83.8179L194.137 83.8198ZM247.067 82.3169C245.751 82.317 244.879 83.1258 244.871 84.4448H249.182C249.201 83.1156 248.384 82.3169 247.067 82.3169Z" fill="#0066CC"/>
<rect width="360" height="132" transform="translate(0 120)" fill="white"/>
<path d="M32.9996 147.5H17.4996L22.7996 142.1L22.0996 141.4L15.5996 148L22.0996 154.6L22.7996 153.9L17.4996 148.5H32.9996V147.5Z" fill="#0066CC"/>
<path d="M119.51 141.984C117.475 141.984 116.458 142.656 116.458 144C116.458 144.597 116.71 145.055 117.214 145.372C117.718 145.689 118.894 146.147 120.742 146.744C122.609 147.341 123.915 148.023 124.662 148.788C125.409 149.535 125.782 150.692 125.782 152.26C125.782 154.257 125.175 155.769 123.962 156.796C122.749 157.823 121.162 158.336 119.202 158.336C117.746 158.336 115.963 158.112 113.854 157.664L112.846 157.468L113.238 154.472C115.739 154.808 117.653 154.976 118.978 154.976C120.957 154.976 121.946 154.155 121.946 152.512C121.946 151.915 121.713 151.448 121.246 151.112C120.798 150.776 119.893 150.412 118.53 150.02C116.365 149.404 114.834 148.676 113.938 147.836C113.061 146.977 112.622 145.792 112.622 144.28C112.622 142.376 113.201 140.957 114.358 140.024C115.515 139.091 117.102 138.624 119.118 138.624C120.499 138.624 122.254 138.811 124.382 139.184L125.39 139.38L125.082 142.432C122.45 142.133 120.593 141.984 119.51 141.984ZM133.788 143.664C134.759 143.664 136 143.813 137.512 144.112L138.268 144.28L138.156 147.248C136.682 147.099 135.59 147.024 134.88 147.024C133.592 147.024 132.734 147.304 132.304 147.864C131.894 148.405 131.688 149.441 131.688 150.972C131.688 152.503 131.894 153.557 132.304 154.136C132.734 154.696 133.602 154.976 134.908 154.976L138.156 154.752L138.268 157.748C136.271 158.14 134.75 158.336 133.704 158.336C131.632 158.336 130.139 157.757 129.224 156.6C128.328 155.424 127.88 153.548 127.88 150.972C127.88 148.396 128.347 146.539 129.28 145.4C130.214 144.243 131.716 143.664 133.788 143.664ZM144.019 152.596C144.038 153.455 144.262 154.08 144.691 154.472C145.139 154.845 145.774 155.032 146.595 155.032C148.331 155.032 149.88 154.976 151.243 154.864L152.027 154.78L152.083 157.552C149.936 158.075 147.995 158.336 146.259 158.336C144.15 158.336 142.619 157.776 141.667 156.656C140.715 155.536 140.239 153.716 140.239 151.196C140.239 146.175 142.302 143.664 146.427 143.664C150.496 143.664 152.531 145.773 152.531 149.992L152.251 152.596H144.019ZM148.835 149.74C148.835 148.62 148.658 147.845 148.303 147.416C147.948 146.968 147.323 146.744 146.427 146.744C145.55 146.744 144.924 146.977 144.551 147.444C144.196 147.892 144.01 148.657 143.991 149.74H148.835ZM167.897 159.736C167.897 161.341 167.281 162.527 166.049 163.292C164.817 164.057 163.146 164.44 161.037 164.44C158.946 164.44 157.331 164.16 156.193 163.6C155.073 163.04 154.513 162.023 154.513 160.548C154.513 159.372 155.185 158.261 156.529 157.216C155.838 156.749 155.493 156.04 155.493 155.088C155.493 154.715 155.773 154.099 156.333 153.24L156.585 152.848C155.315 151.933 154.681 150.589 154.681 148.816C154.681 147.024 155.213 145.727 156.277 144.924C157.359 144.121 158.787 143.72 160.561 143.72C161.363 143.72 162.157 143.813 162.941 144L163.389 144.084L167.897 143.944V146.94L165.797 146.772C166.207 147.407 166.413 148.041 166.413 148.676C166.413 150.543 165.937 151.831 164.985 152.54C164.033 153.249 162.539 153.604 160.505 153.604C160.075 153.604 159.693 153.567 159.357 153.492C159.17 153.977 159.077 154.379 159.077 154.696C159.077 154.995 159.235 155.2 159.553 155.312C159.87 155.424 160.617 155.489 161.793 155.508C164.145 155.527 165.75 155.844 166.609 156.46C167.467 157.057 167.897 158.149 167.897 159.736ZM158.209 160.156C158.209 160.959 159.189 161.36 161.149 161.36C163.127 161.36 164.117 160.893 164.117 159.96C164.117 159.456 163.949 159.129 163.613 158.98C163.277 158.849 162.567 158.775 161.485 158.756L158.965 158.56C158.461 159.064 158.209 159.596 158.209 160.156ZM158.433 148.704C158.433 150.067 159.142 150.748 160.561 150.748C161.998 150.748 162.717 150.067 162.717 148.704C162.717 147.323 161.998 146.632 160.561 146.632C159.142 146.632 158.433 147.323 158.433 148.704ZM170.338 158V138.4H174.09V158H170.338ZM177.716 158V144H181.468V158H177.716ZM177.716 142.208V138.4H181.468V142.208H177.716ZM191.256 158V138.4H195.008V158H191.256ZM198.046 145.876L199.362 138.96H203.31L200.93 145.876H198.046ZM216.112 148.368V154.192C216.15 154.64 216.224 154.957 216.336 155.144C216.448 155.312 216.682 155.433 217.036 155.508L216.924 158.336C215.972 158.336 215.207 158.271 214.628 158.14C214.068 158.009 213.499 157.748 212.92 157.356C211.576 158.009 210.204 158.336 208.804 158.336C205.911 158.336 204.464 156.805 204.464 153.744C204.464 152.251 204.866 151.196 205.668 150.58C206.471 149.945 207.703 149.572 209.364 149.46L212.36 149.236V148.368C212.36 147.789 212.23 147.397 211.968 147.192C211.707 146.968 211.287 146.856 210.708 146.856L205.444 147.08L205.332 144.476C207.33 143.935 209.224 143.664 211.016 143.664C212.827 143.664 214.124 144.037 214.908 144.784C215.711 145.531 216.112 146.725 216.112 148.368ZM209.812 152.064C208.767 152.157 208.244 152.717 208.244 153.744C208.244 154.771 208.702 155.284 209.616 155.284C210.326 155.284 211.1 155.172 211.94 154.948L212.36 154.836V151.84L209.812 152.064ZM219.689 163.88V144H223.413V144.756C224.626 144.028 225.69 143.664 226.605 143.664C228.49 143.664 229.881 144.233 230.777 145.372C231.673 146.492 232.121 148.405 232.121 151.112C232.121 153.819 231.626 155.704 230.637 156.768C229.648 157.813 228.024 158.336 225.765 158.336C225.149 158.336 224.486 158.28 223.777 158.168L223.441 158.112V163.88H219.689ZM225.877 147.024C225.186 147.024 224.486 147.164 223.777 147.444L223.441 147.584V154.92C224.281 155.032 224.962 155.088 225.485 155.088C226.568 155.088 227.305 154.771 227.697 154.136C228.108 153.501 228.313 152.419 228.313 150.888C228.313 148.312 227.501 147.024 225.877 147.024ZM234.92 163.88V144H238.644V144.756C239.857 144.028 240.921 143.664 241.836 143.664C243.721 143.664 245.112 144.233 246.008 145.372C246.904 146.492 247.352 148.405 247.352 151.112C247.352 153.819 246.857 155.704 245.868 156.768C244.878 157.813 243.254 158.336 240.996 158.336C240.38 158.336 239.717 158.28 239.008 158.168L238.672 158.112V163.88H234.92ZM241.108 147.024C240.417 147.024 239.717 147.164 239.008 147.444L238.672 147.584V154.92C239.512 155.032 240.193 155.088 240.716 155.088C241.798 155.088 242.536 154.771 242.928 154.136C243.338 153.501 243.544 152.419 243.544 150.888C243.544 148.312 242.732 147.024 241.108 147.024Z" fill="#17324D"/>
<path d="M26.3501 186.3C24.3501 186.3 23.3501 187.053 23.3501 188.56C23.3501 189.4 23.5767 189.98 24.0301 190.3C24.4967 190.607 25.4301 190.92 26.8301 191.24C28.2434 191.547 29.2434 191.953 29.8301 192.46C30.4167 192.953 30.7101 193.773 30.7101 194.92C30.7101 197.76 29.2367 199.18 26.2901 199.18C25.3167 199.18 24.0967 199.067 22.6301 198.84L21.9101 198.74L22.0701 197.46C23.8834 197.7 25.2634 197.82 26.2101 197.82C28.1834 197.82 29.1701 196.893 29.1701 195.04C29.1701 194.293 28.9501 193.76 28.5101 193.44C28.0834 193.107 27.2767 192.827 26.0901 192.6C24.5301 192.267 23.4234 191.84 22.7701 191.32C22.1167 190.787 21.7901 189.9 21.7901 188.66C21.7901 186.18 23.2767 184.94 26.2501 184.94C27.2234 184.94 28.3901 185.04 29.7501 185.24L30.4301 185.34L30.2901 186.64C28.4367 186.413 27.1234 186.3 26.3501 186.3ZM39.9099 197.76L40.4899 197.7L40.5299 198.88C39.0099 199.093 37.7099 199.2 36.6299 199.2C35.1899 199.2 34.1699 198.787 33.5699 197.96C32.9699 197.12 32.6699 195.82 32.6699 194.06C32.6699 190.553 34.0633 188.8 36.8499 188.8C38.1966 188.8 39.2033 189.18 39.8699 189.94C40.5366 190.687 40.8699 191.867 40.8699 193.48L40.7899 194.62H34.1899C34.1899 195.727 34.3899 196.547 34.7899 197.08C35.1899 197.613 35.8833 197.88 36.8699 197.88C37.8699 197.88 38.8833 197.84 39.9099 197.76ZM39.3699 193.42C39.3699 192.193 39.1699 191.327 38.7699 190.82C38.3833 190.313 37.7433 190.06 36.8499 190.06C35.9699 190.06 35.3033 190.327 34.8499 190.86C34.4099 191.393 34.1833 192.247 34.1699 193.42H39.3699ZM43.3276 199V184.64H44.8276V199H43.3276ZM54.6365 197.76L55.2165 197.7L55.2565 198.88C53.7365 199.093 52.4365 199.2 51.3565 199.2C49.9165 199.2 48.8965 198.787 48.2965 197.96C47.6965 197.12 47.3965 195.82 47.3965 194.06C47.3965 190.553 48.7898 188.8 51.5765 188.8C52.9232 188.8 53.9298 189.18 54.5965 189.94C55.2632 190.687 55.5965 191.867 55.5965 193.48L55.5165 194.62H48.9165C48.9165 195.727 49.1165 196.547 49.5165 197.08C49.9165 197.613 50.6098 197.88 51.5965 197.88C52.5965 197.88 53.6098 197.84 54.6365 197.76ZM54.0965 193.42C54.0965 192.193 53.8965 191.327 53.4965 190.82C53.1098 190.313 52.4698 190.06 51.5765 190.06C50.6965 190.06 50.0298 190.327 49.5765 190.86C49.1365 191.393 48.9098 192.247 48.8965 193.42H54.0965ZM57.3341 190.34V189H64.7541V190.34L59.1541 197.66H64.7541V199H57.3341V197.66L62.9341 190.34H57.3341ZM67.0357 199V189H68.5357V199H67.0357ZM67.0357 186.74V185H68.5357V186.74H67.0357ZM70.9707 193.98C70.9707 192.153 71.2974 190.833 71.9507 190.02C72.604 189.207 73.704 188.8 75.2507 188.8C76.8107 188.8 77.9107 189.207 78.5507 190.02C79.204 190.833 79.5307 192.153 79.5307 193.98C79.5307 195.807 79.224 197.133 78.6107 197.96C77.9974 198.787 76.8774 199.2 75.2507 199.2C73.624 199.2 72.504 198.787 71.8907 197.96C71.2774 197.133 70.9707 195.807 70.9707 193.98ZM72.5107 193.96C72.5107 195.413 72.684 196.433 73.0307 197.02C73.3907 197.607 74.1307 197.9 75.2507 197.9C76.384 197.9 77.124 197.613 77.4707 197.04C77.8174 196.453 77.9907 195.427 77.9907 193.96C77.9907 192.493 77.7974 191.487 77.4107 190.94C77.024 190.38 76.304 190.1 75.2507 190.1C74.2107 190.1 73.4907 190.38 73.0907 190.94C72.704 191.487 72.5107 192.493 72.5107 193.96ZM83.4771 199H81.9771V189H83.4571V189.7C84.5371 189.1 85.5704 188.8 86.5571 188.8C87.8904 188.8 88.7838 189.16 89.2371 189.88C89.7038 190.6 89.9371 191.88 89.9371 193.72V199H88.4571V193.76C88.4571 192.373 88.3171 191.427 88.0371 190.92C87.7704 190.4 87.1904 190.14 86.2971 190.14C85.8704 190.14 85.4171 190.207 84.9371 190.34C84.4704 190.46 84.1104 190.58 83.8571 190.7L83.4771 190.88V199ZM99.7793 192.02V197.14C99.8193 197.633 100.206 197.927 100.939 198.02L100.879 199.2C99.826 199.2 99.0326 198.933 98.4993 198.4C97.2993 198.933 96.0993 199.2 94.8993 199.2C93.9793 199.2 93.2793 198.94 92.7993 198.42C92.3193 197.9 92.0793 197.153 92.0793 196.18C92.0793 195.207 92.326 194.493 92.8193 194.04C93.3126 193.573 94.086 193.287 95.1393 193.18L98.2793 192.88V192.02C98.2793 191.34 98.1326 190.853 97.8393 190.56C97.546 190.267 97.146 190.12 96.6393 190.12C95.5726 190.12 94.466 190.187 93.3193 190.32L92.6993 190.38L92.6393 189.24C94.106 188.947 95.406 188.8 96.5393 188.8C97.6726 188.8 98.4926 189.06 98.9993 189.58C99.5193 190.1 99.7793 190.913 99.7793 192.02ZM93.6193 196.1C93.6193 197.327 94.126 197.94 95.1393 197.94C96.046 197.94 96.9393 197.787 97.8193 197.48L98.2793 197.32V194.02L95.3193 194.3C94.7193 194.353 94.286 194.527 94.0193 194.82C93.7526 195.113 93.6193 195.54 93.6193 196.1ZM107.133 199V189H108.633V199H107.133ZM107.133 186.74V185H108.633V186.74H107.133ZM111.628 199V184.64H113.128V199H111.628ZM120.532 203.44V189H122.012V189.72C123.025 189.107 124.025 188.8 125.012 188.8C126.278 188.8 127.198 189.207 127.772 190.02C128.345 190.82 128.632 192.147 128.632 194C128.632 195.853 128.292 197.187 127.612 198C126.945 198.8 125.832 199.2 124.272 199.2C123.458 199.2 122.712 199.127 122.032 198.98V203.44H120.532ZM124.792 190.14C124.392 190.14 123.958 190.207 123.492 190.34C123.038 190.473 122.678 190.607 122.412 190.74L122.032 190.94V197.68C122.978 197.827 123.698 197.9 124.192 197.9C125.272 197.9 126.025 197.593 126.452 196.98C126.892 196.367 127.112 195.367 127.112 193.98C127.112 192.593 126.912 191.607 126.512 191.02C126.125 190.433 125.552 190.14 124.792 190.14ZM130.639 193.98C130.639 192.153 130.965 190.833 131.619 190.02C132.272 189.207 133.372 188.8 134.919 188.8C136.479 188.8 137.579 189.207 138.219 190.02C138.872 190.833 139.199 192.153 139.199 193.98C139.199 195.807 138.892 197.133 138.279 197.96C137.665 198.787 136.545 199.2 134.919 199.2C133.292 199.2 132.172 198.787 131.559 197.96C130.945 197.133 130.639 195.807 130.639 193.98ZM132.179 193.96C132.179 195.413 132.352 196.433 132.699 197.02C133.059 197.607 133.799 197.9 134.919 197.9C136.052 197.9 136.792 197.613 137.139 197.04C137.485 196.453 137.659 195.427 137.659 193.96C137.659 192.493 137.465 191.487 137.079 190.94C136.692 190.38 135.972 190.1 134.919 190.1C133.879 190.1 133.159 190.38 132.759 190.94C132.372 191.487 132.179 192.493 132.179 193.96ZM141.645 199V189H143.125V190.36C144.285 189.56 145.505 189.033 146.785 188.78V190.3C146.225 190.407 145.638 190.573 145.025 190.8C144.425 191.027 143.965 191.227 143.645 191.4L143.145 191.66V199H141.645ZM153.739 190.3H150.559V195.08C150.559 196.227 150.639 196.98 150.799 197.34C150.972 197.7 151.372 197.88 151.999 197.88L153.779 197.76L153.879 199C152.986 199.147 152.306 199.22 151.839 199.22C150.799 199.22 150.079 198.967 149.679 198.46C149.279 197.953 149.079 196.987 149.079 195.56V190.3H147.659V189H149.079V185.94H150.559V189H153.739V190.3ZM162.631 192.02V197.14C162.671 197.633 163.058 197.927 163.791 198.02L163.731 199.2C162.678 199.2 161.884 198.933 161.351 198.4C160.151 198.933 158.951 199.2 157.751 199.2C156.831 199.2 156.131 198.94 155.651 198.42C155.171 197.9 154.931 197.153 154.931 196.18C154.931 195.207 155.178 194.493 155.671 194.04C156.164 193.573 156.938 193.287 157.991 193.18L161.131 192.88V192.02C161.131 191.34 160.984 190.853 160.691 190.56C160.398 190.267 159.998 190.12 159.491 190.12C158.424 190.12 157.318 190.187 156.171 190.32L155.551 190.38L155.491 189.24C156.958 188.947 158.258 188.8 159.391 188.8C160.524 188.8 161.344 189.06 161.851 189.58C162.371 190.1 162.631 190.913 162.631 192.02ZM156.471 196.1C156.471 197.327 156.978 197.94 157.991 197.94C158.898 197.94 159.791 197.787 160.671 197.48L161.131 197.32V194.02L158.171 194.3C157.571 194.353 157.138 194.527 156.871 194.82C156.604 195.113 156.471 195.54 156.471 196.1ZM167.51 190.3V199H166.01V190.3H164.75V189H166.01V188.1C166.01 186.687 166.21 185.727 166.61 185.22C167.01 184.7 167.71 184.44 168.71 184.44L170.73 184.58L170.71 185.82C169.964 185.793 169.344 185.78 168.85 185.78C168.37 185.78 168.024 185.94 167.81 186.26C167.61 186.58 167.51 187.2 167.51 188.12V189H170.41V190.3H167.51ZM171.596 193.98C171.596 192.153 171.922 190.833 172.576 190.02C173.229 189.207 174.329 188.8 175.876 188.8C177.436 188.8 178.536 189.207 179.176 190.02C179.829 190.833 180.156 192.153 180.156 193.98C180.156 195.807 179.849 197.133 179.236 197.96C178.622 198.787 177.502 199.2 175.876 199.2C174.249 199.2 173.129 198.787 172.516 197.96C171.902 197.133 171.596 195.807 171.596 193.98ZM173.136 193.96C173.136 195.413 173.309 196.433 173.656 197.02C174.016 197.607 174.756 197.9 175.876 197.9C177.009 197.9 177.749 197.613 178.096 197.04C178.442 196.453 178.616 195.427 178.616 193.96C178.616 192.493 178.422 191.487 178.036 190.94C177.649 190.38 176.929 190.1 175.876 190.1C174.836 190.1 174.116 190.38 173.716 190.94C173.329 191.487 173.136 192.493 173.136 193.96ZM186.462 203.7C184.862 203.7 183.742 203.48 183.102 203.04C182.475 202.613 182.162 201.827 182.162 200.68C182.162 200.133 182.282 199.687 182.522 199.34C182.762 199.007 183.169 198.627 183.742 198.2C183.369 197.947 183.182 197.487 183.182 196.82C183.182 196.593 183.349 196.173 183.682 195.56L183.862 195.24C182.809 194.76 182.282 193.753 182.282 192.22C182.282 189.94 183.529 188.8 186.022 188.8C186.662 188.8 187.255 188.867 187.802 189L188.102 189.06L191.062 188.98V190.26L189.162 190.22C189.602 190.66 189.822 191.327 189.822 192.22C189.822 193.473 189.509 194.353 188.882 194.86C188.269 195.353 187.295 195.6 185.962 195.6C185.602 195.6 185.275 195.573 184.982 195.52C184.742 196.107 184.622 196.487 184.622 196.66C184.622 197.073 184.749 197.333 185.002 197.44C185.255 197.533 186.022 197.58 187.302 197.58C188.582 197.58 189.502 197.78 190.062 198.18C190.622 198.58 190.902 199.36 190.902 200.52C190.902 202.64 189.422 203.7 186.462 203.7ZM183.642 200.56C183.642 201.267 183.835 201.753 184.222 202.02C184.622 202.3 185.349 202.44 186.402 202.44C187.469 202.44 188.229 202.293 188.682 202C189.149 201.707 189.382 201.213 189.382 200.52C189.382 199.84 189.215 199.4 188.882 199.2C188.549 199 187.895 198.9 186.922 198.9L184.762 198.8C184.322 199.12 184.022 199.4 183.862 199.64C183.715 199.88 183.642 200.187 183.642 200.56ZM183.782 192.22C183.782 193.007 183.955 193.567 184.302 193.9C184.662 194.233 185.249 194.4 186.062 194.4C186.875 194.4 187.455 194.233 187.802 193.9C188.149 193.567 188.322 193.007 188.322 192.22C188.322 191.42 188.149 190.853 187.802 190.52C187.455 190.187 186.875 190.02 186.062 190.02C185.249 190.02 184.662 190.193 184.302 190.54C183.955 190.873 183.782 191.433 183.782 192.22ZM192.996 199V184.64H194.496V199H192.996ZM197.504 199V189H199.004V199H197.504ZM197.504 186.74V185H199.004V186.74H197.504ZM201.439 193.98C201.439 192.153 201.766 190.833 202.419 190.02C203.073 189.207 204.173 188.8 205.719 188.8C207.279 188.8 208.379 189.207 209.019 190.02C209.673 190.833 209.999 192.153 209.999 193.98C209.999 195.807 209.693 197.133 209.079 197.96C208.466 198.787 207.346 199.2 205.719 199.2C204.093 199.2 202.973 198.787 202.359 197.96C201.746 197.133 201.439 195.807 201.439 193.98ZM202.979 193.96C202.979 195.413 203.153 196.433 203.499 197.02C203.859 197.607 204.599 197.9 205.719 197.9C206.853 197.9 207.593 197.613 207.939 197.04C208.286 196.453 208.459 195.427 208.459 193.96C208.459 192.493 208.266 191.487 207.879 190.94C207.493 190.38 206.773 190.1 205.719 190.1C204.679 190.1 203.959 190.38 203.559 190.94C203.173 191.487 202.979 192.493 202.979 193.96ZM224.52 184.64V199H223.04V198.32C222.014 198.907 221 199.2 220 199.2C219.467 199.2 219 199.133 218.6 199C218.2 198.867 217.827 198.627 217.48 198.28C216.76 197.56 216.4 196.233 216.4 194.3C216.4 192.353 216.72 190.953 217.36 190.1C218.014 189.233 219.087 188.8 220.58 188.8C221.354 188.8 222.174 188.887 223.04 189.06V184.64H224.52ZM218.64 197.2C218.854 197.453 219.08 197.627 219.32 197.72C219.56 197.813 219.867 197.86 220.24 197.86C220.627 197.86 221.054 197.8 221.52 197.68C222 197.547 222.374 197.42 222.64 197.3L223.04 197.12V190.34C222.187 190.18 221.394 190.1 220.66 190.1C219.647 190.1 218.94 190.427 218.54 191.08C218.14 191.72 217.94 192.72 217.94 194.08C217.94 195.627 218.174 196.667 218.64 197.2ZM227.426 199V189H228.926V199H227.426ZM227.426 186.74V185H228.926V186.74H227.426ZM235.661 203.7C234.061 203.7 232.941 203.48 232.301 203.04C231.675 202.613 231.361 201.827 231.361 200.68C231.361 200.133 231.481 199.687 231.721 199.34C231.961 199.007 232.368 198.627 232.941 198.2C232.568 197.947 232.381 197.487 232.381 196.82C232.381 196.593 232.548 196.173 232.881 195.56L233.061 195.24C232.008 194.76 231.481 193.753 231.481 192.22C231.481 189.94 232.728 188.8 235.221 188.8C235.861 188.8 236.455 188.867 237.001 189L237.301 189.06L240.261 188.98V190.26L238.361 190.22C238.801 190.66 239.021 191.327 239.021 192.22C239.021 193.473 238.708 194.353 238.081 194.86C237.468 195.353 236.495 195.6 235.161 195.6C234.801 195.6 234.475 195.573 234.181 195.52C233.941 196.107 233.821 196.487 233.821 196.66C233.821 197.073 233.948 197.333 234.201 197.44C234.455 197.533 235.221 197.58 236.501 197.58C237.781 197.58 238.701 197.78 239.261 198.18C239.821 198.58 240.101 199.36 240.101 200.52C240.101 202.64 238.621 203.7 235.661 203.7ZM232.841 200.56C232.841 201.267 233.035 201.753 233.421 202.02C233.821 202.3 234.548 202.44 235.601 202.44C236.668 202.44 237.428 202.293 237.881 202C238.348 201.707 238.581 201.213 238.581 200.52C238.581 199.84 238.415 199.4 238.081 199.2C237.748 199 237.095 198.9 236.121 198.9L233.961 198.8C233.521 199.12 233.221 199.4 233.061 199.64C232.915 199.88 232.841 200.187 232.841 200.56ZM232.981 192.22C232.981 193.007 233.155 193.567 233.501 193.9C233.861 194.233 234.448 194.4 235.261 194.4C236.075 194.4 236.655 194.233 237.001 193.9C237.348 193.567 237.521 193.007 237.521 192.22C237.521 191.42 237.348 190.853 237.001 190.52C236.655 190.187 236.075 190.02 235.261 190.02C234.448 190.02 233.861 190.193 233.501 190.54C233.155 190.873 232.981 191.433 232.981 192.22ZM242.075 199V189H243.575V199H242.075ZM242.075 186.74V185H243.575V186.74H242.075ZM251.63 190.3H248.45V195.08C248.45 196.227 248.53 196.98 248.69 197.34C248.863 197.7 249.263 197.88 249.89 197.88L251.67 197.76L251.77 199C250.876 199.147 250.196 199.22 249.73 199.22C248.69 199.22 247.97 198.967 247.57 198.46C247.17 197.953 246.97 196.987 246.97 195.56V190.3H245.55V189H246.97V185.94H248.45V189H251.63V190.3ZM260.521 192.02V197.14C260.561 197.633 260.948 197.927 261.681 198.02L261.621 199.2C260.568 199.2 259.775 198.933 259.241 198.4C258.041 198.933 256.841 199.2 255.641 199.2C254.721 199.2 254.021 198.94 253.541 198.42C253.061 197.9 252.821 197.153 252.821 196.18C252.821 195.207 253.068 194.493 253.561 194.04C254.055 193.573 254.828 193.287 255.881 193.18L259.021 192.88V192.02C259.021 191.34 258.875 190.853 258.581 190.56C258.288 190.267 257.888 190.12 257.381 190.12C256.315 190.12 255.208 190.187 254.061 190.32L253.441 190.38L253.381 189.24C254.848 188.947 256.148 188.8 257.281 188.8C258.415 188.8 259.235 189.06 259.741 189.58C260.261 190.1 260.521 190.913 260.521 192.02ZM254.361 196.1C254.361 197.327 254.868 197.94 255.881 197.94C256.788 197.94 257.681 197.787 258.561 197.48L259.021 197.32V194.02L256.061 194.3C255.461 194.353 255.028 194.527 254.761 194.82C254.495 195.113 254.361 195.54 254.361 196.1ZM263.601 199V184.64H265.101V199H263.601ZM274.91 197.76L275.49 197.7L275.53 198.88C274.01 199.093 272.71 199.2 271.63 199.2C270.19 199.2 269.17 198.787 268.57 197.96C267.97 197.12 267.67 195.82 267.67 194.06C267.67 190.553 269.063 188.8 271.85 188.8C273.197 188.8 274.203 189.18 274.87 189.94C275.537 190.687 275.87 191.867 275.87 193.48L275.79 194.62H269.19C269.19 195.727 269.39 196.547 269.79 197.08C270.19 197.613 270.883 197.88 271.87 197.88C272.87 197.88 273.883 197.84 274.91 197.76ZM274.37 193.42C274.37 192.193 274.17 191.327 273.77 190.82C273.383 190.313 272.743 190.06 271.85 190.06C270.97 190.06 270.303 190.327 269.85 190.86C269.41 191.393 269.183 192.247 269.17 193.42H274.37ZM286.342 188.8C286.782 188.8 287.529 188.88 288.582 189.04L289.062 189.1L289.002 190.32C287.935 190.2 287.149 190.14 286.642 190.14C285.509 190.14 284.735 190.413 284.322 190.96C283.922 191.493 283.722 192.493 283.722 193.96C283.722 195.413 283.909 196.427 284.282 197C284.669 197.573 285.462 197.86 286.662 197.86L289.022 197.68L289.082 198.92C287.842 199.107 286.915 199.2 286.302 199.2C284.742 199.2 283.662 198.8 283.062 198C282.475 197.2 282.182 195.853 282.182 193.96C282.182 192.053 282.502 190.72 283.142 189.96C283.782 189.187 284.849 188.8 286.342 188.8ZM290.756 193.98C290.756 192.153 291.083 190.833 291.736 190.02C292.389 189.207 293.489 188.8 295.036 188.8C296.596 188.8 297.696 189.207 298.336 190.02C298.989 190.833 299.316 192.153 299.316 193.98C299.316 195.807 299.009 197.133 298.396 197.96C297.783 198.787 296.663 199.2 295.036 199.2C293.409 199.2 292.289 198.787 291.676 197.96C291.063 197.133 290.756 195.807 290.756 193.98ZM292.296 193.96C292.296 195.413 292.469 196.433 292.816 197.02C293.176 197.607 293.916 197.9 295.036 197.9C296.169 197.9 296.909 197.613 297.256 197.04C297.603 196.453 297.776 195.427 297.776 193.96C297.776 192.493 297.583 191.487 297.196 190.94C296.809 190.38 296.089 190.1 295.036 190.1C293.996 190.1 293.276 190.38 292.876 190.94C292.489 191.487 292.296 192.493 292.296 193.96ZM303.262 199H301.762V189H303.242V189.7C304.322 189.1 305.356 188.8 306.342 188.8C307.676 188.8 308.569 189.16 309.022 189.88C309.489 190.6 309.722 191.88 309.722 193.72V199H308.242V193.76C308.242 192.373 308.102 191.427 307.822 190.92C307.556 190.4 306.976 190.14 306.082 190.14C305.656 190.14 305.202 190.207 304.722 190.34C304.256 190.46 303.896 190.58 303.642 190.7L303.262 190.88V199ZM320.639 188.8C321.079 188.8 321.826 188.88 322.879 189.04L323.359 189.1L323.299 190.32C322.232 190.2 321.446 190.14 320.939 190.14C319.806 190.14 319.032 190.413 318.619 190.96C318.219 191.493 318.019 192.493 318.019 193.96C318.019 195.413 318.206 196.427 318.579 197C318.966 197.573 319.759 197.86 320.959 197.86L323.319 197.68L323.379 198.92C322.139 199.107 321.212 199.2 320.599 199.2C319.039 199.2 317.959 198.8 317.359 198C316.772 197.2 316.479 195.853 316.479 193.96C316.479 192.053 316.799 190.72 317.439 189.96C318.079 189.187 319.146 188.8 320.639 188.8ZM331.85 189H333.35V199H331.85V198.3C330.85 198.9 329.863 199.2 328.89 199.2C327.53 199.2 326.623 198.847 326.17 198.14C325.73 197.433 325.51 196.127 325.51 194.22V189H327.01V194.2C327.01 195.653 327.137 196.627 327.39 197.12C327.643 197.613 328.217 197.86 329.11 197.86C329.55 197.86 329.997 197.8 330.45 197.68C330.903 197.547 331.25 197.42 331.49 197.3L331.85 197.12V189ZM336.235 199V189H337.735V199H336.235ZM336.235 186.74V185H337.735V186.74H336.235ZM136.782 235.44V221H138.262V221.72C139.275 221.107 140.275 220.8 141.262 220.8C142.528 220.8 143.448 221.207 144.022 222.02C144.595 222.82 144.882 224.147 144.882 226C144.882 227.853 144.542 229.187 143.862 230C143.195 230.8 142.082 231.2 140.522 231.2C139.708 231.2 138.962 231.127 138.282 230.98V235.44H136.782ZM141.042 222.14C140.642 222.14 140.208 222.207 139.742 222.34C139.288 222.473 138.928 222.607 138.662 222.74L138.282 222.94V229.68C139.228 229.827 139.948 229.9 140.442 229.9C141.522 229.9 142.275 229.593 142.702 228.98C143.142 228.367 143.362 227.367 143.362 225.98C143.362 224.593 143.162 223.607 142.762 223.02C142.375 222.433 141.802 222.14 141.042 222.14ZM147.329 231V221H148.809V222.36C149.969 221.56 151.189 221.033 152.469 220.78V222.3C151.909 222.407 151.322 222.573 150.709 222.8C150.109 223.027 149.649 223.227 149.329 223.4L148.829 223.66V231H147.329ZM153.607 225.98C153.607 224.153 153.934 222.833 154.587 222.02C155.241 221.207 156.341 220.8 157.887 220.8C159.447 220.8 160.547 221.207 161.187 222.02C161.841 222.833 162.167 224.153 162.167 225.98C162.167 227.807 161.861 229.133 161.247 229.96C160.634 230.787 159.514 231.2 157.887 231.2C156.261 231.2 155.141 230.787 154.527 229.96C153.914 229.133 153.607 227.807 153.607 225.98ZM155.147 225.96C155.147 227.413 155.321 228.433 155.667 229.02C156.027 229.607 156.767 229.9 157.887 229.9C159.021 229.9 159.761 229.613 160.107 229.04C160.454 228.453 160.627 227.427 160.627 225.96C160.627 224.493 160.434 223.487 160.047 222.94C159.661 222.38 158.941 222.1 157.887 222.1C156.847 222.1 156.127 222.38 155.727 222.94C155.341 223.487 155.147 224.493 155.147 225.96ZM167.754 222.14C166.3 222.14 165.574 222.647 165.574 223.66C165.574 224.127 165.74 224.46 166.074 224.66C166.407 224.847 167.167 225.047 168.354 225.26C169.54 225.46 170.38 225.747 170.874 226.12C171.367 226.493 171.614 227.193 171.614 228.22C171.614 229.247 171.28 230 170.614 230.48C169.96 230.96 169 231.2 167.734 231.2C166.907 231.2 165.934 231.107 164.814 230.92L164.214 230.82L164.294 229.52C165.814 229.747 166.96 229.86 167.734 229.86C168.507 229.86 169.094 229.74 169.494 229.5C169.907 229.247 170.114 228.833 170.114 228.26C170.114 227.673 169.94 227.28 169.594 227.08C169.247 226.867 168.487 226.667 167.314 226.48C166.14 226.293 165.307 226.02 164.814 225.66C164.32 225.3 164.074 224.633 164.074 223.66C164.074 222.687 164.414 221.967 165.094 221.5C165.787 221.033 166.647 220.8 167.674 220.8C168.487 220.8 169.507 220.893 170.734 221.08L171.294 221.18L171.254 222.46C169.774 222.247 168.607 222.14 167.754 222.14ZM180.711 229.76L181.291 229.7L181.331 230.88C179.811 231.093 178.511 231.2 177.431 231.2C175.991 231.2 174.971 230.787 174.371 229.96C173.771 229.12 173.471 227.82 173.471 226.06C173.471 222.553 174.864 220.8 177.651 220.8C178.997 220.8 180.004 221.18 180.671 221.94C181.337 222.687 181.671 223.867 181.671 225.48L181.591 226.62H174.991C174.991 227.727 175.191 228.547 175.591 229.08C175.991 229.613 176.684 229.88 177.671 229.88C178.671 229.88 179.684 229.84 180.711 229.76ZM180.171 225.42C180.171 224.193 179.971 223.327 179.571 222.82C179.184 222.313 178.544 222.06 177.651 222.06C176.771 222.06 176.104 222.327 175.651 222.86C175.211 223.393 174.984 224.247 174.971 225.42H180.171ZM187.868 235.7C186.268 235.7 185.148 235.48 184.508 235.04C183.882 234.613 183.568 233.827 183.568 232.68C183.568 232.133 183.688 231.687 183.928 231.34C184.168 231.007 184.575 230.627 185.148 230.2C184.775 229.947 184.588 229.487 184.588 228.82C184.588 228.593 184.755 228.173 185.088 227.56L185.268 227.24C184.215 226.76 183.688 225.753 183.688 224.22C183.688 221.94 184.935 220.8 187.428 220.8C188.068 220.8 188.662 220.867 189.208 221L189.508 221.06L192.468 220.98V222.26L190.568 222.22C191.008 222.66 191.228 223.327 191.228 224.22C191.228 225.473 190.915 226.353 190.288 226.86C189.675 227.353 188.702 227.6 187.368 227.6C187.008 227.6 186.682 227.573 186.388 227.52C186.148 228.107 186.028 228.487 186.028 228.66C186.028 229.073 186.155 229.333 186.408 229.44C186.662 229.533 187.428 229.58 188.708 229.58C189.988 229.58 190.908 229.78 191.468 230.18C192.028 230.58 192.308 231.36 192.308 232.52C192.308 234.64 190.828 235.7 187.868 235.7ZM185.048 232.56C185.048 233.267 185.242 233.753 185.628 234.02C186.028 234.3 186.755 234.44 187.808 234.44C188.875 234.44 189.635 234.293 190.088 234C190.555 233.707 190.788 233.213 190.788 232.52C190.788 231.84 190.622 231.4 190.288 231.2C189.955 231 189.302 230.9 188.328 230.9L186.168 230.8C185.728 231.12 185.428 231.4 185.268 231.64C185.122 231.88 185.048 232.187 185.048 232.56ZM185.188 224.22C185.188 225.007 185.362 225.567 185.708 225.9C186.068 226.233 186.655 226.4 187.468 226.4C188.282 226.4 188.862 226.233 189.208 225.9C189.555 225.567 189.728 225.007 189.728 224.22C189.728 223.42 189.555 222.853 189.208 222.52C188.862 222.187 188.282 222.02 187.468 222.02C186.655 222.02 186.068 222.193 185.708 222.54C185.362 222.873 185.188 223.433 185.188 224.22ZM200.522 221H202.022V231H200.522V230.3C199.522 230.9 198.535 231.2 197.562 231.2C196.202 231.2 195.295 230.847 194.842 230.14C194.402 229.433 194.182 228.127 194.182 226.22V221H195.682V226.2C195.682 227.653 195.808 228.627 196.062 229.12C196.315 229.613 196.888 229.86 197.782 229.86C198.222 229.86 198.668 229.8 199.122 229.68C199.575 229.547 199.922 229.42 200.162 229.3L200.522 229.12V221ZM204.907 231V221H206.407V231H204.907ZM204.907 218.74V217H206.407V218.74H204.907ZM209.282 231V221H210.762V222.36C211.922 221.56 213.142 221.033 214.422 220.78V222.3C213.862 222.407 213.275 222.573 212.662 222.8C212.062 223.027 211.602 223.227 211.282 223.4L210.782 223.66V231H209.282ZM222.801 229.76L223.381 229.7L223.421 230.88C221.901 231.093 220.601 231.2 219.521 231.2C218.081 231.2 217.061 230.787 216.461 229.96C215.861 229.12 215.561 227.82 215.561 226.06C215.561 222.553 216.954 220.8 219.741 220.8C221.087 220.8 222.094 221.18 222.761 221.94C223.427 222.687 223.761 223.867 223.761 225.48L223.681 226.62H217.081C217.081 227.727 217.281 228.547 217.681 229.08C218.081 229.613 218.774 229.88 219.761 229.88C220.761 229.88 221.774 229.84 222.801 229.76ZM222.261 225.42C222.261 224.193 222.061 223.327 221.661 222.82C221.274 222.313 220.634 222.06 219.741 222.06C218.861 222.06 218.194 222.327 217.741 222.86C217.301 223.393 217.074 224.247 217.061 225.42H222.261Z" fill="#17324D"/>
<g filter="url(#filter0_d_4168_45412)">
<g clip-path="url(#clip2_4168_45412)">
<rect width="336" height="88" transform="translate(12 268)" fill="white"/>
<path d="M79.334 298V326L56 340L32.667 326V298L56 284L79.334 298ZM35.0098 299.405V324.595L56 337.188L76.9912 324.595V299.405L56 286.812L35.0098 299.405Z" fill="#0066CC"/>
<path d="M101.58 319V305.3H105.46L109.62 317.04H109.92V305.3H112.14V319H108.34L104.08 307.24H103.8V319H101.58ZM115.454 310.08C116.147 309.213 117.294 308.78 118.894 308.78C120.494 308.78 121.634 309.213 122.314 310.08C123.007 310.947 123.354 312.247 123.354 313.98C123.354 315.713 123.02 317.02 122.354 317.9C121.687 318.78 120.534 319.22 118.894 319.22C117.254 319.22 116.1 318.78 115.434 317.9C114.767 317.02 114.434 315.713 114.434 313.98C114.434 312.247 114.774 310.947 115.454 310.08ZM117.094 316.58C117.4 317.113 118 317.38 118.894 317.38C119.787 317.38 120.387 317.113 120.694 316.58C121 316.047 121.154 315.173 121.154 313.96C121.154 312.747 120.987 311.887 120.654 311.38C120.334 310.873 119.747 310.62 118.894 310.62C118.04 310.62 117.447 310.873 117.114 311.38C116.794 311.887 116.634 312.747 116.634 313.96C116.634 315.173 116.787 316.047 117.094 316.58ZM127.699 319H125.519V309H127.679V309.62C128.626 309.06 129.493 308.78 130.279 308.78C131.439 308.78 132.286 309.107 132.819 309.76C134.033 309.107 135.239 308.78 136.439 308.78C137.639 308.78 138.486 309.153 138.979 309.9C139.473 310.633 139.719 311.88 139.719 313.64V319H137.559V313.7C137.559 312.62 137.446 311.853 137.219 311.4C137.006 310.947 136.553 310.72 135.859 310.72C135.259 310.72 134.613 310.853 133.919 311.12L133.579 311.26C133.686 311.527 133.739 312.38 133.739 313.82V319H131.579V313.86C131.579 312.673 131.473 311.853 131.259 311.4C131.046 310.947 130.579 310.72 129.859 310.72C129.193 310.72 128.573 310.853 127.999 311.12L127.699 311.24V319ZM149.397 317.2L149.957 317.14L149.997 318.76C148.477 319.067 147.13 319.22 145.957 319.22C144.477 319.22 143.41 318.813 142.757 318C142.117 317.187 141.797 315.887 141.797 314.1C141.797 310.553 143.244 308.78 146.137 308.78C148.937 308.78 150.337 310.307 150.337 313.36L150.197 314.92H143.997C144.01 315.747 144.19 316.353 144.537 316.74C144.884 317.127 145.53 317.32 146.477 317.32C147.424 317.32 148.397 317.28 149.397 317.2ZM148.197 313.24C148.197 312.253 148.037 311.567 147.717 311.18C147.41 310.78 146.884 310.58 146.137 310.58C145.39 310.58 144.844 310.787 144.497 311.2C144.164 311.613 143.99 312.293 143.977 313.24H148.197ZM164.228 312.08V316.64C164.241 316.933 164.314 317.153 164.448 317.3C164.594 317.433 164.814 317.52 165.108 317.56L165.048 319.22C163.901 319.22 163.014 318.973 162.388 318.48C161.321 318.973 160.248 319.22 159.168 319.22C157.181 319.22 156.188 318.16 156.188 316.04C156.188 315.027 156.454 314.293 156.988 313.84C157.534 313.387 158.368 313.113 159.488 313.02L162.068 312.8V312.08C162.068 311.547 161.948 311.173 161.708 310.96C161.481 310.747 161.141 310.64 160.688 310.64C159.834 310.64 158.768 310.693 157.488 310.8L156.848 310.84L156.768 309.3C158.221 308.953 159.554 308.78 160.768 308.78C161.994 308.78 162.874 309.047 163.408 309.58C163.954 310.1 164.228 310.933 164.228 312.08ZM159.748 314.56C158.828 314.64 158.368 315.14 158.368 316.06C158.368 316.98 158.774 317.44 159.588 317.44C160.254 317.44 160.961 317.333 161.708 317.12L162.068 317V314.34L159.748 314.56ZM166.965 323.3V309H169.125V309.62C170.045 309.06 170.905 308.78 171.705 308.78C173.025 308.78 173.991 309.187 174.605 310C175.218 310.8 175.525 312.153 175.525 314.06C175.525 315.953 175.171 317.287 174.465 318.06C173.771 318.833 172.631 319.22 171.045 319.22C170.498 319.22 169.865 319.16 169.145 319.04V323.3H166.965ZM171.325 310.72C170.698 310.72 170.071 310.86 169.445 311.14L169.145 311.28V317.18C169.678 317.287 170.265 317.34 170.905 317.34C171.811 317.34 172.438 317.08 172.785 316.56C173.131 316.04 173.305 315.153 173.305 313.9C173.305 311.78 172.645 310.72 171.325 310.72ZM177.707 323.3V309H179.867V309.62C180.787 309.06 181.647 308.78 182.447 308.78C183.767 308.78 184.733 309.187 185.347 310C185.96 310.8 186.267 312.153 186.267 314.06C186.267 315.953 185.913 317.287 185.207 318.06C184.513 318.833 183.373 319.22 181.787 319.22C181.24 319.22 180.607 319.16 179.887 319.04V323.3H177.707ZM182.067 310.72C181.44 310.72 180.813 310.86 180.187 311.14L179.887 311.28V317.18C180.42 317.287 181.007 317.34 181.647 317.34C182.553 317.34 183.18 317.08 183.527 316.56C183.873 316.04 184.047 315.153 184.047 313.9C184.047 311.78 183.387 310.72 182.067 310.72ZM193.103 319V305.3H195.323V319H193.103ZM197.155 307.28V305.3H207.155V307.28H203.295V319H201.055V307.28H197.155ZM207.45 314.6V312.62H213.43V314.6H207.45ZM214.796 305.3H217.136L219.096 317.08H219.516L222.116 305.34H224.716L227.316 317.08H227.756L229.716 305.3H232.056L229.356 319H225.776L223.416 308.02L221.076 319H217.476L214.796 305.3ZM240.966 312.08V316.64C240.979 316.933 241.053 317.153 241.186 317.3C241.333 317.433 241.553 317.52 241.846 317.56L241.786 319.22C240.639 319.22 239.753 318.973 239.126 318.48C238.059 318.973 236.986 319.22 235.906 319.22C233.919 319.22 232.926 318.16 232.926 316.04C232.926 315.027 233.193 314.293 233.726 313.84C234.273 313.387 235.106 313.113 236.226 313.02L238.806 312.8V312.08C238.806 311.547 238.686 311.173 238.446 310.96C238.219 310.747 237.879 310.64 237.426 310.64C236.573 310.64 235.506 310.693 234.226 310.8L233.586 310.84L233.506 309.3C234.959 308.953 236.293 308.78 237.506 308.78C238.733 308.78 239.613 309.047 240.146 309.58C240.693 310.1 240.966 310.933 240.966 312.08ZM236.486 314.56C235.566 314.64 235.106 315.14 235.106 316.06C235.106 316.98 235.513 317.44 236.326 317.44C236.993 317.44 237.699 317.333 238.446 317.12L238.806 317V314.34L236.486 314.56ZM243.823 319V304.84H246.003V319H243.823ZM248.881 319V304.84H251.061V319H248.881ZM260.94 317.2L261.5 317.14L261.54 318.76C260.02 319.067 258.673 319.22 257.5 319.22C256.02 319.22 254.953 318.813 254.3 318C253.66 317.187 253.34 315.887 253.34 314.1C253.34 310.553 254.787 308.78 257.68 308.78C260.48 308.78 261.88 310.307 261.88 313.36L261.74 314.92H255.54C255.553 315.747 255.733 316.353 256.08 316.74C256.427 317.127 257.073 317.32 258.02 317.32C258.967 317.32 259.94 317.28 260.94 317.2ZM259.74 313.24C259.74 312.253 259.58 311.567 259.26 311.18C258.953 310.78 258.427 310.58 257.68 310.58C256.933 310.58 256.387 310.787 256.04 311.2C255.707 311.613 255.533 312.293 255.52 313.24H259.74ZM269.356 310.86H266.596V315.26C266.596 316.073 266.656 316.613 266.776 316.88C266.896 317.147 267.203 317.28 267.696 317.28L269.336 317.22L269.436 318.96C268.543 319.133 267.863 319.22 267.396 319.22C266.263 319.22 265.483 318.96 265.056 318.44C264.643 317.92 264.436 316.94 264.436 315.5V310.86H263.156V309H264.436V306.1H266.596V309H269.356V310.86Z" fill="#0066CC"/>
<path d="M100 321.2H166.361V321.8H100V321.2ZM169.748 321.2H177.103V321.8H169.748V321.2ZM180.491 321.2H269.816V321.8H180.491V321.2Z" fill="#0066CC"/>
<g clip-path="url(#clip3_4168_45412)">
<path d="M321.9 305L321.2 305.7L326.5 311.1H311V312.1H326.5L321.2 317.5L321.9 318.2L328.5 311.6L321.9 305Z" fill="#0066CC"/>
</g>
</g>
<rect x="12.5" y="268.5" width="335" height="87" rx="3.5" stroke="#C5C7C9"/>
</g>
<g filter="url(#filter1_d_4168_45412)">
<g clip-path="url(#clip4_4168_45412)">
<rect width="336" height="88" transform="translate(12 368)" fill="white"/>
<path d="M79.334 398V426L56 440L32.667 426V398L56 384L79.334 398ZM35.0098 399.405V424.595L56 437.188L76.9912 424.595V399.405L56 386.812L35.0098 399.405Z" fill="#0066CC"/>
<path d="M101.58 407V393.3H105.46L109.62 405.04H109.92V393.3H112.14V407H108.34L104.08 395.24H103.8V407H101.58ZM115.454 398.08C116.147 397.213 117.294 396.78 118.894 396.78C120.494 396.78 121.634 397.213 122.314 398.08C123.007 398.947 123.354 400.247 123.354 401.98C123.354 403.713 123.02 405.02 122.354 405.9C121.687 406.78 120.534 407.22 118.894 407.22C117.254 407.22 116.1 406.78 115.434 405.9C114.767 405.02 114.434 403.713 114.434 401.98C114.434 400.247 114.774 398.947 115.454 398.08ZM117.094 404.58C117.4 405.113 118 405.38 118.894 405.38C119.787 405.38 120.387 405.113 120.694 404.58C121 404.047 121.154 403.173 121.154 401.96C121.154 400.747 120.987 399.887 120.654 399.38C120.334 398.873 119.747 398.62 118.894 398.62C118.04 398.62 117.447 398.873 117.114 399.38C116.794 399.887 116.634 400.747 116.634 401.96C116.634 403.173 116.787 404.047 117.094 404.58ZM127.699 407H125.519V397H127.679V397.62C128.626 397.06 129.493 396.78 130.279 396.78C131.439 396.78 132.286 397.107 132.819 397.76C134.033 397.107 135.239 396.78 136.439 396.78C137.639 396.78 138.486 397.153 138.979 397.9C139.473 398.633 139.719 399.88 139.719 401.64V407H137.559V401.7C137.559 400.62 137.446 399.853 137.219 399.4C137.006 398.947 136.553 398.72 135.859 398.72C135.259 398.72 134.613 398.853 133.919 399.12L133.579 399.26C133.686 399.527 133.739 400.38 133.739 401.82V407H131.579V401.86C131.579 400.673 131.473 399.853 131.259 399.4C131.046 398.947 130.579 398.72 129.859 398.72C129.193 398.72 128.573 398.853 127.999 399.12L127.699 399.24V407ZM149.397 405.2L149.957 405.14L149.997 406.76C148.477 407.067 147.13 407.22 145.957 407.22C144.477 407.22 143.41 406.813 142.757 406C142.117 405.187 141.797 403.887 141.797 402.1C141.797 398.553 143.244 396.78 146.137 396.78C148.937 396.78 150.337 398.307 150.337 401.36L150.197 402.92H143.997C144.01 403.747 144.19 404.353 144.537 404.74C144.884 405.127 145.53 405.32 146.477 405.32C147.424 405.32 148.397 405.28 149.397 405.2ZM148.197 401.24C148.197 400.253 148.037 399.567 147.717 399.18C147.41 398.78 146.884 398.58 146.137 398.58C145.39 398.58 144.844 398.787 144.497 399.2C144.164 399.613 143.99 400.293 143.977 401.24H148.197ZM163.768 399.06C162.194 398.847 161.054 398.74 160.348 398.74C159.641 398.74 159.148 398.827 158.868 399C158.601 399.16 158.468 399.42 158.468 399.78C158.468 400.14 158.614 400.393 158.908 400.54C159.214 400.687 159.921 400.86 161.028 401.06C162.148 401.247 162.941 401.547 163.408 401.96C163.874 402.373 164.108 403.107 164.108 404.16C164.108 405.213 163.768 405.987 163.088 406.48C162.421 406.973 161.441 407.22 160.148 407.22C159.334 407.22 158.308 407.107 157.068 406.88L156.448 406.78L156.528 404.96C158.128 405.173 159.281 405.28 159.988 405.28C160.694 405.28 161.194 405.193 161.488 405.02C161.794 404.847 161.948 404.56 161.948 404.16C161.948 403.76 161.801 403.487 161.508 403.34C161.228 403.18 160.541 403.013 159.448 402.84C158.368 402.653 157.574 402.367 157.068 401.98C156.561 401.593 156.308 400.887 156.308 399.86C156.308 398.833 156.654 398.067 157.348 397.56C158.054 397.053 158.954 396.8 160.048 396.8C160.901 396.8 161.948 396.907 163.188 397.12L163.808 397.24L163.768 399.06ZM166.743 398.08C167.436 397.213 168.583 396.78 170.183 396.78C171.783 396.78 172.923 397.213 173.603 398.08C174.296 398.947 174.643 400.247 174.643 401.98C174.643 403.713 174.309 405.02 173.643 405.9C172.976 406.78 171.823 407.22 170.183 407.22C168.543 407.22 167.389 406.78 166.723 405.9C166.056 405.02 165.723 403.713 165.723 401.98C165.723 400.247 166.063 398.947 166.743 398.08ZM168.383 404.58C168.689 405.113 169.289 405.38 170.183 405.38C171.076 405.38 171.676 405.113 171.983 404.58C172.289 404.047 172.443 403.173 172.443 401.96C172.443 400.747 172.276 399.887 171.943 399.38C171.623 398.873 171.036 398.62 170.183 398.62C169.329 398.62 168.736 398.873 168.403 399.38C168.083 399.887 167.923 400.747 167.923 401.96C167.923 403.173 168.076 404.047 168.383 404.58ZM176.928 407V392.84H179.108V407H176.928ZM187.927 397H190.087V407H187.927V406.38C186.954 406.94 186.054 407.22 185.227 407.22C183.854 407.22 182.934 406.853 182.467 406.12C182 405.373 181.767 404.073 181.767 402.22V397H183.947V402.24C183.947 403.44 184.047 404.247 184.247 404.66C184.447 405.073 184.914 405.28 185.647 405.28C186.367 405.28 187.027 405.147 187.627 404.88L187.927 404.76V397ZM192.226 398.94V397H199.646V398.94L194.846 405.06H199.646V407H192.226V405.06L197.046 398.94H192.226ZM201.808 407V397H203.988V407H201.808ZM201.808 395.3V393H203.988V395.3H201.808ZM207.173 398.08C207.866 397.213 209.013 396.78 210.613 396.78C212.213 396.78 213.353 397.213 214.033 398.08C214.726 398.947 215.073 400.247 215.073 401.98C215.073 403.713 214.739 405.02 214.073 405.9C213.406 406.78 212.253 407.22 210.613 407.22C208.973 407.22 207.819 406.78 207.153 405.9C206.486 405.02 206.153 403.713 206.153 401.98C206.153 400.247 206.493 398.947 207.173 398.08ZM208.813 404.58C209.119 405.113 209.719 405.38 210.613 405.38C211.506 405.38 212.106 405.113 212.413 404.58C212.719 404.047 212.873 403.173 212.873 401.96C212.873 400.747 212.706 399.887 212.373 399.38C212.053 398.873 211.466 398.62 210.613 398.62C209.759 398.62 209.166 398.873 208.833 399.38C208.513 399.887 208.353 400.747 208.353 401.96C208.353 403.173 208.506 404.047 208.813 404.58ZM219.418 407H217.238V397H219.398V397.62C220.371 397.06 221.291 396.78 222.158 396.78C223.491 396.78 224.398 397.16 224.878 397.92C225.371 398.667 225.618 399.907 225.618 401.64V407H223.458V401.7C223.458 400.62 223.338 399.853 223.098 399.4C222.871 398.947 222.398 398.72 221.678 398.72C220.998 398.72 220.345 398.853 219.718 399.12L219.418 399.24V407ZM235.276 405.2L235.836 405.14L235.876 406.76C234.356 407.067 233.009 407.22 231.836 407.22C230.356 407.22 229.289 406.813 228.636 406C227.996 405.187 227.676 403.887 227.676 402.1C227.676 398.553 229.123 396.78 232.016 396.78C234.816 396.78 236.216 398.307 236.216 401.36L236.076 402.92H229.876C229.889 403.747 230.069 404.353 230.416 404.74C230.763 405.127 231.409 405.32 232.356 405.32C233.303 405.32 234.276 405.28 235.276 405.2ZM234.076 401.24C234.076 400.253 233.916 399.567 233.596 399.18C233.289 398.78 232.763 398.58 232.016 398.58C231.269 398.58 230.723 398.787 230.376 399.2C230.043 399.613 229.869 400.293 229.856 401.24H234.076ZM250.107 400.08V404.64C250.12 404.933 250.193 405.153 250.327 405.3C250.473 405.433 250.693 405.52 250.987 405.56L250.927 407.22C249.78 407.22 248.893 406.973 248.267 406.48C247.2 406.973 246.127 407.22 245.047 407.22C243.06 407.22 242.067 406.16 242.067 404.04C242.067 403.027 242.333 402.293 242.867 401.84C243.413 401.387 244.247 401.113 245.367 401.02L247.947 400.8V400.08C247.947 399.547 247.827 399.173 247.587 398.96C247.36 398.747 247.02 398.64 246.567 398.64C245.713 398.64 244.647 398.693 243.367 398.8L242.727 398.84L242.647 397.3C244.1 396.953 245.433 396.78 246.647 396.78C247.873 396.78 248.753 397.047 249.287 397.58C249.833 398.1 250.107 398.933 250.107 400.08ZM245.627 402.56C244.707 402.64 244.247 403.14 244.247 404.06C244.247 404.98 244.653 405.44 245.467 405.44C246.133 405.44 246.84 405.333 247.587 405.12L247.947 405V402.34L245.627 402.56ZM252.843 411.3V397H255.003V397.62C255.923 397.06 256.783 396.78 257.583 396.78C258.903 396.78 259.87 397.187 260.483 398C261.097 398.8 261.403 400.153 261.403 402.06C261.403 403.953 261.05 405.287 260.343 406.06C259.65 406.833 258.51 407.22 256.923 407.22C256.377 407.22 255.743 407.16 255.023 407.04V411.3H252.843ZM257.203 398.72C256.577 398.72 255.95 398.86 255.323 399.14L255.023 399.28V405.18C255.557 405.287 256.143 405.34 256.783 405.34C257.69 405.34 258.317 405.08 258.663 404.56C259.01 404.04 259.183 403.153 259.183 401.9C259.183 399.78 258.523 398.72 257.203 398.72ZM263.586 411.3V397H265.746V397.62C266.666 397.06 267.526 396.78 268.326 396.78C269.646 396.78 270.612 397.187 271.226 398C271.839 398.8 272.146 400.153 272.146 402.06C272.146 403.953 271.792 405.287 271.086 406.06C270.392 406.833 269.252 407.22 267.666 407.22C267.119 407.22 266.486 407.16 265.766 407.04V411.3H263.586ZM267.946 398.72C267.319 398.72 266.692 398.86 266.066 399.14L265.766 399.28V405.18C266.299 405.287 266.886 405.34 267.526 405.34C268.432 405.34 269.059 405.08 269.406 404.56C269.752 404.04 269.926 403.153 269.926 401.9C269.926 399.78 269.266 398.72 267.946 398.72ZM101.58 431V417.3H103.8V431H101.58ZM105.631 419.28V417.3H115.631V419.28H111.771V431H109.531V419.28H105.631ZM115.927 426.6V424.62H121.907V426.6H115.927ZM123.273 417.3H125.613L127.573 429.08H127.993L130.593 417.34H133.193L135.793 429.08H136.233L138.193 417.3H140.533L137.833 431H134.253L131.893 420.02L129.553 431H125.953L123.273 417.3ZM149.443 424.08V428.64C149.456 428.933 149.529 429.153 149.663 429.3C149.809 429.433 150.029 429.52 150.323 429.56L150.263 431.22C149.116 431.22 148.229 430.973 147.603 430.48C146.536 430.973 145.463 431.22 144.383 431.22C142.396 431.22 141.403 430.16 141.403 428.04C141.403 427.027 141.669 426.293 142.203 425.84C142.749 425.387 143.583 425.113 144.703 425.02L147.283 424.8V424.08C147.283 423.547 147.163 423.173 146.923 422.96C146.696 422.747 146.356 422.64 145.903 422.64C145.049 422.64 143.983 422.693 142.703 422.8L142.063 422.84L141.983 421.3C143.436 420.953 144.769 420.78 145.983 420.78C147.209 420.78 148.089 421.047 148.623 421.58C149.169 422.1 149.443 422.933 149.443 424.08ZM144.963 426.56C144.043 426.64 143.583 427.14 143.583 428.06C143.583 428.98 143.989 429.44 144.803 429.44C145.469 429.44 146.176 429.333 146.923 429.12L147.283 429V426.34L144.963 426.56ZM152.299 431V416.84H154.479V431H152.299ZM157.358 431V416.84H159.538V431H157.358ZM169.417 429.2L169.977 429.14L170.017 430.76C168.497 431.067 167.15 431.22 165.977 431.22C164.497 431.22 163.43 430.813 162.777 430C162.137 429.187 161.817 427.887 161.817 426.1C161.817 422.553 163.263 420.78 166.157 420.78C168.957 420.78 170.357 422.307 170.357 425.36L170.217 426.92H164.017C164.03 427.747 164.21 428.353 164.557 428.74C164.903 429.127 165.55 429.32 166.497 429.32C167.443 429.32 168.417 429.28 169.417 429.2ZM168.217 425.24C168.217 424.253 168.057 423.567 167.737 423.18C167.43 422.78 166.903 422.58 166.157 422.58C165.41 422.58 164.863 422.787 164.517 423.2C164.183 423.613 164.01 424.293 163.997 425.24H168.217ZM177.833 422.86H175.073V427.26C175.073 428.073 175.133 428.613 175.253 428.88C175.373 429.147 175.679 429.28 176.173 429.28L177.813 429.22L177.913 430.96C177.019 431.133 176.339 431.22 175.873 431.22C174.739 431.22 173.959 430.96 173.533 430.44C173.119 429.92 172.913 428.94 172.913 427.5V422.86H171.633V421H172.913V418.1H175.073V421H177.833V422.86Z" fill="#0066CC"/>
<path d="M100 409.2H252.244V409.8H100V409.2ZM255.623 409.2H262.986V409.8H255.623V409.2ZM266.366 409.2H273.008V409.8H266.366V409.2ZM100 433.2H178.293V433.8H100V433.2Z" fill="#0066CC"/>
<g clip-path="url(#clip5_4168_45412)">
<path d="M321.9 405L321.2 405.7L326.5 411.1H311V412.1H326.5L321.2 417.5L321.9 418.2L328.5 411.6L321.9 405Z" fill="#0066CC"/>
</g>
</g>
<rect x="12.5" y="368.5" width="335" height="87" rx="3.5" stroke="#C5C7C9"/>
</g>
<rect width="360" height="160" transform="translate(0 573)" fill="#003366"/>
<path d="M13.106 618V608.41H15.822L18.734 616.628H18.944V608.41H20.498V618H17.838L14.856 609.768H14.66V618H13.106ZM22.8176 611.756C23.303 611.149 24.1056 610.846 25.2256 610.846C26.3456 610.846 27.1436 611.149 27.6196 611.756C28.105 612.363 28.3476 613.273 28.3476 614.486C28.3476 615.699 28.1143 616.614 27.6476 617.23C27.181 617.846 26.3736 618.154 25.2256 618.154C24.0776 618.154 23.2703 617.846 22.8036 617.23C22.337 616.614 22.1036 615.699 22.1036 614.486C22.1036 613.273 22.3416 612.363 22.8176 611.756ZM23.9656 616.306C24.1803 616.679 24.6003 616.866 25.2256 616.866C25.851 616.866 26.271 616.679 26.4856 616.306C26.7003 615.933 26.8076 615.321 26.8076 614.472C26.8076 613.623 26.691 613.021 26.4576 612.666C26.2336 612.311 25.823 612.134 25.2256 612.134C24.6283 612.134 24.213 612.311 23.9796 612.666C23.7556 613.021 23.6436 613.623 23.6436 614.472C23.6436 615.321 23.751 615.933 23.9656 616.306ZM33.6295 612.302H31.6975V615.382C31.6975 615.951 31.7395 616.329 31.8235 616.516C31.9075 616.703 32.1221 616.796 32.4675 616.796L33.6155 616.754L33.6855 617.972C33.0601 618.093 32.5841 618.154 32.2575 618.154C31.4641 618.154 30.9181 617.972 30.6195 617.608C30.3301 617.244 30.1855 616.558 30.1855 615.55V612.302H29.2895V611H30.1855V608.97H31.6975V611H33.6295V612.302ZM39.865 616.74L40.257 616.698L40.285 617.832C39.221 618.047 38.2784 618.154 37.457 618.154C36.421 618.154 35.6744 617.869 35.217 617.3C34.769 616.731 34.545 615.821 34.545 614.57C34.545 612.087 35.5577 610.846 37.583 610.846C39.543 610.846 40.523 611.915 40.523 614.052L40.425 615.144H36.085C36.0944 615.723 36.2204 616.147 36.463 616.418C36.7057 616.689 37.1584 616.824 37.821 616.824C38.4837 616.824 39.165 616.796 39.865 616.74ZM39.025 613.968C39.025 613.277 38.913 612.797 38.689 612.526C38.4744 612.246 38.1057 612.106 37.583 612.106C37.0604 612.106 36.6777 612.251 36.435 612.54C36.2017 612.829 36.0804 613.305 36.071 613.968H39.025ZM50.6246 618H45.2486V608.41H46.8026V616.614H50.6246V618ZM56.6951 616.74L57.0871 616.698L57.1151 617.832C56.0511 618.047 55.1084 618.154 54.2871 618.154C53.2511 618.154 52.5044 617.869 52.0471 617.3C51.5991 616.731 51.3751 615.821 51.3751 614.57C51.3751 612.087 52.3878 610.846 54.4131 610.846C56.3731 610.846 57.3531 611.915 57.3531 614.052L57.2551 615.144H52.9151C52.9244 615.723 53.0504 616.147 53.2931 616.418C53.5358 616.689 53.9884 616.824 54.6511 616.824C55.3138 616.824 55.9951 616.796 56.6951 616.74ZM55.8551 613.968C55.8551 613.277 55.7431 612.797 55.5191 612.526C55.3044 612.246 54.9358 612.106 54.4131 612.106C53.8904 612.106 53.5078 612.251 53.2651 612.54C53.0318 612.829 52.9104 613.305 52.9011 613.968H55.8551ZM64.9385 618.952C64.9385 620.483 63.8325 621.248 61.6205 621.248C60.5565 621.248 59.7678 621.103 59.2545 620.814C58.7412 620.525 58.4845 619.997 58.4845 619.232C58.4845 618.887 58.5685 618.588 58.7365 618.336C58.9045 618.093 59.1752 617.827 59.5485 617.538C59.2405 617.333 59.0865 616.992 59.0865 616.516C59.0865 616.329 59.2125 616.026 59.4645 615.606L59.5905 615.396C58.9185 614.995 58.5825 614.295 58.5825 613.296C58.5825 612.456 58.8345 611.84 59.3385 611.448C59.8425 611.056 60.5238 610.86 61.3825 610.86C61.7932 610.86 62.1992 610.907 62.6005 611L62.8105 611.042L64.9805 610.986V612.218L63.8185 612.148C64.0705 612.475 64.1965 612.857 64.1965 613.296C64.1965 614.211 63.9632 614.845 63.4965 615.2C63.0392 615.545 62.3205 615.718 61.3405 615.718C61.0978 615.718 60.8925 615.699 60.7245 615.662C60.5938 615.979 60.5285 616.227 60.5285 616.404C60.5285 616.572 60.6125 616.689 60.7805 616.754C60.9578 616.819 61.3778 616.857 62.0405 616.866C63.1512 616.875 63.9118 617.025 64.3225 617.314C64.7332 617.603 64.9385 618.149 64.9385 618.952ZM59.9825 619.092C59.9825 619.419 60.1132 619.652 60.3745 619.792C60.6358 619.932 61.0838 620.002 61.7185 620.002C62.8478 620.002 63.4125 619.68 63.4125 619.036C63.4125 618.672 63.3098 618.439 63.1045 618.336C62.9085 618.243 62.5118 618.191 61.9145 618.182L60.5425 618.098C60.3372 618.266 60.1925 618.42 60.1085 618.56C60.0245 618.709 59.9825 618.887 59.9825 619.092ZM60.0945 613.296C60.0945 613.725 60.1972 614.043 60.4025 614.248C60.6078 614.444 60.9392 614.542 61.3965 614.542C61.8538 614.542 62.1805 614.444 62.3765 614.248C62.5818 614.043 62.6845 613.725 62.6845 613.296C62.6845 612.867 62.5818 612.554 62.3765 612.358C62.1712 612.153 61.8398 612.05 61.3825 612.05C60.5238 612.05 60.0945 612.465 60.0945 613.296ZM71.356 613.156V616.348C71.3653 616.553 71.4166 616.707 71.51 616.81C71.6126 616.903 71.7666 616.964 71.972 616.992L71.93 618.154C71.1273 618.154 70.5066 617.981 70.068 617.636C69.3213 617.981 68.57 618.154 67.814 618.154C66.4233 618.154 65.728 617.412 65.728 615.928C65.728 615.219 65.9146 614.705 66.288 614.388C66.6706 614.071 67.254 613.879 68.038 613.814L69.844 613.66V613.156C69.844 612.783 69.76 612.521 69.592 612.372C69.4333 612.223 69.1953 612.148 68.878 612.148C68.2806 612.148 67.534 612.185 66.638 612.26L66.19 612.288L66.134 611.21C67.1513 610.967 68.0846 610.846 68.934 610.846C69.7926 610.846 70.4086 611.033 70.782 611.406C71.1646 611.77 71.356 612.353 71.356 613.156ZM68.22 614.892C67.576 614.948 67.254 615.298 67.254 615.942C67.254 616.586 67.5386 616.908 68.108 616.908C68.5746 616.908 69.0693 616.833 69.592 616.684L69.844 616.6V614.738L68.22 614.892ZM73.3557 618V608.088H74.8817V618H73.3557ZM76.8127 618V611H78.3387V618H76.8127ZM76.8127 609.81V608.2H78.3387V609.81H76.8127Z" fill="white"/>
<path d="M12 619.54H58.08V619.96H12V619.54ZM65.2872 619.54H79.2627V619.96H65.2872V619.54Z" fill="white"/>
<path d="M16.62 655.018H14.66V658H13.106V648.41H16.62C18.7947 648.41 19.882 649.483 19.882 651.63C19.882 652.731 19.6067 653.571 19.056 654.15C18.5147 654.729 17.7027 655.018 16.62 655.018ZM14.66 653.674H16.606C17.726 653.674 18.286 652.993 18.286 651.63C18.286 650.977 18.1507 650.501 17.88 650.202C17.6093 649.903 17.1847 649.754 16.606 649.754H14.66V653.674ZM21.1955 658V651H22.7075V651.84C23.5008 651.327 24.2942 650.995 25.0875 650.846V652.372C24.2848 652.531 23.5988 652.736 23.0295 652.988L22.7215 653.114V658H21.1955ZM26.2541 658V651H27.7801V658H26.2541ZM26.2541 649.81V648.2H27.7801V649.81H26.2541ZM28.973 651H30.569L31.913 656.698H32.361L33.761 651H35.315L33.495 658H30.779L28.973 651ZM41.5923 653.156V656.348C41.6016 656.553 41.6529 656.707 41.7463 656.81C41.8489 656.903 42.0029 656.964 42.2083 656.992L42.1663 658.154C41.3636 658.154 40.7429 657.981 40.3043 657.636C39.5576 657.981 38.8063 658.154 38.0503 658.154C36.6596 658.154 35.9643 657.412 35.9643 655.928C35.9643 655.219 36.1509 654.705 36.5243 654.388C36.9069 654.071 37.4903 653.879 38.2743 653.814L40.0803 653.66V653.156C40.0803 652.783 39.9963 652.521 39.8283 652.372C39.6696 652.223 39.4316 652.148 39.1143 652.148C38.5169 652.148 37.7703 652.185 36.8743 652.26L36.4263 652.288L36.3703 651.21C37.3876 650.967 38.3209 650.846 39.1703 650.846C40.0289 650.846 40.6449 651.033 41.0183 651.406C41.4009 651.77 41.5923 652.353 41.5923 653.156ZM38.4563 654.892C37.8123 654.948 37.4903 655.298 37.4903 655.942C37.4903 656.586 37.7749 656.908 38.3443 656.908C38.8109 656.908 39.3056 656.833 39.8283 656.684L40.0803 656.6V654.738L38.4563 654.892ZM46.126 650.846C46.6207 650.846 47.204 650.911 47.876 651.042L48.226 651.112L48.17 652.316C47.4327 652.241 46.8867 652.204 46.532 652.204C45.8227 652.204 45.3467 652.363 45.104 652.68C44.8613 652.997 44.74 653.595 44.74 654.472C44.74 655.349 44.8567 655.956 45.09 656.292C45.3233 656.628 45.8087 656.796 46.546 656.796L48.184 656.684L48.226 657.902C47.2833 658.07 46.574 658.154 46.098 658.154C45.034 658.154 44.2827 657.869 43.844 657.3C43.4147 656.721 43.2 655.779 43.2 654.472C43.2 653.165 43.4287 652.237 43.886 651.686C44.3433 651.126 45.09 650.846 46.126 650.846ZM49.0573 651H50.5553L52.0393 656.698H52.4173L53.9013 651H55.4133L52.7533 661.01H51.2553L52.0953 658H50.8913L49.0573 651ZM63.3641 655.018H61.4041V658H59.8501V648.41H63.3641C65.5388 648.41 66.6261 649.483 66.6261 651.63C66.6261 652.731 66.3508 653.571 65.8001 654.15C65.2588 654.729 64.4468 655.018 63.3641 655.018ZM61.4041 653.674H63.3501C64.4701 653.674 65.0301 652.993 65.0301 651.63C65.0301 650.977 64.8948 650.501 64.6241 650.202C64.3535 649.903 63.9288 649.754 63.3501 649.754H61.4041V653.674ZM68.3176 651.756C68.803 651.149 69.6056 650.846 70.7256 650.846C71.8456 650.846 72.6436 651.149 73.1196 651.756C73.605 652.363 73.8476 653.273 73.8476 654.486C73.8476 655.699 73.6143 656.614 73.1476 657.23C72.681 657.846 71.8736 658.154 70.7256 658.154C69.5776 658.154 68.7703 657.846 68.3036 657.23C67.837 656.614 67.6036 655.699 67.6036 654.486C67.6036 653.273 67.8416 652.363 68.3176 651.756ZM69.4656 656.306C69.6803 656.679 70.1003 656.866 70.7256 656.866C71.351 656.866 71.771 656.679 71.9856 656.306C72.2003 655.933 72.3076 655.321 72.3076 654.472C72.3076 653.623 72.191 653.021 71.9576 652.666C71.7336 652.311 71.323 652.134 70.7256 652.134C70.1283 652.134 69.713 652.311 69.4796 652.666C69.2556 653.021 69.1436 653.623 69.1436 654.472C69.1436 655.321 69.251 655.933 69.4656 656.306ZM75.4475 658V648.088H76.9735V658H75.4475ZM78.9045 658V651H80.4305V658H78.9045ZM78.9045 649.81V648.2H80.4305V649.81H78.9045ZM84.8994 650.846C85.3941 650.846 85.9774 650.911 86.6494 651.042L86.9994 651.112L86.9434 652.316C86.2061 652.241 85.6601 652.204 85.3054 652.204C84.5961 652.204 84.1201 652.363 83.8774 652.68C83.6348 652.997 83.5134 653.595 83.5134 654.472C83.5134 655.349 83.6301 655.956 83.8634 656.292C84.0968 656.628 84.5821 656.796 85.3194 656.796L86.9574 656.684L86.9994 657.902C86.0568 658.07 85.3474 658.154 84.8714 658.154C83.8074 658.154 83.0561 657.869 82.6174 657.3C82.1881 656.721 81.9734 655.779 81.9734 654.472C81.9734 653.165 82.2021 652.237 82.6594 651.686C83.1168 651.126 83.8634 650.846 84.8994 650.846ZM87.8308 651H89.3288L90.8128 656.698H91.1908L92.6748 651H94.1868L91.5268 661.01H90.0288L90.8688 658H89.6648L87.8308 651Z" fill="white"/>
<path d="M12 659.54H51.1269V659.96H12V659.54ZM53.5606 659.54H89.9003V659.96H53.5606V659.54ZM92.3341 659.54H94.4388V659.96H92.3341V659.54Z" fill="white"/>
<path d="M16.424 698H13.106V688.41H16.424C17.8987 688.41 18.9067 688.783 19.448 689.53C19.9893 690.277 20.26 691.448 20.26 693.044C20.26 693.856 20.204 694.547 20.092 695.116C19.9893 695.676 19.8027 696.185 19.532 696.642C19 697.547 17.964 698 16.424 698ZM18.65 693.044C18.65 691.887 18.5053 691.051 18.216 690.538C17.9267 690.025 17.3293 689.768 16.424 689.768H14.66V696.628H16.424C17.348 696.628 17.964 696.287 18.272 695.606C18.4213 695.261 18.5193 694.892 18.566 694.5C18.622 694.108 18.65 693.623 18.65 693.044ZM21.8927 698V691H23.4188V698H21.8927ZM21.8927 689.81V688.2H23.4188V689.81H21.8927ZM27.8877 690.846C28.3824 690.846 28.9657 690.911 29.6377 691.042L29.9877 691.112L29.9317 692.316C29.1944 692.241 28.6484 692.204 28.2937 692.204C27.5844 692.204 27.1084 692.363 26.8657 692.68C26.623 692.997 26.5017 693.595 26.5017 694.472C26.5017 695.349 26.6184 695.956 26.8517 696.292C27.085 696.628 27.5704 696.796 28.3077 696.796L29.9457 696.684L29.9877 697.902C29.045 698.07 28.3357 698.154 27.8597 698.154C26.7957 698.154 26.0444 697.869 25.6057 697.3C25.1764 696.721 24.9617 695.779 24.9617 694.472C24.9617 693.165 25.1904 692.237 25.6477 691.686C26.105 691.126 26.8517 690.846 27.8877 690.846ZM32.9891 698H31.4631V688.088H32.9891V691.364C33.6797 691.019 34.3191 690.846 34.9071 690.846C35.8404 690.846 36.4751 691.112 36.8111 691.644C37.1564 692.167 37.3291 693.035 37.3291 694.248V698H35.8031V694.29C35.8031 693.534 35.7237 692.997 35.5651 692.68C35.4064 692.363 35.0704 692.204 34.5571 692.204C34.1091 692.204 33.6611 692.279 33.2131 692.428L32.9891 692.512V698ZM39.1056 698V691H40.6316V698H39.1056ZM39.1056 689.81V688.2H40.6316V689.81H39.1056ZM47.6626 693.156V696.348C47.6719 696.553 47.7233 696.707 47.8166 696.81C47.9193 696.903 48.0733 696.964 48.2786 696.992L48.2366 698.154C47.4339 698.154 46.8133 697.981 46.3746 697.636C45.6279 697.981 44.8766 698.154 44.1206 698.154C42.7299 698.154 42.0346 697.412 42.0346 695.928C42.0346 695.219 42.2213 694.705 42.5946 694.388C42.9773 694.071 43.5606 693.879 44.3446 693.814L46.1506 693.66V693.156C46.1506 692.783 46.0666 692.521 45.8986 692.372C45.7399 692.223 45.5019 692.148 45.1846 692.148C44.5873 692.148 43.8406 692.185 42.9446 692.26L42.4966 692.288L42.4406 691.21C43.4579 690.967 44.3913 690.846 45.2406 690.846C46.0993 690.846 46.7153 691.033 47.0886 691.406C47.4713 691.77 47.6626 692.353 47.6626 693.156ZM44.5266 694.892C43.8826 694.948 43.5606 695.298 43.5606 695.942C43.5606 696.586 43.8453 696.908 44.4146 696.908C44.8813 696.908 45.3759 696.833 45.8986 696.684L46.1506 696.6V694.738L44.5266 694.892ZM49.5783 698V691H51.0903V691.84C51.8836 691.327 52.677 690.995 53.4703 690.846V692.372C52.6676 692.531 51.9816 692.736 51.4123 692.988L51.1043 693.114V698H49.5783ZM59.8169 693.156V696.348C59.8262 696.553 59.8776 696.707 59.9709 696.81C60.0736 696.903 60.2276 696.964 60.4329 696.992L60.3909 698.154C59.5882 698.154 58.9676 697.981 58.5289 697.636C57.7822 697.981 57.0309 698.154 56.2749 698.154C54.8842 698.154 54.1889 697.412 54.1889 695.928C54.1889 695.219 54.3756 694.705 54.7489 694.388C55.1316 694.071 55.7149 693.879 56.4989 693.814L58.3049 693.66V693.156C58.3049 692.783 58.2209 692.521 58.0529 692.372C57.8942 692.223 57.6562 692.148 57.3389 692.148C56.7416 692.148 55.9949 692.185 55.0989 692.26L54.6509 692.288L54.5949 691.21C55.6122 690.967 56.5456 690.846 57.3949 690.846C58.2536 690.846 58.8696 691.033 59.2429 691.406C59.6256 691.77 59.8169 692.353 59.8169 693.156ZM56.6809 694.892C56.0369 694.948 55.7149 695.298 55.7149 695.942C55.7149 696.586 55.9996 696.908 56.5689 696.908C57.0356 696.908 57.5302 696.833 58.0529 696.684L58.3049 696.6V694.738L56.6809 694.892ZM61.3826 692.358V691H66.5766V692.358L63.2166 696.642H66.5766V698H61.3826V696.642L64.7566 692.358H61.3826ZM68.09 698V691H69.616V698H68.09ZM68.09 689.81V688.2H69.616V689.81H68.09ZM71.845 691.756C72.3303 691.149 73.133 690.846 74.253 690.846C75.373 690.846 76.171 691.149 76.647 691.756C77.1323 692.363 77.375 693.273 77.375 694.486C77.375 695.699 77.1416 696.614 76.675 697.23C76.2083 697.846 75.401 698.154 74.253 698.154C73.105 698.154 72.2976 697.846 71.831 697.23C71.3643 696.614 71.131 695.699 71.131 694.486C71.131 693.273 71.369 692.363 71.845 691.756ZM72.993 696.306C73.2076 696.679 73.6276 696.866 74.253 696.866C74.8783 696.866 75.2983 696.679 75.513 696.306C75.7276 695.933 75.835 695.321 75.835 694.472C75.835 693.623 75.7183 693.021 75.485 692.666C75.261 692.311 74.8503 692.134 74.253 692.134C73.6556 692.134 73.2403 692.311 73.007 692.666C72.783 693.021 72.671 693.623 72.671 694.472C72.671 695.321 72.7783 695.933 72.993 696.306ZM80.4168 698H78.8908V691H80.4028V691.434C81.0841 691.042 81.7281 690.846 82.3348 690.846C83.2681 690.846 83.9028 691.112 84.2388 691.644C84.5841 692.167 84.7568 693.035 84.7568 694.248V698H83.2448V694.29C83.2448 693.534 83.1608 692.997 82.9928 692.68C82.8341 692.363 82.5028 692.204 81.9988 692.204C81.5228 692.204 81.0655 692.297 80.6268 692.484L80.4168 692.568V698ZM91.5174 696.74L91.9094 696.698L91.9374 697.832C90.8734 698.047 89.9307 698.154 89.1094 698.154C88.0734 698.154 87.3267 697.869 86.8694 697.3C86.4214 696.731 86.1974 695.821 86.1974 694.57C86.1974 692.087 87.21 690.846 89.2354 690.846C91.1954 690.846 92.1754 691.915 92.1754 694.052L92.0774 695.144H87.7374C87.7467 695.723 87.8727 696.147 88.1154 696.418C88.358 696.689 88.8107 696.824 89.4734 696.824C90.136 696.824 90.8174 696.796 91.5174 696.74ZM90.6774 693.968C90.6774 693.277 90.5654 692.797 90.3414 692.526C90.1267 692.246 89.758 692.106 89.2354 692.106C88.7127 692.106 88.33 692.251 88.0874 692.54C87.854 692.829 87.7327 693.305 87.7234 693.968H90.6774ZM96.0749 698L98.4409 688.41H101.535L103.915 698H102.347L101.829 695.942H98.1469L97.6289 698H96.0749ZM99.6449 689.712L98.4549 694.57H101.521L100.345 689.712H99.6449ZM107.649 690.846C108.144 690.846 108.727 690.911 109.399 691.042L109.749 691.112L109.693 692.316C108.956 692.241 108.41 692.204 108.055 692.204C107.346 692.204 106.87 692.363 106.627 692.68C106.385 692.997 106.263 693.595 106.263 694.472C106.263 695.349 106.38 695.956 106.613 696.292C106.847 696.628 107.332 696.796 108.069 696.796L109.707 696.684L109.749 697.902C108.807 698.07 108.097 698.154 107.621 698.154C106.557 698.154 105.806 697.869 105.367 697.3C104.938 696.721 104.723 695.779 104.723 694.472C104.723 693.165 104.952 692.237 105.409 691.686C105.867 691.126 106.613 690.846 107.649 690.846ZM113.774 690.846C114.269 690.846 114.852 690.911 115.524 691.042L115.874 691.112L115.818 692.316C115.081 692.241 114.535 692.204 114.18 692.204C113.471 692.204 112.995 692.363 112.752 692.68C112.51 692.997 112.388 693.595 112.388 694.472C112.388 695.349 112.505 695.956 112.738 696.292C112.972 696.628 113.457 696.796 114.194 696.796L115.832 696.684L115.874 697.902C114.932 698.07 114.222 698.154 113.746 698.154C112.682 698.154 111.931 697.869 111.492 697.3C111.063 696.721 110.848 695.779 110.848 694.472C110.848 693.165 111.077 692.237 111.534 691.686C111.992 691.126 112.738 690.846 113.774 690.846ZM122.265 696.74L122.657 696.698L122.685 697.832C121.621 698.047 120.679 698.154 119.857 698.154C118.821 698.154 118.075 697.869 117.617 697.3C117.169 696.731 116.945 695.821 116.945 694.57C116.945 692.087 117.958 690.846 119.983 690.846C121.943 690.846 122.923 691.915 122.923 694.052L122.825 695.144H118.485C118.495 695.723 118.621 696.147 118.863 696.418C119.106 696.689 119.559 696.824 120.221 696.824C120.884 696.824 121.565 696.796 122.265 696.74ZM121.425 693.968C121.425 693.277 121.313 692.797 121.089 692.526C120.875 692.246 120.506 692.106 119.983 692.106C119.461 692.106 119.078 692.251 118.835 692.54C118.602 692.829 118.481 693.305 118.471 693.968H121.425ZM129.249 692.442C128.147 692.293 127.349 692.218 126.855 692.218C126.36 692.218 126.015 692.279 125.819 692.4C125.632 692.512 125.539 692.694 125.539 692.946C125.539 693.198 125.641 693.375 125.847 693.478C126.061 693.581 126.556 693.702 127.331 693.842C128.115 693.973 128.67 694.183 128.997 694.472C129.323 694.761 129.487 695.275 129.487 696.012C129.487 696.749 129.249 697.291 128.773 697.636C128.306 697.981 127.62 698.154 126.715 698.154C126.145 698.154 125.427 698.075 124.559 697.916L124.125 697.846L124.181 696.572C125.301 696.721 126.108 696.796 126.603 696.796C127.097 696.796 127.447 696.735 127.653 696.614C127.867 696.493 127.975 696.292 127.975 696.012C127.975 695.732 127.872 695.541 127.667 695.438C127.471 695.326 126.99 695.209 126.225 695.088C125.469 694.957 124.913 694.757 124.559 694.486C124.204 694.215 124.027 693.721 124.027 693.002C124.027 692.283 124.269 691.747 124.755 691.392C125.249 691.037 125.879 690.86 126.645 690.86C127.242 690.86 127.975 690.935 128.843 691.084L129.277 691.168L129.249 692.442ZM135.811 692.442C134.71 692.293 133.912 692.218 133.417 692.218C132.923 692.218 132.577 692.279 132.381 692.4C132.195 692.512 132.101 692.694 132.101 692.946C132.101 693.198 132.204 693.375 132.409 693.478C132.624 693.581 133.119 693.702 133.893 693.842C134.677 693.973 135.233 694.183 135.559 694.472C135.886 694.761 136.049 695.275 136.049 696.012C136.049 696.749 135.811 697.291 135.335 697.636C134.869 697.981 134.183 698.154 133.277 698.154C132.708 698.154 131.989 698.075 131.121 697.916L130.687 697.846L130.743 696.572C131.863 696.721 132.671 696.796 133.165 696.796C133.66 696.796 134.01 696.735 134.215 696.614C134.43 696.493 134.537 696.292 134.537 696.012C134.537 695.732 134.435 695.541 134.229 695.438C134.033 695.326 133.553 695.209 132.787 695.088C132.031 694.957 131.476 694.757 131.121 694.486C130.767 694.215 130.589 693.721 130.589 693.002C130.589 692.283 130.832 691.747 131.317 691.392C131.812 691.037 132.442 690.86 133.207 690.86C133.805 690.86 134.537 690.935 135.405 691.084L135.839 691.168L135.811 692.442ZM137.516 698V691H139.042V698H137.516ZM137.516 689.81V688.2H139.042V689.81H137.516ZM144.155 690.846C145.116 690.846 145.807 691.117 146.227 691.658C146.656 692.19 146.871 693.137 146.871 694.5C146.871 695.863 146.619 696.815 146.115 697.356C145.611 697.888 144.724 698.154 143.455 698.154C143.016 698.154 142.321 698.112 141.369 698.028L140.893 697.986V688.088H142.405V691.266C143.049 690.986 143.632 690.846 144.155 690.846ZM143.455 696.796C144.201 696.796 144.696 696.623 144.939 696.278C145.191 695.923 145.317 695.326 145.317 694.486C145.317 693.646 145.209 693.058 144.995 692.722C144.789 692.377 144.449 692.204 143.973 692.204C143.525 692.204 143.077 692.274 142.629 692.414L142.405 692.484V696.74C142.918 696.777 143.268 696.796 143.455 696.796ZM148.399 698V691H149.925V698H148.399ZM148.399 689.81V688.2H149.925V689.81H148.399ZM151.86 698V688.088H153.386V698H151.86ZM155.317 698V691H156.843V698H155.317ZM155.317 689.81V688.2H156.843V689.81H155.317ZM162.46 692.302H160.528V695.382C160.528 695.951 160.57 696.329 160.654 696.516C160.738 696.703 160.952 696.796 161.298 696.796L162.446 696.754L162.516 697.972C161.89 698.093 161.414 698.154 161.088 698.154C160.294 698.154 159.748 697.972 159.45 697.608C159.16 697.244 159.016 696.558 159.016 695.55V692.302H158.12V691H159.016V688.97H160.528V691H162.46V692.302ZM168.891 693.156V696.348C168.9 696.553 168.952 696.707 169.045 696.81C169.148 696.903 169.302 696.964 169.507 696.992L169.465 698.154C168.662 698.154 168.042 697.981 167.603 697.636C166.856 697.981 166.105 698.154 165.349 698.154C163.958 698.154 163.263 697.412 163.263 695.928C163.263 695.219 163.45 694.705 163.823 694.388C164.206 694.071 164.789 693.879 165.573 693.814L167.379 693.66V693.156C167.379 692.783 167.295 692.521 167.127 692.372C166.968 692.223 166.73 692.148 166.413 692.148C165.816 692.148 165.069 692.185 164.173 692.26L163.725 692.288L163.669 691.21C164.686 690.967 165.62 690.846 166.469 690.846C167.328 690.846 167.944 691.033 168.317 691.406C168.7 691.77 168.891 692.353 168.891 693.156ZM165.755 694.892C165.111 694.948 164.789 695.298 164.789 695.942C164.789 696.586 165.074 696.908 165.643 696.908C166.11 696.908 166.604 696.833 167.127 696.684L167.379 696.6V694.738L165.755 694.892ZM164.817 687.528L168.121 688.942L167.757 689.936L164.341 688.844L164.817 687.528Z" fill="white"/>
<path d="M12 699.54H169.885V699.96H12V699.54Z" fill="white"/>
</g>
<defs>
<filter id="filter0_d_4168_45412" x="-4" y="260" width="368" height="120" filterUnits="userSpaceOnUse" color-interpolation-filters="sRGB">
<feFlood flood-opacity="0" result="BackgroundImageFix"/>
<feColorMatrix in="SourceAlpha" type="matrix" values="0 0 0 0 0 0 0 0 0 0 0 0 0 0 0 0 0 0 127 0" result="hardAlpha"/>
<feOffset dy="8"/>
<feGaussianBlur stdDeviation="8"/>
<feColorMatrix type="matrix" values="0 0 0 0 0 0 0 0 0 0 0 0 0 0 0 0 0 0 0.15 0"/>
<feBlend mode="normal" in2="BackgroundImageFix" result="effect1_dropShadow_4168_45412"/>
<feBlend mode="normal" in="SourceGraphic" in2="effect1_dropShadow_4168_45412" result="shape"/>
</filter>
<filter id="filter1_d_4168_45412" x="-4" y="360" width="368" height="120" filterUnits="userSpaceOnUse" color-interpolation-filters="sRGB">
<feFlood flood-opacity="0" result="BackgroundImageFix"/>
<feColorMatrix in="SourceAlpha" type="matrix" values="0 0 0 0 0 0 0 0 0 0 0 0 0 0 0 0 0 0 127 0" result="hardAlpha"/>
<feOffset dy="8"/>
<feGaussianBlur stdDeviation="8"/>
<feColorMatrix type="matrix" values="0 0 0 0 0 0 0 0 0 0 0 0 0 0 0 0 0 0 0.15 0"/>
<feBlend mode="normal" in2="BackgroundImageFix" result="effect1_dropShadow_4168_45412"/>
<feBlend mode="normal" in="SourceGraphic" in2="effect1_dropShadow_4168_45412" result="shape"/>
</filter>
<clipPath id="clip0_4168_45412">
<rect width="360" height="733" fill="white"/>
</clipPath>
<clipPath id="clip1_4168_45412">
<rect width="47" height="24" fill="white" transform="translate(301 12)"/>
</clipPath>
<clipPath id="clip2_4168_45412">
<rect x="12" y="268" width="336" height="88" rx="4" fill="white"/>
</clipPath>
<clipPath id="clip3_4168_45412">
<rect width="24" height="24" fill="white" transform="translate(308 300)"/>
</clipPath>
<clipPath id="clip4_4168_45412">
<rect x="12" y="368" width="336" height="88" rx="4" fill="white"/>
</clipPath>
<clipPath id="clip5_4168_45412">
<rect width="24" height="24" fill="white" transform="translate(308 400)"/>
</clipPath>
</defs>
</svg>
