<svg width="1440" height="874" viewBox="0 0 1440 874" fill="none" xmlns="http://www.w3.org/2000/svg">
<rect width="1440" height="874" fill="white"/>
<rect width="1440" height="48" fill="#004D99"/>
<path d="M73.19 29V19.312H79.084V20.264H74.268V23.61H78.244V24.548H74.268V28.048H79.084V29H73.19ZM81.7963 29H80.7463V22H81.7823V22.49C82.5383 22.07 83.2616 21.86 83.9523 21.86C84.8856 21.86 85.5109 22.112 85.8283 22.616C86.1549 23.12 86.3183 24.016 86.3183 25.304V29H85.2823V25.332C85.2823 24.3613 85.1843 23.6987 84.9883 23.344C84.8016 22.98 84.3956 22.798 83.7703 22.798C83.4716 22.798 83.1543 22.8447 82.8183 22.938C82.4916 23.022 82.2396 23.106 82.0623 23.19L81.7963 23.316V29ZM91.8508 22.91H89.6248V26.256C89.6248 27.0587 89.6808 27.586 89.7928 27.838C89.9141 28.09 90.1941 28.216 90.6328 28.216L91.8788 28.132L91.9488 29C91.3235 29.1027 90.8475 29.154 90.5208 29.154C89.7928 29.154 89.2888 28.9767 89.0088 28.622C88.7288 28.2673 88.5888 27.5907 88.5888 26.592V22.91H87.5948V22H88.5888V19.858H89.6248V22H91.8508V22.91ZM97.893 28.132L98.299 28.09L98.327 28.916C97.263 29.0653 96.353 29.14 95.597 29.14C94.589 29.14 93.875 28.8507 93.455 28.272C93.035 27.684 92.825 26.774 92.825 25.542C92.825 23.0873 93.8003 21.86 95.751 21.86C96.6937 21.86 97.3983 22.126 97.865 22.658C98.3317 23.1807 98.565 24.0067 98.565 25.136L98.509 25.934H93.889C93.889 26.7087 94.029 27.2827 94.309 27.656C94.589 28.0293 95.0743 28.216 95.765 28.216C96.465 28.216 97.1743 28.188 97.893 28.132ZM97.515 25.094C97.515 24.2353 97.375 23.6287 97.095 23.274C96.8243 22.9193 96.3763 22.742 95.751 22.742C95.135 22.742 94.6683 22.9287 94.351 23.302C94.043 23.6753 93.8843 24.2727 93.875 25.094H97.515ZM108.22 24.114V27.698C108.248 28.0433 108.518 28.2487 109.032 28.314L108.99 29.14C108.252 29.14 107.697 28.9533 107.324 28.58C106.484 28.9533 105.644 29.14 104.804 29.14C104.16 29.14 103.67 28.958 103.334 28.594C102.998 28.23 102.83 27.7073 102.83 27.026C102.83 26.3447 103.002 25.8453 103.348 25.528C103.693 25.2013 104.234 25.0007 104.972 24.926L107.17 24.716V24.114C107.17 23.638 107.067 23.2973 106.862 23.092C106.656 22.8867 106.376 22.784 106.022 22.784C105.275 22.784 104.5 22.8307 103.698 22.924L103.264 22.966L103.222 22.168C104.248 21.9627 105.158 21.86 105.952 21.86C106.745 21.86 107.319 22.042 107.674 22.406C108.038 22.77 108.22 23.3393 108.22 24.114ZM103.908 26.97C103.908 27.8287 104.262 28.258 104.972 28.258C105.606 28.258 106.232 28.1507 106.848 27.936L107.17 27.824V25.514L105.098 25.71C104.678 25.7473 104.374 25.8687 104.188 26.074C104.001 26.2793 103.908 26.578 103.908 26.97ZM110.291 32.108V22H111.327V22.504C112.037 22.0747 112.737 21.86 113.427 21.86C114.314 21.86 114.958 22.1447 115.359 22.714C115.761 23.274 115.961 24.2027 115.961 25.5C115.961 26.7973 115.723 27.7307 115.247 28.3C114.781 28.86 114.001 29.14 112.909 29.14C112.34 29.14 111.817 29.0887 111.341 28.986V32.108H110.291ZM113.273 22.798C112.993 22.798 112.69 22.8447 112.363 22.938C112.046 23.0313 111.794 23.1247 111.607 23.218L111.341 23.358V28.076C112.004 28.1787 112.508 28.23 112.853 28.23C113.609 28.23 114.137 28.0153 114.435 27.586C114.743 27.1567 114.897 26.4567 114.897 25.486C114.897 24.5153 114.757 23.8247 114.477 23.414C114.207 23.0033 113.805 22.798 113.273 22.798ZM117.674 32.108V22H118.71V22.504C119.419 22.0747 120.119 21.86 120.81 21.86C121.697 21.86 122.341 22.1447 122.742 22.714C123.143 23.274 123.344 24.2027 123.344 25.5C123.344 26.7973 123.106 27.7307 122.63 28.3C122.163 28.86 121.384 29.14 120.292 29.14C119.723 29.14 119.2 29.0887 118.724 28.986V32.108H117.674ZM120.656 22.798C120.376 22.798 120.073 22.8447 119.746 22.938C119.429 23.0313 119.177 23.1247 118.99 23.218L118.724 23.358V28.076C119.387 28.1787 119.891 28.23 120.236 28.23C120.992 28.23 121.519 28.0153 121.818 27.586C122.126 27.1567 122.28 26.4567 122.28 25.486C122.28 24.5153 122.14 23.8247 121.86 23.414C121.589 23.0033 121.188 22.798 120.656 22.798ZM129.999 24.114V27.698C130.027 28.0433 130.297 28.2487 130.811 28.314L130.769 29.14C130.031 29.14 129.476 28.9533 129.103 28.58C128.263 28.9533 127.423 29.14 126.583 29.14C125.939 29.14 125.449 28.958 125.113 28.594C124.777 28.23 124.609 27.7073 124.609 27.026C124.609 26.3447 124.781 25.8453 125.127 25.528C125.472 25.2013 126.013 25.0007 126.751 24.926L128.949 24.716V24.114C128.949 23.638 128.846 23.2973 128.641 23.092C128.435 22.8867 128.155 22.784 127.801 22.784C127.054 22.784 126.279 22.8307 125.477 22.924L125.043 22.966L125.001 22.168C126.027 21.9627 126.937 21.86 127.731 21.86C128.524 21.86 129.098 22.042 129.453 22.406C129.817 22.77 129.999 23.3393 129.999 24.114ZM125.687 26.97C125.687 27.8287 126.041 28.258 126.751 28.258C127.385 28.258 128.011 28.1507 128.627 27.936L128.949 27.824V25.514L126.877 25.71C126.457 25.7473 126.153 25.8687 125.967 26.074C125.78 26.2793 125.687 26.578 125.687 26.97ZM132.071 29V22H133.107V22.952C133.919 22.392 134.773 22.0233 135.669 21.846V22.91C135.277 22.9847 134.866 23.1013 134.437 23.26C134.017 23.4187 133.695 23.5587 133.471 23.68L133.12 23.862V29H132.071ZM140.536 22.91H138.31V26.256C138.31 27.0587 138.366 27.586 138.478 27.838C138.6 28.09 138.88 28.216 139.318 28.216L140.564 28.132L140.634 29C140.009 29.1027 139.533 29.154 139.206 29.154C138.478 29.154 137.974 28.9767 137.694 28.622C137.414 28.2673 137.274 27.5907 137.274 26.592V22.91H136.28V22H137.274V19.858H138.31V22H140.536V22.91ZM146.579 28.132L146.985 28.09L147.013 28.916C145.949 29.0653 145.039 29.14 144.283 29.14C143.275 29.14 142.561 28.8507 142.141 28.272C141.721 27.684 141.511 26.774 141.511 25.542C141.511 23.0873 142.486 21.86 144.437 21.86C145.379 21.86 146.084 22.126 146.551 22.658C147.017 23.1807 147.251 24.0067 147.251 25.136L147.195 25.934H142.575C142.575 26.7087 142.715 27.2827 142.995 27.656C143.275 28.0293 143.76 28.216 144.451 28.216C145.151 28.216 145.86 28.188 146.579 28.132ZM146.201 25.094C146.201 24.2353 146.061 23.6287 145.781 23.274C145.51 22.9193 145.062 22.742 144.437 22.742C143.821 22.742 143.354 22.9287 143.037 23.302C142.729 23.6753 142.57 24.2727 142.561 25.094H146.201ZM149.937 29H148.887V22H149.923V22.49C150.679 22.07 151.402 21.86 152.093 21.86C153.026 21.86 153.652 22.112 153.969 22.616C154.296 23.12 154.459 24.016 154.459 25.304V29H153.423V25.332C153.423 24.3613 153.325 23.6987 153.129 23.344C152.942 22.98 152.536 22.798 151.911 22.798C151.612 22.798 151.295 22.8447 150.959 22.938C150.632 23.022 150.38 23.106 150.203 23.19L149.937 23.316V29ZM161.166 28.132L161.572 28.09L161.6 28.916C160.536 29.0653 159.626 29.14 158.87 29.14C157.862 29.14 157.148 28.8507 156.728 28.272C156.308 27.684 156.098 26.774 156.098 25.542C156.098 23.0873 157.074 21.86 159.024 21.86C159.967 21.86 160.672 22.126 161.138 22.658C161.605 23.1807 161.838 24.0067 161.838 25.136L161.782 25.934H157.162C157.162 26.7087 157.302 27.2827 157.582 27.656C157.862 28.0293 158.348 28.216 159.038 28.216C159.738 28.216 160.448 28.188 161.166 28.132ZM160.788 25.094C160.788 24.2353 160.648 23.6287 160.368 23.274C160.098 22.9193 159.65 22.742 159.024 22.742C158.408 22.742 157.942 22.9287 157.624 23.302C157.316 23.6753 157.158 24.2727 157.148 25.094H160.788ZM164.525 29H163.475V22H164.511V22.49C165.267 22.07 165.99 21.86 166.681 21.86C167.614 21.86 168.239 22.112 168.557 22.616C168.883 23.12 169.047 24.016 169.047 25.304V29H168.011V25.332C168.011 24.3613 167.913 23.6987 167.717 23.344C167.53 22.98 167.124 22.798 166.499 22.798C166.2 22.798 165.883 22.8447 165.547 22.938C165.22 23.022 164.968 23.106 164.791 23.19L164.525 23.316V29ZM170.574 22.938V22H175.768V22.938L171.848 28.062H175.768V29H170.574V28.062L174.494 22.938H170.574ZM182.307 24.114V27.698C182.335 28.0433 182.606 28.2487 183.119 28.314L183.077 29.14C182.34 29.14 181.785 28.9533 181.411 28.58C180.571 28.9533 179.731 29.14 178.891 29.14C178.247 29.14 177.757 28.958 177.421 28.594C177.085 28.23 176.917 27.7073 176.917 27.026C176.917 26.3447 177.09 25.8453 177.435 25.528C177.781 25.2013 178.322 25.0007 179.059 24.926L181.257 24.716V24.114C181.257 23.638 181.155 23.2973 180.949 23.092C180.744 22.8867 180.464 22.784 180.109 22.784C179.363 22.784 178.588 22.8307 177.785 22.924L177.351 22.966L177.309 22.168C178.336 21.9627 179.246 21.86 180.039 21.86C180.833 21.86 181.407 22.042 181.761 22.406C182.125 22.77 182.307 23.3393 182.307 24.114ZM177.995 26.97C177.995 27.8287 178.35 28.258 179.059 28.258C179.694 28.258 180.319 28.1507 180.935 27.936L181.257 27.824V25.514L179.185 25.71C178.765 25.7473 178.462 25.8687 178.275 26.074C178.089 26.2793 177.995 26.578 177.995 26.97Z" fill="white"/>
<g clip-path="url(#clip0_4167_42757)">
<path d="M1322.11 29V19.41H1323.66V29H1322.11ZM1324.94 20.796V19.41H1331.94V20.796H1329.24V29H1327.67V20.796H1324.94ZM1331.83 29L1334.2 19.41H1337.29L1339.67 29H1338.11L1337.59 26.942H1333.91L1333.39 29H1331.83ZM1335.4 20.712L1334.21 25.57H1337.28L1336.1 20.712H1335.4Z" fill="white"/>
<path d="M1356 27.1998L1350.4 21.5998L1351.1 20.7998L1356 25.6998L1360.9 20.7998L1361.6 21.5998L1356 27.1998Z" fill="white"/>
</g>
<rect width="1440" height="93" transform="translate(0 48)" fill="#F2F7FC"/>
<rect x="72.5" y="72.5" width="155.768" height="44" fill="#F2F7FC"/>
<rect x="72.5" y="72.5" width="155.768" height="44" stroke="#C5C7C9"/>
<line x1="72.9301" y1="72.5506" x2="228.124" y2="115.791" stroke="#C5C7C9"/>
<path d="M197.716 98.7804C198.136 99.5084 198.913 99.8724 200.047 99.8724C201.181 99.8724 201.951 99.5084 202.357 98.7804C202.777 98.0384 202.987 96.8064 202.987 95.0844C202.987 93.3484 202.777 92.0884 202.357 91.3044C201.937 90.5204 201.167 90.1284 200.047 90.1284C198.927 90.1284 198.157 90.5204 197.737 91.3044C197.317 92.0884 197.107 93.3484 197.107 95.0844C197.107 96.8064 197.31 98.0384 197.716 98.7804ZM204.625 100.628C203.743 101.804 202.217 102.392 200.047 102.392C197.877 102.392 196.344 101.804 195.448 100.628C194.566 99.4384 194.125 97.5834 194.125 95.0634C194.125 92.5434 194.566 90.6744 195.448 89.4564C196.344 88.2244 197.877 87.6084 200.047 87.6084C202.217 87.6084 203.743 88.2244 204.625 89.4564C205.521 90.6744 205.969 92.5434 205.969 95.0634C205.969 97.5834 205.521 99.4384 204.625 100.628Z" fill="black"/>
<path d="M187.86 97.0164V94.4964H192.018V101.909C190.016 102.231 188.392 102.392 187.146 102.392C184.92 102.392 183.387 101.797 182.547 100.607C181.721 99.4174 181.308 97.5274 181.308 94.9374C181.308 92.3474 181.742 90.4784 182.61 89.3304C183.478 88.1824 184.955 87.6084 187.041 87.6084C188.343 87.6084 189.75 87.7554 191.262 88.0494L192.018 88.1964L191.934 90.4434C190.254 90.2614 188.875 90.1704 187.797 90.1704C186.733 90.1704 185.984 90.2964 185.55 90.5484C185.116 90.8004 184.794 91.2694 184.584 91.9554C184.388 92.6274 184.29 93.7894 184.29 95.4414C184.29 97.0794 184.493 98.2274 184.899 98.8854C185.305 99.5434 186.145 99.8724 187.419 99.8724L189.162 99.7884V97.0164H187.86Z" fill="black"/>
<path d="M171.179 98.7804C171.599 99.5084 172.376 99.8724 173.51 99.8724C174.644 99.8724 175.414 99.5084 175.82 98.7804C176.24 98.0384 176.45 96.8064 176.45 95.0844C176.45 93.3484 176.24 92.0884 175.82 91.3044C175.4 90.5204 174.63 90.1284 173.51 90.1284C172.39 90.1284 171.62 90.5204 171.2 91.3044C170.78 92.0884 170.57 93.3484 170.57 95.0844C170.57 96.8064 170.773 98.0384 171.179 98.7804ZM178.088 100.628C177.206 101.804 175.68 102.392 173.51 102.392C171.34 102.392 169.807 101.804 168.911 100.628C168.029 99.4384 167.588 97.5834 167.588 95.0634C167.588 92.5434 168.029 90.6744 168.911 89.4564C169.807 88.2244 171.34 87.6084 173.51 87.6084C175.68 87.6084 177.206 88.2244 178.088 89.4564C178.984 90.6744 179.432 92.5434 179.432 95.0634C179.432 97.5834 178.984 99.4384 178.088 100.628Z" fill="black"/>
<path d="M166.563 102.14H158.436V87.8604H161.334V99.5784H166.563V102.14Z" fill="black"/>
<path d="M143.083 98.7804C143.503 99.5084 144.28 99.8724 145.414 99.8724C146.548 99.8724 147.318 99.5084 147.724 98.7804C148.144 98.0384 148.354 96.8064 148.354 95.0844C148.354 93.3484 148.144 92.0884 147.724 91.3044C147.304 90.5204 146.534 90.1284 145.414 90.1284C144.294 90.1284 143.524 90.5204 143.104 91.3044C142.684 92.0884 142.474 93.3484 142.474 95.0844C142.474 96.8064 142.677 98.0384 143.083 98.7804ZM149.992 100.628C149.11 101.804 147.584 102.392 145.414 102.392C143.244 102.392 141.711 101.804 140.815 100.628C139.933 99.4384 139.492 97.5834 139.492 95.0634C139.492 92.5434 139.933 90.6744 140.815 89.4564C141.711 88.2244 143.244 87.6084 145.414 87.6084C147.584 87.6084 149.11 88.2244 149.992 89.4564C150.888 90.6744 151.336 92.5434 151.336 95.0634C151.336 97.5834 150.888 99.4384 149.992 100.628Z" fill="black"/>
<path d="M129.154 97.4153C129.154 99.0813 130.001 99.9143 131.695 99.9143C133.389 99.9143 134.236 99.0813 134.236 97.4153V87.9023H137.134V97.3523C137.134 99.1023 136.679 100.39 135.769 101.216C134.873 102.028 133.515 102.434 131.695 102.434C129.875 102.434 128.51 102.028 127.6 101.216C126.704 100.39 126.256 99.1023 126.256 97.3523V87.9023H129.154V97.4153Z" fill="black"/>
<path d="M114.047 90.4224V87.8604H124.547V90.4224H120.767V102.14H117.869V90.4224H114.047Z" fill="black"/>
<path d="M108.936 102.14H100.809V87.8604H103.707V99.5783H108.936V102.14Z" fill="black"/>
<path d="M94.7998 102.14V87.8604H97.6978V102.14H94.7998Z" fill="black"/>
<path d="M252.769 60V129" stroke="#C5C7C9" stroke-linejoin="round"/>
<path d="M288.796 78.5C288.996 78.4988 289.202 78.5475 289.396 78.6572L302.18 85.8281C303.105 86.3469 303.537 87.184 303.537 88.1446L303.528 108.388C303.528 109.093 302.953 109.601 302.32 109.605C302.12 109.607 301.914 109.557 301.719 109.447L293.695 104.947V92.1553C293.695 91.1948 293.264 90.3539 292.338 89.8389L288.049 87.4512V109.283C288.049 109.988 287.473 110.495 286.841 110.5C286.641 110.501 286.435 110.452 286.239 110.342L278.126 105.779C277.201 105.261 276.769 104.423 276.769 103.463L276.788 82.1739C276.789 81.4685 277.364 80.9621 277.996 80.9571C278.196 80.9558 278.403 81.0044 278.599 81.1143L287.623 86.1758L287.588 79.7168C287.584 79.0114 288.164 78.5051 288.796 78.5ZM381.396 88.9981C385.874 88.9981 388.463 91.2516 388.463 95.083V100.031C388.463 100.664 388.74 100.971 389.203 100.972H389.801L389.799 100.975C390.026 100.975 390.196 101.148 390.196 101.375V104.558C390.196 104.785 390.035 104.956 389.808 104.956H386.982C385.751 104.956 384.738 104.51 384.147 103.811C382.811 104.853 381.112 105.381 379.3 105.381C375.886 105.381 373.864 103.511 373.864 100.301C373.864 97.2653 375.672 95.7237 379.657 95.4551L383.453 95.1983V94.5733C383.452 93.2772 382.553 92.5586 381.069 92.5586C380.037 92.5587 379.362 92.9087 379.045 93.5078C378.906 93.769 378.771 93.8594 378.533 93.8594H374.294C374.055 93.8593 373.897 93.7211 373.894 93.5186C373.891 93.3917 373.952 93.2003 374.058 92.9492C375.071 90.557 377.707 88.9981 381.396 88.9981ZM415.526 88.9981C420.278 88.9981 423.132 91.893 423.132 96.4492V97.9541C423.132 98.1811 422.961 98.3544 422.734 98.3545H412.578C412.71 100.232 413.541 101.761 415.688 101.761C416.696 101.761 417.502 101.422 417.914 100.777C418.071 100.532 418.216 100.46 418.354 100.46H422.421C422.744 100.46 422.852 100.656 422.854 100.872C422.855 100.995 422.818 101.126 422.735 101.342C421.76 103.882 419.361 105.381 415.788 105.381C410.715 105.381 407.729 102.312 407.729 97.1787C407.729 92.0455 410.655 88.9987 415.526 88.9981ZM373.747 83.6201V83.6211C374.002 83.6211 374.21 83.8609 374.166 84.1123L370.569 104.62C370.535 104.818 370.364 104.957 370.164 104.957H364.048C363.854 104.957 363.692 104.825 363.65 104.636L360.383 89.6446H360.088L356.82 104.636C356.779 104.825 356.614 104.957 356.421 104.957H350.304C350.105 104.957 349.937 104.817 349.902 104.62L346.305 84.1123C346.261 83.8609 346.467 83.6211 346.722 83.6211H350.76C350.961 83.6211 351.134 83.775 351.167 83.9727L353.591 98.4737H353.855L356.953 83.9561C356.995 83.7658 357.17 83.6214 357.364 83.6211H363.307C363.502 83.6212 363.661 83.7657 363.701 83.9561L366.737 98.501H367L369.457 83.9737C369.49 83.7749 369.651 83.6201 369.853 83.6201H373.747ZM319.086 83.6192C319.313 83.6192 319.484 83.7859 319.484 84.0127V104.558C319.484 104.785 319.312 104.956 319.085 104.956H314.563C314.337 104.956 314.165 104.785 314.165 104.558L314.156 84.0147C314.156 83.7878 314.337 83.6203 314.563 83.6201H319.086V83.6192ZM337.841 83.6192C338.069 83.6194 338.239 83.8202 338.239 84.0469V87.5733H338.238C338.238 87.8014 338.068 88.0007 337.841 88.001H332.209V104.557C332.209 104.784 332.008 104.955 331.781 104.955H327.315C327.088 104.955 326.89 104.78 326.89 104.553V87.999H321.255C321.028 87.9989 320.858 87.7992 320.858 87.5723V84.0449C320.858 83.8179 321.031 83.6192 321.258 83.6192H337.841ZM396.068 83.6201C396.296 83.6203 396.467 83.7908 396.467 84.0176V99.9502C396.467 100.585 396.831 100.972 397.466 100.972H398.43C398.657 100.972 398.855 101.14 398.855 101.367V104.56C398.855 104.786 398.676 104.955 398.449 104.955H396.244C392.918 104.956 391.317 103.483 391.317 100.46V84.0176C391.318 83.7908 391.489 83.6201 391.716 83.6201H396.068ZM404.604 83.6201C404.831 83.6201 405.014 83.7908 405.015 84.0176V99.9502C405.015 100.585 405.366 100.972 406.001 100.972H406.967C407.194 100.972 407.405 101.151 407.405 101.378V104.56C407.405 104.786 407.213 104.955 406.986 104.955H404.78C401.454 104.956 399.854 103.483 399.854 100.46V84.0176C399.855 83.7909 400.025 83.6203 400.252 83.6201H404.604ZM430.311 85.1836C430.537 85.1837 430.709 85.3544 430.709 85.5811V89.4229H433.326C433.554 89.4229 433.754 89.5935 433.754 89.8203V93.0059C433.754 93.234 433.58 93.4042 433.354 93.4043H430.709V99.9492C430.709 100.584 431.07 100.971 431.704 100.971H433.355C433.582 100.971 433.754 101.171 433.754 101.397V104.556C433.754 104.783 433.581 104.953 433.354 104.953H431.109C427.428 104.953 425.589 103.141 425.589 99.5498V93.4043H423.768C423.54 93.4041 423.37 93.2318 423.37 93.0049V89.8203C423.37 89.5935 423.569 89.422 423.796 89.4219H425.588V85.5889C425.588 85.362 425.783 85.1838 426.01 85.1836H430.311ZM380.746 98.5322C379.283 98.6421 378.754 99.1669 378.754 100.091C378.754 101.127 379.418 101.761 380.775 101.761C381.613 101.761 382.522 101.521 383.456 100.916H383.457V98.3281L380.746 98.5322ZM344.951 94.2588L344.953 94.2598C345.18 94.26 345.352 94.4314 345.352 94.6582V98.0147C345.351 98.2416 345.177 98.4121 344.95 98.4121H336.769C336.54 98.4121 336.363 98.2426 336.361 98.0156V94.6543C336.361 94.4261 336.531 94.2559 336.758 94.2559L344.951 94.2588ZM415.525 92.2559C413.77 92.2559 412.609 93.3339 412.598 95.0928H418.344C418.369 93.3205 417.281 92.2559 415.525 92.2559Z" fill="#0066CC"/>
<path d="M289 183.5H273.5L278.8 178.1L278.1 177.4L271.6 184L278.1 190.6L278.8 189.9L273.5 184.5H289V183.5Z" fill="#0066CC"/>
<path d="M300.182 180.796V179.41H307.182V180.796H304.48V189H302.912V180.796H300.182ZM307.564 182.756C308.049 182.149 308.852 181.846 309.972 181.846C311.092 181.846 311.89 182.149 312.366 182.756C312.851 183.363 313.094 184.273 313.094 185.486C313.094 186.699 312.86 187.614 312.394 188.23C311.927 188.846 311.12 189.154 309.972 189.154C308.824 189.154 308.016 188.846 307.55 188.23C307.083 187.614 306.85 186.699 306.85 185.486C306.85 184.273 307.088 183.363 307.564 182.756ZM308.712 187.306C308.926 187.679 309.346 187.866 309.972 187.866C310.597 187.866 311.017 187.679 311.232 187.306C311.446 186.933 311.554 186.321 311.554 185.472C311.554 184.623 311.437 184.021 311.204 183.666C310.98 183.311 310.569 183.134 309.972 183.134C309.374 183.134 308.959 183.311 308.726 183.666C308.502 184.021 308.39 184.623 308.39 185.472C308.39 186.321 308.497 186.933 308.712 187.306ZM314.61 189V182H316.122V182.84C316.915 182.327 317.708 181.995 318.502 181.846V183.372C317.699 183.531 317.013 183.736 316.444 183.988L316.136 184.114V189H314.61ZM321.194 189H319.668V182H321.18V182.434C321.861 182.042 322.505 181.846 323.112 181.846C324.045 181.846 324.68 182.112 325.016 182.644C325.361 183.167 325.534 184.035 325.534 185.248V189H324.022V185.29C324.022 184.534 323.938 183.997 323.77 183.68C323.611 183.363 323.28 183.204 322.776 183.204C322.3 183.204 321.843 183.297 321.404 183.484L321.194 183.568V189ZM332.491 184.156V187.348C332.5 187.553 332.551 187.707 332.645 187.81C332.747 187.903 332.901 187.964 333.107 187.992L333.065 189.154C332.262 189.154 331.641 188.981 331.203 188.636C330.456 188.981 329.705 189.154 328.949 189.154C327.558 189.154 326.863 188.412 326.863 186.928C326.863 186.219 327.049 185.705 327.423 185.388C327.805 185.071 328.389 184.879 329.173 184.814L330.979 184.66V184.156C330.979 183.783 330.895 183.521 330.727 183.372C330.568 183.223 330.33 183.148 330.013 183.148C329.415 183.148 328.669 183.185 327.773 183.26L327.325 183.288L327.269 182.21C328.286 181.967 329.219 181.846 330.069 181.846C330.927 181.846 331.543 182.033 331.917 182.406C332.299 182.77 332.491 183.353 332.491 184.156ZM329.355 185.892C328.711 185.948 328.389 186.298 328.389 186.942C328.389 187.586 328.673 187.908 329.243 187.908C329.709 187.908 330.204 187.833 330.727 187.684L330.979 187.6V185.738L329.355 185.892ZM337.483 189V182H339.009V189H337.483ZM337.483 180.81V179.2H339.009V180.81H337.483ZM342.386 189H340.86V182H342.372V182.434C343.053 182.042 343.697 181.846 344.304 181.846C345.237 181.846 345.872 182.112 346.208 182.644C346.553 183.167 346.726 184.035 346.726 185.248V189H345.214V185.29C345.214 184.534 345.13 183.997 344.962 183.68C344.803 183.363 344.472 183.204 343.968 183.204C343.492 183.204 343.034 183.297 342.596 183.484L342.386 183.568V189ZM354.214 179.088V189H352.702V188.636C352.021 188.981 351.395 189.154 350.826 189.154C349.911 189.154 349.239 188.879 348.81 188.328C348.39 187.777 348.18 186.853 348.18 185.556C348.18 184.259 348.413 183.316 348.88 182.728C349.356 182.14 350.093 181.846 351.092 181.846C351.428 181.846 351.96 181.907 352.688 182.028V179.088H354.214ZM352.45 187.544L352.688 187.446V183.302C352.128 183.209 351.61 183.162 351.134 183.162C350.191 183.162 349.72 183.946 349.72 185.514C349.72 186.373 349.827 186.97 350.042 187.306C350.266 187.633 350.616 187.796 351.092 187.796C351.568 187.796 352.021 187.712 352.45 187.544ZM356.063 189V182H357.589V189H356.063ZM356.063 180.81V179.2H357.589V180.81H356.063ZM364.424 187.74L364.816 187.698L364.844 188.832C363.78 189.047 362.837 189.154 362.016 189.154C360.98 189.154 360.233 188.869 359.776 188.3C359.328 187.731 359.104 186.821 359.104 185.57C359.104 183.087 360.116 181.846 362.142 181.846C364.102 181.846 365.082 182.915 365.082 185.052L364.984 186.144H360.644C360.653 186.723 360.779 187.147 361.022 187.418C361.264 187.689 361.717 187.824 362.38 187.824C363.042 187.824 363.724 187.796 364.424 187.74ZM363.584 184.968C363.584 184.277 363.472 183.797 363.248 183.526C363.033 183.246 362.664 183.106 362.142 183.106C361.619 183.106 361.236 183.251 360.994 183.54C360.76 183.829 360.639 184.305 360.63 184.968H363.584ZM370.315 183.302H368.383V186.382C368.383 186.951 368.425 187.329 368.509 187.516C368.593 187.703 368.808 187.796 369.153 187.796L370.301 187.754L370.371 188.972C369.746 189.093 369.27 189.154 368.943 189.154C368.15 189.154 367.604 188.972 367.305 188.608C367.016 188.244 366.871 187.558 366.871 186.55V183.302H365.975V182H366.871V179.97H368.383V182H370.315V183.302ZM371.567 189V182H373.079V182.84C373.872 182.327 374.665 181.995 375.459 181.846V183.372C374.656 183.531 373.97 183.736 373.401 183.988L373.093 184.114V189H371.567ZM376.948 182.756C377.434 182.149 378.236 181.846 379.356 181.846C380.476 181.846 381.274 182.149 381.75 182.756C382.236 183.363 382.478 184.273 382.478 185.486C382.478 186.699 382.245 187.614 381.778 188.23C381.312 188.846 380.504 189.154 379.356 189.154C378.208 189.154 377.401 188.846 376.934 188.23C376.468 187.614 376.234 186.699 376.234 185.486C376.234 184.273 376.472 183.363 376.948 182.756ZM378.096 187.306C378.311 187.679 378.731 187.866 379.356 187.866C379.982 187.866 380.402 187.679 380.616 187.306C380.831 186.933 380.938 186.321 380.938 185.472C380.938 184.623 380.822 184.021 380.588 183.666C380.364 183.311 379.954 183.134 379.356 183.134C378.759 183.134 378.344 183.311 378.11 183.666C377.886 184.021 377.774 184.623 377.774 185.472C377.774 186.321 377.882 186.933 378.096 187.306Z" fill="#0066CC"/>
<path d="M300 190.54H383.066V190.96H300V190.54Z" fill="#0066CC"/>
<path d="M650.449 177.696C648.123 177.696 646.961 178.464 646.961 180C646.961 180.683 647.249 181.205 647.825 181.568C648.401 181.931 649.745 182.453 651.857 183.136C653.99 183.819 655.483 184.597 656.337 185.472C657.19 186.325 657.617 187.648 657.617 189.44C657.617 191.723 656.923 193.451 655.537 194.624C654.15 195.797 652.337 196.384 650.097 196.384C648.433 196.384 646.395 196.128 643.985 195.616L642.833 195.392L643.281 191.968C646.139 192.352 648.326 192.544 649.841 192.544C652.102 192.544 653.233 191.605 653.233 189.728C653.233 189.045 652.966 188.512 652.433 188.128C651.921 187.744 650.886 187.328 649.329 186.88C646.854 186.176 645.105 185.344 644.081 184.384C643.078 183.403 642.577 182.048 642.577 180.32C642.577 178.144 643.238 176.523 644.561 175.456C645.883 174.389 647.697 173.856 650.001 173.856C651.579 173.856 653.585 174.069 656.017 174.496L657.169 174.72L656.817 178.208C653.809 177.867 651.686 177.696 650.449 177.696ZM666.767 179.616C667.876 179.616 669.295 179.787 671.023 180.128L671.887 180.32L671.759 183.712C670.074 183.541 668.826 183.456 668.015 183.456C666.543 183.456 665.562 183.776 665.071 184.416C664.602 185.035 664.367 186.219 664.367 187.968C664.367 189.717 664.602 190.923 665.071 191.584C665.562 192.224 666.554 192.544 668.047 192.544L671.759 192.288L671.887 195.712C669.604 196.16 667.866 196.384 666.671 196.384C664.303 196.384 662.596 195.723 661.551 194.4C660.527 193.056 660.015 190.912 660.015 187.968C660.015 185.024 660.548 182.901 661.615 181.6C662.682 180.277 664.399 179.616 666.767 179.616ZM678.459 189.824C678.481 190.805 678.737 191.52 679.227 191.968C679.739 192.395 680.465 192.608 681.403 192.608C683.387 192.608 685.158 192.544 686.715 192.416L687.611 192.32L687.675 195.488C685.222 196.085 683.003 196.384 681.019 196.384C678.609 196.384 676.859 195.744 675.771 194.464C674.683 193.184 674.139 191.104 674.139 188.224C674.139 182.485 676.497 179.616 681.211 179.616C685.862 179.616 688.187 182.027 688.187 186.848L687.867 189.824H678.459ZM683.963 186.56C683.963 185.28 683.761 184.395 683.355 183.904C682.95 183.392 682.235 183.136 681.211 183.136C680.209 183.136 679.494 183.403 679.067 183.936C678.662 184.448 678.449 185.323 678.427 186.56H683.963ZM705.748 197.984C705.748 199.819 705.044 201.173 703.636 202.048C702.228 202.923 700.318 203.36 697.908 203.36C695.518 203.36 693.673 203.04 692.372 202.4C691.092 201.76 690.452 200.597 690.452 198.912C690.452 197.568 691.22 196.299 692.756 195.104C691.966 194.571 691.572 193.76 691.572 192.672C691.572 192.245 691.892 191.541 692.532 190.56L692.82 190.112C691.369 189.067 690.644 187.531 690.644 185.504C690.644 183.456 691.252 181.973 692.468 181.056C693.705 180.139 695.337 179.68 697.364 179.68C698.281 179.68 699.188 179.787 700.084 180L700.596 180.096L705.748 179.936V183.36L703.348 183.168C703.817 183.893 704.052 184.619 704.052 185.344C704.052 187.477 703.508 188.949 702.42 189.76C701.332 190.571 699.625 190.976 697.3 190.976C696.809 190.976 696.372 190.933 695.988 190.848C695.774 191.403 695.668 191.861 695.668 192.224C695.668 192.565 695.849 192.8 696.212 192.928C696.574 193.056 697.428 193.131 698.772 193.152C701.46 193.173 703.294 193.536 704.276 194.24C705.257 194.923 705.748 196.171 705.748 197.984ZM694.676 198.464C694.676 199.381 695.796 199.84 698.036 199.84C700.297 199.84 701.428 199.307 701.428 198.24C701.428 197.664 701.236 197.291 700.852 197.12C700.468 196.971 699.657 196.885 698.42 196.864L695.54 196.64C694.964 197.216 694.676 197.824 694.676 198.464ZM694.932 185.376C694.932 186.933 695.742 187.712 697.364 187.712C699.006 187.712 699.828 186.933 699.828 185.376C699.828 183.797 699.006 183.008 697.364 183.008C695.742 183.008 694.932 183.797 694.932 185.376ZM708.538 196V173.6H712.826V196H708.538ZM716.971 196V180H721.259V196H716.971ZM716.971 177.952V173.6H721.259V177.952H716.971ZM732.444 196V173.6H736.732V196H732.444ZM740.205 182.144L741.709 174.24H746.221L743.501 182.144H740.205ZM760.852 184.992V191.648C760.894 192.16 760.98 192.523 761.108 192.736C761.236 192.928 761.502 193.067 761.908 193.152L761.78 196.384C760.692 196.384 759.817 196.309 759.156 196.16C758.516 196.011 757.865 195.712 757.204 195.264C755.668 196.011 754.1 196.384 752.5 196.384C749.193 196.384 747.54 194.635 747.54 191.136C747.54 189.429 747.998 188.224 748.916 187.52C749.833 186.795 751.241 186.368 753.14 186.24L756.564 185.984V184.992C756.564 184.331 756.414 183.883 756.116 183.648C755.817 183.392 755.337 183.264 754.676 183.264L748.66 183.52L748.532 180.544C750.814 179.925 752.98 179.616 755.028 179.616C757.097 179.616 758.58 180.043 759.476 180.896C760.393 181.749 760.852 183.115 760.852 184.992ZM753.652 189.216C752.457 189.323 751.86 189.963 751.86 191.136C751.86 192.309 752.382 192.896 753.428 192.896C754.238 192.896 755.124 192.768 756.084 192.512L756.564 192.384V188.96L753.652 189.216ZM764.939 202.72V180H769.195V180.864C770.582 180.032 771.798 179.616 772.843 179.616C774.998 179.616 776.587 180.267 777.611 181.568C778.635 182.848 779.147 185.035 779.147 188.128C779.147 191.221 778.582 193.376 777.451 194.592C776.321 195.787 774.465 196.384 771.883 196.384C771.179 196.384 770.422 196.32 769.611 196.192L769.227 196.128V202.72H764.939ZM772.011 183.456C771.222 183.456 770.422 183.616 769.611 183.936L769.227 184.096V192.48C770.187 192.608 770.966 192.672 771.563 192.672C772.801 192.672 773.643 192.309 774.091 191.584C774.561 190.859 774.795 189.621 774.795 187.872C774.795 184.928 773.867 183.456 772.011 183.456ZM782.346 202.72V180H786.602V180.864C787.988 180.032 789.204 179.616 790.25 179.616C792.404 179.616 793.994 180.267 795.018 181.568C796.042 182.848 796.554 185.035 796.554 188.128C796.554 191.221 795.988 193.376 794.858 194.592C793.727 195.787 791.871 196.384 789.29 196.384C788.586 196.384 787.828 196.32 787.018 196.192L786.634 196.128V202.72H782.346ZM789.418 183.456C788.628 183.456 787.828 183.616 787.018 183.936L786.634 184.096V192.48C787.594 192.608 788.372 192.672 788.97 192.672C790.207 192.672 791.05 192.309 791.498 191.584C791.967 190.859 792.202 189.621 792.202 187.872C792.202 184.928 791.274 183.456 789.418 183.456Z" fill="#17324D"/>
<path d="M479.394 216.76C476.994 216.76 475.794 217.664 475.794 219.472C475.794 220.48 476.066 221.176 476.61 221.56C477.17 221.928 478.29 222.304 479.97 222.688C481.666 223.056 482.866 223.544 483.57 224.152C484.274 224.744 484.626 225.728 484.626 227.104C484.626 230.512 482.858 232.216 479.322 232.216C478.154 232.216 476.69 232.08 474.93 231.808L474.066 231.688L474.258 230.152C476.434 230.44 478.09 230.584 479.226 230.584C481.594 230.584 482.778 229.472 482.778 227.248C482.778 226.352 482.514 225.712 481.986 225.328C481.474 224.928 480.506 224.592 479.082 224.32C477.21 223.92 475.882 223.408 475.098 222.784C474.314 222.144 473.922 221.08 473.922 219.592C473.922 216.616 475.706 215.128 479.274 215.128C480.442 215.128 481.842 215.248 483.474 215.488L484.29 215.608L484.122 217.168C481.898 216.896 480.322 216.76 479.394 216.76ZM495.665 230.512L496.361 230.44L496.409 231.856C494.585 232.112 493.025 232.24 491.729 232.24C490.001 232.24 488.777 231.744 488.057 230.752C487.337 229.744 486.977 228.184 486.977 226.072C486.977 221.864 488.649 219.76 491.993 219.76C493.609 219.76 494.817 220.216 495.617 221.128C496.417 222.024 496.817 223.44 496.817 225.376L496.721 226.744H488.801C488.801 228.072 489.041 229.056 489.521 229.696C490.001 230.336 490.833 230.656 492.017 230.656C493.217 230.656 494.433 230.608 495.665 230.512ZM495.017 225.304C495.017 223.832 494.777 222.792 494.297 222.184C493.833 221.576 493.065 221.272 491.993 221.272C490.937 221.272 490.137 221.592 489.593 222.232C489.065 222.872 488.793 223.896 488.777 225.304H495.017ZM499.767 232V214.768H501.567V232H499.767ZM513.337 230.512L514.033 230.44L514.081 231.856C512.257 232.112 510.697 232.24 509.401 232.24C507.673 232.24 506.449 231.744 505.729 230.752C505.009 229.744 504.649 228.184 504.649 226.072C504.649 221.864 506.321 219.76 509.665 219.76C511.281 219.76 512.489 220.216 513.289 221.128C514.089 222.024 514.489 223.44 514.489 225.376L514.393 226.744H506.473C506.473 228.072 506.713 229.056 507.193 229.696C507.673 230.336 508.505 230.656 509.689 230.656C510.889 230.656 512.105 230.608 513.337 230.512ZM512.689 225.304C512.689 223.832 512.449 222.792 511.969 222.184C511.505 221.576 510.737 221.272 509.665 221.272C508.609 221.272 507.809 221.592 507.265 222.232C506.737 222.872 506.465 223.896 506.449 225.304H512.689ZM516.574 221.608V220H525.478V221.608L518.758 230.392H525.478V232H516.574V230.392L523.294 221.608H516.574ZM528.216 232V220H530.016V232H528.216ZM528.216 217.288V215.2H530.016V217.288H528.216ZM532.938 225.976C532.938 223.784 533.33 222.2 534.114 221.224C534.898 220.248 536.218 219.76 538.074 219.76C539.946 219.76 541.266 220.248 542.034 221.224C542.818 222.2 543.21 223.784 543.21 225.976C543.21 228.168 542.842 229.76 542.106 230.752C541.37 231.744 540.026 232.24 538.074 232.24C536.122 232.24 534.778 231.744 534.042 230.752C533.306 229.76 532.938 228.168 532.938 225.976ZM534.786 225.952C534.786 227.696 534.994 228.92 535.41 229.624C535.842 230.328 536.73 230.68 538.074 230.68C539.434 230.68 540.322 230.336 540.738 229.648C541.154 228.944 541.362 227.712 541.362 225.952C541.362 224.192 541.13 222.984 540.666 222.328C540.202 221.656 539.338 221.32 538.074 221.32C536.826 221.32 535.962 221.656 535.482 222.328C535.018 222.984 534.786 224.192 534.786 225.952ZM547.946 232H546.146V220H547.922V220.84C549.218 220.12 550.458 219.76 551.642 219.76C553.242 219.76 554.314 220.192 554.858 221.056C555.418 221.92 555.698 223.456 555.698 225.664V232H553.922V225.712C553.922 224.048 553.754 222.912 553.418 222.304C553.098 221.68 552.402 221.368 551.33 221.368C550.818 221.368 550.274 221.448 549.698 221.608C549.138 221.752 548.706 221.896 548.402 222.04L547.946 222.256V232ZM567.509 223.624V229.768C567.557 230.36 568.021 230.712 568.901 230.824L568.829 232.24C567.565 232.24 566.613 231.92 565.973 231.28C564.533 231.92 563.093 232.24 561.653 232.24C560.549 232.24 559.709 231.928 559.133 231.304C558.557 230.68 558.269 229.784 558.269 228.616C558.269 227.448 558.565 226.592 559.157 226.048C559.749 225.488 560.677 225.144 561.941 225.016L565.709 224.656V223.624C565.709 222.808 565.533 222.224 565.181 221.872C564.829 221.52 564.349 221.344 563.741 221.344C562.461 221.344 561.133 221.424 559.757 221.584L559.013 221.656L558.941 220.288C560.701 219.936 562.261 219.76 563.621 219.76C564.981 219.76 565.965 220.072 566.573 220.696C567.197 221.32 567.509 222.296 567.509 223.624ZM560.117 228.52C560.117 229.992 560.725 230.728 561.941 230.728C563.029 230.728 564.101 230.544 565.157 230.176L565.709 229.984V226.024L562.157 226.36C561.437 226.424 560.917 226.632 560.597 226.984C560.277 227.336 560.117 227.848 560.117 228.52ZM576.333 232V220H578.133V232H576.333ZM576.333 217.288V215.2H578.133V217.288H576.333ZM581.727 232V214.768H583.527V232H581.727ZM592.412 237.328V220H594.188V220.864C595.404 220.128 596.604 219.76 597.788 219.76C599.308 219.76 600.412 220.248 601.1 221.224C601.788 222.184 602.132 223.776 602.132 226C602.132 228.224 601.724 229.824 600.908 230.8C600.108 231.76 598.772 232.24 596.9 232.24C595.924 232.24 595.028 232.152 594.212 231.976V237.328H592.412ZM597.524 221.368C597.044 221.368 596.524 221.448 595.964 221.608C595.42 221.768 594.988 221.928 594.668 222.088L594.212 222.328V230.416C595.348 230.592 596.212 230.68 596.804 230.68C598.1 230.68 599.004 230.312 599.516 229.576C600.044 228.84 600.308 227.64 600.308 225.976C600.308 224.312 600.068 223.128 599.588 222.424C599.124 221.72 598.436 221.368 597.524 221.368ZM604.54 225.976C604.54 223.784 604.932 222.2 605.716 221.224C606.5 220.248 607.82 219.76 609.676 219.76C611.548 219.76 612.868 220.248 613.636 221.224C614.42 222.2 614.812 223.784 614.812 225.976C614.812 228.168 614.444 229.76 613.708 230.752C612.972 231.744 611.628 232.24 609.676 232.24C607.724 232.24 606.38 231.744 605.644 230.752C604.908 229.76 604.54 228.168 604.54 225.976ZM606.388 225.952C606.388 227.696 606.596 228.92 607.012 229.624C607.444 230.328 608.332 230.68 609.676 230.68C611.036 230.68 611.924 230.336 612.34 229.648C612.756 228.944 612.964 227.712 612.964 225.952C612.964 224.192 612.732 222.984 612.268 222.328C611.804 221.656 610.94 221.32 609.676 221.32C608.428 221.32 607.564 221.656 607.084 222.328C606.62 222.984 606.388 224.192 606.388 225.952ZM617.748 232V220H619.524V221.632C620.916 220.672 622.38 220.04 623.916 219.736V221.56C623.244 221.688 622.54 221.888 621.804 222.16C621.084 222.432 620.532 222.672 620.148 222.88L619.548 223.192V232H617.748ZM632.26 221.56H628.444V227.296C628.444 228.672 628.54 229.576 628.732 230.008C628.94 230.44 629.42 230.656 630.172 230.656L632.308 230.512L632.428 232C631.356 232.176 630.54 232.264 629.98 232.264C628.732 232.264 627.868 231.96 627.388 231.352C626.908 230.744 626.668 229.584 626.668 227.872V221.56H624.964V220H626.668V216.328H628.444V220H632.26V221.56ZM642.93 223.624V229.768C642.978 230.36 643.442 230.712 644.322 230.824L644.25 232.24C642.986 232.24 642.034 231.92 641.394 231.28C639.954 231.92 638.514 232.24 637.074 232.24C635.97 232.24 635.13 231.928 634.554 231.304C633.978 230.68 633.69 229.784 633.69 228.616C633.69 227.448 633.986 226.592 634.578 226.048C635.17 225.488 636.098 225.144 637.362 225.016L641.13 224.656V223.624C641.13 222.808 640.954 222.224 640.602 221.872C640.25 221.52 639.77 221.344 639.162 221.344C637.882 221.344 636.554 221.424 635.178 221.584L634.434 221.656L634.362 220.288C636.122 219.936 637.682 219.76 639.042 219.76C640.402 219.76 641.386 220.072 641.994 220.696C642.618 221.32 642.93 222.296 642.93 223.624ZM635.538 228.52C635.538 229.992 636.146 230.728 637.362 230.728C638.45 230.728 639.522 230.544 640.578 230.176L641.13 229.984V226.024L637.578 226.36C636.858 226.424 636.338 226.632 636.018 226.984C635.698 227.336 635.538 227.848 635.538 228.52ZM648.786 221.56V232H646.986V221.56H645.474V220H646.986V218.92C646.986 217.224 647.226 216.072 647.706 215.464C648.186 214.84 649.026 214.528 650.226 214.528L652.65 214.696L652.626 216.184C651.73 216.152 650.986 216.136 650.394 216.136C649.818 216.136 649.402 216.328 649.146 216.712C648.906 217.096 648.786 217.84 648.786 218.944V220H652.266V221.56H648.786ZM653.688 225.976C653.688 223.784 654.08 222.2 654.864 221.224C655.648 220.248 656.968 219.76 658.824 219.76C660.696 219.76 662.016 220.248 662.784 221.224C663.568 222.2 663.96 223.784 663.96 225.976C663.96 228.168 663.592 229.76 662.856 230.752C662.12 231.744 660.776 232.24 658.824 232.24C656.872 232.24 655.528 231.744 654.792 230.752C654.056 229.76 653.688 228.168 653.688 225.976ZM655.536 225.952C655.536 227.696 655.744 228.92 656.16 229.624C656.592 230.328 657.48 230.68 658.824 230.68C660.184 230.68 661.072 230.336 661.488 229.648C661.904 228.944 662.112 227.712 662.112 225.952C662.112 224.192 661.88 222.984 661.416 222.328C660.952 221.656 660.088 221.32 658.824 221.32C657.576 221.32 656.712 221.656 656.232 222.328C655.768 222.984 655.536 224.192 655.536 225.952ZM671.528 237.64C669.608 237.64 668.264 237.376 667.496 236.848C666.744 236.336 666.368 235.392 666.368 234.016C666.368 233.36 666.512 232.824 666.8 232.408C667.088 232.008 667.576 231.552 668.264 231.04C667.816 230.736 667.592 230.184 667.592 229.384C667.592 229.112 667.792 228.608 668.192 227.872L668.408 227.488C667.144 226.912 666.512 225.704 666.512 223.864C666.512 221.128 668.008 219.76 671 219.76C671.768 219.76 672.48 219.84 673.136 220L673.496 220.072L677.048 219.976V221.512L674.768 221.464C675.296 221.992 675.56 222.792 675.56 223.864C675.56 225.368 675.184 226.424 674.432 227.032C673.696 227.624 672.528 227.92 670.928 227.92C670.496 227.92 670.104 227.888 669.752 227.824C669.464 228.528 669.32 228.984 669.32 229.192C669.32 229.688 669.472 230 669.776 230.128C670.08 230.24 671 230.296 672.536 230.296C674.072 230.296 675.176 230.536 675.848 231.016C676.52 231.496 676.856 232.432 676.856 233.824C676.856 236.368 675.08 237.64 671.528 237.64ZM668.144 233.872C668.144 234.72 668.376 235.304 668.84 235.624C669.32 235.96 670.192 236.128 671.456 236.128C672.736 236.128 673.648 235.952 674.192 235.6C674.752 235.248 675.032 234.656 675.032 233.824C675.032 233.008 674.832 232.48 674.432 232.24C674.032 232 673.248 231.88 672.08 231.88L669.488 231.76C668.96 232.144 668.6 232.48 668.408 232.768C668.232 233.056 668.144 233.424 668.144 233.872ZM668.312 223.864C668.312 224.808 668.52 225.48 668.936 225.88C669.368 226.28 670.072 226.48 671.048 226.48C672.024 226.48 672.72 226.28 673.136 225.88C673.552 225.48 673.76 224.808 673.76 223.864C673.76 222.904 673.552 222.224 673.136 221.824C672.72 221.424 672.024 221.224 671.048 221.224C670.072 221.224 669.368 221.432 668.936 221.848C668.52 222.248 668.312 222.92 668.312 223.864ZM679.368 232V214.768H681.168V232H679.368ZM684.779 232V220H686.579V232H684.779ZM684.779 217.288V215.2H686.579V217.288H684.779ZM689.501 225.976C689.501 223.784 689.893 222.2 690.677 221.224C691.461 220.248 692.781 219.76 694.637 219.76C696.509 219.76 697.829 220.248 698.597 221.224C699.381 222.2 699.773 223.784 699.773 225.976C699.773 228.168 699.405 229.76 698.669 230.752C697.933 231.744 696.589 232.24 694.637 232.24C692.685 232.24 691.341 231.744 690.605 230.752C689.869 229.76 689.501 228.168 689.501 225.976ZM691.349 225.952C691.349 227.696 691.557 228.92 691.973 229.624C692.405 230.328 693.293 230.68 694.637 230.68C695.997 230.68 696.885 230.336 697.301 229.648C697.717 228.944 697.925 227.712 697.925 225.952C697.925 224.192 697.693 222.984 697.229 222.328C696.765 221.656 695.901 221.32 694.637 221.32C693.389 221.32 692.525 221.656 692.045 222.328C691.581 222.984 691.349 224.192 691.349 225.952ZM717.198 214.768V232H715.422V231.184C714.19 231.888 712.974 232.24 711.774 232.24C711.134 232.24 710.574 232.16 710.094 232C709.614 231.84 709.166 231.552 708.75 231.136C707.886 230.272 707.454 228.68 707.454 226.36C707.454 224.024 707.838 222.344 708.606 221.32C709.39 220.28 710.678 219.76 712.47 219.76C713.398 219.76 714.382 219.864 715.422 220.072V214.768H717.198ZM710.142 229.84C710.398 230.144 710.67 230.352 710.958 230.464C711.246 230.576 711.614 230.632 712.062 230.632C712.526 230.632 713.038 230.56 713.598 230.416C714.174 230.256 714.622 230.104 714.942 229.96L715.422 229.744V221.608C714.398 221.416 713.446 221.32 712.566 221.32C711.35 221.32 710.502 221.712 710.022 222.496C709.542 223.264 709.302 224.464 709.302 226.096C709.302 227.952 709.582 229.2 710.142 229.84ZM720.685 232V220H722.485V232H720.685ZM720.685 217.288V215.2H722.485V217.288H720.685ZM730.567 237.64C728.647 237.64 727.303 237.376 726.535 236.848C725.783 236.336 725.407 235.392 725.407 234.016C725.407 233.36 725.551 232.824 725.839 232.408C726.127 232.008 726.615 231.552 727.303 231.04C726.855 230.736 726.631 230.184 726.631 229.384C726.631 229.112 726.831 228.608 727.231 227.872L727.447 227.488C726.183 226.912 725.551 225.704 725.551 223.864C725.551 221.128 727.047 219.76 730.039 219.76C730.807 219.76 731.519 219.84 732.175 220L732.535 220.072L736.087 219.976V221.512L733.807 221.464C734.335 221.992 734.599 222.792 734.599 223.864C734.599 225.368 734.223 226.424 733.471 227.032C732.735 227.624 731.567 227.92 729.967 227.92C729.535 227.92 729.143 227.888 728.791 227.824C728.503 228.528 728.359 228.984 728.359 229.192C728.359 229.688 728.511 230 728.815 230.128C729.119 230.24 730.039 230.296 731.575 230.296C733.111 230.296 734.215 230.536 734.887 231.016C735.559 231.496 735.895 232.432 735.895 233.824C735.895 236.368 734.119 237.64 730.567 237.64ZM727.183 233.872C727.183 234.72 727.415 235.304 727.879 235.624C728.359 235.96 729.231 236.128 730.495 236.128C731.775 236.128 732.687 235.952 733.231 235.6C733.791 235.248 734.071 234.656 734.071 233.824C734.071 233.008 733.871 232.48 733.471 232.24C733.071 232 732.287 231.88 731.119 231.88L728.527 231.76C727.999 232.144 727.639 232.48 727.447 232.768C727.271 233.056 727.183 233.424 727.183 233.872ZM727.351 223.864C727.351 224.808 727.559 225.48 727.975 225.88C728.407 226.28 729.111 226.48 730.087 226.48C731.063 226.48 731.759 226.28 732.175 225.88C732.591 225.48 732.799 224.808 732.799 223.864C732.799 222.904 732.591 222.224 732.175 221.824C731.759 221.424 731.063 221.224 730.087 221.224C729.111 221.224 728.407 221.432 727.975 221.848C727.559 222.248 727.351 222.92 727.351 223.864ZM738.263 232V220H740.063V232H738.263ZM738.263 217.288V215.2H740.063V217.288H738.263ZM749.729 221.56H745.913V227.296C745.913 228.672 746.009 229.576 746.201 230.008C746.409 230.44 746.889 230.656 747.641 230.656L749.777 230.512L749.897 232C748.825 232.176 748.009 232.264 747.449 232.264C746.201 232.264 745.337 231.96 744.857 231.352C744.377 230.744 744.137 229.584 744.137 227.872V221.56H742.433V220H744.137V216.328H745.913V220H749.729V221.56ZM760.399 223.624V229.768C760.447 230.36 760.911 230.712 761.791 230.824L761.719 232.24C760.455 232.24 759.503 231.92 758.863 231.28C757.423 231.92 755.983 232.24 754.543 232.24C753.439 232.24 752.599 231.928 752.023 231.304C751.447 230.68 751.159 229.784 751.159 228.616C751.159 227.448 751.455 226.592 752.047 226.048C752.639 225.488 753.567 225.144 754.831 225.016L758.599 224.656V223.624C758.599 222.808 758.423 222.224 758.071 221.872C757.719 221.52 757.239 221.344 756.631 221.344C755.351 221.344 754.023 221.424 752.647 221.584L751.903 221.656L751.831 220.288C753.591 219.936 755.151 219.76 756.511 219.76C757.871 219.76 758.855 220.072 759.463 220.696C760.087 221.32 760.399 222.296 760.399 223.624ZM753.007 228.52C753.007 229.992 753.615 230.728 754.831 230.728C755.919 230.728 756.991 230.544 758.047 230.176L758.599 229.984V226.024L755.047 226.36C754.327 226.424 753.807 226.632 753.487 226.984C753.167 227.336 753.007 227.848 753.007 228.52ZM764.095 232V214.768H765.895V232H764.095ZM777.665 230.512L778.361 230.44L778.409 231.856C776.585 232.112 775.025 232.24 773.729 232.24C772.001 232.24 770.777 231.744 770.057 230.752C769.337 229.744 768.977 228.184 768.977 226.072C768.977 221.864 770.649 219.76 773.993 219.76C775.609 219.76 776.817 220.216 777.617 221.128C778.417 222.024 778.817 223.44 778.817 225.376L778.721 226.744H770.801C770.801 228.072 771.041 229.056 771.521 229.696C772.001 230.336 772.833 230.656 774.017 230.656C775.217 230.656 776.433 230.608 777.665 230.512ZM777.017 225.304C777.017 223.832 776.777 222.792 776.297 222.184C775.833 221.576 775.065 221.272 773.993 221.272C772.937 221.272 772.137 221.592 771.593 222.232C771.065 222.872 770.793 223.896 770.777 225.304H777.017ZM791.384 219.76C791.912 219.76 792.808 219.856 794.072 220.048L794.648 220.12L794.576 221.584C793.296 221.44 792.352 221.368 791.744 221.368C790.384 221.368 789.456 221.696 788.96 222.352C788.48 222.992 788.24 224.192 788.24 225.952C788.24 227.696 788.464 228.912 788.912 229.6C789.376 230.288 790.328 230.632 791.768 230.632L794.6 230.416L794.672 231.904C793.184 232.128 792.072 232.24 791.336 232.24C789.464 232.24 788.168 231.76 787.448 230.8C786.744 229.84 786.392 228.224 786.392 225.952C786.392 223.664 786.776 222.064 787.544 221.152C788.312 220.224 789.592 219.76 791.384 219.76ZM796.68 225.976C796.68 223.784 797.072 222.2 797.856 221.224C798.64 220.248 799.96 219.76 801.816 219.76C803.688 219.76 805.008 220.248 805.776 221.224C806.56 222.2 806.952 223.784 806.952 225.976C806.952 228.168 806.584 229.76 805.848 230.752C805.112 231.744 803.768 232.24 801.816 232.24C799.864 232.24 798.52 231.744 797.784 230.752C797.048 229.76 796.68 228.168 796.68 225.976ZM798.528 225.952C798.528 227.696 798.736 228.92 799.152 229.624C799.584 230.328 800.472 230.68 801.816 230.68C803.176 230.68 804.064 230.336 804.48 229.648C804.896 228.944 805.104 227.712 805.104 225.952C805.104 224.192 804.872 222.984 804.408 222.328C803.944 221.656 803.08 221.32 801.816 221.32C800.568 221.32 799.704 221.656 799.224 222.328C798.76 222.984 798.528 224.192 798.528 225.952ZM811.688 232H809.888V220H811.664V220.84C812.96 220.12 814.2 219.76 815.384 219.76C816.984 219.76 818.056 220.192 818.6 221.056C819.16 221.92 819.44 223.456 819.44 225.664V232H817.664V225.712C817.664 224.048 817.496 222.912 817.16 222.304C816.84 221.68 816.144 221.368 815.072 221.368C814.56 221.368 814.016 221.448 813.44 221.608C812.88 221.752 812.448 221.896 812.144 222.04L811.688 222.256V232ZM832.54 219.76C833.068 219.76 833.964 219.856 835.228 220.048L835.804 220.12L835.732 221.584C834.452 221.44 833.508 221.368 832.9 221.368C831.54 221.368 830.612 221.696 830.116 222.352C829.636 222.992 829.396 224.192 829.396 225.952C829.396 227.696 829.62 228.912 830.068 229.6C830.532 230.288 831.484 230.632 832.924 230.632L835.756 230.416L835.828 231.904C834.34 232.128 833.228 232.24 832.492 232.24C830.62 232.24 829.324 231.76 828.604 230.8C827.9 229.84 827.548 228.224 827.548 225.952C827.548 223.664 827.932 222.064 828.7 221.152C829.468 220.224 830.748 219.76 832.54 219.76ZM845.993 220H847.793V232H845.993V231.16C844.793 231.88 843.609 232.24 842.441 232.24C840.809 232.24 839.721 231.816 839.177 230.968C838.649 230.12 838.385 228.552 838.385 226.264V220H840.185V226.24C840.185 227.984 840.337 229.152 840.641 229.744C840.945 230.336 841.633 230.632 842.705 230.632C843.233 230.632 843.769 230.56 844.313 230.416C844.857 230.256 845.273 230.104 845.561 229.96L845.993 229.744V220ZM851.255 232V220H853.055V232H851.255ZM851.255 217.288V215.2H853.055V217.288H851.255ZM861.779 237.328V220H863.555V220.864C864.771 220.128 865.971 219.76 867.155 219.76C868.675 219.76 869.779 220.248 870.467 221.224C871.155 222.184 871.499 223.776 871.499 226C871.499 228.224 871.091 229.824 870.275 230.8C869.475 231.76 868.139 232.24 866.267 232.24C865.291 232.24 864.395 232.152 863.579 231.976V237.328H861.779ZM866.891 221.368C866.411 221.368 865.891 221.448 865.331 221.608C864.787 221.768 864.355 221.928 864.035 222.088L863.579 222.328V230.416C864.715 230.592 865.579 230.68 866.171 230.68C867.467 230.68 868.371 230.312 868.883 229.576C869.411 228.84 869.675 227.64 869.675 225.976C869.675 224.312 869.435 223.128 868.955 222.424C868.491 221.72 867.803 221.368 866.891 221.368ZM874.435 232V220H876.211V221.632C877.603 220.672 879.067 220.04 880.603 219.736V221.56C879.931 221.688 879.227 221.888 878.491 222.16C877.771 222.432 877.219 222.672 876.835 222.88L876.235 223.192V232H874.435ZM881.97 225.976C881.97 223.784 882.362 222.2 883.146 221.224C883.93 220.248 885.25 219.76 887.106 219.76C888.978 219.76 890.298 220.248 891.066 221.224C891.85 222.2 892.242 223.784 892.242 225.976C892.242 228.168 891.874 229.76 891.138 230.752C890.402 231.744 889.058 232.24 887.106 232.24C885.154 232.24 883.81 231.744 883.074 230.752C882.338 229.76 881.97 228.168 881.97 225.976ZM883.818 225.952C883.818 227.696 884.026 228.92 884.442 229.624C884.874 230.328 885.762 230.68 887.106 230.68C888.466 230.68 889.354 230.336 889.77 229.648C890.186 228.944 890.394 227.712 890.394 225.952C890.394 224.192 890.162 222.984 889.698 222.328C889.234 221.656 888.37 221.32 887.106 221.32C885.858 221.32 884.994 221.656 884.514 222.328C884.05 222.984 883.818 224.192 883.818 225.952ZM898.945 221.368C897.201 221.368 896.329 221.976 896.329 223.192C896.329 223.752 896.529 224.152 896.929 224.392C897.329 224.616 898.241 224.856 899.665 225.112C901.089 225.352 902.097 225.696 902.689 226.144C903.281 226.592 903.577 227.432 903.577 228.664C903.577 229.896 903.177 230.8 902.377 231.376C901.593 231.952 900.441 232.24 898.921 232.24C897.929 232.24 896.761 232.128 895.417 231.904L894.697 231.784L894.793 230.224C896.617 230.496 897.993 230.632 898.921 230.632C899.849 230.632 900.553 230.488 901.033 230.2C901.529 229.896 901.777 229.4 901.777 228.712C901.777 228.008 901.569 227.536 901.153 227.296C900.737 227.04 899.825 226.8 898.417 226.576C897.009 226.352 896.009 226.024 895.417 225.592C894.825 225.16 894.529 224.36 894.529 223.192C894.529 222.024 894.937 221.16 895.753 220.6C896.585 220.04 897.617 219.76 898.849 219.76C899.825 219.76 901.049 219.872 902.521 220.096L903.193 220.216L903.145 221.752C901.369 221.496 899.969 221.368 898.945 221.368ZM914.493 230.512L915.189 230.44L915.237 231.856C913.413 232.112 911.853 232.24 910.557 232.24C908.829 232.24 907.605 231.744 906.885 230.752C906.165 229.744 905.805 228.184 905.805 226.072C905.805 221.864 907.477 219.76 910.821 219.76C912.437 219.76 913.645 220.216 914.445 221.128C915.245 222.024 915.645 223.44 915.645 225.376L915.549 226.744H907.629C907.629 228.072 907.869 229.056 908.349 229.696C908.829 230.336 909.661 230.656 910.845 230.656C912.045 230.656 913.261 230.608 914.493 230.512ZM913.845 225.304C913.845 223.832 913.605 222.792 913.125 222.184C912.661 221.576 911.893 221.272 910.821 221.272C909.765 221.272 908.965 221.592 908.421 222.232C907.893 222.872 907.621 223.896 907.605 225.304H913.845ZM923.083 237.64C921.163 237.64 919.819 237.376 919.051 236.848C918.299 236.336 917.923 235.392 917.923 234.016C917.923 233.36 918.067 232.824 918.355 232.408C918.643 232.008 919.131 231.552 919.819 231.04C919.371 230.736 919.147 230.184 919.147 229.384C919.147 229.112 919.347 228.608 919.747 227.872L919.963 227.488C918.699 226.912 918.067 225.704 918.067 223.864C918.067 221.128 919.563 219.76 922.555 219.76C923.323 219.76 924.035 219.84 924.691 220L925.051 220.072L928.603 219.976V221.512L926.323 221.464C926.851 221.992 927.115 222.792 927.115 223.864C927.115 225.368 926.739 226.424 925.987 227.032C925.251 227.624 924.083 227.92 922.483 227.92C922.051 227.92 921.659 227.888 921.307 227.824C921.019 228.528 920.875 228.984 920.875 229.192C920.875 229.688 921.027 230 921.331 230.128C921.635 230.24 922.555 230.296 924.091 230.296C925.627 230.296 926.731 230.536 927.403 231.016C928.075 231.496 928.411 232.432 928.411 233.824C928.411 236.368 926.635 237.64 923.083 237.64ZM919.699 233.872C919.699 234.72 919.931 235.304 920.395 235.624C920.875 235.96 921.747 236.128 923.011 236.128C924.291 236.128 925.203 235.952 925.747 235.6C926.307 235.248 926.587 234.656 926.587 233.824C926.587 233.008 926.387 232.48 925.987 232.24C925.587 232 924.803 231.88 923.635 231.88L921.043 231.76C920.515 232.144 920.155 232.48 919.963 232.768C919.787 233.056 919.699 233.424 919.699 233.872ZM919.867 223.864C919.867 224.808 920.075 225.48 920.491 225.88C920.923 226.28 921.627 226.48 922.603 226.48C923.579 226.48 924.275 226.28 924.691 225.88C925.107 225.48 925.315 224.808 925.315 223.864C925.315 222.904 925.107 222.224 924.691 221.824C924.275 221.424 923.579 221.224 922.603 221.224C921.627 221.224 920.923 221.432 920.491 221.848C920.075 222.248 919.867 222.92 919.867 223.864ZM938.267 220H940.067V232H938.267V231.16C937.067 231.88 935.883 232.24 934.715 232.24C933.083 232.24 931.995 231.816 931.451 230.968C930.923 230.12 930.659 228.552 930.659 226.264V220H932.459V226.24C932.459 227.984 932.611 229.152 932.915 229.744C933.219 230.336 933.907 230.632 934.979 230.632C935.507 230.632 936.043 230.56 936.587 230.416C937.131 230.256 937.547 230.104 937.835 229.96L938.267 229.744V220ZM943.529 232V220H945.329V232H943.529ZM943.529 217.288V215.2H945.329V217.288H943.529ZM948.779 232V220H950.555V221.632C951.947 220.672 953.411 220.04 954.947 219.736V221.56C954.275 221.688 953.571 221.888 952.835 222.16C952.115 222.432 951.563 222.672 951.179 222.88L950.579 223.192V232H948.779ZM965.001 230.512L965.697 230.44L965.745 231.856C963.921 232.112 962.361 232.24 961.065 232.24C959.337 232.24 958.113 231.744 957.393 230.752C956.673 229.744 956.313 228.184 956.313 226.072C956.313 221.864 957.985 219.76 961.329 219.76C962.945 219.76 964.153 220.216 964.953 221.128C965.753 222.024 966.153 223.44 966.153 225.376L966.057 226.744H958.137C958.137 228.072 958.377 229.056 958.857 229.696C959.337 230.336 960.169 230.656 961.353 230.656C962.553 230.656 963.769 230.608 965.001 230.512ZM964.353 225.304C964.353 223.832 964.113 222.792 963.633 222.184C963.169 221.576 962.401 221.272 961.329 221.272C960.273 221.272 959.473 221.592 958.929 222.232C958.401 222.872 958.129 223.896 958.113 225.304H964.353Z" fill="#17324D"/>
<rect width="1440" height="545" transform="translate(0 264)" fill="white"/>
<g filter="url(#filter0_d_4167_42757)">
<g clip-path="url(#clip1_4167_42757)">
<rect width="440" height="104" transform="translate(500 288)" fill="white"/>
<path d="M575.334 326V354L552 368L528.667 354V326L552 312L575.334 326ZM531.01 327.405V352.595L552 365.188L572.991 352.595V327.405L552 314.812L531.01 327.405Z" fill="#0066CC"/>
<path d="M597.896 349V332.56H602.552L607.544 346.648H607.904V332.56H610.568V349H606.008L600.896 334.888H600.56V349H597.896ZM614.545 338.296C615.377 337.256 616.753 336.736 618.673 336.736C620.593 336.736 621.961 337.256 622.777 338.296C623.609 339.336 624.025 340.896 624.025 342.976C624.025 345.056 623.625 346.624 622.825 347.68C622.025 348.736 620.641 349.264 618.673 349.264C616.705 349.264 615.321 348.736 614.521 347.68C613.721 346.624 613.321 345.056 613.321 342.976C613.321 340.896 613.729 339.336 614.545 338.296ZM616.513 346.096C616.881 346.736 617.601 347.056 618.673 347.056C619.745 347.056 620.465 346.736 620.833 346.096C621.201 345.456 621.385 344.408 621.385 342.952C621.385 341.496 621.185 340.464 620.785 339.856C620.401 339.248 619.697 338.944 618.673 338.944C617.649 338.944 616.937 339.248 616.537 339.856C616.153 340.464 615.961 341.496 615.961 342.952C615.961 344.408 616.145 345.456 616.513 346.096ZM629.239 349H626.623V337H629.215V337.744C630.351 337.072 631.391 336.736 632.335 336.736C633.727 336.736 634.743 337.128 635.383 337.912C636.839 337.128 638.287 336.736 639.727 336.736C641.167 336.736 642.183 337.184 642.775 338.08C643.367 338.96 643.663 340.456 643.663 342.568V349H641.071V342.64C641.071 341.344 640.935 340.424 640.663 339.88C640.407 339.336 639.863 339.064 639.031 339.064C638.311 339.064 637.535 339.224 636.703 339.544L636.295 339.712C636.423 340.032 636.487 341.056 636.487 342.784V349H633.895V342.832C633.895 341.408 633.767 340.424 633.511 339.88C633.255 339.336 632.695 339.064 631.831 339.064C631.031 339.064 630.287 339.224 629.599 339.544L629.239 339.688V349ZM655.276 346.84L655.948 346.768L655.996 348.712C654.172 349.08 652.556 349.264 651.148 349.264C649.372 349.264 648.092 348.776 647.308 347.8C646.54 346.824 646.156 345.264 646.156 343.12C646.156 338.864 647.892 336.736 651.364 336.736C654.724 336.736 656.404 338.568 656.404 342.232L656.236 344.104H648.796C648.812 345.096 649.028 345.824 649.444 346.288C649.86 346.752 650.636 346.984 651.772 346.984C652.908 346.984 654.076 346.936 655.276 346.84ZM653.836 342.088C653.836 340.904 653.644 340.08 653.26 339.616C652.892 339.136 652.26 338.896 651.364 338.896C650.468 338.896 649.812 339.144 649.396 339.64C648.996 340.136 648.788 340.952 648.772 342.088H653.836ZM673.073 340.696V346.168C673.089 346.52 673.177 346.784 673.337 346.96C673.513 347.12 673.777 347.224 674.129 347.272L674.057 349.264C672.681 349.264 671.617 348.968 670.865 348.376C669.585 348.968 668.297 349.264 667.001 349.264C664.617 349.264 663.425 347.992 663.425 345.448C663.425 344.232 663.745 343.352 664.385 342.808C665.041 342.264 666.041 341.936 667.385 341.824L670.481 341.56V340.696C670.481 340.056 670.337 339.608 670.049 339.352C669.777 339.096 669.369 338.968 668.825 338.968C667.801 338.968 666.521 339.032 664.985 339.16L664.217 339.208L664.121 337.36C665.865 336.944 667.465 336.736 668.921 336.736C670.393 336.736 671.449 337.056 672.089 337.696C672.745 338.32 673.073 339.32 673.073 340.696ZM667.697 343.672C666.593 343.768 666.041 344.368 666.041 345.472C666.041 346.576 666.529 347.128 667.505 347.128C668.305 347.128 669.153 347 670.049 346.744L670.481 346.6V343.408L667.697 343.672ZM676.357 354.16V337H678.949V337.744C680.053 337.072 681.085 336.736 682.045 336.736C683.629 336.736 684.789 337.224 685.525 338.2C686.261 339.16 686.629 340.784 686.629 343.072C686.629 345.344 686.205 346.944 685.357 347.872C684.525 348.8 683.157 349.264 681.253 349.264C680.597 349.264 679.837 349.192 678.973 349.048V354.16H676.357ZM681.589 339.064C680.837 339.064 680.085 339.232 679.333 339.568L678.973 339.736V346.816C679.613 346.944 680.317 347.008 681.085 347.008C682.173 347.008 682.925 346.696 683.341 346.072C683.757 345.448 683.965 344.384 683.965 342.88C683.965 340.336 683.173 339.064 681.589 339.064ZM689.248 354.16V337H691.84V337.744C692.944 337.072 693.976 336.736 694.936 336.736C696.52 336.736 697.68 337.224 698.416 338.2C699.152 339.16 699.52 340.784 699.52 343.072C699.52 345.344 699.096 346.944 698.248 347.872C697.416 348.8 696.048 349.264 694.144 349.264C693.488 349.264 692.728 349.192 691.864 349.048V354.16H689.248ZM694.48 339.064C693.728 339.064 692.976 339.232 692.224 339.568L691.864 339.736V346.816C692.504 346.944 693.208 347.008 693.976 347.008C695.064 347.008 695.816 346.696 696.232 346.072C696.648 345.448 696.856 344.384 696.856 342.88C696.856 340.336 696.064 339.064 694.48 339.064ZM707.724 349V332.56H710.388V349H707.724ZM712.585 334.936V332.56H724.585V334.936H719.953V349H717.265V334.936H712.585ZM724.941 343.72V341.344H732.117V343.72H724.941ZM733.756 332.56H736.564L738.916 346.696H739.42L742.54 332.608H745.66L748.78 346.696H749.308L751.66 332.56H754.468L751.228 349H746.932L744.1 335.824L741.292 349H736.972L733.756 332.56ZM765.159 340.696V346.168C765.175 346.52 765.263 346.784 765.423 346.96C765.599 347.12 765.863 347.224 766.215 347.272L766.143 349.264C764.767 349.264 763.703 348.968 762.951 348.376C761.671 348.968 760.383 349.264 759.087 349.264C756.703 349.264 755.511 347.992 755.511 345.448C755.511 344.232 755.831 343.352 756.471 342.808C757.127 342.264 758.127 341.936 759.471 341.824L762.567 341.56V340.696C762.567 340.056 762.423 339.608 762.135 339.352C761.863 339.096 761.455 338.968 760.911 338.968C759.887 338.968 758.607 339.032 757.071 339.16L756.303 339.208L756.207 337.36C757.951 336.944 759.551 336.736 761.007 336.736C762.479 336.736 763.535 337.056 764.175 337.696C764.831 338.32 765.159 339.32 765.159 340.696ZM759.783 343.672C758.679 343.768 758.127 344.368 758.127 345.472C758.127 346.576 758.615 347.128 759.591 347.128C760.391 347.128 761.239 347 762.135 346.744L762.567 346.6V343.408L759.783 343.672ZM768.587 349V332.008H771.203V349H768.587ZM774.658 349V332.008H777.274V349H774.658ZM789.128 346.84L789.8 346.768L789.848 348.712C788.024 349.08 786.408 349.264 785 349.264C783.224 349.264 781.944 348.776 781.16 347.8C780.392 346.824 780.008 345.264 780.008 343.12C780.008 338.864 781.744 336.736 785.216 336.736C788.576 336.736 790.256 338.568 790.256 342.232L790.088 344.104H782.648C782.664 345.096 782.88 345.824 783.296 346.288C783.712 346.752 784.488 346.984 785.624 346.984C786.76 346.984 787.928 346.936 789.128 346.84ZM787.688 342.088C787.688 340.904 787.496 340.08 787.112 339.616C786.744 339.136 786.112 338.896 785.216 338.896C784.32 338.896 783.664 339.144 783.248 339.64C782.848 340.136 782.64 340.952 782.624 342.088H787.688ZM799.228 339.232H795.916V344.512C795.916 345.488 795.988 346.136 796.132 346.456C796.276 346.776 796.644 346.936 797.236 346.936L799.204 346.864L799.324 348.952C798.252 349.16 797.436 349.264 796.876 349.264C795.516 349.264 794.58 348.952 794.068 348.328C793.572 347.704 793.324 346.528 793.324 344.8V339.232H791.788V337H793.324V333.52H795.916V337H799.228V339.232Z" fill="#0066CC"/>
<path d="M596 351.64H675.639V352.36H596V351.64ZM679.697 351.64H688.53V352.36H679.697V351.64ZM692.587 351.64H799.779V352.36H692.587V351.64Z" fill="#0066CC"/>
</g>
<rect x="500.5" y="288.5" width="439" height="103" rx="3.5" stroke="#C5C7C9"/>
</g>
<rect width="1440" height="64" transform="translate(0 810)" fill="#089994"/>
<mask id="path-25-inside-1_4167_42757" fill="white">
<path d="M0 810H1440V874H0V810Z"/>
</mask>
<path d="M0 810H1440V874H0V810Z" fill="#003366"/>
<path d="M0 810V811H1440V810V809H0V810Z" fill="white" fill-opacity="0.5" mask="url(#path-25-inside-1_4167_42757)"/>
<path d="M25.106 847V837.41H27.822L30.734 845.628H30.944V837.41H32.498V847H29.838L26.856 838.768H26.66V847H25.106ZM34.8176 840.756C35.303 840.149 36.1056 839.846 37.2256 839.846C38.3456 839.846 39.1436 840.149 39.6196 840.756C40.105 841.363 40.3476 842.273 40.3476 843.486C40.3476 844.699 40.1143 845.614 39.6476 846.23C39.181 846.846 38.3736 847.154 37.2256 847.154C36.0776 847.154 35.2703 846.846 34.8036 846.23C34.337 845.614 34.1036 844.699 34.1036 843.486C34.1036 842.273 34.3416 841.363 34.8176 840.756ZM35.9656 845.306C36.1803 845.679 36.6003 845.866 37.2256 845.866C37.851 845.866 38.271 845.679 38.4856 845.306C38.7003 844.933 38.8076 844.321 38.8076 843.472C38.8076 842.623 38.691 842.021 38.4576 841.666C38.2336 841.311 37.823 841.134 37.2256 841.134C36.6283 841.134 36.213 841.311 35.9796 841.666C35.7556 842.021 35.6436 842.623 35.6436 843.472C35.6436 844.321 35.751 844.933 35.9656 845.306ZM45.6295 841.302H43.6975V844.382C43.6975 844.951 43.7395 845.329 43.8235 845.516C43.9075 845.703 44.1221 845.796 44.4675 845.796L45.6155 845.754L45.6855 846.972C45.0601 847.093 44.5841 847.154 44.2575 847.154C43.4641 847.154 42.9181 846.972 42.6195 846.608C42.3301 846.244 42.1855 845.558 42.1855 844.55V841.302H41.2895V840H42.1855V837.97H43.6975V840H45.6295V841.302ZM51.865 845.74L52.257 845.698L52.285 846.832C51.221 847.047 50.2784 847.154 49.457 847.154C48.421 847.154 47.6744 846.869 47.217 846.3C46.769 845.731 46.545 844.821 46.545 843.57C46.545 841.087 47.5577 839.846 49.583 839.846C51.543 839.846 52.523 840.915 52.523 843.052L52.425 844.144H48.085C48.0944 844.723 48.2204 845.147 48.463 845.418C48.7057 845.689 49.1584 845.824 49.821 845.824C50.4837 845.824 51.165 845.796 51.865 845.74ZM51.025 842.968C51.025 842.277 50.913 841.797 50.689 841.526C50.4744 841.246 50.1057 841.106 49.583 841.106C49.0604 841.106 48.6777 841.251 48.435 841.54C48.2017 841.829 48.0804 842.305 48.071 842.968H51.025ZM62.6246 847H57.2486V837.41H58.8026V845.614H62.6246V847ZM68.6951 845.74L69.0871 845.698L69.1151 846.832C68.0511 847.047 67.1084 847.154 66.2871 847.154C65.2511 847.154 64.5044 846.869 64.0471 846.3C63.5991 845.731 63.3751 844.821 63.3751 843.57C63.3751 841.087 64.3878 839.846 66.4131 839.846C68.3731 839.846 69.3531 840.915 69.3531 843.052L69.2551 844.144H64.9151C64.9244 844.723 65.0504 845.147 65.2931 845.418C65.5358 845.689 65.9884 845.824 66.6511 845.824C67.3138 845.824 67.9951 845.796 68.6951 845.74ZM67.8551 842.968C67.8551 842.277 67.7431 841.797 67.5191 841.526C67.3044 841.246 66.9358 841.106 66.4131 841.106C65.8904 841.106 65.5078 841.251 65.2651 841.54C65.0318 841.829 64.9104 842.305 64.9011 842.968H67.8551ZM76.9385 847.952C76.9385 849.483 75.8325 850.248 73.6205 850.248C72.5565 850.248 71.7678 850.103 71.2545 849.814C70.7412 849.525 70.4845 848.997 70.4845 848.232C70.4845 847.887 70.5685 847.588 70.7365 847.336C70.9045 847.093 71.1752 846.827 71.5485 846.538C71.2405 846.333 71.0865 845.992 71.0865 845.516C71.0865 845.329 71.2125 845.026 71.4645 844.606L71.5905 844.396C70.9185 843.995 70.5825 843.295 70.5825 842.296C70.5825 841.456 70.8345 840.84 71.3385 840.448C71.8425 840.056 72.5238 839.86 73.3825 839.86C73.7932 839.86 74.1992 839.907 74.6005 840L74.8105 840.042L76.9805 839.986V841.218L75.8185 841.148C76.0705 841.475 76.1965 841.857 76.1965 842.296C76.1965 843.211 75.9632 843.845 75.4965 844.2C75.0392 844.545 74.3205 844.718 73.3405 844.718C73.0978 844.718 72.8925 844.699 72.7245 844.662C72.5938 844.979 72.5285 845.227 72.5285 845.404C72.5285 845.572 72.6125 845.689 72.7805 845.754C72.9578 845.819 73.3778 845.857 74.0405 845.866C75.1512 845.875 75.9118 846.025 76.3225 846.314C76.7332 846.603 76.9385 847.149 76.9385 847.952ZM71.9825 848.092C71.9825 848.419 72.1132 848.652 72.3745 848.792C72.6358 848.932 73.0838 849.002 73.7185 849.002C74.8478 849.002 75.4125 848.68 75.4125 848.036C75.4125 847.672 75.3098 847.439 75.1045 847.336C74.9085 847.243 74.5118 847.191 73.9145 847.182L72.5425 847.098C72.3372 847.266 72.1925 847.42 72.1085 847.56C72.0245 847.709 71.9825 847.887 71.9825 848.092ZM72.0945 842.296C72.0945 842.725 72.1972 843.043 72.4025 843.248C72.6078 843.444 72.9392 843.542 73.3965 843.542C73.8538 843.542 74.1805 843.444 74.3765 843.248C74.5818 843.043 74.6845 842.725 74.6845 842.296C74.6845 841.867 74.5818 841.554 74.3765 841.358C74.1712 841.153 73.8398 841.05 73.3825 841.05C72.5238 841.05 72.0945 841.465 72.0945 842.296ZM83.356 842.156V845.348C83.3653 845.553 83.4166 845.707 83.51 845.81C83.6126 845.903 83.7666 845.964 83.972 845.992L83.93 847.154C83.1273 847.154 82.5066 846.981 82.068 846.636C81.3213 846.981 80.57 847.154 79.814 847.154C78.4233 847.154 77.728 846.412 77.728 844.928C77.728 844.219 77.9146 843.705 78.288 843.388C78.6706 843.071 79.254 842.879 80.038 842.814L81.844 842.66V842.156C81.844 841.783 81.76 841.521 81.592 841.372C81.4333 841.223 81.1953 841.148 80.878 841.148C80.2806 841.148 79.534 841.185 78.638 841.26L78.19 841.288L78.134 840.21C79.1513 839.967 80.0846 839.846 80.934 839.846C81.7926 839.846 82.4086 840.033 82.782 840.406C83.1646 840.77 83.356 841.353 83.356 842.156ZM80.22 843.892C79.576 843.948 79.254 844.298 79.254 844.942C79.254 845.586 79.5386 845.908 80.108 845.908C80.5746 845.908 81.0693 845.833 81.592 845.684L81.844 845.6V843.738L80.22 843.892ZM85.3557 847V837.088H86.8817V847H85.3557ZM88.8127 847V840H90.3387V847H88.8127ZM88.8127 838.81V837.2H90.3387V838.81H88.8127Z" fill="white"/>
<path d="M24 848.54H91.2627V848.96H24V848.54Z" fill="white"/>
<path d="M120.62 844.018H118.66V847H117.106V837.41H120.62C122.795 837.41 123.882 838.483 123.882 840.63C123.882 841.731 123.607 842.571 123.056 843.15C122.515 843.729 121.703 844.018 120.62 844.018ZM118.66 842.674H120.606C121.726 842.674 122.286 841.993 122.286 840.63C122.286 839.977 122.151 839.501 121.88 839.202C121.609 838.903 121.185 838.754 120.606 838.754H118.66V842.674ZM125.195 847V840H126.707V840.84C127.501 840.327 128.294 839.995 129.087 839.846V841.372C128.285 841.531 127.599 841.736 127.029 841.988L126.721 842.114V847H125.195ZM130.254 847V840H131.78V847H130.254ZM130.254 838.81V837.2H131.78V838.81H130.254ZM132.973 840H134.569L135.913 845.698H136.361L137.761 840H139.315L137.495 847H134.779L132.973 840ZM145.592 842.156V845.348C145.602 845.553 145.653 845.707 145.746 845.81C145.849 845.903 146.003 845.964 146.208 845.992L146.166 847.154C145.364 847.154 144.743 846.981 144.304 846.636C143.558 846.981 142.806 847.154 142.05 847.154C140.66 847.154 139.964 846.412 139.964 844.928C139.964 844.219 140.151 843.705 140.524 843.388C140.907 843.071 141.49 842.879 142.274 842.814L144.08 842.66V842.156C144.08 841.783 143.996 841.521 143.828 841.372C143.67 841.223 143.432 841.148 143.114 841.148C142.517 841.148 141.77 841.185 140.874 841.26L140.426 841.288L140.37 840.21C141.388 839.967 142.321 839.846 143.17 839.846C144.029 839.846 144.645 840.033 145.018 840.406C145.401 840.77 145.592 841.353 145.592 842.156ZM142.456 843.892C141.812 843.948 141.49 844.298 141.49 844.942C141.49 845.586 141.775 845.908 142.344 845.908C142.811 845.908 143.306 845.833 143.828 845.684L144.08 845.6V843.738L142.456 843.892ZM150.126 839.846C150.621 839.846 151.204 839.911 151.876 840.042L152.226 840.112L152.17 841.316C151.433 841.241 150.887 841.204 150.532 841.204C149.823 841.204 149.347 841.363 149.104 841.68C148.861 841.997 148.74 842.595 148.74 843.472C148.74 844.349 148.857 844.956 149.09 845.292C149.323 845.628 149.809 845.796 150.546 845.796L152.184 845.684L152.226 846.902C151.283 847.07 150.574 847.154 150.098 847.154C149.034 847.154 148.283 846.869 147.844 846.3C147.415 845.721 147.2 844.779 147.2 843.472C147.2 842.165 147.429 841.237 147.886 840.686C148.343 840.126 149.09 839.846 150.126 839.846ZM153.057 840H154.555L156.039 845.698H156.417L157.901 840H159.413L156.753 850.01H155.255L156.095 847H154.891L153.057 840ZM167.364 844.018H165.404V847H163.85V837.41H167.364C169.539 837.41 170.626 838.483 170.626 840.63C170.626 841.731 170.351 842.571 169.8 843.15C169.259 843.729 168.447 844.018 167.364 844.018ZM165.404 842.674H167.35C168.47 842.674 169.03 841.993 169.03 840.63C169.03 839.977 168.895 839.501 168.624 839.202C168.353 838.903 167.929 838.754 167.35 838.754H165.404V842.674ZM172.318 840.756C172.803 840.149 173.606 839.846 174.726 839.846C175.846 839.846 176.644 840.149 177.12 840.756C177.605 841.363 177.848 842.273 177.848 843.486C177.848 844.699 177.614 845.614 177.148 846.23C176.681 846.846 175.874 847.154 174.726 847.154C173.578 847.154 172.77 846.846 172.304 846.23C171.837 845.614 171.604 844.699 171.604 843.486C171.604 842.273 171.842 841.363 172.318 840.756ZM173.466 845.306C173.68 845.679 174.1 845.866 174.726 845.866C175.351 845.866 175.771 845.679 175.986 845.306C176.2 844.933 176.308 844.321 176.308 843.472C176.308 842.623 176.191 842.021 175.958 841.666C175.734 841.311 175.323 841.134 174.726 841.134C174.128 841.134 173.713 841.311 173.48 841.666C173.256 842.021 173.144 842.623 173.144 843.472C173.144 844.321 173.251 844.933 173.466 845.306ZM179.447 847V837.088H180.973V847H179.447ZM182.904 847V840H184.43V847H182.904ZM182.904 838.81V837.2H184.43V838.81H182.904ZM188.899 839.846C189.394 839.846 189.977 839.911 190.649 840.042L190.999 840.112L190.943 841.316C190.206 841.241 189.66 841.204 189.305 841.204C188.596 841.204 188.12 841.363 187.877 841.68C187.635 841.997 187.513 842.595 187.513 843.472C187.513 844.349 187.63 844.956 187.863 845.292C188.097 845.628 188.582 845.796 189.319 845.796L190.957 845.684L190.999 846.902C190.057 847.07 189.347 847.154 188.871 847.154C187.807 847.154 187.056 846.869 186.617 846.3C186.188 845.721 185.973 844.779 185.973 843.472C185.973 842.165 186.202 841.237 186.659 840.686C187.117 840.126 187.863 839.846 188.899 839.846ZM191.831 840H193.329L194.813 845.698H195.191L196.675 840H198.187L195.527 850.01H194.029L194.869 847H193.665L191.831 840Z" fill="white"/>
<path d="M116 848.54H198.439V848.96H116V848.54Z" fill="white"/>
<path d="M227.424 847H224.106V837.41H227.424C228.899 837.41 229.907 837.783 230.448 838.53C230.989 839.277 231.26 840.448 231.26 842.044C231.26 842.856 231.204 843.547 231.092 844.116C230.989 844.676 230.803 845.185 230.532 845.642C230 846.547 228.964 847 227.424 847ZM229.65 842.044C229.65 840.887 229.505 840.051 229.216 839.538C228.927 839.025 228.329 838.768 227.424 838.768H225.66V845.628H227.424C228.348 845.628 228.964 845.287 229.272 844.606C229.421 844.261 229.519 843.892 229.566 843.5C229.622 843.108 229.65 842.623 229.65 842.044ZM232.893 847V840H234.419V847H232.893ZM232.893 838.81V837.2H234.419V838.81H232.893ZM238.888 839.846C239.382 839.846 239.966 839.911 240.638 840.042L240.988 840.112L240.932 841.316C240.194 841.241 239.648 841.204 239.294 841.204C238.584 841.204 238.108 841.363 237.866 841.68C237.623 841.997 237.502 842.595 237.502 843.472C237.502 844.349 237.618 844.956 237.852 845.292C238.085 845.628 238.57 845.796 239.308 845.796L240.946 845.684L240.988 846.902C240.045 847.07 239.336 847.154 238.86 847.154C237.796 847.154 237.044 846.869 236.606 846.3C236.176 845.721 235.962 844.779 235.962 843.472C235.962 842.165 236.19 841.237 236.648 840.686C237.105 840.126 237.852 839.846 238.888 839.846ZM243.989 847H242.463V837.088H243.989V840.364C244.68 840.019 245.319 839.846 245.907 839.846C246.84 839.846 247.475 840.112 247.811 840.644C248.156 841.167 248.329 842.035 248.329 843.248V847H246.803V843.29C246.803 842.534 246.724 841.997 246.565 841.68C246.406 841.363 246.07 841.204 245.557 841.204C245.109 841.204 244.661 841.279 244.213 841.428L243.989 841.512V847ZM250.106 847V840H251.632V847H250.106ZM250.106 838.81V837.2H251.632V838.81H250.106ZM258.663 842.156V845.348C258.672 845.553 258.723 845.707 258.817 845.81C258.919 845.903 259.073 845.964 259.279 845.992L259.237 847.154C258.434 847.154 257.813 846.981 257.375 846.636C256.628 846.981 255.877 847.154 255.121 847.154C253.73 847.154 253.035 846.412 253.035 844.928C253.035 844.219 253.221 843.705 253.595 843.388C253.977 843.071 254.561 842.879 255.345 842.814L257.151 842.66V842.156C257.151 841.783 257.067 841.521 256.899 841.372C256.74 841.223 256.502 841.148 256.185 841.148C255.587 841.148 254.841 841.185 253.945 841.26L253.497 841.288L253.441 840.21C254.458 839.967 255.391 839.846 256.241 839.846C257.099 839.846 257.715 840.033 258.089 840.406C258.471 840.77 258.663 841.353 258.663 842.156ZM255.527 843.892C254.883 843.948 254.561 844.298 254.561 844.942C254.561 845.586 254.845 845.908 255.415 845.908C255.881 845.908 256.376 845.833 256.899 845.684L257.151 845.6V843.738L255.527 843.892ZM260.578 847V840H262.09V840.84C262.884 840.327 263.677 839.995 264.47 839.846V841.372C263.668 841.531 262.982 841.736 262.412 841.988L262.104 842.114V847H260.578ZM270.817 842.156V845.348C270.826 845.553 270.878 845.707 270.971 845.81C271.074 845.903 271.228 845.964 271.433 845.992L271.391 847.154C270.588 847.154 269.968 846.981 269.529 846.636C268.782 846.981 268.031 847.154 267.275 847.154C265.884 847.154 265.189 846.412 265.189 844.928C265.189 844.219 265.376 843.705 265.749 843.388C266.132 843.071 266.715 842.879 267.499 842.814L269.305 842.66V842.156C269.305 841.783 269.221 841.521 269.053 841.372C268.894 841.223 268.656 841.148 268.339 841.148C267.742 841.148 266.995 841.185 266.099 841.26L265.651 841.288L265.595 840.21C266.612 839.967 267.546 839.846 268.395 839.846C269.254 839.846 269.87 840.033 270.243 840.406C270.626 840.77 270.817 841.353 270.817 842.156ZM267.681 843.892C267.037 843.948 266.715 844.298 266.715 844.942C266.715 845.586 267 845.908 267.569 845.908C268.036 845.908 268.53 845.833 269.053 845.684L269.305 845.6V843.738L267.681 843.892ZM272.383 841.358V840H277.577V841.358L274.217 845.642H277.577V847H272.383V845.642L275.757 841.358H272.383ZM279.09 847V840H280.616V847H279.09ZM279.09 838.81V837.2H280.616V838.81H279.09ZM282.845 840.756C283.33 840.149 284.133 839.846 285.253 839.846C286.373 839.846 287.171 840.149 287.647 840.756C288.132 841.363 288.375 842.273 288.375 843.486C288.375 844.699 288.142 845.614 287.675 846.23C287.208 846.846 286.401 847.154 285.253 847.154C284.105 847.154 283.298 846.846 282.831 846.23C282.364 845.614 282.131 844.699 282.131 843.486C282.131 842.273 282.369 841.363 282.845 840.756ZM283.993 845.306C284.208 845.679 284.628 845.866 285.253 845.866C285.878 845.866 286.298 845.679 286.513 845.306C286.728 844.933 286.835 844.321 286.835 843.472C286.835 842.623 286.718 842.021 286.485 841.666C286.261 841.311 285.85 841.134 285.253 841.134C284.656 841.134 284.24 841.311 284.007 841.666C283.783 842.021 283.671 842.623 283.671 843.472C283.671 844.321 283.778 844.933 283.993 845.306ZM291.417 847H289.891V840H291.403V840.434C292.084 840.042 292.728 839.846 293.335 839.846C294.268 839.846 294.903 840.112 295.239 840.644C295.584 841.167 295.757 842.035 295.757 843.248V847H294.245V843.29C294.245 842.534 294.161 841.997 293.993 841.68C293.834 841.363 293.503 841.204 292.999 841.204C292.523 841.204 292.065 841.297 291.627 841.484L291.417 841.568V847ZM302.517 845.74L302.909 845.698L302.937 846.832C301.873 847.047 300.931 847.154 300.109 847.154C299.073 847.154 298.327 846.869 297.869 846.3C297.421 845.731 297.197 844.821 297.197 843.57C297.197 841.087 298.21 839.846 300.235 839.846C302.195 839.846 303.175 840.915 303.175 843.052L303.077 844.144H298.737C298.747 844.723 298.873 845.147 299.115 845.418C299.358 845.689 299.811 845.824 300.473 845.824C301.136 845.824 301.817 845.796 302.517 845.74ZM301.677 842.968C301.677 842.277 301.565 841.797 301.341 841.526C301.127 841.246 300.758 841.106 300.235 841.106C299.713 841.106 299.33 841.251 299.087 841.54C298.854 841.829 298.733 842.305 298.723 842.968H301.677ZM307.075 847L309.441 837.41H312.535L314.915 847H313.347L312.829 844.942H309.147L308.629 847H307.075ZM310.645 838.712L309.455 843.57H312.521L311.345 838.712H310.645ZM318.649 839.846C319.144 839.846 319.727 839.911 320.399 840.042L320.749 840.112L320.693 841.316C319.956 841.241 319.41 841.204 319.055 841.204C318.346 841.204 317.87 841.363 317.627 841.68C317.385 841.997 317.263 842.595 317.263 843.472C317.263 844.349 317.38 844.956 317.613 845.292C317.847 845.628 318.332 845.796 319.069 845.796L320.707 845.684L320.749 846.902C319.807 847.07 319.097 847.154 318.621 847.154C317.557 847.154 316.806 846.869 316.367 846.3C315.938 845.721 315.723 844.779 315.723 843.472C315.723 842.165 315.952 841.237 316.409 840.686C316.867 840.126 317.613 839.846 318.649 839.846ZM324.774 839.846C325.269 839.846 325.852 839.911 326.524 840.042L326.874 840.112L326.818 841.316C326.081 841.241 325.535 841.204 325.18 841.204C324.471 841.204 323.995 841.363 323.752 841.68C323.51 841.997 323.388 842.595 323.388 843.472C323.388 844.349 323.505 844.956 323.738 845.292C323.972 845.628 324.457 845.796 325.194 845.796L326.832 845.684L326.874 846.902C325.932 847.07 325.222 847.154 324.746 847.154C323.682 847.154 322.931 846.869 322.492 846.3C322.063 845.721 321.848 844.779 321.848 843.472C321.848 842.165 322.077 841.237 322.534 840.686C322.992 840.126 323.738 839.846 324.774 839.846ZM333.265 845.74L333.657 845.698L333.685 846.832C332.621 847.047 331.679 847.154 330.857 847.154C329.821 847.154 329.075 846.869 328.617 846.3C328.169 845.731 327.945 844.821 327.945 843.57C327.945 841.087 328.958 839.846 330.983 839.846C332.943 839.846 333.923 840.915 333.923 843.052L333.825 844.144H329.485C329.495 844.723 329.621 845.147 329.863 845.418C330.106 845.689 330.559 845.824 331.221 845.824C331.884 845.824 332.565 845.796 333.265 845.74ZM332.425 842.968C332.425 842.277 332.313 841.797 332.089 841.526C331.875 841.246 331.506 841.106 330.983 841.106C330.461 841.106 330.078 841.251 329.835 841.54C329.602 841.829 329.481 842.305 329.471 842.968H332.425ZM340.249 841.442C339.147 841.293 338.349 841.218 337.855 841.218C337.36 841.218 337.015 841.279 336.819 841.4C336.632 841.512 336.539 841.694 336.539 841.946C336.539 842.198 336.641 842.375 336.847 842.478C337.061 842.581 337.556 842.702 338.331 842.842C339.115 842.973 339.67 843.183 339.997 843.472C340.323 843.761 340.487 844.275 340.487 845.012C340.487 845.749 340.249 846.291 339.773 846.636C339.306 846.981 338.62 847.154 337.715 847.154C337.145 847.154 336.427 847.075 335.559 846.916L335.125 846.846L335.181 845.572C336.301 845.721 337.108 845.796 337.603 845.796C338.097 845.796 338.447 845.735 338.653 845.614C338.867 845.493 338.975 845.292 338.975 845.012C338.975 844.732 338.872 844.541 338.667 844.438C338.471 844.326 337.99 844.209 337.225 844.088C336.469 843.957 335.913 843.757 335.559 843.486C335.204 843.215 335.027 842.721 335.027 842.002C335.027 841.283 335.269 840.747 335.755 840.392C336.249 840.037 336.879 839.86 337.645 839.86C338.242 839.86 338.975 839.935 339.843 840.084L340.277 840.168L340.249 841.442ZM346.811 841.442C345.71 841.293 344.912 841.218 344.417 841.218C343.923 841.218 343.577 841.279 343.381 841.4C343.195 841.512 343.101 841.694 343.101 841.946C343.101 842.198 343.204 842.375 343.409 842.478C343.624 842.581 344.119 842.702 344.893 842.842C345.677 842.973 346.233 843.183 346.559 843.472C346.886 843.761 347.049 844.275 347.049 845.012C347.049 845.749 346.811 846.291 346.335 846.636C345.869 846.981 345.183 847.154 344.277 847.154C343.708 847.154 342.989 847.075 342.121 846.916L341.687 846.846L341.743 845.572C342.863 845.721 343.671 845.796 344.165 845.796C344.66 845.796 345.01 845.735 345.215 845.614C345.43 845.493 345.537 845.292 345.537 845.012C345.537 844.732 345.435 844.541 345.229 844.438C345.033 844.326 344.553 844.209 343.787 844.088C343.031 843.957 342.476 843.757 342.121 843.486C341.767 843.215 341.589 842.721 341.589 842.002C341.589 841.283 341.832 840.747 342.317 840.392C342.812 840.037 343.442 839.86 344.207 839.86C344.805 839.86 345.537 839.935 346.405 840.084L346.839 840.168L346.811 841.442ZM348.516 847V840H350.042V847H348.516ZM348.516 838.81V837.2H350.042V838.81H348.516ZM355.155 839.846C356.116 839.846 356.807 840.117 357.227 840.658C357.656 841.19 357.871 842.137 357.871 843.5C357.871 844.863 357.619 845.815 357.115 846.356C356.611 846.888 355.724 847.154 354.455 847.154C354.016 847.154 353.321 847.112 352.369 847.028L351.893 846.986V837.088H353.405V840.266C354.049 839.986 354.632 839.846 355.155 839.846ZM354.455 845.796C355.201 845.796 355.696 845.623 355.939 845.278C356.191 844.923 356.317 844.326 356.317 843.486C356.317 842.646 356.209 842.058 355.995 841.722C355.789 841.377 355.449 841.204 354.973 841.204C354.525 841.204 354.077 841.274 353.629 841.414L353.405 841.484V845.74C353.918 845.777 354.268 845.796 354.455 845.796ZM359.399 847V840H360.925V847H359.399ZM359.399 838.81V837.2H360.925V838.81H359.399ZM362.86 847V837.088H364.386V847H362.86ZM366.317 847V840H367.843V847H366.317ZM366.317 838.81V837.2H367.843V838.81H366.317ZM373.46 841.302H371.528V844.382C371.528 844.951 371.57 845.329 371.654 845.516C371.738 845.703 371.952 845.796 372.298 845.796L373.446 845.754L373.516 846.972C372.89 847.093 372.414 847.154 372.088 847.154C371.294 847.154 370.748 846.972 370.45 846.608C370.16 846.244 370.016 845.558 370.016 844.55V841.302H369.12V840H370.016V837.97H371.528V840H373.46V841.302ZM379.891 842.156V845.348C379.9 845.553 379.952 845.707 380.045 845.81C380.148 845.903 380.302 845.964 380.507 845.992L380.465 847.154C379.662 847.154 379.042 846.981 378.603 846.636C377.856 846.981 377.105 847.154 376.349 847.154C374.958 847.154 374.263 846.412 374.263 844.928C374.263 844.219 374.45 843.705 374.823 843.388C375.206 843.071 375.789 842.879 376.573 842.814L378.379 842.66V842.156C378.379 841.783 378.295 841.521 378.127 841.372C377.968 841.223 377.73 841.148 377.413 841.148C376.816 841.148 376.069 841.185 375.173 841.26L374.725 841.288L374.669 840.21C375.686 839.967 376.62 839.846 377.469 839.846C378.328 839.846 378.944 840.033 379.317 840.406C379.7 840.77 379.891 841.353 379.891 842.156ZM376.755 843.892C376.111 843.948 375.789 844.298 375.789 844.942C375.789 845.586 376.074 845.908 376.643 845.908C377.11 845.908 377.604 845.833 378.127 845.684L378.379 845.6V843.738L376.755 843.892ZM375.817 836.528L379.121 837.942L378.757 838.936L375.341 837.844L375.817 836.528Z" fill="white"/>
<path d="M223 848.54H380.885V848.96H223V848.54Z" fill="white"/>
<defs>
<filter id="filter0_d_4167_42757" x="484" y="280" width="472" height="136" filterUnits="userSpaceOnUse" color-interpolation-filters="sRGB">
<feFlood flood-opacity="0" result="BackgroundImageFix"/>
<feColorMatrix in="SourceAlpha" type="matrix" values="0 0 0 0 0 0 0 0 0 0 0 0 0 0 0 0 0 0 127 0" result="hardAlpha"/>
<feOffset dy="8"/>
<feGaussianBlur stdDeviation="8"/>
<feColorMatrix type="matrix" values="0 0 0 0 0 0 0 0 0 0 0 0 0 0 0 0 0 0 0.15 0"/>
<feBlend mode="normal" in2="BackgroundImageFix" result="effect1_dropShadow_4167_42757"/>
<feBlend mode="normal" in="SourceGraphic" in2="effect1_dropShadow_4167_42757" result="shape"/>
</filter>
<clipPath id="clip0_4167_42757">
<rect width="47" height="24" fill="white" transform="translate(1321 12)"/>
</clipPath>
<clipPath id="clip1_4167_42757">
<rect x="500" y="288" width="440" height="104" rx="4" fill="white"/>
</clipPath>
</defs>
</svg>
