<svg width="360" height="2436" viewBox="0 0 360 2436" fill="none" xmlns="http://www.w3.org/2000/svg">
<g clip-path="url(#clip0_4168_45563)">
<rect width="360" height="2436" fill="white"/>
<rect width="360" height="48" fill="#004D99"/>
<text fill="white" style="white-space: pre" xml:space="preserve" font-family="Titillium Web" font-size="14" letter-spacing="0px"><tspan x="12" y="29.215">Ente appartenenza</tspan></text>
<g clip-path="url(#clip1_4168_45563)">
<text fill="white" style="white-space: pre" xml:space="preserve" font-family="Titillium Web" font-size="14" font-weight="600" letter-spacing="0em"><tspan x="301" y="29.215">ITA</tspan></text>
<path d="M336 27.1998L330.4 21.5998L331.1 20.7998L336 25.6998L340.9 20.7998L341.6 21.5998L336 27.1998Z" fill="white"/>
</g>
<rect width="360" height="72" transform="translate(0 48)" fill="#F2F7FC"/>
<rect x="12.5" y="69" width="106" height="30" fill="#F2F7FC"/>
<rect x="12.5" y="69" width="106" height="30" stroke="#C5C7C9"/>
<line x1="13.1976" y1="69.3958" x2="117.9" y2="99.0189" stroke="#C5C7C9"/>
<text fill="black" style="white-space: pre" xml:space="preserve" font-family="Titillium Web" font-size="16" font-weight="600" letter-spacing="0px"><tspan x="22.3018" y="92.3999">IL TUO LOGO</tspan></text>
<path d="M131 68.5V99.5" stroke="#C5C7C9" stroke-linejoin="round"/>
<path d="M152.021 72.0005C152.171 71.9996 152.325 72.0363 152.471 72.1187L162.059 77.4966C162.752 77.8857 163.076 78.5135 163.076 79.2339L163.07 94.4165C163.07 94.9455 162.638 95.3258 162.164 95.3296C162.014 95.3305 161.859 95.2936 161.713 95.2114L155.695 91.8355V82.2417C155.695 81.5215 155.372 80.8907 154.678 80.5044L151.461 78.7144V95.0874C151.461 95.6165 151.028 95.9968 150.554 96.0005C150.404 96.0013 150.249 95.9646 150.103 95.8823L144.018 92.4605C143.324 92.0715 143 91.4433 143 90.7232L143.015 74.7554C143.016 74.2264 143.447 73.847 143.921 73.8433C144.071 73.8424 144.226 73.8791 144.372 73.9614L151.141 77.7573L151.114 72.9126C151.112 72.3837 151.546 72.0043 152.021 72.0005ZM221.471 79.8736C224.828 79.8736 226.77 81.5637 226.771 84.437V88.1489C226.771 88.6237 226.978 88.854 227.326 88.854H227.774L227.773 88.856C227.943 88.8562 228.07 88.9866 228.07 89.1568V91.5435C228.07 91.7137 227.95 91.8423 227.779 91.8423H225.66C224.736 91.8423 223.977 91.5084 223.534 90.9839C222.532 91.7655 221.258 92.1607 219.898 92.1607C217.338 92.1607 215.822 90.7585 215.822 88.3511C215.822 86.0744 217.178 84.9177 220.167 84.7163L223.014 84.5239V84.0552C223.013 83.0832 222.339 82.5445 221.226 82.5445C220.451 82.5445 219.945 82.8069 219.707 83.2564C219.603 83.4523 219.502 83.52 219.323 83.52H216.145C215.965 83.52 215.846 83.4161 215.844 83.2642C215.842 83.169 215.887 83.0256 215.967 82.8374C216.727 81.0433 218.704 79.8737 221.471 79.8736ZM247.068 79.8736C250.632 79.8736 252.772 82.0452 252.772 85.4624V86.5913C252.772 86.7615 252.645 86.8909 252.475 86.8911H244.856C244.955 88.2991 245.579 89.4458 247.189 89.4458C247.946 89.4458 248.55 89.1918 248.859 88.7085C248.977 88.5249 249.085 88.4713 249.188 88.4712H252.239C252.481 88.4713 252.562 88.617 252.563 88.7788C252.564 88.8712 252.538 88.9696 252.476 89.1314C251.744 91.0363 249.944 92.1606 247.265 92.1607C243.46 92.1607 241.22 89.8595 241.22 86.0093C241.22 82.1594 243.415 79.874 247.068 79.8736ZM215.734 75.8403V75.8413C215.926 75.8415 216.081 76.021 216.048 76.2095L213.351 91.5903C213.325 91.7385 213.197 91.8431 213.047 91.8433H208.459C208.314 91.8432 208.193 91.7439 208.162 91.6021L205.711 80.3589H205.489L203.039 91.6021C203.008 91.744 202.884 91.8433 202.739 91.8433H198.151C198.002 91.8433 197.876 91.7377 197.851 91.5903L195.152 76.2095C195.119 76.0209 195.274 75.8413 195.465 75.8413H198.494C198.645 75.8415 198.774 75.9568 198.799 76.105L200.616 86.98H200.815L203.139 76.0923C203.17 75.9495 203.302 75.8413 203.447 75.8413H207.903C208.05 75.8413 208.169 75.9495 208.199 76.0923L210.477 87.0015H210.674L212.517 76.106C212.541 75.9569 212.662 75.8406 212.812 75.8403H215.734ZM174.738 75.8394C174.908 75.8394 175.036 75.965 175.036 76.1353V91.5435C175.036 91.7137 174.908 91.8423 174.737 91.8423H171.347C171.176 91.8423 171.047 91.7137 171.047 91.5435L171.041 76.1362C171.041 75.966 171.176 75.8403 171.347 75.8403H174.738V75.8394ZM188.804 75.8394C188.975 75.8394 189.103 75.9905 189.104 76.1607V78.8052H189.103C189.103 78.9764 188.974 79.1255 188.804 79.1255H184.58V91.5425C184.58 91.7127 184.43 91.8412 184.26 91.8413H180.91C180.74 91.8413 180.591 91.7106 180.591 91.5405V79.1255H176.365C176.195 79.1255 176.067 78.9745 176.067 78.8042V76.1587C176.068 75.9886 176.197 75.8394 176.367 75.8394H188.804ZM232.475 75.8403C232.646 75.8403 232.774 75.9689 232.774 76.1392V88.0884C232.775 88.5641 233.047 88.8539 233.522 88.854H234.246C234.416 88.854 234.565 88.9806 234.565 89.1509V91.5445C234.565 91.7147 234.431 91.8413 234.261 91.8413H232.606C230.112 91.8422 228.912 90.7384 228.912 88.4712V76.1392C228.912 75.969 229.04 75.8405 229.21 75.8403H232.475ZM238.877 75.8403C239.047 75.8403 239.185 75.9689 239.185 76.1392V88.0884C239.185 88.5642 239.449 88.854 239.925 88.854H240.648C240.819 88.854 240.977 88.9886 240.978 89.1587V91.5445C240.978 91.7147 240.833 91.8413 240.663 91.8413H239.009C236.515 91.8422 235.315 90.7383 235.314 88.4712V76.1392C235.314 75.9689 235.443 75.8403 235.613 75.8403H238.877ZM258.156 77.0132C258.327 77.0132 258.456 77.1418 258.456 77.312V80.1929H260.418C260.589 80.1929 260.738 80.3205 260.738 80.4907V82.8804C260.738 83.0515 260.609 83.1782 260.438 83.1782H258.456V88.0874C258.456 88.5633 258.726 88.853 259.202 88.853H260.44C260.611 88.8531 260.738 89.0033 260.738 89.1734V91.5425C260.738 91.7125 260.61 91.8403 260.439 91.8403H258.756C255.995 91.8403 254.615 90.4808 254.615 87.7876V83.1782H253.25C253.079 83.1782 252.951 83.0496 252.951 82.8794V80.4907C252.951 80.3206 253.1 80.192 253.271 80.1919H254.614V77.3169C254.614 77.1467 254.761 77.0132 254.932 77.0132H258.156ZM220.983 87.0239C219.886 87.1063 219.489 87.5002 219.489 88.1929C219.489 88.97 219.987 89.4457 221.005 89.4458C221.633 89.4458 222.315 89.2661 223.016 88.812H223.017V86.8716L220.983 87.0239ZM194.137 83.8198H194.138C194.308 83.8198 194.437 83.9484 194.438 84.1187V86.6362C194.437 86.8063 194.307 86.9348 194.137 86.9351H188C187.829 86.935 187.695 86.8074 187.694 86.6372V84.1157C187.694 83.9447 187.822 83.8179 187.992 83.8179L194.137 83.8198ZM247.067 82.3169C245.751 82.317 244.879 83.1258 244.871 84.4448H249.182C249.201 83.1156 248.384 82.3169 247.067 82.3169Z" fill="#0066CC"/>
<rect width="360" height="132" transform="translate(0 120)" fill="white"/>
<path d="M32.9996 147.5H17.4996L22.7996 142.1L22.0996 141.4L15.5996 148L22.0996 154.6L22.7996 153.9L17.4996 148.5H32.9996V147.5Z" fill="#0066CC"/>
<text fill="#17324D" style="white-space: pre" xml:space="preserve" font-family="Titillium Web" font-size="28" font-weight="bold" letter-spacing="0px"><tspan x="111.586" y="158.43">Scegli l&#x2019;app</tspan></text>
<path d="M340.9 151.2L336 146.3L331.1 151.2L330.4 150.4L336 144.8L341.6 150.4L340.9 151.2Z" fill="#0066CC"/>
<text fill="#17324D" style="white-space: pre" xml:space="preserve" font-family="Titillium Web" font-size="20" letter-spacing="0px"><tspan x="20.8301" y="199.45">Seleziona il portafoglio digitale con cui </tspan><tspan x="135.342" y="231.45">proseguire</tspan></text>
<g clip-path="url(#clip2_4168_45563)">
<path fill-rule="evenodd" clip-rule="evenodd" d="M36 299.3L41.9 305.1L41.1 305.9L35.3 300C33.8225 301.268 31.9465 301.975 30 302C25.5817 302 22 298.418 22 294C22 289.582 25.5817 286 30 286C34.4183 286 38 289.582 38 294C37.9755 295.947 37.2676 297.823 36 299.3ZM23 294C23 297.866 26.134 301 30 301C31.8565 301 33.637 300.263 34.9497 298.95C36.2625 297.637 37 295.857 37 294C37 290.134 33.866 287 30 287C26.134 287 23 290.134 23 294Z" fill="#5C6F82"/>
<text fill="#5C6F82" style="white-space: pre" xml:space="preserve" font-family="Titillium Web" font-size="20" letter-spacing="0px"><tspan x="52" y="303.45">Cerca per nome</tspan></text>
</g>
<rect x="12.5" y="268.5" width="177" height="47" rx="3.5" stroke="#C5C7C9"/>
<rect x="202" y="268" width="86" height="48" rx="4" fill="#D9DADB"/>
<text fill="#5C6F82" style="white-space: pre" xml:space="preserve" font-family="Titillium Web" font-size="16" font-weight="600" letter-spacing="0em"><tspan x="226.203" y="297.96">Cerca</tspan></text>
<rect x="301" y="269" width="46" height="46" rx="3" stroke="#0066CC" stroke-width="2"/>
<mask id="path-22-inside-1_4168_45563" fill="white">
<path d="M329.707 281.447C329.588 281.46 329.477 281.518 329.398 281.608C329.319 281.698 329.277 281.815 329.279 281.934V282.414C329.278 282.478 329.29 282.541 329.314 282.6C329.338 282.659 329.373 282.712 329.417 282.758C329.462 282.803 329.515 282.839 329.574 282.863C329.633 282.888 329.696 282.901 329.759 282.901C329.823 282.901 329.886 282.888 329.945 282.863C330.003 282.839 330.056 282.803 330.101 282.758C330.146 282.712 330.181 282.659 330.205 282.6C330.228 282.541 330.24 282.478 330.239 282.414V281.934C330.24 281.87 330.228 281.806 330.204 281.747C330.18 281.687 330.144 281.633 330.099 281.588C330.053 281.542 329.999 281.506 329.94 281.482C329.88 281.458 329.816 281.446 329.752 281.447C329.737 281.447 329.722 281.447 329.707 281.447ZM318.172 281.455C318.074 281.469 317.982 281.514 317.91 281.582C317.167 282.296 316.221 283.068 313.567 285.922C313.524 285.968 313.491 286.022 313.469 286.081C313.447 286.14 313.437 286.203 313.44 286.266C313.442 286.329 313.457 286.391 313.483 286.448C313.51 286.506 313.547 286.557 313.594 286.6C313.64 286.643 313.694 286.676 313.753 286.698C313.812 286.72 313.875 286.73 313.938 286.727C314.001 286.725 314.063 286.71 314.121 286.684C314.178 286.657 314.229 286.62 314.272 286.574C316.142 284.563 317.079 283.669 317.76 283.036V302.08C317.759 302.144 317.771 302.207 317.794 302.266C317.818 302.325 317.853 302.379 317.898 302.424C317.942 302.469 317.996 302.505 318.054 302.53C318.113 302.554 318.176 302.567 318.24 302.567C318.303 302.567 318.366 302.554 318.425 302.53C318.484 302.505 318.537 302.469 318.581 302.424C318.626 302.379 318.661 302.325 318.685 302.266C318.709 302.207 318.721 302.144 318.72 302.08V283.036C319.4 283.669 320.337 284.563 322.207 286.574C322.25 286.62 322.301 286.657 322.359 286.684C322.416 286.71 322.478 286.725 322.541 286.727C322.604 286.73 322.667 286.72 322.726 286.698C322.785 286.676 322.839 286.643 322.886 286.6C322.932 286.557 322.969 286.506 322.996 286.448C323.022 286.391 323.037 286.329 323.039 286.266C323.042 286.203 323.032 286.14 323.01 286.081C322.988 286.022 322.955 285.968 322.912 285.922C320.259 283.068 319.312 282.296 318.57 281.582C318.517 281.532 318.454 281.495 318.385 281.473C318.317 281.451 318.244 281.445 318.172 281.455ZM329.707 283.846C329.588 283.859 329.477 283.916 329.398 284.006C329.319 284.096 329.277 284.213 329.279 284.333V284.812C329.278 284.876 329.29 284.939 329.314 284.998C329.338 285.057 329.373 285.111 329.417 285.156C329.462 285.201 329.515 285.237 329.574 285.262C329.633 285.286 329.696 285.299 329.759 285.299C329.823 285.299 329.886 285.286 329.945 285.262C330.003 285.237 330.056 285.201 330.101 285.156C330.146 285.111 330.181 285.057 330.205 284.998C330.228 284.939 330.24 284.876 330.239 284.812V284.333C330.241 284.264 330.228 284.197 330.201 284.134C330.174 284.071 330.134 284.015 330.084 283.969C330.033 283.922 329.973 283.888 329.908 283.866C329.844 283.845 329.775 283.838 329.707 283.846ZM329.707 286.244C329.588 286.257 329.477 286.314 329.398 286.404C329.319 286.495 329.277 286.611 329.279 286.731V300.979C328.599 300.345 327.662 299.445 325.792 297.434C325.743 297.379 325.683 297.337 325.615 297.31C325.548 297.283 325.475 297.271 325.402 297.276C325.311 297.282 325.224 297.314 325.15 297.368C325.077 297.422 325.02 297.496 324.987 297.581C324.954 297.666 324.946 297.758 324.964 297.848C324.981 297.937 325.024 298.02 325.087 298.086C327.74 300.939 328.687 301.711 329.429 302.425C329.518 302.509 329.637 302.556 329.759 302.556C329.882 302.556 330 302.509 330.089 302.425C330.832 301.711 331.778 300.939 334.432 298.086C334.518 297.992 334.564 297.868 334.559 297.741C334.554 297.614 334.499 297.494 334.405 297.407C334.312 297.321 334.188 297.275 334.061 297.28C333.933 297.285 333.813 297.34 333.727 297.434C331.856 299.445 330.92 300.345 330.239 300.979V286.731C330.241 286.663 330.228 286.595 330.201 286.532C330.174 286.469 330.134 286.413 330.084 286.367C330.033 286.321 329.973 286.286 329.908 286.265C329.844 286.244 329.775 286.236 329.707 286.244Z"/>
</mask>
<path d="M329.707 281.447C329.588 281.46 329.477 281.518 329.398 281.608C329.319 281.698 329.277 281.815 329.279 281.934V282.414C329.278 282.478 329.29 282.541 329.314 282.6C329.338 282.659 329.373 282.712 329.417 282.758C329.462 282.803 329.515 282.839 329.574 282.863C329.633 282.888 329.696 282.901 329.759 282.901C329.823 282.901 329.886 282.888 329.945 282.863C330.003 282.839 330.056 282.803 330.101 282.758C330.146 282.712 330.181 282.659 330.205 282.6C330.228 282.541 330.24 282.478 330.239 282.414V281.934C330.24 281.87 330.228 281.806 330.204 281.747C330.18 281.687 330.144 281.633 330.099 281.588C330.053 281.542 329.999 281.506 329.94 281.482C329.88 281.458 329.816 281.446 329.752 281.447C329.737 281.447 329.722 281.447 329.707 281.447ZM318.172 281.455C318.074 281.469 317.982 281.514 317.91 281.582C317.167 282.296 316.221 283.068 313.567 285.922C313.524 285.968 313.491 286.022 313.469 286.081C313.447 286.14 313.437 286.203 313.44 286.266C313.442 286.329 313.457 286.391 313.483 286.448C313.51 286.506 313.547 286.557 313.594 286.6C313.64 286.643 313.694 286.676 313.753 286.698C313.812 286.72 313.875 286.73 313.938 286.727C314.001 286.725 314.063 286.71 314.121 286.684C314.178 286.657 314.229 286.62 314.272 286.574C316.142 284.563 317.079 283.669 317.76 283.036V302.08C317.759 302.144 317.771 302.207 317.794 302.266C317.818 302.325 317.853 302.379 317.898 302.424C317.942 302.469 317.996 302.505 318.054 302.53C318.113 302.554 318.176 302.567 318.24 302.567C318.303 302.567 318.366 302.554 318.425 302.53C318.484 302.505 318.537 302.469 318.581 302.424C318.626 302.379 318.661 302.325 318.685 302.266C318.709 302.207 318.721 302.144 318.72 302.08V283.036C319.4 283.669 320.337 284.563 322.207 286.574C322.25 286.62 322.301 286.657 322.359 286.684C322.416 286.71 322.478 286.725 322.541 286.727C322.604 286.73 322.667 286.72 322.726 286.698C322.785 286.676 322.839 286.643 322.886 286.6C322.932 286.557 322.969 286.506 322.996 286.448C323.022 286.391 323.037 286.329 323.039 286.266C323.042 286.203 323.032 286.14 323.01 286.081C322.988 286.022 322.955 285.968 322.912 285.922C320.259 283.068 319.312 282.296 318.57 281.582C318.517 281.532 318.454 281.495 318.385 281.473C318.317 281.451 318.244 281.445 318.172 281.455ZM329.707 283.846C329.588 283.859 329.477 283.916 329.398 284.006C329.319 284.096 329.277 284.213 329.279 284.333V284.812C329.278 284.876 329.29 284.939 329.314 284.998C329.338 285.057 329.373 285.111 329.417 285.156C329.462 285.201 329.515 285.237 329.574 285.262C329.633 285.286 329.696 285.299 329.759 285.299C329.823 285.299 329.886 285.286 329.945 285.262C330.003 285.237 330.056 285.201 330.101 285.156C330.146 285.111 330.181 285.057 330.205 284.998C330.228 284.939 330.24 284.876 330.239 284.812V284.333C330.241 284.264 330.228 284.197 330.201 284.134C330.174 284.071 330.134 284.015 330.084 283.969C330.033 283.922 329.973 283.888 329.908 283.866C329.844 283.845 329.775 283.838 329.707 283.846ZM329.707 286.244C329.588 286.257 329.477 286.314 329.398 286.404C329.319 286.495 329.277 286.611 329.279 286.731V300.979C328.599 300.345 327.662 299.445 325.792 297.434C325.743 297.379 325.683 297.337 325.615 297.31C325.548 297.283 325.475 297.271 325.402 297.276C325.311 297.282 325.224 297.314 325.15 297.368C325.077 297.422 325.02 297.496 324.987 297.581C324.954 297.666 324.946 297.758 324.964 297.848C324.981 297.937 325.024 298.02 325.087 298.086C327.74 300.939 328.687 301.711 329.429 302.425C329.518 302.509 329.637 302.556 329.759 302.556C329.882 302.556 330 302.509 330.089 302.425C330.832 301.711 331.778 300.939 334.432 298.086C334.518 297.992 334.564 297.868 334.559 297.741C334.554 297.614 334.499 297.494 334.405 297.407C334.312 297.321 334.188 297.275 334.061 297.28C333.933 297.285 333.813 297.34 333.727 297.434C331.856 299.445 330.92 300.345 330.239 300.979V286.731C330.241 286.663 330.228 286.595 330.201 286.532C330.174 286.469 330.134 286.413 330.084 286.367C330.033 286.321 329.973 286.286 329.908 286.265C329.844 286.244 329.775 286.236 329.707 286.244Z" fill="#0066CC" stroke="#0066CC" stroke-width="2" mask="url(#path-22-inside-1_4168_45563)"/>
<g filter="url(#filter0_d_4168_45563)">
<g clip-path="url(#clip3_4168_45563)">
<rect width="336" height="88.0001" transform="translate(12 340)" fill="white"/>
<path d="M79.334 370V398L56 412L32.667 398V370L56 356L79.334 370ZM35.0098 371.405V396.595L56 409.188L76.9912 396.595V371.405L56 358.812L35.0098 371.405Z" fill="#0066CC"/>
<text fill="#0066CC" style="white-space: pre" xml:space="preserve" font-family="Titillium Web" font-size="20" font-weight="600" letter-spacing="0px" text-decoration="underline"><tspan x="100" y="391.45">Nome app IT-Wallet</tspan></text>
<g clip-path="url(#clip4_4168_45563)">
<path d="M321.9 377L321.2 377.7L326.5 383.1H311V384.1H326.5L321.2 389.5L321.9 390.2L328.5 383.6L321.9 377Z" fill="#0066CC"/>
</g>
</g>
<rect x="12.5" y="340.5" width="335" height="87.0001" rx="3.5" stroke="#C5C7C9"/>
</g>
<g filter="url(#filter1_d_4168_45563)">
<g clip-path="url(#clip5_4168_45563)">
<rect width="336" height="88.0001" transform="translate(12 440)" fill="white"/>
<path d="M79.334 470V498L56 512L32.667 498V470L56 456L79.334 470ZM35.0098 471.405V496.595L56 509.188L76.9912 496.595V471.405L56 458.812L35.0098 471.405Z" fill="#0066CC"/>
<text fill="#0066CC" style="white-space: pre" xml:space="preserve" font-family="Titillium Web" font-size="20" font-weight="600" letter-spacing="0px"><tspan x="100" y="479.45">Nome soluzione app </tspan><tspan x="100" y="503.45">IT-Wallet</tspan></text>
<g clip-path="url(#clip6_4168_45563)">
<path d="M321.9 477L321.2 477.7L326.5 483.1H311V484.1H326.5L321.2 489.5L321.9 490.2L328.5 483.6L321.9 477Z" fill="#0066CC"/>
</g>
</g>
<rect x="12.5" y="440.5" width="335" height="87.0001" rx="3.5" stroke="#C5C7C9"/>
</g>
<g filter="url(#filter2_d_4168_45563)">
<g clip-path="url(#clip7_4168_45563)">
<rect width="336" height="88.0001" transform="translate(12 540)" fill="white"/>
<path d="M79.334 570V598L56 612L32.667 598V570L56 556L79.334 570ZM35.0098 571.405V596.595L56 609.188L76.9912 596.595V571.405L56 558.812L35.0098 571.405Z" fill="#0066CC"/>
<text fill="#0066CC" style="white-space: pre" xml:space="preserve" font-family="Titillium Web" font-size="20" font-weight="600" letter-spacing="0px"><tspan x="100" y="591.45">Nome app IT-Wallet</tspan></text>
<g clip-path="url(#clip8_4168_45563)">
<path d="M321.9 577L321.2 577.7L326.5 583.1H311V584.1H326.5L321.2 589.5L321.9 590.2L328.5 583.6L321.9 577Z" fill="#0066CC"/>
</g>
</g>
<rect x="12.5" y="540.5" width="335" height="87.0001" rx="3.5" stroke="#C5C7C9"/>
</g>
<g filter="url(#filter3_d_4168_45563)">
<g clip-path="url(#clip9_4168_45563)">
<rect width="336" height="88.0001" transform="translate(12 640)" fill="white"/>
<path d="M79.334 670V698L56 712L32.667 698V670L56 656L79.334 670ZM35.0098 671.406V696.595L56 709.189L76.9912 696.595V671.406L56 658.812L35.0098 671.406Z" fill="#0066CC"/>
<text fill="#0066CC" style="white-space: pre" xml:space="preserve" font-family="Titillium Web" font-size="20" font-weight="600" letter-spacing="0px"><tspan x="100" y="691.45">Nome app IT-Wallet</tspan></text>
<g clip-path="url(#clip10_4168_45563)">
<path d="M321.9 677L321.2 677.7L326.5 683.1H311V684.1H326.5L321.2 689.5L321.9 690.2L328.5 683.6L321.9 677Z" fill="#0066CC"/>
</g>
</g>
<rect x="12.5" y="640.5" width="335" height="87" rx="3.5" stroke="#C5C7C9"/>
</g>
<g filter="url(#filter4_d_4168_45563)">
<g clip-path="url(#clip11_4168_45563)">
<rect width="336" height="88.0001" transform="translate(12 740)" fill="white"/>
<path d="M79.334 770V798L56 812L32.667 798V770L56 756L79.334 770ZM35.0098 771.406V796.595L56 809.189L76.9912 796.595V771.406L56 758.812L35.0098 771.406Z" fill="#0066CC"/>
<text fill="#0066CC" style="white-space: pre" xml:space="preserve" font-family="Titillium Web" font-size="20" font-weight="600" letter-spacing="0px"><tspan x="100" y="791.45">Nome app IT-Wallet</tspan></text>
<g clip-path="url(#clip12_4168_45563)">
<path d="M321.9 777L321.2 777.7L326.5 783.1H311V784.1H326.5L321.2 789.5L321.9 790.2L328.5 783.6L321.9 777Z" fill="#0066CC"/>
</g>
</g>
<rect x="12.5" y="740.5" width="335" height="87.0001" rx="3.5" stroke="#C5C7C9"/>
</g>
<g filter="url(#filter5_d_4168_45563)">
<g clip-path="url(#clip13_4168_45563)">
<rect width="336" height="88" transform="translate(12 840)" fill="white"/>
<path d="M79.334 870V898L56 912L32.667 898V870L56 856L79.334 870ZM35.0098 871.406V896.595L56 909.189L76.9912 896.595V871.406L56 858.812L35.0098 871.406Z" fill="#0066CC"/>
<text fill="#0066CC" style="white-space: pre" xml:space="preserve" font-family="Titillium Web" font-size="20" font-weight="600" letter-spacing="0px"><tspan x="100" y="891.45">Nome app IT-Wallet</tspan></text>
<g clip-path="url(#clip14_4168_45563)">
<path d="M321.9 877L321.2 877.7L326.5 883.1H311V884.1H326.5L321.2 889.5L321.9 890.2L328.5 883.6L321.9 877Z" fill="#0066CC"/>
</g>
</g>
<rect x="12.5" y="840.5" width="335" height="87" rx="3.5" stroke="#C5C7C9"/>
</g>
<g filter="url(#filter6_d_4168_45563)">
<g clip-path="url(#clip15_4168_45563)">
<rect width="336" height="88.0001" transform="translate(12 940)" fill="white"/>
<path d="M79.334 970V998L56 1012L32.667 998V970L56 956L79.334 970ZM35.0098 971.406V996.595L56 1009.19L76.9912 996.595V971.406L56 958.812L35.0098 971.406Z" fill="#0066CC"/>
<text fill="#0066CC" style="white-space: pre" xml:space="preserve" font-family="Titillium Web" font-size="20" font-weight="600" letter-spacing="0px"><tspan x="100" y="991.45">Nome app IT-Wallet</tspan></text>
<g clip-path="url(#clip16_4168_45563)">
<path d="M321.9 977L321.2 977.7L326.5 983.1H311V984.1H326.5L321.2 989.5L321.9 990.2L328.5 983.6L321.9 977Z" fill="#0066CC"/>
</g>
</g>
<rect x="12.5" y="940.5" width="335" height="87.0001" rx="3.5" stroke="#C5C7C9"/>
</g>
<g filter="url(#filter7_d_4168_45563)">
<g clip-path="url(#clip17_4168_45563)">
<rect width="336" height="88.0001" transform="translate(12 1040)" fill="white"/>
<path d="M79.334 1070V1098L56 1112L32.667 1098V1070L56 1056L79.334 1070ZM35.0098 1071.41V1096.6L56 1109.19L76.9912 1096.6V1071.41L56 1058.81L35.0098 1071.41Z" fill="#0066CC"/>
<text fill="#0066CC" style="white-space: pre" xml:space="preserve" font-family="Titillium Web" font-size="20" font-weight="600" letter-spacing="0px"><tspan x="100" y="1091.45">Nome app IT-Wallet</tspan></text>
<g clip-path="url(#clip18_4168_45563)">
<path d="M321.9 1077L321.2 1077.7L326.5 1083.1H311V1084.1H326.5L321.2 1089.5L321.9 1090.2L328.5 1083.6L321.9 1077Z" fill="#0066CC"/>
</g>
</g>
<rect x="12.5" y="1040.5" width="335" height="87.0001" rx="3.5" stroke="#C5C7C9"/>
</g>
<g filter="url(#filter8_d_4168_45563)">
<g clip-path="url(#clip19_4168_45563)">
<rect width="336" height="88.0001" transform="translate(12 1140)" fill="white"/>
<path d="M79.334 1170V1198L56 1212L32.667 1198V1170L56 1156L79.334 1170ZM35.0098 1171.41V1196.6L56 1209.19L76.9912 1196.6V1171.41L56 1158.81L35.0098 1171.41Z" fill="#0066CC"/>
<text fill="#0066CC" style="white-space: pre" xml:space="preserve" font-family="Titillium Web" font-size="20" font-weight="600" letter-spacing="0px"><tspan x="100" y="1191.45">Nome app IT-Wallet</tspan></text>
<g clip-path="url(#clip20_4168_45563)">
<path d="M321.9 1177L321.2 1177.7L326.5 1183.1H311V1184.1H326.5L321.2 1189.5L321.9 1190.2L328.5 1183.6L321.9 1177Z" fill="#0066CC"/>
</g>
</g>
<rect x="12.5" y="1140.5" width="335" height="87.0001" rx="3.5" stroke="#C5C7C9"/>
</g>
<g filter="url(#filter9_d_4168_45563)">
<g clip-path="url(#clip21_4168_45563)">
<rect width="336" height="88.0001" transform="translate(12 1240)" fill="white"/>
<path d="M79.334 1270V1298L56 1312L32.667 1298V1270L56 1256L79.334 1270ZM35.0098 1271.41V1296.6L56 1309.19L76.9912 1296.6V1271.41L56 1258.81L35.0098 1271.41Z" fill="#0066CC"/>
<text fill="#0066CC" style="white-space: pre" xml:space="preserve" font-family="Titillium Web" font-size="20" font-weight="600" letter-spacing="0px"><tspan x="100" y="1291.45">Nome app IT-Wallet</tspan></text>
<g clip-path="url(#clip22_4168_45563)">
<path d="M321.9 1277L321.2 1277.7L326.5 1283.1H311V1284.1H326.5L321.2 1289.5L321.9 1290.2L328.5 1283.6L321.9 1277Z" fill="#0066CC"/>
</g>
</g>
<rect x="12.5" y="1240.5" width="335" height="87.0001" rx="3.5" stroke="#C5C7C9"/>
</g>
<g filter="url(#filter10_d_4168_45563)">
<g clip-path="url(#clip23_4168_45563)">
<rect width="336" height="88" transform="translate(12 1340)" fill="white"/>
<path d="M79.334 1370V1398L56 1412L32.667 1398V1370L56 1356L79.334 1370ZM35.0098 1371.41V1396.6L56 1409.19L76.9912 1396.6V1371.41L56 1358.81L35.0098 1371.41Z" fill="#0066CC"/>
<text fill="#0066CC" style="white-space: pre" xml:space="preserve" font-family="Titillium Web" font-size="20" font-weight="600" letter-spacing="0px"><tspan x="100" y="1391.45">Nome app IT-Wallet</tspan></text>
<g clip-path="url(#clip24_4168_45563)">
<path d="M321.9 1377L321.2 1377.7L326.5 1383.1H311V1384.1H326.5L321.2 1389.5L321.9 1390.2L328.5 1383.6L321.9 1377Z" fill="#0066CC"/>
</g>
</g>
<rect x="12.5" y="1340.5" width="335" height="87" rx="3.5" stroke="#C5C7C9"/>
</g>
<g filter="url(#filter11_d_4168_45563)">
<g clip-path="url(#clip25_4168_45563)">
<rect width="336" height="88.0001" transform="translate(12 1440)" fill="white"/>
<path d="M79.334 1470V1498L56 1512L32.667 1498V1470L56 1456L79.334 1470ZM35.0098 1471.41V1496.6L56 1509.19L76.9912 1496.6V1471.41L56 1458.81L35.0098 1471.41Z" fill="#0066CC"/>
<text fill="#0066CC" style="white-space: pre" xml:space="preserve" font-family="Titillium Web" font-size="20" font-weight="600" letter-spacing="0px"><tspan x="100" y="1491.45">Nome app IT-Wallet</tspan></text>
<g clip-path="url(#clip26_4168_45563)">
<path d="M321.9 1477L321.2 1477.7L326.5 1483.1H311V1484.1H326.5L321.2 1489.5L321.9 1490.2L328.5 1483.6L321.9 1477Z" fill="#0066CC"/>
</g>
</g>
<rect x="12.5" y="1440.5" width="335" height="87.0001" rx="3.5" stroke="#C5C7C9"/>
</g>
<g filter="url(#filter12_d_4168_45563)">
<g clip-path="url(#clip27_4168_45563)">
<rect width="336" height="88.0001" transform="translate(12 1540)" fill="white"/>
<path d="M79.334 1570V1598L56 1612L32.667 1598V1570L56 1556L79.334 1570ZM35.0098 1571.41V1596.6L56 1609.19L76.9912 1596.6V1571.41L56 1558.81L35.0098 1571.41Z" fill="#0066CC"/>
<text fill="#0066CC" style="white-space: pre" xml:space="preserve" font-family="Titillium Web" font-size="20" font-weight="600" letter-spacing="0px"><tspan x="100" y="1591.45">Nome app IT-Wallet</tspan></text>
<g clip-path="url(#clip28_4168_45563)">
<path d="M321.9 1577L321.2 1577.7L326.5 1583.1H311V1584.1H326.5L321.2 1589.5L321.9 1590.2L328.5 1583.6L321.9 1577Z" fill="#0066CC"/>
</g>
</g>
<rect x="12.5" y="1540.5" width="335" height="87.0001" rx="3.5" stroke="#C5C7C9"/>
</g>
<g filter="url(#filter13_d_4168_45563)">
<g clip-path="url(#clip29_4168_45563)">
<rect width="336" height="88.0001" transform="translate(12 1640)" fill="white"/>
<path d="M79.334 1670V1698L56 1712L32.667 1698V1670L56 1656L79.334 1670ZM35.0098 1671.41V1696.6L56 1709.19L76.9912 1696.6V1671.41L56 1658.81L35.0098 1671.41Z" fill="#0066CC"/>
<text fill="#0066CC" style="white-space: pre" xml:space="preserve" font-family="Titillium Web" font-size="20" font-weight="600" letter-spacing="0px"><tspan x="100" y="1691.45">Nome app IT-Wallet</tspan></text>
<g clip-path="url(#clip30_4168_45563)">
<path d="M321.9 1677L321.2 1677.7L326.5 1683.1H311V1684.1H326.5L321.2 1689.5L321.9 1690.2L328.5 1683.6L321.9 1677Z" fill="#0066CC"/>
</g>
</g>
<rect x="12.5" y="1640.5" width="335" height="87.0001" rx="3.5" stroke="#C5C7C9"/>
</g>
<g filter="url(#filter14_d_4168_45563)">
<g clip-path="url(#clip31_4168_45563)">
<rect width="336" height="88.0001" transform="translate(12 1740)" fill="white"/>
<path d="M79.334 1770V1798L56 1812L32.667 1798V1770L56 1756L79.334 1770ZM35.0098 1771.41V1796.6L56 1809.19L76.9912 1796.6V1771.41L56 1758.81L35.0098 1771.41Z" fill="#0066CC"/>
<text fill="#0066CC" style="white-space: pre" xml:space="preserve" font-family="Titillium Web" font-size="20" font-weight="600" letter-spacing="0px"><tspan x="100" y="1791.45">Nome app IT-Wallet</tspan></text>
<g clip-path="url(#clip32_4168_45563)">
<path d="M321.9 1777L321.2 1777.7L326.5 1783.1H311V1784.1H326.5L321.2 1789.5L321.9 1790.2L328.5 1783.6L321.9 1777Z" fill="#0066CC"/>
</g>
</g>
<rect x="12.5" y="1740.5" width="335" height="87.0001" rx="3.5" stroke="#C5C7C9"/>
</g>
<g filter="url(#filter15_d_4168_45563)">
<g clip-path="url(#clip33_4168_45563)">
<rect width="336" height="88.0001" transform="translate(12 1840)" fill="white"/>
<path d="M79.334 1870V1898L56 1912L32.667 1898V1870L56 1856L79.334 1870ZM35.0098 1871.41V1896.6L56 1909.19L76.9912 1896.6V1871.41L56 1858.81L35.0098 1871.41Z" fill="#0066CC"/>
<text fill="#0066CC" style="white-space: pre" xml:space="preserve" font-family="Titillium Web" font-size="20" font-weight="600" letter-spacing="0px"><tspan x="100" y="1891.45">Nome app IT-Wallet</tspan></text>
<g clip-path="url(#clip34_4168_45563)">
<path d="M321.9 1877L321.2 1877.7L326.5 1883.1H311V1884.1H326.5L321.2 1889.5L321.9 1890.2L328.5 1883.6L321.9 1877Z" fill="#0066CC"/>
</g>
</g>
<rect x="12.5" y="1840.5" width="335" height="87.0001" rx="3.5" stroke="#C5C7C9"/>
</g>
<g filter="url(#filter16_d_4168_45563)">
<g clip-path="url(#clip35_4168_45563)">
<rect width="336" height="88.0001" transform="translate(12 1940)" fill="white"/>
<path d="M79.334 1970V1998L56 2012L32.667 1998V1970L56 1956L79.334 1970ZM35.0098 1971.41V1996.6L56 2009.19L76.9912 1996.6V1971.41L56 1958.81L35.0098 1971.41Z" fill="#0066CC"/>
<text fill="#0066CC" style="white-space: pre" xml:space="preserve" font-family="Titillium Web" font-size="20" font-weight="600" letter-spacing="0px"><tspan x="100" y="1991.45">Nome app IT-Wallet</tspan></text>
<g clip-path="url(#clip36_4168_45563)">
<path d="M321.9 1977L321.2 1977.7L326.5 1983.1H311V1984.1H326.5L321.2 1989.5L321.9 1990.2L328.5 1983.6L321.9 1977Z" fill="#0066CC"/>
</g>
</g>
<rect x="12.5" y="1940.5" width="335" height="87.0001" rx="3.5" stroke="#C5C7C9"/>
</g>
<g filter="url(#filter17_d_4168_45563)">
<g clip-path="url(#clip37_4168_45563)">
<rect width="336" height="88.0001" transform="translate(12 2040)" fill="white"/>
<path d="M79.334 2070V2098L56 2112L32.667 2098V2070L56 2056L79.334 2070ZM35.0098 2071.41V2096.6L56 2109.19L76.9912 2096.6V2071.41L56 2058.81L35.0098 2071.41Z" fill="#0066CC"/>
<text fill="#0066CC" style="white-space: pre" xml:space="preserve" font-family="Titillium Web" font-size="20" font-weight="600" letter-spacing="0px"><tspan x="100" y="2091.45">Nome app IT-Wallet</tspan></text>
<g clip-path="url(#clip38_4168_45563)">
<path d="M321.9 2077L321.2 2077.7L326.5 2083.1H311V2084.1H326.5L321.2 2089.5L321.9 2090.2L328.5 2083.6L321.9 2077Z" fill="#0066CC"/>
</g>
</g>
<rect x="12.5" y="2040.5" width="335" height="87.0001" rx="3.5" stroke="#C5C7C9"/>
</g>
<g filter="url(#filter18_d_4168_45563)">
<g clip-path="url(#clip39_4168_45563)">
<rect width="336" height="88.0001" transform="translate(12 2140)" fill="white"/>
<path d="M79.334 2170V2198L56 2212L32.667 2198V2170L56 2156L79.334 2170ZM35.0098 2171.41V2196.6L56 2209.19L76.9912 2196.6V2171.41L56 2158.81L35.0098 2171.41Z" fill="#0066CC"/>
<text fill="#0066CC" style="white-space: pre" xml:space="preserve" font-family="Titillium Web" font-size="20" font-weight="600" letter-spacing="0px"><tspan x="100" y="2191.45">Nome app IT-Wallet</tspan></text>
<g clip-path="url(#clip40_4168_45563)">
<path d="M321.9 2177L321.2 2177.7L326.5 2183.1H311V2184.1H326.5L321.2 2189.5L321.9 2190.2L328.5 2183.6L321.9 2177Z" fill="#0066CC"/>
</g>
</g>
<rect x="12.5" y="2140.5" width="335" height="87.0001" rx="3.5" stroke="#C5C7C9"/>
</g>
<rect width="360" height="160" transform="translate(0 2276)" fill="#003366"/>
<text fill="white" style="white-space: pre" xml:space="preserve" font-family="Titillium Web" font-size="14" font-weight="600" letter-spacing="0em" text-decoration="underline"><tspan x="12" y="2321.22">Note Legali</tspan></text>
<text fill="white" style="white-space: pre" xml:space="preserve" font-family="Titillium Web" font-size="14" font-weight="600" letter-spacing="0em" text-decoration="underline"><tspan x="12" y="2361.22">Privacy Policy</tspan></text>
<text fill="white" style="white-space: pre" xml:space="preserve" font-family="Titillium Web" font-size="14" font-weight="600" letter-spacing="0em" text-decoration="underline"><tspan x="12" y="2401.22">Dichiarazione Accessibilit&#xe0;</tspan></text>
</g>
<defs>
<filter id="filter0_d_4168_45563" x="-4" y="332" width="368" height="120" filterUnits="userSpaceOnUse" color-interpolation-filters="sRGB">
<feFlood flood-opacity="0" result="BackgroundImageFix"/>
<feColorMatrix in="SourceAlpha" type="matrix" values="0 0 0 0 0 0 0 0 0 0 0 0 0 0 0 0 0 0 127 0" result="hardAlpha"/>
<feOffset dy="8"/>
<feGaussianBlur stdDeviation="8"/>
<feColorMatrix type="matrix" values="0 0 0 0 0 0 0 0 0 0 0 0 0 0 0 0 0 0 0.15 0"/>
<feBlend mode="normal" in2="BackgroundImageFix" result="effect1_dropShadow_4168_45563"/>
<feBlend mode="normal" in="SourceGraphic" in2="effect1_dropShadow_4168_45563" result="shape"/>
</filter>
<filter id="filter1_d_4168_45563" x="-4" y="432" width="368" height="120" filterUnits="userSpaceOnUse" color-interpolation-filters="sRGB">
<feFlood flood-opacity="0" result="BackgroundImageFix"/>
<feColorMatrix in="SourceAlpha" type="matrix" values="0 0 0 0 0 0 0 0 0 0 0 0 0 0 0 0 0 0 127 0" result="hardAlpha"/>
<feOffset dy="8"/>
<feGaussianBlur stdDeviation="8"/>
<feColorMatrix type="matrix" values="0 0 0 0 0 0 0 0 0 0 0 0 0 0 0 0 0 0 0.15 0"/>
<feBlend mode="normal" in2="BackgroundImageFix" result="effect1_dropShadow_4168_45563"/>
<feBlend mode="normal" in="SourceGraphic" in2="effect1_dropShadow_4168_45563" result="shape"/>
</filter>
<filter id="filter2_d_4168_45563" x="-4" y="532" width="368" height="120" filterUnits="userSpaceOnUse" color-interpolation-filters="sRGB">
<feFlood flood-opacity="0" result="BackgroundImageFix"/>
<feColorMatrix in="SourceAlpha" type="matrix" values="0 0 0 0 0 0 0 0 0 0 0 0 0 0 0 0 0 0 127 0" result="hardAlpha"/>
<feOffset dy="8"/>
<feGaussianBlur stdDeviation="8"/>
<feColorMatrix type="matrix" values="0 0 0 0 0 0 0 0 0 0 0 0 0 0 0 0 0 0 0.15 0"/>
<feBlend mode="normal" in2="BackgroundImageFix" result="effect1_dropShadow_4168_45563"/>
<feBlend mode="normal" in="SourceGraphic" in2="effect1_dropShadow_4168_45563" result="shape"/>
</filter>
<filter id="filter3_d_4168_45563" x="-4" y="632" width="368" height="120" filterUnits="userSpaceOnUse" color-interpolation-filters="sRGB">
<feFlood flood-opacity="0" result="BackgroundImageFix"/>
<feColorMatrix in="SourceAlpha" type="matrix" values="0 0 0 0 0 0 0 0 0 0 0 0 0 0 0 0 0 0 127 0" result="hardAlpha"/>
<feOffset dy="8"/>
<feGaussianBlur stdDeviation="8"/>
<feColorMatrix type="matrix" values="0 0 0 0 0 0 0 0 0 0 0 0 0 0 0 0 0 0 0.15 0"/>
<feBlend mode="normal" in2="BackgroundImageFix" result="effect1_dropShadow_4168_45563"/>
<feBlend mode="normal" in="SourceGraphic" in2="effect1_dropShadow_4168_45563" result="shape"/>
</filter>
<filter id="filter4_d_4168_45563" x="-4" y="732" width="368" height="120" filterUnits="userSpaceOnUse" color-interpolation-filters="sRGB">
<feFlood flood-opacity="0" result="BackgroundImageFix"/>
<feColorMatrix in="SourceAlpha" type="matrix" values="0 0 0 0 0 0 0 0 0 0 0 0 0 0 0 0 0 0 127 0" result="hardAlpha"/>
<feOffset dy="8"/>
<feGaussianBlur stdDeviation="8"/>
<feColorMatrix type="matrix" values="0 0 0 0 0 0 0 0 0 0 0 0 0 0 0 0 0 0 0.15 0"/>
<feBlend mode="normal" in2="BackgroundImageFix" result="effect1_dropShadow_4168_45563"/>
<feBlend mode="normal" in="SourceGraphic" in2="effect1_dropShadow_4168_45563" result="shape"/>
</filter>
<filter id="filter5_d_4168_45563" x="-4" y="832" width="368" height="120" filterUnits="userSpaceOnUse" color-interpolation-filters="sRGB">
<feFlood flood-opacity="0" result="BackgroundImageFix"/>
<feColorMatrix in="SourceAlpha" type="matrix" values="0 0 0 0 0 0 0 0 0 0 0 0 0 0 0 0 0 0 127 0" result="hardAlpha"/>
<feOffset dy="8"/>
<feGaussianBlur stdDeviation="8"/>
<feColorMatrix type="matrix" values="0 0 0 0 0 0 0 0 0 0 0 0 0 0 0 0 0 0 0.15 0"/>
<feBlend mode="normal" in2="BackgroundImageFix" result="effect1_dropShadow_4168_45563"/>
<feBlend mode="normal" in="SourceGraphic" in2="effect1_dropShadow_4168_45563" result="shape"/>
</filter>
<filter id="filter6_d_4168_45563" x="-4" y="932" width="368" height="120" filterUnits="userSpaceOnUse" color-interpolation-filters="sRGB">
<feFlood flood-opacity="0" result="BackgroundImageFix"/>
<feColorMatrix in="SourceAlpha" type="matrix" values="0 0 0 0 0 0 0 0 0 0 0 0 0 0 0 0 0 0 127 0" result="hardAlpha"/>
<feOffset dy="8"/>
<feGaussianBlur stdDeviation="8"/>
<feColorMatrix type="matrix" values="0 0 0 0 0 0 0 0 0 0 0 0 0 0 0 0 0 0 0.15 0"/>
<feBlend mode="normal" in2="BackgroundImageFix" result="effect1_dropShadow_4168_45563"/>
<feBlend mode="normal" in="SourceGraphic" in2="effect1_dropShadow_4168_45563" result="shape"/>
</filter>
<filter id="filter7_d_4168_45563" x="-4" y="1032" width="368" height="120" filterUnits="userSpaceOnUse" color-interpolation-filters="sRGB">
<feFlood flood-opacity="0" result="BackgroundImageFix"/>
<feColorMatrix in="SourceAlpha" type="matrix" values="0 0 0 0 0 0 0 0 0 0 0 0 0 0 0 0 0 0 127 0" result="hardAlpha"/>
<feOffset dy="8"/>
<feGaussianBlur stdDeviation="8"/>
<feColorMatrix type="matrix" values="0 0 0 0 0 0 0 0 0 0 0 0 0 0 0 0 0 0 0.15 0"/>
<feBlend mode="normal" in2="BackgroundImageFix" result="effect1_dropShadow_4168_45563"/>
<feBlend mode="normal" in="SourceGraphic" in2="effect1_dropShadow_4168_45563" result="shape"/>
</filter>
<filter id="filter8_d_4168_45563" x="-4" y="1132" width="368" height="120" filterUnits="userSpaceOnUse" color-interpolation-filters="sRGB">
<feFlood flood-opacity="0" result="BackgroundImageFix"/>
<feColorMatrix in="SourceAlpha" type="matrix" values="0 0 0 0 0 0 0 0 0 0 0 0 0 0 0 0 0 0 127 0" result="hardAlpha"/>
<feOffset dy="8"/>
<feGaussianBlur stdDeviation="8"/>
<feColorMatrix type="matrix" values="0 0 0 0 0 0 0 0 0 0 0 0 0 0 0 0 0 0 0.15 0"/>
<feBlend mode="normal" in2="BackgroundImageFix" result="effect1_dropShadow_4168_45563"/>
<feBlend mode="normal" in="SourceGraphic" in2="effect1_dropShadow_4168_45563" result="shape"/>
</filter>
<filter id="filter9_d_4168_45563" x="-4" y="1232" width="368" height="120" filterUnits="userSpaceOnUse" color-interpolation-filters="sRGB">
<feFlood flood-opacity="0" result="BackgroundImageFix"/>
<feColorMatrix in="SourceAlpha" type="matrix" values="0 0 0 0 0 0 0 0 0 0 0 0 0 0 0 0 0 0 127 0" result="hardAlpha"/>
<feOffset dy="8"/>
<feGaussianBlur stdDeviation="8"/>
<feColorMatrix type="matrix" values="0 0 0 0 0 0 0 0 0 0 0 0 0 0 0 0 0 0 0.15 0"/>
<feBlend mode="normal" in2="BackgroundImageFix" result="effect1_dropShadow_4168_45563"/>
<feBlend mode="normal" in="SourceGraphic" in2="effect1_dropShadow_4168_45563" result="shape"/>
</filter>
<filter id="filter10_d_4168_45563" x="-4" y="1332" width="368" height="120" filterUnits="userSpaceOnUse" color-interpolation-filters="sRGB">
<feFlood flood-opacity="0" result="BackgroundImageFix"/>
<feColorMatrix in="SourceAlpha" type="matrix" values="0 0 0 0 0 0 0 0 0 0 0 0 0 0 0 0 0 0 127 0" result="hardAlpha"/>
<feOffset dy="8"/>
<feGaussianBlur stdDeviation="8"/>
<feColorMatrix type="matrix" values="0 0 0 0 0 0 0 0 0 0 0 0 0 0 0 0 0 0 0.15 0"/>
<feBlend mode="normal" in2="BackgroundImageFix" result="effect1_dropShadow_4168_45563"/>
<feBlend mode="normal" in="SourceGraphic" in2="effect1_dropShadow_4168_45563" result="shape"/>
</filter>
<filter id="filter11_d_4168_45563" x="-4" y="1432" width="368" height="120" filterUnits="userSpaceOnUse" color-interpolation-filters="sRGB">
<feFlood flood-opacity="0" result="BackgroundImageFix"/>
<feColorMatrix in="SourceAlpha" type="matrix" values="0 0 0 0 0 0 0 0 0 0 0 0 0 0 0 0 0 0 127 0" result="hardAlpha"/>
<feOffset dy="8"/>
<feGaussianBlur stdDeviation="8"/>
<feColorMatrix type="matrix" values="0 0 0 0 0 0 0 0 0 0 0 0 0 0 0 0 0 0 0.15 0"/>
<feBlend mode="normal" in2="BackgroundImageFix" result="effect1_dropShadow_4168_45563"/>
<feBlend mode="normal" in="SourceGraphic" in2="effect1_dropShadow_4168_45563" result="shape"/>
</filter>
<filter id="filter12_d_4168_45563" x="-4" y="1532" width="368" height="120" filterUnits="userSpaceOnUse" color-interpolation-filters="sRGB">
<feFlood flood-opacity="0" result="BackgroundImageFix"/>
<feColorMatrix in="SourceAlpha" type="matrix" values="0 0 0 0 0 0 0 0 0 0 0 0 0 0 0 0 0 0 127 0" result="hardAlpha"/>
<feOffset dy="8"/>
<feGaussianBlur stdDeviation="8"/>
<feColorMatrix type="matrix" values="0 0 0 0 0 0 0 0 0 0 0 0 0 0 0 0 0 0 0.15 0"/>
<feBlend mode="normal" in2="BackgroundImageFix" result="effect1_dropShadow_4168_45563"/>
<feBlend mode="normal" in="SourceGraphic" in2="effect1_dropShadow_4168_45563" result="shape"/>
</filter>
<filter id="filter13_d_4168_45563" x="-4" y="1632" width="368" height="120" filterUnits="userSpaceOnUse" color-interpolation-filters="sRGB">
<feFlood flood-opacity="0" result="BackgroundImageFix"/>
<feColorMatrix in="SourceAlpha" type="matrix" values="0 0 0 0 0 0 0 0 0 0 0 0 0 0 0 0 0 0 127 0" result="hardAlpha"/>
<feOffset dy="8"/>
<feGaussianBlur stdDeviation="8"/>
<feColorMatrix type="matrix" values="0 0 0 0 0 0 0 0 0 0 0 0 0 0 0 0 0 0 0.15 0"/>
<feBlend mode="normal" in2="BackgroundImageFix" result="effect1_dropShadow_4168_45563"/>
<feBlend mode="normal" in="SourceGraphic" in2="effect1_dropShadow_4168_45563" result="shape"/>
</filter>
<filter id="filter14_d_4168_45563" x="-4" y="1732" width="368" height="120" filterUnits="userSpaceOnUse" color-interpolation-filters="sRGB">
<feFlood flood-opacity="0" result="BackgroundImageFix"/>
<feColorMatrix in="SourceAlpha" type="matrix" values="0 0 0 0 0 0 0 0 0 0 0 0 0 0 0 0 0 0 127 0" result="hardAlpha"/>
<feOffset dy="8"/>
<feGaussianBlur stdDeviation="8"/>
<feColorMatrix type="matrix" values="0 0 0 0 0 0 0 0 0 0 0 0 0 0 0 0 0 0 0.15 0"/>
<feBlend mode="normal" in2="BackgroundImageFix" result="effect1_dropShadow_4168_45563"/>
<feBlend mode="normal" in="SourceGraphic" in2="effect1_dropShadow_4168_45563" result="shape"/>
</filter>
<filter id="filter15_d_4168_45563" x="-4" y="1832" width="368" height="120" filterUnits="userSpaceOnUse" color-interpolation-filters="sRGB">
<feFlood flood-opacity="0" result="BackgroundImageFix"/>
<feColorMatrix in="SourceAlpha" type="matrix" values="0 0 0 0 0 0 0 0 0 0 0 0 0 0 0 0 0 0 127 0" result="hardAlpha"/>
<feOffset dy="8"/>
<feGaussianBlur stdDeviation="8"/>
<feColorMatrix type="matrix" values="0 0 0 0 0 0 0 0 0 0 0 0 0 0 0 0 0 0 0.15 0"/>
<feBlend mode="normal" in2="BackgroundImageFix" result="effect1_dropShadow_4168_45563"/>
<feBlend mode="normal" in="SourceGraphic" in2="effect1_dropShadow_4168_45563" result="shape"/>
</filter>
<filter id="filter16_d_4168_45563" x="-4" y="1932" width="368" height="120" filterUnits="userSpaceOnUse" color-interpolation-filters="sRGB">
<feFlood flood-opacity="0" result="BackgroundImageFix"/>
<feColorMatrix in="SourceAlpha" type="matrix" values="0 0 0 0 0 0 0 0 0 0 0 0 0 0 0 0 0 0 127 0" result="hardAlpha"/>
<feOffset dy="8"/>
<feGaussianBlur stdDeviation="8"/>
<feColorMatrix type="matrix" values="0 0 0 0 0 0 0 0 0 0 0 0 0 0 0 0 0 0 0.15 0"/>
<feBlend mode="normal" in2="BackgroundImageFix" result="effect1_dropShadow_4168_45563"/>
<feBlend mode="normal" in="SourceGraphic" in2="effect1_dropShadow_4168_45563" result="shape"/>
</filter>
<filter id="filter17_d_4168_45563" x="-4" y="2032" width="368" height="120" filterUnits="userSpaceOnUse" color-interpolation-filters="sRGB">
<feFlood flood-opacity="0" result="BackgroundImageFix"/>
<feColorMatrix in="SourceAlpha" type="matrix" values="0 0 0 0 0 0 0 0 0 0 0 0 0 0 0 0 0 0 127 0" result="hardAlpha"/>
<feOffset dy="8"/>
<feGaussianBlur stdDeviation="8"/>
<feColorMatrix type="matrix" values="0 0 0 0 0 0 0 0 0 0 0 0 0 0 0 0 0 0 0.15 0"/>
<feBlend mode="normal" in2="BackgroundImageFix" result="effect1_dropShadow_4168_45563"/>
<feBlend mode="normal" in="SourceGraphic" in2="effect1_dropShadow_4168_45563" result="shape"/>
</filter>
<filter id="filter18_d_4168_45563" x="-4" y="2132" width="368" height="120" filterUnits="userSpaceOnUse" color-interpolation-filters="sRGB">
<feFlood flood-opacity="0" result="BackgroundImageFix"/>
<feColorMatrix in="SourceAlpha" type="matrix" values="0 0 0 0 0 0 0 0 0 0 0 0 0 0 0 0 0 0 127 0" result="hardAlpha"/>
<feOffset dy="8"/>
<feGaussianBlur stdDeviation="8"/>
<feColorMatrix type="matrix" values="0 0 0 0 0 0 0 0 0 0 0 0 0 0 0 0 0 0 0.15 0"/>
<feBlend mode="normal" in2="BackgroundImageFix" result="effect1_dropShadow_4168_45563"/>
<feBlend mode="normal" in="SourceGraphic" in2="effect1_dropShadow_4168_45563" result="shape"/>
</filter>
<clipPath id="clip0_4168_45563">
<rect width="360" height="2436" fill="white"/>
</clipPath>
<clipPath id="clip1_4168_45563">
<rect width="47" height="24" fill="white" transform="translate(301 12)"/>
</clipPath>
<clipPath id="clip2_4168_45563">
<rect x="12" y="268" width="178" height="48" rx="4" fill="white"/>
</clipPath>
<clipPath id="clip3_4168_45563">
<rect x="12" y="340" width="336" height="88.0001" rx="4" fill="white"/>
</clipPath>
<clipPath id="clip4_4168_45563">
<rect width="24" height="24" fill="white" transform="translate(308 372)"/>
</clipPath>
<clipPath id="clip5_4168_45563">
<rect x="12" y="440" width="336" height="88.0001" rx="4" fill="white"/>
</clipPath>
<clipPath id="clip6_4168_45563">
<rect width="24" height="24" fill="white" transform="translate(308 472)"/>
</clipPath>
<clipPath id="clip7_4168_45563">
<rect x="12" y="540" width="336" height="88.0001" rx="4" fill="white"/>
</clipPath>
<clipPath id="clip8_4168_45563">
<rect width="24" height="24" fill="white" transform="translate(308 572)"/>
</clipPath>
<clipPath id="clip9_4168_45563">
<rect x="12" y="640" width="336" height="88" rx="4" fill="white"/>
</clipPath>
<clipPath id="clip10_4168_45563">
<rect width="24" height="24" fill="white" transform="translate(308 672)"/>
</clipPath>
<clipPath id="clip11_4168_45563">
<rect x="12" y="740" width="336" height="88.0001" rx="4" fill="white"/>
</clipPath>
<clipPath id="clip12_4168_45563">
<rect width="24" height="24" fill="white" transform="translate(308 772)"/>
</clipPath>
<clipPath id="clip13_4168_45563">
<rect x="12" y="840" width="336" height="88" rx="4" fill="white"/>
</clipPath>
<clipPath id="clip14_4168_45563">
<rect width="24" height="24" fill="white" transform="translate(308 872)"/>
</clipPath>
<clipPath id="clip15_4168_45563">
<rect x="12" y="940" width="336" height="88.0001" rx="4" fill="white"/>
</clipPath>
<clipPath id="clip16_4168_45563">
<rect width="24" height="24" fill="white" transform="translate(308 972)"/>
</clipPath>
<clipPath id="clip17_4168_45563">
<rect x="12" y="1040" width="336" height="88.0001" rx="4" fill="white"/>
</clipPath>
<clipPath id="clip18_4168_45563">
<rect width="24" height="24" fill="white" transform="translate(308 1072)"/>
</clipPath>
<clipPath id="clip19_4168_45563">
<rect x="12" y="1140" width="336" height="88.0001" rx="4" fill="white"/>
</clipPath>
<clipPath id="clip20_4168_45563">
<rect width="24" height="24" fill="white" transform="translate(308 1172)"/>
</clipPath>
<clipPath id="clip21_4168_45563">
<rect x="12" y="1240" width="336" height="88.0001" rx="4" fill="white"/>
</clipPath>
<clipPath id="clip22_4168_45563">
<rect width="24" height="24" fill="white" transform="translate(308 1272)"/>
</clipPath>
<clipPath id="clip23_4168_45563">
<rect x="12" y="1340" width="336" height="88" rx="4" fill="white"/>
</clipPath>
<clipPath id="clip24_4168_45563">
<rect width="24" height="24" fill="white" transform="translate(308 1372)"/>
</clipPath>
<clipPath id="clip25_4168_45563">
<rect x="12" y="1440" width="336" height="88.0001" rx="4" fill="white"/>
</clipPath>
<clipPath id="clip26_4168_45563">
<rect width="24" height="24" fill="white" transform="translate(308 1472)"/>
</clipPath>
<clipPath id="clip27_4168_45563">
<rect x="12" y="1540" width="336" height="88.0001" rx="4" fill="white"/>
</clipPath>
<clipPath id="clip28_4168_45563">
<rect width="24" height="24" fill="white" transform="translate(308 1572)"/>
</clipPath>
<clipPath id="clip29_4168_45563">
<rect x="12" y="1640" width="336" height="88.0001" rx="4" fill="white"/>
</clipPath>
<clipPath id="clip30_4168_45563">
<rect width="24" height="24" fill="white" transform="translate(308 1672)"/>
</clipPath>
<clipPath id="clip31_4168_45563">
<rect x="12" y="1740" width="336" height="88.0001" rx="4" fill="white"/>
</clipPath>
<clipPath id="clip32_4168_45563">
<rect width="24" height="24" fill="white" transform="translate(308 1772)"/>
</clipPath>
<clipPath id="clip33_4168_45563">
<rect x="12" y="1840" width="336" height="88.0001" rx="4" fill="white"/>
</clipPath>
<clipPath id="clip34_4168_45563">
<rect width="24" height="24" fill="white" transform="translate(308 1872)"/>
</clipPath>
<clipPath id="clip35_4168_45563">
<rect x="12" y="1940" width="336" height="88.0001" rx="4" fill="white"/>
</clipPath>
<clipPath id="clip36_4168_45563">
<rect width="24" height="24" fill="white" transform="translate(308 1972)"/>
</clipPath>
<clipPath id="clip37_4168_45563">
<rect x="12" y="2040" width="336" height="88.0001" rx="4" fill="white"/>
</clipPath>
<clipPath id="clip38_4168_45563">
<rect width="24" height="24" fill="white" transform="translate(308 2072)"/>
</clipPath>
<clipPath id="clip39_4168_45563">
<rect x="12" y="2140" width="336" height="88.0001" rx="4" fill="white"/>
</clipPath>
<clipPath id="clip40_4168_45563">
<rect width="24" height="24" fill="white" transform="translate(308 2172)"/>
</clipPath>
</defs>
</svg>
