<svg xmlns="http://www.w3.org/2000/svg" xmlns:xlink="http://www.w3.org/1999/xlink" contentStyleType="text/css" data-diagram-type="DESCRIPTION" height="363px" preserveAspectRatio="none" style="width:934px;height:363px;background:#FFFFFF;" version="1.1" viewBox="0 0 934 363" width="934px" zoomAndPan="magnify"><defs/><g><!--entity user--><g class="entity" data-entity="user" data-source-line="1" data-uid="ent0002" id="entity_user"><ellipse cx="442.4551" cy="14" fill="#F1F1F1" rx="8" ry="8" style="stroke:#181818;stroke-width:0.5;"/><path d="M442.4551,22 L442.4551,49 M429.4551,30 L455.4551,30 M442.4551,49 L429.4551,64 M442.4551,49 L455.4551,64" fill="none" style="stroke:#181818;stroke-width:0.5;"/><text fill="#000000" font-family="sans-serif" font-size="14" lengthAdjust="spacing" textLength="31.9102" x="426.5" y="78.4951">User</text></g><!--entity wallet_provider--><g class="entity" data-entity="wallet_provider" data-source-line="2" data-uid="ent0003" id="entity_wallet_provider"><ellipse cx="874.4741" cy="167" fill="#F1F1F1" rx="8" ry="8" style="stroke:#181818;stroke-width:0.5;"/><path d="M874.4741,175 L874.4741,202 M861.4741,183 L887.4741,183 M874.4741,202 L861.4741,217 M874.4741,202 L887.4741,217" fill="none" style="stroke:#181818;stroke-width:0.5;"/><text fill="#000000" font-family="sans-serif" font-size="14" lengthAdjust="spacing" textLength="106.9482" x="821" y="231.4951">Wallet Provider</text></g><!--entity oem--><g class="entity" data-entity="oem" data-source-line="3" data-uid="ent0004" id="entity_oem"><ellipse cx="681.6367" cy="14" fill="#F1F1F1" rx="8" ry="8" style="stroke:#181818;stroke-width:0.5;"/><path d="M681.6367,22 L681.6367,49 M668.6367,30 L694.6367,30 M681.6367,49 L668.6367,64 M681.6367,49 L694.6367,64" fill="none" style="stroke:#181818;stroke-width:0.5;"/><text fill="#000000" font-family="sans-serif" font-size="14" lengthAdjust="spacing" textLength="84.2734" x="639.5" y="78.4951">Device OEM</text></g><!--entity wallet_solution--><g class="entity" data-entity="wallet_solution" data-source-line="5" data-uid="ent0005" id="entity_wallet_solution"><rect fill="#EE82EE" height="46.2969" rx="2.5" ry="2.5" style="stroke:#181818;stroke-width:0.5;" width="145.7861" x="369.5" y="311.5"/><rect fill="#EE82EE" height="10" style="stroke:#181818;stroke-width:0.5;" width="15" x="495.2861" y="316.5"/><rect fill="#EE82EE" height="2" style="stroke:#181818;stroke-width:0.5;" width="4" x="493.2861" y="318.5"/><rect fill="#EE82EE" height="2" style="stroke:#181818;stroke-width:0.5;" width="4" x="493.2861" y="322.5"/><text fill="#000000" font-family="sans-serif" font-size="14" lengthAdjust="spacing" textLength="105.7861" x="384.5" y="344.4951">Wallet Solution</text></g><!--entity wallet_instance--><g class="entity" data-entity="wallet_instance" data-source-line="6" data-uid="ent0006" id="entity_wallet_instance"><rect fill="#FFFF00" height="46.2969" rx="2.5" ry="2.5" style="stroke:#181818;stroke-width:0.5;" width="148.3018" x="368.5" y="173.5"/><rect fill="#FFFF00" height="10" style="stroke:#181818;stroke-width:0.5;" width="15" x="496.8018" y="178.5"/><rect fill="#FFFF00" height="2" style="stroke:#181818;stroke-width:0.5;" width="4" x="494.8018" y="180.5"/><rect fill="#FFFF00" height="2" style="stroke:#181818;stroke-width:0.5;" width="4" x="494.8018" y="184.5"/><text fill="#000000" font-family="sans-serif" font-size="14" lengthAdjust="spacing" textLength="108.3018" x="383.5" y="206.4951">Wallet Instance</text></g><!--entity wallet_backend--><g class="entity" data-entity="wallet_backend" data-source-line="7" data-uid="ent0007" id="entity_wallet_backend"><rect fill="#F1F1F1" height="46.2969" rx="2.5" ry="2.5" style="stroke:#181818;stroke-width:0.5;" width="149.1152" x="7" y="173.5"/><rect fill="#F1F1F1" height="10" style="stroke:#181818;stroke-width:0.5;" width="15" x="136.1152" y="178.5"/><rect fill="#F1F1F1" height="2" style="stroke:#181818;stroke-width:0.5;" width="4" x="134.1152" y="180.5"/><rect fill="#F1F1F1" height="2" style="stroke:#181818;stroke-width:0.5;" width="4" x="134.1152" y="184.5"/><text fill="#000000" font-family="sans-serif" font-size="14" lengthAdjust="spacing" textLength="109.1152" x="22" y="206.4951">Wallet Backend</text></g><!--entity integrity_api--><g class="entity" data-entity="integrity_api" data-source-line="8" data-uid="ent0008" id="entity_integrity_api"><rect fill="#FF0000" height="46.2969" rx="2.5" ry="2.5" style="stroke:#181818;stroke-width:0.5;" width="207.9316" x="577.5" y="173.5"/><rect fill="#FF0000" height="10" style="stroke:#181818;stroke-width:0.5;" width="15" x="765.4316" y="178.5"/><rect fill="#FF0000" height="2" style="stroke:#181818;stroke-width:0.5;" width="4" x="763.4316" y="180.5"/><rect fill="#FF0000" height="2" style="stroke:#181818;stroke-width:0.5;" width="4" x="763.4316" y="184.5"/><text fill="#000000" font-family="sans-serif" font-size="14" lengthAdjust="spacing" textLength="167.9316" x="592.5" y="206.4951">Device Integrity Service</text></g><!--link wallet_instance to integrity_api--><g class="link" data-entity-1="wallet_instance" data-entity-2="integrity_api" data-source-line="10" data-uid="lnk9" id="link_wallet_instance_integrity_api"><path d="M516.81,196.5 C536,196.5 551,196.5 571.4,196.5" fill="none" id="wallet_instance-to-integrity_api" style="stroke:#181818;stroke-width:1;"/><polygon fill="#181818" points="577.4,196.5,568.4,192.5,572.4,196.5,568.4,200.5,577.4,196.5" style="stroke:#181818;stroke-width:1;"/><text fill="#000000" font-family="sans-serif" font-size="13" lengthAdjust="spacing" textLength="24.2861" x="535" y="189.5669">Use</text></g><!--link wallet_backend to integrity_api--><g class="link" data-entity-1="wallet_backend" data-entity-2="integrity_api" data-source-line="11" data-uid="lnk10" id="link_wallet_backend_integrity_api"><path d="M125.81,173.4 C162.21,155.8 215.71,133.02 265.5,123.5 C393.7,99 539.1121,141.7799 619.2521,171.3999" fill="none" id="wallet_backend-to-integrity_api" style="stroke:#181818;stroke-width:1;"/><polygon fill="#181818" points="624.88,173.48,617.8249,166.6079,620.1901,171.7466,615.0514,174.1118,624.88,173.48" style="stroke:#181818;stroke-width:1;"/><text fill="#000000" font-family="sans-serif" font-size="13" lengthAdjust="spacing" textLength="24.2861" x="266.5" y="124.5669">Use</text></g><!--link wallet_backend to wallet_solution--><g class="link" data-entity-1="wallet_backend" data-entity-2="wallet_solution" data-source-line="13" data-uid="lnk11" id="link_wallet_backend_wallet_solution"><path d="M139.9,219.5 C207.05,244.8 311.0252,283.9748 378.2652,309.3048" fill="none" id="wallet_backend-to-wallet_solution" style="stroke:#181818;stroke-width:1;"/><polygon fill="#181818" points="383.88,311.42,376.8679,304.5041,379.201,309.6574,374.0477,311.9905,383.88,311.42" style="stroke:#181818;stroke-width:1;"/><text fill="#000000" font-family="sans-serif" font-size="13" lengthAdjust="spacing" textLength="58.062" x="295.5" y="277.5669">Is part of</text></g><!--link wallet_backend to wallet_instance--><g class="link" data-entity-1="wallet_backend" data-entity-2="wallet_instance" data-source-line="14" data-uid="lnk12" id="link_wallet_backend_wallet_instance"><path d="M156.3,196.5 C218.46,196.5 300.45,196.5 362.41,196.5" fill="none" id="wallet_backend-to-wallet_instance" style="stroke:#181818;stroke-width:1;"/><polygon fill="#181818" points="368.41,196.5,359.41,192.5,363.41,196.5,359.41,200.5,368.41,196.5" style="stroke:#181818;stroke-width:1;"/><text fill="#000000" font-family="sans-serif" font-size="13" lengthAdjust="spacing" textLength="176.6934" x="174.25" y="189.5669">Provides Wallet Attestation</text></g><!--link user to wallet_instance--><g class="link" data-entity-1="user" data-entity-2="wallet_instance" data-source-line="17" data-uid="lnk13" id="link_user_wallet_instance"><path d="M442.5,81.83 C442.5,110.47 442.5,143.07 442.5,167.11" fill="none" id="user-to-wallet_instance" style="stroke:#181818;stroke-width:1;"/><polygon fill="#181818" points="442.5,173.11,446.5,164.11,442.5,168.11,438.5,164.11,442.5,173.11" style="stroke:#181818;stroke-width:1;"/><text fill="#000000" font-family="sans-serif" font-size="13" lengthAdjust="spacing" textLength="110.5698" x="443.5" y="124.5669">control / activate</text></g><!--link wallet_instance to wallet_solution--><g class="link" data-entity-1="wallet_instance" data-entity-2="wallet_solution" data-source-line="18" data-uid="lnk14" id="link_wallet_instance_wallet_solution"><path d="M442.5,219.65 C442.5,244.94 442.5,280.07 442.5,305.36" fill="none" id="wallet_instance-to-wallet_solution" style="stroke:#181818;stroke-width:1;"/><polygon fill="#181818" points="442.5,311.36,446.5,302.36,442.5,306.36,438.5,302.36,442.5,311.36" style="stroke:#181818;stroke-width:1;"/><text fill="#000000" font-family="sans-serif" font-size="13" lengthAdjust="spacing" textLength="106.812" x="443.5" y="277.5669">Is an instance of</text></g><!--link wallet_provider to wallet_solution--><g class="link" data-entity-1="wallet_provider" data-entity-2="wallet_solution" data-source-line="19" data-uid="lnk15" id="link_wallet_provider_wallet_solution"><path d="M820.78,227 C815.03,229.71 809.19,232.27 803.5,234.5 C706.56,272.55 595.3858,300.4526 521.3958,316.9726" fill="none" id="wallet_provider-to-wallet_solution" style="stroke:#181818;stroke-width:1;"/><polygon fill="#181818" points="515.54,318.28,525.1954,320.2227,520.4198,317.1905,523.4521,312.415,515.54,318.28" style="stroke:#181818;stroke-width:1;"/><text fill="#000000" font-family="sans-serif" font-size="13" lengthAdjust="spacing" textLength="48.6929" x="716.5" y="277.5669">Provide</text></g><!--link oem to integrity_api--><g class="link" data-entity-1="oem" data-entity-2="integrity_api" data-source-line="20" data-uid="lnk16" id="link_oem_integrity_api"><path d="M681.5,81.83 C681.5,110.47 681.5,143.07 681.5,167.11" fill="none" id="oem-to-integrity_api" style="stroke:#181818;stroke-width:1;"/><polygon fill="#181818" points="681.5,173.11,685.5,164.11,681.5,168.11,677.5,164.11,681.5,173.11" style="stroke:#181818;stroke-width:1;"/><text fill="#000000" font-family="sans-serif" font-size="13" lengthAdjust="spacing" textLength="48.6929" x="682.5" y="124.5669">Provide</text></g><!--SRC=[XP8nJyCm48Lt_ugdPexOCo0LmP01WLGXnieuHx5mVP5zJTL_toHrGaXJsApFxvsVxquRuO3LMwImWeuuj0SeVQ7lsZaIl0PkR9K4nvvjwyH6xICrrX1Udfvx6TCUIXdUr-p9orXhm-uWblsqLamCMMEv1GksqaVHtj3KPXD3TYBd-BXWUz3cctmrTNrS4ARgbBtqGhjWvOGDXOxqFZlGhQuja0Mgb9f7o8FTVKb-_rjTeEshcZtyb_IcTjQf0cL4hOE0F__p31cBOOuHgJjh4Mhlke9AgNxo-PBFi9V03dTePsqRBNJz_niPjSUe-OawBi-YBSLKtGhbrtrArsS0]--></g></svg>