<svg width="291" height="234" viewBox="0 0 291 234" fill="none" xmlns="http://www.w3.org/2000/svg">
<rect x="0.5" y="0.5" width="290" height="233" rx="4.5" stroke="#7B61FF" stroke-dasharray="10 5"/>
<rect x="20" y="20" width="251" height="60" rx="4" fill="#0066CC"/>
<g clip-path="url(#clip0_40002002_559)">
<path d="M53.4711 38.1181C53.3255 38.0357 53.1708 37.9991 53.0207 38C52.5465 38.0037 52.1117 38.3836 52.1144 38.9127L52.141 43.7572L45.3722 39.9609C45.2258 39.8785 45.0711 39.8419 44.9209 39.8428C44.4467 39.8464 44.0156 40.2264 44.0146 40.7555L44 56.7225C44 57.4429 44.3241 58.0709 45.018 58.46L51.1029 61.8819C51.2493 61.9643 51.404 62.0009 51.5542 62C52.0284 61.9963 52.4605 61.6164 52.4605 61.0873V44.7138L55.6773 46.5044C56.3721 46.8907 56.6953 47.5215 56.6953 48.2419V57.8357L62.7124 61.2109C62.8589 61.2933 63.0136 61.3299 63.1637 61.329C63.6379 61.3253 64.07 60.9454 64.07 60.4163L64.0764 45.2338C64.0764 44.5133 63.7523 43.8854 63.0584 43.4963L53.4711 38.1181Z" fill="white"/>
</g>
<path d="M98.6076 57H91.6956V44.67H93.6936V55.218H98.6076V57ZM100.491 48.972C101.115 48.192 102.147 47.802 103.587 47.802C105.027 47.802 106.053 48.192 106.665 48.972C107.289 49.752 107.601 50.922 107.601 52.482C107.601 54.042 107.301 55.218 106.701 56.01C106.101 56.802 105.063 57.198 103.587 57.198C102.111 57.198 101.073 56.802 100.473 56.01C99.8725 55.218 99.5725 54.042 99.5725 52.482C99.5725 50.922 99.8785 49.752 100.491 48.972ZM101.967 54.822C102.243 55.302 102.783 55.542 103.587 55.542C104.391 55.542 104.931 55.302 105.207 54.822C105.483 54.342 105.621 53.556 105.621 52.464C105.621 51.372 105.471 50.598 105.171 50.142C104.883 49.686 104.355 49.458 103.587 49.458C102.819 49.458 102.285 49.686 101.985 50.142C101.697 50.598 101.553 51.372 101.553 52.464C101.553 53.556 101.691 54.342 101.967 54.822ZM117.415 58.224C117.415 60.192 115.993 61.176 113.149 61.176C111.781 61.176 110.767 60.99 110.107 60.618C109.447 60.246 109.117 59.568 109.117 58.584C109.117 58.14 109.225 57.756 109.441 57.432C109.657 57.12 110.005 56.778 110.485 56.406C110.089 56.142 109.891 55.704 109.891 55.092C109.891 54.852 110.053 54.462 110.377 53.922L110.539 53.652C109.675 53.136 109.243 52.236 109.243 50.952C109.243 49.872 109.567 49.08 110.215 48.576C110.863 48.072 111.739 47.82 112.843 47.82C113.371 47.82 113.893 47.88 114.409 48L114.679 48.054L117.469 47.982V49.566L115.975 49.476C116.299 49.896 116.461 50.388 116.461 50.952C116.461 52.128 116.161 52.944 115.561 53.4C114.973 53.844 114.049 54.066 112.789 54.066C112.477 54.066 112.213 54.042 111.997 53.994C111.829 54.402 111.745 54.72 111.745 54.948C111.745 55.164 111.853 55.314 112.069 55.398C112.297 55.482 112.837 55.53 113.689 55.542C115.117 55.554 116.095 55.746 116.623 56.118C117.151 56.49 117.415 57.192 117.415 58.224ZM111.043 58.404C111.043 58.824 111.211 59.124 111.547 59.304C111.883 59.484 112.459 59.574 113.275 59.574C114.727 59.574 115.453 59.16 115.453 58.332C115.453 57.864 115.321 57.564 115.057 57.432C114.805 57.312 114.295 57.246 113.527 57.234L111.763 57.126C111.499 57.342 111.313 57.54 111.205 57.72C111.097 57.912 111.043 58.14 111.043 58.404ZM111.187 50.952C111.187 51.504 111.319 51.912 111.583 52.176C111.847 52.428 112.273 52.554 112.861 52.554C113.449 52.554 113.869 52.428 114.121 52.176C114.385 51.912 114.517 51.504 114.517 50.952C114.517 50.4 114.385 49.998 114.121 49.746C113.857 49.482 113.431 49.35 112.843 49.35C111.739 49.35 111.187 49.884 111.187 50.952ZM119.006 57V48H120.968V57H119.006ZM119.006 46.47V44.4H120.968V46.47H119.006ZM125.31 57H123.348V48H125.292V48.558C126.168 48.054 126.996 47.802 127.776 47.802C128.976 47.802 129.792 48.144 130.224 48.828C130.668 49.5 130.89 50.616 130.89 52.176V57H128.946V52.23C128.946 51.258 128.838 50.568 128.622 50.16C128.418 49.752 127.992 49.548 127.344 49.548C126.732 49.548 126.144 49.668 125.58 49.908L125.31 50.016V57ZM136.428 48H138.354L139.776 55.326H140.136L141.846 48.18H143.862L145.572 55.326H145.932L147.336 48H149.28L147.372 57H144.258L142.854 50.826L141.45 57H138.336L136.428 48ZM150.946 57V48H152.908V57H150.946ZM150.946 46.47V44.4H152.908V46.47H150.946ZM160.13 49.674H157.646V53.634C157.646 54.366 157.7 54.852 157.808 55.092C157.916 55.332 158.192 55.452 158.636 55.452L160.112 55.398L160.202 56.964C159.398 57.12 158.786 57.198 158.366 57.198C157.346 57.198 156.644 56.964 156.26 56.496C155.888 56.028 155.702 55.146 155.702 53.85V49.674H154.55V48H155.702V45.39H157.646V48H160.13V49.674ZM163.701 57H161.739V44.256H163.701V48.468C164.589 48.024 165.411 47.802 166.167 47.802C167.367 47.802 168.183 48.144 168.615 48.828C169.059 49.5 169.281 50.616 169.281 52.176V57H167.319V52.23C167.319 51.258 167.217 50.568 167.013 50.16C166.809 49.752 166.377 49.548 165.717 49.548C165.141 49.548 164.565 49.644 163.989 49.836L163.701 49.944V57ZM175.754 57V44.67H177.752V57H175.754ZM179.4 46.452V44.67H188.4V46.452H184.926V57H182.91V46.452H179.4ZM188.666 53.04V51.258H194.048V53.04H188.666ZM195.278 44.67H197.384L199.148 55.272H199.526L201.866 44.706H204.206L206.546 55.272H206.942L208.706 44.67H210.812L208.382 57H205.16L203.036 47.118L200.93 57H197.69L195.278 44.67ZM218.831 50.772V54.876C218.843 55.14 218.909 55.338 219.029 55.47C219.161 55.59 219.359 55.668 219.623 55.704L219.569 57.198C218.537 57.198 217.739 56.976 217.175 56.532C216.215 56.976 215.249 57.198 214.277 57.198C212.489 57.198 211.595 56.244 211.595 54.336C211.595 53.424 211.835 52.764 212.315 52.356C212.807 51.948 213.557 51.702 214.565 51.618L216.887 51.42V50.772C216.887 50.292 216.779 49.956 216.563 49.764C216.359 49.572 216.053 49.476 215.645 49.476C214.877 49.476 213.917 49.524 212.765 49.62L212.189 49.656L212.117 48.27C213.425 47.958 214.625 47.802 215.717 47.802C216.821 47.802 217.613 48.042 218.093 48.522C218.585 48.99 218.831 49.74 218.831 50.772ZM214.799 53.004C213.971 53.076 213.557 53.526 213.557 54.354C213.557 55.182 213.923 55.596 214.655 55.596C215.255 55.596 215.891 55.5 216.563 55.308L216.887 55.2V52.806L214.799 53.004ZM221.402 57V44.256H223.364V57H221.402ZM225.954 57V44.256H227.916V57H225.954ZM236.807 55.38L237.311 55.326L237.347 56.784C235.979 57.06 234.767 57.198 233.711 57.198C232.379 57.198 231.419 56.832 230.831 56.1C230.255 55.368 229.967 54.198 229.967 52.59C229.967 49.398 231.269 47.802 233.873 47.802C236.393 47.802 237.653 49.176 237.653 51.924L237.527 53.328H231.947C231.959 54.072 232.121 54.618 232.433 54.966C232.745 55.314 233.327 55.488 234.179 55.488C235.031 55.488 235.907 55.452 236.807 55.38ZM235.727 51.816C235.727 50.928 235.583 50.31 235.295 49.962C235.019 49.602 234.545 49.422 233.873 49.422C233.201 49.422 232.709 49.608 232.397 49.98C232.097 50.352 231.941 50.964 231.929 51.816H235.727ZM244.382 49.674H241.898V53.634C241.898 54.366 241.952 54.852 242.06 55.092C242.168 55.332 242.444 55.452 242.888 55.452L244.364 55.398L244.454 56.964C243.65 57.12 243.038 57.198 242.618 57.198C241.598 57.198 240.896 56.964 240.512 56.496C240.14 56.028 239.954 55.146 239.954 53.85V49.674H238.802V48H239.954V45.39H241.898V48H244.382V49.674Z" fill="white"/>
<rect x="20" y="103" width="251" height="48" rx="4" fill="#0066CC"/>
<g clip-path="url(#clip1_40002002_559)">
<path d="M53.4711 115.118C53.3255 115.036 53.1708 114.999 53.0207 115C52.5465 115.004 52.1117 115.384 52.1144 115.913L52.141 120.757L45.3722 116.961C45.2258 116.878 45.0711 116.842 44.9209 116.843C44.4467 116.846 44.0156 117.226 44.0146 117.755L44 133.722C44 134.443 44.3241 135.071 45.018 135.46L51.1029 138.882C51.2493 138.964 51.404 139.001 51.5542 139C52.0284 138.996 52.4605 138.616 52.4605 138.087V121.714L55.6773 123.504C56.3721 123.891 56.6953 124.521 56.6953 125.242V134.836L62.7124 138.211C62.8589 138.293 63.0136 138.33 63.1637 138.329C63.6379 138.325 64.07 137.945 64.07 137.416L64.0764 122.234C64.0764 121.513 63.7523 120.885 63.0584 120.496L53.4711 115.118Z" fill="white"/>
</g>
<path d="M106.267 133H100.123V122.04H101.899V131.416H106.267V133ZM107.94 125.864C108.495 125.171 109.412 124.824 110.692 124.824C111.972 124.824 112.884 125.171 113.428 125.864C113.983 126.557 114.26 127.597 114.26 128.984C114.26 130.371 113.994 131.416 113.46 132.12C112.927 132.824 112.004 133.176 110.692 133.176C109.38 133.176 108.458 132.824 107.924 132.12C107.391 131.416 107.124 130.371 107.124 128.984C107.124 127.597 107.396 126.557 107.94 125.864ZM109.252 131.064C109.498 131.491 109.978 131.704 110.692 131.704C111.407 131.704 111.887 131.491 112.132 131.064C112.378 130.637 112.5 129.939 112.5 128.968C112.5 127.997 112.367 127.309 112.1 126.904C111.844 126.499 111.375 126.296 110.692 126.296C110.01 126.296 109.535 126.499 109.268 126.904C109.012 127.309 108.884 127.997 108.884 128.968C108.884 129.939 109.007 130.637 109.252 131.064ZM122.985 134.088C122.985 135.837 121.721 136.712 119.193 136.712C117.977 136.712 117.075 136.547 116.489 136.216C115.902 135.885 115.609 135.283 115.609 134.408C115.609 134.013 115.705 133.672 115.897 133.384C116.089 133.107 116.398 132.803 116.825 132.472C116.473 132.237 116.297 131.848 116.297 131.304C116.297 131.091 116.441 130.744 116.729 130.264L116.873 130.024C116.105 129.565 115.721 128.765 115.721 127.624C115.721 126.664 116.009 125.96 116.585 125.512C117.161 125.064 117.939 124.84 118.921 124.84C119.39 124.84 119.854 124.893 120.313 125L120.553 125.048L123.033 124.984V126.392L121.705 126.312C121.993 126.685 122.137 127.123 122.137 127.624C122.137 128.669 121.87 129.395 121.337 129.8C120.814 130.195 119.993 130.392 118.873 130.392C118.595 130.392 118.361 130.371 118.169 130.328C118.019 130.691 117.945 130.973 117.945 131.176C117.945 131.368 118.041 131.501 118.233 131.576C118.435 131.651 118.915 131.693 119.673 131.704C120.942 131.715 121.811 131.885 122.281 132.216C122.75 132.547 122.985 133.171 122.985 134.088ZM117.321 134.248C117.321 134.621 117.47 134.888 117.769 135.048C118.067 135.208 118.579 135.288 119.305 135.288C120.595 135.288 121.241 134.92 121.241 134.184C121.241 133.768 121.123 133.501 120.889 133.384C120.665 133.277 120.211 133.219 119.529 133.208L117.961 133.112C117.726 133.304 117.561 133.48 117.465 133.64C117.369 133.811 117.321 134.013 117.321 134.248ZM117.449 127.624C117.449 128.115 117.566 128.477 117.801 128.712C118.035 128.936 118.414 129.048 118.937 129.048C119.459 129.048 119.833 128.936 120.057 128.712C120.291 128.477 120.409 128.115 120.409 127.624C120.409 127.133 120.291 126.776 120.057 126.552C119.822 126.317 119.443 126.2 118.921 126.2C117.939 126.2 117.449 126.675 117.449 127.624ZM124.399 133V125H126.143V133H124.399ZM124.399 123.64V121.8H126.143V123.64H124.399ZM130.002 133H128.258V125H129.986V125.496C130.765 125.048 131.501 124.824 132.194 124.824C133.261 124.824 133.986 125.128 134.37 125.736C134.765 126.333 134.962 127.325 134.962 128.712V133H133.234V128.76C133.234 127.896 133.138 127.283 132.946 126.92C132.765 126.557 132.386 126.376 131.81 126.376C131.266 126.376 130.744 126.483 130.242 126.696L130.002 126.792V133ZM139.884 125H141.596L142.86 131.512H143.18L144.7 125.16H146.492L148.012 131.512H148.332L149.58 125H151.308L149.612 133H146.844L145.596 127.512L144.348 133H141.58L139.884 125ZM152.79 133V125H154.534V133H152.79ZM152.79 123.64V121.8H154.534V123.64H152.79ZM160.953 126.488H158.745V130.008C158.745 130.659 158.793 131.091 158.889 131.304C158.985 131.517 159.23 131.624 159.625 131.624L160.937 131.576L161.017 132.968C160.302 133.107 159.758 133.176 159.385 133.176C158.478 133.176 157.854 132.968 157.513 132.552C157.182 132.136 157.017 131.352 157.017 130.2V126.488H155.993V125H157.017V122.68H158.745V125H160.953V126.488ZM164.127 133H162.383V121.672H164.127V125.416C164.917 125.021 165.647 124.824 166.319 124.824C167.386 124.824 168.111 125.128 168.495 125.736C168.89 126.333 169.087 127.325 169.087 128.712V133H167.343V128.76C167.343 127.896 167.253 127.283 167.071 126.92C166.89 126.557 166.506 126.376 165.919 126.376C165.407 126.376 164.895 126.461 164.383 126.632L164.127 126.728V133ZM174.841 133V122.04H176.617V133H174.841ZM178.082 123.624V122.04H186.082V123.624H182.994V133H181.202V123.624H178.082ZM186.319 129.48V127.896H191.103V129.48H186.319ZM192.196 122.04H194.068L195.636 131.464H195.972L198.052 122.072H200.132L202.212 131.464H202.564L204.132 122.04H206.004L203.844 133H200.98L199.092 124.216L197.22 133H194.34L192.196 122.04ZM213.131 127.464V131.112C213.142 131.347 213.201 131.523 213.307 131.64C213.425 131.747 213.601 131.816 213.835 131.848L213.787 133.176C212.87 133.176 212.161 132.979 211.659 132.584C210.806 132.979 209.947 133.176 209.083 133.176C207.494 133.176 206.699 132.328 206.699 130.632C206.699 129.821 206.913 129.235 207.339 128.872C207.777 128.509 208.443 128.291 209.339 128.216L211.403 128.04V127.464C211.403 127.037 211.307 126.739 211.115 126.568C210.934 126.397 210.662 126.312 210.299 126.312C209.617 126.312 208.763 126.355 207.739 126.44L207.227 126.472L207.163 125.24C208.326 124.963 209.393 124.824 210.363 124.824C211.345 124.824 212.049 125.037 212.475 125.464C212.913 125.88 213.131 126.547 213.131 127.464ZM209.547 129.448C208.811 129.512 208.443 129.912 208.443 130.648C208.443 131.384 208.769 131.752 209.419 131.752C209.953 131.752 210.518 131.667 211.115 131.496L211.403 131.4V129.272L209.547 129.448ZM215.417 133V121.672H217.161V133H215.417ZM219.464 133V121.672H221.208V133H219.464ZM229.111 131.56L229.559 131.512L229.591 132.808C228.375 133.053 227.297 133.176 226.359 133.176C225.175 133.176 224.321 132.851 223.799 132.2C223.287 131.549 223.031 130.509 223.031 129.08C223.031 126.243 224.188 124.824 226.503 124.824C228.743 124.824 229.863 126.045 229.863 128.488L229.751 129.736H224.791C224.801 130.397 224.945 130.883 225.223 131.192C225.5 131.501 226.017 131.656 226.775 131.656C227.532 131.656 228.311 131.624 229.111 131.56ZM228.151 128.392C228.151 127.603 228.023 127.053 227.767 126.744C227.521 126.424 227.1 126.264 226.503 126.264C225.905 126.264 225.468 126.429 225.191 126.76C224.924 127.091 224.785 127.635 224.775 128.392H228.151ZM235.844 126.488H233.636V130.008C233.636 130.659 233.684 131.091 233.78 131.304C233.876 131.517 234.121 131.624 234.516 131.624L235.828 131.576L235.908 132.968C235.193 133.107 234.649 133.176 234.276 133.176C233.369 133.176 232.745 132.968 232.404 132.552C232.073 132.136 231.908 131.352 231.908 130.2V126.488H230.884V125H231.908V122.68H233.636V125H235.844V126.488Z" fill="white"/>
<rect x="20" y="174" width="251" height="40" rx="4" fill="#0066CC"/>
<g clip-path="url(#clip2_40002002_559)">
<path d="M50.3141 186.079C50.217 186.024 50.1139 185.999 50.0138 186C49.6977 186.002 49.4078 186.256 49.4096 186.608L49.4273 189.838L44.9148 187.307C44.8172 187.252 44.714 187.228 44.614 187.229C44.2978 187.231 44.0104 187.484 44.0098 187.837L44 198.482C44 198.962 44.216 199.381 44.6786 199.64L48.7352 201.921C48.8329 201.976 48.936 202.001 49.0361 202C49.3522 201.998 49.6403 201.744 49.6403 201.392V190.476L51.7849 191.67C52.2481 191.927 52.4635 192.348 52.4635 192.828V199.224L56.4749 201.474C56.5726 201.529 56.6757 201.553 56.7758 201.553C57.0919 201.55 57.38 201.297 57.38 200.944L57.3843 190.823C57.3843 190.342 57.1682 189.924 56.7056 189.664L50.3141 186.079Z" fill="white"/>
</g>
<path d="M110.579 199H105.203V189.41H106.757V197.614H110.579V199ZM112.044 192.756C112.529 192.149 113.332 191.846 114.452 191.846C115.572 191.846 116.37 192.149 116.846 192.756C117.331 193.363 117.574 194.273 117.574 195.486C117.574 196.699 117.341 197.614 116.874 198.23C116.407 198.846 115.6 199.154 114.452 199.154C113.304 199.154 112.497 198.846 112.03 198.23C111.563 197.614 111.33 196.699 111.33 195.486C111.33 194.273 111.568 193.363 112.044 192.756ZM113.192 197.306C113.407 197.679 113.827 197.866 114.452 197.866C115.077 197.866 115.497 197.679 115.712 197.306C115.927 196.933 116.034 196.321 116.034 195.472C116.034 194.623 115.917 194.021 115.684 193.666C115.46 193.311 115.049 193.134 114.452 193.134C113.855 193.134 113.439 193.311 113.206 193.666C112.982 194.021 112.87 194.623 112.87 195.472C112.87 196.321 112.977 196.933 113.192 197.306ZM125.208 199.952C125.208 201.483 124.102 202.248 121.89 202.248C120.826 202.248 120.037 202.103 119.524 201.814C119.01 201.525 118.754 200.997 118.754 200.232C118.754 199.887 118.838 199.588 119.006 199.336C119.174 199.093 119.444 198.827 119.818 198.538C119.51 198.333 119.356 197.992 119.356 197.516C119.356 197.329 119.482 197.026 119.734 196.606L119.86 196.396C119.188 195.995 118.852 195.295 118.852 194.296C118.852 193.456 119.104 192.84 119.608 192.448C120.112 192.056 120.793 191.86 121.652 191.86C122.062 191.86 122.468 191.907 122.87 192L123.08 192.042L125.25 191.986V193.218L124.088 193.148C124.34 193.475 124.466 193.857 124.466 194.296C124.466 195.211 124.232 195.845 123.766 196.2C123.308 196.545 122.59 196.718 121.61 196.718C121.367 196.718 121.162 196.699 120.994 196.662C120.863 196.979 120.798 197.227 120.798 197.404C120.798 197.572 120.882 197.689 121.05 197.754C121.227 197.819 121.647 197.857 122.31 197.866C123.42 197.875 124.181 198.025 124.592 198.314C125.002 198.603 125.208 199.149 125.208 199.952ZM120.252 200.092C120.252 200.419 120.382 200.652 120.644 200.792C120.905 200.932 121.353 201.002 121.988 201.002C123.117 201.002 123.682 200.68 123.682 200.036C123.682 199.672 123.579 199.439 123.374 199.336C123.178 199.243 122.781 199.191 122.184 199.182L120.812 199.098C120.606 199.266 120.462 199.42 120.378 199.56C120.294 199.709 120.252 199.887 120.252 200.092ZM120.364 194.296C120.364 194.725 120.466 195.043 120.672 195.248C120.877 195.444 121.208 195.542 121.666 195.542C122.123 195.542 122.45 195.444 122.646 195.248C122.851 195.043 122.954 194.725 122.954 194.296C122.954 193.867 122.851 193.554 122.646 193.358C122.44 193.153 122.109 193.05 121.652 193.05C120.793 193.05 120.364 193.465 120.364 194.296ZM126.445 199V192H127.971V199H126.445ZM126.445 190.81V189.2H127.971V190.81H126.445ZM131.348 199H129.822V192H131.334V192.434C132.016 192.042 132.66 191.846 133.266 191.846C134.2 191.846 134.834 192.112 135.17 192.644C135.516 193.167 135.688 194.035 135.688 195.248V199H134.176V195.29C134.176 194.534 134.092 193.997 133.924 193.68C133.766 193.363 133.434 193.204 132.93 193.204C132.454 193.204 131.997 193.297 131.558 193.484L131.348 193.568V199ZM139.995 192H141.493L142.599 197.698H142.879L144.209 192.14H145.777L147.107 197.698H147.387L148.479 192H149.991L148.507 199H146.085L144.993 194.198L143.901 199H141.479L139.995 192ZM151.287 199V192H152.813V199H151.287ZM151.287 190.81V189.2H152.813V190.81H151.287ZM158.43 193.302H156.498V196.382C156.498 196.951 156.54 197.329 156.624 197.516C156.708 197.703 156.923 197.796 157.268 197.796L158.416 197.754L158.486 198.972C157.861 199.093 157.385 199.154 157.058 199.154C156.265 199.154 155.719 198.972 155.42 198.608C155.131 198.244 154.986 197.558 154.986 196.55V193.302H154.09V192H154.986V189.97H156.498V192H158.43V193.302ZM161.208 199H159.682V189.088H161.208V192.364C161.898 192.019 162.538 191.846 163.126 191.846C164.059 191.846 164.694 192.112 165.03 192.644C165.375 193.167 165.548 194.035 165.548 195.248V199H164.022V195.29C164.022 194.534 163.942 193.997 163.784 193.68C163.625 193.363 163.289 193.204 162.776 193.204C162.328 193.204 161.88 193.279 161.432 193.428L161.208 193.512V199ZM170.582 199V189.41H172.136V199H170.582ZM173.418 190.796V189.41H180.418V190.796H177.716V199H176.148V190.796H173.418ZM180.625 195.92V194.534H184.811V195.92H180.625ZM185.767 189.41H187.405L188.777 197.656H189.071L190.891 189.438H192.711L194.531 197.656H194.839L196.211 189.41H197.849L195.959 199H193.453L191.801 191.314L190.163 199H187.643L185.767 189.41ZM204.086 194.156V197.348C204.096 197.553 204.147 197.707 204.24 197.81C204.343 197.903 204.497 197.964 204.702 197.992L204.66 199.154C203.858 199.154 203.237 198.981 202.798 198.636C202.052 198.981 201.3 199.154 200.544 199.154C199.154 199.154 198.458 198.412 198.458 196.928C198.458 196.219 198.645 195.705 199.018 195.388C199.401 195.071 199.984 194.879 200.768 194.814L202.574 194.66V194.156C202.574 193.783 202.49 193.521 202.322 193.372C202.164 193.223 201.926 193.148 201.608 193.148C201.011 193.148 200.264 193.185 199.368 193.26L198.92 193.288L198.864 192.21C199.882 191.967 200.815 191.846 201.664 191.846C202.523 191.846 203.139 192.033 203.512 192.406C203.895 192.77 204.086 193.353 204.086 194.156ZM200.95 195.892C200.306 195.948 199.984 196.298 199.984 196.942C199.984 197.586 200.269 197.908 200.838 197.908C201.305 197.908 201.8 197.833 202.322 197.684L202.574 197.6V195.738L200.95 195.892ZM206.086 199V189.088H207.612V199H206.086ZM209.627 199V189.088H211.153V199H209.627ZM218.068 197.74L218.46 197.698L218.488 198.832C217.424 199.047 216.481 199.154 215.66 199.154C214.624 199.154 213.877 198.869 213.42 198.3C212.972 197.731 212.748 196.821 212.748 195.57C212.748 193.087 213.761 191.846 215.786 191.846C217.746 191.846 218.726 192.915 218.726 195.052L218.628 196.144H214.288C214.297 196.723 214.423 197.147 214.666 197.418C214.909 197.689 215.361 197.824 216.024 197.824C216.687 197.824 217.368 197.796 218.068 197.74ZM217.228 194.968C217.228 194.277 217.116 193.797 216.892 193.526C216.677 193.246 216.309 193.106 215.786 193.106C215.263 193.106 214.881 193.251 214.638 193.54C214.405 193.829 214.283 194.305 214.274 194.968H217.228ZM223.959 193.302H222.027V196.382C222.027 196.951 222.069 197.329 222.153 197.516C222.237 197.703 222.452 197.796 222.797 197.796L223.945 197.754L224.015 198.972C223.39 199.093 222.914 199.154 222.587 199.154C221.794 199.154 221.248 198.972 220.949 198.608C220.66 198.244 220.515 197.558 220.515 196.55V193.302H219.619V192H220.515V189.97H222.027V192H223.959V193.302Z" fill="white"/>
<defs>
<clipPath id="clip0_40002002_559">
<rect width="20.0764" height="24" fill="white" transform="translate(44 38)"/>
</clipPath>
<clipPath id="clip1_40002002_559">
<rect width="20.0764" height="24" fill="white" transform="translate(44 115)"/>
</clipPath>
<clipPath id="clip2_40002002_559">
<rect width="13.3843" height="16" fill="white" transform="translate(44 186)"/>
</clipPath>
</defs>
</svg>
