<svg width="1440" height="840" viewBox="0 0 1440 840" fill="none" xmlns="http://www.w3.org/2000/svg">
<g clip-path="url(#clip0_2087_7518)">
<rect width="1440" height="840" fill="white"/>
<rect width="1440" height="52" fill="#004D99"/>
<path d="M76.104 22.65L76.23 24.9C76.23 25.656 76.104 26.202 75.852 26.538C75.6 26.874 75.072 27.15 74.268 27.366C75.06 27.57 75.582 27.858 75.834 28.23C76.098 28.59 76.23 29.154 76.23 29.922L76.104 32.028C76.104 32.544 76.218 32.94 76.446 33.216C76.674 33.504 77.1 33.666 77.724 33.702V35.358C76.44 35.31 75.528 35.046 74.988 34.566C74.46 34.098 74.196 33.324 74.196 32.244L74.322 30.066C74.322 29.142 73.662 28.5 72.342 28.14V26.61C73.026 26.454 73.524 26.232 73.836 25.944C74.16 25.644 74.322 25.26 74.322 24.792L74.196 22.506C74.196 21.378 74.46 20.586 74.988 20.13C75.528 19.662 76.446 19.404 77.742 19.356L77.76 21.012C77.124 21.06 76.686 21.216 76.446 21.48C76.218 21.744 76.104 22.134 76.104 22.65ZM79.8556 33V20.67H87.6316V22.416H81.8536V25.908H86.5516V27.636H81.8536V31.236H87.6316V33H79.8556ZM91.5328 33H89.5708V24H91.5148V24.558C92.3908 24.054 93.2188 23.802 93.9988 23.802C95.1988 23.802 96.0148 24.144 96.4468 24.828C96.8908 25.5 97.1128 26.616 97.1128 28.176V33H95.1688V28.23C95.1688 27.258 95.0608 26.568 94.8448 26.16C94.6408 25.752 94.2148 25.548 93.5668 25.548C92.9548 25.548 92.3668 25.668 91.8028 25.908L91.5328 26.016V33ZM104.239 25.674H101.755V29.634C101.755 30.366 101.809 30.852 101.917 31.092C102.025 31.332 102.301 31.452 102.745 31.452L104.221 31.398L104.311 32.964C103.507 33.12 102.895 33.198 102.475 33.198C101.455 33.198 100.753 32.964 100.369 32.496C99.997 32.028 99.811 31.146 99.811 29.85V25.674H98.659V24H99.811V21.39H101.755V24H104.239V25.674ZM105.848 33V24H107.81V33H105.848ZM105.848 22.47V20.4H107.81V22.47H105.848ZM115.032 25.674H112.548V29.634C112.548 30.366 112.602 30.852 112.71 31.092C112.818 31.332 113.094 31.452 113.538 31.452L115.014 31.398L115.104 32.964C114.3 33.12 113.688 33.198 113.268 33.198C112.248 33.198 111.546 32.964 111.162 32.496C110.79 32.028 110.604 31.146 110.604 29.85V25.674H109.452V24H110.604V21.39H112.548V24H115.032V25.674ZM115.813 24H117.739L119.647 31.326H120.133L122.041 24H123.985L120.565 36.87H118.639L119.719 33H118.171L115.813 24ZM131.418 33H129.456V24H131.4V24.558C132.276 24.054 133.104 23.802 133.884 23.802C135.084 23.802 135.9 24.144 136.332 24.828C136.776 25.5 136.998 26.616 136.998 28.176V33H135.054V28.23C135.054 27.258 134.946 26.568 134.73 26.16C134.526 25.752 134.1 25.548 133.452 25.548C132.84 25.548 132.252 25.668 131.688 25.908L131.418 26.016V33ZM145.942 26.772V30.876C145.954 31.14 146.02 31.338 146.14 31.47C146.272 31.59 146.47 31.668 146.734 31.704L146.68 33.198C145.648 33.198 144.85 32.976 144.286 32.532C143.326 32.976 142.36 33.198 141.388 33.198C139.6 33.198 138.706 32.244 138.706 30.336C138.706 29.424 138.946 28.764 139.426 28.356C139.918 27.948 140.668 27.702 141.676 27.618L143.998 27.42V26.772C143.998 26.292 143.89 25.956 143.674 25.764C143.47 25.572 143.164 25.476 142.756 25.476C141.988 25.476 141.028 25.524 139.876 25.62L139.3 25.656L139.228 24.27C140.536 23.958 141.736 23.802 142.828 23.802C143.932 23.802 144.724 24.042 145.204 24.522C145.696 24.99 145.942 25.74 145.942 26.772ZM141.91 29.004C141.082 29.076 140.668 29.526 140.668 30.354C140.668 31.182 141.034 31.596 141.766 31.596C142.366 31.596 143.002 31.5 143.674 31.308L143.998 31.2V28.806L141.91 29.004ZM150.367 33H148.405V24H150.349V24.558C151.201 24.054 151.981 23.802 152.689 23.802C153.733 23.802 154.495 24.096 154.975 24.684C156.067 24.096 157.153 23.802 158.233 23.802C159.313 23.802 160.075 24.138 160.519 24.81C160.963 25.47 161.185 26.592 161.185 28.176V33H159.241V28.23C159.241 27.258 159.139 26.568 158.935 26.16C158.743 25.752 158.335 25.548 157.711 25.548C157.171 25.548 156.589 25.668 155.965 25.908L155.659 26.034C155.755 26.274 155.803 27.042 155.803 28.338V33H153.859V28.374C153.859 27.306 153.763 26.568 153.571 26.16C153.379 25.752 152.959 25.548 152.311 25.548C151.711 25.548 151.153 25.668 150.637 25.908L150.367 26.016V33ZM169.895 31.38L170.399 31.326L170.435 32.784C169.067 33.06 167.855 33.198 166.799 33.198C165.467 33.198 164.507 32.832 163.919 32.1C163.343 31.368 163.055 30.198 163.055 28.59C163.055 25.398 164.357 23.802 166.961 23.802C169.481 23.802 170.741 25.176 170.741 27.924L170.615 29.328H165.035C165.047 30.072 165.209 30.618 165.521 30.966C165.833 31.314 166.415 31.488 167.267 31.488C168.119 31.488 168.995 31.452 169.895 31.38ZM168.815 27.816C168.815 26.928 168.671 26.31 168.383 25.962C168.107 25.602 167.633 25.422 166.961 25.422C166.289 25.422 165.797 25.608 165.485 25.98C165.185 26.352 165.029 26.964 165.017 27.816H168.815ZM173.445 32.028L173.319 29.922C173.319 29.154 173.445 28.59 173.697 28.23C173.961 27.858 174.489 27.57 175.281 27.366C174.477 27.15 173.949 26.874 173.697 26.538C173.445 26.202 173.319 25.656 173.319 24.9L173.445 22.65C173.445 22.134 173.325 21.744 173.085 21.48C172.857 21.216 172.425 21.06 171.789 21.012L171.807 19.356C173.103 19.404 174.015 19.662 174.543 20.13C175.083 20.586 175.353 21.378 175.353 22.506L175.227 24.792C175.227 25.26 175.383 25.644 175.695 25.944C176.019 26.232 176.523 26.454 177.207 26.61V28.14C175.887 28.5 175.227 29.142 175.227 30.066L175.353 32.244C175.353 33.324 175.083 34.098 174.543 34.566C174.015 35.046 173.109 35.31 171.825 35.358V33.702C172.449 33.666 172.875 33.504 173.103 33.216C173.331 32.94 173.445 32.544 173.445 32.028Z" fill="white"/>
<path d="M72 34.98H75.1163V35.52H72V34.98ZM78.2666 34.98H118.476V35.52H78.2666V34.98ZM121.603 34.98H171.288V35.52H121.603V34.98ZM174.423 34.98H177.549V35.52H174.423V34.98Z" fill="white"/>
<g clip-path="url(#clip1_2087_7518)">
<path d="M1322.11 31V21.41H1328.15V22.768H1323.66V25.484H1327.31V26.828H1323.66V29.628H1328.15V31H1322.11ZM1329.84 31V21.41H1332.56L1335.47 29.628H1335.68V21.41H1337.24V31H1334.58L1331.59 22.768H1331.4V31H1329.84ZM1343.35 27.332V25.96H1346.08V30.832C1345.83 30.8973 1345.31 30.9673 1344.54 31.042C1343.77 31.1167 1343.22 31.154 1342.87 31.154C1341.42 31.154 1340.41 30.7527 1339.86 29.95C1339.31 29.1473 1339.04 27.892 1339.04 26.184C1339.04 24.4667 1339.32 23.216 1339.88 22.432C1340.45 21.648 1341.43 21.256 1342.82 21.256C1343.64 21.256 1344.56 21.3493 1345.59 21.536L1346.08 21.634L1346.02 22.866C1344.89 22.7167 1343.88 22.642 1342.98 22.642C1342.09 22.642 1341.47 22.894 1341.14 23.398C1340.81 23.902 1340.65 24.8353 1340.65 26.198C1340.65 27.5607 1340.8 28.5033 1341.11 29.026C1341.43 29.5393 1342.06 29.796 1343.01 29.796C1343.69 29.796 1344.2 29.754 1344.54 29.67V27.332H1343.35Z" fill="white"/>
<path d="M1363 29.2008L1357.4 23.6008L1358.1 22.8008L1363 27.7008L1367.9 22.8008L1368.6 23.6008L1363 29.2008Z" fill="white"/>
</g>
<rect width="1440" height="93" transform="translate(0 52)" fill="#F2F7FC"/>
<rect x="72.5" y="69" width="208.024" height="59" fill="#F2F7FC"/>
<rect x="72.5" y="69" width="208.024" height="59" stroke="#C5C7C9"/>
<line x1="73.1957" y1="69.3953" x2="280.121" y2="127.049" stroke="#C5C7C9"/>
<path d="M115.463 108.5H111.599V100.8L105.719 89.46H110.003L113.503 97.048L117.003 89.46H121.287L115.463 100.8V108.5ZM126.532 104.02C127.092 104.991 128.128 105.476 129.64 105.476C131.152 105.476 132.179 104.991 132.72 104.02C133.28 103.031 133.56 101.388 133.56 99.092C133.56 96.7773 133.28 95.0973 132.72 94.052C132.16 93.0067 131.134 92.484 129.64 92.484C128.147 92.484 127.12 93.0067 126.56 94.052C126 95.0973 125.72 96.7773 125.72 99.092C125.72 101.388 125.991 103.031 126.532 104.02ZM135.744 106.484C134.568 108.052 132.534 108.836 129.64 108.836C126.747 108.836 124.703 108.052 123.508 106.484C122.332 104.897 121.744 102.424 121.744 99.064C121.744 95.704 122.332 93.212 123.508 91.588C124.703 89.9453 126.747 89.124 129.64 89.124C132.534 89.124 134.568 89.9453 135.744 91.588C136.939 93.212 137.536 95.704 137.536 99.064C137.536 102.424 136.939 104.897 135.744 106.484ZM144.546 102.144C144.546 104.365 145.675 105.476 147.934 105.476C150.192 105.476 151.322 104.365 151.322 102.144V89.46H155.186V102.06C155.186 104.393 154.579 106.111 153.366 107.212C152.171 108.295 150.36 108.836 147.934 108.836C145.507 108.836 143.687 108.295 142.474 107.212C141.279 106.111 140.682 104.393 140.682 102.06V89.46H144.546V102.144ZM163.034 102.116V108.5H159.17V89.46H166.562C171.042 89.46 173.282 91.5507 173.282 95.732C173.282 98.2147 172.349 100.044 170.482 101.22L173.198 108.5H168.97L166.758 102.116H163.034ZM166.618 98.812C167.533 98.812 168.214 98.532 168.662 97.972C169.11 97.412 169.334 96.6747 169.334 95.76C169.334 94.8453 169.091 94.1173 168.606 93.576C168.139 93.0347 167.458 92.764 166.562 92.764H163.034V98.812H166.618ZM193.522 108.5H182.686V89.46H186.55V105.084H193.522V108.5ZM199.677 104.02C200.237 104.991 201.273 105.476 202.785 105.476C204.297 105.476 205.323 104.991 205.865 104.02C206.425 103.031 206.705 101.388 206.705 99.092C206.705 96.7773 206.425 95.0973 205.865 94.052C205.305 93.0067 204.278 92.484 202.785 92.484C201.291 92.484 200.265 93.0067 199.705 94.052C199.145 95.0973 198.865 96.7773 198.865 99.092C198.865 101.388 199.135 103.031 199.677 104.02ZM208.889 106.484C207.713 108.052 205.678 108.836 202.785 108.836C199.891 108.836 197.847 108.052 196.653 106.484C195.477 104.897 194.889 102.424 194.889 99.064C194.889 95.704 195.477 93.212 196.653 91.588C197.847 89.9453 199.891 89.124 202.785 89.124C205.678 89.124 207.713 89.9453 208.889 91.588C210.083 93.212 210.681 95.704 210.681 99.064C210.681 102.424 210.083 104.897 208.889 106.484ZM221.918 101.668V98.308H227.462V108.192C224.793 108.621 222.628 108.836 220.966 108.836C217.998 108.836 215.954 108.043 214.834 106.456C213.733 104.869 213.182 102.349 213.182 98.896C213.182 95.4427 213.761 92.9507 214.918 91.42C216.076 89.8893 218.045 89.124 220.826 89.124C222.562 89.124 224.438 89.32 226.454 89.712L227.462 89.908L227.35 92.904C225.11 92.6613 223.272 92.54 221.834 92.54C220.416 92.54 219.417 92.708 218.838 93.044C218.26 93.38 217.83 94.0053 217.55 94.92C217.289 95.816 217.158 97.3653 217.158 99.568C217.158 101.752 217.429 103.283 217.97 104.16C218.512 105.037 219.632 105.476 221.33 105.476L223.654 105.364V101.668H221.918ZM235.06 104.02C235.62 104.991 236.656 105.476 238.168 105.476C239.68 105.476 240.706 104.991 241.248 104.02C241.808 103.031 242.088 101.388 242.088 99.092C242.088 96.7773 241.808 95.0973 241.248 94.052C240.688 93.0067 239.661 92.484 238.168 92.484C236.674 92.484 235.648 93.0067 235.088 94.052C234.528 95.0973 234.248 96.7773 234.248 99.092C234.248 101.388 234.518 103.031 235.06 104.02ZM244.272 106.484C243.096 108.052 241.061 108.836 238.168 108.836C235.274 108.836 233.23 108.052 232.036 106.484C230.86 104.897 230.272 102.424 230.272 99.064C230.272 95.704 230.86 93.212 232.036 91.588C233.23 89.9453 235.274 89.124 238.168 89.124C241.061 89.124 243.096 89.9453 244.272 91.588C245.466 93.212 246.064 95.704 246.064 99.064C246.064 102.424 245.466 104.897 244.272 106.484Z" fill="black"/>
<path d="M305.024 68.5V128.5" stroke="#C5C7C9" stroke-linejoin="round"/>
<path d="M341.052 82.5C341.252 82.4988 341.458 82.5474 341.652 82.6572L354.436 89.8281C355.361 90.3468 355.793 91.184 355.793 92.1445L355.784 112.388C355.784 113.093 355.208 113.601 354.576 113.605C354.376 113.607 354.17 113.557 353.975 113.447L345.951 108.947V96.1553C345.951 95.1948 345.52 94.3539 344.594 93.8389L340.305 91.4512V113.283C340.304 113.988 339.729 114.495 339.097 114.5C338.897 114.501 338.69 114.452 338.495 114.342L330.382 109.779C329.457 109.261 329.024 108.423 329.024 107.463L329.044 86.1738C329.045 85.4685 329.62 84.9621 330.252 84.957C330.452 84.9558 330.659 85.0044 330.854 85.1143L339.879 90.1758L339.844 83.7168C339.84 83.0114 340.42 82.505 341.052 82.5ZM433.652 92.998C438.129 92.998 440.719 95.2516 440.719 99.083V104.031C440.719 104.664 440.996 104.971 441.459 104.972H442.057L442.055 104.975C442.282 104.975 442.452 105.148 442.452 105.375V108.558C442.452 108.785 442.291 108.956 442.063 108.956H439.238C438.007 108.956 436.994 108.51 436.403 107.811C435.067 108.853 433.368 109.381 431.556 109.381C428.142 109.381 426.12 107.511 426.12 104.301C426.12 101.265 427.928 99.7236 431.913 99.4551L435.709 99.1982V98.5732C435.708 97.2772 434.809 96.5586 433.325 96.5586C432.293 96.5587 431.618 96.9087 431.301 97.5078C431.162 97.769 431.027 97.8594 430.789 97.8594H426.55C426.311 97.8593 426.153 97.7211 426.149 97.5186C426.147 97.3916 426.207 97.2003 426.313 96.9492C427.327 94.5569 429.963 92.9981 433.652 92.998ZM467.782 92.998C472.534 92.998 475.388 95.893 475.388 100.449V101.954C475.388 102.181 475.217 102.354 474.99 102.354H464.834C464.966 104.232 465.797 105.761 467.943 105.761C468.952 105.761 469.757 105.422 470.17 104.777C470.327 104.532 470.472 104.46 470.609 104.46H474.677C475 104.46 475.108 104.656 475.109 104.872C475.111 104.995 475.074 105.126 474.991 105.342C474.016 107.882 471.616 109.381 468.044 109.381C462.971 109.381 459.985 106.312 459.984 101.179C459.984 96.0455 462.911 92.9987 467.782 92.998ZM426.003 87.6201V87.6211C426.258 87.6211 426.466 87.8609 426.422 88.1123L422.825 108.62C422.791 108.818 422.62 108.957 422.42 108.957H416.304C416.11 108.957 415.948 108.825 415.906 108.636L412.639 93.6445H412.344L409.076 108.636C409.035 108.825 408.87 108.957 408.677 108.957H402.56C402.361 108.957 402.192 108.817 402.158 108.62L398.561 88.1123C398.517 87.8609 398.722 87.6211 398.978 87.6211H403.016C403.217 87.6211 403.39 87.775 403.423 87.9727L405.847 102.474H406.111L409.209 87.9561C409.25 87.7658 409.426 87.6213 409.62 87.6211H415.562C415.758 87.6211 415.917 87.7657 415.957 87.9561L418.993 102.501H419.256L421.713 87.9736C421.746 87.7749 421.907 87.6201 422.108 87.6201H426.003ZM371.342 87.6191C371.569 87.6191 371.74 87.7859 371.74 88.0127V108.558C371.74 108.785 371.568 108.956 371.341 108.956H366.819C366.592 108.956 366.421 108.785 366.421 108.558L366.412 88.0146C366.412 87.7877 366.592 87.6203 366.819 87.6201H371.342V87.6191ZM390.097 87.6191C390.325 87.6194 390.495 87.8202 390.495 88.0469V91.5732H390.494C390.494 91.8013 390.323 92.0007 390.097 92.001H384.465V108.557C384.465 108.784 384.264 108.955 384.037 108.955H379.571C379.344 108.955 379.146 108.78 379.146 108.553V91.999H373.511C373.284 91.9989 373.114 91.7992 373.114 91.5723V88.0449C373.114 87.8179 373.287 87.6191 373.514 87.6191H390.097ZM448.324 87.6201C448.552 87.6202 448.722 87.7908 448.723 88.0176V103.95C448.723 104.585 449.087 104.972 449.722 104.972H450.686C450.913 104.972 451.111 105.14 451.111 105.367V108.56C451.111 108.786 450.932 108.955 450.705 108.955H448.5C445.174 108.956 443.573 107.483 443.573 104.46V88.0176C443.573 87.7907 443.745 87.6201 443.972 87.6201H448.324ZM456.86 87.6201C457.087 87.6201 457.27 87.7907 457.271 88.0176V103.95C457.271 104.585 457.622 104.972 458.257 104.972H459.223C459.45 104.972 459.661 105.151 459.661 105.378V108.56C459.661 108.786 459.469 108.955 459.242 108.955H457.036C453.71 108.956 452.11 107.483 452.11 104.46V88.0176C452.111 87.7909 452.281 87.6203 452.508 87.6201H456.86ZM482.566 89.1836C482.793 89.1837 482.965 89.3544 482.965 89.5811V93.4229H485.582C485.81 93.4229 486.01 93.5934 486.01 93.8203V97.0059C486.01 97.234 485.836 97.4041 485.609 97.4043H482.965V103.949C482.965 104.584 483.325 104.971 483.96 104.971H485.611C485.838 104.971 486.01 105.171 486.01 105.397V108.556C486.01 108.783 485.837 108.953 485.61 108.953H483.365C479.684 108.953 477.845 107.141 477.845 103.55V97.4043H476.023C475.795 97.4041 475.626 97.2318 475.626 97.0049V93.8203C475.626 93.5935 475.825 93.422 476.052 93.4219H477.844V89.5889C477.844 89.362 478.039 89.1838 478.266 89.1836H482.566ZM433.002 102.532C431.539 102.642 431.01 103.167 431.01 104.091C431.01 105.127 431.674 105.761 433.031 105.761C433.869 105.761 434.778 105.521 435.712 104.916H435.713V102.328L433.002 102.532ZM397.207 98.2588L397.209 98.2598C397.436 98.26 397.607 98.4313 397.607 98.6582V102.015C397.607 102.242 397.433 102.412 397.206 102.412H389.024C388.796 102.412 388.618 102.243 388.617 102.016V98.6543C388.617 98.426 388.787 98.2559 389.014 98.2559L397.207 98.2588ZM467.781 96.2559C466.026 96.2559 464.865 97.3339 464.854 99.0928H470.6C470.625 97.3205 469.536 96.2559 467.781 96.2559Z" fill="#0066CC"/>
<rect width="1440" height="459.604" transform="translate(0 249)" fill="white"/>
<path d="M536.872 312L541.768 290.24H550.152L555.048 312H550.632L549.768 308.064H542.152L541.288 312H536.872ZM545.192 293.888L542.984 304.224H548.936L546.728 293.888H545.192ZM567.002 296H571.29V312H567.034V311.104C565.498 311.957 564.165 312.384 563.034 312.384C560.815 312.384 559.322 311.776 558.554 310.56C557.786 309.323 557.402 307.264 557.402 304.384V296H561.69V304.448C561.69 306.027 561.818 307.104 562.074 307.68C562.33 308.256 562.949 308.544 563.93 308.544C564.869 308.544 565.754 308.395 566.586 308.096L567.002 307.968V296ZM584.114 299.648H580.178V306.208C580.178 306.848 580.188 307.307 580.21 307.584C580.252 307.84 580.37 308.064 580.562 308.256C580.775 308.448 581.095 308.544 581.522 308.544L583.954 308.48L584.146 311.904C582.716 312.224 581.628 312.384 580.882 312.384C578.962 312.384 577.65 311.957 576.946 311.104C576.242 310.229 575.89 308.629 575.89 306.304V299.648H574.002V296H575.89V291.552H580.178V296H584.114V299.648ZM591.194 312H586.906V289.6H591.194V296.768C592.666 296 593.989 295.616 595.162 295.616C597.295 295.616 598.767 296.245 599.578 297.504C600.389 298.763 600.794 300.704 600.794 303.328V312H596.506V303.424C596.506 302.08 596.346 301.088 596.026 300.448C595.706 299.787 595.066 299.456 594.106 299.456C593.274 299.456 592.442 299.584 591.61 299.84L591.194 299.968V312ZM608.113 305.824C608.135 306.805 608.391 307.52 608.881 307.968C609.393 308.395 610.119 308.608 611.057 308.608C613.041 308.608 614.812 308.544 616.369 308.416L617.265 308.32L617.329 311.488C614.876 312.085 612.657 312.384 610.673 312.384C608.263 312.384 606.513 311.744 605.425 310.464C604.337 309.184 603.793 307.104 603.793 304.224C603.793 298.485 606.151 295.616 610.865 295.616C615.516 295.616 617.841 298.027 617.841 302.848L617.521 305.824H608.113ZM613.617 302.56C613.617 301.28 613.415 300.395 613.009 299.904C612.604 299.392 611.889 299.136 610.865 299.136C609.863 299.136 609.148 299.403 608.721 299.936C608.316 300.448 608.103 301.323 608.081 302.56H613.617ZM625.194 312H620.906V296H625.162V296.896C626.613 296.043 627.946 295.616 629.162 295.616C631.295 295.616 632.767 296.245 633.578 297.504C634.389 298.763 634.794 300.704 634.794 303.328V312H630.506V303.456C630.506 302.091 630.346 301.088 630.026 300.448C629.706 299.787 629.066 299.456 628.106 299.456C627.231 299.456 626.389 299.605 625.578 299.904L625.194 300.032V312ZM647.457 299.648H643.521V306.208C643.521 306.848 643.532 307.307 643.553 307.584C643.596 307.84 643.713 308.064 643.905 308.256C644.119 308.448 644.439 308.544 644.865 308.544L647.297 308.48L647.489 311.904C646.06 312.224 644.972 312.384 644.225 312.384C642.305 312.384 640.993 311.957 640.289 311.104C639.585 310.229 639.233 308.629 639.233 306.304V299.648H637.345V296H639.233V291.552H643.521V296H647.457V299.648ZM650.25 312V296H654.538V312H650.25ZM650.25 293.952V289.6H654.538V293.952H650.25ZM664.484 295.616C665.593 295.616 667.012 295.787 668.74 296.128L669.604 296.32L669.476 299.712C667.79 299.541 666.542 299.456 665.732 299.456C664.26 299.456 663.278 299.776 662.788 300.416C662.318 301.035 662.084 302.219 662.084 303.968C662.084 305.717 662.318 306.923 662.788 307.584C663.278 308.224 664.27 308.544 665.764 308.544L669.476 308.288L669.604 311.712C667.321 312.16 665.582 312.384 664.388 312.384C662.02 312.384 660.313 311.723 659.268 310.4C658.244 309.056 657.732 306.912 657.732 303.968C657.732 301.024 658.265 298.901 659.332 297.6C660.398 296.277 662.116 295.616 664.484 295.616ZM685.037 300.992V307.648C685.08 308.16 685.165 308.523 685.293 308.736C685.421 308.928 685.688 309.067 686.093 309.152L685.965 312.384C684.877 312.384 684.002 312.309 683.341 312.16C682.701 312.011 682.05 311.712 681.389 311.264C679.853 312.011 678.285 312.384 676.685 312.384C673.378 312.384 671.725 310.635 671.725 307.136C671.725 305.429 672.184 304.224 673.101 303.52C674.018 302.795 675.426 302.368 677.325 302.24L680.749 301.984V300.992C680.749 300.331 680.6 299.883 680.301 299.648C680.002 299.392 679.522 299.264 678.861 299.264L672.845 299.52L672.717 296.544C675 295.925 677.165 295.616 679.213 295.616C681.282 295.616 682.765 296.043 683.661 296.896C684.578 297.749 685.037 299.115 685.037 300.992ZM677.837 305.216C676.642 305.323 676.045 305.963 676.045 307.136C676.045 308.309 676.568 308.896 677.613 308.896C678.424 308.896 679.309 308.768 680.269 308.512L680.749 308.384V304.96L677.837 305.216ZM697.989 299.648H694.053V306.208C694.053 306.848 694.063 307.307 694.085 307.584C694.127 307.84 694.245 308.064 694.437 308.256C694.65 308.448 694.97 308.544 695.397 308.544L697.829 308.48L698.021 311.904C696.591 312.224 695.503 312.384 694.757 312.384C692.837 312.384 691.525 311.957 690.821 311.104C690.117 310.229 689.765 308.629 689.765 306.304V299.648H687.877V296H689.765V291.552H694.053V296H697.989V299.648ZM700.781 312V296H705.069V312H700.781ZM700.781 293.952V289.6H705.069V293.952H700.781ZM709.895 297.824C711.026 296.352 712.914 295.616 715.559 295.616C718.204 295.616 720.092 296.352 721.223 297.824C722.354 299.275 722.919 301.323 722.919 303.968C722.919 309.579 720.466 312.384 715.559 312.384C710.652 312.384 708.199 309.579 708.199 303.968C708.199 301.323 708.764 299.275 709.895 297.824ZM713.191 307.584C713.639 308.352 714.428 308.736 715.559 308.736C716.69 308.736 717.468 308.352 717.895 307.584C718.343 306.816 718.567 305.611 718.567 303.968C718.567 302.325 718.343 301.131 717.895 300.384C717.468 299.637 716.69 299.264 715.559 299.264C714.428 299.264 713.639 299.637 713.191 300.384C712.764 301.131 712.551 302.325 712.551 303.968C712.551 305.611 712.764 306.816 713.191 307.584ZM730.35 312H726.062V296H730.318V296.896C731.769 296.043 733.102 295.616 734.318 295.616C736.451 295.616 737.923 296.245 738.734 297.504C739.545 298.763 739.95 300.704 739.95 303.328V312H735.662V303.456C735.662 302.091 735.502 301.088 735.182 300.448C734.862 299.787 734.222 299.456 733.262 299.456C732.387 299.456 731.545 299.605 730.734 299.904L730.35 300.032V312ZM756.765 295.616C757.874 295.616 759.293 295.787 761.021 296.128L761.885 296.32L761.757 299.712C760.072 299.541 758.824 299.456 758.013 299.456C756.541 299.456 755.56 299.776 755.069 300.416C754.6 301.035 754.365 302.219 754.365 303.968C754.365 305.717 754.6 306.923 755.069 307.584C755.56 308.224 756.552 308.544 758.045 308.544L761.757 308.288L761.885 311.712C759.602 312.16 757.864 312.384 756.669 312.384C754.301 312.384 752.594 311.723 751.549 310.4C750.525 309.056 750.013 306.912 750.013 303.968C750.013 301.024 750.546 298.901 751.613 297.6C752.68 296.277 754.397 295.616 756.765 295.616ZM765.801 297.824C766.932 296.352 768.82 295.616 771.465 295.616C774.11 295.616 775.998 296.352 777.129 297.824C778.26 299.275 778.825 301.323 778.825 303.968C778.825 309.579 776.372 312.384 771.465 312.384C766.558 312.384 764.105 309.579 764.105 303.968C764.105 301.323 764.67 299.275 765.801 297.824ZM769.097 307.584C769.545 308.352 770.334 308.736 771.465 308.736C772.596 308.736 773.374 308.352 773.801 307.584C774.249 306.816 774.473 305.611 774.473 303.968C774.473 302.325 774.249 301.131 773.801 300.384C773.374 299.637 772.596 299.264 771.465 299.264C770.334 299.264 769.545 299.637 769.097 300.384C768.67 301.131 768.457 302.325 768.457 303.968C768.457 305.611 768.67 306.816 769.097 307.584ZM786.256 312H781.968V296H786.224V296.896C787.696 296.043 788.955 295.616 790 295.616C791.728 295.616 793.062 296.117 794 297.12C795.963 296.117 797.755 295.616 799.376 295.616C801.488 295.616 802.95 296.235 803.76 297.472C804.592 298.688 805.008 300.64 805.008 303.328V312H800.72V303.456C800.72 302.091 800.571 301.088 800.272 300.448C799.974 299.787 799.376 299.456 798.48 299.456C797.798 299.456 796.966 299.605 795.984 299.904L795.504 300.064C795.59 301.664 795.632 302.88 795.632 303.712V312H791.344V303.776C791.344 302.197 791.206 301.088 790.928 300.448C790.651 299.787 790.043 299.456 789.104 299.456C788.272 299.456 787.451 299.605 786.64 299.904L786.256 300.032V312ZM808.812 318.72V296H813.068V296.864C814.455 296.032 815.671 295.616 816.716 295.616C818.871 295.616 820.46 296.267 821.484 297.568C822.508 298.848 823.02 301.035 823.02 304.128C823.02 307.221 822.455 309.376 821.324 310.592C820.193 311.787 818.337 312.384 815.756 312.384C815.052 312.384 814.295 312.32 813.484 312.192L813.1 312.128V318.72H808.812ZM815.884 299.456C815.095 299.456 814.295 299.616 813.484 299.936L813.1 300.096V308.48C814.06 308.608 814.839 308.672 815.436 308.672C816.673 308.672 817.516 308.309 817.964 307.584C818.433 306.859 818.668 305.621 818.668 303.872C818.668 300.928 817.74 299.456 815.884 299.456ZM826.41 312V289.6H830.698V312H826.41ZM838.363 305.824C838.385 306.805 838.641 307.52 839.131 307.968C839.643 308.395 840.369 308.608 841.307 308.608C843.291 308.608 845.062 308.544 846.619 308.416L847.515 308.32L847.579 311.488C845.126 312.085 842.907 312.384 840.923 312.384C838.513 312.384 836.763 311.744 835.675 310.464C834.587 309.184 834.043 307.104 834.043 304.224C834.043 298.485 836.401 295.616 841.115 295.616C845.766 295.616 848.091 298.027 848.091 302.848L847.771 305.824H838.363ZM843.867 302.56C843.867 301.28 843.665 300.395 843.259 299.904C842.854 299.392 842.139 299.136 841.115 299.136C840.113 299.136 839.398 299.403 838.971 299.936C838.566 300.448 838.353 301.323 838.331 302.56H843.867ZM860.02 299.648H856.084V306.208C856.084 306.848 856.095 307.307 856.116 307.584C856.159 307.84 856.276 308.064 856.468 308.256C856.681 308.448 857.001 308.544 857.428 308.544L859.86 308.48L860.052 311.904C858.623 312.224 857.535 312.384 856.788 312.384C854.868 312.384 853.556 311.957 852.852 311.104C852.148 310.229 851.796 308.629 851.796 306.304V299.648H849.908V296H851.796V291.552H856.084V296H860.02V299.648ZM866.332 305.824C866.353 306.805 866.609 307.52 867.1 307.968C867.612 308.395 868.337 308.608 869.276 308.608C871.26 308.608 873.031 308.544 874.588 308.416L875.484 308.32L875.548 311.488C873.095 312.085 870.876 312.384 868.892 312.384C866.481 312.384 864.732 311.744 863.644 310.464C862.556 309.184 862.012 307.104 862.012 304.224C862.012 298.485 864.369 295.616 869.084 295.616C873.735 295.616 876.06 298.027 876.06 302.848L875.74 305.824H866.332ZM871.836 302.56C871.836 301.28 871.633 300.395 871.228 299.904C870.823 299.392 870.108 299.136 869.084 299.136C868.081 299.136 867.367 299.403 866.94 299.936C866.535 300.448 866.321 301.323 866.3 302.56H871.836ZM892.725 289.6V312H888.469V311.328C886.975 312.032 885.685 312.384 884.597 312.384C882.271 312.384 880.65 311.712 879.733 310.368C878.815 309.024 878.357 306.901 878.357 304C878.357 301.077 878.901 298.955 879.989 297.632C881.098 296.288 882.762 295.616 884.981 295.616C885.663 295.616 886.613 295.723 887.829 295.936L888.437 296.064V289.6H892.725ZM887.989 308.16L888.437 308.064V299.648C887.263 299.435 886.218 299.328 885.301 299.328C883.573 299.328 882.709 300.864 882.709 303.936C882.709 305.6 882.901 306.784 883.285 307.488C883.669 308.192 884.298 308.544 885.173 308.544C886.069 308.544 887.007 308.416 887.989 308.16ZM896.879 312V306.848H901.487V312H896.879ZM897.295 304L896.879 290.24H901.519L901.071 304H897.295Z" fill="#17324D"/>
<path d="M742.867 458.495C721.603 444.221 707.935 412.607 712.333 387.881C716.731 363.155 737.539 354.683 758.797 368.957C780.061 383.231 793.729 414.845 789.331 439.571C784.933 464.297 764.125 472.769 742.867 458.495Z" fill="#0066CC"/>
<path d="M732.6 464.13C711.336 449.856 697.668 418.242 702.066 393.516C706.464 368.79 727.272 360.318 748.53 374.592C769.794 388.866 783.462 420.48 779.064 445.206C774.666 469.932 753.858 478.404 732.6 464.13Z" fill="#FFB458"/>
<path d="M722.676 469.968C701.412 455.694 687.744 424.08 692.142 399.354C696.54 374.628 717.348 366.156 738.606 380.43C759.87 394.704 773.538 426.318 769.14 451.044C764.742 475.77 743.934 484.242 722.676 469.968Z" fill="#7AC1FA"/>
<path d="M737.611 442.685L734.641 440.969C734.245 440.741 733.735 440.873 733.501 441.263C730.615 446.099 727.915 446.657 723.415 444.485C718.975 442.349 715.993 436.835 715.471 430.895C715.405 430.175 714.985 429.533 714.361 429.173L711.619 427.589C711.265 427.385 710.809 427.643 710.821 428.057C711.079 436.079 714.631 444.545 721.015 448.397C727.987 452.603 733.651 450.311 737.977 444.389C738.391 443.825 738.217 443.027 737.611 442.679V442.685Z" fill="#003366"/>
<path d="M711.859 420.419L714.787 422.111C715.489 422.519 716.365 422.009 716.365 421.199V405.005C716.365 404.249 715.963 403.559 715.309 403.181L712.381 401.489C711.679 401.081 710.803 401.591 710.803 402.401V418.595C710.803 419.351 711.205 420.041 711.859 420.419Z" fill="#003366"/>
<path d="M739.777 415.566L736.849 413.874C736.147 413.466 735.271 413.976 735.271 414.786V430.98C735.271 431.736 735.673 432.426 736.327 432.804L739.255 434.496C739.957 434.904 740.833 434.394 740.833 433.584V417.39C740.833 416.634 740.431 415.944 739.777 415.566Z" fill="#003366"/>
<path d="M669.499 472.948C669.055 471.346 668.851 469.702 668.791 467.812C668.665 464.068 668.539 460.324 668.425 456.58C668.317 453.118 668.233 449.662 668.125 446.2C668.095 445.27 668.035 444.346 668.191 443.416C668.557 441.25 670.627 439.312 672.817 439.12C673.945 439.018 673.759 439.21 673.873 438.1C674.185 435.148 674.485 432.196 674.743 429.238C674.845 428.068 674.857 426.892 675.241 425.758C676.393 422.32 681.055 421.078 683.761 423.484C686.503 425.806 685.549 428.662 685.345 431.764C685.339 431.86 685.315 431.968 685.501 432.094C686.449 428.848 687.163 425.572 688.141 422.338C690.355 415.42 700.429 418.468 698.515 425.392C696.781 431.794 695.173 438.052 693.367 444.46C698.935 441.226 705.757 441.628 710.401 446.254C712.861 448.648 714.517 451.534 715.171 454.906C715.681 457.546 715.387 460.12 713.587 462.274C709.681 466.954 705.601 460.426 704.521 456.748C702.121 449.824 696.679 454.078 695.641 459.232C694.933 462.046 695.359 466.258 697.561 468.352C699.283 469.984 702.187 469.894 704.101 468.646C707.161 466.732 712.327 461.248 714.685 466.852C716.023 470.434 715.219 473.626 712.741 476.44C710.779 478.666 708.907 479.32 706.243 480.136C703.117 481.096 700.057 483.652 697.261 485.344C693.919 487.36 690.409 489.436 686.515 489.676C682.879 489.898 680.167 488.206 678.103 485.41C675.925 482.464 672.991 480.442 671.167 477.058C670.399 475.636 669.859 474.304 669.487 472.948H669.499Z" fill="#FFB458"/>
<path d="M691.638 487.48C691.638 478.672 684.498 467.41 675.69 462.322C670.59 459.376 666.054 459.154 663.132 461.194L653.562 466.804C650.586 467.986 648.738 470.962 648.738 475.444C648.738 484.252 655.878 495.514 664.686 500.602C669.21 503.212 673.284 503.68 676.188 502.336C676.566 502.162 676.926 501.952 677.262 501.718L687.492 495.814C687.534 495.79 687.576 495.76 687.624 495.736L687.696 495.694C690.15 494.308 691.638 491.494 691.638 487.48Z" fill="#0066CC"/>
<path d="M637.402 566.802C636.166 567.054 635.056 567.18 634.072 567.18C633.088 567.18 632.29 567.048 631.678 566.784C631.078 566.508 630.61 566.088 630.274 565.524C629.95 564.948 629.722 564.294 629.59 563.562C629.47 562.818 629.41 561.894 629.41 560.79C629.41 559.686 629.47 558.762 629.59 558.018C629.722 557.262 629.95 556.596 630.274 556.02C630.61 555.444 631.078 555.024 631.678 554.76C632.278 554.496 633.058 554.364 634.018 554.364C634.978 554.364 636.106 554.496 637.402 554.76L637.348 555.93C636.136 555.714 635.056 555.606 634.108 555.606C632.788 555.606 631.912 556.002 631.48 556.794C631.06 557.574 630.85 558.912 630.85 560.808C630.85 561.756 630.886 562.518 630.958 563.094C631.042 563.67 631.198 564.192 631.426 564.66C631.654 565.116 631.984 565.446 632.416 565.65C632.86 565.842 633.502 565.938 634.342 565.938C635.194 565.938 636.196 565.83 637.348 565.614L637.402 566.802ZM638.863 562.482C638.863 560.838 639.157 559.65 639.745 558.918C640.333 558.186 641.323 557.82 642.715 557.82C644.119 557.82 645.109 558.186 645.685 558.918C646.273 559.65 646.567 560.838 646.567 562.482C646.567 564.126 646.291 565.32 645.739 566.064C645.187 566.808 644.179 567.18 642.715 567.18C641.251 567.18 640.243 566.808 639.691 566.064C639.139 565.32 638.863 564.126 638.863 562.482ZM640.249 562.464C640.249 563.772 640.405 564.69 640.717 565.218C641.041 565.746 641.707 566.01 642.715 566.01C643.735 566.01 644.401 565.752 644.713 565.236C645.025 564.708 645.181 563.784 645.181 562.464C645.181 561.144 645.007 560.238 644.659 559.746C644.311 559.242 643.663 558.99 642.715 558.99C641.779 558.99 641.131 559.242 640.771 559.746C640.423 560.238 640.249 561.144 640.249 562.464ZM650.119 567H648.769V558H650.101V558.63C651.073 558.09 652.003 557.82 652.891 557.82C654.091 557.82 654.895 558.144 655.303 558.792C655.723 559.44 655.933 560.592 655.933 562.248V567H654.601V562.284C654.601 561.036 654.475 560.184 654.223 559.728C653.983 559.26 653.461 559.026 652.657 559.026C652.273 559.026 651.865 559.086 651.433 559.206C651.013 559.314 650.689 559.422 650.461 559.53L650.119 559.692V567ZM663.046 559.17H660.184V563.472C660.184 564.504 660.256 565.182 660.4 565.506C660.556 565.83 660.916 565.992 661.48 565.992L663.082 565.884L663.172 567C662.368 567.132 661.756 567.198 661.336 567.198C660.4 567.198 659.752 566.97 659.392 566.514C659.032 566.058 658.852 565.188 658.852 563.904V559.17H657.574V558H658.852V555.246H660.184V558H663.046V559.17ZM664.694 567V558H666.044V567H664.694ZM664.694 555.966V554.4H666.044V555.966H664.694ZM669.982 567H668.632V558H669.964V558.63C670.936 558.09 671.866 557.82 672.754 557.82C673.954 557.82 674.758 558.144 675.166 558.792C675.586 559.44 675.796 560.592 675.796 562.248V567H674.464V562.284C674.464 561.036 674.338 560.184 674.086 559.728C673.846 559.26 673.324 559.026 672.52 559.026C672.136 559.026 671.728 559.086 671.296 559.206C670.876 559.314 670.552 559.422 670.324 559.53L669.982 559.692V567ZM683.916 558H685.266V567H683.916V566.37C683.016 566.91 682.128 567.18 681.252 567.18C680.028 567.18 679.212 566.862 678.804 566.226C678.408 565.59 678.21 564.414 678.21 562.698V558H679.56V562.68C679.56 563.988 679.674 564.864 679.902 565.308C680.13 565.752 680.646 565.974 681.45 565.974C681.846 565.974 682.248 565.92 682.656 565.812C683.064 565.692 683.376 565.578 683.592 565.47L683.916 565.308V558ZM693.982 565.884L694.504 565.83L694.54 566.892C693.172 567.084 692.002 567.18 691.03 567.18C689.734 567.18 688.816 566.808 688.276 566.064C687.736 565.308 687.466 564.138 687.466 562.554C687.466 559.398 688.72 557.82 691.228 557.82C692.44 557.82 693.346 558.162 693.946 558.846C694.546 559.518 694.846 560.58 694.846 562.032L694.774 563.058H688.834C688.834 564.054 689.014 564.792 689.374 565.272C689.734 565.752 690.358 565.992 691.246 565.992C692.146 565.992 693.058 565.956 693.982 565.884ZM693.496 561.978C693.496 560.874 693.316 560.094 692.956 559.638C692.608 559.182 692.032 558.954 691.228 558.954C690.436 558.954 689.836 559.194 689.428 559.674C689.032 560.154 688.828 560.922 688.816 561.978H693.496ZM700.509 562.482C700.509 560.838 700.803 559.65 701.391 558.918C701.979 558.186 702.969 557.82 704.361 557.82C705.765 557.82 706.755 558.186 707.331 558.918C707.919 559.65 708.213 560.838 708.213 562.482C708.213 564.126 707.937 565.32 707.385 566.064C706.833 566.808 705.825 567.18 704.361 567.18C702.897 567.18 701.889 566.808 701.337 566.064C700.785 565.32 700.509 564.126 700.509 562.482ZM701.895 562.464C701.895 563.772 702.051 564.69 702.363 565.218C702.687 565.746 703.353 566.01 704.361 566.01C705.381 566.01 706.047 565.752 706.359 565.236C706.671 564.708 706.827 563.784 706.827 562.464C706.827 561.144 706.653 560.238 706.305 559.746C705.957 559.242 705.309 558.99 704.361 558.99C703.425 558.99 702.777 559.242 702.417 559.746C702.069 560.238 701.895 561.144 701.895 562.464ZM711.765 567H710.415V558H711.747V558.63C712.719 558.09 713.649 557.82 714.537 557.82C715.737 557.82 716.541 558.144 716.949 558.792C717.369 559.44 717.579 560.592 717.579 562.248V567H716.247V562.284C716.247 561.036 716.121 560.184 715.869 559.728C715.629 559.26 715.107 559.026 714.303 559.026C713.919 559.026 713.511 559.086 713.079 559.206C712.659 559.314 712.335 559.422 712.107 559.53L711.765 559.692V567ZM728.7 559.17H725.838V563.472C725.838 564.504 725.91 565.182 726.054 565.506C726.21 565.83 726.57 565.992 727.134 565.992L728.736 565.884L728.826 567C728.022 567.132 727.41 567.198 726.99 567.198C726.054 567.198 725.406 566.97 725.046 566.514C724.686 566.058 724.506 565.188 724.506 563.904V559.17H723.228V558H724.506V555.246H725.838V558H728.7V559.17ZM731.699 567H730.349V554.076H731.699V558.504C732.659 558.048 733.583 557.82 734.471 557.82C735.671 557.82 736.475 558.144 736.883 558.792C737.303 559.44 737.513 560.592 737.513 562.248V567H736.163V562.284C736.163 561.036 736.037 560.184 735.785 559.728C735.545 559.26 735.029 559.026 734.237 559.026C733.481 559.026 732.749 559.164 732.041 559.44L731.699 559.566V567ZM746.137 565.884L746.659 565.83L746.695 566.892C745.327 567.084 744.157 567.18 743.185 567.18C741.889 567.18 740.971 566.808 740.431 566.064C739.891 565.308 739.621 564.138 739.621 562.554C739.621 559.398 740.875 557.82 743.383 557.82C744.595 557.82 745.501 558.162 746.101 558.846C746.701 559.518 747.001 560.58 747.001 562.032L746.929 563.058H740.989C740.989 564.054 741.169 564.792 741.529 565.272C741.889 565.752 742.513 565.992 743.401 565.992C744.301 565.992 745.213 565.956 746.137 565.884ZM745.651 561.978C745.651 560.874 745.471 560.094 745.111 559.638C744.763 559.182 744.187 558.954 743.383 558.954C742.591 558.954 741.991 559.194 741.583 559.674C741.187 560.154 740.983 560.922 740.971 561.978H745.651ZM752.322 558H753.672L755.49 565.83H755.778L757.92 558.18H759.324L761.466 565.83H761.772L763.572 558H764.922L762.78 567H760.53L758.622 559.962L756.714 567H754.464L752.322 558ZM772.803 565.884L773.325 565.83L773.361 566.892C771.993 567.084 770.823 567.18 769.851 567.18C768.555 567.18 767.637 566.808 767.097 566.064C766.557 565.308 766.287 564.138 766.287 562.554C766.287 559.398 767.541 557.82 770.049 557.82C771.261 557.82 772.167 558.162 772.767 558.846C773.367 559.518 773.667 560.58 773.667 562.032L773.595 563.058H767.655C767.655 564.054 767.835 564.792 768.195 565.272C768.555 565.752 769.179 565.992 770.067 565.992C770.967 565.992 771.879 565.956 772.803 565.884ZM772.317 561.978C772.317 560.874 772.137 560.094 771.777 559.638C771.429 559.182 770.853 558.954 770.049 558.954C769.257 558.954 768.657 559.194 768.249 559.674C767.853 560.154 767.649 560.922 767.637 561.978H772.317ZM779.749 557.82C780.961 557.82 781.807 558.168 782.287 558.864C782.779 559.548 783.025 560.754 783.025 562.482C783.025 564.21 782.719 565.428 782.107 566.136C781.507 566.832 780.397 567.18 778.777 567.18C778.273 567.18 777.439 567.132 776.275 567.036L775.771 566.982V554.076H777.103V558.45C778.015 558.03 778.897 557.82 779.749 557.82ZM778.759 565.974C779.935 565.974 780.709 565.71 781.081 565.182C781.465 564.642 781.657 563.736 781.657 562.464C781.657 561.192 781.507 560.304 781.207 559.8C780.907 559.284 780.373 559.026 779.605 559.026C778.909 559.026 778.195 559.158 777.463 559.422L777.103 559.548V565.884C777.883 565.944 778.435 565.974 778.759 565.974ZM788.071 559.026C786.763 559.026 786.109 559.482 786.109 560.394C786.109 560.814 786.259 561.114 786.559 561.294C786.859 561.462 787.543 561.642 788.611 561.834C789.679 562.014 790.435 562.272 790.879 562.608C791.323 562.944 791.545 563.574 791.545 564.498C791.545 565.422 791.245 566.1 790.645 566.532C790.057 566.964 789.193 567.18 788.053 567.18C787.309 567.18 786.433 567.096 785.425 566.928L784.885 566.838L784.957 565.668C786.325 565.872 787.357 565.974 788.053 565.974C788.749 565.974 789.277 565.866 789.637 565.65C790.009 565.422 790.195 565.05 790.195 564.534C790.195 564.006 790.039 563.652 789.727 563.472C789.415 563.28 788.731 563.1 787.675 562.932C786.619 562.764 785.869 562.518 785.425 562.194C784.981 561.87 784.759 561.27 784.759 560.394C784.759 559.518 785.065 558.87 785.677 558.45C786.301 558.03 787.075 557.82 787.999 557.82C788.731 557.82 789.649 557.904 790.753 558.072L791.257 558.162L791.221 559.314C789.889 559.122 788.839 559.026 788.071 559.026ZM793.612 567V558H794.962V567H793.612ZM793.612 555.966V554.4H794.962V555.966H793.612ZM802.212 559.17H799.35V563.472C799.35 564.504 799.422 565.182 799.566 565.506C799.722 565.83 800.082 565.992 800.646 565.992L802.248 565.884L802.338 567C801.534 567.132 800.922 567.198 800.502 567.198C799.566 567.198 798.918 566.97 798.558 566.514C798.198 566.058 798.018 565.188 798.018 563.904V559.17H796.74V558H798.018V555.246H799.35V558H802.212V559.17ZM809.98 565.884L810.502 565.83L810.538 566.892C809.17 567.084 808 567.18 807.028 567.18C805.732 567.18 804.814 566.808 804.274 566.064C803.734 565.308 803.464 564.138 803.464 562.554C803.464 559.398 804.718 557.82 807.226 557.82C808.438 557.82 809.344 558.162 809.944 558.846C810.544 559.518 810.844 560.58 810.844 562.032L810.772 563.058H804.832C804.832 564.054 805.012 564.792 805.372 565.272C805.732 565.752 806.356 565.992 807.244 565.992C808.144 565.992 809.056 565.956 809.98 565.884ZM809.494 561.978C809.494 560.874 809.314 560.094 808.954 559.638C808.606 559.182 808.03 558.954 807.226 558.954C806.434 558.954 805.834 559.194 805.426 559.674C805.03 560.154 804.826 560.922 804.814 561.978H809.494Z" fill="#17324D"/>
<rect x="666.5" y="599" width="107" height="46" rx="3" stroke="#0066CC" stroke-width="2"/>
<rect x="665.5" y="598" width="109" height="48" rx="4" fill="#0066CC"/>
<path d="M694.483 628.176C692.883 628.176 691.795 627.733 691.219 626.848C690.654 625.963 690.371 624.507 690.371 622.48C690.371 620.453 690.659 619.013 691.235 618.16C691.811 617.296 692.894 616.864 694.483 616.864C695.432 616.864 696.478 616.997 697.619 617.264L697.555 618.704C696.595 618.533 695.635 618.448 694.675 618.448C693.715 618.448 693.064 618.736 692.723 619.312C692.382 619.877 692.211 620.949 692.211 622.528C692.211 624.096 692.376 625.168 692.707 625.744C693.038 626.309 693.683 626.592 694.643 626.592C695.603 626.592 696.574 626.512 697.555 626.352L697.603 627.824C696.504 628.059 695.464 628.176 694.483 628.176ZM699.59 620.864C700.144 620.171 701.062 619.824 702.342 619.824C703.622 619.824 704.534 620.171 705.078 620.864C705.632 621.557 705.91 622.597 705.91 623.984C705.91 625.371 705.643 626.416 705.11 627.12C704.576 627.824 703.654 628.176 702.342 628.176C701.03 628.176 700.107 627.824 699.574 627.12C699.04 626.416 698.774 625.371 698.774 623.984C698.774 622.597 699.046 621.557 699.59 620.864ZM700.902 626.064C701.147 626.491 701.627 626.704 702.342 626.704C703.056 626.704 703.536 626.491 703.782 626.064C704.027 625.637 704.15 624.939 704.15 623.968C704.15 622.997 704.016 622.309 703.75 621.904C703.494 621.499 703.024 621.296 702.342 621.296C701.659 621.296 701.184 621.499 700.918 621.904C700.662 622.309 700.534 622.997 700.534 623.968C700.534 624.939 700.656 625.637 700.902 626.064ZM709.386 628H707.642V620H709.37V620.496C710.149 620.048 710.885 619.824 711.578 619.824C712.645 619.824 713.37 620.128 713.754 620.736C714.149 621.333 714.346 622.325 714.346 623.712V628H712.618V623.76C712.618 622.896 712.522 622.283 712.33 621.92C712.149 621.557 711.77 621.376 711.194 621.376C710.65 621.376 710.127 621.483 709.626 621.696L709.386 621.792V628ZM720.68 621.488H718.472V625.008C718.472 625.659 718.52 626.091 718.616 626.304C718.712 626.517 718.958 626.624 719.352 626.624L720.664 626.576L720.744 627.968C720.03 628.107 719.486 628.176 719.112 628.176C718.206 628.176 717.582 627.968 717.24 627.552C716.91 627.136 716.744 626.352 716.744 625.2V621.488H715.72V620H716.744V617.68H718.472V620H720.68V621.488ZM722.111 628V620H723.855V628H722.111ZM722.111 618.64V616.8H723.855V618.64H722.111ZM727.714 628H725.97V620H727.698V620.496C728.477 620.048 729.213 619.824 729.906 619.824C730.973 619.824 731.698 620.128 732.082 620.736C732.477 621.333 732.674 622.325 732.674 623.712V628H730.946V623.76C730.946 622.896 730.85 622.283 730.658 621.92C730.477 621.557 730.098 621.376 729.522 621.376C728.978 621.376 728.455 621.483 727.954 621.696L727.714 621.792V628ZM739.552 620H741.28V628H739.552V627.504C738.774 627.952 738.054 628.176 737.392 628.176C736.294 628.176 735.558 627.883 735.184 627.296C734.811 626.699 734.624 625.659 734.624 624.176V620H736.368V624.192C736.368 625.152 736.448 625.797 736.608 626.128C736.768 626.459 737.142 626.624 737.728 626.624C738.304 626.624 738.832 626.517 739.312 626.304L739.552 626.208V620ZM749.088 626.56L749.536 626.512L749.568 627.808C748.352 628.053 747.275 628.176 746.336 628.176C745.152 628.176 744.299 627.851 743.776 627.2C743.264 626.549 743.008 625.509 743.008 624.08C743.008 621.243 744.165 619.824 746.48 619.824C748.72 619.824 749.84 621.045 749.84 623.488L749.728 624.736H744.768C744.779 625.397 744.923 625.883 745.2 626.192C745.477 626.501 745.995 626.656 746.752 626.656C747.509 626.656 748.288 626.624 749.088 626.56ZM748.128 623.392C748.128 622.603 748 622.053 747.744 621.744C747.499 621.424 747.077 621.264 746.48 621.264C745.883 621.264 745.445 621.429 745.168 621.76C744.901 622.091 744.763 622.635 744.752 623.392H748.128Z" fill="white"/>
<rect width="1440" height="62" transform="translate(0 778)" fill="#003366"/>
<mask id="path-23-inside-1_2087_7518" fill="white">
<path d="M0 778H1440V840H0V778Z"/>
</mask>
<path d="M0 778H1440V840H0V778Z" fill="#004D99"/>
<path d="M0 778V779H1440V778V777H0V778Z" fill="white" fill-opacity="0.5" mask="url(#path-23-inside-1_2087_7518)"/>
<path d="M30.482 814H25.106V804.41H26.66V812.614H30.482V814ZM36.5525 812.74L36.9445 812.698L36.9725 813.832C35.9085 814.047 34.9659 814.154 34.1445 814.154C33.1085 814.154 32.3619 813.869 31.9045 813.3C31.4565 812.731 31.2325 811.821 31.2325 810.57C31.2325 808.087 32.2452 806.846 34.2705 806.846C36.2305 806.846 37.2105 807.915 37.2105 810.052L37.1125 811.144H32.7725C32.7819 811.723 32.9079 812.147 33.1505 812.418C33.3932 812.689 33.8459 812.824 34.5085 812.824C35.1712 812.824 35.8525 812.796 36.5525 812.74ZM35.7125 809.968C35.7125 809.277 35.6005 808.797 35.3765 808.526C35.1619 808.246 34.7932 808.106 34.2705 808.106C33.7479 808.106 33.3652 808.251 33.1225 808.54C32.8892 808.829 32.7679 809.305 32.7585 809.968H35.7125ZM44.7959 814.952C44.7959 816.483 43.6899 817.248 41.4779 817.248C40.4139 817.248 39.6252 817.103 39.1119 816.814C38.5986 816.525 38.3419 815.997 38.3419 815.232C38.3419 814.887 38.4259 814.588 38.5939 814.336C38.7619 814.093 39.0326 813.827 39.4059 813.538C39.0979 813.333 38.9439 812.992 38.9439 812.516C38.9439 812.329 39.0699 812.026 39.3219 811.606L39.4479 811.396C38.7759 810.995 38.4399 810.295 38.4399 809.296C38.4399 808.456 38.6919 807.84 39.1959 807.448C39.6999 807.056 40.3812 806.86 41.2399 806.86C41.6506 806.86 42.0566 806.907 42.4579 807L42.6679 807.042L44.8379 806.986V808.218L43.6759 808.148C43.9279 808.475 44.0539 808.857 44.0539 809.296C44.0539 810.211 43.8206 810.845 43.3539 811.2C42.8966 811.545 42.1779 811.718 41.1979 811.718C40.9552 811.718 40.7499 811.699 40.5819 811.662C40.4512 811.979 40.3859 812.227 40.3859 812.404C40.3859 812.572 40.4699 812.689 40.6379 812.754C40.8152 812.819 41.2352 812.857 41.8979 812.866C43.0086 812.875 43.7692 813.025 44.1799 813.314C44.5906 813.603 44.7959 814.149 44.7959 814.952ZM39.8399 815.092C39.8399 815.419 39.9706 815.652 40.2319 815.792C40.4932 815.932 40.9412 816.002 41.5759 816.002C42.7052 816.002 43.2699 815.68 43.2699 815.036C43.2699 814.672 43.1672 814.439 42.9619 814.336C42.7659 814.243 42.3692 814.191 41.7719 814.182L40.3999 814.098C40.1946 814.266 40.0499 814.42 39.9659 814.56C39.8819 814.709 39.8399 814.887 39.8399 815.092ZM39.9519 809.296C39.9519 809.725 40.0546 810.043 40.2599 810.248C40.4652 810.444 40.7966 810.542 41.2539 810.542C41.7112 810.542 42.0379 810.444 42.2339 810.248C42.4392 810.043 42.5419 809.725 42.5419 809.296C42.5419 808.867 42.4392 808.554 42.2339 808.358C42.0286 808.153 41.6972 808.05 41.2399 808.05C40.3812 808.05 39.9519 808.465 39.9519 809.296ZM51.2134 809.156V812.348C51.2227 812.553 51.274 812.707 51.3674 812.81C51.47 812.903 51.624 812.964 51.8294 812.992L51.7874 814.154C50.9847 814.154 50.364 813.981 49.9254 813.636C49.1787 813.981 48.4274 814.154 47.6714 814.154C46.2807 814.154 45.5854 813.412 45.5854 811.928C45.5854 811.219 45.772 810.705 46.1454 810.388C46.528 810.071 47.1114 809.879 47.8954 809.814L49.7014 809.66V809.156C49.7014 808.783 49.6174 808.521 49.4494 808.372C49.2907 808.223 49.0527 808.148 48.7354 808.148C48.138 808.148 47.3914 808.185 46.4954 808.26L46.0474 808.288L45.9914 807.21C47.0087 806.967 47.942 806.846 48.7914 806.846C49.65 806.846 50.266 807.033 50.6394 807.406C51.022 807.77 51.2134 808.353 51.2134 809.156ZM48.0774 810.892C47.4334 810.948 47.1114 811.298 47.1114 811.942C47.1114 812.586 47.396 812.908 47.9654 812.908C48.432 812.908 48.9267 812.833 49.4494 812.684L49.7014 812.6V810.738L48.0774 810.892ZM53.2131 814V804.088H54.7391V814H53.2131ZM59.9283 814V804.41H62.6443L65.5563 812.628H65.7663V804.41H67.3203V814H64.6603L61.6783 805.768H61.4823V814H59.9283ZM69.6399 807.756C70.1252 807.149 70.9279 806.846 72.0479 806.846C73.1679 806.846 73.9659 807.149 74.4419 807.756C74.9272 808.363 75.1699 809.273 75.1699 810.486C75.1699 811.699 74.9366 812.614 74.4699 813.23C74.0032 813.846 73.1959 814.154 72.0479 814.154C70.8999 814.154 70.0926 813.846 69.6259 813.23C69.1592 812.614 68.9259 811.699 68.9259 810.486C68.9259 809.273 69.1639 808.363 69.6399 807.756ZM70.7879 812.306C71.0026 812.679 71.4226 812.866 72.0479 812.866C72.6732 812.866 73.0932 812.679 73.3079 812.306C73.5226 811.933 73.6299 811.321 73.6299 810.472C73.6299 809.623 73.5132 809.021 73.2799 808.666C73.0559 808.311 72.6452 808.134 72.0479 808.134C71.4506 808.134 71.0352 808.311 70.8019 808.666C70.5779 809.021 70.4659 809.623 70.4659 810.472C70.4659 811.321 70.5732 811.933 70.7879 812.306ZM80.4517 808.302H78.5197V811.382C78.5197 811.951 78.5617 812.329 78.6457 812.516C78.7297 812.703 78.9444 812.796 79.2897 812.796L80.4377 812.754L80.5077 813.972C79.8824 814.093 79.4064 814.154 79.0797 814.154C78.2864 814.154 77.7404 813.972 77.4417 813.608C77.1524 813.244 77.0077 812.558 77.0077 811.55V808.302H76.1117V807H77.0077V804.97H78.5197V807H80.4517V808.302ZM86.6873 812.74L87.0793 812.698L87.1073 813.832C86.0433 814.047 85.1006 814.154 84.2793 814.154C83.2433 814.154 82.4966 813.869 82.0393 813.3C81.5913 812.731 81.3673 811.821 81.3673 810.57C81.3673 808.087 82.38 806.846 84.4053 806.846C86.3653 806.846 87.3453 807.915 87.3453 810.052L87.2473 811.144H82.9073C82.9166 811.723 83.0426 812.147 83.2853 812.418C83.528 812.689 83.9806 812.824 84.6433 812.824C85.306 812.824 85.9873 812.796 86.6873 812.74ZM85.8473 809.968C85.8473 809.277 85.7353 808.797 85.5113 808.526C85.2966 808.246 84.928 808.106 84.4053 808.106C83.8826 808.106 83.5 808.251 83.2573 808.54C83.024 808.829 82.9026 809.305 82.8933 809.968H85.8473ZM93.6707 808.442C92.5693 808.293 91.7713 808.218 91.2767 808.218C90.782 808.218 90.4367 808.279 90.2407 808.4C90.054 808.512 89.9607 808.694 89.9607 808.946C89.9607 809.198 90.0633 809.375 90.2687 809.478C90.4833 809.581 90.978 809.702 91.7527 809.842C92.5367 809.973 93.092 810.183 93.4187 810.472C93.7453 810.761 93.9087 811.275 93.9087 812.012C93.9087 812.749 93.6707 813.291 93.1947 813.636C92.728 813.981 92.042 814.154 91.1367 814.154C90.5673 814.154 89.8487 814.075 88.9807 813.916L88.5467 813.846L88.6027 812.572C89.7227 812.721 90.53 812.796 91.0247 812.796C91.5193 812.796 91.8693 812.735 92.0747 812.614C92.2893 812.493 92.3967 812.292 92.3967 812.012C92.3967 811.732 92.294 811.541 92.0887 811.438C91.8927 811.326 91.412 811.209 90.6467 811.088C89.8907 810.957 89.3353 810.757 88.9807 810.486C88.626 810.215 88.4487 809.721 88.4487 809.002C88.4487 808.283 88.6913 807.747 89.1767 807.392C89.6713 807.037 90.3013 806.86 91.0667 806.86C91.664 806.86 92.3967 806.935 93.2647 807.084L93.6987 807.168L93.6707 808.442Z" fill="white"/>
<path d="M24 815.54H37.9394V815.96H24V815.54ZM45.1466 815.54H94.4547V815.96H45.1466V815.54Z" fill="white"/>
<path d="M123.62 811.018H121.66V814H120.106V804.41H123.62C125.795 804.41 126.882 805.483 126.882 807.63C126.882 808.731 126.607 809.571 126.056 810.15C125.515 810.729 124.703 811.018 123.62 811.018ZM121.66 809.674H123.606C124.726 809.674 125.286 808.993 125.286 807.63C125.286 806.977 125.151 806.501 124.88 806.202C124.609 805.903 124.185 805.754 123.606 805.754H121.66V809.674ZM128.195 814V807H129.707V807.84C130.501 807.327 131.294 806.995 132.087 806.846V808.372C131.285 808.531 130.599 808.736 130.029 808.988L129.721 809.114V814H128.195ZM133.254 814V807H134.78V814H133.254ZM133.254 805.81V804.2H134.78V805.81H133.254ZM135.973 807H137.569L138.913 812.698H139.361L140.761 807H142.315L140.495 814H137.779L135.973 807ZM148.592 809.156V812.348C148.602 812.553 148.653 812.707 148.746 812.81C148.849 812.903 149.003 812.964 149.208 812.992L149.166 814.154C148.364 814.154 147.743 813.981 147.304 813.636C146.558 813.981 145.806 814.154 145.05 814.154C143.66 814.154 142.964 813.412 142.964 811.928C142.964 811.219 143.151 810.705 143.524 810.388C143.907 810.071 144.49 809.879 145.274 809.814L147.08 809.66V809.156C147.08 808.783 146.996 808.521 146.828 808.372C146.67 808.223 146.432 808.148 146.114 808.148C145.517 808.148 144.77 808.185 143.874 808.26L143.426 808.288L143.37 807.21C144.388 806.967 145.321 806.846 146.17 806.846C147.029 806.846 147.645 807.033 148.018 807.406C148.401 807.77 148.592 808.353 148.592 809.156ZM145.456 810.892C144.812 810.948 144.49 811.298 144.49 811.942C144.49 812.586 144.775 812.908 145.344 812.908C145.811 812.908 146.306 812.833 146.828 812.684L147.08 812.6V810.738L145.456 810.892ZM153.126 806.846C153.621 806.846 154.204 806.911 154.876 807.042L155.226 807.112L155.17 808.316C154.433 808.241 153.887 808.204 153.532 808.204C152.823 808.204 152.347 808.363 152.104 808.68C151.861 808.997 151.74 809.595 151.74 810.472C151.74 811.349 151.857 811.956 152.09 812.292C152.323 812.628 152.809 812.796 153.546 812.796L155.184 812.684L155.226 813.902C154.283 814.07 153.574 814.154 153.098 814.154C152.034 814.154 151.283 813.869 150.844 813.3C150.415 812.721 150.2 811.779 150.2 810.472C150.2 809.165 150.429 808.237 150.886 807.686C151.343 807.126 152.09 806.846 153.126 806.846ZM156.057 807H157.555L159.039 812.698H159.417L160.901 807H162.413L159.753 817.01H158.255L159.095 814H157.891L156.057 807ZM170.364 811.018H168.404V814H166.85V804.41H170.364C172.539 804.41 173.626 805.483 173.626 807.63C173.626 808.731 173.351 809.571 172.8 810.15C172.259 810.729 171.447 811.018 170.364 811.018ZM168.404 809.674H170.35C171.47 809.674 172.03 808.993 172.03 807.63C172.03 806.977 171.895 806.501 171.624 806.202C171.353 805.903 170.929 805.754 170.35 805.754H168.404V809.674ZM175.318 807.756C175.803 807.149 176.606 806.846 177.726 806.846C178.846 806.846 179.644 807.149 180.12 807.756C180.605 808.363 180.848 809.273 180.848 810.486C180.848 811.699 180.614 812.614 180.148 813.23C179.681 813.846 178.874 814.154 177.726 814.154C176.578 814.154 175.77 813.846 175.304 813.23C174.837 812.614 174.604 811.699 174.604 810.486C174.604 809.273 174.842 808.363 175.318 807.756ZM176.466 812.306C176.68 812.679 177.1 812.866 177.726 812.866C178.351 812.866 178.771 812.679 178.986 812.306C179.2 811.933 179.308 811.321 179.308 810.472C179.308 809.623 179.191 809.021 178.958 808.666C178.734 808.311 178.323 808.134 177.726 808.134C177.128 808.134 176.713 808.311 176.48 808.666C176.256 809.021 176.144 809.623 176.144 810.472C176.144 811.321 176.251 811.933 176.466 812.306ZM182.447 814V804.088H183.973V814H182.447ZM185.904 814V807H187.43V814H185.904ZM185.904 805.81V804.2H187.43V805.81H185.904ZM191.899 806.846C192.394 806.846 192.977 806.911 193.649 807.042L193.999 807.112L193.943 808.316C193.206 808.241 192.66 808.204 192.305 808.204C191.596 808.204 191.12 808.363 190.877 808.68C190.635 808.997 190.513 809.595 190.513 810.472C190.513 811.349 190.63 811.956 190.863 812.292C191.097 812.628 191.582 812.796 192.319 812.796L193.957 812.684L193.999 813.902C193.057 814.07 192.347 814.154 191.871 814.154C190.807 814.154 190.056 813.869 189.617 813.3C189.188 812.721 188.973 811.779 188.973 810.472C188.973 809.165 189.202 808.237 189.659 807.686C190.117 807.126 190.863 806.846 191.899 806.846ZM194.831 807H196.329L197.813 812.698H198.191L199.675 807H201.187L198.527 817.01H197.029L197.869 814H196.665L194.831 807Z" fill="white"/>
<path d="M119 815.54H158.127V815.96H119V815.54ZM160.561 815.54H196.9V815.96H160.561V815.54ZM199.334 815.54H201.439V815.96H199.334V815.54Z" fill="white"/>
<path d="M226.28 814L228.646 804.41H231.74L234.12 814H232.552L232.034 811.942H228.352L227.834 814H226.28ZM229.85 805.712L228.66 810.57H231.726L230.55 805.712H229.85ZM237.855 806.846C238.349 806.846 238.933 806.911 239.605 807.042L239.955 807.112L239.899 808.316C239.161 808.241 238.615 808.204 238.261 808.204C237.551 808.204 237.075 808.363 236.833 808.68C236.59 808.997 236.469 809.595 236.469 810.472C236.469 811.349 236.585 811.956 236.819 812.292C237.052 812.628 237.537 812.796 238.275 812.796L239.913 812.684L239.955 813.902C239.012 814.07 238.303 814.154 237.827 814.154C236.763 814.154 236.011 813.869 235.573 813.3C235.143 812.721 234.929 811.779 234.929 810.472C234.929 809.165 235.157 808.237 235.615 807.686C236.072 807.126 236.819 806.846 237.855 806.846ZM243.98 806.846C244.474 806.846 245.058 806.911 245.73 807.042L246.08 807.112L246.024 808.316C245.286 808.241 244.74 808.204 244.386 808.204C243.676 808.204 243.2 808.363 242.958 808.68C242.715 808.997 242.594 809.595 242.594 810.472C242.594 811.349 242.71 811.956 242.944 812.292C243.177 812.628 243.662 812.796 244.4 812.796L246.038 812.684L246.08 813.902C245.137 814.07 244.428 814.154 243.952 814.154C242.888 814.154 242.136 813.869 241.698 813.3C241.268 812.721 241.054 811.779 241.054 810.472C241.054 809.165 241.282 808.237 241.74 807.686C242.197 807.126 242.944 806.846 243.98 806.846ZM252.471 812.74L252.863 812.698L252.891 813.832C251.827 814.047 250.884 814.154 250.062 814.154C249.027 814.154 248.28 813.869 247.823 813.3C247.375 812.731 247.151 811.821 247.151 810.57C247.151 808.087 248.163 806.846 250.189 806.846C252.149 806.846 253.129 807.915 253.129 810.052L253.031 811.144H248.691C248.7 811.723 248.826 812.147 249.069 812.418C249.311 812.689 249.764 812.824 250.427 812.824C251.089 812.824 251.771 812.796 252.471 812.74ZM251.631 809.968C251.631 809.277 251.519 808.797 251.295 808.526C251.08 808.246 250.711 808.106 250.189 808.106C249.666 808.106 249.283 808.251 249.041 808.54C248.807 808.829 248.686 809.305 248.677 809.968H251.631ZM259.454 808.442C258.353 808.293 257.555 808.218 257.06 808.218C256.565 808.218 256.22 808.279 256.024 808.4C255.837 808.512 255.744 808.694 255.744 808.946C255.744 809.198 255.847 809.375 256.052 809.478C256.267 809.581 256.761 809.702 257.536 809.842C258.32 809.973 258.875 810.183 259.202 810.472C259.529 810.761 259.692 811.275 259.692 812.012C259.692 812.749 259.454 813.291 258.978 813.636C258.511 813.981 257.825 814.154 256.92 814.154C256.351 814.154 255.632 814.075 254.764 813.916L254.33 813.846L254.386 812.572C255.506 812.721 256.313 812.796 256.808 812.796C257.303 812.796 257.653 812.735 257.858 812.614C258.073 812.493 258.18 812.292 258.18 812.012C258.18 811.732 258.077 811.541 257.872 811.438C257.676 811.326 257.195 811.209 256.43 811.088C255.674 810.957 255.119 810.757 254.764 810.486C254.409 810.215 254.232 809.721 254.232 809.002C254.232 808.283 254.475 807.747 254.96 807.392C255.455 807.037 256.085 806.86 256.85 806.86C257.447 806.86 258.18 806.935 259.048 807.084L259.482 807.168L259.454 808.442ZM266.016 808.442C264.915 808.293 264.117 808.218 263.622 808.218C263.128 808.218 262.782 808.279 262.586 808.4C262.4 808.512 262.306 808.694 262.306 808.946C262.306 809.198 262.409 809.375 262.614 809.478C262.829 809.581 263.324 809.702 264.098 809.842C264.882 809.973 265.438 810.183 265.764 810.472C266.091 810.761 266.254 811.275 266.254 812.012C266.254 812.749 266.016 813.291 265.54 813.636C265.074 813.981 264.388 814.154 263.482 814.154C262.913 814.154 262.194 814.075 261.326 813.916L260.892 813.846L260.948 812.572C262.068 812.721 262.876 812.796 263.37 812.796C263.865 812.796 264.215 812.735 264.42 812.614C264.635 812.493 264.742 812.292 264.742 812.012C264.742 811.732 264.64 811.541 264.434 811.438C264.238 811.326 263.758 811.209 262.992 811.088C262.236 810.957 261.681 810.757 261.326 810.486C260.972 810.215 260.794 809.721 260.794 809.002C260.794 808.283 261.037 807.747 261.522 807.392C262.017 807.037 262.647 806.86 263.412 806.86C264.01 806.86 264.742 806.935 265.61 807.084L266.044 807.168L266.016 808.442ZM267.721 814V807H269.247V814H267.721ZM267.721 805.81V804.2H269.247V805.81H267.721ZM274.36 806.846C275.321 806.846 276.012 807.117 276.432 807.658C276.861 808.19 277.076 809.137 277.076 810.5C277.076 811.863 276.824 812.815 276.32 813.356C275.816 813.888 274.929 814.154 273.66 814.154C273.221 814.154 272.526 814.112 271.574 814.028L271.098 813.986V804.088H272.61V807.266C273.254 806.986 273.837 806.846 274.36 806.846ZM273.66 812.796C274.406 812.796 274.901 812.623 275.144 812.278C275.396 811.923 275.522 811.326 275.522 810.486C275.522 809.646 275.414 809.058 275.2 808.722C274.994 808.377 274.654 808.204 274.178 808.204C273.73 808.204 273.282 808.274 272.834 808.414L272.61 808.484V812.74C273.123 812.777 273.473 812.796 273.66 812.796ZM278.604 814V807H280.13V814H278.604ZM278.604 805.81V804.2H280.13V805.81H278.604ZM282.065 814V804.088H283.591V814H282.065ZM285.522 814V807H287.048V814H285.522ZM285.522 805.81V804.2H287.048V805.81H285.522ZM292.665 808.302H290.733V811.382C290.733 811.951 290.775 812.329 290.859 812.516C290.943 812.703 291.157 812.796 291.503 812.796L292.651 812.754L292.721 813.972C292.095 814.093 291.619 814.154 291.293 814.154C290.499 814.154 289.953 813.972 289.655 813.608C289.365 813.244 289.221 812.558 289.221 811.55V808.302H288.325V807H289.221V804.97H290.733V807H292.665V808.302ZM293.272 807H294.77L296.254 812.698H296.632L298.116 807H299.628L296.968 817.01H295.47L296.31 814H295.106L293.272 807ZM306.879 805.614C305.694 805.614 305.101 806.029 305.101 806.86C305.101 807.289 305.241 807.597 305.521 807.784C305.801 807.961 306.417 808.185 307.369 808.456C308.33 808.717 309.007 809.035 309.399 809.408C309.791 809.772 309.987 810.351 309.987 811.144C309.987 812.152 309.698 812.908 309.119 813.412C308.55 813.907 307.77 814.154 306.781 814.154C305.988 814.154 305.11 814.061 304.149 813.874L303.645 813.776L303.799 812.53C305.059 812.698 306.02 812.782 306.683 812.782C307.84 812.782 308.419 812.269 308.419 811.242C308.419 810.841 308.288 810.547 308.027 810.36C307.766 810.164 307.178 809.954 306.263 809.73C305.348 809.497 304.667 809.179 304.219 808.778C303.771 808.377 303.547 807.742 303.547 806.874C303.547 806.006 303.827 805.353 304.387 804.914C304.956 804.466 305.74 804.242 306.739 804.242C307.458 804.242 308.307 804.326 309.287 804.494L309.777 804.578L309.651 805.838C308.344 805.689 307.42 805.614 306.879 805.614ZM315.155 808.302H313.223V811.382C313.223 811.951 313.265 812.329 313.349 812.516C313.433 812.703 313.648 812.796 313.993 812.796L315.141 812.754L315.211 813.972C314.586 814.093 314.11 814.154 313.783 814.154C312.99 814.154 312.444 813.972 312.145 813.608C311.856 813.244 311.711 812.558 311.711 811.55V808.302H310.815V807H311.711V804.97H313.223V807H315.155V808.302ZM321.586 809.156V812.348C321.596 812.553 321.647 812.707 321.74 812.81C321.843 812.903 321.997 812.964 322.202 812.992L322.16 814.154C321.358 814.154 320.737 813.981 320.298 813.636C319.552 813.981 318.8 814.154 318.044 814.154C316.654 814.154 315.958 813.412 315.958 811.928C315.958 811.219 316.145 810.705 316.518 810.388C316.901 810.071 317.484 809.879 318.268 809.814L320.074 809.66V809.156C320.074 808.783 319.99 808.521 319.822 808.372C319.664 808.223 319.426 808.148 319.108 808.148C318.511 808.148 317.764 808.185 316.868 808.26L316.42 808.288L316.364 807.21C317.382 806.967 318.315 806.846 319.164 806.846C320.023 806.846 320.639 807.033 321.012 807.406C321.395 807.77 321.586 808.353 321.586 809.156ZM318.45 810.892C317.806 810.948 317.484 811.298 317.484 811.942C317.484 812.586 317.769 812.908 318.338 812.908C318.805 812.908 319.3 812.833 319.822 812.684L320.074 812.6V810.738L318.45 810.892ZM327.268 808.302H325.336V811.382C325.336 811.951 325.378 812.329 325.462 812.516C325.546 812.703 325.761 812.796 326.106 812.796L327.254 812.754L327.324 813.972C326.699 814.093 326.223 814.154 325.896 814.154C325.103 814.154 324.557 813.972 324.258 813.608C323.969 813.244 323.824 812.558 323.824 811.55V808.302H322.928V807H323.824V804.97H325.336V807H327.268V808.302ZM333.504 812.74L333.896 812.698L333.924 813.832C332.86 814.047 331.917 814.154 331.096 814.154C330.06 814.154 329.313 813.869 328.856 813.3C328.408 812.731 328.184 811.821 328.184 810.57C328.184 808.087 329.196 806.846 331.222 806.846C333.182 806.846 334.162 807.915 334.162 810.052L334.064 811.144H329.724C329.733 811.723 329.859 812.147 330.102 812.418C330.344 812.689 330.797 812.824 331.46 812.824C332.122 812.824 332.804 812.796 333.504 812.74ZM332.664 809.968C332.664 809.277 332.552 808.797 332.328 808.526C332.113 808.246 331.744 808.106 331.222 808.106C330.699 808.106 330.316 808.251 330.074 808.54C329.84 808.829 329.719 809.305 329.71 809.968H332.664ZM337.155 814H335.629V807H337.141V807.434C337.804 807.042 338.41 806.846 338.961 806.846C339.773 806.846 340.366 807.075 340.739 807.532C341.588 807.075 342.433 806.846 343.273 806.846C344.113 806.846 344.706 807.107 345.051 807.63C345.396 808.143 345.569 809.016 345.569 810.248V814H344.057V810.29C344.057 809.534 343.978 808.997 343.819 808.68C343.67 808.363 343.352 808.204 342.867 808.204C342.447 808.204 341.994 808.297 341.509 808.484L341.271 808.582C341.346 808.769 341.383 809.366 341.383 810.374V814H339.871V810.402C339.871 809.571 339.796 808.997 339.647 808.68C339.498 808.363 339.171 808.204 338.667 808.204C338.2 808.204 337.766 808.297 337.365 808.484L337.155 808.568V814ZM352.344 812.74L352.736 812.698L352.764 813.832C351.7 814.047 350.757 814.154 349.936 814.154C348.9 814.154 348.153 813.869 347.696 813.3C347.248 812.731 347.024 811.821 347.024 810.57C347.024 808.087 348.036 806.846 350.062 806.846C352.022 806.846 353.002 807.915 353.002 810.052L352.904 811.144H348.564C348.573 811.723 348.699 812.147 348.942 812.418C349.184 812.689 349.637 812.824 350.3 812.824C350.962 812.824 351.644 812.796 352.344 812.74ZM351.504 809.968C351.504 809.277 351.392 808.797 351.168 808.526C350.953 808.246 350.584 808.106 350.062 808.106C349.539 808.106 349.156 808.251 348.914 808.54C348.68 808.829 348.559 809.305 348.55 809.968H351.504ZM355.995 814H354.469V807H355.981V807.434C356.662 807.042 357.306 806.846 357.913 806.846C358.846 806.846 359.481 807.112 359.817 807.644C360.162 808.167 360.335 809.035 360.335 810.248V814H358.823V810.29C358.823 809.534 358.739 808.997 358.571 808.68C358.412 808.363 358.081 808.204 357.577 808.204C357.101 808.204 356.644 808.297 356.205 808.484L355.995 808.568V814ZM365.878 808.302H363.946V811.382C363.946 811.951 363.988 812.329 364.072 812.516C364.156 812.703 364.37 812.796 364.716 812.796L365.864 812.754L365.934 813.972C365.308 814.093 364.832 814.154 364.506 814.154C363.712 814.154 363.166 813.972 362.868 813.608C362.578 813.244 362.434 812.558 362.434 811.55V808.302H361.538V807H362.434V804.97H363.946V807H365.878V808.302Z" fill="white"/>
<path d="M226 815.54H295.346V815.96H226V815.54ZM297.779 815.54H366.199V815.96H297.779V815.54Z" fill="white"/>
</g>
<defs>
<clipPath id="clip0_2087_7518">
<rect width="1440" height="840" fill="white"/>
</clipPath>
<clipPath id="clip1_2087_7518">
<rect width="47" height="24" fill="white" transform="translate(1321 14)"/>
</clipPath>
</defs>
</svg>
