<svg width="217" height="48" viewBox="0 0 217 48" fill="none" xmlns="http://www.w3.org/2000/svg">
<rect width="216.076" height="48" rx="4" fill="#0066CC"/>
<g clip-path="url(#clip0_2149_27054)">
<path d="M33.4711 12.1181C33.3255 12.0357 33.1708 11.9991 33.0207 12C32.5465 12.0037 32.1117 12.3836 32.1144 12.9127L32.141 17.7572L25.3722 13.9609C25.2258 13.8785 25.0711 13.8419 24.9209 13.8428C24.4467 13.8464 24.0156 14.2264 24.0146 14.7555L24 30.7225C24 31.4429 24.3241 32.0709 25.018 32.46L31.1029 35.8819C31.2493 35.9643 31.404 36.0009 31.5542 36C32.0284 35.9963 32.4605 35.6164 32.4605 35.0873V18.7138L35.6773 20.5044C36.3721 20.8907 36.6953 21.5215 36.6953 22.2419V31.8357L42.7124 35.2109C42.8589 35.2933 43.0136 35.3299 43.1637 35.329C43.6379 35.3253 44.07 34.9454 44.07 34.4163L44.0764 19.2338C44.0764 18.5133 43.7523 17.8854 43.0584 17.4963L33.4711 12.1181Z" fill="white"/>
</g>
<path d="M61.7935 30V19.04H68.7055V20.592H63.5695V23.696H67.7455V25.232H63.5695V28.432H68.7055V30H61.7935ZM72.1733 30H70.4293V22H72.1573V22.496C72.936 22.048 73.672 21.824 74.3653 21.824C75.432 21.824 76.1573 22.128 76.5413 22.736C76.936 23.3333 77.1333 24.3253 77.1333 25.712V30H75.4053V25.76C75.4053 24.896 75.3093 24.2827 75.1173 23.92C74.936 23.5573 74.5573 23.376 73.9813 23.376C73.4373 23.376 72.9146 23.4827 72.4133 23.696L72.1733 23.792V30ZM83.4677 23.488H81.2597V27.008C81.2597 27.6587 81.3077 28.0907 81.4037 28.304C81.4997 28.5173 81.745 28.624 82.1397 28.624L83.4517 28.576L83.5317 29.968C82.817 30.1067 82.273 30.176 81.8997 30.176C80.993 30.176 80.369 29.968 80.0277 29.552C79.697 29.136 79.5317 28.352 79.5317 27.2V23.488H78.5077V22H79.5317V19.68H81.2597V22H83.4677V23.488ZM84.898 30V22H86.626V22.96C87.5327 22.3733 88.4394 21.9947 89.346 21.824V23.568C88.4287 23.7493 87.6447 23.984 86.994 24.272L86.642 24.416V30H84.898ZM96.5993 24.464V28.112C96.61 28.3467 96.6686 28.5227 96.7753 28.64C96.8926 28.7467 97.0686 28.816 97.3033 28.848L97.2553 30.176C96.338 30.176 95.6286 29.9787 95.1273 29.584C94.274 29.9787 93.4153 30.176 92.5513 30.176C90.962 30.176 90.1673 29.328 90.1673 27.632C90.1673 26.8213 90.3806 26.2347 90.8073 25.872C91.2446 25.5093 91.9113 25.2907 92.8073 25.216L94.8713 25.04V24.464C94.8713 24.0373 94.7753 23.7387 94.5833 23.568C94.402 23.3973 94.13 23.312 93.7673 23.312C93.0846 23.312 92.2313 23.3547 91.2073 23.44L90.6953 23.472L90.6313 22.24C91.794 21.9627 92.8606 21.824 93.8313 21.824C94.8126 21.824 95.5166 22.0373 95.9433 22.464C96.3806 22.88 96.5993 23.5467 96.5993 24.464ZM93.0153 26.448C92.2793 26.512 91.9113 26.912 91.9113 27.648C91.9113 28.384 92.2366 28.752 92.8873 28.752C93.4206 28.752 93.986 28.6667 94.5833 28.496L94.8713 28.4V26.272L93.0153 26.448ZM105.296 21.824C105.862 21.824 106.528 21.8987 107.296 22.048L107.696 22.128L107.632 23.504C106.79 23.4187 106.166 23.376 105.76 23.376C104.95 23.376 104.406 23.5573 104.128 23.92C103.851 24.2827 103.712 24.9653 103.712 25.968C103.712 26.9707 103.846 27.664 104.112 28.048C104.379 28.432 104.934 28.624 105.776 28.624L107.648 28.496L107.696 29.888C106.619 30.08 105.808 30.176 105.264 30.176C104.048 30.176 103.19 29.8507 102.688 29.2C102.198 28.5387 101.952 27.4613 101.952 25.968C101.952 24.4747 102.214 23.4133 102.736 22.784C103.259 22.144 104.112 21.824 105.296 21.824ZM109.736 22.864C110.291 22.1707 111.208 21.824 112.488 21.824C113.768 21.824 114.68 22.1707 115.224 22.864C115.779 23.5573 116.056 24.5973 116.056 25.984C116.056 27.3707 115.79 28.416 115.256 29.12C114.723 29.824 113.8 30.176 112.488 30.176C111.176 30.176 110.254 29.824 109.72 29.12C109.187 28.416 108.92 27.3707 108.92 25.984C108.92 24.5973 109.192 23.5573 109.736 22.864ZM111.048 28.064C111.294 28.4907 111.774 28.704 112.488 28.704C113.203 28.704 113.683 28.4907 113.928 28.064C114.174 27.6373 114.296 26.9387 114.296 25.968C114.296 24.9973 114.163 24.3093 113.896 23.904C113.64 23.4987 113.171 23.296 112.488 23.296C111.806 23.296 111.331 23.4987 111.064 23.904C110.808 24.3093 110.68 24.9973 110.68 25.968C110.68 26.9387 110.803 27.6373 111.048 28.064ZM119.533 30H117.789V22H119.517V22.496C120.295 22.048 121.031 21.824 121.725 21.824C122.791 21.824 123.517 22.128 123.901 22.736C124.295 23.3333 124.493 24.3253 124.493 25.712V30H122.765V25.76C122.765 24.896 122.669 24.2827 122.477 23.92C122.295 23.5573 121.917 23.376 121.341 23.376C120.797 23.376 120.274 23.4827 119.773 23.696L119.533 23.792V30ZM130.247 30V19.04H132.023V30H130.247ZM133.488 20.624V19.04H141.488V20.624H138.4V30H136.608V20.624H133.488ZM141.724 26.48V24.896H146.508V26.48H141.724ZM147.601 19.04H149.473L151.041 28.464H151.377L153.457 19.072H155.537L157.617 28.464H157.969L159.537 19.04H161.409L159.249 30H156.385L154.497 21.216L152.625 30H149.745L147.601 19.04ZM168.537 24.464V28.112C168.547 28.3467 168.606 28.5227 168.713 28.64C168.83 28.7467 169.006 28.816 169.241 28.848L169.193 30.176C168.275 30.176 167.566 29.9787 167.065 29.584C166.211 29.9787 165.353 30.176 164.489 30.176C162.899 30.176 162.105 29.328 162.105 27.632C162.105 26.8213 162.318 26.2347 162.745 25.872C163.182 25.5093 163.849 25.2907 164.745 25.216L166.809 25.04V24.464C166.809 24.0373 166.713 23.7387 166.521 23.568C166.339 23.3973 166.067 23.312 165.705 23.312C165.022 23.312 164.169 23.3547 163.145 23.44L162.633 23.472L162.569 22.24C163.731 21.9627 164.798 21.824 165.769 21.824C166.75 21.824 167.454 22.0373 167.881 22.464C168.318 22.88 168.537 23.5467 168.537 24.464ZM164.953 26.448C164.217 26.512 163.849 26.912 163.849 27.648C163.849 28.384 164.174 28.752 164.825 28.752C165.358 28.752 165.923 28.6667 166.521 28.496L166.809 28.4V26.272L164.953 26.448ZM170.822 30V18.672H172.566V30H170.822ZM174.869 30V18.672H176.613V30H174.869ZM184.516 28.56L184.964 28.512L184.996 29.808C183.78 30.0533 182.703 30.176 181.764 30.176C180.58 30.176 179.727 29.8507 179.204 29.2C178.692 28.5493 178.436 27.5093 178.436 26.08C178.436 23.2427 179.593 21.824 181.908 21.824C184.148 21.824 185.268 23.0453 185.268 25.488L185.156 26.736H180.196C180.207 27.3973 180.351 27.8827 180.628 28.192C180.905 28.5013 181.423 28.656 182.18 28.656C182.937 28.656 183.716 28.624 184.516 28.56ZM183.556 25.392C183.556 24.6027 183.428 24.0533 183.172 23.744C182.927 23.424 182.505 23.264 181.908 23.264C181.311 23.264 180.873 23.4293 180.596 23.76C180.329 24.0907 180.191 24.6347 180.18 25.392H183.556ZM191.249 23.488H189.041V27.008C189.041 27.6587 189.089 28.0907 189.185 28.304C189.281 28.5173 189.526 28.624 189.921 28.624L191.233 28.576L191.313 29.968C190.598 30.1067 190.054 30.176 189.681 30.176C188.774 30.176 188.15 29.968 187.809 29.552C187.478 29.136 187.313 28.352 187.313 27.2V23.488H186.289V22H187.313V19.68H189.041V22H191.249V23.488Z" fill="white"/>
<defs>
<clipPath id="clip0_2149_27054">
<rect width="20.0764" height="24" fill="white" transform="translate(24 12)"/>
</clipPath>
</defs>
</svg>
