<svg width="1440" height="874" viewBox="0 0 1440 874" fill="none" xmlns="http://www.w3.org/2000/svg">
<rect width="1440" height="874" fill="white"/>
<rect width="1440" height="48" fill="#004D99"/>
<path d="M73.904 24.198C73.904 25.6167 74.0907 26.6387 74.464 27.264C74.8373 27.88 75.556 28.188 76.62 28.188C77.6933 28.188 78.412 27.8847 78.776 27.278C79.1493 26.6713 79.336 25.654 79.336 24.226C79.336 22.798 79.1447 21.7573 78.762 21.104C78.3793 20.4507 77.6607 20.124 76.606 20.124C75.5607 20.124 74.8467 20.4507 74.464 21.104C74.0907 21.748 73.904 22.7793 73.904 24.198ZM80.456 24.226C80.456 25.9527 80.1807 27.2033 79.63 27.978C79.0793 28.7527 78.076 29.14 76.62 29.14C75.1733 29.14 74.1747 28.7433 73.624 27.95C73.0733 27.1567 72.798 25.9107 72.798 24.212C72.798 22.504 73.078 21.2393 73.638 20.418C74.198 19.5873 75.192 19.172 76.62 19.172C78.048 19.172 79.042 19.5827 79.602 20.404C80.1713 21.2253 80.456 22.4993 80.456 24.226ZM82.2502 29V22H83.2862V22.952C84.0982 22.392 84.9522 22.0233 85.8482 21.846V22.91C85.4562 22.9847 85.0455 23.1013 84.6162 23.26C84.1962 23.4187 83.8742 23.5587 83.6502 23.68L83.3002 23.862V29H82.2502ZM89.6963 32.29C88.5763 32.29 87.7923 32.136 87.3443 31.828C86.9057 31.5293 86.6863 30.9787 86.6863 30.176C86.6863 29.7933 86.7703 29.4807 86.9383 29.238C87.1063 29.0047 87.391 28.7387 87.7923 28.44C87.531 28.2627 87.4003 27.9407 87.4003 27.474C87.4003 27.3153 87.517 27.0213 87.7503 26.592L87.8763 26.368C87.139 26.032 86.7703 25.3273 86.7703 24.254C86.7703 22.658 87.643 21.86 89.3883 21.86C89.8363 21.86 90.2517 21.9067 90.6343 22L90.8443 22.042L92.9163 21.986V22.882L91.5863 22.854C91.8943 23.162 92.0483 23.6287 92.0483 24.254C92.0483 25.1313 91.829 25.7473 91.3903 26.102C90.961 26.4473 90.2797 26.62 89.3463 26.62C89.0943 26.62 88.8657 26.6013 88.6603 26.564C88.4923 26.9747 88.4083 27.2407 88.4083 27.362C88.4083 27.6513 88.497 27.8333 88.6743 27.908C88.8517 27.9733 89.3883 28.006 90.2843 28.006C91.1803 28.006 91.8243 28.146 92.2163 28.426C92.6083 28.706 92.8043 29.252 92.8043 30.064C92.8043 31.548 91.7683 32.29 89.6963 32.29ZM87.7223 30.092C87.7223 30.5867 87.8577 30.9273 88.1283 31.114C88.4083 31.31 88.917 31.408 89.6543 31.408C90.401 31.408 90.933 31.3053 91.2503 31.1C91.577 30.8947 91.7403 30.5493 91.7403 30.064C91.7403 29.588 91.6237 29.28 91.3903 29.14C91.157 29 90.6997 28.93 90.0183 28.93L88.5063 28.86C88.1983 29.084 87.9883 29.28 87.8763 29.448C87.7737 29.616 87.7223 29.8307 87.7223 30.092ZM87.8203 24.254C87.8203 24.8047 87.9417 25.1967 88.1843 25.43C88.4363 25.6633 88.847 25.78 89.4163 25.78C89.9857 25.78 90.3917 25.6633 90.6343 25.43C90.877 25.1967 90.9983 24.8047 90.9983 24.254C90.9983 23.694 90.877 23.2973 90.6343 23.064C90.3917 22.8307 89.9857 22.714 89.4163 22.714C88.847 22.714 88.4363 22.8353 88.1843 23.078C87.9417 23.3113 87.8203 23.7033 87.8203 24.254ZM99.1277 24.114V27.698C99.1557 28.0433 99.4264 28.2487 99.9397 28.314L99.8977 29.14C99.1604 29.14 98.6051 28.9533 98.2317 28.58C97.3917 28.9533 96.5517 29.14 95.7117 29.14C95.0677 29.14 94.5777 28.958 94.2417 28.594C93.9057 28.23 93.7377 27.7073 93.7377 27.026C93.7377 26.3447 93.9104 25.8453 94.2557 25.528C94.6011 25.2013 95.1424 25.0007 95.8797 24.926L98.0777 24.716V24.114C98.0777 23.638 97.9751 23.2973 97.7697 23.092C97.5644 22.8867 97.2844 22.784 96.9297 22.784C96.1831 22.784 95.4084 22.8307 94.6057 22.924L94.1717 22.966L94.1297 22.168C95.1564 21.9627 96.0664 21.86 96.8597 21.86C97.6531 21.86 98.2271 22.042 98.5817 22.406C98.9457 22.77 99.1277 23.3393 99.1277 24.114ZM94.8157 26.97C94.8157 27.8287 95.1704 28.258 95.8797 28.258C96.5144 28.258 97.1397 28.1507 97.7557 27.936L98.0777 27.824V25.514L96.0057 25.71C95.5857 25.7473 95.2824 25.8687 95.0957 26.074C94.9091 26.2793 94.8157 26.578 94.8157 26.97ZM102.249 29H101.199V22H102.235V22.49C102.991 22.07 103.715 21.86 104.405 21.86C105.339 21.86 105.964 22.112 106.281 22.616C106.608 23.12 106.771 24.016 106.771 25.304V29H105.735V25.332C105.735 24.3613 105.637 23.6987 105.441 23.344C105.255 22.98 104.849 22.798 104.223 22.798C103.925 22.798 103.607 22.8447 103.271 22.938C102.945 23.022 102.693 23.106 102.515 23.19L102.249 23.316V29ZM108.719 29V22H109.769V29H108.719ZM108.719 20.418V19.2H109.769V20.418H108.719ZM111.361 22.938V22H116.555V22.938L112.635 28.062H116.555V29H111.361V28.062L115.281 22.938H111.361ZM123.095 24.114V27.698C123.123 28.0433 123.393 28.2487 123.907 28.314L123.865 29.14C123.127 29.14 122.572 28.9533 122.199 28.58C121.359 28.9533 120.519 29.14 119.679 29.14C119.035 29.14 118.545 28.958 118.209 28.594C117.873 28.23 117.705 27.7073 117.705 27.026C117.705 26.3447 117.877 25.8453 118.223 25.528C118.568 25.2013 119.109 25.0007 119.847 24.926L122.045 24.716V24.114C122.045 23.638 121.942 23.2973 121.737 23.092C121.531 22.8867 121.251 22.784 120.897 22.784C120.15 22.784 119.375 22.8307 118.573 22.924L118.139 22.966L118.097 22.168C119.123 21.9627 120.033 21.86 120.827 21.86C121.62 21.86 122.194 22.042 122.549 22.406C122.913 22.77 123.095 23.3393 123.095 24.114ZM118.783 26.97C118.783 27.8287 119.137 28.258 119.847 28.258C120.481 28.258 121.107 28.1507 121.723 27.936L122.045 27.824V25.514L119.973 25.71C119.553 25.7473 119.249 25.8687 119.063 26.074C118.876 26.2793 118.783 26.578 118.783 26.97ZM128.792 22.91H126.566V26.256C126.566 27.0587 126.622 27.586 126.734 27.838C126.856 28.09 127.136 28.216 127.574 28.216L128.82 28.132L128.89 29C128.265 29.1027 127.789 29.154 127.462 29.154C126.734 29.154 126.23 28.9767 125.95 28.622C125.67 28.2673 125.53 27.5907 125.53 26.592V22.91H124.536V22H125.53V19.858H126.566V22H128.792V22.91ZM130.074 29V22H131.124V29H130.074ZM130.074 20.418V19.2H131.124V20.418H130.074ZM132.829 25.486C132.829 24.2073 133.058 23.2833 133.515 22.714C133.972 22.1447 134.742 21.86 135.825 21.86C136.917 21.86 137.687 22.1447 138.135 22.714C138.592 23.2833 138.821 24.2073 138.821 25.486C138.821 26.7647 138.606 27.6933 138.177 28.272C137.748 28.8507 136.964 29.14 135.825 29.14C134.686 29.14 133.902 28.8507 133.473 28.272C133.044 27.6933 132.829 26.7647 132.829 25.486ZM133.907 25.472C133.907 26.4893 134.028 27.2033 134.271 27.614C134.523 28.0247 135.041 28.23 135.825 28.23C136.618 28.23 137.136 28.0293 137.379 27.628C137.622 27.2173 137.743 26.4987 137.743 25.472C137.743 24.4453 137.608 23.7407 137.337 23.358C137.066 22.966 136.562 22.77 135.825 22.77C135.097 22.77 134.593 22.966 134.313 23.358C134.042 23.7407 133.907 24.4453 133.907 25.472ZM141.583 29H140.533V22H141.569V22.49C142.325 22.07 143.049 21.86 143.739 21.86C144.673 21.86 145.298 22.112 145.615 22.616C145.942 23.12 146.105 24.016 146.105 25.304V29H145.069V25.332C145.069 24.3613 144.971 23.6987 144.775 23.344C144.589 22.98 144.183 22.798 143.557 22.798C143.259 22.798 142.941 22.8447 142.605 22.938C142.279 23.022 142.027 23.106 141.849 23.19L141.583 23.316V29ZM152.179 29H151.129V22H152.165V22.49C152.921 22.07 153.644 21.86 154.335 21.86C155.268 21.86 155.894 22.112 156.211 22.616C156.538 23.12 156.701 24.016 156.701 25.304V29H155.665V25.332C155.665 24.3613 155.567 23.6987 155.371 23.344C155.184 22.98 154.778 22.798 154.153 22.798C153.854 22.798 153.537 22.8447 153.201 22.938C152.874 23.022 152.622 23.106 152.445 23.19L152.179 23.316V29ZM163.591 24.114V27.698C163.619 28.0433 163.889 28.2487 164.403 28.314L164.361 29.14C163.623 29.14 163.068 28.9533 162.695 28.58C161.855 28.9533 161.015 29.14 160.175 29.14C159.531 29.14 159.041 28.958 158.705 28.594C158.369 28.23 158.201 27.7073 158.201 27.026C158.201 26.3447 158.373 25.8453 158.719 25.528C159.064 25.2013 159.605 25.0007 160.343 24.926L162.541 24.716V24.114C162.541 23.638 162.438 23.2973 162.233 23.092C162.027 22.8867 161.747 22.784 161.393 22.784C160.646 22.784 159.871 22.8307 159.069 22.924L158.635 22.966L158.593 22.168C159.619 21.9627 160.529 21.86 161.323 21.86C162.116 21.86 162.69 22.042 163.045 22.406C163.409 22.77 163.591 23.3393 163.591 24.114ZM159.279 26.97C159.279 27.8287 159.633 28.258 160.343 28.258C160.977 28.258 161.603 28.1507 162.219 27.936L162.541 27.824V25.514L160.469 25.71C160.049 25.7473 159.745 25.8687 159.559 26.074C159.372 26.2793 159.279 26.578 159.279 26.97ZM166.712 29H165.662V22H166.698V22.49C167.398 22.07 168.08 21.86 168.742 21.86C169.61 21.86 170.217 22.098 170.562 22.574C170.87 22.3873 171.267 22.224 171.752 22.084C172.247 21.9347 172.681 21.86 173.054 21.86C173.988 21.86 174.613 22.112 174.93 22.616C175.257 23.1107 175.42 24.0067 175.42 25.304V29H174.37V25.332C174.37 24.3613 174.277 23.6987 174.09 23.344C173.904 22.98 173.507 22.798 172.9 22.798C172.592 22.798 172.275 22.8447 171.948 22.938C171.622 23.022 171.37 23.106 171.192 23.19L170.926 23.316C171.048 23.624 171.108 24.3053 171.108 25.36V29H170.058V25.388C170.058 24.38 169.965 23.6987 169.778 23.344C169.601 22.98 169.204 22.798 168.588 22.798C168.29 22.798 167.982 22.8447 167.664 22.938C167.356 23.022 167.118 23.106 166.95 23.19L166.712 23.316V29ZM182.125 28.132L182.531 28.09L182.559 28.916C181.495 29.0653 180.585 29.14 179.829 29.14C178.821 29.14 178.107 28.8507 177.687 28.272C177.267 27.684 177.057 26.774 177.057 25.542C177.057 23.0873 178.033 21.86 179.983 21.86C180.926 21.86 181.631 22.126 182.097 22.658C182.564 23.1807 182.797 24.0067 182.797 25.136L182.741 25.934H178.121C178.121 26.7087 178.261 27.2827 178.541 27.656C178.821 28.0293 179.307 28.216 179.997 28.216C180.697 28.216 181.407 28.188 182.125 28.132ZM181.747 25.094C181.747 24.2353 181.607 23.6287 181.327 23.274C181.057 22.9193 180.609 22.742 179.983 22.742C179.367 22.742 178.901 22.9287 178.583 23.302C178.275 23.6753 178.117 24.2727 178.107 25.094H181.747Z" fill="white"/>
<g clip-path="url(#clip0_4177_47321)">
<path d="M1322.11 29V19.41H1328.15V20.768H1323.66V23.484H1327.31V24.828H1323.66V27.628H1328.15V29H1322.11ZM1329.84 29V19.41H1332.56L1335.47 27.628H1335.68V19.41H1337.24V29H1334.58L1331.59 20.768H1331.4V29H1329.84ZM1343.35 25.332V23.96H1346.08V28.832C1345.83 28.8973 1345.31 28.9673 1344.54 29.042C1343.77 29.1167 1343.22 29.154 1342.87 29.154C1341.42 29.154 1340.41 28.7527 1339.86 27.95C1339.31 27.1473 1339.04 25.892 1339.04 24.184C1339.04 22.4667 1339.32 21.216 1339.88 20.432C1340.45 19.648 1341.43 19.256 1342.82 19.256C1343.64 19.256 1344.56 19.3493 1345.59 19.536L1346.08 19.634L1346.02 20.866C1344.89 20.7167 1343.88 20.642 1342.98 20.642C1342.09 20.642 1341.47 20.894 1341.14 21.398C1340.81 21.902 1340.65 22.8353 1340.65 24.198C1340.65 25.5607 1340.8 26.5033 1341.11 27.026C1341.43 27.5393 1342.06 27.796 1343.01 27.796C1343.69 27.796 1344.2 27.754 1344.54 27.67V25.332H1343.35Z" fill="white"/>
<path d="M1363 27.2L1357.4 21.6L1358.1 20.8L1363 25.7L1367.9 20.8L1368.6 21.6L1363 27.2Z" fill="white"/>
</g>
<rect width="1440" height="93" transform="translate(0 48)" fill="#F2F7FC"/>
<rect x="72.5" y="72.5" width="155.768" height="44" fill="#F2F7FC"/>
<rect x="72.5" y="72.5" width="155.768" height="44" stroke="#C5C7C9"/>
<line x1="72.9301" y1="72.5511" x2="228.124" y2="115.791" stroke="#C5C7C9"/>
<path d="M193.966 98.7802C194.386 99.5082 195.163 99.8722 196.297 99.8722C197.431 99.8722 198.201 99.5082 198.607 98.7802C199.027 98.0382 199.237 96.8062 199.237 95.0842C199.237 93.3482 199.027 92.0882 198.607 91.3042C198.187 90.5202 197.417 90.1282 196.297 90.1282C195.177 90.1282 194.407 90.5202 193.987 91.3042C193.567 92.0882 193.357 93.3482 193.357 95.0842C193.357 96.8062 193.56 98.0382 193.966 98.7802ZM200.875 100.628C199.993 101.804 198.467 102.392 196.297 102.392C194.127 102.392 192.594 101.804 191.698 100.628C190.816 99.4382 190.375 97.5832 190.375 95.0632C190.375 92.5432 190.816 90.6742 191.698 89.4562C192.594 88.2242 194.127 87.6082 196.297 87.6082C198.467 87.6082 199.993 88.2242 200.875 89.4562C201.771 90.6742 202.219 92.5432 202.219 95.0632C202.219 97.5832 201.771 99.4382 200.875 100.628Z" fill="black"/>
<path d="M184.11 97.0162V94.4962H188.268V101.909C186.266 102.231 184.642 102.392 183.396 102.392C181.17 102.392 179.637 101.797 178.797 100.607C177.971 99.4172 177.558 97.5272 177.558 94.9372C177.558 92.3472 177.992 90.4782 178.86 89.3302C179.728 88.1822 181.205 87.6082 183.291 87.6082C184.593 87.6082 186 87.7552 187.512 88.0492L188.268 88.1962L188.184 90.4432C186.504 90.2612 185.125 90.1702 184.047 90.1702C182.983 90.1702 182.234 90.2962 181.8 90.5482C181.366 90.8002 181.044 91.2692 180.834 91.9552C180.638 92.6272 180.54 93.7892 180.54 95.4412C180.54 97.0792 180.743 98.2272 181.149 98.8852C181.555 99.5432 182.395 99.8722 183.669 99.8722L185.412 99.7882V97.0162H184.11Z" fill="black"/>
<path d="M167.429 98.7802C167.849 99.5082 168.626 99.8722 169.76 99.8722C170.894 99.8722 171.664 99.5082 172.07 98.7802C172.49 98.0382 172.7 96.8062 172.7 95.0842C172.7 93.3482 172.49 92.0882 172.07 91.3042C171.65 90.5202 170.88 90.1282 169.76 90.1282C168.64 90.1282 167.87 90.5202 167.45 91.3042C167.03 92.0882 166.82 93.3482 166.82 95.0842C166.82 96.8062 167.023 98.0382 167.429 98.7802ZM174.338 100.628C173.456 101.804 171.93 102.392 169.76 102.392C167.59 102.392 166.057 101.804 165.161 100.628C164.279 99.4382 163.838 97.5832 163.838 95.0632C163.838 92.5432 164.279 90.6742 165.161 89.4562C166.057 88.2242 167.59 87.6082 169.76 87.6082C171.93 87.6082 173.456 88.2242 174.338 89.4562C175.234 90.6742 175.682 92.5432 175.682 95.0632C175.682 97.5832 175.234 99.4382 174.338 100.628Z" fill="black"/>
<path d="M162.813 102.14H154.686V87.8599H157.584V99.5779H162.813V102.14Z" fill="black"/>
<path d="M103.147 101.897H100.348V96.3186L96.0879 88.1035H99.1914L101.727 93.6005L104.262 88.1035H107.366L103.147 96.3186V101.897Z" fill="black"/>
<path d="M111.165 98.6513C111.571 99.3544 112.322 99.706 113.417 99.706C114.512 99.706 115.256 99.3544 115.648 98.6513C116.054 97.9346 116.257 96.7446 116.257 95.0813C116.257 93.4044 116.054 92.1874 115.648 91.4301C115.243 90.6728 114.499 90.2942 113.417 90.2942C112.335 90.2942 111.591 90.6728 111.186 91.4301C110.78 92.1874 110.577 93.4044 110.577 95.0813C110.577 96.7446 110.773 97.9346 111.165 98.6513ZM117.839 100.436C116.987 101.572 115.513 102.14 113.417 102.14C111.321 102.14 109.84 101.572 108.975 100.436C108.123 99.2868 107.697 97.4951 107.697 95.061C107.697 92.6269 108.123 90.8216 108.975 89.6451C109.84 88.4551 111.321 87.8601 113.417 87.8601C115.513 87.8601 116.987 88.4551 117.839 89.6451C118.704 90.8216 119.137 92.6269 119.137 95.061C119.137 97.4951 118.704 99.2868 117.839 100.436Z" fill="black"/>
<path d="M124.215 97.2922C124.215 98.9014 125.033 99.706 126.67 99.706C128.306 99.706 129.124 98.9014 129.124 97.2922V88.1035H131.923V97.2314C131.923 98.9217 131.484 100.166 130.605 100.964C129.739 101.748 128.427 102.14 126.67 102.14C124.912 102.14 123.593 101.748 122.714 100.964C121.849 100.166 121.416 98.9217 121.416 97.2314V88.1035H124.215V97.2922Z" fill="black"/>
<path d="M137.609 97.2719V101.897H134.809V88.1035H140.165C143.41 88.1035 145.033 89.6181 145.033 92.6472C145.033 94.4457 144.357 95.7709 143.004 96.6229L144.972 101.897H141.909L140.306 97.2719H137.609ZM140.205 94.8784C140.868 94.8784 141.361 94.6756 141.686 94.2699C142.01 93.8642 142.173 93.3301 142.173 92.6674C142.173 92.0048 141.997 91.4774 141.645 91.0853C141.307 90.6931 140.814 90.497 140.165 90.497H137.609V94.8784H140.205Z" fill="black"/>
<path d="M252.769 60V129" stroke="#C5C7C9" stroke-linejoin="round"/>
<path d="M288.796 78.5003C288.996 78.499 289.202 78.5477 289.396 78.6575L302.18 85.8284C303.105 86.3471 303.537 87.1843 303.537 88.1448L303.528 108.388C303.528 109.093 302.953 109.601 302.32 109.606C302.12 109.607 301.914 109.557 301.719 109.448L293.695 104.948V92.1555C293.695 91.1951 293.264 90.3542 292.338 89.8391L288.049 87.4514V109.283C288.049 109.989 287.473 110.495 286.841 110.5C286.641 110.501 286.435 110.452 286.239 110.342L278.126 105.78C277.201 105.261 276.769 104.424 276.769 103.463L276.788 82.1741C276.789 81.4687 277.364 80.9624 277.996 80.9573C278.196 80.9561 278.403 81.0047 278.599 81.1145L287.623 86.176L287.588 79.7171C287.584 79.0117 288.164 78.5053 288.796 78.5003ZM381.396 88.9983C385.874 88.9983 388.463 91.2519 388.463 95.0833V100.032C388.463 100.664 388.74 100.972 389.203 100.972H389.801L389.799 100.975C390.026 100.975 390.196 101.148 390.196 101.375V104.558C390.196 104.785 390.035 104.956 389.808 104.956H386.982C385.751 104.956 384.738 104.51 384.147 103.811C382.811 104.853 381.112 105.381 379.3 105.381C375.886 105.381 373.864 103.511 373.864 100.301C373.864 97.2655 375.672 95.7239 379.657 95.4553L383.453 95.1985V94.5735C383.452 93.2775 382.553 92.5589 381.069 92.5589C380.037 92.5589 379.362 92.909 379.045 93.5081C378.906 93.7693 378.771 93.8596 378.533 93.8596H374.294C374.055 93.8595 373.897 93.7214 373.894 93.5188C373.891 93.3919 373.952 93.2006 374.058 92.9495C375.071 90.5572 377.707 88.9984 381.396 88.9983ZM415.526 88.9983C420.278 88.9983 423.132 91.8933 423.132 96.4495V97.9544C423.132 98.1813 422.961 98.3546 422.734 98.3548H412.578C412.71 100.232 413.541 101.761 415.688 101.761C416.696 101.761 417.502 101.422 417.914 100.778C418.071 100.533 418.216 100.46 418.354 100.46H422.421C422.744 100.46 422.852 100.656 422.854 100.872C422.855 100.996 422.818 101.126 422.735 101.342C421.76 103.882 419.361 105.381 415.788 105.381C410.715 105.381 407.729 102.312 407.729 97.179C407.729 92.0457 410.655 88.9989 415.526 88.9983ZM373.747 83.6204V83.6214C374.002 83.6214 374.21 83.8611 374.166 84.1126L370.569 104.62C370.535 104.818 370.364 104.957 370.164 104.957H364.048C363.854 104.957 363.692 104.825 363.65 104.636L360.383 89.6448H360.088L356.82 104.636C356.779 104.825 356.614 104.957 356.421 104.957H350.304C350.105 104.957 349.937 104.817 349.902 104.62L346.305 84.1126C346.261 83.8611 346.467 83.6214 346.722 83.6214H350.76C350.961 83.6214 351.134 83.7752 351.167 83.9729L353.591 98.4739H353.855L356.953 83.9563C356.995 83.7661 357.17 83.6216 357.364 83.6214H363.307C363.502 83.6214 363.661 83.7659 363.701 83.9563L366.737 98.5012H367L369.457 83.9739C369.49 83.7751 369.651 83.6204 369.853 83.6204H373.747ZM319.086 83.6194C319.313 83.6194 319.484 83.7861 319.484 84.013V104.558C319.484 104.785 319.312 104.956 319.085 104.956H314.563C314.337 104.956 314.165 104.785 314.165 104.558L314.156 84.0149C314.156 83.788 314.337 83.6206 314.563 83.6204H319.086V83.6194ZM337.841 83.6194C338.069 83.6197 338.239 83.8204 338.239 84.0471V87.5735H338.238C338.238 87.8016 338.068 88.001 337.841 88.0012H332.209V104.557C332.209 104.784 332.008 104.955 331.781 104.955H327.315C327.088 104.955 326.89 104.78 326.89 104.553V87.9993H321.255C321.028 87.9992 320.858 87.7995 320.858 87.5725V84.0452C320.858 83.8182 321.031 83.6194 321.258 83.6194H337.841ZM396.068 83.6204C396.296 83.6205 396.467 83.7911 396.467 84.0178V99.9505C396.467 100.585 396.831 100.972 397.466 100.972H398.43C398.657 100.972 398.855 101.14 398.855 101.367V104.56C398.855 104.787 398.676 104.955 398.449 104.955H396.244C392.918 104.957 391.317 103.484 391.317 100.46V84.0178C391.318 83.791 391.489 83.6204 391.716 83.6204H396.068ZM404.604 83.6204C404.831 83.6204 405.014 83.791 405.015 84.0178V99.9505C405.015 100.585 405.366 100.972 406.001 100.972H406.967C407.194 100.972 407.405 101.151 407.405 101.378V104.56C407.405 104.787 407.213 104.955 406.986 104.955H404.78C401.454 104.956 399.854 103.483 399.854 100.46V84.0178C399.855 83.7911 400.025 83.6205 400.252 83.6204H404.604ZM430.311 85.1839C430.537 85.184 430.709 85.3546 430.709 85.5813V89.4231H433.326C433.554 89.4231 433.754 89.5937 433.754 89.8206V93.0061C433.754 93.2343 433.58 93.4044 433.354 93.4046H430.709V99.9495C430.709 100.584 431.07 100.971 431.704 100.971H433.355C433.582 100.971 433.754 101.171 433.754 101.398V104.556C433.754 104.783 433.581 104.953 433.354 104.953H431.109C427.428 104.953 425.589 103.141 425.589 99.5501V93.4046H423.768C423.54 93.4044 423.37 93.232 423.37 93.0051V89.8206C423.37 89.5938 423.569 89.4222 423.796 89.4221H425.588V85.5891C425.588 85.3622 425.783 85.1841 426.01 85.1839H430.311ZM380.746 98.5325C379.283 98.6424 378.754 99.1671 378.754 100.091C378.754 101.127 379.418 101.761 380.775 101.761C381.613 101.761 382.522 101.522 383.456 100.916H383.457V98.3284L380.746 98.5325ZM344.951 94.2591L344.953 94.26C345.18 94.2603 345.352 94.4316 345.352 94.6585V98.0149C345.351 98.2418 345.177 98.4124 344.95 98.4124H336.769C336.54 98.4123 336.363 98.2429 336.361 98.0159V94.6546C336.361 94.4263 336.531 94.2561 336.758 94.2561L344.951 94.2591ZM415.525 92.2561C413.77 92.2561 412.609 93.3342 412.598 95.093H418.344C418.369 93.3208 417.281 92.2561 415.525 92.2561Z" fill="#0066CC"/>
<path d="M289 183.5H273.5L278.8 178.1L278.1 177.4L271.6 184L278.1 190.6L278.8 189.9L273.5 184.5H289V183.5Z" fill="#0066CC"/>
<path d="M301.106 179.41H304.746C305.726 179.41 306.459 179.611 306.944 180.012C307.429 180.404 307.672 181.034 307.672 181.902C307.672 182.471 307.579 182.919 307.392 183.246C307.215 183.573 306.93 183.843 306.538 184.058C307.453 184.413 307.91 185.155 307.91 186.284C307.91 188.095 306.893 189 304.858 189H301.106V179.41ZM304.746 184.814H302.66V187.656H304.774C305.287 187.656 305.67 187.549 305.922 187.334C306.183 187.119 306.314 186.751 306.314 186.228C306.314 185.705 306.165 185.341 305.866 185.136C305.567 184.921 305.194 184.814 304.746 184.814ZM304.662 180.754H302.66V183.498H304.718C305.633 183.498 306.09 183.027 306.09 182.084C306.09 181.197 305.614 180.754 304.662 180.754ZM314.676 184.156V187.348C314.686 187.553 314.737 187.707 314.83 187.81C314.933 187.903 315.087 187.964 315.292 187.992L315.25 189.154C314.448 189.154 313.827 188.981 313.388 188.636C312.642 188.981 311.89 189.154 311.134 189.154C309.744 189.154 309.048 188.412 309.048 186.928C309.048 186.219 309.235 185.705 309.608 185.388C309.991 185.071 310.574 184.879 311.358 184.814L313.164 184.66V184.156C313.164 183.783 313.08 183.521 312.912 183.372C312.754 183.223 312.516 183.148 312.198 183.148C311.601 183.148 310.854 183.185 309.958 183.26L309.51 183.288L309.454 182.21C310.472 181.967 311.405 181.846 312.254 181.846C313.113 181.846 313.729 182.033 314.102 182.406C314.485 182.77 314.676 183.353 314.676 184.156ZM311.54 185.892C310.896 185.948 310.574 186.298 310.574 186.942C310.574 187.586 310.859 187.908 311.428 187.908C311.895 187.908 312.39 187.833 312.912 187.684L313.164 187.6V185.738L311.54 185.892ZM319.21 181.846C319.705 181.846 320.288 181.911 320.96 182.042L321.31 182.112L321.254 183.316C320.517 183.241 319.971 183.204 319.616 183.204C318.907 183.204 318.431 183.363 318.188 183.68C317.945 183.997 317.824 184.595 317.824 185.472C317.824 186.349 317.941 186.956 318.174 187.292C318.407 187.628 318.893 187.796 319.63 187.796L321.268 187.684L321.31 188.902C320.367 189.07 319.658 189.154 319.182 189.154C318.118 189.154 317.367 188.869 316.928 188.3C316.499 187.721 316.284 186.779 316.284 185.472C316.284 184.165 316.513 183.237 316.97 182.686C317.427 182.126 318.174 181.846 319.21 181.846ZM324.311 189H322.785V179.088H324.311V184.814L325.179 184.73L326.831 182H328.539L326.523 185.276L328.651 189H326.929L325.221 186.046L324.311 186.144V189Z" fill="#0066CC"/>
<path d="M300 190.54H328.847V190.96H300V190.54Z" fill="#0066CC"/>
<path d="M635.037 195.648C632.776 196.139 630.739 196.384 628.925 196.384C627.112 196.384 625.661 196.16 624.573 195.712C623.485 195.264 622.632 194.549 622.013 193.568C621.395 192.587 620.968 191.435 620.733 190.112C620.499 188.789 620.381 187.125 620.381 185.12C620.381 180.917 620.968 177.995 622.141 176.352C623.336 174.688 625.523 173.856 628.701 173.856C630.536 173.856 632.659 174.144 635.069 174.72L634.941 178.24C632.829 177.92 631.069 177.76 629.661 177.76C628.275 177.76 627.283 177.952 626.685 178.336C626.088 178.699 625.64 179.403 625.341 180.448C625.064 181.493 624.925 183.275 624.925 185.792C624.925 188.309 625.213 190.059 625.789 191.04C626.387 192 627.56 192.48 629.309 192.48C631.08 192.48 632.957 192.331 634.941 192.032L635.037 195.648ZM642.524 196H638.236V173.6H642.524V180.768C643.996 180 645.319 179.616 646.492 179.616C648.626 179.616 650.098 180.245 650.908 181.504C651.719 182.763 652.124 184.704 652.124 187.328V196H647.836V187.424C647.836 186.08 647.676 185.088 647.356 184.448C647.036 183.787 646.396 183.456 645.436 183.456C644.604 183.456 643.772 183.584 642.94 183.84L642.524 183.968V196ZM656.788 181.824C657.918 180.352 659.806 179.616 662.452 179.616C665.097 179.616 666.985 180.352 668.116 181.824C669.246 183.275 669.812 185.323 669.812 187.968C669.812 193.579 667.358 196.384 662.452 196.384C657.545 196.384 655.092 193.579 655.092 187.968C655.092 185.323 655.657 183.275 656.788 181.824ZM660.084 191.584C660.532 192.352 661.321 192.736 662.452 192.736C663.582 192.736 664.361 192.352 664.788 191.584C665.236 190.816 665.46 189.611 665.46 187.968C665.46 186.325 665.236 185.131 664.788 184.384C664.361 183.637 663.582 183.264 662.452 183.264C661.321 183.264 660.532 183.637 660.084 184.384C659.657 185.131 659.444 186.325 659.444 187.968C659.444 189.611 659.657 190.816 660.084 191.584ZM673.819 181.824C674.95 180.352 676.838 179.616 679.483 179.616C682.128 179.616 684.016 180.352 685.147 181.824C686.278 183.275 686.843 185.323 686.843 187.968C686.843 193.579 684.39 196.384 679.483 196.384C674.576 196.384 672.123 193.579 672.123 187.968C672.123 185.323 672.688 183.275 673.819 181.824ZM677.115 191.584C677.563 192.352 678.352 192.736 679.483 192.736C680.614 192.736 681.392 192.352 681.819 191.584C682.267 190.816 682.491 189.611 682.491 187.968C682.491 186.325 682.267 185.131 681.819 184.384C681.392 183.637 680.614 183.264 679.483 183.264C678.352 183.264 677.563 183.637 677.115 184.384C676.688 185.131 676.475 186.325 676.475 187.968C676.475 189.611 676.688 190.816 677.115 191.584ZM701.474 184C698.829 183.659 696.973 183.488 695.906 183.488C694.861 183.488 694.178 183.584 693.858 183.776C693.56 183.968 693.41 184.277 693.41 184.704C693.41 185.109 693.613 185.397 694.018 185.568C694.445 185.717 695.512 185.952 697.218 186.272C698.946 186.571 700.173 187.072 700.898 187.776C701.624 188.48 701.986 189.621 701.986 191.2C701.986 194.656 699.842 196.384 695.554 196.384C694.146 196.384 692.44 196.192 690.434 195.808L689.41 195.616L689.538 192.032C692.184 192.373 694.018 192.544 695.042 192.544C696.088 192.544 696.792 192.448 697.154 192.256C697.538 192.043 697.73 191.733 697.73 191.328C697.73 190.923 697.528 190.624 697.122 190.432C696.738 190.24 695.714 190.005 694.05 189.728C692.408 189.451 691.181 188.981 690.37 188.32C689.56 187.659 689.154 186.485 689.154 184.8C689.154 183.093 689.73 181.813 690.882 180.96C692.034 180.085 693.517 179.648 695.33 179.648C696.589 179.648 698.306 179.851 700.482 180.256L701.538 180.448L701.474 184ZM708.6 189.824C708.621 190.805 708.877 191.52 709.368 191.968C709.88 192.395 710.605 192.608 711.544 192.608C713.528 192.608 715.299 192.544 716.856 192.416L717.752 192.32L717.816 195.488C715.363 196.085 713.144 196.384 711.16 196.384C708.749 196.384 707 195.744 705.912 194.464C704.824 193.184 704.28 191.104 704.28 188.224C704.28 182.485 706.637 179.616 711.352 179.616C716.003 179.616 718.328 182.027 718.328 186.848L718.008 189.824H708.6ZM714.104 186.56C714.104 185.28 713.901 184.395 713.496 183.904C713.091 183.392 712.376 183.136 711.352 183.136C710.349 183.136 709.635 183.403 709.208 183.936C708.803 184.448 708.589 185.323 708.568 186.56H714.104ZM737.288 183.648H733.352V190.208C733.352 190.848 733.362 191.307 733.384 191.584C733.426 191.84 733.544 192.064 733.736 192.256C733.949 192.448 734.269 192.544 734.696 192.544L737.128 192.48L737.32 195.904C735.89 196.224 734.802 196.384 734.056 196.384C732.136 196.384 730.824 195.957 730.12 195.104C729.416 194.229 729.064 192.629 729.064 190.304V183.648H727.176V180H729.064V175.552H733.352V180H737.288V183.648ZM744.368 196H740.08V173.6H744.368V180.768C745.84 180 747.163 179.616 748.336 179.616C750.469 179.616 751.941 180.245 752.752 181.504C753.563 182.763 753.968 184.704 753.968 187.328V196H749.68V187.424C749.68 186.08 749.52 185.088 749.2 184.448C748.88 183.787 748.24 183.456 747.28 183.456C746.448 183.456 745.616 183.584 744.784 183.84L744.368 183.968V196ZM761.287 189.824C761.309 190.805 761.565 191.52 762.055 191.968C762.567 192.395 763.293 192.608 764.231 192.608C766.215 192.608 767.986 192.544 769.543 192.416L770.439 192.32L770.503 195.488C768.05 196.085 765.831 196.384 763.847 196.384C761.437 196.384 759.687 195.744 758.599 194.464C757.511 193.184 756.967 191.104 756.967 188.224C756.967 182.485 759.325 179.616 764.039 179.616C768.69 179.616 771.015 182.027 771.015 186.848L770.695 189.824H761.287ZM766.791 186.56C766.791 185.28 766.589 184.395 766.183 183.904C765.778 183.392 765.063 183.136 764.039 183.136C763.037 183.136 762.322 183.403 761.895 183.936C761.49 184.448 761.277 185.323 761.255 186.56H766.791ZM793.367 184.992V191.648C793.41 192.16 793.495 192.523 793.623 192.736C793.751 192.928 794.018 193.067 794.423 193.152L794.295 196.384C793.207 196.384 792.333 196.309 791.671 196.16C791.031 196.011 790.381 195.712 789.719 195.264C788.183 196.011 786.615 196.384 785.015 196.384C781.709 196.384 780.055 194.635 780.055 191.136C780.055 189.429 780.514 188.224 781.431 187.52C782.349 186.795 783.757 186.368 785.655 186.24L789.079 185.984V184.992C789.079 184.331 788.93 183.883 788.631 183.648C788.333 183.392 787.853 183.264 787.191 183.264L781.175 183.52L781.047 180.544C783.33 179.925 785.495 179.616 787.543 179.616C789.613 179.616 791.095 180.043 791.991 180.896C792.909 181.749 793.367 183.115 793.367 184.992ZM786.167 189.216C784.973 189.323 784.375 189.963 784.375 191.136C784.375 192.309 784.898 192.896 785.943 192.896C786.754 192.896 787.639 192.768 788.599 192.512L789.079 192.384V188.96L786.167 189.216ZM797.455 202.72V180H801.711V180.864C803.098 180.032 804.314 179.616 805.359 179.616C807.514 179.616 809.103 180.267 810.127 181.568C811.151 182.848 811.663 185.035 811.663 188.128C811.663 191.221 811.098 193.376 809.967 194.592C808.836 195.787 806.98 196.384 804.399 196.384C803.695 196.384 802.938 196.32 802.127 196.192L801.743 196.128V202.72H797.455ZM804.527 183.456C803.738 183.456 802.938 183.616 802.127 183.936L801.743 184.096V192.48C802.703 192.608 803.482 192.672 804.079 192.672C805.316 192.672 806.159 192.309 806.607 191.584C807.076 190.859 807.311 189.621 807.311 187.872C807.311 184.928 806.383 183.456 804.527 183.456ZM814.861 202.72V180H819.117V180.864C820.504 180.032 821.72 179.616 822.765 179.616C824.92 179.616 826.509 180.267 827.533 181.568C828.557 182.848 829.069 185.035 829.069 188.128C829.069 191.221 828.504 193.376 827.373 194.592C826.243 195.787 824.387 196.384 821.805 196.384C821.101 196.384 820.344 196.32 819.533 196.192L819.149 196.128V202.72H814.861ZM821.933 183.456C821.144 183.456 820.344 183.616 819.533 183.936L819.149 184.096V192.48C820.109 192.608 820.888 192.672 821.485 192.672C822.723 192.672 823.565 192.309 824.013 191.584C824.483 190.859 824.717 189.621 824.717 187.872C824.717 184.928 823.789 183.456 821.933 183.456Z" fill="#17324D"/>
<path d="M475.644 216.76C473.244 216.76 472.044 217.664 472.044 219.472C472.044 220.48 472.316 221.176 472.86 221.56C473.42 221.928 474.54 222.304 476.22 222.688C477.916 223.056 479.116 223.544 479.82 224.152C480.524 224.744 480.876 225.728 480.876 227.104C480.876 230.512 479.108 232.216 475.572 232.216C474.404 232.216 472.94 232.08 471.18 231.808L470.316 231.688L470.508 230.152C472.684 230.44 474.34 230.584 475.476 230.584C477.844 230.584 479.028 229.472 479.028 227.248C479.028 226.352 478.764 225.712 478.236 225.328C477.724 224.928 476.756 224.592 475.332 224.32C473.46 223.92 472.132 223.408 471.348 222.784C470.564 222.144 470.172 221.08 470.172 219.592C470.172 216.616 471.956 215.128 475.524 215.128C476.692 215.128 478.092 215.248 479.724 215.488L480.54 215.608L480.372 217.168C478.148 216.896 476.572 216.76 475.644 216.76ZM491.915 230.512L492.611 230.44L492.659 231.856C490.835 232.112 489.275 232.24 487.979 232.24C486.251 232.24 485.027 231.744 484.307 230.752C483.587 229.744 483.227 228.184 483.227 226.072C483.227 221.864 484.899 219.76 488.243 219.76C489.859 219.76 491.067 220.216 491.867 221.128C492.667 222.024 493.067 223.44 493.067 225.376L492.971 226.744H485.051C485.051 228.072 485.291 229.056 485.771 229.696C486.251 230.336 487.083 230.656 488.267 230.656C489.467 230.656 490.683 230.608 491.915 230.512ZM491.267 225.304C491.267 223.832 491.027 222.792 490.547 222.184C490.083 221.576 489.315 221.272 488.243 221.272C487.187 221.272 486.387 221.592 485.843 222.232C485.315 222.872 485.043 223.896 485.027 225.304H491.267ZM496.017 232V214.768H497.817V232H496.017ZM509.587 230.512L510.283 230.44L510.331 231.856C508.507 232.112 506.947 232.24 505.651 232.24C503.923 232.24 502.699 231.744 501.979 230.752C501.259 229.744 500.899 228.184 500.899 226.072C500.899 221.864 502.571 219.76 505.915 219.76C507.531 219.76 508.739 220.216 509.539 221.128C510.339 222.024 510.739 223.44 510.739 225.376L510.643 226.744H502.723C502.723 228.072 502.963 229.056 503.443 229.696C503.923 230.336 504.755 230.656 505.939 230.656C507.139 230.656 508.355 230.608 509.587 230.512ZM508.939 225.304C508.939 223.832 508.699 222.792 508.219 222.184C507.755 221.576 506.987 221.272 505.915 221.272C504.859 221.272 504.059 221.592 503.515 222.232C502.987 222.872 502.715 223.896 502.699 225.304H508.939ZM518.032 219.76C518.56 219.76 519.456 219.856 520.72 220.048L521.296 220.12L521.224 221.584C519.944 221.44 519 221.368 518.392 221.368C517.032 221.368 516.104 221.696 515.608 222.352C515.128 222.992 514.888 224.192 514.888 225.952C514.888 227.696 515.112 228.912 515.56 229.6C516.024 230.288 516.976 230.632 518.416 230.632L521.248 230.416L521.32 231.904C519.832 232.128 518.72 232.24 517.984 232.24C516.112 232.24 514.816 231.76 514.096 230.8C513.392 229.84 513.04 228.224 513.04 225.952C513.04 223.664 513.424 222.064 514.192 221.152C514.96 220.224 516.24 219.76 518.032 219.76ZM530.214 221.56H526.398V227.296C526.398 228.672 526.494 229.576 526.686 230.008C526.894 230.44 527.374 230.656 528.126 230.656L530.262 230.512L530.382 232C529.31 232.176 528.494 232.264 527.934 232.264C526.686 232.264 525.822 231.96 525.342 231.352C524.862 230.744 524.622 229.584 524.622 227.872V221.56H522.918V220H524.622V216.328H526.398V220H530.214V221.56ZM543.901 221.56H540.085V227.296C540.085 228.672 540.181 229.576 540.373 230.008C540.581 230.44 541.061 230.656 541.813 230.656L543.949 230.512L544.069 232C542.997 232.176 542.181 232.264 541.621 232.264C540.373 232.264 539.509 231.96 539.029 231.352C538.549 230.744 538.309 229.584 538.309 227.872V221.56H536.605V220H538.309V216.328H540.085V220H543.901V221.56ZM547.899 232H546.099V214.768H547.899V220.672C549.179 220.064 550.411 219.76 551.595 219.76C553.195 219.76 554.267 220.192 554.811 221.056C555.371 221.92 555.651 223.456 555.651 225.664V232H553.851V225.712C553.851 224.048 553.683 222.912 553.347 222.304C553.027 221.68 552.339 221.368 551.283 221.368C550.275 221.368 549.299 221.552 548.355 221.92L547.899 222.088V232ZM567.15 230.512L567.846 230.44L567.894 231.856C566.07 232.112 564.51 232.24 563.214 232.24C561.486 232.24 560.262 231.744 559.542 230.752C558.822 229.744 558.462 228.184 558.462 226.072C558.462 221.864 560.134 219.76 563.478 219.76C565.094 219.76 566.302 220.216 567.102 221.128C567.902 222.024 568.302 223.44 568.302 225.376L568.206 226.744H560.286C560.286 228.072 560.526 229.056 561.006 229.696C561.486 230.336 562.318 230.656 563.502 230.656C564.702 230.656 565.918 230.608 567.15 230.512ZM566.502 225.304C566.502 223.832 566.262 222.792 565.782 222.184C565.318 221.576 564.55 221.272 563.478 221.272C562.422 221.272 561.622 221.592 561.078 222.232C560.55 222.872 560.278 223.896 560.262 225.304H566.502ZM585.596 214.768V232H583.82V231.184C582.588 231.888 581.372 232.24 580.172 232.24C579.532 232.24 578.972 232.16 578.492 232C578.012 231.84 577.564 231.552 577.148 231.136C576.284 230.272 575.852 228.68 575.852 226.36C575.852 224.024 576.236 222.344 577.004 221.32C577.788 220.28 579.076 219.76 580.868 219.76C581.796 219.76 582.78 219.864 583.82 220.072V214.768H585.596ZM578.54 229.84C578.796 230.144 579.068 230.352 579.356 230.464C579.644 230.576 580.012 230.632 580.46 230.632C580.924 230.632 581.436 230.56 581.996 230.416C582.572 230.256 583.02 230.104 583.34 229.96L583.82 229.744V221.608C582.796 221.416 581.844 221.32 580.964 221.32C579.748 221.32 578.9 221.712 578.42 222.496C577.94 223.264 577.7 224.464 577.7 226.096C577.7 227.952 577.98 229.2 578.54 229.84ZM589.083 232V220H590.883V232H589.083ZM589.083 217.288V215.2H590.883V217.288H589.083ZM598.965 237.64C597.045 237.64 595.701 237.376 594.933 236.848C594.181 236.336 593.805 235.392 593.805 234.016C593.805 233.36 593.949 232.824 594.237 232.408C594.525 232.008 595.013 231.552 595.701 231.04C595.253 230.736 595.029 230.184 595.029 229.384C595.029 229.112 595.229 228.608 595.629 227.872L595.845 227.488C594.581 226.912 593.949 225.704 593.949 223.864C593.949 221.128 595.445 219.76 598.437 219.76C599.205 219.76 599.917 219.84 600.573 220L600.933 220.072L604.485 219.976V221.512L602.205 221.464C602.733 221.992 602.997 222.792 602.997 223.864C602.997 225.368 602.621 226.424 601.869 227.032C601.133 227.624 599.965 227.92 598.365 227.92C597.933 227.92 597.541 227.888 597.189 227.824C596.901 228.528 596.757 228.984 596.757 229.192C596.757 229.688 596.909 230 597.213 230.128C597.517 230.24 598.437 230.296 599.973 230.296C601.509 230.296 602.613 230.536 603.285 231.016C603.957 231.496 604.293 232.432 604.293 233.824C604.293 236.368 602.517 237.64 598.965 237.64ZM595.581 233.872C595.581 234.72 595.813 235.304 596.277 235.624C596.757 235.96 597.629 236.128 598.893 236.128C600.173 236.128 601.085 235.952 601.629 235.6C602.189 235.248 602.469 234.656 602.469 233.824C602.469 233.008 602.269 232.48 601.869 232.24C601.469 232 600.685 231.88 599.517 231.88L596.925 231.76C596.397 232.144 596.037 232.48 595.845 232.768C595.669 233.056 595.581 233.424 595.581 233.872ZM595.749 223.864C595.749 224.808 595.957 225.48 596.373 225.88C596.805 226.28 597.509 226.48 598.485 226.48C599.461 226.48 600.157 226.28 600.573 225.88C600.989 225.48 601.197 224.808 601.197 223.864C601.197 222.904 600.989 222.224 600.573 221.824C600.157 221.424 599.461 221.224 598.485 221.224C597.509 221.224 596.805 221.432 596.373 221.848C595.957 222.248 595.749 222.92 595.749 223.864ZM606.662 232V220H608.462V232H606.662ZM606.662 217.288V215.2H608.462V217.288H606.662ZM618.128 221.56H614.312V227.296C614.312 228.672 614.408 229.576 614.6 230.008C614.808 230.44 615.288 230.656 616.04 230.656L618.176 230.512L618.296 232C617.224 232.176 616.408 232.264 615.848 232.264C614.6 232.264 613.736 231.96 613.256 231.352C612.776 230.744 612.536 229.584 612.536 227.872V221.56H610.832V220H612.536V216.328H614.312V220H618.128V221.56ZM628.798 223.624V229.768C628.846 230.36 629.31 230.712 630.19 230.824L630.118 232.24C628.854 232.24 627.902 231.92 627.262 231.28C625.822 231.92 624.382 232.24 622.942 232.24C621.838 232.24 620.998 231.928 620.422 231.304C619.846 230.68 619.558 229.784 619.558 228.616C619.558 227.448 619.854 226.592 620.446 226.048C621.038 225.488 621.966 225.144 623.23 225.016L626.998 224.656V223.624C626.998 222.808 626.822 222.224 626.47 221.872C626.118 221.52 625.638 221.344 625.03 221.344C623.75 221.344 622.422 221.424 621.046 221.584L620.302 221.656L620.23 220.288C621.99 219.936 623.55 219.76 624.91 219.76C626.27 219.76 627.254 220.072 627.862 220.696C628.486 221.32 628.798 222.296 628.798 223.624ZM621.406 228.52C621.406 229.992 622.014 230.728 623.23 230.728C624.318 230.728 625.39 230.544 626.446 230.176L626.998 229.984V226.024L623.446 226.36C622.726 226.424 622.206 226.632 621.886 226.984C621.566 227.336 621.406 227.848 621.406 228.52ZM632.493 232V214.768H634.293V232H632.493ZM642.193 220H643.993L646.417 230.44H646.801L649.657 220.24H651.529L654.385 230.44H654.793L657.193 220H658.993L656.137 232H653.137L650.593 222.616L648.049 232H645.049L642.193 220ZM669.813 223.624V229.768C669.861 230.36 670.325 230.712 671.205 230.824L671.133 232.24C669.869 232.24 668.917 231.92 668.277 231.28C666.837 231.92 665.397 232.24 663.957 232.24C662.853 232.24 662.013 231.928 661.437 231.304C660.861 230.68 660.573 229.784 660.573 228.616C660.573 227.448 660.869 226.592 661.461 226.048C662.053 225.488 662.981 225.144 664.245 225.016L668.013 224.656V223.624C668.013 222.808 667.837 222.224 667.485 221.872C667.133 221.52 666.653 221.344 666.045 221.344C664.765 221.344 663.437 221.424 662.061 221.584L661.317 221.656L661.245 220.288C663.005 219.936 664.565 219.76 665.925 219.76C667.285 219.76 668.269 220.072 668.877 220.696C669.501 221.32 669.813 222.296 669.813 223.624ZM662.421 228.52C662.421 229.992 663.029 230.728 664.245 230.728C665.333 230.728 666.405 230.544 667.461 230.176L668.013 229.984V226.024L664.461 226.36C663.741 226.424 663.221 226.632 662.901 226.984C662.581 227.336 662.421 227.848 662.421 228.52ZM673.509 232V214.768H675.309V232H673.509ZM679.063 232V214.768H680.863V232H679.063ZM692.634 230.512L693.33 230.44L693.378 231.856C691.554 232.112 689.994 232.24 688.698 232.24C686.97 232.24 685.746 231.744 685.026 230.752C684.306 229.744 683.946 228.184 683.946 226.072C683.946 221.864 685.618 219.76 688.962 219.76C690.578 219.76 691.786 220.216 692.586 221.128C693.386 222.024 693.786 223.44 693.786 225.376L693.69 226.744H685.77C685.77 228.072 686.01 229.056 686.49 229.696C686.97 230.336 687.802 230.656 688.986 230.656C690.186 230.656 691.402 230.608 692.634 230.512ZM691.986 225.304C691.986 223.832 691.746 222.792 691.266 222.184C690.802 221.576 690.034 221.272 688.962 221.272C687.906 221.272 687.106 221.592 686.562 222.232C686.034 222.872 685.762 223.896 685.746 225.304H691.986ZM702.737 221.56H698.921V227.296C698.921 228.672 699.017 229.576 699.209 230.008C699.417 230.44 699.897 230.656 700.649 230.656L702.785 230.512L702.905 232C701.833 232.176 701.017 232.264 700.457 232.264C699.209 232.264 698.345 231.96 697.865 231.352C697.385 230.744 697.145 229.584 697.145 227.872V221.56H695.441V220H697.145V216.328H698.921V220H702.737V221.56ZM709.08 220H710.88L713.88 230.44H714.672L717.696 220H719.496L714.504 237.328H712.704L714.264 232H712.488L709.08 220ZM721.071 225.976C721.071 223.784 721.463 222.2 722.247 221.224C723.031 220.248 724.351 219.76 726.207 219.76C728.079 219.76 729.399 220.248 730.167 221.224C730.951 222.2 731.343 223.784 731.343 225.976C731.343 228.168 730.975 229.76 730.239 230.752C729.503 231.744 728.159 232.24 726.207 232.24C724.255 232.24 722.911 231.744 722.175 230.752C721.439 229.76 721.071 228.168 721.071 225.976ZM722.919 225.952C722.919 227.696 723.127 228.92 723.543 229.624C723.975 230.328 724.863 230.68 726.207 230.68C727.567 230.68 728.455 230.336 728.871 229.648C729.287 228.944 729.495 227.712 729.495 225.952C729.495 224.192 729.263 222.984 728.799 222.328C728.335 221.656 727.471 221.32 726.207 221.32C724.959 221.32 724.095 221.656 723.615 222.328C723.151 222.984 722.919 224.192 722.919 225.952ZM741.767 220H743.567V232H741.767V231.16C740.567 231.88 739.383 232.24 738.215 232.24C736.583 232.24 735.495 231.816 734.951 230.968C734.423 230.12 734.159 228.552 734.159 226.264V220H735.959V226.24C735.959 227.984 736.111 229.152 736.415 229.744C736.719 230.336 737.407 230.632 738.479 230.632C739.007 230.632 739.543 230.56 740.087 230.416C740.631 230.256 741.047 230.104 741.335 229.96L741.767 229.744V220ZM751.318 220H753.118L755.542 230.44H755.926L758.782 220.24H760.654L763.51 230.44H763.918L766.318 220H768.118L765.262 232H762.262L759.718 222.616L757.174 232H754.174L751.318 220ZM778.938 223.624V229.768C778.986 230.36 779.45 230.712 780.33 230.824L780.258 232.24C778.994 232.24 778.042 231.92 777.402 231.28C775.962 231.92 774.522 232.24 773.082 232.24C771.978 232.24 771.138 231.928 770.562 231.304C769.986 230.68 769.698 229.784 769.698 228.616C769.698 227.448 769.994 226.592 770.586 226.048C771.178 225.488 772.106 225.144 773.37 225.016L777.138 224.656V223.624C777.138 222.808 776.962 222.224 776.61 221.872C776.258 221.52 775.778 221.344 775.17 221.344C773.89 221.344 772.562 221.424 771.186 221.584L770.442 221.656L770.37 220.288C772.13 219.936 773.69 219.76 775.05 219.76C776.41 219.76 777.394 220.072 778.002 220.696C778.626 221.32 778.938 222.296 778.938 223.624ZM771.546 228.52C771.546 229.992 772.154 230.728 773.37 230.728C774.458 230.728 775.53 230.544 776.586 230.176L777.138 229.984V226.024L773.586 226.36C772.866 226.424 772.346 226.632 772.026 226.984C771.706 227.336 771.546 227.848 771.546 228.52ZM784.29 232H782.49V220H784.266V220.84C785.562 220.12 786.802 219.76 787.986 219.76C789.586 219.76 790.658 220.192 791.202 221.056C791.762 221.92 792.042 223.456 792.042 225.664V232H790.266V225.712C790.266 224.048 790.098 222.912 789.762 222.304C789.442 221.68 788.746 221.368 787.674 221.368C787.162 221.368 786.618 221.448 786.042 221.608C785.482 221.752 785.05 221.896 784.746 222.04L784.29 222.256V232ZM801.526 221.56H797.71V227.296C797.71 228.672 797.806 229.576 797.998 230.008C798.206 230.44 798.686 230.656 799.438 230.656L801.574 230.512L801.694 232C800.622 232.176 799.806 232.264 799.246 232.264C797.998 232.264 797.134 231.96 796.654 231.352C796.174 230.744 795.934 229.584 795.934 227.872V221.56H794.23V220H795.934V216.328H797.71V220H801.526V221.56ZM815.214 221.56H811.398V227.296C811.398 228.672 811.494 229.576 811.686 230.008C811.894 230.44 812.374 230.656 813.126 230.656L815.262 230.512L815.382 232C814.31 232.176 813.494 232.264 812.934 232.264C811.686 232.264 810.822 231.96 810.342 231.352C809.862 230.744 809.622 229.584 809.622 227.872V221.56H807.918V220H809.622V216.328H811.398V220H815.214V221.56ZM816.884 225.976C816.884 223.784 817.276 222.2 818.06 221.224C818.844 220.248 820.164 219.76 822.02 219.76C823.892 219.76 825.212 220.248 825.98 221.224C826.764 222.2 827.156 223.784 827.156 225.976C827.156 228.168 826.788 229.76 826.052 230.752C825.316 231.744 823.972 232.24 822.02 232.24C820.068 232.24 818.724 231.744 817.988 230.752C817.252 229.76 816.884 228.168 816.884 225.976ZM818.732 225.952C818.732 227.696 818.94 228.92 819.356 229.624C819.788 230.328 820.676 230.68 822.02 230.68C823.38 230.68 824.268 230.336 824.684 229.648C825.1 228.944 825.308 227.712 825.308 225.952C825.308 224.192 825.076 222.984 824.612 222.328C824.148 221.656 823.284 221.32 822.02 221.32C820.772 221.32 819.908 221.656 819.428 222.328C818.964 222.984 818.732 224.192 818.732 225.952ZM839.853 219.76C840.381 219.76 841.277 219.856 842.541 220.048L843.117 220.12L843.045 221.584C841.765 221.44 840.821 221.368 840.213 221.368C838.853 221.368 837.925 221.696 837.429 222.352C836.949 222.992 836.709 224.192 836.709 225.952C836.709 227.696 836.933 228.912 837.381 229.6C837.845 230.288 838.797 230.632 840.237 230.632L843.069 230.416L843.141 231.904C841.653 232.128 840.541 232.24 839.805 232.24C837.933 232.24 836.637 231.76 835.917 230.8C835.213 229.84 834.861 228.224 834.861 225.952C834.861 223.664 835.245 222.064 836.013 221.152C836.781 220.224 838.061 219.76 839.853 219.76ZM845.149 225.976C845.149 223.784 845.541 222.2 846.325 221.224C847.109 220.248 848.429 219.76 850.285 219.76C852.157 219.76 853.477 220.248 854.245 221.224C855.029 222.2 855.421 223.784 855.421 225.976C855.421 228.168 855.053 229.76 854.317 230.752C853.581 231.744 852.237 232.24 850.285 232.24C848.333 232.24 846.989 231.744 846.253 230.752C845.517 229.76 845.149 228.168 845.149 225.976ZM846.997 225.952C846.997 227.696 847.205 228.92 847.621 229.624C848.053 230.328 848.941 230.68 850.285 230.68C851.645 230.68 852.533 230.336 852.949 229.648C853.365 228.944 853.573 227.712 853.573 225.952C853.573 224.192 853.341 222.984 852.877 222.328C852.413 221.656 851.549 221.32 850.285 221.32C849.037 221.32 848.173 221.656 847.693 222.328C847.229 222.984 846.997 224.192 846.997 225.952ZM860.157 232H858.357V220H860.133V220.84C861.429 220.12 862.669 219.76 863.853 219.76C865.453 219.76 866.525 220.192 867.069 221.056C867.629 221.92 867.909 223.456 867.909 225.664V232H866.133V225.712C866.133 224.048 865.965 222.912 865.629 222.304C865.309 221.68 864.613 221.368 863.541 221.368C863.029 221.368 862.485 221.448 861.909 221.608C861.349 221.752 860.917 221.896 860.613 222.04L860.157 222.256V232ZM877.393 221.56H873.577V227.296C873.577 228.672 873.673 229.576 873.865 230.008C874.073 230.44 874.553 230.656 875.305 230.656L877.441 230.512L877.561 232C876.489 232.176 875.673 232.264 875.113 232.264C873.865 232.264 873.001 231.96 872.521 231.352C872.041 230.744 871.801 229.584 871.801 227.872V221.56H870.097V220H871.801V216.328H873.577V220H877.393V221.56ZM879.591 232V220H881.391V232H879.591ZM879.591 217.288V215.2H881.391V217.288H879.591ZM886.641 232H884.841V220H886.617V220.84C887.913 220.12 889.153 219.76 890.337 219.76C891.937 219.76 893.009 220.192 893.553 221.056C894.113 221.92 894.393 223.456 894.393 225.664V232H892.617V225.712C892.617 224.048 892.449 222.912 892.113 222.304C891.793 221.68 891.097 221.368 890.025 221.368C889.513 221.368 888.969 221.448 888.393 221.608C887.833 221.752 887.401 221.896 887.097 222.04L886.641 222.256V232ZM905.22 220H907.02V232H905.22V231.16C904.02 231.88 902.836 232.24 901.668 232.24C900.036 232.24 898.948 231.816 898.404 230.968C897.876 230.12 897.612 228.552 897.612 226.264V220H899.412V226.24C899.412 227.984 899.564 229.152 899.868 229.744C900.172 230.336 900.86 230.632 901.932 230.632C902.46 230.632 902.996 230.56 903.54 230.416C904.084 230.256 904.5 230.104 904.788 229.96L905.22 229.744V220ZM918.642 230.512L919.338 230.44L919.386 231.856C917.562 232.112 916.002 232.24 914.706 232.24C912.978 232.24 911.754 231.744 911.034 230.752C910.314 229.744 909.954 228.184 909.954 226.072C909.954 221.864 911.626 219.76 914.97 219.76C916.586 219.76 917.794 220.216 918.594 221.128C919.394 222.024 919.794 223.44 919.794 225.376L919.698 226.744H911.778C911.778 228.072 912.018 229.056 912.498 229.696C912.978 230.336 913.81 230.656 914.994 230.656C916.194 230.656 917.41 230.608 918.642 230.512ZM917.994 225.304C917.994 223.832 917.754 222.792 917.274 222.184C916.81 221.576 916.042 221.272 914.97 221.272C913.914 221.272 913.114 221.592 912.57 222.232C912.042 222.872 911.77 223.896 911.754 225.304H917.994ZM926.889 220H928.689L931.113 230.44H931.497L934.353 220.24H936.225L939.081 230.44H939.489L941.889 220H943.689L940.833 232H937.833L935.289 222.616L932.745 232H929.745L926.889 220ZM946.154 232V220H947.954V232H946.154ZM946.154 217.288V215.2H947.954V217.288H946.154ZM957.62 221.56H953.804V227.296C953.804 228.672 953.9 229.576 954.092 230.008C954.3 230.44 954.78 230.656 955.532 230.656L957.668 230.512L957.788 232C956.716 232.176 955.9 232.264 955.34 232.264C954.092 232.264 953.228 231.96 952.748 231.352C952.268 230.744 952.028 229.584 952.028 227.872V221.56H950.324V220H952.028V216.328H953.804V220H957.62V221.56ZM961.618 232H959.818V214.768H961.618V220.672C962.898 220.064 964.13 219.76 965.314 219.76C966.914 219.76 967.986 220.192 968.53 221.056C969.09 221.92 969.37 223.456 969.37 225.664V232H967.57V225.712C967.57 224.048 967.402 222.912 967.066 222.304C966.746 221.68 966.058 221.368 965.002 221.368C963.994 221.368 963.018 221.552 962.074 221.92L961.618 222.088V232Z" fill="#17324D"/>
<rect width="1440" height="545" transform="translate(0 264)" fill="white"/>
<g filter="url(#filter0_d_4177_47321)">
<g clip-path="url(#clip1_4177_47321)">
<rect width="440" height="104" transform="translate(271 288)" fill="white"/>
<path d="M346.334 326V354L323 368L299.667 354V326L323 312L346.334 326ZM302.01 327.405V352.595L323 365.188L343.991 352.595V327.405L323 314.812L302.01 327.405Z" fill="#0066CC"/>
<path d="M368.896 349V332.56H371.56V349H368.896ZM373.757 334.936V332.56H385.757V334.936H381.125V349H378.437V334.936H373.757ZM386.112 343.72V341.344H393.288V343.72H386.112ZM394.928 332.56H397.736L400.088 346.696H400.592L403.712 332.608H406.832L409.952 346.696H410.48L412.832 332.56H415.64L412.4 349H408.104L405.272 335.824L402.464 349H398.144L394.928 332.56ZM426.331 340.696V346.168C426.347 346.52 426.435 346.784 426.595 346.96C426.771 347.12 427.035 347.224 427.387 347.272L427.315 349.264C425.939 349.264 424.875 348.968 424.123 348.376C422.843 348.968 421.555 349.264 420.259 349.264C417.875 349.264 416.683 347.992 416.683 345.448C416.683 344.232 417.003 343.352 417.643 342.808C418.299 342.264 419.299 341.936 420.643 341.824L423.739 341.56V340.696C423.739 340.056 423.595 339.608 423.307 339.352C423.035 339.096 422.627 338.968 422.083 338.968C421.059 338.968 419.779 339.032 418.243 339.16L417.475 339.208L417.379 337.36C419.123 336.944 420.723 336.736 422.179 336.736C423.651 336.736 424.707 337.056 425.347 337.696C426.003 338.32 426.331 339.32 426.331 340.696ZM420.955 343.672C419.851 343.768 419.299 344.368 419.299 345.472C419.299 346.576 419.787 347.128 420.763 347.128C421.563 347.128 422.411 347 423.307 346.744L423.739 346.6V343.408L420.955 343.672ZM429.759 349V332.008H432.375V349H429.759ZM435.83 349V332.008H438.446V349H435.83ZM450.3 346.84L450.972 346.768L451.02 348.712C449.196 349.08 447.58 349.264 446.172 349.264C444.396 349.264 443.116 348.776 442.332 347.8C441.564 346.824 441.18 345.264 441.18 343.12C441.18 338.864 442.916 336.736 446.388 336.736C449.748 336.736 451.428 338.568 451.428 342.232L451.26 344.104H443.82C443.836 345.096 444.052 345.824 444.468 346.288C444.884 346.752 445.66 346.984 446.796 346.984C447.932 346.984 449.1 346.936 450.3 346.84ZM448.86 342.088C448.86 340.904 448.668 340.08 448.284 339.616C447.916 339.136 447.284 338.896 446.388 338.896C445.492 338.896 444.836 339.144 444.42 339.64C444.02 340.136 443.812 340.952 443.796 342.088H448.86ZM460.399 339.232H457.087V344.512C457.087 345.488 457.159 346.136 457.303 346.456C457.447 346.776 457.815 346.936 458.407 346.936L460.375 346.864L460.495 348.952C459.423 349.16 458.607 349.264 458.047 349.264C456.687 349.264 455.751 348.952 455.239 348.328C454.743 347.704 454.495 346.528 454.495 344.8V339.232H452.959V337H454.495V333.52H457.087V337H460.399V339.232ZM476.698 340.696V346.168C476.714 346.52 476.802 346.784 476.962 346.96C477.138 347.12 477.402 347.224 477.754 347.272L477.682 349.264C476.306 349.264 475.242 348.968 474.49 348.376C473.21 348.968 471.922 349.264 470.626 349.264C468.242 349.264 467.05 347.992 467.05 345.448C467.05 344.232 467.37 343.352 468.01 342.808C468.666 342.264 469.666 341.936 471.01 341.824L474.106 341.56V340.696C474.106 340.056 473.962 339.608 473.674 339.352C473.402 339.096 472.994 338.968 472.45 338.968C471.426 338.968 470.146 339.032 468.61 339.16L467.842 339.208L467.746 337.36C469.49 336.944 471.09 336.736 472.546 336.736C474.018 336.736 475.074 337.056 475.714 337.696C476.37 338.32 476.698 339.32 476.698 340.696ZM471.322 343.672C470.218 343.768 469.666 344.368 469.666 345.472C469.666 346.576 470.154 347.128 471.13 347.128C471.93 347.128 472.778 347 473.674 346.744L474.106 346.6V343.408L471.322 343.672ZM479.982 354.16V337H482.574V337.744C483.678 337.072 484.71 336.736 485.67 336.736C487.254 336.736 488.414 337.224 489.15 338.2C489.886 339.16 490.254 340.784 490.254 343.072C490.254 345.344 489.83 346.944 488.982 347.872C488.15 348.8 486.782 349.264 484.878 349.264C484.222 349.264 483.462 349.192 482.598 349.048V354.16H479.982ZM485.214 339.064C484.462 339.064 483.71 339.232 482.958 339.568L482.598 339.736V346.816C483.238 346.944 483.942 347.008 484.71 347.008C485.798 347.008 486.55 346.696 486.966 346.072C487.382 345.448 487.59 344.384 487.59 342.88C487.59 340.336 486.798 339.064 485.214 339.064ZM492.873 354.16V337H495.465V337.744C496.569 337.072 497.601 336.736 498.561 336.736C500.145 336.736 501.305 337.224 502.041 338.2C502.777 339.16 503.145 340.784 503.145 343.072C503.145 345.344 502.721 346.944 501.873 347.872C501.041 348.8 499.673 349.264 497.769 349.264C497.113 349.264 496.353 349.192 495.489 349.048V354.16H492.873ZM498.105 339.064C497.353 339.064 496.601 339.232 495.849 339.568L495.489 339.736V346.816C496.129 346.944 496.833 347.008 497.601 347.008C498.689 347.008 499.441 346.696 499.857 346.072C500.273 345.448 500.481 344.384 500.481 342.88C500.481 340.336 499.689 339.064 498.105 339.064ZM513.653 349H511.037V337H513.629V337.744C514.797 337.072 515.901 336.736 516.941 336.736C518.541 336.736 519.629 337.192 520.205 338.104C520.797 339 521.093 340.488 521.093 342.568V349H518.501V342.64C518.501 341.344 518.357 340.424 518.069 339.88C517.797 339.336 517.229 339.064 516.365 339.064C515.549 339.064 514.765 339.224 514.013 339.544L513.653 339.688V349ZM533.019 340.696V346.168C533.035 346.52 533.123 346.784 533.283 346.96C533.459 347.12 533.723 347.224 534.075 347.272L534.003 349.264C532.627 349.264 531.563 348.968 530.811 348.376C529.531 348.968 528.243 349.264 526.947 349.264C524.563 349.264 523.371 347.992 523.371 345.448C523.371 344.232 523.691 343.352 524.331 342.808C524.987 342.264 525.987 341.936 527.331 341.824L530.427 341.56V340.696C530.427 340.056 530.283 339.608 529.995 339.352C529.723 339.096 529.315 338.968 528.771 338.968C527.747 338.968 526.467 339.032 524.931 339.16L524.163 339.208L524.067 337.36C525.811 336.944 527.411 336.736 528.867 336.736C530.339 336.736 531.395 337.056 532.035 337.696C532.691 338.32 533.019 339.32 533.019 340.696ZM527.643 343.672C526.539 343.768 525.987 344.368 525.987 345.472C525.987 346.576 526.475 347.128 527.451 347.128C528.251 347.128 529.099 347 529.995 346.744L530.427 346.6V343.408L527.643 343.672ZM538.919 349H536.303V337H538.895V337.744C540.031 337.072 541.071 336.736 542.015 336.736C543.407 336.736 544.423 337.128 545.063 337.912C546.519 337.128 547.967 336.736 549.407 336.736C550.847 336.736 551.863 337.184 552.455 338.08C553.047 338.96 553.343 340.456 553.343 342.568V349H550.751V342.64C550.751 341.344 550.615 340.424 550.343 339.88C550.087 339.336 549.543 339.064 548.711 339.064C547.991 339.064 547.215 339.224 546.383 339.544L545.975 339.712C546.103 340.032 546.167 341.056 546.167 342.784V349H543.575V342.832C543.575 341.408 543.447 340.424 543.191 339.88C542.935 339.336 542.375 339.064 541.511 339.064C540.711 339.064 539.967 339.224 539.279 339.544L538.919 339.688V349ZM564.956 346.84L565.628 346.768L565.676 348.712C563.852 349.08 562.236 349.264 560.828 349.264C559.052 349.264 557.772 348.776 556.988 347.8C556.22 346.824 555.836 345.264 555.836 343.12C555.836 338.864 557.572 336.736 561.044 336.736C564.404 336.736 566.084 338.568 566.084 342.232L565.916 344.104H558.476C558.492 345.096 558.708 345.824 559.124 346.288C559.54 346.752 560.316 346.984 561.452 346.984C562.588 346.984 563.756 346.936 564.956 346.84ZM563.516 342.088C563.516 340.904 563.324 340.08 562.94 339.616C562.572 339.136 561.94 338.896 561.044 338.896C560.148 338.896 559.492 339.144 559.076 339.64C558.676 340.136 558.468 340.952 558.452 342.088H563.516Z" fill="#0066CC"/>
<path d="M367 351.64H479.264V352.36H367V351.64ZM483.322 351.64H492.155V352.36H483.322V351.64ZM496.212 351.64H567.02V352.36H496.212V351.64Z" fill="#0066CC"/>
</g>
<rect x="271.5" y="288.5" width="439" height="103" rx="3.5" stroke="#C5C7C9"/>
</g>
<g filter="url(#filter1_d_4177_47321)">
<g clip-path="url(#clip2_4177_47321)">
<rect width="440" height="104" transform="translate(727 288)" fill="white"/>
<path d="M802.334 326V354L779 368L755.667 354V326L779 312L802.334 326ZM758.01 327.405V352.595L779 365.188L799.991 352.595V327.405L779 314.812L758.01 327.405Z" fill="#0066CC"/>
<path d="M824.896 335V318.56H827.56V335H824.896ZM829.757 320.936V318.56H841.757V320.936H837.125V335H834.437V320.936H829.757ZM842.112 329.72V327.344H849.288V329.72H842.112ZM850.928 318.56H853.736L856.088 332.696H856.592L859.712 318.608H862.832L865.952 332.696H866.48L868.832 318.56H871.64L868.4 335H864.104L861.272 321.824L858.464 335H854.144L850.928 318.56ZM882.331 326.696V332.168C882.347 332.52 882.435 332.784 882.595 332.96C882.771 333.12 883.035 333.224 883.387 333.272L883.315 335.264C881.939 335.264 880.875 334.968 880.123 334.376C878.843 334.968 877.555 335.264 876.259 335.264C873.875 335.264 872.683 333.992 872.683 331.448C872.683 330.232 873.003 329.352 873.643 328.808C874.299 328.264 875.299 327.936 876.643 327.824L879.739 327.56V326.696C879.739 326.056 879.595 325.608 879.307 325.352C879.035 325.096 878.627 324.968 878.083 324.968C877.059 324.968 875.779 325.032 874.243 325.16L873.475 325.208L873.379 323.36C875.123 322.944 876.723 322.736 878.179 322.736C879.651 322.736 880.707 323.056 881.347 323.696C882.003 324.32 882.331 325.32 882.331 326.696ZM876.955 329.672C875.851 329.768 875.299 330.368 875.299 331.472C875.299 332.576 875.787 333.128 876.763 333.128C877.563 333.128 878.411 333 879.307 332.744L879.739 332.6V329.408L876.955 329.672ZM885.759 335V318.008H888.375V335H885.759ZM891.83 335V318.008H894.446V335H891.83ZM906.3 332.84L906.972 332.768L907.02 334.712C905.196 335.08 903.58 335.264 902.172 335.264C900.396 335.264 899.116 334.776 898.332 333.8C897.564 332.824 897.18 331.264 897.18 329.12C897.18 324.864 898.916 322.736 902.388 322.736C905.748 322.736 907.428 324.568 907.428 328.232L907.26 330.104H899.82C899.836 331.096 900.052 331.824 900.468 332.288C900.884 332.752 901.66 332.984 902.796 332.984C903.932 332.984 905.1 332.936 906.3 332.84ZM904.86 328.088C904.86 326.904 904.668 326.08 904.284 325.616C903.916 325.136 903.284 324.896 902.388 324.896C901.492 324.896 900.836 325.144 900.42 325.64C900.02 326.136 899.812 326.952 899.796 328.088H904.86ZM916.399 325.232H913.087V330.512C913.087 331.488 913.159 332.136 913.303 332.456C913.447 332.776 913.815 332.936 914.407 332.936L916.375 332.864L916.495 334.952C915.423 335.16 914.607 335.264 914.047 335.264C912.687 335.264 911.751 334.952 911.239 334.328C910.743 333.704 910.495 332.528 910.495 330.8V325.232H908.959V323H910.495V319.52H913.087V323H916.399V325.232ZM932.698 326.696V332.168C932.714 332.52 932.802 332.784 932.962 332.96C933.138 333.12 933.402 333.224 933.754 333.272L933.682 335.264C932.306 335.264 931.242 334.968 930.49 334.376C929.21 334.968 927.922 335.264 926.626 335.264C924.242 335.264 923.05 333.992 923.05 331.448C923.05 330.232 923.37 329.352 924.01 328.808C924.666 328.264 925.666 327.936 927.01 327.824L930.106 327.56V326.696C930.106 326.056 929.962 325.608 929.674 325.352C929.402 325.096 928.994 324.968 928.45 324.968C927.426 324.968 926.146 325.032 924.61 325.16L923.842 325.208L923.746 323.36C925.49 322.944 927.09 322.736 928.546 322.736C930.018 322.736 931.074 323.056 931.714 323.696C932.37 324.32 932.698 325.32 932.698 326.696ZM927.322 329.672C926.218 329.768 925.666 330.368 925.666 331.472C925.666 332.576 926.154 333.128 927.13 333.128C927.93 333.128 928.778 333 929.674 332.744L930.106 332.6V329.408L927.322 329.672ZM935.982 340.16V323H938.574V323.744C939.678 323.072 940.71 322.736 941.67 322.736C943.254 322.736 944.414 323.224 945.15 324.2C945.886 325.16 946.254 326.784 946.254 329.072C946.254 331.344 945.83 332.944 944.982 333.872C944.15 334.8 942.782 335.264 940.878 335.264C940.222 335.264 939.462 335.192 938.598 335.048V340.16H935.982ZM941.214 325.064C940.462 325.064 939.71 325.232 938.958 325.568L938.598 325.736V332.816C939.238 332.944 939.942 333.008 940.71 333.008C941.798 333.008 942.55 332.696 942.966 332.072C943.382 331.448 943.59 330.384 943.59 328.88C943.59 326.336 942.798 325.064 941.214 325.064ZM948.873 340.16V323H951.465V323.744C952.569 323.072 953.601 322.736 954.561 322.736C956.145 322.736 957.305 323.224 958.041 324.2C958.777 325.16 959.145 326.784 959.145 329.072C959.145 331.344 958.721 332.944 957.873 333.872C957.041 334.8 955.673 335.264 953.769 335.264C953.113 335.264 952.353 335.192 951.489 335.048V340.16H948.873ZM954.105 325.064C953.353 325.064 952.601 325.232 951.849 325.568L951.489 325.736V332.816C952.129 332.944 952.833 333.008 953.601 333.008C954.689 333.008 955.441 332.696 955.857 332.072C956.273 331.448 956.481 330.384 956.481 328.88C956.481 326.336 955.689 325.064 954.105 325.064ZM969.653 335H967.037V323H969.629V323.744C970.797 323.072 971.901 322.736 972.941 322.736C974.541 322.736 975.629 323.192 976.205 324.104C976.797 325 977.093 326.488 977.093 328.568V335H974.501V328.64C974.501 327.344 974.357 326.424 974.069 325.88C973.797 325.336 973.229 325.064 972.365 325.064C971.549 325.064 970.765 325.224 970.013 325.544L969.653 325.688V335ZM989.019 326.696V332.168C989.035 332.52 989.123 332.784 989.283 332.96C989.459 333.12 989.723 333.224 990.075 333.272L990.003 335.264C988.627 335.264 987.563 334.968 986.811 334.376C985.531 334.968 984.243 335.264 982.947 335.264C980.563 335.264 979.371 333.992 979.371 331.448C979.371 330.232 979.691 329.352 980.331 328.808C980.987 328.264 981.987 327.936 983.331 327.824L986.427 327.56V326.696C986.427 326.056 986.283 325.608 985.995 325.352C985.723 325.096 985.315 324.968 984.771 324.968C983.747 324.968 982.467 325.032 980.931 325.16L980.163 325.208L980.067 323.36C981.811 322.944 983.411 322.736 984.867 322.736C986.339 322.736 987.395 323.056 988.035 323.696C988.691 324.32 989.019 325.32 989.019 326.696ZM983.643 329.672C982.539 329.768 981.987 330.368 981.987 331.472C981.987 332.576 982.475 333.128 983.451 333.128C984.251 333.128 985.099 333 985.995 332.744L986.427 332.6V329.408L983.643 329.672ZM994.919 335H992.303V323H994.895V323.744C996.031 323.072 997.071 322.736 998.015 322.736C999.407 322.736 1000.42 323.128 1001.06 323.912C1002.52 323.128 1003.97 322.736 1005.41 322.736C1006.85 322.736 1007.86 323.184 1008.45 324.08C1009.05 324.96 1009.34 326.456 1009.34 328.568V335H1006.75V328.64C1006.75 327.344 1006.61 326.424 1006.34 325.88C1006.09 325.336 1005.54 325.064 1004.71 325.064C1003.99 325.064 1003.21 325.224 1002.38 325.544L1001.97 325.712C1002.1 326.032 1002.17 327.056 1002.17 328.784V335H999.575V328.832C999.575 327.408 999.447 326.424 999.191 325.88C998.935 325.336 998.375 325.064 997.511 325.064C996.711 325.064 995.967 325.224 995.279 325.544L994.919 325.688V335ZM1020.96 332.84L1021.63 332.768L1021.68 334.712C1019.85 335.08 1018.24 335.264 1016.83 335.264C1015.05 335.264 1013.77 334.776 1012.99 333.8C1012.22 332.824 1011.84 331.264 1011.84 329.12C1011.84 324.864 1013.57 322.736 1017.04 322.736C1020.4 322.736 1022.08 324.568 1022.08 328.232L1021.92 330.104H1014.48C1014.49 331.096 1014.71 331.824 1015.12 332.288C1015.54 332.752 1016.32 332.984 1017.45 332.984C1018.59 332.984 1019.76 332.936 1020.96 332.84ZM1019.52 328.088C1019.52 326.904 1019.32 326.08 1018.94 325.616C1018.57 325.136 1017.94 324.896 1017.04 324.896C1016.15 324.896 1015.49 325.144 1015.08 325.64C1014.68 326.136 1014.47 326.952 1014.45 328.088H1019.52ZM1030.02 335V318.008H1032.63V335H1030.02ZM1036.59 324.296C1037.42 323.256 1038.8 322.736 1040.72 322.736C1042.64 322.736 1044.01 323.256 1044.82 324.296C1045.66 325.336 1046.07 326.896 1046.07 328.976C1046.07 331.056 1045.67 332.624 1044.87 333.68C1044.07 334.736 1042.69 335.264 1040.72 335.264C1038.75 335.264 1037.37 334.736 1036.57 333.68C1035.77 332.624 1035.37 331.056 1035.37 328.976C1035.37 326.896 1035.78 325.336 1036.59 324.296ZM1038.56 332.096C1038.93 332.736 1039.65 333.056 1040.72 333.056C1041.79 333.056 1042.51 332.736 1042.88 332.096C1043.25 331.456 1043.43 330.408 1043.43 328.952C1043.43 327.496 1043.23 326.464 1042.83 325.856C1042.45 325.248 1041.74 324.944 1040.72 324.944C1039.7 324.944 1038.98 325.248 1038.58 325.856C1038.2 326.464 1038.01 327.496 1038.01 328.952C1038.01 330.408 1038.19 331.456 1038.56 332.096ZM1048.67 335V323H1051.26V324.44C1052.62 323.56 1053.98 322.992 1055.34 322.736V325.352C1053.97 325.624 1052.79 325.976 1051.81 326.408L1051.29 326.624V335H1048.67ZM1065.79 332.84L1066.46 332.768L1066.51 334.712C1064.69 335.08 1063.07 335.264 1061.66 335.264C1059.89 335.264 1058.61 334.776 1057.82 333.8C1057.06 332.824 1056.67 331.264 1056.67 329.12C1056.67 324.864 1058.41 322.736 1061.88 322.736C1065.24 322.736 1066.92 324.568 1066.92 328.232L1066.75 330.104H1059.31C1059.33 331.096 1059.54 331.824 1059.96 332.288C1060.38 332.752 1061.15 332.984 1062.29 332.984C1063.42 332.984 1064.59 332.936 1065.79 332.84ZM1064.35 328.088C1064.35 326.904 1064.16 326.08 1063.78 325.616C1063.41 325.136 1062.78 324.896 1061.88 324.896C1060.98 324.896 1060.33 325.144 1059.91 325.64C1059.51 326.136 1059.3 326.952 1059.29 328.088H1064.35ZM1072.05 335H1069.44V323H1072.03V323.744C1073.16 323.072 1074.2 322.736 1075.15 322.736C1076.54 322.736 1077.56 323.128 1078.2 323.912C1079.65 323.128 1081.1 322.736 1082.54 322.736C1083.98 322.736 1085 323.184 1085.59 324.08C1086.18 324.96 1086.48 326.456 1086.48 328.568V335H1083.88V328.64C1083.88 327.344 1083.75 326.424 1083.48 325.88C1083.22 325.336 1082.68 325.064 1081.84 325.064C1081.12 325.064 1080.35 325.224 1079.52 325.544L1079.11 325.712C1079.24 326.032 1079.3 327.056 1079.3 328.784V335H1076.71V328.832C1076.71 327.408 1076.58 326.424 1076.32 325.88C1076.07 325.336 1075.51 325.064 1074.64 325.064C1073.84 325.064 1073.1 325.224 1072.41 325.544L1072.05 325.688V335ZM824.584 363V351H827.2V363H824.584ZM824.584 348.96V346.2H827.2V348.96H824.584ZM830.373 368.16V351H832.965V351.744C834.069 351.072 835.101 350.736 836.061 350.736C837.645 350.736 838.805 351.224 839.541 352.2C840.277 353.16 840.645 354.784 840.645 357.072C840.645 359.344 840.221 360.944 839.373 361.872C838.541 362.8 837.173 363.264 835.269 363.264C834.613 363.264 833.853 363.192 832.989 363.048V368.16H830.373ZM835.605 353.064C834.853 353.064 834.101 353.232 833.349 353.568L832.989 353.736V360.816C833.629 360.944 834.333 361.008 835.101 361.008C836.189 361.008 836.941 360.696 837.357 360.072C837.773 359.448 837.981 358.384 837.981 356.88C837.981 354.336 837.189 353.064 835.605 353.064ZM851.592 353.472C849.704 353.216 848.336 353.088 847.488 353.088C846.64 353.088 846.048 353.192 845.712 353.4C845.392 353.592 845.232 353.904 845.232 354.336C845.232 354.768 845.408 355.072 845.76 355.248C846.128 355.424 846.976 355.632 848.304 355.872C849.648 356.096 850.6 356.456 851.16 356.952C851.72 357.448 852 358.328 852 359.592C852 360.856 851.592 361.784 850.776 362.376C849.976 362.968 848.8 363.264 847.248 363.264C846.272 363.264 845.04 363.128 843.552 362.856L842.808 362.736L842.904 360.552C844.824 360.808 846.208 360.936 847.056 360.936C847.904 360.936 848.504 360.832 848.856 360.624C849.224 360.416 849.408 360.072 849.408 359.592C849.408 359.112 849.232 358.784 848.88 358.608C848.544 358.416 847.72 358.216 846.408 358.008C845.112 357.784 844.16 357.44 843.552 356.976C842.944 356.512 842.64 355.664 842.64 354.432C842.64 353.2 843.056 352.28 843.888 351.672C844.736 351.064 845.816 350.76 847.128 350.76C848.152 350.76 849.408 350.888 850.896 351.144L851.64 351.288L851.592 353.472ZM861.786 351H864.378V363H861.786V362.256C860.618 362.928 859.538 363.264 858.546 363.264C856.898 363.264 855.794 362.824 855.234 361.944C854.674 361.048 854.394 359.488 854.394 357.264V351H857.01V357.288C857.01 358.728 857.13 359.696 857.37 360.192C857.61 360.688 858.17 360.936 859.05 360.936C859.914 360.936 860.706 360.776 861.426 360.456L861.786 360.312V351ZM870.161 363H867.545V351H870.137V351.744C871.273 351.072 872.313 350.736 873.257 350.736C874.649 350.736 875.665 351.128 876.305 351.912C877.761 351.128 879.209 350.736 880.649 350.736C882.089 350.736 883.105 351.184 883.697 352.08C884.289 352.96 884.585 354.456 884.585 356.568V363H881.993V356.64C881.993 355.344 881.857 354.424 881.585 353.88C881.329 353.336 880.785 353.064 879.953 353.064C879.233 353.064 878.457 353.224 877.625 353.544L877.217 353.712C877.345 354.032 877.409 355.056 877.409 356.784V363H874.817V356.832C874.817 355.408 874.689 354.424 874.433 353.88C874.177 353.336 873.617 353.064 872.753 353.064C871.953 353.064 871.209 353.224 870.521 353.544L870.161 353.688V363ZM902.72 346.008V363H900.128V362.376C898.96 362.968 897.888 363.264 896.912 363.264C895.344 363.264 894.192 362.792 893.456 361.848C892.736 360.904 892.376 359.32 892.376 357.096C892.376 354.872 892.776 353.256 893.576 352.248C894.392 351.24 895.656 350.736 897.368 350.736C897.944 350.736 898.856 350.84 900.104 351.048V346.008H902.72ZM899.696 360.504L900.104 360.336V353.232C899.144 353.072 898.256 352.992 897.44 352.992C895.824 352.992 895.016 354.336 895.016 357.024C895.016 358.496 895.2 359.52 895.568 360.096C895.952 360.656 896.552 360.936 897.368 360.936C898.184 360.936 898.96 360.792 899.696 360.504ZM906.537 352.296C907.369 351.256 908.745 350.736 910.665 350.736C912.585 350.736 913.953 351.256 914.769 352.296C915.601 353.336 916.017 354.896 916.017 356.976C916.017 359.056 915.617 360.624 914.817 361.68C914.017 362.736 912.633 363.264 910.665 363.264C908.697 363.264 907.313 362.736 906.513 361.68C905.713 360.624 905.313 359.056 905.313 356.976C905.313 354.896 905.721 353.336 906.537 352.296ZM908.505 360.096C908.873 360.736 909.593 361.056 910.665 361.056C911.737 361.056 912.457 360.736 912.825 360.096C913.193 359.456 913.377 358.408 913.377 356.952C913.377 355.496 913.177 354.464 912.777 353.856C912.393 353.248 911.689 352.944 910.665 352.944C909.641 352.944 908.929 353.248 908.529 353.856C908.145 354.464 907.953 355.496 907.953 356.952C907.953 358.408 908.137 359.456 908.505 360.096ZM918.759 363V346.008H921.375V363H918.759ZM925.334 352.296C926.166 351.256 927.542 350.736 929.462 350.736C931.382 350.736 932.75 351.256 933.566 352.296C934.398 353.336 934.814 354.896 934.814 356.976C934.814 359.056 934.414 360.624 933.614 361.68C932.814 362.736 931.43 363.264 929.462 363.264C927.494 363.264 926.11 362.736 925.31 361.68C924.51 360.624 924.11 359.056 924.11 356.976C924.11 354.896 924.518 353.336 925.334 352.296ZM927.302 360.096C927.67 360.736 928.39 361.056 929.462 361.056C930.534 361.056 931.254 360.736 931.622 360.096C931.99 359.456 932.174 358.408 932.174 356.952C932.174 355.496 931.974 354.464 931.574 353.856C931.19 353.248 930.486 352.944 929.462 352.944C928.438 352.944 927.726 353.248 927.326 353.856C926.942 354.464 926.75 355.496 926.75 356.952C926.75 358.408 926.934 359.456 927.302 360.096ZM937.412 363V351H940.004V352.44C941.364 351.56 942.724 350.992 944.084 350.736V353.352C942.708 353.624 941.532 353.976 940.556 354.408L940.028 354.624V363H937.412ZM959.685 353.472C957.797 353.216 956.429 353.088 955.581 353.088C954.733 353.088 954.141 353.192 953.805 353.4C953.485 353.592 953.325 353.904 953.325 354.336C953.325 354.768 953.501 355.072 953.853 355.248C954.221 355.424 955.069 355.632 956.397 355.872C957.741 356.096 958.693 356.456 959.253 356.952C959.813 357.448 960.093 358.328 960.093 359.592C960.093 360.856 959.685 361.784 958.869 362.376C958.069 362.968 956.893 363.264 955.341 363.264C954.365 363.264 953.133 363.128 951.645 362.856L950.901 362.736L950.997 360.552C952.917 360.808 954.301 360.936 955.149 360.936C955.997 360.936 956.597 360.832 956.949 360.624C957.317 360.416 957.501 360.072 957.501 359.592C957.501 359.112 957.325 358.784 956.973 358.608C956.637 358.416 955.813 358.216 954.501 358.008C953.205 357.784 952.253 357.44 951.645 356.976C951.037 356.512 950.733 355.664 950.733 354.432C950.733 353.2 951.149 352.28 951.981 351.672C952.829 351.064 953.909 350.76 955.221 350.76C956.245 350.76 957.501 350.888 958.989 351.144L959.733 351.288L959.685 353.472ZM962.607 363V351H965.223V363H962.607ZM962.607 348.96V346.2H965.223V348.96H962.607ZM974.853 353.232H971.541V358.512C971.541 359.488 971.613 360.136 971.757 360.456C971.901 360.776 972.269 360.936 972.861 360.936L974.829 360.864L974.949 362.952C973.877 363.16 973.061 363.264 972.501 363.264C971.141 363.264 970.205 362.952 969.693 362.328C969.197 361.704 968.949 360.528 968.949 358.8V353.232H967.413V351H968.949V347.52H971.541V351H974.853V353.232Z" fill="#0066CC"/>
<path d="M823 337.64H935.264V338.36H823V337.64ZM939.322 337.64H948.155V338.36H939.322V337.64Z" fill="#0066CC"/>
<path d="M952.212 337.64H1087.96V338.36H952.212V337.64ZM823 365.64H829.655V366.36H823V365.64ZM833.712 365.64H975.404V366.36H833.712V365.64Z" fill="#0066CC"/>
</g>
<rect x="727.5" y="288.5" width="439" height="103" rx="3.5" stroke="#C5C7C9"/>
</g>
<rect width="1440" height="64" transform="translate(0 810)" fill="#089994"/>
<mask id="path-25-inside-1_4177_47321" fill="white">
<path d="M0 810H1440V874H0V810Z"/>
</mask>
<path d="M0 810H1440V874H0V810Z" fill="#003366"/>
<path d="M0 810V811H1440V810V809H0V810Z" fill="white" fill-opacity="0.5" mask="url(#path-25-inside-1_4177_47321)"/>
<path d="M30.482 847H25.106V837.41H26.66V845.614H30.482V847ZM36.5525 845.74L36.9445 845.698L36.9725 846.832C35.9085 847.047 34.9659 847.154 34.1445 847.154C33.1085 847.154 32.3619 846.869 31.9045 846.3C31.4565 845.731 31.2325 844.821 31.2325 843.57C31.2325 841.087 32.2452 839.846 34.2705 839.846C36.2305 839.846 37.2105 840.915 37.2105 843.052L37.1125 844.144H32.7725C32.7819 844.723 32.9079 845.147 33.1505 845.418C33.3932 845.689 33.8459 845.824 34.5085 845.824C35.1712 845.824 35.8525 845.796 36.5525 845.74ZM35.7125 842.968C35.7125 842.277 35.6005 841.797 35.3765 841.526C35.1619 841.246 34.7932 841.106 34.2705 841.106C33.7479 841.106 33.3652 841.251 33.1225 841.54C32.8892 841.829 32.7679 842.305 32.7585 842.968H35.7125ZM44.7959 847.952C44.7959 849.483 43.6899 850.248 41.4779 850.248C40.4139 850.248 39.6252 850.103 39.1119 849.814C38.5986 849.525 38.3419 848.997 38.3419 848.232C38.3419 847.887 38.4259 847.588 38.5939 847.336C38.7619 847.093 39.0326 846.827 39.4059 846.538C39.0979 846.333 38.9439 845.992 38.9439 845.516C38.9439 845.329 39.0699 845.026 39.3219 844.606L39.4479 844.396C38.7759 843.995 38.4399 843.295 38.4399 842.296C38.4399 841.456 38.6919 840.84 39.1959 840.448C39.6999 840.056 40.3812 839.86 41.2399 839.86C41.6506 839.86 42.0566 839.907 42.4579 840L42.6679 840.042L44.8379 839.986V841.218L43.6759 841.148C43.9279 841.475 44.0539 841.857 44.0539 842.296C44.0539 843.211 43.8206 843.845 43.3539 844.2C42.8966 844.545 42.1779 844.718 41.1979 844.718C40.9552 844.718 40.7499 844.699 40.5819 844.662C40.4512 844.979 40.3859 845.227 40.3859 845.404C40.3859 845.572 40.4699 845.689 40.6379 845.754C40.8152 845.819 41.2352 845.857 41.8979 845.866C43.0086 845.875 43.7692 846.025 44.1799 846.314C44.5906 846.603 44.7959 847.149 44.7959 847.952ZM39.8399 848.092C39.8399 848.419 39.9706 848.652 40.2319 848.792C40.4932 848.932 40.9412 849.002 41.5759 849.002C42.7052 849.002 43.2699 848.68 43.2699 848.036C43.2699 847.672 43.1672 847.439 42.9619 847.336C42.7659 847.243 42.3692 847.191 41.7719 847.182L40.3999 847.098C40.1946 847.266 40.0499 847.42 39.9659 847.56C39.8819 847.709 39.8399 847.887 39.8399 848.092ZM39.9519 842.296C39.9519 842.725 40.0546 843.043 40.2599 843.248C40.4652 843.444 40.7966 843.542 41.2539 843.542C41.7112 843.542 42.0379 843.444 42.2339 843.248C42.4392 843.043 42.5419 842.725 42.5419 842.296C42.5419 841.867 42.4392 841.554 42.2339 841.358C42.0286 841.153 41.6972 841.05 41.2399 841.05C40.3812 841.05 39.9519 841.465 39.9519 842.296ZM51.2134 842.156V845.348C51.2227 845.553 51.274 845.707 51.3674 845.81C51.47 845.903 51.624 845.964 51.8294 845.992L51.7874 847.154C50.9847 847.154 50.364 846.981 49.9254 846.636C49.1787 846.981 48.4274 847.154 47.6714 847.154C46.2807 847.154 45.5854 846.412 45.5854 844.928C45.5854 844.219 45.772 843.705 46.1454 843.388C46.528 843.071 47.1114 842.879 47.8954 842.814L49.7014 842.66V842.156C49.7014 841.783 49.6174 841.521 49.4494 841.372C49.2907 841.223 49.0527 841.148 48.7354 841.148C48.138 841.148 47.3914 841.185 46.4954 841.26L46.0474 841.288L45.9914 840.21C47.0087 839.967 47.942 839.846 48.7914 839.846C49.65 839.846 50.266 840.033 50.6394 840.406C51.022 840.77 51.2134 841.353 51.2134 842.156ZM48.0774 843.892C47.4334 843.948 47.1114 844.298 47.1114 844.942C47.1114 845.586 47.396 845.908 47.9654 845.908C48.432 845.908 48.9267 845.833 49.4494 845.684L49.7014 845.6V843.738L48.0774 843.892ZM53.2131 847V837.088H54.7391V847H53.2131ZM61.2723 847H59.7463V840H61.2583V840.434C61.9396 840.042 62.5836 839.846 63.1903 839.846C64.1236 839.846 64.7583 840.112 65.0943 840.644C65.4396 841.167 65.6123 842.035 65.6123 843.248V847H64.1003V843.29C64.1003 842.534 64.0163 841.997 63.8483 841.68C63.6896 841.363 63.3583 841.204 62.8543 841.204C62.3783 841.204 61.9209 841.297 61.4823 841.484L61.2723 841.568V847ZM67.7668 840.756C68.2522 840.149 69.0548 839.846 70.1748 839.846C71.2948 839.846 72.0928 840.149 72.5688 840.756C73.0542 841.363 73.2968 842.273 73.2968 843.486C73.2968 844.699 73.0635 845.614 72.5968 846.23C72.1302 846.846 71.3228 847.154 70.1748 847.154C69.0268 847.154 68.2195 846.846 67.7528 846.23C67.2862 845.614 67.0528 844.699 67.0528 843.486C67.0528 842.273 67.2908 841.363 67.7668 840.756ZM68.9148 845.306C69.1295 845.679 69.5495 845.866 70.1748 845.866C70.8002 845.866 71.2202 845.679 71.4348 845.306C71.6495 844.933 71.7568 844.321 71.7568 843.472C71.7568 842.623 71.6402 842.021 71.4068 841.666C71.1828 841.311 70.7722 841.134 70.1748 841.134C69.5775 841.134 69.1622 841.311 68.9288 841.666C68.7048 842.021 68.5928 842.623 68.5928 843.472C68.5928 844.321 68.7002 844.933 68.9148 845.306ZM78.5787 841.302H76.6467V844.382C76.6467 844.951 76.6887 845.329 76.7727 845.516C76.8567 845.703 77.0713 845.796 77.4167 845.796L78.5647 845.754L78.6347 846.972C78.0093 847.093 77.5333 847.154 77.2067 847.154C76.4133 847.154 75.8673 846.972 75.5687 846.608C75.2793 846.244 75.1347 845.558 75.1347 844.55V841.302H74.2387V840H75.1347V837.97H76.6467V840H78.5787V841.302ZM84.8143 845.74L85.2063 845.698L85.2343 846.832C84.1703 847.047 83.2276 847.154 82.4062 847.154C81.3703 847.154 80.6236 846.869 80.1663 846.3C79.7183 845.731 79.4943 844.821 79.4943 843.57C79.4943 841.087 80.5069 839.846 82.5323 839.846C84.4923 839.846 85.4723 840.915 85.4723 843.052L85.3743 844.144H81.0343C81.0436 844.723 81.1696 845.147 81.4123 845.418C81.6549 845.689 82.1076 845.824 82.7703 845.824C83.4329 845.824 84.1143 845.796 84.8143 845.74ZM83.9743 842.968C83.9743 842.277 83.8623 841.797 83.6383 841.526C83.4236 841.246 83.0549 841.106 82.5323 841.106C82.0096 841.106 81.6269 841.251 81.3843 841.54C81.1509 841.829 81.0296 842.305 81.0203 842.968H83.9743ZM91.7976 841.442C90.6963 841.293 89.8983 841.218 89.4036 841.218C88.909 841.218 88.5636 841.279 88.3676 841.4C88.181 841.512 88.0876 841.694 88.0876 841.946C88.0876 842.198 88.1903 842.375 88.3956 842.478C88.6103 842.581 89.105 842.702 89.8796 842.842C90.6636 842.973 91.219 843.183 91.5456 843.472C91.8723 843.761 92.0356 844.275 92.0356 845.012C92.0356 845.749 91.7976 846.291 91.3216 846.636C90.855 846.981 90.169 847.154 89.2636 847.154C88.6943 847.154 87.9756 847.075 87.1076 846.916L86.6736 846.846L86.7296 845.572C87.8496 845.721 88.657 845.796 89.1516 845.796C89.6463 845.796 89.9963 845.735 90.2016 845.614C90.4163 845.493 90.5236 845.292 90.5236 845.012C90.5236 844.732 90.421 844.541 90.2156 844.438C90.0196 844.326 89.539 844.209 88.7736 844.088C88.0176 843.957 87.4623 843.757 87.1076 843.486C86.753 843.215 86.5756 842.721 86.5756 842.002C86.5756 841.283 86.8183 840.747 87.3036 840.392C87.7983 840.037 88.4283 839.86 89.1936 839.86C89.791 839.86 90.5236 839.935 91.3916 840.084L91.8256 840.168L91.7976 841.442Z" fill="white"/>
<path d="M24 848.54H37.9394V848.96H24V848.54ZM45.1466 848.54H92.5816V848.96H45.1466V848.54Z" fill="white"/>
<path d="M121.62 844.018H119.66V847H118.106V837.41H121.62C123.795 837.41 124.882 838.483 124.882 840.63C124.882 841.731 124.607 842.571 124.056 843.15C123.515 843.729 122.703 844.018 121.62 844.018ZM119.66 842.674H121.606C122.726 842.674 123.286 841.993 123.286 840.63C123.286 839.977 123.151 839.501 122.88 839.202C122.609 838.903 122.185 838.754 121.606 838.754H119.66V842.674ZM126.195 847V840H127.707V840.84C128.501 840.327 129.294 839.995 130.087 839.846V841.372C129.285 841.531 128.599 841.736 128.029 841.988L127.721 842.114V847H126.195ZM131.254 847V840H132.78V847H131.254ZM131.254 838.81V837.2H132.78V838.81H131.254ZM133.973 840H135.569L136.913 845.698H137.361L138.761 840H140.315L138.495 847H135.779L133.973 840ZM146.592 842.156V845.348C146.602 845.553 146.653 845.707 146.746 845.81C146.849 845.903 147.003 845.964 147.208 845.992L147.166 847.154C146.364 847.154 145.743 846.981 145.304 846.636C144.558 846.981 143.806 847.154 143.05 847.154C141.66 847.154 140.964 846.412 140.964 844.928C140.964 844.219 141.151 843.705 141.524 843.388C141.907 843.071 142.49 842.879 143.274 842.814L145.08 842.66V842.156C145.08 841.783 144.996 841.521 144.828 841.372C144.67 841.223 144.432 841.148 144.114 841.148C143.517 841.148 142.77 841.185 141.874 841.26L141.426 841.288L141.37 840.21C142.388 839.967 143.321 839.846 144.17 839.846C145.029 839.846 145.645 840.033 146.018 840.406C146.401 840.77 146.592 841.353 146.592 842.156ZM143.456 843.892C142.812 843.948 142.49 844.298 142.49 844.942C142.49 845.586 142.775 845.908 143.344 845.908C143.811 845.908 144.306 845.833 144.828 845.684L145.08 845.6V843.738L143.456 843.892ZM151.126 839.846C151.621 839.846 152.204 839.911 152.876 840.042L153.226 840.112L153.17 841.316C152.433 841.241 151.887 841.204 151.532 841.204C150.823 841.204 150.347 841.363 150.104 841.68C149.861 841.997 149.74 842.595 149.74 843.472C149.74 844.349 149.857 844.956 150.09 845.292C150.323 845.628 150.809 845.796 151.546 845.796L153.184 845.684L153.226 846.902C152.283 847.07 151.574 847.154 151.098 847.154C150.034 847.154 149.283 846.869 148.844 846.3C148.415 845.721 148.2 844.779 148.2 843.472C148.2 842.165 148.429 841.237 148.886 840.686C149.343 840.126 150.09 839.846 151.126 839.846ZM154.057 840H155.555L157.039 845.698H157.417L158.901 840H160.413L157.753 850.01H156.255L157.095 847H155.891L154.057 840ZM168.364 844.018H166.404V847H164.85V837.41H168.364C170.539 837.41 171.626 838.483 171.626 840.63C171.626 841.731 171.351 842.571 170.8 843.15C170.259 843.729 169.447 844.018 168.364 844.018ZM166.404 842.674H168.35C169.47 842.674 170.03 841.993 170.03 840.63C170.03 839.977 169.895 839.501 169.624 839.202C169.353 838.903 168.929 838.754 168.35 838.754H166.404V842.674ZM173.318 840.756C173.803 840.149 174.606 839.846 175.726 839.846C176.846 839.846 177.644 840.149 178.12 840.756C178.605 841.363 178.848 842.273 178.848 843.486C178.848 844.699 178.614 845.614 178.148 846.23C177.681 846.846 176.874 847.154 175.726 847.154C174.578 847.154 173.77 846.846 173.304 846.23C172.837 845.614 172.604 844.699 172.604 843.486C172.604 842.273 172.842 841.363 173.318 840.756ZM174.466 845.306C174.68 845.679 175.1 845.866 175.726 845.866C176.351 845.866 176.771 845.679 176.986 845.306C177.2 844.933 177.308 844.321 177.308 843.472C177.308 842.623 177.191 842.021 176.958 841.666C176.734 841.311 176.323 841.134 175.726 841.134C175.128 841.134 174.713 841.311 174.48 841.666C174.256 842.021 174.144 842.623 174.144 843.472C174.144 844.321 174.251 844.933 174.466 845.306ZM180.447 847V837.088H181.973V847H180.447ZM183.904 847V840H185.43V847H183.904ZM183.904 838.81V837.2H185.43V838.81H183.904ZM189.899 839.846C190.394 839.846 190.977 839.911 191.649 840.042L191.999 840.112L191.943 841.316C191.206 841.241 190.66 841.204 190.305 841.204C189.596 841.204 189.12 841.363 188.877 841.68C188.635 841.997 188.513 842.595 188.513 843.472C188.513 844.349 188.63 844.956 188.863 845.292C189.097 845.628 189.582 845.796 190.319 845.796L191.957 845.684L191.999 846.902C191.057 847.07 190.347 847.154 189.871 847.154C188.807 847.154 188.056 846.869 187.617 846.3C187.188 845.721 186.973 844.779 186.973 843.472C186.973 842.165 187.202 841.237 187.659 840.686C188.117 840.126 188.863 839.846 189.899 839.846ZM192.831 840H194.329L195.813 845.698H196.191L197.675 840H199.187L196.527 850.01H195.029L195.869 847H194.665L192.831 840Z" fill="white"/>
<path d="M117 848.54H199.439V848.96H117V848.54Z" fill="white"/>
<path d="M224.28 847L226.646 837.41H229.74L232.12 847H230.552L230.034 844.942H226.352L225.834 847H224.28ZM227.85 838.712L226.66 843.57H229.726L228.55 838.712H227.85ZM235.855 839.846C236.349 839.846 236.933 839.911 237.605 840.042L237.955 840.112L237.899 841.316C237.161 841.241 236.615 841.204 236.261 841.204C235.551 841.204 235.075 841.363 234.833 841.68C234.59 841.997 234.469 842.595 234.469 843.472C234.469 844.349 234.585 844.956 234.819 845.292C235.052 845.628 235.537 845.796 236.275 845.796L237.913 845.684L237.955 846.902C237.012 847.07 236.303 847.154 235.827 847.154C234.763 847.154 234.011 846.869 233.573 846.3C233.143 845.721 232.929 844.779 232.929 843.472C232.929 842.165 233.157 841.237 233.615 840.686C234.072 840.126 234.819 839.846 235.855 839.846ZM241.98 839.846C242.474 839.846 243.058 839.911 243.73 840.042L244.08 840.112L244.024 841.316C243.286 841.241 242.74 841.204 242.386 841.204C241.676 841.204 241.2 841.363 240.958 841.68C240.715 841.997 240.594 842.595 240.594 843.472C240.594 844.349 240.71 844.956 240.944 845.292C241.177 845.628 241.662 845.796 242.4 845.796L244.038 845.684L244.08 846.902C243.137 847.07 242.428 847.154 241.952 847.154C240.888 847.154 240.136 846.869 239.698 846.3C239.268 845.721 239.054 844.779 239.054 843.472C239.054 842.165 239.282 841.237 239.74 840.686C240.197 840.126 240.944 839.846 241.98 839.846ZM250.471 845.74L250.863 845.698L250.891 846.832C249.827 847.047 248.884 847.154 248.062 847.154C247.027 847.154 246.28 846.869 245.823 846.3C245.375 845.731 245.151 844.821 245.151 843.57C245.151 841.087 246.163 839.846 248.189 839.846C250.149 839.846 251.129 840.915 251.129 843.052L251.031 844.144H246.691C246.7 844.723 246.826 845.147 247.069 845.418C247.311 845.689 247.764 845.824 248.427 845.824C249.089 845.824 249.771 845.796 250.471 845.74ZM249.631 842.968C249.631 842.277 249.519 841.797 249.295 841.526C249.08 841.246 248.711 841.106 248.189 841.106C247.666 841.106 247.283 841.251 247.041 841.54C246.807 841.829 246.686 842.305 246.677 842.968H249.631ZM257.454 841.442C256.353 841.293 255.555 841.218 255.06 841.218C254.565 841.218 254.22 841.279 254.024 841.4C253.837 841.512 253.744 841.694 253.744 841.946C253.744 842.198 253.847 842.375 254.052 842.478C254.267 842.581 254.761 842.702 255.536 842.842C256.32 842.973 256.875 843.183 257.202 843.472C257.529 843.761 257.692 844.275 257.692 845.012C257.692 845.749 257.454 846.291 256.978 846.636C256.511 846.981 255.825 847.154 254.92 847.154C254.351 847.154 253.632 847.075 252.764 846.916L252.33 846.846L252.386 845.572C253.506 845.721 254.313 845.796 254.808 845.796C255.303 845.796 255.653 845.735 255.858 845.614C256.073 845.493 256.18 845.292 256.18 845.012C256.18 844.732 256.077 844.541 255.872 844.438C255.676 844.326 255.195 844.209 254.43 844.088C253.674 843.957 253.119 843.757 252.764 843.486C252.409 843.215 252.232 842.721 252.232 842.002C252.232 841.283 252.475 840.747 252.96 840.392C253.455 840.037 254.085 839.86 254.85 839.86C255.447 839.86 256.18 839.935 257.048 840.084L257.482 840.168L257.454 841.442ZM264.016 841.442C262.915 841.293 262.117 841.218 261.622 841.218C261.128 841.218 260.782 841.279 260.586 841.4C260.4 841.512 260.306 841.694 260.306 841.946C260.306 842.198 260.409 842.375 260.614 842.478C260.829 842.581 261.324 842.702 262.098 842.842C262.882 842.973 263.438 843.183 263.764 843.472C264.091 843.761 264.254 844.275 264.254 845.012C264.254 845.749 264.016 846.291 263.54 846.636C263.074 846.981 262.388 847.154 261.482 847.154C260.913 847.154 260.194 847.075 259.326 846.916L258.892 846.846L258.948 845.572C260.068 845.721 260.876 845.796 261.37 845.796C261.865 845.796 262.215 845.735 262.42 845.614C262.635 845.493 262.742 845.292 262.742 845.012C262.742 844.732 262.64 844.541 262.434 844.438C262.238 844.326 261.758 844.209 260.992 844.088C260.236 843.957 259.681 843.757 259.326 843.486C258.972 843.215 258.794 842.721 258.794 842.002C258.794 841.283 259.037 840.747 259.522 840.392C260.017 840.037 260.647 839.86 261.412 839.86C262.01 839.86 262.742 839.935 263.61 840.084L264.044 840.168L264.016 841.442ZM265.721 847V840H267.247V847H265.721ZM265.721 838.81V837.2H267.247V838.81H265.721ZM272.36 839.846C273.321 839.846 274.012 840.117 274.432 840.658C274.861 841.19 275.076 842.137 275.076 843.5C275.076 844.863 274.824 845.815 274.32 846.356C273.816 846.888 272.929 847.154 271.66 847.154C271.221 847.154 270.526 847.112 269.574 847.028L269.098 846.986V837.088H270.61V840.266C271.254 839.986 271.837 839.846 272.36 839.846ZM271.66 845.796C272.406 845.796 272.901 845.623 273.144 845.278C273.396 844.923 273.522 844.326 273.522 843.486C273.522 842.646 273.414 842.058 273.2 841.722C272.994 841.377 272.654 841.204 272.178 841.204C271.73 841.204 271.282 841.274 270.834 841.414L270.61 841.484V845.74C271.123 845.777 271.473 845.796 271.66 845.796ZM276.604 847V840H278.13V847H276.604ZM276.604 838.81V837.2H278.13V838.81H276.604ZM280.065 847V837.088H281.591V847H280.065ZM283.522 847V840H285.048V847H283.522ZM283.522 838.81V837.2H285.048V838.81H283.522ZM290.665 841.302H288.733V844.382C288.733 844.951 288.775 845.329 288.859 845.516C288.943 845.703 289.157 845.796 289.503 845.796L290.651 845.754L290.721 846.972C290.095 847.093 289.619 847.154 289.293 847.154C288.499 847.154 287.953 846.972 287.655 846.608C287.365 846.244 287.221 845.558 287.221 844.55V841.302H286.325V840H287.221V837.97H288.733V840H290.665V841.302ZM291.272 840H292.77L294.254 845.698H294.632L296.116 840H297.628L294.968 850.01H293.47L294.31 847H293.106L291.272 840ZM306.741 841.442C305.64 841.293 304.842 841.218 304.347 841.218C303.852 841.218 303.507 841.279 303.311 841.4C303.124 841.512 303.031 841.694 303.031 841.946C303.031 842.198 303.134 842.375 303.339 842.478C303.554 842.581 304.048 842.702 304.823 842.842C305.607 842.973 306.162 843.183 306.489 843.472C306.816 843.761 306.979 844.275 306.979 845.012C306.979 845.749 306.741 846.291 306.265 846.636C305.798 846.981 305.112 847.154 304.207 847.154C303.638 847.154 302.919 847.075 302.051 846.916L301.617 846.846L301.673 845.572C302.793 845.721 303.6 845.796 304.095 845.796C304.59 845.796 304.94 845.735 305.145 845.614C305.36 845.493 305.467 845.292 305.467 845.012C305.467 844.732 305.364 844.541 305.159 844.438C304.963 844.326 304.482 844.209 303.717 844.088C302.961 843.957 302.406 843.757 302.051 843.486C301.696 843.215 301.519 842.721 301.519 842.002C301.519 841.283 301.762 840.747 302.247 840.392C302.742 840.037 303.372 839.86 304.137 839.86C304.734 839.86 305.467 839.935 306.335 840.084L306.769 840.168L306.741 841.442ZM312.211 841.302H310.279V844.382C310.279 844.951 310.321 845.329 310.405 845.516C310.489 845.703 310.704 845.796 311.049 845.796L312.197 845.754L312.267 846.972C311.642 847.093 311.166 847.154 310.839 847.154C310.046 847.154 309.5 846.972 309.201 846.608C308.912 846.244 308.767 845.558 308.767 844.55V841.302H307.871V840H308.767V837.97H310.279V840H312.211V841.302ZM318.643 842.156V845.348C318.652 845.553 318.704 845.707 318.797 845.81C318.9 845.903 319.054 845.964 319.259 845.992L319.217 847.154C318.414 847.154 317.794 846.981 317.355 846.636C316.608 846.981 315.857 847.154 315.101 847.154C313.71 847.154 313.015 846.412 313.015 844.928C313.015 844.219 313.202 843.705 313.575 843.388C313.958 843.071 314.541 842.879 315.325 842.814L317.131 842.66V842.156C317.131 841.783 317.047 841.521 316.879 841.372C316.72 841.223 316.482 841.148 316.165 841.148C315.568 841.148 314.821 841.185 313.925 841.26L313.477 841.288L313.421 840.21C314.438 839.967 315.372 839.846 316.221 839.846C317.08 839.846 317.696 840.033 318.069 840.406C318.452 840.77 318.643 841.353 318.643 842.156ZM315.507 843.892C314.863 843.948 314.541 844.298 314.541 844.942C314.541 845.586 314.826 845.908 315.395 845.908C315.862 845.908 316.356 845.833 316.879 845.684L317.131 845.6V843.738L315.507 843.892ZM324.325 841.302H322.393V844.382C322.393 844.951 322.435 845.329 322.519 845.516C322.603 845.703 322.817 845.796 323.163 845.796L324.311 845.754L324.381 846.972C323.755 847.093 323.279 847.154 322.953 847.154C322.159 847.154 321.613 846.972 321.315 846.608C321.025 846.244 320.881 845.558 320.881 844.55V841.302H319.985V840H320.881V837.97H322.393V840H324.325V841.302ZM330.56 845.74L330.952 845.698L330.98 846.832C329.916 847.047 328.974 847.154 328.152 847.154C327.116 847.154 326.37 846.869 325.912 846.3C325.464 845.731 325.24 844.821 325.24 843.57C325.24 841.087 326.253 839.846 328.278 839.846C330.238 839.846 331.218 840.915 331.218 843.052L331.12 844.144H326.78C326.79 844.723 326.916 845.147 327.158 845.418C327.401 845.689 327.854 845.824 328.516 845.824C329.179 845.824 329.86 845.796 330.56 845.74ZM329.72 842.968C329.72 842.277 329.608 841.797 329.384 841.526C329.17 841.246 328.801 841.106 328.278 841.106C327.756 841.106 327.373 841.251 327.13 841.54C326.897 841.829 326.776 842.305 326.766 842.968H329.72ZM334.212 847H332.686V840H334.198V840.434C334.86 840.042 335.467 839.846 336.018 839.846C336.83 839.846 337.422 840.075 337.796 840.532C338.645 840.075 339.49 839.846 340.33 839.846C341.17 839.846 341.762 840.107 342.108 840.63C342.453 841.143 342.626 842.016 342.626 843.248V847H341.114V843.29C341.114 842.534 341.034 841.997 340.876 841.68C340.726 841.363 340.409 841.204 339.924 841.204C339.504 841.204 339.051 841.297 338.566 841.484L338.328 841.582C338.402 841.769 338.44 842.366 338.44 843.374V847H336.928V843.402C336.928 842.571 336.853 841.997 336.704 841.68C336.554 841.363 336.228 841.204 335.724 841.204C335.257 841.204 334.823 841.297 334.422 841.484L334.212 841.568V847ZM349.4 845.74L349.792 845.698L349.82 846.832C348.756 847.047 347.814 847.154 346.992 847.154C345.956 847.154 345.21 846.869 344.752 846.3C344.304 845.731 344.08 844.821 344.08 843.57C344.08 841.087 345.093 839.846 347.118 839.846C349.078 839.846 350.058 840.915 350.058 843.052L349.96 844.144H345.62C345.63 844.723 345.756 845.147 345.998 845.418C346.241 845.689 346.694 845.824 347.356 845.824C348.019 845.824 348.7 845.796 349.4 845.74ZM348.56 842.968C348.56 842.277 348.448 841.797 348.224 841.526C348.01 841.246 347.641 841.106 347.118 841.106C346.596 841.106 346.213 841.251 345.97 841.54C345.737 841.829 345.616 842.305 345.606 842.968H348.56ZM353.052 847H351.526V840H353.038V840.434C353.719 840.042 354.363 839.846 354.97 839.846C355.903 839.846 356.538 840.112 356.874 840.644C357.219 841.167 357.392 842.035 357.392 843.248V847H355.88V843.29C355.88 842.534 355.796 841.997 355.628 841.68C355.469 841.363 355.138 841.204 354.634 841.204C354.158 841.204 353.7 841.297 353.262 841.484L353.052 841.568V847ZM362.934 841.302H361.002V844.382C361.002 844.951 361.044 845.329 361.128 845.516C361.212 845.703 361.427 845.796 361.772 845.796L362.92 845.754L362.99 846.972C362.365 847.093 361.889 847.154 361.562 847.154C360.769 847.154 360.223 846.972 359.924 846.608C359.635 846.244 359.49 845.558 359.49 844.55V841.302H358.594V840H359.49V837.97H361.002V840H362.934V841.302Z" fill="white"/>
<path d="M224 848.54H293.346V848.96H224V848.54ZM295.779 848.54H363.256V848.96H295.779V848.54Z" fill="white"/>
<defs>
<filter id="filter0_d_4177_47321" x="255" y="280" width="472" height="136" filterUnits="userSpaceOnUse" color-interpolation-filters="sRGB">
<feFlood flood-opacity="0" result="BackgroundImageFix"/>
<feColorMatrix in="SourceAlpha" type="matrix" values="0 0 0 0 0 0 0 0 0 0 0 0 0 0 0 0 0 0 127 0" result="hardAlpha"/>
<feOffset dy="8"/>
<feGaussianBlur stdDeviation="8"/>
<feColorMatrix type="matrix" values="0 0 0 0 0 0 0 0 0 0 0 0 0 0 0 0 0 0 0.15 0"/>
<feBlend mode="normal" in2="BackgroundImageFix" result="effect1_dropShadow_4177_47321"/>
<feBlend mode="normal" in="SourceGraphic" in2="effect1_dropShadow_4177_47321" result="shape"/>
</filter>
<filter id="filter1_d_4177_47321" x="711" y="280" width="472" height="136" filterUnits="userSpaceOnUse" color-interpolation-filters="sRGB">
<feFlood flood-opacity="0" result="BackgroundImageFix"/>
<feColorMatrix in="SourceAlpha" type="matrix" values="0 0 0 0 0 0 0 0 0 0 0 0 0 0 0 0 0 0 127 0" result="hardAlpha"/>
<feOffset dy="8"/>
<feGaussianBlur stdDeviation="8"/>
<feColorMatrix type="matrix" values="0 0 0 0 0 0 0 0 0 0 0 0 0 0 0 0 0 0 0.15 0"/>
<feBlend mode="normal" in2="BackgroundImageFix" result="effect1_dropShadow_4177_47321"/>
<feBlend mode="normal" in="SourceGraphic" in2="effect1_dropShadow_4177_47321" result="shape"/>
</filter>
<clipPath id="clip0_4177_47321">
<rect width="47" height="24" fill="white" transform="translate(1321 12)"/>
</clipPath>
<clipPath id="clip1_4177_47321">
<rect x="271" y="288" width="440" height="104" rx="4" fill="white"/>
</clipPath>
<clipPath id="clip2_4177_47321">
<rect x="727" y="288" width="440" height="104" rx="4" fill="white"/>
</clipPath>
</defs>
</svg>
