<svg xmlns="http://www.w3.org/2000/svg" xmlns:xlink="http://www.w3.org/1999/xlink" contentStyleType="text/css" data-diagram-type="DESCRIPTION" height="257px" preserveAspectRatio="none" style="width:670px;height:257px;" version="1.1" viewBox="0 0 670 257" width="670px" zoomAndPan="magnify"><defs/><g><!--cluster leafsContainer--><g class="cluster" data-entity="leafsContainer" data-source-line="14" data-uid="ent0007" id="cluster_leafsContainer"><rect fill="#E8F2D6" height="87" rx="2.5" ry="2.5" style="stroke:#181818;stroke-width:1;" width="482" x="94.5" y="164"/><text fill="#000000" font-family="sans-serif" font-size="14" font-weight="bold" lengthAdjust="spacing" textLength="54.8174" x="308.0913" y="178.9951">Leaves</text></g><!--entity ci--><g class="entity" data-entity="ci" data-source-line="15" data-uid="ent0008" id="entity_ci"><rect fill="#D6E8F2" height="36.2969" rx="2.5" ry="2.5" style="stroke:#181818;stroke-width:0.5;" width="138.7744" x="259" y="199"/><text fill="#000000" font-family="sans-serif" font-size="14" lengthAdjust="spacing" textLength="72.3652" x="269" y="221.9951">Credential</text><text fill="#000000" font-family="sans-serif" font-size="14" lengthAdjust="spacing" textLength="4.4502" x="341.3652" y="221.9951">&#160;</text><text fill="#000000" font-family="sans-serif" font-size="14" lengthAdjust="spacing" textLength="41.959" x="345.8154" y="221.9951">Issuer</text></g><!--entity wp--><g class="entity" data-entity="wp" data-source-line="16" data-uid="ent0009" id="entity_wp"><rect fill="#D6E8F2" height="36.2969" rx="2.5" ry="2.5" style="stroke:#181818;stroke-width:0.5;" width="126.9482" x="433" y="199"/><text fill="#000000" font-family="sans-serif" font-size="14" lengthAdjust="spacing" textLength="44.3037" x="443" y="221.9951">Wallet</text><text fill="#000000" font-family="sans-serif" font-size="14" lengthAdjust="spacing" textLength="4.4502" x="487.3037" y="221.9951">&#160;</text><text fill="#000000" font-family="sans-serif" font-size="14" lengthAdjust="spacing" textLength="58.1943" x="491.7539" y="221.9951">Provider</text></g><!--entity rp--><g class="entity" data-entity="rp" data-source-line="17" data-uid="ent0010" id="entity_rp"><rect fill="#D6E8F2" height="36.2969" rx="2.5" ry="2.5" style="stroke:#181818;stroke-width:0.5;" width="113.167" x="111" y="199"/><text fill="#000000" font-family="sans-serif" font-size="14" lengthAdjust="spacing" textLength="52.165" x="121" y="221.9951">Relying</text><text fill="#000000" font-family="sans-serif" font-size="14" lengthAdjust="spacing" textLength="4.4502" x="173.165" y="221.9951">&#160;</text><text fill="#000000" font-family="sans-serif" font-size="14" lengthAdjust="spacing" textLength="36.5518" x="177.6152" y="221.9951">Party</text></g><!--entity ta--><g class="entity" data-entity="ta" data-source-line="6" data-uid="ent0002" id="entity_ta"><rect fill="#D6E8F2" height="36.2969" rx="2.5" ry="2.5" style="stroke:#181818;stroke-width:0.5;" width="109.7559" x="273.5" y="7"/><text fill="#000000" font-family="sans-serif" font-size="14" lengthAdjust="spacing" textLength="35.9639" x="283.5" y="29.9951">Trust</text><text fill="#000000" font-family="sans-serif" font-size="14" lengthAdjust="spacing" textLength="4.4502" x="319.4639" y="29.9951">&#160;</text><text fill="#000000" font-family="sans-serif" font-size="14" lengthAdjust="spacing" textLength="49.3418" x="323.9141" y="29.9951">Anchor</text></g><!--entity int1--><g class="entity" data-entity="int1" data-source-line="8" data-uid="ent0003" id="entity_int1"><rect fill="#D6E8F2" height="36.2969" rx="2.5" ry="2.5" style="stroke:#181818;stroke-width:0.5;" width="110.5693" x="441" y="103"/><text fill="#000000" font-family="sans-serif" font-size="14" lengthAdjust="spacing" textLength="90.5693" x="451" y="125.9951">Intermediate</text></g><!--entity int2--><g class="entity" data-entity="int2" data-source-line="9" data-uid="ent0004" id="entity_int2"><rect fill="#D6E8F2" height="36.2969" rx="2.5" ry="2.5" style="stroke:#181818;stroke-width:0.5;" width="110.5693" x="112" y="103"/><text fill="#000000" font-family="sans-serif" font-size="14" lengthAdjust="spacing" textLength="90.5693" x="122" y="125.9951">Intermediate</text></g><!--entity leafs1--><g class="entity" data-entity="leafs1" data-source-line="11" data-uid="ent0005" id="entity_leafs1"><rect fill="#E8F2D6" height="36.2969" rx="2.5" ry="2.5" style="stroke:#181818;stroke-width:0.5;" width="69.1846" x="595" y="199"/><text fill="#000000" font-family="sans-serif" font-size="14" lengthAdjust="spacing" textLength="49.1846" x="605" y="221.9951">Leaves</text></g><!--entity leafs2--><g class="entity" data-entity="leafs2" data-source-line="12" data-uid="ent0006" id="entity_leafs2"><rect fill="#E8F2D6" height="36.2969" rx="2.5" ry="2.5" style="stroke:#181818;stroke-width:0.5;" width="69.1846" x="7" y="199"/><text fill="#000000" font-family="sans-serif" font-size="14" lengthAdjust="spacing" textLength="49.1846" x="17" y="221.9951">Leaves</text></g><!--reverse link ta to ci--><g class="link" data-entity-1="ta" data-entity-2="ci" data-source-line="20" data-uid="lnk12" id="link_ta_ci"><path d="M328.5,49.2 C328.5,85.37 328.5,162.96 328.5,198.98" fill="none" id="ta-backto-ci" style="stroke:#000000;stroke-width:1;"/><polygon fill="#000000" points="328.5,43.2,324.5,52.2,328.5,48.2,332.5,52.2,328.5,43.2" style="stroke:#000000;stroke-width:1;"/></g><!--reverse link int1 to wp--><g class="link" data-entity-1="int1" data-entity-2="wp" data-source-line="21" data-uid="lnk14" id="link_int1_wp"><path d="M496.5,145.24 C496.5,162.2 496.5,181.95 496.5,198.87" fill="none" id="int1-backto-wp" style="stroke:#000000;stroke-width:1;"/><polygon fill="#000000" points="496.5,139.24,492.5,148.24,496.5,144.24,500.5,148.24,496.5,139.24" style="stroke:#000000;stroke-width:1;"/></g><!--reverse link int2 to rp--><g class="link" data-entity-1="int2" data-entity-2="rp" data-source-line="22" data-uid="lnk16" id="link_int2_rp"><path d="M167.5,145.24 C167.5,162.2 167.5,181.95 167.5,198.87" fill="none" id="int2-backto-rp" style="stroke:#000000;stroke-width:1;"/><polygon fill="#000000" points="167.5,139.24,163.5,148.24,167.5,144.24,171.5,148.24,167.5,139.24" style="stroke:#000000;stroke-width:1;"/></g><!--reverse link int1 to leafs1--><g class="link" data-entity-1="int1" data-entity-2="leafs1" data-source-line="23" data-uid="lnk18" id="link_int1_leafs1"><path d="M551.6283,141.477 C562.1283,146.167 567.32,149.38 576.5,156 C592.96,167.87 607.88,185.71 617.67,198.86" fill="none" id="int1-backto-leafs1" style="stroke:#000000;stroke-width:1;"/><polygon fill="#000000" points="546.15,139.03,552.7362,146.3527,550.7153,141.0692,555.9988,139.0483,546.15,139.03" style="stroke:#000000;stroke-width:1;"/></g><!--reverse link int2 to leafs2--><g class="link" data-entity-1="int2" data-entity-2="leafs2" data-source-line="24" data-uid="lnk20" id="link_int2_leafs2"><path d="M117.5865,141.7782 C107.7665,146.5182 103.12,149.56 94.5,156 C78.35,168.06 63.5,185.71 53.65,198.74" fill="none" id="int2-backto-leafs2" style="stroke:#000000;stroke-width:1;"/><polygon fill="#000000" points="122.99,139.17,113.146,139.48,118.4871,141.3435,116.6236,146.6846,122.99,139.17" style="stroke:#000000;stroke-width:1;"/></g><!--reverse link ta to int1--><g class="link" data-entity-1="ta" data-entity-2="int1" data-source-line="25" data-uid="lnk22" id="link_ta_int1"><path d="M364.1559,45.9501 C394.5159,62.9401 435.65,85.95 466.02,102.95" fill="none" id="ta-backto-int1" style="stroke:#000000;stroke-width:1;"/><polygon fill="#000000" points="358.92,43.02,364.8204,50.9057,363.2832,45.4617,368.7272,43.9246,358.92,43.02" style="stroke:#000000;stroke-width:1;"/></g><!--reverse link ta to int2--><g class="link" data-entity-1="ta" data-entity-2="int2" data-source-line="26" data-uid="lnk24" id="link_ta_int2"><path d="M294.1594,46.0468 C265.0794,63.0368 225.82,85.95 196.71,102.95" fill="none" id="ta-backto-int2" style="stroke:#000000;stroke-width:1;"/><polygon fill="#000000" points="299.34,43.02,289.5512,44.1064,295.0228,45.5423,293.5869,51.0139,299.34,43.02" style="stroke:#000000;stroke-width:1;"/></g><!--SRC=[XT5HIyCm40VmztoASpuFiOpXWmn6fp3mOOZWezpQiuPbbtAvRWpnkvkrNUnWpBU4-zqb-UV6Sk6Qak0ndzpbau_Siw9bafanOMEvHi4jhB7OLE8RBdFll80ASeWbOXsekOZVTs3jOeSnGeKYLuvWz2PDK9XpyULb11X04MuNqwU7v-pCBLb9jbHQL6gTPRrFyX-ONHpvGhYZq1f7-1dYkADPJA-XBA5hAiLrql1j00ODkL0PKxBeO1b2GztR2vikUgRVqJbIM8dVsRAt-_goVILti5p12aKFhPG_-MDCF6FSrEDP3Dh46Ttw6AQHmIupVII3Ul_-WMd_84rhWpxjVW40]--></g></svg>