<svg width="360" height="733" viewBox="0 0 360 733" fill="none" xmlns="http://www.w3.org/2000/svg">
<g clip-path="url(#clip0_4177_47327)">
<rect width="360" height="733" fill="white"/>
<rect width="360" height="48" fill="#004D99"/>
<path d="M13.904 24.198C13.904 25.6167 14.0907 26.6387 14.464 27.264C14.8373 27.88 15.556 28.188 16.62 28.188C17.6933 28.188 18.412 27.8847 18.776 27.278C19.1493 26.6713 19.336 25.654 19.336 24.226C19.336 22.798 19.1447 21.7573 18.762 21.104C18.3793 20.4507 17.6607 20.124 16.606 20.124C15.5607 20.124 14.8467 20.4507 14.464 21.104C14.0907 21.748 13.904 22.7793 13.904 24.198ZM20.456 24.226C20.456 25.9527 20.1807 27.2033 19.63 27.978C19.0793 28.7527 18.076 29.14 16.62 29.14C15.1733 29.14 14.1747 28.7433 13.624 27.95C13.0733 27.1567 12.798 25.9107 12.798 24.212C12.798 22.504 13.078 21.2393 13.638 20.418C14.198 19.5873 15.192 19.172 16.62 19.172C18.048 19.172 19.042 19.5827 19.602 20.404C20.1713 21.2253 20.456 22.4993 20.456 24.226ZM22.2502 29V22H23.2862V22.952C24.0982 22.392 24.9522 22.0233 25.8482 21.846V22.91C25.4562 22.9847 25.0455 23.1013 24.6162 23.26C24.1962 23.4187 23.8742 23.5587 23.6502 23.68L23.3002 23.862V29H22.2502ZM29.6963 32.29C28.5763 32.29 27.7923 32.136 27.3443 31.828C26.9057 31.5293 26.6863 30.9787 26.6863 30.176C26.6863 29.7933 26.7703 29.4807 26.9383 29.238C27.1063 29.0047 27.391 28.7387 27.7923 28.44C27.531 28.2627 27.4003 27.9407 27.4003 27.474C27.4003 27.3153 27.517 27.0213 27.7503 26.592L27.8763 26.368C27.139 26.032 26.7703 25.3273 26.7703 24.254C26.7703 22.658 27.643 21.86 29.3883 21.86C29.8363 21.86 30.2517 21.9067 30.6343 22L30.8443 22.042L32.9163 21.986V22.882L31.5863 22.854C31.8943 23.162 32.0483 23.6287 32.0483 24.254C32.0483 25.1313 31.829 25.7473 31.3903 26.102C30.961 26.4473 30.2797 26.62 29.3463 26.62C29.0943 26.62 28.8657 26.6013 28.6603 26.564C28.4923 26.9747 28.4083 27.2407 28.4083 27.362C28.4083 27.6513 28.497 27.8333 28.6743 27.908C28.8517 27.9733 29.3883 28.006 30.2843 28.006C31.1803 28.006 31.8243 28.146 32.2163 28.426C32.6083 28.706 32.8043 29.252 32.8043 30.064C32.8043 31.548 31.7683 32.29 29.6963 32.29ZM27.7223 30.092C27.7223 30.5867 27.8577 30.9273 28.1283 31.114C28.4083 31.31 28.917 31.408 29.6543 31.408C30.401 31.408 30.933 31.3053 31.2503 31.1C31.577 30.8947 31.7403 30.5493 31.7403 30.064C31.7403 29.588 31.6237 29.28 31.3903 29.14C31.157 29 30.6997 28.93 30.0183 28.93L28.5063 28.86C28.1983 29.084 27.9883 29.28 27.8763 29.448C27.7737 29.616 27.7223 29.8307 27.7223 30.092ZM27.8203 24.254C27.8203 24.8047 27.9417 25.1967 28.1843 25.43C28.4363 25.6633 28.847 25.78 29.4163 25.78C29.9857 25.78 30.3917 25.6633 30.6343 25.43C30.877 25.1967 30.9983 24.8047 30.9983 24.254C30.9983 23.694 30.877 23.2973 30.6343 23.064C30.3917 22.8307 29.9857 22.714 29.4163 22.714C28.847 22.714 28.4363 22.8353 28.1843 23.078C27.9417 23.3113 27.8203 23.7033 27.8203 24.254ZM39.1277 24.114V27.698C39.1557 28.0433 39.4264 28.2487 39.9397 28.314L39.8977 29.14C39.1604 29.14 38.6051 28.9533 38.2317 28.58C37.3917 28.9533 36.5517 29.14 35.7117 29.14C35.0677 29.14 34.5777 28.958 34.2417 28.594C33.9057 28.23 33.7377 27.7073 33.7377 27.026C33.7377 26.3447 33.9104 25.8453 34.2557 25.528C34.6011 25.2013 35.1424 25.0007 35.8797 24.926L38.0777 24.716V24.114C38.0777 23.638 37.9751 23.2973 37.7697 23.092C37.5644 22.8867 37.2844 22.784 36.9297 22.784C36.1831 22.784 35.4084 22.8307 34.6057 22.924L34.1717 22.966L34.1297 22.168C35.1564 21.9627 36.0664 21.86 36.8597 21.86C37.6531 21.86 38.2271 22.042 38.5817 22.406C38.9457 22.77 39.1277 23.3393 39.1277 24.114ZM34.8157 26.97C34.8157 27.8287 35.1704 28.258 35.8797 28.258C36.5144 28.258 37.1397 28.1507 37.7557 27.936L38.0777 27.824V25.514L36.0057 25.71C35.5857 25.7473 35.2824 25.8687 35.0957 26.074C34.9091 26.2793 34.8157 26.578 34.8157 26.97ZM42.2494 29H41.1994V22H42.2354V22.49C42.9914 22.07 43.7147 21.86 44.4054 21.86C45.3387 21.86 45.9641 22.112 46.2814 22.616C46.6081 23.12 46.7714 24.016 46.7714 25.304V29H45.7354V25.332C45.7354 24.3613 45.6374 23.6987 45.4414 23.344C45.2547 22.98 44.8487 22.798 44.2234 22.798C43.9247 22.798 43.6074 22.8447 43.2714 22.938C42.9447 23.022 42.6927 23.106 42.5154 23.19L42.2494 23.316V29ZM48.7189 29V22H49.7689V29H48.7189ZM48.7189 20.418V19.2H49.7689V20.418H48.7189ZM51.3614 22.938V22H56.5554V22.938L52.6354 28.062H56.5554V29H51.3614V28.062L55.2814 22.938H51.3614ZM63.0945 24.114V27.698C63.1225 28.0433 63.3932 28.2487 63.9065 28.314L63.8645 29.14C63.1272 29.14 62.5719 28.9533 62.1985 28.58C61.3585 28.9533 60.5185 29.14 59.6785 29.14C59.0345 29.14 58.5445 28.958 58.2085 28.594C57.8725 28.23 57.7045 27.7073 57.7045 27.026C57.7045 26.3447 57.8772 25.8453 58.2225 25.528C58.5679 25.2013 59.1092 25.0007 59.8465 24.926L62.0445 24.716V24.114C62.0445 23.638 61.9419 23.2973 61.7365 23.092C61.5312 22.8867 61.2512 22.784 60.8965 22.784C60.1499 22.784 59.3752 22.8307 58.5725 22.924L58.1385 22.966L58.0965 22.168C59.1232 21.9627 60.0332 21.86 60.8265 21.86C61.6199 21.86 62.1939 22.042 62.5485 22.406C62.9125 22.77 63.0945 23.3393 63.0945 24.114ZM58.7825 26.97C58.7825 27.8287 59.1372 28.258 59.8465 28.258C60.4812 28.258 61.1065 28.1507 61.7225 27.936L62.0445 27.824V25.514L59.9725 25.71C59.5525 25.7473 59.2492 25.8687 59.0625 26.074C58.8759 26.2793 58.7825 26.578 58.7825 26.97ZM68.7922 22.91H66.5662V26.256C66.5662 27.0587 66.6222 27.586 66.7342 27.838C66.8555 28.09 67.1355 28.216 67.5742 28.216L68.8202 28.132L68.8902 29C68.2649 29.1027 67.7889 29.154 67.4622 29.154C66.7342 29.154 66.2302 28.9767 65.9502 28.622C65.6702 28.2673 65.5302 27.5907 65.5302 26.592V22.91H64.5362V22H65.5302V19.858H66.5662V22H68.7922V22.91ZM70.0744 29V22H71.1244V29H70.0744ZM70.0744 20.418V19.2H71.1244V20.418H70.0744ZM72.8289 25.486C72.8289 24.2073 73.0576 23.2833 73.5149 22.714C73.9722 22.1447 74.7422 21.86 75.8249 21.86C76.9169 21.86 77.6869 22.1447 78.1349 22.714C78.5922 23.2833 78.8209 24.2073 78.8209 25.486C78.8209 26.7647 78.6062 27.6933 78.1769 28.272C77.7476 28.8507 76.9636 29.14 75.8249 29.14C74.6862 29.14 73.9022 28.8507 73.4729 28.272C73.0436 27.6933 72.8289 26.7647 72.8289 25.486ZM73.9069 25.472C73.9069 26.4893 74.0282 27.2033 74.2709 27.614C74.5229 28.0247 75.0409 28.23 75.8249 28.23C76.6182 28.23 77.1362 28.0293 77.3789 27.628C77.6216 27.2173 77.7429 26.4987 77.7429 25.472C77.7429 24.4453 77.6076 23.7407 77.3369 23.358C77.0662 22.966 76.5622 22.77 75.8249 22.77C75.0969 22.77 74.5929 22.966 74.3129 23.358C74.0422 23.7407 73.9069 24.4453 73.9069 25.472ZM81.5834 29H80.5334V22H81.5694V22.49C82.3254 22.07 83.0487 21.86 83.7394 21.86C84.6727 21.86 85.2981 22.112 85.6154 22.616C85.9421 23.12 86.1054 24.016 86.1054 25.304V29H85.0694V25.332C85.0694 24.3613 84.9714 23.6987 84.7754 23.344C84.5887 22.98 84.1827 22.798 83.5574 22.798C83.2587 22.798 82.9414 22.8447 82.6054 22.938C82.2787 23.022 82.0267 23.106 81.8494 23.19L81.5834 23.316V29ZM92.1791 29H91.1291V22H92.1651V22.49C92.9211 22.07 93.6444 21.86 94.3351 21.86C95.2684 21.86 95.8938 22.112 96.2111 22.616C96.5378 23.12 96.7011 24.016 96.7011 25.304V29H95.6651V25.332C95.6651 24.3613 95.5671 23.6987 95.3711 23.344C95.1844 22.98 94.7784 22.798 94.1531 22.798C93.8544 22.798 93.5371 22.8447 93.2011 22.938C92.8744 23.022 92.6224 23.106 92.4451 23.19L92.1791 23.316V29ZM103.591 24.114V27.698C103.619 28.0433 103.889 28.2487 104.403 28.314L104.361 29.14C103.623 29.14 103.068 28.9533 102.695 28.58C101.855 28.9533 101.015 29.14 100.175 29.14C99.5306 29.14 99.0406 28.958 98.7046 28.594C98.3686 28.23 98.2006 27.7073 98.2006 27.026C98.2006 26.3447 98.3733 25.8453 98.7186 25.528C99.064 25.2013 99.6053 25.0007 100.343 24.926L102.541 24.716V24.114C102.541 23.638 102.438 23.2973 102.233 23.092C102.027 22.8867 101.747 22.784 101.393 22.784C100.646 22.784 99.8713 22.8307 99.0686 22.924L98.6346 22.966L98.5926 22.168C99.6193 21.9627 100.529 21.86 101.323 21.86C102.116 21.86 102.69 22.042 103.045 22.406C103.409 22.77 103.591 23.3393 103.591 24.114ZM99.2786 26.97C99.2786 27.8287 99.6333 28.258 100.343 28.258C100.977 28.258 101.603 28.1507 102.219 27.936L102.541 27.824V25.514L100.469 25.71C100.049 25.7473 99.7453 25.8687 99.5586 26.074C99.372 26.2793 99.2786 26.578 99.2786 26.97ZM106.712 29H105.662V22H106.698V22.49C107.398 22.07 108.08 21.86 108.742 21.86C109.61 21.86 110.217 22.098 110.562 22.574C110.87 22.3873 111.267 22.224 111.752 22.084C112.247 21.9347 112.681 21.86 113.054 21.86C113.988 21.86 114.613 22.112 114.93 22.616C115.257 23.1107 115.42 24.0067 115.42 25.304V29H114.37V25.332C114.37 24.3613 114.277 23.6987 114.09 23.344C113.904 22.98 113.507 22.798 112.9 22.798C112.592 22.798 112.275 22.8447 111.948 22.938C111.622 23.022 111.37 23.106 111.192 23.19L110.926 23.316C111.048 23.624 111.108 24.3053 111.108 25.36V29H110.058V25.388C110.058 24.38 109.965 23.6987 109.778 23.344C109.601 22.98 109.204 22.798 108.588 22.798C108.29 22.798 107.982 22.8447 107.664 22.938C107.356 23.022 107.118 23.106 106.95 23.19L106.712 23.316V29ZM122.125 28.132L122.531 28.09L122.559 28.916C121.495 29.0653 120.585 29.14 119.829 29.14C118.821 29.14 118.107 28.8507 117.687 28.272C117.267 27.684 117.057 26.774 117.057 25.542C117.057 23.0873 118.033 21.86 119.983 21.86C120.926 21.86 121.631 22.126 122.097 22.658C122.564 23.1807 122.797 24.0067 122.797 25.136L122.741 25.934H118.121C118.121 26.7087 118.261 27.2827 118.541 27.656C118.821 28.0293 119.307 28.216 119.997 28.216C120.697 28.216 121.407 28.188 122.125 28.132ZM121.747 25.094C121.747 24.2353 121.607 23.6287 121.327 23.274C121.057 22.9193 120.609 22.742 119.983 22.742C119.367 22.742 118.901 22.9287 118.583 23.302C118.275 23.6753 118.117 24.2727 118.107 25.094H121.747Z" fill="white"/>
<g clip-path="url(#clip1_4177_47327)">
<path d="M302.106 29V19.41H308.154V20.768H303.66V23.484H307.314V24.828H303.66V27.628H308.154V29H302.106ZM309.844 29V19.41H312.56L315.472 27.628H315.682V19.41H317.236V29H314.576L311.594 20.768H311.398V29H309.844ZM323.348 25.332V23.96H326.078V28.832C325.826 28.8973 325.313 28.9673 324.538 29.042C323.773 29.1167 323.217 29.154 322.872 29.154C321.416 29.154 320.413 28.7527 319.862 27.95C319.311 27.1473 319.036 25.892 319.036 24.184C319.036 22.4667 319.316 21.216 319.876 20.432C320.445 19.648 321.425 19.256 322.816 19.256C323.637 19.256 324.561 19.3493 325.588 19.536L326.078 19.634L326.022 20.866C324.893 20.7167 323.88 20.642 322.984 20.642C322.088 20.642 321.472 20.894 321.136 21.398C320.809 21.902 320.646 22.8353 320.646 24.198C320.646 25.5607 320.8 26.5033 321.108 27.026C321.425 27.5393 322.06 27.796 323.012 27.796C323.693 27.796 324.202 27.754 324.538 27.67V25.332H323.348Z" fill="white"/>
<path d="M343 27.2L337.4 21.6L338.1 20.8L343 25.7L347.9 20.8L348.6 21.6L343 27.2Z" fill="white"/>
</g>
<rect width="360" height="72" transform="translate(0 48)" fill="#F2F7FC"/>
<rect x="12.5" y="69" width="106" height="30" fill="#F2F7FC"/>
<rect x="12.5" y="69" width="106" height="30" stroke="#C5C7C9"/>
<line x1="13.1976" y1="69.3958" x2="117.9" y2="99.0189" stroke="#C5C7C9"/>
<path d="M27.5978 92.4399H25.8058V87.9279L22.3658 81.4799H24.3658L26.6858 86.1839L29.0218 81.4799H31.0058L27.5978 87.9279V92.4399ZM33.7823 90.1199C34.1449 90.7493 34.8383 91.0639 35.8623 91.0639C36.8863 91.0639 37.5743 90.7546 37.9263 90.1359C38.2889 89.5173 38.4703 88.4826 38.4703 87.0319C38.4703 85.5706 38.2836 84.5093 37.9103 83.8479C37.5476 83.1866 36.8649 82.8559 35.8623 82.8559C34.8596 82.8559 34.1716 83.1866 33.7983 83.8479C33.4249 84.5093 33.2383 85.5653 33.2383 87.0159C33.2383 88.4559 33.4196 89.4906 33.7823 90.1199ZM39.3183 91.2719C38.6676 92.1679 37.5156 92.6159 35.8623 92.6159C34.2089 92.6159 33.0516 92.1679 32.3903 91.2719C31.7289 90.3653 31.3983 88.9466 31.3983 87.0159C31.3983 85.0853 31.7289 83.6506 32.3903 82.7119C33.0623 81.7733 34.2196 81.3039 35.8623 81.3039C37.5049 81.3039 38.6569 81.7733 39.3183 82.7119C39.9796 83.6399 40.3103 85.0746 40.3103 87.0159C40.3103 88.9573 39.9796 90.3759 39.3183 91.2719ZM44.0743 88.9359C44.0743 90.3546 44.8209 91.0639 46.3143 91.0639C47.8076 91.0639 48.5543 90.3546 48.5543 88.9359V81.4799H50.3463V88.9039C50.3463 90.1946 50.0049 91.1386 49.3223 91.7359C48.6503 92.3226 47.6423 92.6159 46.2983 92.6159C44.9649 92.6159 43.9623 92.3226 43.2903 91.7359C42.6183 91.1386 42.2823 90.1946 42.2823 88.9039V81.4799H44.0743V88.9359ZM54.5605 88.5359V92.4399H52.7845V81.4799H56.9445C59.4192 81.4799 60.6565 82.6426 60.6565 84.9679C60.6565 86.5253 60.0592 87.5813 58.8645 88.1359L60.6725 92.4399H58.7205L57.1365 88.5359H54.5605ZM58.8325 84.9839C58.8325 83.6719 58.2032 83.0159 56.9445 83.0159H54.5605V86.9999H56.9765C57.6165 86.9999 58.0858 86.8186 58.3845 86.4559C58.6832 86.0826 58.8325 85.5919 58.8325 84.9839ZM72.3348 92.4399H66.1908V81.4799H67.9668V90.8559H72.3348V92.4399ZM75.501 90.1199C75.8637 90.7493 76.557 91.0639 77.581 91.0639C78.605 91.0639 79.293 90.7546 79.645 90.1359C80.0077 89.5173 80.189 88.4826 80.189 87.0319C80.189 85.5706 80.0023 84.5093 79.629 83.8479C79.2663 83.1866 78.5837 82.8559 77.581 82.8559C76.5783 82.8559 75.8903 83.1866 75.517 83.8479C75.1437 84.5093 74.957 85.5653 74.957 87.0159C74.957 88.4559 75.1383 89.4906 75.501 90.1199ZM81.037 91.2719C80.3863 92.1679 79.2343 92.6159 77.581 92.6159C75.9277 92.6159 74.7703 92.1679 74.109 91.2719C73.4477 90.3653 73.117 88.9466 73.117 87.0159C73.117 85.0853 73.4477 83.6506 74.109 82.7119C74.781 81.7733 75.9383 81.3039 77.581 81.3039C79.2237 81.3039 80.3757 81.7733 81.037 82.7119C81.6983 83.6399 82.029 85.0746 82.029 87.0159C82.029 88.9573 81.6983 90.3759 81.037 91.2719ZM88.561 88.2479V86.6799H91.681V92.2479C91.393 92.3226 90.8063 92.4026 89.921 92.4879C89.0463 92.5733 88.4117 92.6159 88.017 92.6159C86.353 92.6159 85.2063 92.1573 84.577 91.2399C83.9477 90.3226 83.633 88.8879 83.633 86.9359C83.633 84.9733 83.953 83.5439 84.593 82.6479C85.2437 81.7519 86.3637 81.3039 87.953 81.3039C88.8917 81.3039 89.9477 81.4106 91.121 81.6239L91.681 81.7359L91.617 83.1439C90.3263 82.9733 89.169 82.8879 88.145 82.8879C87.121 82.8879 86.417 83.1759 86.033 83.7519C85.6597 84.3279 85.473 85.3946 85.473 86.9519C85.473 88.5093 85.649 89.5866 86.001 90.1839C86.3637 90.7706 87.089 91.0639 88.177 91.0639C88.9557 91.0639 89.537 91.0159 89.921 90.9199V88.2479H88.561ZM95.8135 90.1199C96.1762 90.7493 96.8695 91.0639 97.8935 91.0639C98.9175 91.0639 99.6055 90.7546 99.9575 90.1359C100.32 89.5173 100.502 88.4826 100.502 87.0319C100.502 85.5706 100.315 84.5093 99.9415 83.8479C99.5788 83.1866 98.8962 82.8559 97.8935 82.8559C96.8908 82.8559 96.2028 83.1866 95.8295 83.8479C95.4562 84.5093 95.2695 85.5653 95.2695 87.0159C95.2695 88.4559 95.4508 89.4906 95.8135 90.1199ZM101.35 91.2719C100.699 92.1679 99.5468 92.6159 97.8935 92.6159C96.2402 92.6159 95.0828 92.1679 94.4215 91.2719C93.7602 90.3653 93.4295 88.9466 93.4295 87.0159C93.4295 85.0853 93.7602 83.6506 94.4215 82.7119C95.0935 81.7733 96.2508 81.3039 97.8935 81.3039C99.5362 81.3039 100.688 81.7733 101.35 82.7119C102.011 83.6399 102.342 85.0746 102.342 87.0159C102.342 88.9573 102.011 90.3759 101.35 91.2719Z" fill="black"/>
<path d="M131 68.5V99.5" stroke="#C5C7C9" stroke-linejoin="round"/>
<path d="M152.021 72.0004C152.171 71.9995 152.325 72.0362 152.471 72.1185L162.059 77.4965C162.752 77.8855 163.076 78.5134 163.076 79.2338L163.07 94.4164C163.07 94.9454 162.638 95.3257 162.164 95.3295C162.014 95.3304 161.859 95.2935 161.713 95.2113L155.695 91.8353V82.2416C155.695 81.5214 155.372 80.8905 154.678 80.5043L151.461 78.7143V95.0873C151.461 95.6164 151.028 95.9967 150.554 96.0004C150.404 96.0012 150.249 95.9645 150.103 95.8822L144.018 92.4603C143.324 92.0714 143 91.4432 143 90.723L143.015 74.7553C143.016 74.2263 143.447 73.8468 143.921 73.8432C144.071 73.8422 144.226 73.8789 144.372 73.9613L151.141 77.7572L151.114 72.9125C151.112 72.3836 151.546 72.0042 152.021 72.0004ZM221.471 79.8734C224.828 79.8734 226.77 81.5635 226.771 84.4369V88.1488C226.771 88.6236 226.978 88.8538 227.326 88.8539H227.774L227.773 88.8559C227.943 88.8561 228.07 88.9865 228.07 89.1566V91.5434C228.07 91.7136 227.95 91.8422 227.779 91.8422H225.66C224.736 91.8422 223.977 91.5083 223.534 90.9838C222.532 91.7654 221.258 92.1605 219.898 92.1605C217.338 92.1605 215.822 90.7584 215.822 88.351C215.822 86.0743 217.178 84.9176 220.167 84.7162L223.014 84.5238V84.0551C223.013 83.0831 222.339 82.5443 221.226 82.5443C220.451 82.5444 219.945 82.8068 219.707 83.2562C219.603 83.4521 219.502 83.5199 219.323 83.5199H216.145C215.965 83.5199 215.846 83.416 215.844 83.2641C215.842 83.1689 215.887 83.0255 215.967 82.8373C216.727 81.0431 218.704 79.8736 221.471 79.8734ZM247.068 79.8734C250.632 79.8734 252.772 82.0451 252.772 85.4623V86.5912C252.772 86.7613 252.645 86.8908 252.475 86.891H244.856C244.955 88.2989 245.579 89.4457 247.189 89.4457C247.946 89.4457 248.55 89.1917 248.859 88.7084C248.977 88.5247 249.085 88.4712 249.188 88.4711H252.239C252.481 88.4712 252.562 88.6169 252.563 88.7787C252.564 88.8711 252.538 88.9695 252.476 89.1312C251.744 91.0362 249.944 92.1605 247.265 92.1605C243.46 92.1605 241.22 89.8594 241.22 86.0092C241.22 82.1592 243.415 79.8739 247.068 79.8734ZM215.734 75.8402V75.8412C215.926 75.8414 216.081 76.0209 216.048 76.2094L213.351 91.5902C213.325 91.7384 213.197 91.8429 213.047 91.8432H208.459C208.314 91.8431 208.193 91.7438 208.162 91.6019L205.711 80.3588H205.489L203.039 91.6019C203.008 91.7438 202.884 91.8432 202.739 91.8432H198.151C198.002 91.8432 197.876 91.7376 197.851 91.5902L195.152 76.2094C195.119 76.0208 195.274 75.8412 195.465 75.8412H198.494C198.645 75.8414 198.774 75.9567 198.799 76.1049L200.616 86.9799H200.815L203.139 76.0922C203.17 75.9494 203.302 75.8412 203.447 75.8412H207.903C208.05 75.8412 208.169 75.9494 208.199 76.0922L210.477 87.0014H210.674L212.517 76.1059C212.541 75.9568 212.662 75.8405 212.812 75.8402H215.734ZM174.738 75.8393C174.908 75.8393 175.036 75.9649 175.036 76.1351V91.5434C175.036 91.7136 174.908 91.8422 174.737 91.8422H171.347C171.176 91.8422 171.047 91.7136 171.047 91.5434L171.041 76.1361C171.041 75.9659 171.176 75.8402 171.347 75.8402H174.738V75.8393ZM188.804 75.8393C188.975 75.8393 189.103 75.9903 189.104 76.1605V78.8051H189.103C189.103 78.9763 188.974 79.1254 188.804 79.1254H184.58V91.5424C184.58 91.7126 184.43 91.8411 184.26 91.8412H180.91C180.74 91.8412 180.591 91.7105 180.591 91.5404V79.1254H176.365C176.195 79.1254 176.067 78.9744 176.067 78.8041V76.1586C176.068 75.9884 176.197 75.8393 176.367 75.8393H188.804ZM232.475 75.8402C232.646 75.8402 232.774 75.9688 232.774 76.1391V88.0883C232.775 88.564 233.047 88.8537 233.522 88.8539H234.246C234.416 88.8539 234.565 88.9805 234.565 89.1508V91.5443C234.565 91.7146 234.431 91.8412 234.261 91.8412H232.606C230.112 91.8421 228.912 90.7383 228.912 88.4711V76.1391C228.912 75.9689 229.04 75.8404 229.21 75.8402H232.475ZM238.877 75.8402C239.047 75.8402 239.185 75.9688 239.185 76.1391V88.0883C239.185 88.5641 239.449 88.8539 239.925 88.8539H240.648C240.819 88.8539 240.977 88.9885 240.978 89.1586V91.5443C240.978 91.7146 240.833 91.8412 240.663 91.8412H239.009C236.515 91.842 235.315 90.7382 235.314 88.4711V76.1391C235.314 75.9688 235.443 75.8402 235.613 75.8402H238.877ZM258.156 77.0131C258.327 77.0131 258.456 77.1416 258.456 77.3119V80.1928H260.418C260.589 80.1928 260.738 80.3204 260.738 80.4906V82.8803C260.738 83.0513 260.609 83.1781 260.438 83.1781H258.456V88.0873C258.456 88.5632 258.726 88.8529 259.202 88.8529H260.44C260.611 88.853 260.738 89.0032 260.738 89.1732V91.5424C260.738 91.7124 260.61 91.8402 260.439 91.8402H258.756C255.995 91.8402 254.615 90.4807 254.615 87.7875V83.1781H253.25C253.079 83.1781 252.951 83.0495 252.951 82.8793V80.4906C252.951 80.3205 253.1 80.1918 253.271 80.1918H254.614V77.3168C254.614 77.1466 254.761 77.0131 254.932 77.0131H258.156ZM220.983 87.0238C219.886 87.1062 219.489 87.5001 219.489 88.1928C219.489 88.9699 219.987 89.4456 221.005 89.4457C221.633 89.4457 222.315 89.266 223.016 88.8119H223.017V86.8715L220.983 87.0238ZM194.137 83.8197H194.138C194.308 83.8197 194.437 83.9483 194.438 84.1185V86.6361C194.437 86.8062 194.307 86.9347 194.137 86.935H188C187.829 86.9349 187.695 86.8073 187.694 86.6371V84.1156C187.694 83.9446 187.822 83.8178 187.992 83.8178L194.137 83.8197ZM247.067 82.3168C245.751 82.3169 244.879 83.1257 244.871 84.4447H249.182C249.201 83.1155 248.384 82.3168 247.067 82.3168Z" fill="#0066CC"/>
<rect width="360" height="132" transform="translate(0 120)" fill="white"/>
<path d="M32.9996 147.5H17.4996L22.7996 142.1L22.0996 141.4L15.5996 148L22.0996 154.6L22.7996 153.9L17.4996 148.5H32.9996V147.5Z" fill="#0066CC"/>
<path d="M101.65 157.692C99.6711 158.121 97.8884 158.336 96.3018 158.336C94.7151 158.336 93.4458 158.14 92.4938 157.748C91.5418 157.356 90.7951 156.731 90.2538 155.872C89.7124 155.013 89.3391 154.005 89.1338 152.848C88.9284 151.691 88.8258 150.235 88.8258 148.48C88.8258 144.803 89.3391 142.245 90.3658 140.808C91.4111 139.352 93.3244 138.624 96.1058 138.624C97.7111 138.624 99.5684 138.876 101.678 139.38L101.566 142.46C99.7178 142.18 98.1778 142.04 96.9458 142.04C95.7324 142.04 94.8644 142.208 94.3418 142.544C93.8191 142.861 93.4271 143.477 93.1658 144.392C92.9231 145.307 92.8018 146.865 92.8018 149.068C92.8018 151.271 93.0538 152.801 93.5578 153.66C94.0804 154.5 95.1071 154.92 96.6378 154.92C98.1871 154.92 99.8298 154.789 101.566 154.528L101.65 157.692ZM108.201 158H104.449V138.4H108.201V144.672C109.489 144 110.646 143.664 111.673 143.664C113.54 143.664 114.828 144.215 115.537 145.316C116.246 146.417 116.601 148.116 116.601 150.412V158H112.849V150.496C112.849 149.32 112.709 148.452 112.429 147.892C112.149 147.313 111.589 147.024 110.749 147.024C110.021 147.024 109.293 147.136 108.565 147.36L108.201 147.472V158ZM120.681 145.596C121.671 144.308 123.323 143.664 125.637 143.664C127.952 143.664 129.604 144.308 130.593 145.596C131.583 146.865 132.077 148.657 132.077 150.972C132.077 155.881 129.931 158.336 125.637 158.336C121.344 158.336 119.197 155.881 119.197 150.972C119.197 148.657 119.692 146.865 120.681 145.596ZM123.565 154.136C123.957 154.808 124.648 155.144 125.637 155.144C126.627 155.144 127.308 154.808 127.681 154.136C128.073 153.464 128.269 152.409 128.269 150.972C128.269 149.535 128.073 148.489 127.681 147.836C127.308 147.183 126.627 146.856 125.637 146.856C124.648 146.856 123.957 147.183 123.565 147.836C123.192 148.489 123.005 149.535 123.005 150.972C123.005 152.409 123.192 153.464 123.565 154.136ZM135.584 145.596C136.573 144.308 138.225 143.664 140.54 143.664C142.854 143.664 144.506 144.308 145.496 145.596C146.485 146.865 146.98 148.657 146.98 150.972C146.98 155.881 144.833 158.336 140.54 158.336C136.246 158.336 134.1 155.881 134.1 150.972C134.1 148.657 134.594 146.865 135.584 145.596ZM138.468 154.136C138.86 154.808 139.55 155.144 140.54 155.144C141.529 155.144 142.21 154.808 142.584 154.136C142.976 153.464 143.172 152.409 143.172 150.972C143.172 149.535 142.976 148.489 142.584 147.836C142.21 147.183 141.529 146.856 140.54 146.856C139.55 146.856 138.86 147.183 138.468 147.836C138.094 148.489 137.908 149.535 137.908 150.972C137.908 152.409 138.094 153.464 138.468 154.136ZM159.782 147.5C157.467 147.201 155.843 147.052 154.91 147.052C153.995 147.052 153.398 147.136 153.118 147.304C152.857 147.472 152.726 147.743 152.726 148.116C152.726 148.471 152.903 148.723 153.258 148.872C153.631 149.003 154.565 149.208 156.058 149.488C157.57 149.749 158.643 150.188 159.278 150.804C159.913 151.42 160.23 152.419 160.23 153.8C160.23 156.824 158.354 158.336 154.602 158.336C153.37 158.336 151.877 158.168 150.122 157.832L149.226 157.664L149.338 154.528C151.653 154.827 153.258 154.976 154.154 154.976C155.069 154.976 155.685 154.892 156.002 154.724C156.338 154.537 156.506 154.267 156.506 153.912C156.506 153.557 156.329 153.296 155.974 153.128C155.638 152.96 154.742 152.755 153.286 152.512C151.849 152.269 150.775 151.859 150.066 151.28C149.357 150.701 149.002 149.675 149.002 148.2C149.002 146.707 149.506 145.587 150.514 144.84C151.522 144.075 152.819 143.692 154.406 143.692C155.507 143.692 157.01 143.869 158.914 144.224L159.838 144.392L159.782 147.5ZM166.017 152.596C166.036 153.455 166.26 154.08 166.689 154.472C167.137 154.845 167.772 155.032 168.593 155.032C170.329 155.032 171.879 154.976 173.241 154.864L174.025 154.78L174.081 157.552C171.935 158.075 169.993 158.336 168.257 158.336C166.148 158.336 164.617 157.776 163.665 156.656C162.713 155.536 162.237 153.716 162.237 151.196C162.237 146.175 164.3 143.664 168.425 143.664C172.495 143.664 174.529 145.773 174.529 149.992L174.249 152.596H166.017ZM170.833 149.74C170.833 148.62 170.656 147.845 170.301 147.416C169.947 146.968 169.321 146.744 168.425 146.744C167.548 146.744 166.923 146.977 166.549 147.444C166.195 147.892 166.008 148.657 165.989 149.74H170.833ZM191.119 147.192H187.675V152.932C187.675 153.492 187.684 153.893 187.703 154.136C187.74 154.36 187.843 154.556 188.011 154.724C188.198 154.892 188.478 154.976 188.851 154.976L190.979 154.92L191.147 157.916C189.896 158.196 188.944 158.336 188.291 158.336C186.611 158.336 185.463 157.963 184.847 157.216C184.231 156.451 183.923 155.051 183.923 153.016V147.192H182.271V144H183.923V140.108H187.675V144H191.119V147.192ZM197.314 158H193.562V138.4H197.314V144.672C198.602 144 199.76 143.664 200.786 143.664C202.653 143.664 203.941 144.215 204.65 145.316C205.36 146.417 205.714 148.116 205.714 150.412V158H201.962V150.496C201.962 149.32 201.822 148.452 201.542 147.892C201.262 147.313 200.702 147.024 199.862 147.024C199.134 147.024 198.406 147.136 197.678 147.36L197.314 147.472V158ZM212.119 152.596C212.137 153.455 212.361 154.08 212.791 154.472C213.239 154.845 213.873 155.032 214.695 155.032C216.431 155.032 217.98 154.976 219.343 154.864L220.127 154.78L220.183 157.552C218.036 158.075 216.095 158.336 214.359 158.336C212.249 158.336 210.719 157.776 209.767 156.656C208.815 155.536 208.339 153.716 208.339 151.196C208.339 146.175 210.401 143.664 214.527 143.664C218.596 143.664 220.631 145.773 220.631 149.992L220.351 152.596H212.119ZM216.935 149.74C216.935 148.62 216.757 147.845 216.403 147.416C216.048 146.968 215.423 146.744 214.527 146.744C213.649 146.744 213.024 146.977 212.651 147.444C212.296 147.892 212.109 148.657 212.091 149.74H216.935ZM240.189 148.368V154.192C240.226 154.64 240.301 154.957 240.413 155.144C240.525 155.312 240.758 155.433 241.113 155.508L241.001 158.336C240.049 158.336 239.283 158.271 238.705 158.14C238.145 158.009 237.575 157.748 236.997 157.356C235.653 158.009 234.281 158.336 232.881 158.336C229.987 158.336 228.541 156.805 228.541 153.744C228.541 152.251 228.942 151.196 229.745 150.58C230.547 149.945 231.779 149.572 233.441 149.46L236.437 149.236V148.368C236.437 147.789 236.306 147.397 236.045 147.192C235.783 146.968 235.363 146.856 234.785 146.856L229.521 147.08L229.409 144.476C231.406 143.935 233.301 143.664 235.093 143.664C236.903 143.664 238.201 144.037 238.985 144.784C239.787 145.531 240.189 146.725 240.189 148.368ZM233.889 152.064C232.843 152.157 232.321 152.717 232.321 153.744C232.321 154.771 232.778 155.284 233.693 155.284C234.402 155.284 235.177 155.172 236.017 154.948L236.437 154.836V151.84L233.889 152.064ZM243.765 163.88V144H247.489V144.756C248.703 144.028 249.767 143.664 250.681 143.664C252.567 143.664 253.957 144.233 254.853 145.372C255.749 146.492 256.197 148.405 256.197 151.112C256.197 153.819 255.703 155.704 254.713 156.768C253.724 157.813 252.1 158.336 249.841 158.336C249.225 158.336 248.563 158.28 247.853 158.168L247.517 158.112V163.88H243.765ZM249.953 147.024C249.263 147.024 248.563 147.164 247.853 147.444L247.517 147.584V154.92C248.357 155.032 249.039 155.088 249.561 155.088C250.644 155.088 251.381 154.771 251.773 154.136C252.184 153.501 252.389 152.419 252.389 150.888C252.389 148.312 251.577 147.024 249.953 147.024ZM258.996 163.88V144H262.72V144.756C263.933 144.028 264.997 143.664 265.912 143.664C267.797 143.664 269.188 144.233 270.084 145.372C270.98 146.492 271.428 148.405 271.428 151.112C271.428 153.819 270.933 155.704 269.944 156.768C268.954 157.813 267.33 158.336 265.072 158.336C264.456 158.336 263.793 158.28 263.084 158.168L262.748 158.112V163.88H258.996ZM265.184 147.024C264.493 147.024 263.793 147.164 263.084 147.444L262.748 147.584V154.92C263.588 155.032 264.269 155.088 264.792 155.088C265.874 155.088 266.612 154.771 267.004 154.136C267.414 153.501 267.62 152.419 267.62 150.888C267.62 148.312 266.808 147.024 265.184 147.024Z" fill="#17324D"/>
<path d="M35.7934 186.3C33.7934 186.3 32.7934 187.053 32.7934 188.56C32.7934 189.4 33.0201 189.98 33.4734 190.3C33.9401 190.607 34.8734 190.92 36.2734 191.24C37.6868 191.547 38.6868 191.953 39.2734 192.46C39.8601 192.953 40.1534 193.773 40.1534 194.92C40.1534 197.76 38.6801 199.18 35.7334 199.18C34.7601 199.18 33.5401 199.067 32.0734 198.84L31.3534 198.74L31.5134 197.46C33.3268 197.7 34.7068 197.82 35.6534 197.82C37.6268 197.82 38.6134 196.893 38.6134 195.04C38.6134 194.293 38.3934 193.76 37.9534 193.44C37.5268 193.107 36.7201 192.827 35.5334 192.6C33.9734 192.267 32.8668 191.84 32.2134 191.32C31.5601 190.787 31.2334 189.9 31.2334 188.66C31.2334 186.18 32.7201 184.94 35.6934 184.94C36.6668 184.94 37.8334 185.04 39.1934 185.24L39.8734 185.34L39.7334 186.64C37.8801 186.413 36.5668 186.3 35.7934 186.3ZM49.3533 197.76L49.9333 197.7L49.9733 198.88C48.4533 199.093 47.1533 199.2 46.0733 199.2C44.6333 199.2 43.6133 198.787 43.0133 197.96C42.4133 197.12 42.1133 195.82 42.1133 194.06C42.1133 190.553 43.5066 188.8 46.2933 188.8C47.6399 188.8 48.6466 189.18 49.3133 189.94C49.9799 190.687 50.3133 191.867 50.3133 193.48L50.2333 194.62H43.6333C43.6333 195.727 43.8333 196.547 44.2333 197.08C44.6333 197.613 45.3266 197.88 46.3133 197.88C47.3133 197.88 48.3266 197.84 49.3533 197.76ZM48.8133 193.42C48.8133 192.193 48.6133 191.327 48.2133 190.82C47.8266 190.313 47.1866 190.06 46.2933 190.06C45.4133 190.06 44.7466 190.327 44.2933 190.86C43.8533 191.393 43.6266 192.247 43.6133 193.42H48.8133ZM52.7709 199V184.64H54.2709V199H52.7709ZM64.0798 197.76L64.6598 197.7L64.6998 198.88C63.1798 199.093 61.8798 199.2 60.7998 199.2C59.3598 199.2 58.3398 198.787 57.7398 197.96C57.1398 197.12 56.8398 195.82 56.8398 194.06C56.8398 190.553 58.2332 188.8 61.0198 188.8C62.3665 188.8 63.3732 189.18 64.0398 189.94C64.7065 190.687 65.0398 191.867 65.0398 193.48L64.9598 194.62H58.3598C58.3598 195.727 58.5598 196.547 58.9598 197.08C59.3598 197.613 60.0532 197.88 61.0398 197.88C62.0398 197.88 63.0532 197.84 64.0798 197.76ZM63.5398 193.42C63.5398 192.193 63.3398 191.327 62.9398 190.82C62.5532 190.313 61.9132 190.06 61.0198 190.06C60.1398 190.06 59.4732 190.327 59.0198 190.86C58.5798 191.393 58.3532 192.247 58.3398 193.42H63.5398ZM71.1175 188.8C71.5575 188.8 72.3042 188.88 73.3575 189.04L73.8375 189.1L73.7775 190.32C72.7108 190.2 71.9242 190.14 71.4175 190.14C70.2842 190.14 69.5108 190.413 69.0975 190.96C68.6975 191.493 68.4975 192.493 68.4975 193.96C68.4975 195.413 68.6842 196.427 69.0575 197C69.4442 197.573 70.2375 197.86 71.4375 197.86L73.7975 197.68L73.8575 198.92C72.6175 199.107 71.6908 199.2 71.0775 199.2C69.5175 199.2 68.4375 198.8 67.8375 198C67.2508 197.2 66.9575 195.853 66.9575 193.96C66.9575 192.053 67.2775 190.72 67.9175 189.96C68.5575 189.187 69.6242 188.8 71.1175 188.8ZM81.2684 190.3H78.0884V195.08C78.0884 196.227 78.1684 196.98 78.3284 197.34C78.5018 197.7 78.9018 197.88 79.5284 197.88L81.3084 197.76L81.4084 199C80.5151 199.147 79.8351 199.22 79.3684 199.22C78.3284 199.22 77.6084 198.967 77.2084 198.46C76.8084 197.953 76.6084 196.987 76.6084 195.56V190.3H75.1884V189H76.6084V185.94H78.0884V189H81.2684V190.3ZM92.6747 190.3H89.4947V195.08C89.4947 196.227 89.5747 196.98 89.7347 197.34C89.908 197.7 90.308 197.88 90.9347 197.88L92.7147 197.76L92.8147 199C91.9214 199.147 91.2414 199.22 90.7747 199.22C89.7347 199.22 89.0147 198.967 88.6147 198.46C88.2147 197.953 88.0147 196.987 88.0147 195.56V190.3H86.5947V189H88.0147V185.94H89.4947V189H92.6747V190.3ZM96.0064 199H94.5064V184.64H96.0064V189.56C97.0731 189.053 98.0997 188.8 99.0864 188.8C100.42 188.8 101.313 189.16 101.766 189.88C102.233 190.6 102.466 191.88 102.466 193.72V199H100.966V193.76C100.966 192.373 100.826 191.427 100.546 190.92C100.28 190.4 99.7064 190.14 98.8264 190.14C97.9864 190.14 97.1731 190.293 96.3864 190.6L96.0064 190.74V199ZM112.049 197.76L112.629 197.7L112.669 198.88C111.149 199.093 109.849 199.2 108.769 199.2C107.329 199.2 106.309 198.787 105.709 197.96C105.109 197.12 104.809 195.82 104.809 194.06C104.809 190.553 106.202 188.8 108.989 188.8C110.335 188.8 111.342 189.18 112.009 189.94C112.675 190.687 113.009 191.867 113.009 193.48L112.929 194.62H106.329C106.329 195.727 106.529 196.547 106.929 197.08C107.329 197.613 108.022 197.88 109.009 197.88C110.009 197.88 111.022 197.84 112.049 197.76ZM111.509 193.42C111.509 192.193 111.309 191.327 110.909 190.82C110.522 190.313 109.882 190.06 108.989 190.06C108.109 190.06 107.442 190.327 106.989 190.86C106.549 191.393 106.322 192.247 106.309 193.42H111.509ZM127.421 184.64V199H125.941V198.32C124.914 198.907 123.901 199.2 122.901 199.2C122.367 199.2 121.901 199.133 121.501 199C121.101 198.867 120.727 198.627 120.381 198.28C119.661 197.56 119.301 196.233 119.301 194.3C119.301 192.353 119.621 190.953 120.261 190.1C120.914 189.233 121.987 188.8 123.481 188.8C124.254 188.8 125.074 188.887 125.941 189.06V184.64H127.421ZM121.541 197.2C121.754 197.453 121.981 197.627 122.221 197.72C122.461 197.813 122.767 197.86 123.141 197.86C123.527 197.86 123.954 197.8 124.421 197.68C124.901 197.547 125.274 197.42 125.541 197.3L125.941 197.12V190.34C125.087 190.18 124.294 190.1 123.561 190.1C122.547 190.1 121.841 190.427 121.441 191.08C121.041 191.72 120.841 192.72 120.841 194.08C120.841 195.627 121.074 196.667 121.541 197.2ZM130.327 199V189H131.827V199H130.327ZM130.327 186.74V185H131.827V186.74H130.327ZM138.562 203.7C136.962 203.7 135.842 203.48 135.202 203.04C134.575 202.613 134.262 201.827 134.262 200.68C134.262 200.133 134.382 199.687 134.622 199.34C134.862 199.007 135.268 198.627 135.842 198.2C135.468 197.947 135.282 197.487 135.282 196.82C135.282 196.593 135.448 196.173 135.782 195.56L135.962 195.24C134.908 194.76 134.382 193.753 134.382 192.22C134.382 189.94 135.628 188.8 138.122 188.8C138.762 188.8 139.355 188.867 139.902 189L140.202 189.06L143.162 188.98V190.26L141.262 190.22C141.702 190.66 141.922 191.327 141.922 192.22C141.922 193.473 141.608 194.353 140.982 194.86C140.368 195.353 139.395 195.6 138.062 195.6C137.702 195.6 137.375 195.573 137.082 195.52C136.842 196.107 136.722 196.487 136.722 196.66C136.722 197.073 136.848 197.333 137.102 197.44C137.355 197.533 138.122 197.58 139.402 197.58C140.682 197.58 141.602 197.78 142.162 198.18C142.722 198.58 143.002 199.36 143.002 200.52C143.002 202.64 141.522 203.7 138.562 203.7ZM135.742 200.56C135.742 201.267 135.935 201.753 136.322 202.02C136.722 202.3 137.448 202.44 138.502 202.44C139.568 202.44 140.328 202.293 140.782 202C141.248 201.707 141.482 201.213 141.482 200.52C141.482 199.84 141.315 199.4 140.982 199.2C140.648 199 139.995 198.9 139.022 198.9L136.862 198.8C136.422 199.12 136.122 199.4 135.962 199.64C135.815 199.88 135.742 200.187 135.742 200.56ZM135.882 192.22C135.882 193.007 136.055 193.567 136.402 193.9C136.762 194.233 137.348 194.4 138.162 194.4C138.975 194.4 139.555 194.233 139.902 193.9C140.248 193.567 140.422 193.007 140.422 192.22C140.422 191.42 140.248 190.853 139.902 190.52C139.555 190.187 138.975 190.02 138.162 190.02C137.348 190.02 136.762 190.193 136.402 190.54C136.055 190.873 135.882 191.433 135.882 192.22ZM144.975 199V189H146.475V199H144.975ZM144.975 186.74V185H146.475V186.74H144.975ZM154.53 190.3H151.35V195.08C151.35 196.227 151.43 196.98 151.59 197.34C151.763 197.7 152.163 197.88 152.79 197.88L154.57 197.76L154.67 199C153.777 199.147 153.097 199.22 152.63 199.22C151.59 199.22 150.87 198.967 150.47 198.46C150.07 197.953 149.87 196.987 149.87 195.56V190.3H148.45V189H149.87V185.94H151.35V189H154.53V190.3ZM163.422 192.02V197.14C163.462 197.633 163.849 197.927 164.582 198.02L164.522 199.2C163.469 199.2 162.675 198.933 162.142 198.4C160.942 198.933 159.742 199.2 158.542 199.2C157.622 199.2 156.922 198.94 156.442 198.42C155.962 197.9 155.722 197.153 155.722 196.18C155.722 195.207 155.969 194.493 156.462 194.04C156.955 193.573 157.729 193.287 158.782 193.18L161.922 192.88V192.02C161.922 191.34 161.775 190.853 161.482 190.56C161.189 190.267 160.789 190.12 160.282 190.12C159.215 190.12 158.109 190.187 156.962 190.32L156.342 190.38L156.282 189.24C157.749 188.947 159.049 188.8 160.182 188.8C161.315 188.8 162.135 189.06 162.642 189.58C163.162 190.1 163.422 190.913 163.422 192.02ZM157.262 196.1C157.262 197.327 157.769 197.94 158.782 197.94C159.689 197.94 160.582 197.787 161.462 197.48L161.922 197.32V194.02L158.962 194.3C158.362 194.353 157.929 194.527 157.662 194.82C157.395 195.113 157.262 195.54 157.262 196.1ZM166.501 199V184.64H168.001V199H166.501ZM174.585 189H176.085L178.105 197.7H178.425L180.805 189.2H182.365L184.745 197.7H185.085L187.085 189H188.585L186.205 199H183.705L181.585 191.18L179.465 199H176.965L174.585 189ZM197.602 192.02V197.14C197.642 197.633 198.028 197.927 198.762 198.02L198.702 199.2C197.648 199.2 196.855 198.933 196.322 198.4C195.122 198.933 193.922 199.2 192.722 199.2C191.802 199.2 191.102 198.94 190.622 198.42C190.142 197.9 189.902 197.153 189.902 196.18C189.902 195.207 190.148 194.493 190.642 194.04C191.135 193.573 191.908 193.287 192.962 193.18L196.102 192.88V192.02C196.102 191.34 195.955 190.853 195.662 190.56C195.368 190.267 194.968 190.12 194.462 190.12C193.395 190.12 192.288 190.187 191.142 190.32L190.522 190.38L190.462 189.24C191.928 188.947 193.228 188.8 194.362 188.8C195.495 188.8 196.315 189.06 196.822 189.58C197.342 190.1 197.602 190.913 197.602 192.02ZM191.442 196.1C191.442 197.327 191.948 197.94 192.962 197.94C193.868 197.94 194.762 197.787 195.642 197.48L196.102 197.32V194.02L193.142 194.3C192.542 194.353 192.108 194.527 191.842 194.82C191.575 195.113 191.442 195.54 191.442 196.1ZM200.681 199V184.64H202.181V199H200.681ZM205.31 199V184.64H206.81V199H205.31ZM216.619 197.76L217.199 197.7L217.239 198.88C215.719 199.093 214.419 199.2 213.339 199.2C211.899 199.2 210.879 198.787 210.279 197.96C209.679 197.12 209.379 195.82 209.379 194.06C209.379 190.553 210.772 188.8 213.559 188.8C214.906 188.8 215.912 189.18 216.579 189.94C217.246 190.687 217.579 191.867 217.579 193.48L217.499 194.62H210.899C210.899 195.727 211.099 196.547 211.499 197.08C211.899 197.613 212.592 197.88 213.579 197.88C214.579 197.88 215.592 197.84 216.619 197.76ZM216.079 193.42C216.079 192.193 215.879 191.327 215.479 190.82C215.092 190.313 214.452 190.06 213.559 190.06C212.679 190.06 212.012 190.327 211.559 190.86C211.119 191.393 210.892 192.247 210.879 193.42H216.079ZM225.038 190.3H221.858V195.08C221.858 196.227 221.938 196.98 222.098 197.34C222.271 197.7 222.671 197.88 223.298 197.88L225.078 197.76L225.178 199C224.285 199.147 223.605 199.22 223.138 199.22C222.098 199.22 221.378 198.967 220.978 198.46C220.578 197.953 220.378 196.987 220.378 195.56V190.3H218.958V189H220.378V185.94H221.858V189H225.038V190.3ZM230.324 189H231.824L234.324 197.7H234.984L237.504 189H239.004L234.844 203.44H233.344L234.644 199H233.164L230.324 189ZM240.316 193.98C240.316 192.153 240.643 190.833 241.296 190.02C241.95 189.207 243.05 188.8 244.596 188.8C246.156 188.8 247.256 189.207 247.896 190.02C248.55 190.833 248.876 192.153 248.876 193.98C248.876 195.807 248.57 197.133 247.956 197.96C247.343 198.787 246.223 199.2 244.596 199.2C242.97 199.2 241.85 198.787 241.236 197.96C240.623 197.133 240.316 195.807 240.316 193.98ZM241.856 193.96C241.856 195.413 242.03 196.433 242.376 197.02C242.736 197.607 243.476 197.9 244.596 197.9C245.73 197.9 246.47 197.613 246.816 197.04C247.163 196.453 247.336 195.427 247.336 193.96C247.336 192.493 247.143 191.487 246.756 190.94C246.37 190.38 245.65 190.1 244.596 190.1C243.556 190.1 242.836 190.38 242.436 190.94C242.05 191.487 241.856 192.493 241.856 193.96ZM257.563 189H259.063V199H257.563V198.3C256.563 198.9 255.576 199.2 254.603 199.2C253.243 199.2 252.336 198.847 251.883 198.14C251.443 197.433 251.223 196.127 251.223 194.22V189H252.723V194.2C252.723 195.653 252.849 196.627 253.103 197.12C253.356 197.613 253.929 197.86 254.823 197.86C255.263 197.86 255.709 197.8 256.163 197.68C256.616 197.547 256.963 197.42 257.203 197.3L257.563 197.12V189ZM265.522 189H267.022L269.042 197.7H269.362L271.742 189.2H273.302L275.682 197.7H276.022L278.022 189H279.522L277.142 199H274.642L272.522 191.18L270.402 199H267.902L265.522 189ZM288.539 192.02V197.14C288.579 197.633 288.966 197.927 289.699 198.02L289.639 199.2C288.586 199.2 287.792 198.933 287.259 198.4C286.059 198.933 284.859 199.2 283.659 199.2C282.739 199.2 282.039 198.94 281.559 198.42C281.079 197.9 280.839 197.153 280.839 196.18C280.839 195.207 281.086 194.493 281.579 194.04C282.072 193.573 282.846 193.287 283.899 193.18L287.039 192.88V192.02C287.039 191.34 286.892 190.853 286.599 190.56C286.306 190.267 285.906 190.12 285.399 190.12C284.332 190.12 283.226 190.187 282.079 190.32L281.459 190.38L281.399 189.24C282.866 188.947 284.166 188.8 285.299 188.8C286.432 188.8 287.252 189.06 287.759 189.58C288.279 190.1 288.539 190.913 288.539 192.02ZM282.379 196.1C282.379 197.327 282.886 197.94 283.899 197.94C284.806 197.94 285.699 197.787 286.579 197.48L287.039 197.32V194.02L284.079 194.3C283.479 194.353 283.046 194.527 282.779 194.82C282.512 195.113 282.379 195.54 282.379 196.1ZM292.999 199H291.499V189H292.979V189.7C294.059 189.1 295.092 188.8 296.079 188.8C297.412 188.8 298.305 189.16 298.759 189.88C299.225 190.6 299.459 191.88 299.459 193.72V199H297.979V193.76C297.979 192.373 297.839 191.427 297.559 190.92C297.292 190.4 296.712 190.14 295.819 190.14C295.392 190.14 294.939 190.207 294.459 190.34C293.992 190.46 293.632 190.58 293.379 190.7L292.999 190.88V199ZM307.362 190.3H304.182V195.08C304.182 196.227 304.262 196.98 304.422 197.34C304.596 197.7 304.996 197.88 305.622 197.88L307.402 197.76L307.502 199C306.609 199.147 305.929 199.22 305.462 199.22C304.422 199.22 303.702 198.967 303.302 198.46C302.902 197.953 302.702 196.987 302.702 195.56V190.3H301.282V189H302.702V185.94H304.182V189H307.362V190.3ZM318.768 190.3H315.588V195.08C315.588 196.227 315.668 196.98 315.828 197.34C316.002 197.7 316.402 197.88 317.028 197.88L318.808 197.76L318.908 199C318.015 199.147 317.335 199.22 316.868 199.22C315.828 199.22 315.108 198.967 314.708 198.46C314.308 197.953 314.108 196.987 314.108 195.56V190.3H312.688V189H314.108V185.94H315.588V189H318.768V190.3ZM320.16 193.98C320.16 192.153 320.487 190.833 321.14 190.02C321.793 189.207 322.893 188.8 324.44 188.8C326 188.8 327.1 189.207 327.74 190.02C328.393 190.833 328.72 192.153 328.72 193.98C328.72 195.807 328.413 197.133 327.8 197.96C327.187 198.787 326.067 199.2 324.44 199.2C322.813 199.2 321.693 198.787 321.08 197.96C320.467 197.133 320.16 195.807 320.16 193.98ZM321.7 193.96C321.7 195.413 321.873 196.433 322.22 197.02C322.58 197.607 323.32 197.9 324.44 197.9C325.573 197.9 326.313 197.613 326.66 197.04C327.007 196.453 327.18 195.427 327.18 193.96C327.18 192.493 326.987 191.487 326.6 190.94C326.213 190.38 325.493 190.1 324.44 190.1C323.4 190.1 322.68 190.38 322.28 190.94C321.893 191.487 321.7 192.493 321.7 193.96ZM127.953 220.8C128.393 220.8 129.14 220.88 130.193 221.04L130.673 221.1L130.613 222.32C129.547 222.2 128.76 222.14 128.253 222.14C127.12 222.14 126.347 222.413 125.933 222.96C125.533 223.493 125.333 224.493 125.333 225.96C125.333 227.413 125.52 228.427 125.893 229C126.28 229.573 127.073 229.86 128.273 229.86L130.633 229.68L130.693 230.92C129.453 231.107 128.527 231.2 127.913 231.2C126.353 231.2 125.273 230.8 124.673 230C124.087 229.2 123.793 227.853 123.793 225.96C123.793 224.053 124.113 222.72 124.753 221.96C125.393 221.187 126.46 220.8 127.953 220.8ZM132.367 225.98C132.367 224.153 132.694 222.833 133.347 222.02C134.001 221.207 135.101 220.8 136.647 220.8C138.207 220.8 139.307 221.207 139.947 222.02C140.601 222.833 140.927 224.153 140.927 225.98C140.927 227.807 140.621 229.133 140.007 229.96C139.394 230.787 138.274 231.2 136.647 231.2C135.021 231.2 133.901 230.787 133.287 229.96C132.674 229.133 132.367 227.807 132.367 225.98ZM133.907 225.96C133.907 227.413 134.081 228.433 134.427 229.02C134.787 229.607 135.527 229.9 136.647 229.9C137.781 229.9 138.521 229.613 138.867 229.04C139.214 228.453 139.387 227.427 139.387 225.96C139.387 224.493 139.194 223.487 138.807 222.94C138.421 222.38 137.701 222.1 136.647 222.1C135.607 222.1 134.887 222.38 134.487 222.94C134.101 223.487 133.907 224.493 133.907 225.96ZM144.874 231H143.374V221H144.854V221.7C145.934 221.1 146.967 220.8 147.954 220.8C149.287 220.8 150.18 221.16 150.634 221.88C151.1 222.6 151.334 223.88 151.334 225.72V231H149.854V225.76C149.854 224.373 149.714 223.427 149.434 222.92C149.167 222.4 148.587 222.14 147.694 222.14C147.267 222.14 146.814 222.207 146.334 222.34C145.867 222.46 145.507 222.58 145.254 222.7L144.874 222.88V231ZM159.237 222.3H156.057V227.08C156.057 228.227 156.137 228.98 156.297 229.34C156.471 229.7 156.871 229.88 157.497 229.88L159.277 229.76L159.377 231C158.484 231.147 157.804 231.22 157.337 231.22C156.297 231.22 155.577 230.967 155.177 230.46C154.777 229.953 154.577 228.987 154.577 227.56V222.3H153.157V221H154.577V217.94H156.057V221H159.237V222.3ZM161.069 231V221H162.569V231H161.069ZM161.069 218.74V217H162.569V218.74H161.069ZM166.944 231H165.444V221H166.924V221.7C168.004 221.1 169.037 220.8 170.024 220.8C171.357 220.8 172.251 221.16 172.704 221.88C173.171 222.6 173.404 223.88 173.404 225.72V231H171.924V225.76C171.924 224.373 171.784 223.427 171.504 222.92C171.237 222.4 170.657 222.14 169.764 222.14C169.337 222.14 168.884 222.207 168.404 222.34C167.937 222.46 167.577 222.58 167.324 222.7L166.944 222.88V231ZM182.426 221H183.926V231H182.426V230.3C181.426 230.9 180.439 231.2 179.466 231.2C178.106 231.2 177.199 230.847 176.746 230.14C176.306 229.433 176.086 228.127 176.086 226.22V221H177.586V226.2C177.586 227.653 177.713 228.627 177.966 229.12C178.219 229.613 178.793 229.86 179.686 229.86C180.126 229.86 180.573 229.8 181.026 229.68C181.479 229.547 181.826 229.42 182.066 229.3L182.426 229.12V221ZM193.611 229.76L194.191 229.7L194.231 230.88C192.711 231.093 191.411 231.2 190.331 231.2C188.891 231.2 187.871 230.787 187.271 229.96C186.671 229.12 186.371 227.82 186.371 226.06C186.371 222.553 187.764 220.8 190.551 220.8C191.898 220.8 192.904 221.18 193.571 221.94C194.238 222.687 194.571 223.867 194.571 225.48L194.491 226.62H187.891C187.891 227.727 188.091 228.547 188.491 229.08C188.891 229.613 189.584 229.88 190.571 229.88C191.571 229.88 192.584 229.84 193.611 229.76ZM193.071 225.42C193.071 224.193 192.871 223.327 192.471 222.82C192.084 222.313 191.444 222.06 190.551 222.06C189.671 222.06 189.004 222.327 188.551 222.86C188.111 223.393 187.884 224.247 187.871 225.42H193.071ZM200.483 221H201.983L204.003 229.7H204.323L206.703 221.2H208.263L210.643 229.7H210.983L212.983 221H214.483L212.103 231H209.603L207.483 223.18L205.363 231H202.863L200.483 221ZM216.538 231V221H218.038V231H216.538ZM216.538 218.74V217H218.038V218.74H216.538ZM226.093 222.3H222.913V227.08C222.913 228.227 222.993 228.98 223.153 229.34C223.326 229.7 223.726 229.88 224.353 229.88L226.133 229.76L226.233 231C225.339 231.147 224.659 231.22 224.193 231.22C223.153 231.22 222.433 230.967 222.033 230.46C221.633 229.953 221.433 228.987 221.433 227.56V222.3H220.013V221H221.433V217.94H222.913V221H226.093V222.3ZM229.424 231H227.924V216.64H229.424V221.56C230.491 221.053 231.518 220.8 232.504 220.8C233.838 220.8 234.731 221.16 235.184 221.88C235.651 222.6 235.884 223.88 235.884 225.72V231H234.384V225.76C234.384 224.373 234.244 223.427 233.964 222.92C233.698 222.4 233.124 222.14 232.244 222.14C231.404 222.14 230.591 222.293 229.804 222.6L229.424 222.74V231Z" fill="#17324D"/>
<g filter="url(#filter0_d_4177_47327)">
<g clip-path="url(#clip2_4177_47327)">
<rect width="336" height="88" transform="translate(12 268)" fill="white"/>
<path d="M79.334 298V326L56 340L32.667 326V298L56 284L79.334 298ZM35.0098 299.405V324.595L56 337.188L76.9912 324.595V299.405L56 286.812L35.0098 299.405Z" fill="#0066CC"/>
<path d="M101.58 319V305.3H103.8V319H101.58ZM105.631 307.28V305.3H115.631V307.28H111.771V319H109.531V307.28H105.631ZM115.927 314.6V312.62H121.907V314.6H115.927ZM123.273 305.3H125.613L127.573 317.08H127.993L130.593 305.34H133.193L135.793 317.08H136.233L138.193 305.3H140.533L137.833 319H134.253L131.893 308.02L129.553 319H125.953L123.273 305.3ZM149.443 312.08V316.64C149.456 316.933 149.529 317.153 149.663 317.3C149.809 317.433 150.029 317.52 150.323 317.56L150.263 319.22C149.116 319.22 148.229 318.973 147.603 318.48C146.536 318.973 145.463 319.22 144.383 319.22C142.396 319.22 141.403 318.16 141.403 316.04C141.403 315.027 141.669 314.293 142.203 313.84C142.749 313.387 143.583 313.113 144.703 313.02L147.283 312.8V312.08C147.283 311.547 147.163 311.173 146.923 310.96C146.696 310.747 146.356 310.64 145.903 310.64C145.049 310.64 143.983 310.693 142.703 310.8L142.063 310.84L141.983 309.3C143.436 308.953 144.769 308.78 145.983 308.78C147.209 308.78 148.089 309.047 148.623 309.58C149.169 310.1 149.443 310.933 149.443 312.08ZM144.963 314.56C144.043 314.64 143.583 315.14 143.583 316.06C143.583 316.98 143.989 317.44 144.803 317.44C145.469 317.44 146.176 317.333 146.923 317.12L147.283 317V314.34L144.963 314.56ZM152.299 319V304.84H154.479V319H152.299ZM157.358 319V304.84H159.538V319H157.358ZM169.417 317.2L169.977 317.14L170.017 318.76C168.497 319.067 167.15 319.22 165.977 319.22C164.497 319.22 163.43 318.813 162.777 318C162.137 317.187 161.817 315.887 161.817 314.1C161.817 310.553 163.263 308.78 166.157 308.78C168.957 308.78 170.357 310.307 170.357 313.36L170.217 314.92H164.017C164.03 315.747 164.21 316.353 164.557 316.74C164.903 317.127 165.55 317.32 166.497 317.32C167.443 317.32 168.417 317.28 169.417 317.2ZM168.217 313.24C168.217 312.253 168.057 311.567 167.737 311.18C167.43 310.78 166.903 310.58 166.157 310.58C165.41 310.58 164.863 310.787 164.517 311.2C164.183 311.613 164.01 312.293 163.997 313.24H168.217ZM177.833 310.86H175.073V315.26C175.073 316.073 175.133 316.613 175.253 316.88C175.373 317.147 175.679 317.28 176.173 317.28L177.813 317.22L177.913 318.96C177.019 319.133 176.339 319.22 175.873 319.22C174.739 319.22 173.959 318.96 173.533 318.44C173.119 317.92 172.913 316.94 172.913 315.5V310.86H171.633V309H172.913V306.1H175.073V309H177.833V310.86ZM191.415 312.08V316.64C191.429 316.933 191.502 317.153 191.635 317.3C191.782 317.433 192.002 317.52 192.295 317.56L192.235 319.22C191.089 319.22 190.202 318.973 189.575 318.48C188.509 318.973 187.435 319.22 186.355 319.22C184.369 319.22 183.375 318.16 183.375 316.04C183.375 315.027 183.642 314.293 184.175 313.84C184.722 313.387 185.555 313.113 186.675 313.02L189.255 312.8V312.08C189.255 311.547 189.135 311.173 188.895 310.96C188.669 310.747 188.329 310.64 187.875 310.64C187.022 310.64 185.955 310.693 184.675 310.8L184.035 310.84L183.955 309.3C185.409 308.953 186.742 308.78 187.955 308.78C189.182 308.78 190.062 309.047 190.595 309.58C191.142 310.1 191.415 310.933 191.415 312.08ZM186.935 314.56C186.015 314.64 185.555 315.14 185.555 316.06C185.555 316.98 185.962 317.44 186.775 317.44C187.442 317.44 188.149 317.333 188.895 317.12L189.255 317V314.34L186.935 314.56ZM194.152 323.3V309H196.312V309.62C197.232 309.06 198.092 308.78 198.892 308.78C200.212 308.78 201.179 309.187 201.792 310C202.405 310.8 202.712 312.153 202.712 314.06C202.712 315.953 202.359 317.287 201.652 318.06C200.959 318.833 199.819 319.22 198.232 319.22C197.685 319.22 197.052 319.16 196.332 319.04V323.3H194.152ZM198.512 310.72C197.885 310.72 197.259 310.86 196.632 311.14L196.332 311.28V317.18C196.865 317.287 197.452 317.34 198.092 317.34C198.999 317.34 199.625 317.08 199.972 316.56C200.319 316.04 200.492 315.153 200.492 313.9C200.492 311.78 199.832 310.72 198.512 310.72ZM204.894 323.3V309H207.054V309.62C207.974 309.06 208.834 308.78 209.634 308.78C210.954 308.78 211.921 309.187 212.534 310C213.148 310.8 213.454 312.153 213.454 314.06C213.454 315.953 213.101 317.287 212.394 318.06C211.701 318.833 210.561 319.22 208.974 319.22C208.428 319.22 207.794 319.16 207.074 319.04V323.3H204.894ZM209.254 310.72C208.628 310.72 208.001 310.86 207.374 311.14L207.074 311.28V317.18C207.608 317.287 208.194 317.34 208.834 317.34C209.741 317.34 210.368 317.08 210.714 316.56C211.061 316.04 211.234 315.153 211.234 313.9C211.234 311.78 210.574 310.72 209.254 310.72ZM222.211 319H220.031V309H222.191V309.62C223.164 309.06 224.084 308.78 224.951 308.78C226.284 308.78 227.191 309.16 227.671 309.92C228.164 310.667 228.411 311.907 228.411 313.64V319H226.251V313.7C226.251 312.62 226.131 311.853 225.891 311.4C225.664 310.947 225.191 310.72 224.471 310.72C223.791 310.72 223.138 310.853 222.511 311.12L222.211 311.24V319ZM238.349 312.08V316.64C238.362 316.933 238.436 317.153 238.569 317.3C238.716 317.433 238.936 317.52 239.229 317.56L239.169 319.22C238.022 319.22 237.136 318.973 236.509 318.48C235.442 318.973 234.369 319.22 233.289 319.22C231.302 319.22 230.309 318.16 230.309 316.04C230.309 315.027 230.576 314.293 231.109 313.84C231.656 313.387 232.489 313.113 233.609 313.02L236.189 312.8V312.08C236.189 311.547 236.069 311.173 235.829 310.96C235.602 310.747 235.262 310.64 234.809 310.64C233.956 310.64 232.889 310.693 231.609 310.8L230.969 310.84L230.889 309.3C232.342 308.953 233.676 308.78 234.889 308.78C236.116 308.78 236.996 309.047 237.529 309.58C238.076 310.1 238.349 310.933 238.349 312.08ZM233.869 314.56C232.949 314.64 232.489 315.14 232.489 316.06C232.489 316.98 232.896 317.44 233.709 317.44C234.376 317.44 235.082 317.333 235.829 317.12L236.189 317V314.34L233.869 314.56ZM243.266 319H241.086V309H243.246V309.62C244.192 309.06 245.059 308.78 245.846 308.78C247.006 308.78 247.852 309.107 248.386 309.76C249.599 309.107 250.806 308.78 252.006 308.78C253.206 308.78 254.052 309.153 254.546 309.9C255.039 310.633 255.286 311.88 255.286 313.64V319H253.126V313.7C253.126 312.62 253.012 311.853 252.786 311.4C252.572 310.947 252.119 310.72 251.426 310.72C250.826 310.72 250.179 310.853 249.486 311.12L249.146 311.26C249.252 311.527 249.306 312.38 249.306 313.82V319H247.146V313.86C247.146 312.673 247.039 311.853 246.826 311.4C246.612 310.947 246.146 310.72 245.426 310.72C244.759 310.72 244.139 310.853 243.566 311.12L243.266 311.24V319ZM264.963 317.2L265.523 317.14L265.563 318.76C264.043 319.067 262.697 319.22 261.523 319.22C260.043 319.22 258.977 318.813 258.323 318C257.683 317.187 257.363 315.887 257.363 314.1C257.363 310.553 258.81 308.78 261.703 308.78C264.503 308.78 265.903 310.307 265.903 313.36L265.763 314.92H259.563C259.577 315.747 259.757 316.353 260.103 316.74C260.45 317.127 261.097 317.32 262.043 317.32C262.99 317.32 263.963 317.28 264.963 317.2ZM263.763 313.24C263.763 312.253 263.603 311.567 263.283 311.18C262.977 310.78 262.45 310.58 261.703 310.58C260.957 310.58 260.41 310.787 260.063 311.2C259.73 311.613 259.557 312.293 259.543 313.24H263.763Z" fill="#0066CC"/>
<path d="M100 321.2H193.548V321.8H100V321.2ZM196.936 321.2H204.291V321.8H196.936V321.2ZM207.678 321.2H266.683V321.8H207.678V321.2Z" fill="#0066CC"/>
<g clip-path="url(#clip3_4177_47327)">
<path d="M321.9 305L321.2 305.7L326.5 311.1H311V312.1H326.5L321.2 317.5L321.9 318.2L328.5 311.6L321.9 305Z" fill="#0066CC"/>
</g>
</g>
<rect x="12.5" y="268.5" width="335" height="87" rx="3.5" stroke="#C5C7C9"/>
</g>
<rect width="360" height="160" transform="translate(0 573)" fill="#003366"/>
<path d="M18.482 618H13.106V608.41H14.66V616.614H18.482V618ZM24.5525 616.74L24.9445 616.698L24.9725 617.832C23.9085 618.047 22.9659 618.154 22.1445 618.154C21.1085 618.154 20.3619 617.869 19.9045 617.3C19.4565 616.731 19.2325 615.821 19.2325 614.57C19.2325 612.087 20.2452 610.846 22.2705 610.846C24.2305 610.846 25.2105 611.915 25.2105 614.052L25.1125 615.144H20.7725C20.7819 615.723 20.9079 616.147 21.1505 616.418C21.3932 616.689 21.8459 616.824 22.5085 616.824C23.1712 616.824 23.8525 616.796 24.5525 616.74ZM23.7125 613.968C23.7125 613.277 23.6005 612.797 23.3765 612.526C23.1619 612.246 22.7932 612.106 22.2705 612.106C21.7479 612.106 21.3652 612.251 21.1225 612.54C20.8892 612.829 20.7679 613.305 20.7585 613.968H23.7125ZM32.7959 618.952C32.7959 620.483 31.6899 621.248 29.4779 621.248C28.4139 621.248 27.6252 621.103 27.1119 620.814C26.5986 620.525 26.3419 619.997 26.3419 619.232C26.3419 618.887 26.4259 618.588 26.5939 618.336C26.7619 618.093 27.0326 617.827 27.4059 617.538C27.0979 617.333 26.9439 616.992 26.9439 616.516C26.9439 616.329 27.0699 616.026 27.3219 615.606L27.4479 615.396C26.7759 614.995 26.4399 614.295 26.4399 613.296C26.4399 612.456 26.6919 611.84 27.1959 611.448C27.6999 611.056 28.3812 610.86 29.2399 610.86C29.6506 610.86 30.0566 610.907 30.4579 611L30.6679 611.042L32.8379 610.986V612.218L31.6759 612.148C31.9279 612.475 32.0539 612.857 32.0539 613.296C32.0539 614.211 31.8206 614.845 31.3539 615.2C30.8966 615.545 30.1779 615.718 29.1979 615.718C28.9552 615.718 28.7499 615.699 28.5819 615.662C28.4512 615.979 28.3859 616.227 28.3859 616.404C28.3859 616.572 28.4699 616.689 28.6379 616.754C28.8152 616.819 29.2352 616.857 29.8979 616.866C31.0086 616.875 31.7692 617.025 32.1799 617.314C32.5906 617.603 32.7959 618.149 32.7959 618.952ZM27.8399 619.092C27.8399 619.419 27.9706 619.652 28.2319 619.792C28.4932 619.932 28.9412 620.002 29.5759 620.002C30.7052 620.002 31.2699 619.68 31.2699 619.036C31.2699 618.672 31.1672 618.439 30.9619 618.336C30.7659 618.243 30.3692 618.191 29.7719 618.182L28.3999 618.098C28.1946 618.266 28.0499 618.42 27.9659 618.56C27.8819 618.709 27.8399 618.887 27.8399 619.092ZM27.9519 613.296C27.9519 613.725 28.0546 614.043 28.2599 614.248C28.4652 614.444 28.7966 614.542 29.2539 614.542C29.7112 614.542 30.0379 614.444 30.2339 614.248C30.4392 614.043 30.5419 613.725 30.5419 613.296C30.5419 612.867 30.4392 612.554 30.2339 612.358C30.0286 612.153 29.6972 612.05 29.2399 612.05C28.3812 612.05 27.9519 612.465 27.9519 613.296ZM39.2134 613.156V616.348C39.2227 616.553 39.274 616.707 39.3674 616.81C39.47 616.903 39.624 616.964 39.8294 616.992L39.7874 618.154C38.9847 618.154 38.364 617.981 37.9254 617.636C37.1787 617.981 36.4274 618.154 35.6714 618.154C34.2807 618.154 33.5854 617.412 33.5854 615.928C33.5854 615.219 33.772 614.705 34.1454 614.388C34.528 614.071 35.1114 613.879 35.8954 613.814L37.7014 613.66V613.156C37.7014 612.783 37.6174 612.521 37.4494 612.372C37.2907 612.223 37.0527 612.148 36.7354 612.148C36.138 612.148 35.3914 612.185 34.4954 612.26L34.0474 612.288L33.9914 611.21C35.0087 610.967 35.942 610.846 36.7914 610.846C37.65 610.846 38.266 611.033 38.6394 611.406C39.022 611.77 39.2134 612.353 39.2134 613.156ZM36.0774 614.892C35.4334 614.948 35.1114 615.298 35.1114 615.942C35.1114 616.586 35.396 616.908 35.9654 616.908C36.432 616.908 36.9267 616.833 37.4494 616.684L37.7014 616.6V614.738L36.0774 614.892ZM41.2131 618V608.088H42.7391V618H41.2131ZM49.2723 618H47.7463V611H49.2583V611.434C49.9396 611.042 50.5836 610.846 51.1903 610.846C52.1236 610.846 52.7583 611.112 53.0943 611.644C53.4396 612.167 53.6123 613.035 53.6123 614.248V618H52.1003V614.29C52.1003 613.534 52.0163 612.997 51.8483 612.68C51.6896 612.363 51.3583 612.204 50.8543 612.204C50.3783 612.204 49.9209 612.297 49.4823 612.484L49.2723 612.568V618ZM55.7668 611.756C56.2522 611.149 57.0548 610.846 58.1748 610.846C59.2948 610.846 60.0928 611.149 60.5688 611.756C61.0542 612.363 61.2968 613.273 61.2968 614.486C61.2968 615.699 61.0635 616.614 60.5968 617.23C60.1302 617.846 59.3228 618.154 58.1748 618.154C57.0268 618.154 56.2195 617.846 55.7528 617.23C55.2862 616.614 55.0528 615.699 55.0528 614.486C55.0528 613.273 55.2908 612.363 55.7668 611.756ZM56.9148 616.306C57.1295 616.679 57.5495 616.866 58.1748 616.866C58.8002 616.866 59.2202 616.679 59.4348 616.306C59.6495 615.933 59.7568 615.321 59.7568 614.472C59.7568 613.623 59.6402 613.021 59.4068 612.666C59.1828 612.311 58.7722 612.134 58.1748 612.134C57.5775 612.134 57.1622 612.311 56.9288 612.666C56.7048 613.021 56.5928 613.623 56.5928 614.472C56.5928 615.321 56.7002 615.933 56.9148 616.306ZM66.5787 612.302H64.6467V615.382C64.6467 615.951 64.6887 616.329 64.7727 616.516C64.8567 616.703 65.0713 616.796 65.4167 616.796L66.5647 616.754L66.6347 617.972C66.0093 618.093 65.5333 618.154 65.2067 618.154C64.4133 618.154 63.8673 617.972 63.5687 617.608C63.2793 617.244 63.1347 616.558 63.1347 615.55V612.302H62.2387V611H63.1347V608.97H64.6467V611H66.5787V612.302ZM72.8143 616.74L73.2063 616.698L73.2343 617.832C72.1703 618.047 71.2276 618.154 70.4062 618.154C69.3703 618.154 68.6236 617.869 68.1663 617.3C67.7183 616.731 67.4943 615.821 67.4943 614.57C67.4943 612.087 68.5069 610.846 70.5323 610.846C72.4923 610.846 73.4723 611.915 73.4723 614.052L73.3743 615.144H69.0343C69.0436 615.723 69.1696 616.147 69.4123 616.418C69.6549 616.689 70.1076 616.824 70.7703 616.824C71.4329 616.824 72.1143 616.796 72.8143 616.74ZM71.9743 613.968C71.9743 613.277 71.8623 612.797 71.6383 612.526C71.4236 612.246 71.0549 612.106 70.5323 612.106C70.0096 612.106 69.6269 612.251 69.3843 612.54C69.1509 612.829 69.0296 613.305 69.0203 613.968H71.9743ZM79.7976 612.442C78.6963 612.293 77.8983 612.218 77.4036 612.218C76.909 612.218 76.5636 612.279 76.3676 612.4C76.181 612.512 76.0876 612.694 76.0876 612.946C76.0876 613.198 76.1903 613.375 76.3956 613.478C76.6103 613.581 77.105 613.702 77.8796 613.842C78.6636 613.973 79.219 614.183 79.5456 614.472C79.8723 614.761 80.0356 615.275 80.0356 616.012C80.0356 616.749 79.7976 617.291 79.3216 617.636C78.855 617.981 78.169 618.154 77.2636 618.154C76.6943 618.154 75.9756 618.075 75.1076 617.916L74.6736 617.846L74.7296 616.572C75.8496 616.721 76.657 616.796 77.1516 616.796C77.6463 616.796 77.9963 616.735 78.2016 616.614C78.4163 616.493 78.5236 616.292 78.5236 616.012C78.5236 615.732 78.421 615.541 78.2156 615.438C78.0196 615.326 77.539 615.209 76.7736 615.088C76.0176 614.957 75.4623 614.757 75.1076 614.486C74.753 614.215 74.5756 613.721 74.5756 613.002C74.5756 612.283 74.8183 611.747 75.3036 611.392C75.7983 611.037 76.4283 610.86 77.1936 610.86C77.791 610.86 78.5236 610.935 79.3916 611.084L79.8256 611.168L79.7976 612.442Z" fill="white"/>
<path d="M12 619.54H25.9394V619.96H12V619.54ZM33.1466 619.54H80.5816V619.96H33.1466V619.54Z" fill="white"/>
<path d="M16.62 655.018H14.66V658H13.106V648.41H16.62C18.7947 648.41 19.882 649.483 19.882 651.63C19.882 652.731 19.6067 653.571 19.056 654.15C18.5147 654.729 17.7027 655.018 16.62 655.018ZM14.66 653.674H16.606C17.726 653.674 18.286 652.993 18.286 651.63C18.286 650.977 18.1507 650.501 17.88 650.202C17.6093 649.903 17.1847 649.754 16.606 649.754H14.66V653.674ZM21.1955 658V651H22.7075V651.84C23.5008 651.327 24.2942 650.995 25.0875 650.846V652.372C24.2848 652.531 23.5988 652.736 23.0295 652.988L22.7215 653.114V658H21.1955ZM26.2541 658V651H27.7801V658H26.2541ZM26.2541 649.81V648.2H27.7801V649.81H26.2541ZM28.973 651H30.569L31.913 656.698H32.361L33.761 651H35.315L33.495 658H30.779L28.973 651ZM41.5923 653.156V656.348C41.6016 656.553 41.6529 656.707 41.7463 656.81C41.8489 656.903 42.0029 656.964 42.2083 656.992L42.1663 658.154C41.3636 658.154 40.7429 657.981 40.3043 657.636C39.5576 657.981 38.8063 658.154 38.0503 658.154C36.6596 658.154 35.9643 657.412 35.9643 655.928C35.9643 655.219 36.1509 654.705 36.5243 654.388C36.9069 654.071 37.4903 653.879 38.2743 653.814L40.0803 653.66V653.156C40.0803 652.783 39.9963 652.521 39.8283 652.372C39.6696 652.223 39.4316 652.148 39.1143 652.148C38.5169 652.148 37.7703 652.185 36.8743 652.26L36.4263 652.288L36.3703 651.21C37.3876 650.967 38.3209 650.846 39.1703 650.846C40.0289 650.846 40.6449 651.033 41.0183 651.406C41.4009 651.77 41.5923 652.353 41.5923 653.156ZM38.4563 654.892C37.8123 654.948 37.4903 655.298 37.4903 655.942C37.4903 656.586 37.7749 656.908 38.3443 656.908C38.8109 656.908 39.3056 656.833 39.8283 656.684L40.0803 656.6V654.738L38.4563 654.892ZM46.126 650.846C46.6207 650.846 47.204 650.911 47.876 651.042L48.226 651.112L48.17 652.316C47.4327 652.241 46.8867 652.204 46.532 652.204C45.8227 652.204 45.3467 652.363 45.104 652.68C44.8613 652.997 44.74 653.595 44.74 654.472C44.74 655.349 44.8567 655.956 45.09 656.292C45.3233 656.628 45.8087 656.796 46.546 656.796L48.184 656.684L48.226 657.902C47.2833 658.07 46.574 658.154 46.098 658.154C45.034 658.154 44.2827 657.869 43.844 657.3C43.4147 656.721 43.2 655.779 43.2 654.472C43.2 653.165 43.4287 652.237 43.886 651.686C44.3433 651.126 45.09 650.846 46.126 650.846ZM49.0573 651H50.5553L52.0393 656.698H52.4173L53.9013 651H55.4133L52.7533 661.01H51.2553L52.0953 658H50.8913L49.0573 651ZM63.3641 655.018H61.4041V658H59.8501V648.41H63.3641C65.5388 648.41 66.6261 649.483 66.6261 651.63C66.6261 652.731 66.3508 653.571 65.8001 654.15C65.2588 654.729 64.4468 655.018 63.3641 655.018ZM61.4041 653.674H63.3501C64.4701 653.674 65.0301 652.993 65.0301 651.63C65.0301 650.977 64.8948 650.501 64.6241 650.202C64.3535 649.903 63.9288 649.754 63.3501 649.754H61.4041V653.674ZM68.3176 651.756C68.803 651.149 69.6056 650.846 70.7256 650.846C71.8456 650.846 72.6436 651.149 73.1196 651.756C73.605 652.363 73.8476 653.273 73.8476 654.486C73.8476 655.699 73.6143 656.614 73.1476 657.23C72.681 657.846 71.8736 658.154 70.7256 658.154C69.5776 658.154 68.7703 657.846 68.3036 657.23C67.837 656.614 67.6036 655.699 67.6036 654.486C67.6036 653.273 67.8416 652.363 68.3176 651.756ZM69.4656 656.306C69.6803 656.679 70.1003 656.866 70.7256 656.866C71.351 656.866 71.771 656.679 71.9856 656.306C72.2003 655.933 72.3076 655.321 72.3076 654.472C72.3076 653.623 72.191 653.021 71.9576 652.666C71.7336 652.311 71.323 652.134 70.7256 652.134C70.1283 652.134 69.713 652.311 69.4796 652.666C69.2556 653.021 69.1436 653.623 69.1436 654.472C69.1436 655.321 69.251 655.933 69.4656 656.306ZM75.4475 658V648.088H76.9735V658H75.4475ZM78.9045 658V651H80.4305V658H78.9045ZM78.9045 649.81V648.2H80.4305V649.81H78.9045ZM84.8994 650.846C85.3941 650.846 85.9774 650.911 86.6494 651.042L86.9994 651.112L86.9434 652.316C86.2061 652.241 85.6601 652.204 85.3054 652.204C84.5961 652.204 84.1201 652.363 83.8774 652.68C83.6348 652.997 83.5134 653.595 83.5134 654.472C83.5134 655.349 83.6301 655.956 83.8634 656.292C84.0968 656.628 84.5821 656.796 85.3194 656.796L86.9574 656.684L86.9994 657.902C86.0568 658.07 85.3474 658.154 84.8714 658.154C83.8074 658.154 83.0561 657.869 82.6174 657.3C82.1881 656.721 81.9734 655.779 81.9734 654.472C81.9734 653.165 82.2021 652.237 82.6594 651.686C83.1168 651.126 83.8634 650.846 84.8994 650.846ZM87.8308 651H89.3288L90.8128 656.698H91.1908L92.6748 651H94.1868L91.5268 661.01H90.0288L90.8688 658H89.6648L87.8308 651Z" fill="white"/>
<path d="M12 659.54H51.1269V659.96H12V659.54ZM53.5606 659.54H89.9003V659.96H53.5606V659.54ZM92.3341 659.54H94.4388V659.96H92.3341V659.54Z" fill="white"/>
<path d="M12.28 698L14.646 688.41H17.74L20.12 698H18.552L18.034 695.942H14.352L13.834 698H12.28ZM15.85 689.712L14.66 694.57H17.726L16.55 689.712H15.85ZM23.8545 690.846C24.3492 690.846 24.9325 690.911 25.6045 691.042L25.9545 691.112L25.8985 692.316C25.1612 692.241 24.6152 692.204 24.2605 692.204C23.5512 692.204 23.0752 692.363 22.8325 692.68C22.5898 692.997 22.4685 693.595 22.4685 694.472C22.4685 695.349 22.5852 695.956 22.8185 696.292C23.0518 696.628 23.5372 696.796 24.2745 696.796L25.9125 696.684L25.9545 697.902C25.0118 698.07 24.3025 698.154 23.8265 698.154C22.7625 698.154 22.0112 697.869 21.5725 697.3C21.1432 696.721 20.9285 695.779 20.9285 694.472C20.9285 693.165 21.1572 692.237 21.6145 691.686C22.0718 691.126 22.8185 690.846 23.8545 690.846ZM29.9795 690.846C30.4742 690.846 31.0575 690.911 31.7295 691.042L32.0795 691.112L32.0235 692.316C31.2862 692.241 30.7402 692.204 30.3855 692.204C29.6762 692.204 29.2002 692.363 28.9575 692.68C28.7148 692.997 28.5935 693.595 28.5935 694.472C28.5935 695.349 28.7102 695.956 28.9435 696.292C29.1768 696.628 29.6622 696.796 30.3995 696.796L32.0375 696.684L32.0795 697.902C31.1368 698.07 30.4275 698.154 29.9515 698.154C28.8875 698.154 28.1362 697.869 27.6975 697.3C27.2682 696.721 27.0535 695.779 27.0535 694.472C27.0535 693.165 27.2822 692.237 27.7395 691.686C28.1968 691.126 28.9435 690.846 29.9795 690.846ZM38.4705 696.74L38.8625 696.698L38.8905 697.832C37.8265 698.047 36.8838 698.154 36.0625 698.154C35.0265 698.154 34.2798 697.869 33.8225 697.3C33.3745 696.731 33.1505 695.821 33.1505 694.57C33.1505 692.087 34.1632 690.846 36.1885 690.846C38.1485 690.846 39.1285 691.915 39.1285 694.052L39.0305 695.144H34.6905C34.6998 695.723 34.8258 696.147 35.0685 696.418C35.3112 696.689 35.7638 696.824 36.4265 696.824C37.0892 696.824 37.7705 696.796 38.4705 696.74ZM37.6305 693.968C37.6305 693.277 37.5185 692.797 37.2945 692.526C37.0798 692.246 36.7112 692.106 36.1885 692.106C35.6658 692.106 35.2832 692.251 35.0405 692.54C34.8072 692.829 34.6858 693.305 34.6765 693.968H37.6305ZM45.4539 692.442C44.3525 692.293 43.5545 692.218 43.0599 692.218C42.5652 692.218 42.2199 692.279 42.0239 692.4C41.8372 692.512 41.7439 692.694 41.7439 692.946C41.7439 693.198 41.8465 693.375 42.0519 693.478C42.2665 693.581 42.7612 693.702 43.5359 693.842C44.3199 693.973 44.8752 694.183 45.2019 694.472C45.5285 694.761 45.6919 695.275 45.6919 696.012C45.6919 696.749 45.4539 697.291 44.9779 697.636C44.5112 697.981 43.8252 698.154 42.9199 698.154C42.3505 698.154 41.6319 698.075 40.7639 697.916L40.3299 697.846L40.3859 696.572C41.5059 696.721 42.3132 696.796 42.8079 696.796C43.3025 696.796 43.6525 696.735 43.8579 696.614C44.0725 696.493 44.1799 696.292 44.1799 696.012C44.1799 695.732 44.0772 695.541 43.8719 695.438C43.6759 695.326 43.1952 695.209 42.4299 695.088C41.6739 694.957 41.1185 694.757 40.7639 694.486C40.4092 694.215 40.2319 693.721 40.2319 693.002C40.2319 692.283 40.4745 691.747 40.9599 691.392C41.4545 691.037 42.0845 690.86 42.8499 690.86C43.4472 690.86 44.1799 690.935 45.0479 691.084L45.4819 691.168L45.4539 692.442ZM52.0164 692.442C50.915 692.293 50.117 692.218 49.6224 692.218C49.1277 692.218 48.7824 692.279 48.5864 692.4C48.3997 692.512 48.3064 692.694 48.3064 692.946C48.3064 693.198 48.409 693.375 48.6144 693.478C48.829 693.581 49.3237 693.702 50.0984 693.842C50.8824 693.973 51.4377 694.183 51.7644 694.472C52.091 694.761 52.2544 695.275 52.2544 696.012C52.2544 696.749 52.0164 697.291 51.5404 697.636C51.0737 697.981 50.3877 698.154 49.4824 698.154C48.913 698.154 48.1944 698.075 47.3264 697.916L46.8924 697.846L46.9484 696.572C48.0684 696.721 48.8757 696.796 49.3704 696.796C49.865 696.796 50.215 696.735 50.4204 696.614C50.635 696.493 50.7424 696.292 50.7424 696.012C50.7424 695.732 50.6397 695.541 50.4344 695.438C50.2384 695.326 49.7577 695.209 48.9924 695.088C48.2364 694.957 47.681 694.757 47.3264 694.486C46.9717 694.215 46.7944 693.721 46.7944 693.002C46.7944 692.283 47.037 691.747 47.5224 691.392C48.017 691.037 48.647 690.86 49.4124 690.86C50.0097 690.86 50.7424 690.935 51.6104 691.084L52.0444 691.168L52.0164 692.442ZM53.7209 698V691H55.2469V698H53.7209ZM53.7209 689.81V688.2H55.2469V689.81H53.7209ZM60.3598 690.846C61.3212 690.846 62.0118 691.117 62.4318 691.658C62.8612 692.19 63.0758 693.137 63.0758 694.5C63.0758 695.863 62.8238 696.815 62.3198 697.356C61.8158 697.888 60.9292 698.154 59.6598 698.154C59.2212 698.154 58.5258 698.112 57.5738 698.028L57.0978 697.986V688.088H58.6098V691.266C59.2538 690.986 59.8372 690.846 60.3598 690.846ZM59.6598 696.796C60.4065 696.796 60.9012 696.623 61.1438 696.278C61.3958 695.923 61.5218 695.326 61.5218 694.486C61.5218 693.646 61.4145 693.058 61.1998 692.722C60.9945 692.377 60.6538 692.204 60.1778 692.204C59.7298 692.204 59.2818 692.274 58.8338 692.414L58.6098 692.484V696.74C59.1232 696.777 59.4732 696.796 59.6598 696.796ZM64.6037 698V691H66.1297V698H64.6037ZM64.6037 689.81V688.2H66.1297V689.81H64.6037ZM68.0646 698V688.088H69.5906V698H68.0646ZM71.5217 698V691H73.0477V698H71.5217ZM71.5217 689.81V688.2H73.0477V689.81H71.5217ZM78.6646 692.302H76.7326V695.382C76.7326 695.951 76.7746 696.329 76.8586 696.516C76.9426 696.703 77.1573 696.796 77.5026 696.796L78.6506 696.754L78.7206 697.972C78.0953 698.093 77.6193 698.154 77.2926 698.154C76.4993 698.154 75.9533 697.972 75.6546 697.608C75.3653 697.244 75.2206 696.558 75.2206 695.55V692.302H74.3246V691H75.2206V688.97H76.7326V691H78.6646V692.302ZM79.2722 691H80.7702L82.2542 696.698H82.6322L84.1162 691H85.6282L82.9682 701.01H81.4702L82.3102 698H81.1062L79.2722 691ZM94.741 692.442C93.6397 692.293 92.8417 692.218 92.347 692.218C91.8523 692.218 91.507 692.279 91.311 692.4C91.1243 692.512 91.031 692.694 91.031 692.946C91.031 693.198 91.1337 693.375 91.339 693.478C91.5537 693.581 92.0483 693.702 92.823 693.842C93.607 693.973 94.1623 694.183 94.489 694.472C94.8157 694.761 94.979 695.275 94.979 696.012C94.979 696.749 94.741 697.291 94.265 697.636C93.7983 697.981 93.1123 698.154 92.207 698.154C91.6377 698.154 90.919 698.075 90.051 697.916L89.617 697.846L89.673 696.572C90.793 696.721 91.6003 696.796 92.095 696.796C92.5897 696.796 92.9397 696.735 93.145 696.614C93.3597 696.493 93.467 696.292 93.467 696.012C93.467 695.732 93.3643 695.541 93.159 695.438C92.963 695.326 92.4823 695.209 91.717 695.088C90.961 694.957 90.4057 694.757 90.051 694.486C89.6963 694.215 89.519 693.721 89.519 693.002C89.519 692.283 89.7617 691.747 90.247 691.392C90.7417 691.037 91.3717 690.86 92.137 690.86C92.7343 690.86 93.467 690.935 94.335 691.084L94.769 691.168L94.741 692.442ZM100.211 692.302H98.2795V695.382C98.2795 695.951 98.3215 696.329 98.4055 696.516C98.4895 696.703 98.7042 696.796 99.0495 696.796L100.197 696.754L100.267 697.972C99.6422 698.093 99.1662 698.154 98.8395 698.154C98.0462 698.154 97.5002 697.972 97.2015 697.608C96.9122 697.244 96.7675 696.558 96.7675 695.55V692.302H95.8715V691H96.7675V688.97H98.2795V691H100.211V692.302ZM106.643 693.156V696.348C106.652 696.553 106.704 696.707 106.797 696.81C106.9 696.903 107.054 696.964 107.259 696.992L107.217 698.154C106.414 698.154 105.794 697.981 105.355 697.636C104.608 697.981 103.857 698.154 103.101 698.154C101.71 698.154 101.015 697.412 101.015 695.928C101.015 695.219 101.202 694.705 101.575 694.388C101.958 694.071 102.541 693.879 103.325 693.814L105.131 693.66V693.156C105.131 692.783 105.047 692.521 104.879 692.372C104.72 692.223 104.482 692.148 104.165 692.148C103.568 692.148 102.821 692.185 101.925 692.26L101.477 692.288L101.421 691.21C102.438 690.967 103.372 690.846 104.221 690.846C105.08 690.846 105.696 691.033 106.069 691.406C106.452 691.77 106.643 692.353 106.643 693.156ZM103.507 694.892C102.863 694.948 102.541 695.298 102.541 695.942C102.541 696.586 102.826 696.908 103.395 696.908C103.862 696.908 104.356 696.833 104.879 696.684L105.131 696.6V694.738L103.507 694.892ZM112.325 692.302H110.393V695.382C110.393 695.951 110.435 696.329 110.519 696.516C110.603 696.703 110.817 696.796 111.163 696.796L112.311 696.754L112.381 697.972C111.755 698.093 111.279 698.154 110.953 698.154C110.159 698.154 109.613 697.972 109.315 697.608C109.025 697.244 108.881 696.558 108.881 695.55V692.302H107.985V691H108.881V688.97H110.393V691H112.325V692.302ZM118.56 696.74L118.952 696.698L118.98 697.832C117.916 698.047 116.974 698.154 116.152 698.154C115.116 698.154 114.37 697.869 113.912 697.3C113.464 696.731 113.24 695.821 113.24 694.57C113.24 692.087 114.253 690.846 116.278 690.846C118.238 690.846 119.218 691.915 119.218 694.052L119.12 695.144H114.78C114.79 695.723 114.916 696.147 115.158 696.418C115.401 696.689 115.854 696.824 116.516 696.824C117.179 696.824 117.86 696.796 118.56 696.74ZM117.72 693.968C117.72 693.277 117.608 692.797 117.384 692.526C117.17 692.246 116.801 692.106 116.278 692.106C115.756 692.106 115.373 692.251 115.13 692.54C114.897 692.829 114.776 693.305 114.766 693.968H117.72ZM122.212 698H120.686V691H122.198V691.434C122.86 691.042 123.467 690.846 124.018 690.846C124.83 690.846 125.422 691.075 125.796 691.532C126.645 691.075 127.49 690.846 128.33 690.846C129.17 690.846 129.762 691.107 130.108 691.63C130.453 692.143 130.626 693.016 130.626 694.248V698H129.114V694.29C129.114 693.534 129.034 692.997 128.876 692.68C128.726 692.363 128.409 692.204 127.924 692.204C127.504 692.204 127.051 692.297 126.566 692.484L126.328 692.582C126.402 692.769 126.44 693.366 126.44 694.374V698H124.928V694.402C124.928 693.571 124.853 692.997 124.704 692.68C124.554 692.363 124.228 692.204 123.724 692.204C123.257 692.204 122.823 692.297 122.422 692.484L122.212 692.568V698ZM137.4 696.74L137.792 696.698L137.82 697.832C136.756 698.047 135.814 698.154 134.992 698.154C133.956 698.154 133.21 697.869 132.752 697.3C132.304 696.731 132.08 695.821 132.08 694.57C132.08 692.087 133.093 690.846 135.118 690.846C137.078 690.846 138.058 691.915 138.058 694.052L137.96 695.144H133.62C133.63 695.723 133.756 696.147 133.998 696.418C134.241 696.689 134.694 696.824 135.356 696.824C136.019 696.824 136.7 696.796 137.4 696.74ZM136.56 693.968C136.56 693.277 136.448 692.797 136.224 692.526C136.01 692.246 135.641 692.106 135.118 692.106C134.596 692.106 134.213 692.251 133.97 692.54C133.737 692.829 133.616 693.305 133.606 693.968H136.56ZM141.052 698H139.526V691H141.038V691.434C141.719 691.042 142.363 690.846 142.97 690.846C143.903 690.846 144.538 691.112 144.874 691.644C145.219 692.167 145.392 693.035 145.392 694.248V698H143.88V694.29C143.88 693.534 143.796 692.997 143.628 692.68C143.469 692.363 143.138 692.204 142.634 692.204C142.158 692.204 141.7 692.297 141.262 692.484L141.052 692.568V698ZM150.934 692.302H149.002V695.382C149.002 695.951 149.044 696.329 149.128 696.516C149.212 696.703 149.427 696.796 149.772 696.796L150.92 696.754L150.99 697.972C150.365 698.093 149.889 698.154 149.562 698.154C148.769 698.154 148.223 697.972 147.924 697.608C147.635 697.244 147.49 696.558 147.49 695.55V692.302H146.594V691H147.49V688.97H149.002V691H150.934V692.302Z" fill="white"/>
<path d="M12 699.54H81.3456V699.96H12V699.54ZM83.7794 699.54H151.256V699.96H83.7794V699.54Z" fill="white"/>
</g>
<defs>
<filter id="filter0_d_4177_47327" x="-4" y="260" width="368" height="120" filterUnits="userSpaceOnUse" color-interpolation-filters="sRGB">
<feFlood flood-opacity="0" result="BackgroundImageFix"/>
<feColorMatrix in="SourceAlpha" type="matrix" values="0 0 0 0 0 0 0 0 0 0 0 0 0 0 0 0 0 0 127 0" result="hardAlpha"/>
<feOffset dy="8"/>
<feGaussianBlur stdDeviation="8"/>
<feColorMatrix type="matrix" values="0 0 0 0 0 0 0 0 0 0 0 0 0 0 0 0 0 0 0.15 0"/>
<feBlend mode="normal" in2="BackgroundImageFix" result="effect1_dropShadow_4177_47327"/>
<feBlend mode="normal" in="SourceGraphic" in2="effect1_dropShadow_4177_47327" result="shape"/>
</filter>
<clipPath id="clip0_4177_47327">
<rect width="360" height="733" fill="white"/>
</clipPath>
<clipPath id="clip1_4177_47327">
<rect width="47" height="24" fill="white" transform="translate(301 12)"/>
</clipPath>
<clipPath id="clip2_4177_47327">
<rect x="12" y="268" width="336" height="88" rx="4" fill="white"/>
</clipPath>
<clipPath id="clip3_4177_47327">
<rect width="24" height="24" fill="white" transform="translate(308 300)"/>
</clipPath>
</defs>
</svg>
