<svg xmlns="http://www.w3.org/2000/svg" xmlns:xlink="http://www.w3.org/1999/xlink" contentStyleType="text/css" data-diagram-type="STATE" height="477px" preserveAspectRatio="none" style="width:374px;height:477px;background:#FFFFFF;" version="1.1" viewBox="0 0 374 477" width="374px" zoomAndPan="magnify"><defs/><g><path d="M17,7 L353.8672,7 A10,10 0 0 1 363.8672,17 L363.8672,30.9688 L7,30.9688 L7,17 A10,10 0 0 1 17,7" fill="#F1F1F1" style="stroke:#F1F1F1;stroke-width:1;"/><rect fill="none" height="352.9688" rx="10" ry="10" style="stroke:#181818;stroke-width:0.5;" width="356.8672" x="7" y="7"/><line style="stroke:#181818;stroke-width:0.5;" x1="7" x2="363.8672" y1="30.9688" y2="30.9688"/><text fill="#000000" font-family="sans-serif" font-size="12" lengthAdjust="spacing" textLength="56.707" x="157.0801" y="23.1387">All States</text><rect fill="#FFA500" height="40" rx="10" ry="10" style="stroke:#181818;stroke-width:0.5;" width="76.6973" x="173.5" y="204.9688"/><text fill="#000000" font-family="sans-serif" font-size="12" lengthAdjust="spacing" textLength="66.6973" x="178.5" y="229.123">Suspended</text><rect fill="#D64545" height="40" rx="10" ry="10" style="stroke:#181818;stroke-width:0.5;" width="62.1133" x="99" y="309.9688"/><text fill="#000000" font-family="sans-serif" font-size="12" lengthAdjust="spacing" textLength="52.1133" x="104" y="334.123">Revoked</text><rect fill="#D64545" height="40" rx="10" ry="10" style="stroke:#181818;stroke-width:0.5;" width="55.5684" x="203" y="309.9688"/><text fill="#000000" font-family="sans-serif" font-size="12" lengthAdjust="spacing" textLength="45.5684" x="208" y="334.123">Expired</text><path d="M29,42.9688 L335,42.9688 A10,10 0 0 1 345,52.9688 L345,66.9375 L19,66.9375 L19,52.9688 A10,10 0 0 1 29,42.9688" fill="#F1F1F1" style="stroke:#F1F1F1;stroke-width:1;"/><rect fill="none" height="97.2988" rx="10" ry="10" style="stroke:#181818;stroke-width:0.5;" width="326" x="19" y="42.9688"/><line style="stroke:#181818;stroke-width:0.5;" x1="19" x2="345" y1="66.9375" y2="66.9375"/><text fill="#000000" font-family="sans-serif" font-size="12" lengthAdjust="spacing" textLength="88.4004" x="137.7998" y="59.1074">Issued or Valid</text><rect fill="#008000" height="40" rx="10" ry="10" style="stroke:#181818;stroke-width:0.5;" width="50" x="287" y="90.2676"/><text fill="#000000" font-family="sans-serif" font-size="12" lengthAdjust="spacing" textLength="29.8477" x="297.0762" y="114.4219">Valid</text><ellipse cx="40" cy="110.2676" fill="#222222" rx="10" ry="10" style="stroke:#222222;stroke-width:1;"/><rect fill="#F1F1F1" height="40" rx="10" ry="10" style="stroke:#181818;stroke-width:0.5;" width="50" x="136" y="90.2676"/><text fill="#000000" font-family="sans-serif" font-size="12" lengthAdjust="spacing" textLength="38.6484" x="141.6758" y="114.4219">Issued</text><!--link *start*IssuedOrValid to Issued--><g class="link" data-entity-1="*start*IssuedOrValid" data-entity-2="Issued" data-source-line="27" data-uid="lnk4" id="link_*start*IssuedOrValid_Issued"><path d="M50.32,110.2676 C69.06,110.2676 103.21,110.2676 129.65,110.2676" fill="none" id="*start*IssuedOrValid-to-Issued" style="stroke:#000000;stroke-width:1;"/><polygon fill="#000000" points="135.65,110.2676,126.65,106.2676,130.65,110.2676,126.65,114.2676,135.65,110.2676" style="stroke:#000000;stroke-width:1;"/><text fill="#000000" font-family="sans-serif" font-size="12" lengthAdjust="spacing" textLength="66.8672" x="60" y="90.4063">PID/(Q)EAA</text><text fill="#000000" font-family="sans-serif" font-size="12" lengthAdjust="spacing" textLength="18.7734" x="84.0469" y="104.375">ISS</text></g><!--link Issued to Valid--><g class="link" data-entity-1="Issued" data-entity-2="Valid" data-source-line="28" data-uid="lnk5" id="link_Issued_Valid"><path d="M186.27,110.2676 C214.23,110.2676 253.01,110.2676 280.9,110.2676" fill="none" id="Issued-to-Valid" style="stroke:#000000;stroke-width:1;"/><polygon fill="#000000" points="286.9,110.2676,277.9,106.2676,281.9,110.2676,277.9,114.2676,286.9,110.2676" style="stroke:#000000;stroke-width:1;"/><text fill="#000000" font-family="sans-serif" font-size="12" lengthAdjust="spacing" textLength="66.8672" x="203.5146" y="90.4063">PID/(Q)EAA</text><text fill="#000000" font-family="sans-serif" font-size="12" lengthAdjust="spacing" textLength="81.8965" x="196" y="104.375">validity starts</text></g><!--link IssuedOrValid to Suspended--><g class="link" data-entity-1="IssuedOrValid" data-entity-2="Suspended" data-source-line="32" data-uid="lnk6" id="link_IssuedOrValid_Suspended"><path d="M150.5,140.1188 C144.24,155.6088 141.79,172.5088 150,186.9688 C155.32,196.3388 158.9089,200.5389 168.1689,206.0289" fill="none" id="IssuedOrValid-to-Suspended" style="stroke:#000000;stroke-width:1;"/><polygon fill="#000000" points="173.33,209.0888,167.6282,201.0582,169.0291,206.5388,163.5484,207.9397,173.33,209.0888" style="stroke:#000000;stroke-width:1;"/><text fill="#000000" font-family="sans-serif" font-size="12" lengthAdjust="spacing" textLength="42.8086" x="151" y="170.1074">(Q)EAA</text><text fill="#000000" font-family="sans-serif" font-size="12" lengthAdjust="spacing" textLength="31.2539" x="156.7773" y="184.0762">SUSP</text></g><!--link IssuedOrValid to Revoked--><g class="link" data-entity-1="IssuedOrValid" data-entity-2="Revoked" data-source-line="33" data-uid="lnk7" id="link_IssuedOrValid_Revoked"><path d="M134.58,140.1088 C119.17,158.7588 104,181.3288 96,204.9688 C83.62,241.5487 100.4956,280.1251 114.6856,304.6551" fill="none" id="IssuedOrValid-to-Revoked" style="stroke:#000000;stroke-width:1;"/><polygon fill="#000000" points="117.69,309.8488,116.6458,300.0554,115.1863,305.5207,109.721,304.0612,117.69,309.8488" style="stroke:#000000;stroke-width:1;"/><text fill="#000000" font-family="sans-serif" font-size="12" lengthAdjust="spacing" textLength="66.8672" x="97" y="222.6074">PID/(Q)EAA</text><text fill="#000000" font-family="sans-serif" font-size="12" lengthAdjust="spacing" textLength="24.1289" x="118.3691" y="236.5762">REV</text></g><!--link IssuedOrValid to Expired--><g class="link" data-entity-1="IssuedOrValid" data-entity-2="Expired" data-source-line="34" data-uid="lnk8" id="link_IssuedOrValid_Expired"><path d="M246.48,140.0688 C251.29,145.6488 255.58,151.6388 259,157.9688 C287.4,210.6388 296.31,237.2888 272,291.9688 C269.04,298.6287 268.5473,300.4325 263.2373,305.5325" fill="none" id="IssuedOrValid-to-Expired" style="stroke:#000000;stroke-width:1;"/><polygon fill="#000000" points="258.91,309.6888,268.1718,306.3393,262.5161,306.2252,262.6302,300.5695,258.91,309.6888" style="stroke:#000000;stroke-width:1;"/><text fill="#000000" font-family="sans-serif" font-size="12" lengthAdjust="spacing" textLength="66.8672" x="287" y="222.6074">PID/(Q)EAA</text><text fill="#000000" font-family="sans-serif" font-size="12" lengthAdjust="spacing" textLength="23.0391" x="308.9141" y="236.5762">EXP</text></g><!--reverse link IssuedOrValid to Suspended--><g class="link" data-entity-1="IssuedOrValid" data-entity-2="Suspended" data-source-line="36" data-uid="lnk10" id="link_IssuedOrValid_Suspended"><path d="M194.254,146.1686 C199.344,168.4886 203.78,187.9488 207.63,204.8188" fill="none" id="IssuedOrValid-backto-Suspended" style="stroke:#000000;stroke-width:1;"/><polygon fill="#000000" points="192.92,140.3188,191.0212,149.9828,194.0317,145.1936,198.8209,148.2041,192.92,140.3188" style="stroke:#000000;stroke-width:1;"/><text fill="#000000" font-family="sans-serif" font-size="12" lengthAdjust="spacing" textLength="42.8086" x="208.1025" y="170.1074">(Q)EAA</text><text fill="#000000" font-family="sans-serif" font-size="12" lengthAdjust="spacing" textLength="49.0137" x="205" y="184.0762">UNSUSP</text></g><!--link Suspended to Revoked--><g class="link" data-entity-1="Suspended" data-entity-2="Revoked" data-source-line="37" data-uid="lnk11" id="link_Suspended_Revoked"><path d="M189.41,244.9887 C183.44,250.4988 177.21,256.7188 172,262.9688 C159.73,277.6688 151.2163,290.9947 143.3663,304.6747" fill="none" id="Suspended-to-Revoked" style="stroke:#000000;stroke-width:1;"/><polygon fill="#000000" points="140.38,309.8787,148.3288,304.0635,142.8685,305.542,141.39,300.0818,140.38,309.8787" style="stroke:#000000;stroke-width:1;"/><text fill="#000000" font-family="sans-serif" font-size="12" lengthAdjust="spacing" textLength="42.8086" x="173" y="275.1074">(Q)EAA</text><text fill="#000000" font-family="sans-serif" font-size="12" lengthAdjust="spacing" textLength="24.1289" x="182.3398" y="289.0762">REV</text></g><!--link Suspended to Expired--><g class="link" data-entity-1="Suspended" data-entity-2="Expired" data-source-line="38" data-uid="lnk12" id="link_Suspended_Expired"><path d="M215.57,245.3388 C218.97,263.7588 222.9617,285.3983 226.3517,303.7783" fill="none" id="Suspended-to-Expired" style="stroke:#000000;stroke-width:1;"/><polygon fill="#000000" points="227.44,309.6788,229.7412,300.1025,226.5331,304.7617,221.8739,301.5536,227.44,309.6788" style="stroke:#000000;stroke-width:1;"/><text fill="#000000" font-family="sans-serif" font-size="12" lengthAdjust="spacing" textLength="42.8086" x="225" y="275.1074">(Q)EAA</text><text fill="#000000" font-family="sans-serif" font-size="12" lengthAdjust="spacing" textLength="23.0391" x="234.8848" y="289.0762">EXP</text></g><ellipse cx="185.5" cy="460" fill="none" rx="11" ry="11" style="stroke:#222222;stroke-width:1;"/><ellipse cx="185.5" cy="460" fill="#222222" rx="6" ry="6" style="stroke:#222222;stroke-width:1;"/><!--link AllStates to *end*--><g class="link" data-entity-1="AllStates" data-entity-2="*end*" data-source-line="43" data-uid="lnk14" id="link_AllStates_*end*"><path d="M185.5,360.29 C185.5,398.62 185.5,426.59 185.5,442.85" fill="none" id="AllStates-to-*end*" style="stroke:#000000;stroke-width:1;"/><polygon fill="#000000" points="185.5,448.85,189.5,439.85,185.5,443.85,181.5,439.85,185.5,448.85" style="stroke:#000000;stroke-width:1;"/><text fill="#000000" font-family="sans-serif" font-size="12" lengthAdjust="spacing" textLength="66.8672" x="186.5" y="402.1387">PID/(Q)EAA</text><text fill="#000000" font-family="sans-serif" font-size="12" lengthAdjust="spacing" textLength="23.5078" x="208.1797" y="416.1074">DEL</text></g><!--SRC=[RP9FRzGm4CNl-HIZxQ60516MBa8z84NTBAnKODkq5H9mSEFfhXMl7NcSbWNrkpFEdoQfcbFovisydyVPAOc0-yeVG28LJbLUMHDvMu6tS6kzjtkGoc7HwD4nn35yHeDEQDR5reaza3zePRPSYgXKfX91b7WdQkrNrlXS_KLuDnyLSoyyfixPXpEhhODRBOhonVeN5BBfV_-yVAuCNkrKKHeaWdd7zbMK28LrJ4WWZ0GcGmBQM-jtwAQCpjP6dZLcc2VGFSUWXTkor8u19wIgQTGMHlf3XL1P7KwENLjD8ubdUrvAXxN4ko1I0AS68hn1gdNUIe9Wnb_jqMW6y2_gF7bD5Hg94evMgtIH99r-YVUs3EhomydYPD6fsP-ARsjGs_Wh9mofS8LDU3zwJLIZ_EvkX5QoGMWLu2jfj1bZG4lT2d2K91yJPc3vvvlV43krtVduKpSAJc6pNhvzTV4wIzDVPftdmCQkzkHj9qsjzq5J_1jocFCKFJBa52-Mzi5mzx2FK-Yxy-jyyzpErdv5qwZBx0PUCFURcvgp7vie6YBZkdewRDyyO5n_Qq16zWd4161g6i97mH0rQnX-adu5OVDJp6Ls_Xy0]--></g></svg>