<svg width="1440" height="791" viewBox="0 0 1440 791" fill="none" xmlns="http://www.w3.org/2000/svg">
<g clip-path="url(#clip0_4158_91127)">
<rect width="1440" height="790" fill="white"/>
<rect width="1440" height="48" fill="#004D99"/>
<path d="M73.19 29V19.312H79.084V20.264H74.268V23.61H78.244V24.548H74.268V28.048H79.084V29H73.19ZM81.7963 29H80.7463V22H81.7823V22.49C82.5383 22.07 83.2616 21.86 83.9523 21.86C84.8856 21.86 85.5109 22.112 85.8283 22.616C86.1549 23.12 86.3183 24.016 86.3183 25.304V29H85.2823V25.332C85.2823 24.3613 85.1843 23.6987 84.9883 23.344C84.8016 22.98 84.3956 22.798 83.7703 22.798C83.4716 22.798 83.1543 22.8447 82.8183 22.938C82.4916 23.022 82.2396 23.106 82.0623 23.19L81.7963 23.316V29ZM91.8508 22.91H89.6248V26.256C89.6248 27.0587 89.6808 27.586 89.7928 27.838C89.9141 28.09 90.1941 28.216 90.6328 28.216L91.8788 28.132L91.9488 29C91.3235 29.1027 90.8475 29.154 90.5208 29.154C89.7928 29.154 89.2888 28.9767 89.0088 28.622C88.7288 28.2673 88.5888 27.5907 88.5888 26.592V22.91H87.5948V22H88.5888V19.858H89.6248V22H91.8508V22.91ZM97.893 28.132L98.299 28.09L98.327 28.916C97.263 29.0653 96.353 29.14 95.597 29.14C94.589 29.14 93.875 28.8507 93.455 28.272C93.035 27.684 92.825 26.774 92.825 25.542C92.825 23.0873 93.8003 21.86 95.751 21.86C96.6937 21.86 97.3983 22.126 97.865 22.658C98.3317 23.1807 98.565 24.0067 98.565 25.136L98.509 25.934H93.889C93.889 26.7087 94.029 27.2827 94.309 27.656C94.589 28.0293 95.0743 28.216 95.765 28.216C96.465 28.216 97.1743 28.188 97.893 28.132ZM97.515 25.094C97.515 24.2353 97.375 23.6287 97.095 23.274C96.8243 22.9193 96.3763 22.742 95.751 22.742C95.135 22.742 94.6683 22.9287 94.351 23.302C94.043 23.6753 93.8843 24.2727 93.875 25.094H97.515ZM108.22 24.114V27.698C108.248 28.0433 108.518 28.2487 109.032 28.314L108.99 29.14C108.252 29.14 107.697 28.9533 107.324 28.58C106.484 28.9533 105.644 29.14 104.804 29.14C104.16 29.14 103.67 28.958 103.334 28.594C102.998 28.23 102.83 27.7073 102.83 27.026C102.83 26.3447 103.002 25.8453 103.348 25.528C103.693 25.2013 104.234 25.0007 104.972 24.926L107.17 24.716V24.114C107.17 23.638 107.067 23.2973 106.862 23.092C106.656 22.8867 106.376 22.784 106.022 22.784C105.275 22.784 104.5 22.8307 103.698 22.924L103.264 22.966L103.222 22.168C104.248 21.9627 105.158 21.86 105.952 21.86C106.745 21.86 107.319 22.042 107.674 22.406C108.038 22.77 108.22 23.3393 108.22 24.114ZM103.908 26.97C103.908 27.8287 104.262 28.258 104.972 28.258C105.606 28.258 106.232 28.1507 106.848 27.936L107.17 27.824V25.514L105.098 25.71C104.678 25.7473 104.374 25.8687 104.188 26.074C104.001 26.2793 103.908 26.578 103.908 26.97ZM110.291 32.108V22H111.327V22.504C112.037 22.0747 112.737 21.86 113.427 21.86C114.314 21.86 114.958 22.1447 115.359 22.714C115.761 23.274 115.961 24.2027 115.961 25.5C115.961 26.7973 115.723 27.7307 115.247 28.3C114.781 28.86 114.001 29.14 112.909 29.14C112.34 29.14 111.817 29.0887 111.341 28.986V32.108H110.291ZM113.273 22.798C112.993 22.798 112.69 22.8447 112.363 22.938C112.046 23.0313 111.794 23.1247 111.607 23.218L111.341 23.358V28.076C112.004 28.1787 112.508 28.23 112.853 28.23C113.609 28.23 114.137 28.0153 114.435 27.586C114.743 27.1567 114.897 26.4567 114.897 25.486C114.897 24.5153 114.757 23.8247 114.477 23.414C114.207 23.0033 113.805 22.798 113.273 22.798ZM117.674 32.108V22H118.71V22.504C119.419 22.0747 120.119 21.86 120.81 21.86C121.697 21.86 122.341 22.1447 122.742 22.714C123.143 23.274 123.344 24.2027 123.344 25.5C123.344 26.7973 123.106 27.7307 122.63 28.3C122.163 28.86 121.384 29.14 120.292 29.14C119.723 29.14 119.2 29.0887 118.724 28.986V32.108H117.674ZM120.656 22.798C120.376 22.798 120.073 22.8447 119.746 22.938C119.429 23.0313 119.177 23.1247 118.99 23.218L118.724 23.358V28.076C119.387 28.1787 119.891 28.23 120.236 28.23C120.992 28.23 121.519 28.0153 121.818 27.586C122.126 27.1567 122.28 26.4567 122.28 25.486C122.28 24.5153 122.14 23.8247 121.86 23.414C121.589 23.0033 121.188 22.798 120.656 22.798ZM129.999 24.114V27.698C130.027 28.0433 130.297 28.2487 130.811 28.314L130.769 29.14C130.031 29.14 129.476 28.9533 129.103 28.58C128.263 28.9533 127.423 29.14 126.583 29.14C125.939 29.14 125.449 28.958 125.113 28.594C124.777 28.23 124.609 27.7073 124.609 27.026C124.609 26.3447 124.781 25.8453 125.127 25.528C125.472 25.2013 126.013 25.0007 126.751 24.926L128.949 24.716V24.114C128.949 23.638 128.846 23.2973 128.641 23.092C128.435 22.8867 128.155 22.784 127.801 22.784C127.054 22.784 126.279 22.8307 125.477 22.924L125.043 22.966L125.001 22.168C126.027 21.9627 126.937 21.86 127.731 21.86C128.524 21.86 129.098 22.042 129.453 22.406C129.817 22.77 129.999 23.3393 129.999 24.114ZM125.687 26.97C125.687 27.8287 126.041 28.258 126.751 28.258C127.385 28.258 128.011 28.1507 128.627 27.936L128.949 27.824V25.514L126.877 25.71C126.457 25.7473 126.153 25.8687 125.967 26.074C125.78 26.2793 125.687 26.578 125.687 26.97ZM132.071 29V22H133.107V22.952C133.919 22.392 134.773 22.0233 135.669 21.846V22.91C135.277 22.9847 134.866 23.1013 134.437 23.26C134.017 23.4187 133.695 23.5587 133.471 23.68L133.12 23.862V29H132.071ZM140.536 22.91H138.31V26.256C138.31 27.0587 138.366 27.586 138.478 27.838C138.6 28.09 138.88 28.216 139.318 28.216L140.564 28.132L140.634 29C140.009 29.1027 139.533 29.154 139.206 29.154C138.478 29.154 137.974 28.9767 137.694 28.622C137.414 28.2673 137.274 27.5907 137.274 26.592V22.91H136.28V22H137.274V19.858H138.31V22H140.536V22.91ZM146.579 28.132L146.985 28.09L147.013 28.916C145.949 29.0653 145.039 29.14 144.283 29.14C143.275 29.14 142.561 28.8507 142.141 28.272C141.721 27.684 141.511 26.774 141.511 25.542C141.511 23.0873 142.486 21.86 144.437 21.86C145.379 21.86 146.084 22.126 146.551 22.658C147.017 23.1807 147.251 24.0067 147.251 25.136L147.195 25.934H142.575C142.575 26.7087 142.715 27.2827 142.995 27.656C143.275 28.0293 143.76 28.216 144.451 28.216C145.151 28.216 145.86 28.188 146.579 28.132ZM146.201 25.094C146.201 24.2353 146.061 23.6287 145.781 23.274C145.51 22.9193 145.062 22.742 144.437 22.742C143.821 22.742 143.354 22.9287 143.037 23.302C142.729 23.6753 142.57 24.2727 142.561 25.094H146.201ZM149.937 29H148.887V22H149.923V22.49C150.679 22.07 151.402 21.86 152.093 21.86C153.026 21.86 153.652 22.112 153.969 22.616C154.296 23.12 154.459 24.016 154.459 25.304V29H153.423V25.332C153.423 24.3613 153.325 23.6987 153.129 23.344C152.942 22.98 152.536 22.798 151.911 22.798C151.612 22.798 151.295 22.8447 150.959 22.938C150.632 23.022 150.38 23.106 150.203 23.19L149.937 23.316V29ZM161.166 28.132L161.572 28.09L161.6 28.916C160.536 29.0653 159.626 29.14 158.87 29.14C157.862 29.14 157.148 28.8507 156.728 28.272C156.308 27.684 156.098 26.774 156.098 25.542C156.098 23.0873 157.074 21.86 159.024 21.86C159.967 21.86 160.672 22.126 161.138 22.658C161.605 23.1807 161.838 24.0067 161.838 25.136L161.782 25.934H157.162C157.162 26.7087 157.302 27.2827 157.582 27.656C157.862 28.0293 158.348 28.216 159.038 28.216C159.738 28.216 160.448 28.188 161.166 28.132ZM160.788 25.094C160.788 24.2353 160.648 23.6287 160.368 23.274C160.098 22.9193 159.65 22.742 159.024 22.742C158.408 22.742 157.942 22.9287 157.624 23.302C157.316 23.6753 157.158 24.2727 157.148 25.094H160.788ZM164.525 29H163.475V22H164.511V22.49C165.267 22.07 165.99 21.86 166.681 21.86C167.614 21.86 168.239 22.112 168.557 22.616C168.883 23.12 169.047 24.016 169.047 25.304V29H168.011V25.332C168.011 24.3613 167.913 23.6987 167.717 23.344C167.53 22.98 167.124 22.798 166.499 22.798C166.2 22.798 165.883 22.8447 165.547 22.938C165.22 23.022 164.968 23.106 164.791 23.19L164.525 23.316V29ZM170.574 22.938V22H175.768V22.938L171.848 28.062H175.768V29H170.574V28.062L174.494 22.938H170.574ZM182.307 24.114V27.698C182.335 28.0433 182.606 28.2487 183.119 28.314L183.077 29.14C182.34 29.14 181.785 28.9533 181.411 28.58C180.571 28.9533 179.731 29.14 178.891 29.14C178.247 29.14 177.757 28.958 177.421 28.594C177.085 28.23 176.917 27.7073 176.917 27.026C176.917 26.3447 177.09 25.8453 177.435 25.528C177.781 25.2013 178.322 25.0007 179.059 24.926L181.257 24.716V24.114C181.257 23.638 181.155 23.2973 180.949 23.092C180.744 22.8867 180.464 22.784 180.109 22.784C179.363 22.784 178.588 22.8307 177.785 22.924L177.351 22.966L177.309 22.168C178.336 21.9627 179.246 21.86 180.039 21.86C180.833 21.86 181.407 22.042 181.761 22.406C182.125 22.77 182.307 23.3393 182.307 24.114ZM177.995 26.97C177.995 27.8287 178.35 28.258 179.059 28.258C179.694 28.258 180.319 28.1507 180.935 27.936L181.257 27.824V25.514L179.185 25.71C178.765 25.7473 178.462 25.8687 178.275 26.074C178.089 26.2793 177.995 26.578 177.995 26.97Z" fill="white"/>
<g clip-path="url(#clip1_4158_91127)">
<path d="M1322.11 29V19.41H1323.66V29H1322.11ZM1324.94 20.796V19.41H1331.94V20.796H1329.24V29H1327.67V20.796H1324.94ZM1331.83 29L1334.2 19.41H1337.29L1339.67 29H1338.11L1337.59 26.942H1333.91L1333.39 29H1331.83ZM1335.4 20.712L1334.21 25.57H1337.28L1336.1 20.712H1335.4Z" fill="white"/>
<path d="M1356 27.1998L1350.4 21.5998L1351.1 20.7998L1356 25.6998L1360.9 20.7998L1361.6 21.5998L1356 27.1998Z" fill="white"/>
</g>
<rect width="1440" height="93" transform="translate(0 47.999)" fill="#F2F7FC"/>
<rect x="72.5" y="72.499" width="155.768" height="44" fill="#F2F7FC"/>
<rect x="72.5" y="72.499" width="155.768" height="44" stroke="#C5C7C9"/>
<line x1="72.9301" y1="72.5496" x2="228.124" y2="115.79" stroke="#C5C7C9"/>
<path d="M197.716 98.7794C198.136 99.5074 198.913 99.8714 200.047 99.8714C201.181 99.8714 201.951 99.5074 202.357 98.7794C202.777 98.0374 202.987 96.8054 202.987 95.0834C202.987 93.3474 202.777 92.0874 202.357 91.3034C201.937 90.5194 201.167 90.1274 200.047 90.1274C198.927 90.1274 198.157 90.5194 197.737 91.3034C197.317 92.0874 197.107 93.3474 197.107 95.0834C197.107 96.8054 197.31 98.0374 197.716 98.7794ZM204.625 100.627C203.743 101.803 202.217 102.391 200.047 102.391C197.877 102.391 196.344 101.803 195.448 100.627C194.566 99.4374 194.125 97.5824 194.125 95.0624C194.125 92.5424 194.566 90.6734 195.448 89.4554C196.344 88.2234 197.877 87.6074 200.047 87.6074C202.217 87.6074 203.743 88.2234 204.625 89.4554C205.521 90.6734 205.969 92.5424 205.969 95.0624C205.969 97.5824 205.521 99.4374 204.625 100.627Z" fill="black"/>
<path d="M187.86 97.0154V94.4954H192.018V101.908C190.016 102.23 188.392 102.391 187.146 102.391C184.92 102.391 183.387 101.796 182.547 100.606C181.721 99.4164 181.308 97.5264 181.308 94.9364C181.308 92.3464 181.742 90.4774 182.61 89.3294C183.478 88.1814 184.955 87.6074 187.041 87.6074C188.343 87.6074 189.75 87.7544 191.262 88.0484L192.018 88.1954L191.934 90.4424C190.254 90.2604 188.875 90.1694 187.797 90.1694C186.733 90.1694 185.984 90.2954 185.55 90.5474C185.116 90.7994 184.794 91.2684 184.584 91.9544C184.388 92.6264 184.29 93.7884 184.29 95.4404C184.29 97.0784 184.493 98.2264 184.899 98.8844C185.305 99.5424 186.145 99.8714 187.419 99.8714L189.162 99.7874V97.0154H187.86Z" fill="black"/>
<path d="M171.179 98.7794C171.599 99.5074 172.376 99.8714 173.51 99.8714C174.644 99.8714 175.414 99.5074 175.82 98.7794C176.24 98.0374 176.45 96.8054 176.45 95.0834C176.45 93.3474 176.24 92.0874 175.82 91.3034C175.4 90.5194 174.63 90.1274 173.51 90.1274C172.39 90.1274 171.62 90.5194 171.2 91.3034C170.78 92.0874 170.57 93.3474 170.57 95.0834C170.57 96.8054 170.773 98.0374 171.179 98.7794ZM178.088 100.627C177.206 101.803 175.68 102.391 173.51 102.391C171.34 102.391 169.807 101.803 168.911 100.627C168.029 99.4374 167.588 97.5824 167.588 95.0624C167.588 92.5424 168.029 90.6734 168.911 89.4554C169.807 88.2234 171.34 87.6074 173.51 87.6074C175.68 87.6074 177.206 88.2234 178.088 89.4554C178.984 90.6734 179.432 92.5424 179.432 95.0624C179.432 97.5824 178.984 99.4374 178.088 100.627Z" fill="black"/>
<path d="M166.563 102.139H158.436V87.8594H161.334V99.5774H166.563V102.139Z" fill="black"/>
<path d="M143.083 98.7794C143.503 99.5074 144.28 99.8714 145.414 99.8714C146.548 99.8714 147.318 99.5074 147.724 98.7794C148.144 98.0374 148.354 96.8054 148.354 95.0834C148.354 93.3474 148.144 92.0874 147.724 91.3034C147.304 90.5194 146.534 90.1274 145.414 90.1274C144.294 90.1274 143.524 90.5194 143.104 91.3034C142.684 92.0874 142.474 93.3474 142.474 95.0834C142.474 96.8054 142.677 98.0374 143.083 98.7794ZM149.992 100.627C149.11 101.803 147.584 102.391 145.414 102.391C143.244 102.391 141.711 101.803 140.815 100.627C139.933 99.4374 139.492 97.5824 139.492 95.0624C139.492 92.5424 139.933 90.6734 140.815 89.4554C141.711 88.2234 143.244 87.6074 145.414 87.6074C147.584 87.6074 149.11 88.2234 149.992 89.4554C150.888 90.6734 151.336 92.5424 151.336 95.0624C151.336 97.5824 150.888 99.4374 149.992 100.627Z" fill="black"/>
<path d="M129.154 97.4144C129.154 99.0804 130.001 99.9134 131.695 99.9134C133.389 99.9134 134.236 99.0804 134.236 97.4144V87.9014H137.134V97.3514C137.134 99.1014 136.679 100.389 135.769 101.215C134.873 102.027 133.515 102.433 131.695 102.433C129.875 102.433 128.51 102.027 127.6 101.215C126.704 100.389 126.256 99.1014 126.256 97.3514V87.9014H129.154V97.4144Z" fill="black"/>
<path d="M114.047 90.4214V87.8594H124.547V90.4214H120.767V102.139H117.869V90.4214H114.047Z" fill="black"/>
<path d="M108.936 102.139H100.809V87.8594H103.707V99.5774H108.936V102.139Z" fill="black"/>
<path d="M94.7998 102.139V87.8594H97.6978V102.139H94.7998Z" fill="black"/>
<path d="M252.769 59.999V128.999" stroke="#C5C7C9" stroke-linejoin="round"/>
<path d="M288.796 78.499C288.996 78.4978 289.202 78.5465 289.396 78.6563L302.18 85.8272C303.105 86.3459 303.537 87.1831 303.537 88.1436L303.528 108.387C303.528 109.092 302.953 109.6 302.32 109.605C302.12 109.606 301.914 109.556 301.719 109.446L293.695 104.946V92.1543C293.695 91.1938 293.264 90.3529 292.338 89.8379L288.049 87.4502V109.282C288.049 109.988 287.473 110.494 286.841 110.499C286.641 110.5 286.435 110.451 286.239 110.341L278.126 105.778C277.201 105.26 276.769 104.423 276.769 103.462L276.788 82.1729C276.789 81.4675 277.364 80.9612 277.996 80.9561C278.196 80.9549 278.403 81.0035 278.599 81.1133L287.623 86.1748L287.588 79.7158C287.584 79.0105 288.164 78.5041 288.796 78.499ZM381.396 88.9971C385.874 88.9971 388.463 91.2507 388.463 95.0821V100.03C388.463 100.663 388.74 100.971 389.203 100.971H389.801L389.799 100.974C390.026 100.974 390.196 101.147 390.196 101.374V104.557C390.196 104.784 390.035 104.955 389.808 104.955H386.982C385.751 104.955 384.738 104.509 384.147 103.81C382.811 104.852 381.112 105.38 379.3 105.38C375.886 105.38 373.864 103.51 373.864 100.3C373.864 97.2643 375.672 95.7227 379.657 95.4541L383.453 95.1973V94.5723C383.452 93.2762 382.553 92.5576 381.069 92.5576C380.037 92.5577 379.362 92.9078 379.045 93.5069C378.906 93.7681 378.771 93.8584 378.533 93.8584H374.294C374.055 93.8583 373.897 93.7201 373.894 93.5176C373.891 93.3907 373.952 93.1994 374.058 92.9483C375.071 90.556 377.707 88.9972 381.396 88.9971ZM415.526 88.9971C420.278 88.9971 423.132 91.8921 423.132 96.4483V97.9531C423.132 98.1801 422.961 98.3534 422.734 98.3535H412.578C412.71 100.231 413.541 101.76 415.688 101.76C416.696 101.76 417.502 101.421 417.914 100.776C418.071 100.531 418.216 100.459 418.354 100.459H422.421C422.744 100.459 422.852 100.655 422.854 100.871C422.855 100.994 422.818 101.125 422.735 101.341C421.76 103.881 419.361 105.38 415.788 105.38C410.715 105.38 407.729 102.311 407.729 97.1778C407.729 92.0445 410.655 88.9977 415.526 88.9971ZM373.747 83.6192V83.6201C374.002 83.6201 374.21 83.8599 374.166 84.1114L370.569 104.619C370.535 104.817 370.364 104.956 370.164 104.956H364.048C363.854 104.956 363.692 104.824 363.65 104.635L360.383 89.6436H360.088L356.82 104.635C356.779 104.824 356.614 104.956 356.421 104.956H350.304C350.105 104.956 349.937 104.816 349.902 104.619L346.305 84.1114C346.261 83.8599 346.467 83.6201 346.722 83.6201H350.76C350.961 83.6201 351.134 83.774 351.167 83.9717L353.591 98.4727H353.855L356.953 83.9551C356.995 83.7648 357.17 83.6204 357.364 83.6201H363.307C363.502 83.6202 363.661 83.7647 363.701 83.9551L366.737 98.5H367L369.457 83.9727C369.49 83.7739 369.651 83.6192 369.853 83.6192H373.747ZM319.086 83.6182C319.313 83.6182 319.484 83.7849 319.484 84.0117V104.557C319.484 104.784 319.312 104.955 319.085 104.955H314.563C314.337 104.955 314.165 104.784 314.165 104.557L314.156 84.0137C314.156 83.7868 314.337 83.6194 314.563 83.6192H319.086V83.6182ZM337.841 83.6182C338.069 83.6185 338.239 83.8192 338.239 84.0459V87.5723H338.238C338.238 87.8004 338.068 87.9997 337.841 88H332.209V104.556C332.209 104.783 332.008 104.954 331.781 104.954H327.315C327.088 104.954 326.89 104.779 326.89 104.552V87.9981H321.255C321.028 87.998 320.858 87.7983 320.858 87.5713V84.044C320.858 83.8169 321.031 83.6182 321.258 83.6182H337.841ZM396.068 83.6192C396.296 83.6193 396.467 83.7899 396.467 84.0166V99.9492C396.467 100.584 396.831 100.971 397.466 100.971H398.43C398.657 100.971 398.855 101.139 398.855 101.366V104.559C398.855 104.785 398.676 104.954 398.449 104.954H396.244C392.918 104.955 391.317 103.482 391.317 100.459V84.0166C391.318 83.7898 391.489 83.6192 391.716 83.6192H396.068ZM404.604 83.6192C404.831 83.6192 405.014 83.7898 405.015 84.0166V99.9492C405.015 100.584 405.366 100.971 406.001 100.971H406.967C407.194 100.971 407.405 101.15 407.405 101.377V104.559C407.405 104.785 407.213 104.954 406.986 104.954H404.78C401.454 104.955 399.854 103.482 399.854 100.459V84.0166C399.855 83.7899 400.025 83.6193 400.252 83.6192H404.604ZM430.311 85.1826C430.537 85.1828 430.709 85.3534 430.709 85.5801V89.4219H433.326C433.554 89.4219 433.754 89.5925 433.754 89.8194V93.0049C433.754 93.233 433.58 93.4032 433.354 93.4033H430.709V99.9483C430.709 100.583 431.07 100.97 431.704 100.97H433.355C433.582 100.97 433.754 101.17 433.754 101.397V104.555C433.754 104.782 433.581 104.952 433.354 104.952H431.109C427.428 104.952 425.589 103.14 425.589 99.5489V93.4033H423.768C423.54 93.4031 423.37 93.2308 423.37 93.0039V89.8194C423.37 89.5925 423.569 89.421 423.796 89.4209H425.588V85.5879C425.588 85.361 425.783 85.1829 426.01 85.1826H430.311ZM380.746 98.5313C379.283 98.6411 378.754 99.1659 378.754 100.09C378.754 101.126 379.418 101.76 380.775 101.76C381.613 101.76 382.522 101.52 383.456 100.915H383.457V98.3272L380.746 98.5313ZM344.951 94.2578L344.953 94.2588C345.18 94.259 345.352 94.4304 345.352 94.6572V98.0137C345.351 98.2406 345.177 98.4112 344.95 98.4112H336.769C336.54 98.4111 336.363 98.2416 336.361 98.0147V94.6533C336.361 94.4251 336.531 94.2549 336.758 94.2549L344.951 94.2578ZM415.525 92.2549C413.77 92.2549 412.609 93.333 412.598 95.0918H418.344C418.369 93.3195 417.281 92.2549 415.525 92.2549Z" fill="#0066CC"/>
<rect width="1440" height="459.604" transform="translate(0 172.999)" fill="white"/>
<path d="M562.364 230.879C563.004 231.988 564.188 232.543 565.916 232.543C567.644 232.543 568.818 231.988 569.436 230.879C570.076 229.748 570.396 227.871 570.396 225.247C570.396 222.602 570.076 220.682 569.436 219.487C568.796 218.292 567.623 217.695 565.916 217.695C564.21 217.695 563.036 218.292 562.396 219.487C561.756 220.682 561.436 222.602 561.436 225.247C561.436 227.871 561.746 229.748 562.364 230.879ZM572.892 233.695C571.548 235.487 569.223 236.383 565.916 236.383C562.61 236.383 560.274 235.487 558.908 233.695C557.564 231.882 556.892 229.055 556.892 225.215C556.892 221.375 557.564 218.527 558.908 216.671C560.274 214.794 562.61 213.855 565.916 213.855C569.223 213.855 571.548 214.794 572.892 216.671C574.258 218.527 574.94 221.375 574.94 225.215C574.94 229.055 574.258 231.882 572.892 233.695ZM578.343 242.719V219.999H582.599V220.863C583.986 220.031 585.202 219.615 586.247 219.615C588.402 219.615 589.991 220.266 591.015 221.567C592.039 222.847 592.551 225.034 592.551 228.127C592.551 231.22 591.986 233.375 590.855 234.591C589.725 235.786 587.869 236.383 585.287 236.383C584.583 236.383 583.826 236.319 583.015 236.191L582.631 236.127V242.719H578.343ZM585.415 223.455C584.626 223.455 583.826 223.615 583.015 223.935L582.631 224.095V232.479C583.591 232.607 584.37 232.671 584.967 232.671C586.205 232.671 587.047 232.308 587.495 231.583C587.965 230.858 588.199 229.62 588.199 227.871C588.199 224.927 587.271 223.455 585.415 223.455ZM599.27 229.823C599.291 230.804 599.547 231.519 600.038 231.967C600.55 232.394 601.275 232.607 602.214 232.607C604.198 232.607 605.968 232.543 607.526 232.415L608.422 232.319L608.486 235.487C606.032 236.084 603.814 236.383 601.83 236.383C599.419 236.383 597.67 235.743 596.582 234.463C595.494 233.183 594.95 231.103 594.95 228.223C594.95 222.484 597.307 219.615 602.022 219.615C606.672 219.615 608.998 222.026 608.998 226.847L608.678 229.823H599.27ZM604.774 226.559C604.774 225.279 604.571 224.394 604.166 223.903C603.76 223.391 603.046 223.135 602.022 223.135C601.019 223.135 600.304 223.402 599.878 223.935C599.472 224.447 599.259 225.322 599.238 226.559H604.774ZM612.062 235.999V219.999H616.318V221.695C618.11 220.628 619.817 219.935 621.438 219.615V223.935C619.71 224.298 618.227 224.671 616.99 225.055L616.35 225.279V235.999H612.062ZM636.224 224.991V231.647C636.267 232.159 636.352 232.522 636.48 232.735C636.608 232.927 636.875 233.066 637.28 233.151L637.152 236.383C636.064 236.383 635.19 236.308 634.528 236.159C633.888 236.01 633.238 235.711 632.576 235.263C631.04 236.01 629.472 236.383 627.872 236.383C624.566 236.383 622.912 234.634 622.912 231.135C622.912 229.428 623.371 228.223 624.288 227.519C625.206 226.794 626.614 226.367 628.512 226.239L631.936 225.983V224.991C631.936 224.33 631.787 223.882 631.488 223.647C631.19 223.391 630.71 223.263 630.048 223.263L624.032 223.519L623.904 220.543C626.187 219.924 628.352 219.615 630.4 219.615C632.47 219.615 633.952 220.042 634.848 220.895C635.766 221.748 636.224 223.114 636.224 224.991ZM629.024 229.215C627.83 229.322 627.232 229.962 627.232 231.135C627.232 232.308 627.755 232.895 628.8 232.895C629.611 232.895 630.496 232.767 631.456 232.511L631.936 232.383V228.959L629.024 229.215ZM639.64 223.839V219.999H651.512V223.839L644.792 232.159H651.512V235.999H639.64V232.159L646.36 223.839H639.64ZM654.843 235.999V219.999H659.131V235.999H654.843ZM654.843 217.951V213.599H659.131V217.951H654.843ZM663.957 221.823C665.088 220.351 666.976 219.615 669.621 219.615C672.267 219.615 674.155 220.351 675.285 221.823C676.416 223.274 676.981 225.322 676.981 227.967C676.981 233.578 674.528 236.383 669.621 236.383C664.715 236.383 662.261 233.578 662.261 227.967C662.261 225.322 662.827 223.274 663.957 221.823ZM667.253 231.583C667.701 232.351 668.491 232.735 669.621 232.735C670.752 232.735 671.531 232.351 671.957 231.583C672.405 230.815 672.629 229.61 672.629 227.967C672.629 226.324 672.405 225.13 671.957 224.383C671.531 223.636 670.752 223.263 669.621 223.263C668.491 223.263 667.701 223.636 667.253 224.383C666.827 225.13 666.613 226.324 666.613 227.967C666.613 229.61 666.827 230.815 667.253 231.583ZM684.413 235.999H680.125V219.999H684.381V220.895C685.831 220.042 687.165 219.615 688.381 219.615C690.514 219.615 691.986 220.244 692.797 221.503C693.607 222.762 694.013 224.703 694.013 227.327V235.999H689.725V227.455C689.725 226.09 689.565 225.087 689.245 224.447C688.925 223.786 688.285 223.455 687.325 223.455C686.45 223.455 685.607 223.604 684.797 223.903L684.413 224.031V235.999ZM701.332 229.823C701.353 230.804 701.609 231.519 702.1 231.967C702.612 232.394 703.337 232.607 704.276 232.607C706.26 232.607 708.031 232.543 709.588 232.415L710.484 232.319L710.548 235.487C708.095 236.084 705.876 236.383 703.892 236.383C701.481 236.383 699.732 235.743 698.644 234.463C697.556 233.183 697.012 231.103 697.012 228.223C697.012 222.484 699.369 219.615 704.084 219.615C708.735 219.615 711.06 222.026 711.06 226.847L710.74 229.823H701.332ZM706.836 226.559C706.836 225.279 706.633 224.394 706.228 223.903C705.823 223.391 705.108 223.135 704.084 223.135C703.081 223.135 702.367 223.402 701.94 223.935C701.535 224.447 701.321 225.322 701.3 226.559H706.836ZM727.14 219.615C728.249 219.615 729.668 219.786 731.396 220.127L732.26 220.319L732.132 223.711C730.447 223.54 729.199 223.455 728.388 223.455C726.916 223.455 725.935 223.775 725.444 224.415C724.975 225.034 724.74 226.218 724.74 227.967C724.74 229.716 724.975 230.922 725.444 231.583C725.935 232.223 726.927 232.543 728.42 232.543L732.132 232.287L732.26 235.711C729.977 236.159 728.239 236.383 727.044 236.383C724.676 236.383 722.969 235.722 721.924 234.399C720.9 233.055 720.388 230.911 720.388 227.967C720.388 225.023 720.921 222.9 721.988 221.599C723.055 220.276 724.772 219.615 727.14 219.615ZM736.176 221.823C737.307 220.351 739.195 219.615 741.84 219.615C744.485 219.615 746.373 220.351 747.504 221.823C748.635 223.274 749.2 225.322 749.2 227.967C749.2 233.578 746.747 236.383 741.84 236.383C736.933 236.383 734.48 233.578 734.48 227.967C734.48 225.322 735.045 223.274 736.176 221.823ZM739.472 231.583C739.92 232.351 740.709 232.735 741.84 232.735C742.971 232.735 743.749 232.351 744.176 231.583C744.624 230.815 744.848 229.61 744.848 227.967C744.848 226.324 744.624 225.13 744.176 224.383C743.749 223.636 742.971 223.263 741.84 223.263C740.709 223.263 739.92 223.636 739.472 224.383C739.045 225.13 738.832 226.324 738.832 227.967C738.832 229.61 739.045 230.815 739.472 231.583ZM756.631 235.999H752.343V219.999H756.599V220.895C758.071 220.042 759.33 219.615 760.375 219.615C762.103 219.615 763.437 220.116 764.375 221.119C766.338 220.116 768.13 219.615 769.751 219.615C771.863 219.615 773.325 220.234 774.135 221.471C774.967 222.687 775.383 224.639 775.383 227.327V235.999H771.095V227.455C771.095 226.09 770.946 225.087 770.647 224.447C770.349 223.786 769.751 223.455 768.855 223.455C768.173 223.455 767.341 223.604 766.359 223.903L765.879 224.063C765.965 225.663 766.007 226.879 766.007 227.711V235.999H761.719V227.775C761.719 226.196 761.581 225.087 761.303 224.447C761.026 223.786 760.418 223.455 759.479 223.455C758.647 223.455 757.826 223.604 757.015 223.903L756.631 224.031V235.999ZM779.187 242.719V219.999H783.443V220.863C784.83 220.031 786.046 219.615 787.091 219.615C789.246 219.615 790.835 220.266 791.859 221.567C792.883 222.847 793.395 225.034 793.395 228.127C793.395 231.22 792.83 233.375 791.699 234.591C790.568 235.786 788.712 236.383 786.131 236.383C785.427 236.383 784.67 236.319 783.859 236.191L783.475 236.127V242.719H779.187ZM786.259 223.455C785.47 223.455 784.67 223.615 783.859 223.935L783.475 224.095V232.479C784.435 232.607 785.214 232.671 785.811 232.671C787.048 232.671 787.891 232.308 788.339 231.583C788.808 230.858 789.043 229.62 789.043 227.871C789.043 224.927 788.115 223.455 786.259 223.455ZM796.785 235.999V213.599H801.073V235.999H796.785ZM808.738 229.823C808.76 230.804 809.016 231.519 809.506 231.967C810.018 232.394 810.744 232.607 811.682 232.607C813.666 232.607 815.437 232.543 816.994 232.415L817.89 232.319L817.954 235.487C815.501 236.084 813.282 236.383 811.298 236.383C808.888 236.383 807.138 235.743 806.05 234.463C804.962 233.183 804.418 231.103 804.418 228.223C804.418 222.484 806.776 219.615 811.49 219.615C816.141 219.615 818.466 222.026 818.466 226.847L818.146 229.823H808.738ZM814.242 226.559C814.242 225.279 814.04 224.394 813.634 223.903C813.229 223.391 812.514 223.135 811.49 223.135C810.488 223.135 809.773 223.402 809.346 223.935C808.941 224.447 808.728 225.322 808.706 226.559H814.242ZM830.395 223.647H826.459V230.207C826.459 230.847 826.47 231.306 826.491 231.583C826.534 231.839 826.651 232.063 826.843 232.255C827.056 232.447 827.376 232.543 827.803 232.543L830.235 232.479L830.427 235.903C828.998 236.223 827.91 236.383 827.163 236.383C825.243 236.383 823.931 235.956 823.227 235.103C822.523 234.228 822.171 232.628 822.171 230.303V223.647H820.283V219.999H822.171V215.551H826.459V219.999H830.395V223.647ZM845.443 224.991V231.647C845.486 232.159 845.571 232.522 845.699 232.735C845.827 232.927 846.094 233.066 846.499 233.151L846.371 236.383C845.283 236.383 844.408 236.308 843.747 236.159C843.107 236.01 842.456 235.711 841.795 235.263C840.259 236.01 838.691 236.383 837.091 236.383C833.784 236.383 832.131 234.634 832.131 231.135C832.131 229.428 832.59 228.223 833.507 227.519C834.424 226.794 835.832 226.367 837.731 226.239L841.155 225.983V224.991C841.155 224.33 841.006 223.882 840.707 223.647C840.408 223.391 839.928 223.263 839.267 223.263L833.251 223.519L833.123 220.543C835.406 219.924 837.571 219.615 839.619 219.615C841.688 219.615 843.171 220.042 844.067 220.895C844.984 221.748 845.443 223.114 845.443 224.991ZM838.243 229.215C837.048 229.322 836.451 229.962 836.451 231.135C836.451 232.308 836.974 232.895 838.019 232.895C838.83 232.895 839.715 232.767 840.675 232.511L841.155 232.383V228.959L838.243 229.215ZM858.395 223.647H854.459V230.207C854.459 230.847 854.47 231.306 854.491 231.583C854.534 231.839 854.651 232.063 854.843 232.255C855.056 232.447 855.376 232.543 855.803 232.543L858.235 232.479L858.427 235.903C856.998 236.223 855.91 236.383 855.163 236.383C853.243 236.383 851.931 235.956 851.227 235.103C850.523 234.228 850.171 232.628 850.171 230.303V223.647H848.283V219.999H850.171V215.551H854.459V219.999H858.395V223.647ZM873.443 224.991V231.647C873.486 232.159 873.571 232.522 873.699 232.735C873.827 232.927 874.094 233.066 874.499 233.151L874.371 236.383C873.283 236.383 872.408 236.308 871.747 236.159C871.107 236.01 870.456 235.711 869.795 235.263C868.259 236.01 866.691 236.383 865.091 236.383C861.784 236.383 860.131 234.634 860.131 231.135C860.131 229.428 860.59 228.223 861.507 227.519C862.424 226.794 863.832 226.367 865.731 226.239L869.155 225.983V224.991C869.155 224.33 869.006 223.882 868.707 223.647C868.408 223.391 867.928 223.263 867.267 223.263L861.251 223.519L861.123 220.543C863.406 219.924 865.571 219.615 867.619 219.615C869.688 219.615 871.171 220.042 872.067 220.895C872.984 221.748 873.443 223.114 873.443 224.991ZM866.243 229.215C865.048 229.322 864.451 229.962 864.451 231.135C864.451 232.308 864.974 232.895 866.019 232.895C866.83 232.895 867.715 232.767 868.675 232.511L869.155 232.383V228.959L866.243 229.215ZM877.723 235.999V230.847H882.331V235.999H877.723ZM878.139 227.999L877.723 214.239H882.363L881.915 227.999H878.139Z" fill="#17324D"/>
<path d="M742.867 406.493C721.603 392.219 707.935 360.605 712.333 335.879C716.731 311.153 737.539 302.681 758.797 316.955C780.061 331.229 793.729 362.843 789.331 387.569C784.933 412.295 764.125 420.767 742.867 406.493Z" fill="#0066CC"/>
<path d="M732.6 412.127C711.336 397.853 697.668 366.239 702.066 341.513C706.464 316.787 727.272 308.315 748.53 322.589C769.794 336.863 783.462 368.477 779.064 393.203C774.666 417.929 753.858 426.401 732.6 412.127Z" fill="#FFB458"/>
<path d="M722.676 417.965C701.412 403.691 687.744 372.077 692.142 347.351C696.54 322.625 717.348 314.153 738.606 328.427C759.87 342.701 773.538 374.315 769.14 399.041C764.742 423.767 743.934 432.239 722.676 417.965Z" fill="#7AC1FA"/>
<path d="M737.611 390.684L734.641 388.968C734.245 388.74 733.735 388.872 733.501 389.262C730.615 394.098 727.915 394.656 723.415 392.484C718.975 390.348 715.993 384.834 715.471 378.894C715.405 378.174 714.985 377.532 714.361 377.172L711.619 375.588C711.265 375.384 710.809 375.642 710.821 376.056C711.079 384.078 714.631 392.544 721.015 396.396C727.987 400.602 733.651 398.31 737.977 392.388C738.391 391.824 738.217 391.026 737.611 390.678V390.684Z" fill="#003366"/>
<path d="M711.859 368.417L714.787 370.109C715.489 370.517 716.365 370.007 716.365 369.197V353.003C716.365 352.247 715.963 351.557 715.309 351.179L712.381 349.487C711.679 349.079 710.803 349.589 710.803 350.399V366.593C710.803 367.349 711.205 368.039 711.859 368.417Z" fill="#003366"/>
<path d="M739.777 363.563L736.849 361.871C736.147 361.463 735.271 361.973 735.271 362.783V378.977C735.271 379.733 735.673 380.423 736.327 380.801L739.255 382.493C739.957 382.901 740.833 382.391 740.833 381.581V365.387C740.833 364.631 740.431 363.941 739.777 363.563Z" fill="#003366"/>
<path d="M669.499 420.947C669.055 419.345 668.851 417.701 668.791 415.811C668.665 412.067 668.539 408.323 668.425 404.579C668.317 401.117 668.233 397.661 668.125 394.199C668.095 393.269 668.035 392.345 668.191 391.415C668.557 389.249 670.627 387.311 672.817 387.119C673.945 387.017 673.759 387.209 673.873 386.099C674.185 383.147 674.485 380.195 674.743 377.237C674.845 376.067 674.857 374.891 675.241 373.757C676.393 370.319 681.055 369.077 683.761 371.483C686.503 373.805 685.549 376.661 685.345 379.763C685.339 379.859 685.315 379.967 685.501 380.093C686.449 376.847 687.163 373.571 688.141 370.337C690.355 363.419 700.429 366.467 698.515 373.391C696.781 379.793 695.173 386.051 693.367 392.459C698.935 389.225 705.757 389.627 710.401 394.253C712.861 396.647 714.517 399.533 715.171 402.905C715.681 405.545 715.387 408.119 713.587 410.273C709.681 414.953 705.601 408.425 704.521 404.747C702.121 397.823 696.679 402.077 695.641 407.231C694.933 410.045 695.359 414.257 697.561 416.351C699.283 417.983 702.187 417.893 704.101 416.645C707.161 414.731 712.327 409.247 714.685 414.851C716.023 418.433 715.219 421.625 712.741 424.439C710.779 426.665 708.907 427.319 706.243 428.135C703.117 429.095 700.057 431.651 697.261 433.343C693.919 435.359 690.409 437.435 686.515 437.675C682.879 437.897 680.167 436.205 678.103 433.409C675.925 430.463 672.991 428.441 671.167 425.057C670.399 423.635 669.859 422.303 669.487 420.947H669.499Z" fill="#FFB458"/>
<path d="M691.638 435.479C691.638 426.671 684.498 415.409 675.69 410.321C670.59 407.375 666.054 407.153 663.132 409.193L653.562 414.803C650.586 415.985 648.738 418.961 648.738 423.443C648.738 432.251 655.878 443.513 664.686 448.601C669.21 451.211 673.284 451.679 676.188 450.335C676.566 450.161 676.926 449.951 677.262 449.717L687.492 443.813C687.534 443.789 687.576 443.759 687.624 443.735L687.696 443.693C690.15 442.307 691.638 439.493 691.638 435.479Z" fill="#0066CC"/>
<path d="M619.542 538.801C618.306 539.053 617.196 539.179 616.212 539.179C615.228 539.179 614.43 539.047 613.818 538.783C613.218 538.507 612.75 538.087 612.414 537.523C612.09 536.947 611.862 536.293 611.73 535.561C611.61 534.817 611.55 533.893 611.55 532.789C611.55 531.685 611.61 530.761 611.73 530.017C611.862 529.261 612.09 528.595 612.414 528.019C612.75 527.443 613.218 527.023 613.818 526.759C614.418 526.495 615.198 526.363 616.158 526.363C617.118 526.363 618.246 526.495 619.542 526.759L619.488 527.929C618.276 527.713 617.196 527.605 616.248 527.605C614.928 527.605 614.052 528.001 613.62 528.793C613.2 529.573 612.99 530.911 612.99 532.807C612.99 533.755 613.026 534.517 613.098 535.093C613.182 535.669 613.338 536.191 613.566 536.659C613.794 537.115 614.124 537.445 614.556 537.649C615 537.841 615.642 537.937 616.482 537.937C617.334 537.937 618.336 537.829 619.488 537.613L619.542 538.801ZM621.004 534.481C621.004 532.837 621.298 531.649 621.886 530.917C622.474 530.185 623.464 529.819 624.856 529.819C626.26 529.819 627.25 530.185 627.826 530.917C628.414 531.649 628.708 532.837 628.708 534.481C628.708 536.125 628.432 537.319 627.88 538.063C627.328 538.807 626.32 539.179 624.856 539.179C623.392 539.179 622.384 538.807 621.832 538.063C621.28 537.319 621.004 536.125 621.004 534.481ZM622.39 534.463C622.39 535.771 622.546 536.689 622.858 537.217C623.182 537.745 623.848 538.009 624.856 538.009C625.876 538.009 626.542 537.751 626.854 537.235C627.166 536.707 627.322 535.783 627.322 534.463C627.322 533.143 627.148 532.237 626.8 531.745C626.452 531.241 625.804 530.989 624.856 530.989C623.92 530.989 623.272 531.241 622.912 531.745C622.564 532.237 622.39 533.143 622.39 534.463ZM632.259 538.999H630.909V529.999H632.241V530.629C633.213 530.089 634.143 529.819 635.031 529.819C636.231 529.819 637.035 530.143 637.443 530.791C637.863 531.439 638.073 532.591 638.073 534.247V538.999H636.741V534.283C636.741 533.035 636.615 532.183 636.363 531.727C636.123 531.259 635.601 531.025 634.797 531.025C634.413 531.025 634.005 531.085 633.573 531.205C633.153 531.313 632.829 531.421 632.601 531.529L632.259 531.691V538.999ZM645.187 531.169H642.325V535.471C642.325 536.503 642.397 537.181 642.541 537.505C642.697 537.829 643.057 537.991 643.621 537.991L645.223 537.883L645.313 538.999C644.509 539.131 643.897 539.197 643.477 539.197C642.541 539.197 641.893 538.969 641.533 538.513C641.173 538.057 640.993 537.187 640.993 535.903V531.169H639.715V529.999H640.993V527.245H642.325V529.999H645.187V531.169ZM646.835 538.999V529.999H648.185V538.999H646.835ZM646.835 527.965V526.399H648.185V527.965H646.835ZM652.123 538.999H650.773V529.999H652.105V530.629C653.077 530.089 654.007 529.819 654.895 529.819C656.095 529.819 656.899 530.143 657.307 530.791C657.727 531.439 657.937 532.591 657.937 534.247V538.999H656.605V534.283C656.605 533.035 656.479 532.183 656.227 531.727C655.987 531.259 655.465 531.025 654.661 531.025C654.277 531.025 653.869 531.085 653.437 531.205C653.017 531.313 652.693 531.421 652.465 531.529L652.123 531.691V538.999ZM666.057 529.999H667.407V538.999H666.057V538.369C665.157 538.909 664.269 539.179 663.393 539.179C662.169 539.179 661.353 538.861 660.945 538.225C660.549 537.589 660.351 536.413 660.351 534.697V529.999H661.701V534.679C661.701 535.987 661.815 536.863 662.043 537.307C662.271 537.751 662.787 537.973 663.591 537.973C663.987 537.973 664.389 537.919 664.797 537.811C665.205 537.691 665.517 537.577 665.733 537.469L666.057 537.307V529.999ZM676.357 532.717V537.325C676.393 537.769 676.741 538.033 677.401 538.117L677.347 539.179C676.399 539.179 675.685 538.939 675.205 538.459C674.125 538.939 673.045 539.179 671.965 539.179C671.137 539.179 670.507 538.945 670.075 538.477C669.643 538.009 669.427 537.337 669.427 536.461C669.427 535.585 669.649 534.943 670.093 534.535C670.537 534.115 671.233 533.857 672.181 533.761L675.007 533.491V532.717C675.007 532.105 674.875 531.667 674.611 531.403C674.347 531.139 673.987 531.007 673.531 531.007C672.571 531.007 671.575 531.067 670.543 531.187L669.985 531.241L669.931 530.215C671.251 529.951 672.421 529.819 673.441 529.819C674.461 529.819 675.199 530.053 675.655 530.521C676.123 530.989 676.357 531.721 676.357 532.717ZM670.813 536.389C670.813 537.493 671.269 538.045 672.181 538.045C672.997 538.045 673.801 537.907 674.593 537.631L675.007 537.487V534.517L672.343 534.769C671.803 534.817 671.413 534.973 671.173 535.237C670.933 535.501 670.813 535.885 670.813 536.389ZM685.802 531.025C684.494 531.025 683.84 531.481 683.84 532.393C683.84 532.813 683.99 533.113 684.29 533.293C684.59 533.461 685.274 533.641 686.342 533.833C687.41 534.013 688.166 534.271 688.61 534.607C689.054 534.943 689.276 535.573 689.276 536.497C689.276 537.421 688.976 538.099 688.376 538.531C687.788 538.963 686.924 539.179 685.784 539.179C685.04 539.179 684.164 539.095 683.156 538.927L682.616 538.837L682.688 537.667C684.056 537.871 685.088 537.973 685.784 537.973C686.48 537.973 687.008 537.865 687.368 537.649C687.74 537.421 687.926 537.049 687.926 536.533C687.926 536.005 687.77 535.651 687.458 535.471C687.146 535.279 686.462 535.099 685.406 534.931C684.35 534.763 683.6 534.517 683.156 534.193C682.712 533.869 682.49 533.269 682.49 532.393C682.49 531.517 682.796 530.869 683.408 530.449C684.032 530.029 684.806 529.819 685.73 529.819C686.462 529.819 687.38 529.903 688.484 530.071L688.988 530.161L688.952 531.313C687.62 531.121 686.57 531.025 685.802 531.025ZM696.959 529.999H698.309V538.999H696.959V538.369C696.059 538.909 695.171 539.179 694.295 539.179C693.071 539.179 692.255 538.861 691.847 538.225C691.451 537.589 691.253 536.413 691.253 534.697V529.999H692.603V534.679C692.603 535.987 692.717 536.863 692.945 537.307C693.173 537.751 693.689 537.973 694.493 537.973C694.889 537.973 695.291 537.919 695.699 537.811C696.107 537.691 696.419 537.577 696.635 537.469L696.959 537.307V529.999ZM701.013 538.999V526.075H702.363V538.999H701.013ZM711.852 531.025C710.544 531.025 709.89 531.481 709.89 532.393C709.89 532.813 710.04 533.113 710.34 533.293C710.64 533.461 711.324 533.641 712.392 533.833C713.46 534.013 714.216 534.271 714.66 534.607C715.104 534.943 715.326 535.573 715.326 536.497C715.326 537.421 715.026 538.099 714.426 538.531C713.838 538.963 712.974 539.179 711.834 539.179C711.09 539.179 710.214 539.095 709.206 538.927L708.666 538.837L708.738 537.667C710.106 537.871 711.138 537.973 711.834 537.973C712.53 537.973 713.058 537.865 713.418 537.649C713.79 537.421 713.976 537.049 713.976 536.533C713.976 536.005 713.82 535.651 713.508 535.471C713.196 535.279 712.512 535.099 711.456 534.931C710.4 534.763 709.65 534.517 709.206 534.193C708.762 533.869 708.54 533.269 708.54 532.393C708.54 531.517 708.846 530.869 709.458 530.449C710.082 530.029 710.856 529.819 711.78 529.819C712.512 529.819 713.43 529.903 714.534 530.071L715.038 530.161L715.002 531.313C713.67 531.121 712.62 531.025 711.852 531.025ZM717.394 538.999V529.999H718.744V538.999H717.394ZM717.394 527.965V526.399H718.744V527.965H717.394ZM725.993 531.169H723.131V535.471C723.131 536.503 723.203 537.181 723.347 537.505C723.503 537.829 723.863 537.991 724.427 537.991L726.029 537.883L726.119 538.999C725.315 539.131 724.703 539.197 724.283 539.197C723.347 539.197 722.699 538.969 722.339 538.513C721.979 538.057 721.799 537.187 721.799 535.903V531.169H720.521V529.999H721.799V527.245H723.131V529.999H725.993V531.169ZM727.246 534.481C727.246 532.837 727.54 531.649 728.128 530.917C728.716 530.185 729.706 529.819 731.098 529.819C732.502 529.819 733.492 530.185 734.068 530.917C734.656 531.649 734.95 532.837 734.95 534.481C734.95 536.125 734.674 537.319 734.122 538.063C733.57 538.807 732.562 539.179 731.098 539.179C729.634 539.179 728.626 538.807 728.074 538.063C727.522 537.319 727.246 536.125 727.246 534.481ZM728.632 534.463C728.632 535.771 728.788 536.689 729.1 537.217C729.424 537.745 730.09 538.009 731.098 538.009C732.118 538.009 732.784 537.751 733.096 537.235C733.408 536.707 733.564 535.783 733.564 534.463C733.564 533.143 733.39 532.237 733.042 531.745C732.694 531.241 732.046 530.989 731.098 530.989C730.162 530.989 729.514 531.241 729.154 531.745C728.806 532.237 728.632 533.143 728.632 534.463ZM744.329 528.631L744.455 530.935C744.455 531.691 744.329 532.231 744.077 532.555C743.837 532.879 743.291 533.143 742.439 533.347C743.279 533.551 743.825 533.839 744.077 534.211C744.341 534.571 744.473 535.135 744.473 535.903L744.347 538.009C744.347 538.417 744.431 538.735 744.599 538.963C744.779 539.191 745.121 539.323 745.625 539.359V541.411C744.293 541.363 743.351 541.105 742.799 540.637C742.259 540.169 741.989 539.395 741.989 538.315L742.115 536.137C742.115 535.261 741.443 534.649 740.099 534.301V532.429C741.443 532.117 742.115 531.553 742.115 530.737L741.989 528.451C741.989 527.311 742.259 526.513 742.799 526.057C743.351 525.601 744.305 525.349 745.661 525.301V527.353C745.145 527.401 744.791 527.527 744.599 527.731C744.419 527.935 744.329 528.235 744.329 528.631ZM749.842 538.999H747.43V529.999H749.824V530.503C750.64 530.023 751.39 529.783 752.074 529.783C753.274 529.783 754.102 530.137 754.558 530.845C755.014 531.553 755.242 532.645 755.242 534.121V538.999H752.83V534.193C752.83 533.425 752.74 532.861 752.56 532.501C752.38 532.129 752.02 531.943 751.48 531.943C750.988 531.943 750.514 532.027 750.058 532.195L749.842 532.267V538.999ZM757.866 531.025C758.502 530.197 759.564 529.783 761.052 529.783C762.54 529.783 763.602 530.197 764.238 531.025C764.874 531.841 765.192 532.993 765.192 534.481C765.192 537.637 763.812 539.215 761.052 539.215C758.292 539.215 756.912 537.637 756.912 534.481C756.912 532.993 757.23 531.841 757.866 531.025ZM759.72 536.515C759.972 536.947 760.416 537.163 761.052 537.163C761.688 537.163 762.126 536.947 762.366 536.515C762.618 536.083 762.744 535.405 762.744 534.481C762.744 533.557 762.618 532.885 762.366 532.465C762.126 532.045 761.688 531.835 761.052 531.835C760.416 531.835 759.972 532.045 759.72 532.465C759.48 532.885 759.36 533.557 759.36 534.481C759.36 535.405 759.48 536.083 759.72 536.515ZM769.372 538.999H766.96V529.999H769.354V530.503C770.182 530.023 770.89 529.783 771.478 529.783C772.45 529.783 773.2 530.065 773.728 530.629C774.832 530.065 775.84 529.783 776.752 529.783C777.94 529.783 778.762 530.131 779.218 530.827C779.686 531.511 779.92 532.609 779.92 534.121V538.999H777.508V534.193C777.508 533.425 777.424 532.861 777.256 532.501C777.088 532.129 776.752 531.943 776.248 531.943C775.864 531.943 775.396 532.027 774.844 532.195L774.574 532.285C774.622 533.185 774.646 533.869 774.646 534.337V538.999H772.234V534.373C772.234 533.485 772.156 532.861 772 532.501C771.844 532.129 771.502 531.943 770.974 531.943C770.506 531.943 770.044 532.027 769.588 532.195L769.372 532.267V538.999ZM784.039 535.525C784.051 536.077 784.195 536.479 784.471 536.731C784.759 536.971 785.167 537.091 785.695 537.091C786.811 537.091 787.807 537.055 788.683 536.983L789.187 536.929L789.223 538.711C787.843 539.047 786.595 539.215 785.479 539.215C784.123 539.215 783.139 538.855 782.527 538.135C781.915 537.415 781.609 536.245 781.609 534.625C781.609 531.397 782.935 529.783 785.587 529.783C788.203 529.783 789.511 531.139 789.511 533.851L789.331 535.525H784.039ZM787.135 533.689C787.135 532.969 787.021 532.471 786.793 532.195C786.565 531.907 786.163 531.763 785.587 531.763C785.023 531.763 784.621 531.913 784.381 532.213C784.153 532.501 784.033 532.993 784.021 533.689H787.135ZM801.652 532.249C800.164 532.057 799.12 531.961 798.52 531.961C797.932 531.961 797.548 532.015 797.368 532.123C797.2 532.231 797.116 532.405 797.116 532.645C797.116 532.873 797.23 533.035 797.458 533.131C797.698 533.215 798.298 533.347 799.258 533.527C800.23 533.695 800.92 533.977 801.328 534.373C801.736 534.769 801.94 535.411 801.94 536.299C801.94 538.243 800.734 539.215 798.322 539.215C797.53 539.215 796.57 539.107 795.442 538.891L794.866 538.783L794.938 536.767C796.426 536.959 797.458 537.055 798.034 537.055C798.622 537.055 799.018 537.001 799.222 536.893C799.438 536.773 799.546 536.599 799.546 536.371C799.546 536.143 799.432 535.975 799.204 535.867C798.988 535.759 798.412 535.627 797.476 535.471C796.552 535.315 795.862 535.051 795.406 534.679C794.95 534.307 794.722 533.647 794.722 532.699C794.722 531.739 795.046 531.019 795.694 530.539C796.342 530.047 797.176 529.801 798.196 529.801C798.904 529.801 799.87 529.915 801.094 530.143L801.688 530.251L801.652 532.249ZM803.68 538.999V529.999H806.092V538.999H803.68ZM803.68 528.847V526.399H806.092V528.847H803.68ZM813.307 532.051H811.093V535.741C811.093 536.101 811.099 536.359 811.111 536.515C811.135 536.659 811.201 536.785 811.309 536.893C811.429 537.001 811.609 537.055 811.849 537.055L813.217 537.019L813.325 538.945C812.521 539.125 811.909 539.215 811.489 539.215C810.409 539.215 809.671 538.975 809.275 538.495C808.879 538.003 808.681 537.103 808.681 535.795V532.051H807.619V529.999H808.681V527.497H811.093V529.999H813.307V532.051ZM815.364 531.025C816 530.197 817.062 529.783 818.55 529.783C820.038 529.783 821.1 530.197 821.736 531.025C822.372 531.841 822.69 532.993 822.69 534.481C822.69 537.637 821.31 539.215 818.55 539.215C815.79 539.215 814.41 537.637 814.41 534.481C814.41 532.993 814.728 531.841 815.364 531.025ZM817.218 536.515C817.47 536.947 817.914 537.163 818.55 537.163C819.186 537.163 819.624 536.947 819.864 536.515C820.116 536.083 820.242 535.405 820.242 534.481C820.242 533.557 820.116 532.885 819.864 532.465C819.624 532.045 819.186 531.835 818.55 531.835C817.914 531.835 817.47 532.045 817.218 532.465C816.978 532.885 816.858 533.557 816.858 534.481C816.858 535.405 816.978 536.083 817.218 536.515ZM824.97 538.009L824.844 535.903C824.844 535.135 824.97 534.571 825.222 534.211C825.486 533.839 826.038 533.551 826.878 533.347C826.026 533.143 825.474 532.879 825.222 532.555C824.982 532.231 824.862 531.691 824.862 530.935L824.988 528.631C824.988 528.235 824.892 527.935 824.7 527.731C824.52 527.527 824.172 527.401 823.656 527.353V525.301C825.012 525.349 825.96 525.601 826.5 526.057C827.052 526.513 827.328 527.311 827.328 528.451L827.202 530.737C827.202 531.553 827.874 532.117 829.218 532.429V534.301C827.874 534.649 827.202 535.261 827.202 536.137L827.328 538.315C827.328 539.395 827.052 540.169 826.5 540.637C825.96 541.105 825.024 541.363 823.692 541.411V539.359C824.196 539.323 824.532 539.191 824.7 538.963C824.88 538.735 824.97 538.417 824.97 538.009Z" fill="#17324D"/>
<rect x="665.5" y="593.999" width="109" height="48" rx="4" fill="#0066CC"/>
<path d="M694.491 624.175C692.891 624.175 691.803 623.732 691.227 622.847C690.662 621.962 690.379 620.506 690.379 618.479C690.379 616.452 690.667 615.012 691.243 614.159C691.819 613.295 692.902 612.863 694.491 612.863C695.44 612.863 696.486 612.996 697.627 613.263L697.563 614.703C696.603 614.532 695.643 614.447 694.683 614.447C693.723 614.447 693.072 614.735 692.731 615.311C692.39 615.876 692.219 616.948 692.219 618.527C692.219 620.095 692.384 621.167 692.715 621.743C693.046 622.308 693.691 622.591 694.651 622.591C695.611 622.591 696.582 622.511 697.563 622.351L697.611 623.823C696.512 624.058 695.472 624.175 694.491 624.175ZM699.597 616.863C700.152 616.17 701.069 615.823 702.349 615.823C703.629 615.823 704.541 616.17 705.085 616.863C705.64 617.556 705.917 618.596 705.917 619.983C705.917 621.37 705.651 622.415 705.117 623.119C704.584 623.823 703.661 624.175 702.349 624.175C701.037 624.175 700.115 623.823 699.581 623.119C699.048 622.415 698.781 621.37 698.781 619.983C698.781 618.596 699.053 617.556 699.597 616.863ZM700.909 622.063C701.155 622.49 701.635 622.703 702.349 622.703C703.064 622.703 703.544 622.49 703.789 622.063C704.035 621.636 704.157 620.938 704.157 619.967C704.157 618.996 704.024 618.308 703.757 617.903C703.501 617.498 703.032 617.295 702.349 617.295C701.667 617.295 701.192 617.498 700.925 617.903C700.669 618.308 700.541 618.996 700.541 619.967C700.541 620.938 700.664 621.636 700.909 622.063ZM709.394 623.999H707.65V615.999H709.378V616.495C710.156 616.047 710.892 615.823 711.586 615.823C712.652 615.823 713.378 616.127 713.762 616.735C714.156 617.332 714.354 618.324 714.354 619.711V623.999H712.626V619.759C712.626 618.895 712.53 618.282 712.338 617.919C712.156 617.556 711.778 617.375 711.202 617.375C710.658 617.375 710.135 617.482 709.634 617.695L709.394 617.791V623.999ZM720.688 617.487H718.48V621.007C718.48 621.658 718.528 622.09 718.624 622.303C718.72 622.516 718.965 622.623 719.36 622.623L720.672 622.575L720.752 623.967C720.037 624.106 719.493 624.175 719.12 624.175C718.213 624.175 717.589 623.967 717.248 623.551C716.917 623.135 716.752 622.351 716.752 621.199V617.487H715.728V615.999H716.752V613.679H718.48V615.999H720.688V617.487ZM722.118 623.999V615.999H723.863V623.999H722.118ZM722.118 614.639V612.799H723.863V614.639H722.118ZM727.722 623.999H725.978V615.999H727.706V616.495C728.485 616.047 729.221 615.823 729.914 615.823C730.981 615.823 731.706 616.127 732.09 616.735C732.485 617.332 732.682 618.324 732.682 619.711V623.999H730.954V619.759C730.954 618.895 730.858 618.282 730.666 617.919C730.485 617.556 730.106 617.375 729.53 617.375C728.986 617.375 728.463 617.482 727.962 617.695L727.722 617.791V623.999ZM739.56 615.999H741.288V623.999H739.56V623.503C738.782 623.951 738.062 624.175 737.4 624.175C736.302 624.175 735.566 623.882 735.192 623.295C734.819 622.698 734.632 621.658 734.632 620.175V615.999H736.376V620.191C736.376 621.151 736.456 621.796 736.616 622.127C736.776 622.458 737.15 622.623 737.736 622.623C738.312 622.623 738.84 622.516 739.32 622.303L739.56 622.207V615.999ZM749.32 618.463V622.111C749.33 622.346 749.389 622.522 749.496 622.639C749.613 622.746 749.789 622.815 750.024 622.847L749.976 624.175C749.058 624.175 748.349 623.978 747.848 623.583C746.994 623.978 746.136 624.175 745.272 624.175C743.682 624.175 742.888 623.327 742.888 621.631C742.888 620.82 743.101 620.234 743.528 619.871C743.965 619.508 744.632 619.29 745.528 619.215L747.592 619.039V618.463C747.592 618.036 747.496 617.738 747.304 617.567C747.122 617.396 746.85 617.311 746.488 617.311C745.805 617.311 744.952 617.354 743.928 617.439L743.416 617.471L743.352 616.239C744.514 615.962 745.581 615.823 746.552 615.823C747.533 615.823 748.237 616.036 748.664 616.463C749.101 616.879 749.32 617.546 749.32 618.463ZM745.736 620.447C745 620.511 744.632 620.911 744.632 621.647C744.632 622.383 744.957 622.751 745.608 622.751C746.141 622.751 746.706 622.666 747.304 622.495L747.592 622.399V620.271L745.736 620.447Z" fill="white"/>
<rect width="1440" height="64" transform="translate(0 725.999)" fill="#003366"/>
<mask id="path-30-inside-1_4158_91127" fill="white">
<path d="M0 725.999H1440V789.999H0V725.999Z"/>
</mask>
<path d="M0 725.999H1440V789.999H0V725.999Z" fill="#003366"/>
<path d="M0 725.999V726.999H1440V725.999V724.999H0V725.999Z" fill="white" fill-opacity="0.5" mask="url(#path-30-inside-1_4158_91127)"/>
<path d="M25.106 762.999V753.409H27.822L30.734 761.627H30.944V753.409H32.498V762.999H29.838L26.856 754.767H26.66V762.999H25.106ZM34.8176 756.755C35.303 756.148 36.1056 755.845 37.2256 755.845C38.3456 755.845 39.1436 756.148 39.6196 756.755C40.105 757.362 40.3476 758.272 40.3476 759.485C40.3476 760.698 40.1143 761.613 39.6476 762.229C39.181 762.845 38.3736 763.153 37.2256 763.153C36.0776 763.153 35.2703 762.845 34.8036 762.229C34.337 761.613 34.1036 760.698 34.1036 759.485C34.1036 758.272 34.3416 757.362 34.8176 756.755ZM35.9656 761.305C36.1803 761.678 36.6003 761.865 37.2256 761.865C37.851 761.865 38.271 761.678 38.4856 761.305C38.7003 760.932 38.8076 760.32 38.8076 759.471C38.8076 758.622 38.691 758.02 38.4576 757.665C38.2336 757.31 37.823 757.133 37.2256 757.133C36.6283 757.133 36.213 757.31 35.9796 757.665C35.7556 758.02 35.6436 758.622 35.6436 759.471C35.6436 760.32 35.751 760.932 35.9656 761.305ZM45.6295 757.301H43.6975V760.381C43.6975 760.95 43.7395 761.328 43.8235 761.515C43.9075 761.702 44.1221 761.795 44.4675 761.795L45.6155 761.753L45.6855 762.971C45.0601 763.092 44.5841 763.153 44.2575 763.153C43.4641 763.153 42.9181 762.971 42.6195 762.607C42.3301 762.243 42.1855 761.557 42.1855 760.549V757.301H41.2895V755.999H42.1855V753.969H43.6975V755.999H45.6295V757.301ZM51.865 761.739L52.257 761.697L52.285 762.831C51.221 763.046 50.2784 763.153 49.457 763.153C48.421 763.153 47.6744 762.868 47.217 762.299C46.769 761.73 46.545 760.82 46.545 759.569C46.545 757.086 47.5577 755.845 49.583 755.845C51.543 755.845 52.523 756.914 52.523 759.051L52.425 760.143H48.085C48.0944 760.722 48.2204 761.146 48.463 761.417C48.7057 761.688 49.1584 761.823 49.821 761.823C50.4837 761.823 51.165 761.795 51.865 761.739ZM51.025 758.967C51.025 758.276 50.913 757.796 50.689 757.525C50.4744 757.245 50.1057 757.105 49.583 757.105C49.0604 757.105 48.6777 757.25 48.435 757.539C48.2017 757.828 48.0804 758.304 48.071 758.967H51.025ZM62.6246 762.999H57.2486V753.409H58.8026V761.613H62.6246V762.999ZM68.6951 761.739L69.0871 761.697L69.1151 762.831C68.0511 763.046 67.1084 763.153 66.2871 763.153C65.2511 763.153 64.5044 762.868 64.0471 762.299C63.5991 761.73 63.3751 760.82 63.3751 759.569C63.3751 757.086 64.3878 755.845 66.4131 755.845C68.3731 755.845 69.3531 756.914 69.3531 759.051L69.2551 760.143H64.9151C64.9244 760.722 65.0504 761.146 65.2931 761.417C65.5358 761.688 65.9884 761.823 66.6511 761.823C67.3138 761.823 67.9951 761.795 68.6951 761.739ZM67.8551 758.967C67.8551 758.276 67.7431 757.796 67.5191 757.525C67.3044 757.245 66.9358 757.105 66.4131 757.105C65.8904 757.105 65.5078 757.25 65.2651 757.539C65.0318 757.828 64.9104 758.304 64.9011 758.967H67.8551ZM76.9385 763.951C76.9385 765.482 75.8325 766.247 73.6205 766.247C72.5565 766.247 71.7678 766.102 71.2545 765.813C70.7412 765.524 70.4845 764.996 70.4845 764.231C70.4845 763.886 70.5685 763.587 70.7365 763.335C70.9045 763.092 71.1752 762.826 71.5485 762.537C71.2405 762.332 71.0865 761.991 71.0865 761.515C71.0865 761.328 71.2125 761.025 71.4645 760.605L71.5905 760.395C70.9185 759.994 70.5825 759.294 70.5825 758.295C70.5825 757.455 70.8345 756.839 71.3385 756.447C71.8425 756.055 72.5238 755.859 73.3825 755.859C73.7932 755.859 74.1992 755.906 74.6005 755.999L74.8105 756.041L76.9805 755.985V757.217L75.8185 757.147C76.0705 757.474 76.1965 757.856 76.1965 758.295C76.1965 759.21 75.9632 759.844 75.4965 760.199C75.0392 760.544 74.3205 760.717 73.3405 760.717C73.0978 760.717 72.8925 760.698 72.7245 760.661C72.5938 760.978 72.5285 761.226 72.5285 761.403C72.5285 761.571 72.6125 761.688 72.7805 761.753C72.9578 761.818 73.3778 761.856 74.0405 761.865C75.1512 761.874 75.9118 762.024 76.3225 762.313C76.7332 762.602 76.9385 763.148 76.9385 763.951ZM71.9825 764.091C71.9825 764.418 72.1132 764.651 72.3745 764.791C72.6358 764.931 73.0838 765.001 73.7185 765.001C74.8478 765.001 75.4125 764.679 75.4125 764.035C75.4125 763.671 75.3098 763.438 75.1045 763.335C74.9085 763.242 74.5118 763.19 73.9145 763.181L72.5425 763.097C72.3372 763.265 72.1925 763.419 72.1085 763.559C72.0245 763.708 71.9825 763.886 71.9825 764.091ZM72.0945 758.295C72.0945 758.724 72.1972 759.042 72.4025 759.247C72.6078 759.443 72.9392 759.541 73.3965 759.541C73.8538 759.541 74.1805 759.443 74.3765 759.247C74.5818 759.042 74.6845 758.724 74.6845 758.295C74.6845 757.866 74.5818 757.553 74.3765 757.357C74.1712 757.152 73.8398 757.049 73.3825 757.049C72.5238 757.049 72.0945 757.464 72.0945 758.295ZM83.356 758.155V761.347C83.3653 761.552 83.4166 761.706 83.51 761.809C83.6126 761.902 83.7666 761.963 83.972 761.991L83.93 763.153C83.1273 763.153 82.5066 762.98 82.068 762.635C81.3213 762.98 80.57 763.153 79.814 763.153C78.4233 763.153 77.728 762.411 77.728 760.927C77.728 760.218 77.9146 759.704 78.288 759.387C78.6706 759.07 79.254 758.878 80.038 758.813L81.844 758.659V758.155C81.844 757.782 81.76 757.52 81.592 757.371C81.4333 757.222 81.1953 757.147 80.878 757.147C80.2806 757.147 79.534 757.184 78.638 757.259L78.19 757.287L78.134 756.209C79.1513 755.966 80.0846 755.845 80.934 755.845C81.7926 755.845 82.4086 756.032 82.782 756.405C83.1646 756.769 83.356 757.352 83.356 758.155ZM80.22 759.891C79.576 759.947 79.254 760.297 79.254 760.941C79.254 761.585 79.5386 761.907 80.108 761.907C80.5746 761.907 81.0693 761.832 81.592 761.683L81.844 761.599V759.737L80.22 759.891ZM85.3557 762.999V753.087H86.8817V762.999H85.3557ZM88.8127 762.999V755.999H90.3387V762.999H88.8127ZM88.8127 754.809V753.199H90.3387V754.809H88.8127Z" fill="white"/>
<path d="M24 764.539H91.2627V764.959H24V764.539Z" fill="white"/>
<path d="M120.62 760.017H118.66V762.999H117.106V753.409H120.62C122.795 753.409 123.882 754.482 123.882 756.629C123.882 757.73 123.607 758.57 123.056 759.149C122.515 759.728 121.703 760.017 120.62 760.017ZM118.66 758.673H120.606C121.726 758.673 122.286 757.992 122.286 756.629C122.286 755.976 122.151 755.5 121.88 755.201C121.609 754.902 121.185 754.753 120.606 754.753H118.66V758.673ZM125.195 762.999V755.999H126.707V756.839C127.501 756.326 128.294 755.994 129.087 755.845V757.371C128.285 757.53 127.599 757.735 127.029 757.987L126.721 758.113V762.999H125.195ZM130.254 762.999V755.999H131.78V762.999H130.254ZM130.254 754.809V753.199H131.78V754.809H130.254ZM132.973 755.999H134.569L135.913 761.697H136.361L137.761 755.999H139.315L137.495 762.999H134.779L132.973 755.999ZM145.592 758.155V761.347C145.602 761.552 145.653 761.706 145.746 761.809C145.849 761.902 146.003 761.963 146.208 761.991L146.166 763.153C145.364 763.153 144.743 762.98 144.304 762.635C143.558 762.98 142.806 763.153 142.05 763.153C140.66 763.153 139.964 762.411 139.964 760.927C139.964 760.218 140.151 759.704 140.524 759.387C140.907 759.07 141.49 758.878 142.274 758.813L144.08 758.659V758.155C144.08 757.782 143.996 757.52 143.828 757.371C143.67 757.222 143.432 757.147 143.114 757.147C142.517 757.147 141.77 757.184 140.874 757.259L140.426 757.287L140.37 756.209C141.388 755.966 142.321 755.845 143.17 755.845C144.029 755.845 144.645 756.032 145.018 756.405C145.401 756.769 145.592 757.352 145.592 758.155ZM142.456 759.891C141.812 759.947 141.49 760.297 141.49 760.941C141.49 761.585 141.775 761.907 142.344 761.907C142.811 761.907 143.306 761.832 143.828 761.683L144.08 761.599V759.737L142.456 759.891ZM150.126 755.845C150.621 755.845 151.204 755.91 151.876 756.041L152.226 756.111L152.17 757.315C151.433 757.24 150.887 757.203 150.532 757.203C149.823 757.203 149.347 757.362 149.104 757.679C148.861 757.996 148.74 758.594 148.74 759.471C148.74 760.348 148.857 760.955 149.09 761.291C149.323 761.627 149.809 761.795 150.546 761.795L152.184 761.683L152.226 762.901C151.283 763.069 150.574 763.153 150.098 763.153C149.034 763.153 148.283 762.868 147.844 762.299C147.415 761.72 147.2 760.778 147.2 759.471C147.2 758.164 147.429 757.236 147.886 756.685C148.343 756.125 149.09 755.845 150.126 755.845ZM153.057 755.999H154.555L156.039 761.697H156.417L157.901 755.999H159.413L156.753 766.009H155.255L156.095 762.999H154.891L153.057 755.999ZM167.364 760.017H165.404V762.999H163.85V753.409H167.364C169.539 753.409 170.626 754.482 170.626 756.629C170.626 757.73 170.351 758.57 169.8 759.149C169.259 759.728 168.447 760.017 167.364 760.017ZM165.404 758.673H167.35C168.47 758.673 169.03 757.992 169.03 756.629C169.03 755.976 168.895 755.5 168.624 755.201C168.353 754.902 167.929 754.753 167.35 754.753H165.404V758.673ZM172.318 756.755C172.803 756.148 173.606 755.845 174.726 755.845C175.846 755.845 176.644 756.148 177.12 756.755C177.605 757.362 177.848 758.272 177.848 759.485C177.848 760.698 177.614 761.613 177.148 762.229C176.681 762.845 175.874 763.153 174.726 763.153C173.578 763.153 172.77 762.845 172.304 762.229C171.837 761.613 171.604 760.698 171.604 759.485C171.604 758.272 171.842 757.362 172.318 756.755ZM173.466 761.305C173.68 761.678 174.1 761.865 174.726 761.865C175.351 761.865 175.771 761.678 175.986 761.305C176.2 760.932 176.308 760.32 176.308 759.471C176.308 758.622 176.191 758.02 175.958 757.665C175.734 757.31 175.323 757.133 174.726 757.133C174.128 757.133 173.713 757.31 173.48 757.665C173.256 758.02 173.144 758.622 173.144 759.471C173.144 760.32 173.251 760.932 173.466 761.305ZM179.447 762.999V753.087H180.973V762.999H179.447ZM182.904 762.999V755.999H184.43V762.999H182.904ZM182.904 754.809V753.199H184.43V754.809H182.904ZM188.899 755.845C189.394 755.845 189.977 755.91 190.649 756.041L190.999 756.111L190.943 757.315C190.206 757.24 189.66 757.203 189.305 757.203C188.596 757.203 188.12 757.362 187.877 757.679C187.635 757.996 187.513 758.594 187.513 759.471C187.513 760.348 187.63 760.955 187.863 761.291C188.097 761.627 188.582 761.795 189.319 761.795L190.957 761.683L190.999 762.901C190.057 763.069 189.347 763.153 188.871 763.153C187.807 763.153 187.056 762.868 186.617 762.299C186.188 761.72 185.973 760.778 185.973 759.471C185.973 758.164 186.202 757.236 186.659 756.685C187.117 756.125 187.863 755.845 188.899 755.845ZM191.831 755.999H193.329L194.813 761.697H195.191L196.675 755.999H198.187L195.527 766.009H194.029L194.869 762.999H193.665L191.831 755.999Z" fill="white"/>
<path d="M116 764.539H198.439V764.959H116V764.539Z" fill="white"/>
<path d="M227.424 762.999H224.106V753.409H227.424C228.899 753.409 229.907 753.782 230.448 754.529C230.989 755.276 231.26 756.447 231.26 758.043C231.26 758.855 231.204 759.546 231.092 760.115C230.989 760.675 230.803 761.184 230.532 761.641C230 762.546 228.964 762.999 227.424 762.999ZM229.65 758.043C229.65 756.886 229.505 756.05 229.216 755.537C228.927 755.024 228.329 754.767 227.424 754.767H225.66V761.627H227.424C228.348 761.627 228.964 761.286 229.272 760.605C229.421 760.26 229.519 759.891 229.566 759.499C229.622 759.107 229.65 758.622 229.65 758.043ZM232.893 762.999V755.999H234.419V762.999H232.893ZM232.893 754.809V753.199H234.419V754.809H232.893ZM238.888 755.845C239.382 755.845 239.966 755.91 240.638 756.041L240.988 756.111L240.932 757.315C240.194 757.24 239.648 757.203 239.294 757.203C238.584 757.203 238.108 757.362 237.866 757.679C237.623 757.996 237.502 758.594 237.502 759.471C237.502 760.348 237.618 760.955 237.852 761.291C238.085 761.627 238.57 761.795 239.308 761.795L240.946 761.683L240.988 762.901C240.045 763.069 239.336 763.153 238.86 763.153C237.796 763.153 237.044 762.868 236.606 762.299C236.176 761.72 235.962 760.778 235.962 759.471C235.962 758.164 236.19 757.236 236.648 756.685C237.105 756.125 237.852 755.845 238.888 755.845ZM243.989 762.999H242.463V753.087H243.989V756.363C244.68 756.018 245.319 755.845 245.907 755.845C246.84 755.845 247.475 756.111 247.811 756.643C248.156 757.166 248.329 758.034 248.329 759.247V762.999H246.803V759.289C246.803 758.533 246.724 757.996 246.565 757.679C246.406 757.362 246.07 757.203 245.557 757.203C245.109 757.203 244.661 757.278 244.213 757.427L243.989 757.511V762.999ZM250.106 762.999V755.999H251.632V762.999H250.106ZM250.106 754.809V753.199H251.632V754.809H250.106ZM258.663 758.155V761.347C258.672 761.552 258.723 761.706 258.817 761.809C258.919 761.902 259.073 761.963 259.279 761.991L259.237 763.153C258.434 763.153 257.813 762.98 257.375 762.635C256.628 762.98 255.877 763.153 255.121 763.153C253.73 763.153 253.035 762.411 253.035 760.927C253.035 760.218 253.221 759.704 253.595 759.387C253.977 759.07 254.561 758.878 255.345 758.813L257.151 758.659V758.155C257.151 757.782 257.067 757.52 256.899 757.371C256.74 757.222 256.502 757.147 256.185 757.147C255.587 757.147 254.841 757.184 253.945 757.259L253.497 757.287L253.441 756.209C254.458 755.966 255.391 755.845 256.241 755.845C257.099 755.845 257.715 756.032 258.089 756.405C258.471 756.769 258.663 757.352 258.663 758.155ZM255.527 759.891C254.883 759.947 254.561 760.297 254.561 760.941C254.561 761.585 254.845 761.907 255.415 761.907C255.881 761.907 256.376 761.832 256.899 761.683L257.151 761.599V759.737L255.527 759.891ZM260.578 762.999V755.999H262.09V756.839C262.884 756.326 263.677 755.994 264.47 755.845V757.371C263.668 757.53 262.982 757.735 262.412 757.987L262.104 758.113V762.999H260.578ZM270.817 758.155V761.347C270.826 761.552 270.878 761.706 270.971 761.809C271.074 761.902 271.228 761.963 271.433 761.991L271.391 763.153C270.588 763.153 269.968 762.98 269.529 762.635C268.782 762.98 268.031 763.153 267.275 763.153C265.884 763.153 265.189 762.411 265.189 760.927C265.189 760.218 265.376 759.704 265.749 759.387C266.132 759.07 266.715 758.878 267.499 758.813L269.305 758.659V758.155C269.305 757.782 269.221 757.52 269.053 757.371C268.894 757.222 268.656 757.147 268.339 757.147C267.742 757.147 266.995 757.184 266.099 757.259L265.651 757.287L265.595 756.209C266.612 755.966 267.546 755.845 268.395 755.845C269.254 755.845 269.87 756.032 270.243 756.405C270.626 756.769 270.817 757.352 270.817 758.155ZM267.681 759.891C267.037 759.947 266.715 760.297 266.715 760.941C266.715 761.585 267 761.907 267.569 761.907C268.036 761.907 268.53 761.832 269.053 761.683L269.305 761.599V759.737L267.681 759.891ZM272.383 757.357V755.999H277.577V757.357L274.217 761.641H277.577V762.999H272.383V761.641L275.757 757.357H272.383ZM279.09 762.999V755.999H280.616V762.999H279.09ZM279.09 754.809V753.199H280.616V754.809H279.09ZM282.845 756.755C283.33 756.148 284.133 755.845 285.253 755.845C286.373 755.845 287.171 756.148 287.647 756.755C288.132 757.362 288.375 758.272 288.375 759.485C288.375 760.698 288.142 761.613 287.675 762.229C287.208 762.845 286.401 763.153 285.253 763.153C284.105 763.153 283.298 762.845 282.831 762.229C282.364 761.613 282.131 760.698 282.131 759.485C282.131 758.272 282.369 757.362 282.845 756.755ZM283.993 761.305C284.208 761.678 284.628 761.865 285.253 761.865C285.878 761.865 286.298 761.678 286.513 761.305C286.728 760.932 286.835 760.32 286.835 759.471C286.835 758.622 286.718 758.02 286.485 757.665C286.261 757.31 285.85 757.133 285.253 757.133C284.656 757.133 284.24 757.31 284.007 757.665C283.783 758.02 283.671 758.622 283.671 759.471C283.671 760.32 283.778 760.932 283.993 761.305ZM291.417 762.999H289.891V755.999H291.403V756.433C292.084 756.041 292.728 755.845 293.335 755.845C294.268 755.845 294.903 756.111 295.239 756.643C295.584 757.166 295.757 758.034 295.757 759.247V762.999H294.245V759.289C294.245 758.533 294.161 757.996 293.993 757.679C293.834 757.362 293.503 757.203 292.999 757.203C292.523 757.203 292.065 757.296 291.627 757.483L291.417 757.567V762.999ZM302.517 761.739L302.909 761.697L302.937 762.831C301.873 763.046 300.931 763.153 300.109 763.153C299.073 763.153 298.327 762.868 297.869 762.299C297.421 761.73 297.197 760.82 297.197 759.569C297.197 757.086 298.21 755.845 300.235 755.845C302.195 755.845 303.175 756.914 303.175 759.051L303.077 760.143H298.737C298.747 760.722 298.873 761.146 299.115 761.417C299.358 761.688 299.811 761.823 300.473 761.823C301.136 761.823 301.817 761.795 302.517 761.739ZM301.677 758.967C301.677 758.276 301.565 757.796 301.341 757.525C301.127 757.245 300.758 757.105 300.235 757.105C299.713 757.105 299.33 757.25 299.087 757.539C298.854 757.828 298.733 758.304 298.723 758.967H301.677ZM307.075 762.999L309.441 753.409H312.535L314.915 762.999H313.347L312.829 760.941H309.147L308.629 762.999H307.075ZM310.645 754.711L309.455 759.569H312.521L311.345 754.711H310.645ZM318.649 755.845C319.144 755.845 319.727 755.91 320.399 756.041L320.749 756.111L320.693 757.315C319.956 757.24 319.41 757.203 319.055 757.203C318.346 757.203 317.87 757.362 317.627 757.679C317.385 757.996 317.263 758.594 317.263 759.471C317.263 760.348 317.38 760.955 317.613 761.291C317.847 761.627 318.332 761.795 319.069 761.795L320.707 761.683L320.749 762.901C319.807 763.069 319.097 763.153 318.621 763.153C317.557 763.153 316.806 762.868 316.367 762.299C315.938 761.72 315.723 760.778 315.723 759.471C315.723 758.164 315.952 757.236 316.409 756.685C316.867 756.125 317.613 755.845 318.649 755.845ZM324.774 755.845C325.269 755.845 325.852 755.91 326.524 756.041L326.874 756.111L326.818 757.315C326.081 757.24 325.535 757.203 325.18 757.203C324.471 757.203 323.995 757.362 323.752 757.679C323.51 757.996 323.388 758.594 323.388 759.471C323.388 760.348 323.505 760.955 323.738 761.291C323.972 761.627 324.457 761.795 325.194 761.795L326.832 761.683L326.874 762.901C325.932 763.069 325.222 763.153 324.746 763.153C323.682 763.153 322.931 762.868 322.492 762.299C322.063 761.72 321.848 760.778 321.848 759.471C321.848 758.164 322.077 757.236 322.534 756.685C322.992 756.125 323.738 755.845 324.774 755.845ZM333.265 761.739L333.657 761.697L333.685 762.831C332.621 763.046 331.679 763.153 330.857 763.153C329.821 763.153 329.075 762.868 328.617 762.299C328.169 761.73 327.945 760.82 327.945 759.569C327.945 757.086 328.958 755.845 330.983 755.845C332.943 755.845 333.923 756.914 333.923 759.051L333.825 760.143H329.485C329.495 760.722 329.621 761.146 329.863 761.417C330.106 761.688 330.559 761.823 331.221 761.823C331.884 761.823 332.565 761.795 333.265 761.739ZM332.425 758.967C332.425 758.276 332.313 757.796 332.089 757.525C331.875 757.245 331.506 757.105 330.983 757.105C330.461 757.105 330.078 757.25 329.835 757.539C329.602 757.828 329.481 758.304 329.471 758.967H332.425ZM340.249 757.441C339.147 757.292 338.349 757.217 337.855 757.217C337.36 757.217 337.015 757.278 336.819 757.399C336.632 757.511 336.539 757.693 336.539 757.945C336.539 758.197 336.641 758.374 336.847 758.477C337.061 758.58 337.556 758.701 338.331 758.841C339.115 758.972 339.67 759.182 339.997 759.471C340.323 759.76 340.487 760.274 340.487 761.011C340.487 761.748 340.249 762.29 339.773 762.635C339.306 762.98 338.62 763.153 337.715 763.153C337.145 763.153 336.427 763.074 335.559 762.915L335.125 762.845L335.181 761.571C336.301 761.72 337.108 761.795 337.603 761.795C338.097 761.795 338.447 761.734 338.653 761.613C338.867 761.492 338.975 761.291 338.975 761.011C338.975 760.731 338.872 760.54 338.667 760.437C338.471 760.325 337.99 760.208 337.225 760.087C336.469 759.956 335.913 759.756 335.559 759.485C335.204 759.214 335.027 758.72 335.027 758.001C335.027 757.282 335.269 756.746 335.755 756.391C336.249 756.036 336.879 755.859 337.645 755.859C338.242 755.859 338.975 755.934 339.843 756.083L340.277 756.167L340.249 757.441ZM346.811 757.441C345.71 757.292 344.912 757.217 344.417 757.217C343.923 757.217 343.577 757.278 343.381 757.399C343.195 757.511 343.101 757.693 343.101 757.945C343.101 758.197 343.204 758.374 343.409 758.477C343.624 758.58 344.119 758.701 344.893 758.841C345.677 758.972 346.233 759.182 346.559 759.471C346.886 759.76 347.049 760.274 347.049 761.011C347.049 761.748 346.811 762.29 346.335 762.635C345.869 762.98 345.183 763.153 344.277 763.153C343.708 763.153 342.989 763.074 342.121 762.915L341.687 762.845L341.743 761.571C342.863 761.72 343.671 761.795 344.165 761.795C344.66 761.795 345.01 761.734 345.215 761.613C345.43 761.492 345.537 761.291 345.537 761.011C345.537 760.731 345.435 760.54 345.229 760.437C345.033 760.325 344.553 760.208 343.787 760.087C343.031 759.956 342.476 759.756 342.121 759.485C341.767 759.214 341.589 758.72 341.589 758.001C341.589 757.282 341.832 756.746 342.317 756.391C342.812 756.036 343.442 755.859 344.207 755.859C344.805 755.859 345.537 755.934 346.405 756.083L346.839 756.167L346.811 757.441ZM348.516 762.999V755.999H350.042V762.999H348.516ZM348.516 754.809V753.199H350.042V754.809H348.516ZM355.155 755.845C356.116 755.845 356.807 756.116 357.227 756.657C357.656 757.189 357.871 758.136 357.871 759.499C357.871 760.862 357.619 761.814 357.115 762.355C356.611 762.887 355.724 763.153 354.455 763.153C354.016 763.153 353.321 763.111 352.369 763.027L351.893 762.985V753.087H353.405V756.265C354.049 755.985 354.632 755.845 355.155 755.845ZM354.455 761.795C355.201 761.795 355.696 761.622 355.939 761.277C356.191 760.922 356.317 760.325 356.317 759.485C356.317 758.645 356.209 758.057 355.995 757.721C355.789 757.376 355.449 757.203 354.973 757.203C354.525 757.203 354.077 757.273 353.629 757.413L353.405 757.483V761.739C353.918 761.776 354.268 761.795 354.455 761.795ZM359.399 762.999V755.999H360.925V762.999H359.399ZM359.399 754.809V753.199H360.925V754.809H359.399ZM362.86 762.999V753.087H364.386V762.999H362.86ZM366.317 762.999V755.999H367.843V762.999H366.317ZM366.317 754.809V753.199H367.843V754.809H366.317ZM373.46 757.301H371.528V760.381C371.528 760.95 371.57 761.328 371.654 761.515C371.738 761.702 371.952 761.795 372.298 761.795L373.446 761.753L373.516 762.971C372.89 763.092 372.414 763.153 372.088 763.153C371.294 763.153 370.748 762.971 370.45 762.607C370.16 762.243 370.016 761.557 370.016 760.549V757.301H369.12V755.999H370.016V753.969H371.528V755.999H373.46V757.301ZM379.891 758.155V761.347C379.9 761.552 379.952 761.706 380.045 761.809C380.148 761.902 380.302 761.963 380.507 761.991L380.465 763.153C379.662 763.153 379.042 762.98 378.603 762.635C377.856 762.98 377.105 763.153 376.349 763.153C374.958 763.153 374.263 762.411 374.263 760.927C374.263 760.218 374.45 759.704 374.823 759.387C375.206 759.07 375.789 758.878 376.573 758.813L378.379 758.659V758.155C378.379 757.782 378.295 757.52 378.127 757.371C377.968 757.222 377.73 757.147 377.413 757.147C376.816 757.147 376.069 757.184 375.173 757.259L374.725 757.287L374.669 756.209C375.686 755.966 376.62 755.845 377.469 755.845C378.328 755.845 378.944 756.032 379.317 756.405C379.7 756.769 379.891 757.352 379.891 758.155ZM376.755 759.891C376.111 759.947 375.789 760.297 375.789 760.941C375.789 761.585 376.074 761.907 376.643 761.907C377.11 761.907 377.604 761.832 378.127 761.683L378.379 761.599V759.737L376.755 759.891ZM375.817 752.527L379.121 753.941L378.757 754.935L375.341 753.843L375.817 752.527Z" fill="white"/>
<path d="M223 764.539H380.885V764.959H223V764.539Z" fill="white"/>
</g>
<defs>
<clipPath id="clip0_4158_91127">
<rect width="1440" height="790" fill="white"/>
</clipPath>
<clipPath id="clip1_4158_91127">
<rect width="47" height="24" fill="white" transform="translate(1321 12)"/>
</clipPath>
</defs>
</svg>
