<svg width="595" height="415" viewBox="0 0 595 415" fill="none" xmlns="http://www.w3.org/2000/svg">
<rect width="595" height="415" fill="white"/>
<g clip-path="url(#clip0_40000356_3227)">
<path d="M371.673 31.1078H-162.695C-166.25 31.1078 -169.133 33.5795 -169.133 36.6284V381.67C-169.133 384.719 -166.25 387.19 -162.695 387.19H371.673C375.229 387.19 378.112 384.719 378.112 381.67V36.6284C378.112 33.5795 375.229 31.1078 371.673 31.1078Z" fill="#004080" fill-opacity="0.1"/>
<path d="M-169.133 37.5454C-169.133 33.9898 -166.252 31.1078 -162.695 31.1078H371.673C375.23 31.1078 378.112 33.9898 378.112 37.5454V52.4322H-169.133V37.5454Z" fill="#004080"/>
<path d="M149.373 45.19V38.5754H150.443V45.19H149.373ZM155.192 41.3564C154.431 41.2534 153.88 41.2019 153.542 41.2019C153.2 41.2019 152.962 41.2438 152.826 41.3274C152.697 41.4047 152.632 41.5302 152.632 41.704C152.632 41.8778 152.705 42.0001 152.846 42.071C152.994 42.1418 153.332 42.2255 153.868 42.322C154.411 42.4122 154.793 42.557 155.019 42.7566C155.244 42.9561 155.356 43.3102 155.356 43.8188C155.356 44.3273 155.191 44.7007 154.862 44.9389C154.54 45.1771 154.069 45.2962 153.445 45.2962C153.051 45.2962 152.556 45.2415 151.956 45.132L151.659 45.0838L151.695 44.205C152.467 44.308 153.027 44.3595 153.365 44.3595C153.707 44.3595 153.948 44.3177 154.089 44.234C154.238 44.1503 154.314 44.0119 154.314 43.8188C154.314 43.6256 154.242 43.4937 154.101 43.4228C153.964 43.3456 153.634 43.2651 153.107 43.1814C152.584 43.0913 152.202 42.9529 151.956 42.7662C151.711 42.5795 151.59 42.2383 151.59 41.7427C151.59 41.247 151.755 40.8768 152.093 40.6322C152.431 40.3875 152.866 40.2652 153.397 40.2652C153.807 40.2652 154.314 40.3167 154.91 40.4197L155.212 40.4777L155.192 41.3564ZM158.966 41.2598H157.634V43.3842C157.634 43.7769 157.662 44.0376 157.719 44.1664C157.779 44.2951 157.924 44.3595 158.165 44.3595L158.954 44.3306L159.002 45.1707C158.572 45.2544 158.246 45.2962 158.02 45.2962C157.473 45.2962 157.095 45.1707 156.89 44.9196C156.688 44.6685 156.588 44.1954 156.588 43.5001V41.2598H155.972V40.3618H156.588V38.9616H157.634V40.3618H158.966V41.2598ZM163.4 41.8489V44.0505C163.408 44.1922 163.444 44.2984 163.509 44.3692C163.577 44.4336 163.686 44.4754 163.827 44.4947L163.799 45.2962C163.243 45.2962 162.817 45.1771 162.515 44.9389C162 45.1771 161.481 45.2962 160.958 45.2962C160 45.2962 159.521 44.7844 159.521 43.7608C159.521 43.2716 159.65 42.9175 159.907 42.6986C160.169 42.4797 160.571 42.3478 161.115 42.3027L162.358 42.1965V41.8489C162.358 41.5914 162.302 41.4111 162.185 41.3081C162.076 41.2051 161.911 41.1536 161.694 41.1536C161.28 41.1536 160.765 41.1794 160.149 41.2309L159.839 41.2502L159.799 40.5066C160.503 40.3393 161.147 40.2556 161.73 40.2556C162.322 40.2556 162.748 40.3843 163.006 40.6418C163.271 40.8929 163.4 41.2952 163.4 41.8489ZM161.239 43.0463C160.793 43.0849 160.571 43.3263 160.571 43.7705C160.571 44.2147 160.769 44.4368 161.163 44.4368C161.485 44.4368 161.823 44.3853 162.185 44.2823L162.358 44.2243V42.94L161.239 43.0463ZM165.774 45.19H164.724V40.3618H165.766V40.6611C166.237 40.3908 166.68 40.2556 167.098 40.2556C167.742 40.2556 168.181 40.439 168.414 40.806C168.651 41.1665 168.768 41.7652 168.768 42.6021V45.19H167.726V42.631C167.726 42.1096 167.669 41.7394 167.553 41.5206C167.444 41.3017 167.215 41.1923 166.869 41.1923C166.539 41.1923 166.225 41.2566 165.919 41.3854L165.774 41.4433V45.19ZM169.754 41.2985V40.3618H173.335V41.2985L171.017 44.2533H173.335V45.19H169.754V44.2533L172.08 41.2985H169.754ZM177.955 41.8489V44.0505C177.959 44.1922 177.995 44.2984 178.059 44.3692C178.132 44.4336 178.236 44.4754 178.377 44.4947L178.349 45.2962C177.798 45.2962 177.367 45.1771 177.065 44.9389C176.55 45.1771 176.031 45.2962 175.512 45.2962C174.55 45.2962 174.071 44.7844 174.071 43.7608C174.071 43.2716 174.2 42.9175 174.458 42.6986C174.723 42.4797 175.126 42.3478 175.665 42.3027L176.912 42.1965V41.8489C176.912 41.5914 176.852 41.4111 176.735 41.3081C176.627 41.2051 176.462 41.1536 176.244 41.1536C175.834 41.1536 175.319 41.1794 174.699 41.2309L174.389 41.2502L174.353 40.5066C175.053 40.3393 175.697 40.2556 176.285 40.2556C176.876 40.2556 177.299 40.3843 177.556 40.6418C177.822 40.8929 177.955 41.2952 177.955 41.8489ZM175.79 43.0463C175.347 43.0849 175.126 43.3263 175.126 43.7705C175.126 44.2147 175.319 44.4368 175.713 44.4368C176.035 44.4368 176.377 44.3853 176.735 44.2823L176.912 44.2243V42.94L175.79 43.0463ZM185.338 38.3533V45.19H184.296V44.9389C183.825 45.1771 183.395 45.2962 183 45.2962C182.369 45.2962 181.906 45.1063 181.608 44.7265C181.318 44.3467 181.174 43.7093 181.174 42.8145C181.174 41.9197 181.335 41.2695 181.656 40.8639C181.986 40.4584 182.493 40.2556 183.186 40.2556C183.415 40.2556 183.781 40.2974 184.284 40.3811V38.3533H185.338ZM184.119 44.1857L184.284 44.1181V41.2598C183.898 41.1955 183.54 41.1633 183.214 41.1633C182.562 41.1633 182.236 41.704 182.236 42.7855C182.236 43.3778 182.312 43.7898 182.461 44.0216C182.614 44.2469 182.856 44.3595 183.186 44.3595C183.511 44.3595 183.825 44.3016 184.119 44.1857ZM190.05 44.3209L190.32 44.2919L190.34 45.0741C189.608 45.2221 188.956 45.2962 188.388 45.2962C187.676 45.2962 187.161 45.0998 186.843 44.7071C186.533 44.3145 186.38 43.6868 186.38 42.8242C186.38 41.1118 187.081 40.2556 188.477 40.2556C189.829 40.2556 190.505 40.9927 190.505 42.4669L190.437 43.2201H187.443C187.451 43.6192 187.535 43.9121 187.704 44.0988C187.869 44.2855 188.183 44.3788 188.642 44.3788C189.097 44.3788 189.567 44.3595 190.05 44.3209ZM189.471 42.4089C189.471 41.9326 189.394 41.601 189.237 41.4143C189.093 41.2212 188.835 41.1246 188.477 41.1246C188.115 41.1246 187.853 41.2244 187.684 41.424C187.523 41.6236 187.439 41.9519 187.435 42.4089H189.471ZM191.575 45.19V38.3533H192.625V45.19H191.575ZM195.676 38.5754H196.806L197.752 44.263H197.953L199.209 38.5947H200.464L201.719 44.263H201.933L202.878 38.5754H204.009L202.705 45.19H200.979L199.836 39.8886L198.71 45.19H196.971L195.676 38.5754ZM208.31 41.8489V44.0505C208.319 44.1922 208.355 44.2984 208.419 44.3692C208.488 44.4336 208.596 44.4754 208.737 44.4947L208.709 45.2962C208.154 45.2962 207.727 45.1771 207.425 44.9389C206.91 45.1771 206.391 45.2962 205.868 45.2962C204.91 45.2962 204.431 44.7844 204.431 43.7608C204.431 43.2716 204.56 42.9175 204.818 42.6986C205.079 42.4797 205.482 42.3478 206.025 42.3027L207.268 42.1965V41.8489C207.268 41.5914 207.212 41.4111 207.095 41.3081C206.987 41.2051 206.822 41.1536 206.604 41.1536C206.19 41.1536 205.675 41.1794 205.059 41.2309L204.749 41.2502L204.709 40.5066C205.413 40.3393 206.057 40.2556 206.641 40.2556C207.232 40.2556 207.659 40.3843 207.916 40.6418C208.182 40.8929 208.31 41.2952 208.31 41.8489ZM206.15 43.0463C205.703 43.0849 205.482 43.3263 205.482 43.7705C205.482 44.2147 205.679 44.4368 206.073 44.4368C206.395 44.4368 206.733 44.3853 207.095 44.2823L207.268 44.2243V42.94L206.15 43.0463ZM209.691 45.19V38.3533H210.745V45.19H209.691ZM212.133 45.19V38.3533H213.187V45.19H212.133ZM217.956 44.3209L218.225 44.2919L218.245 45.0741C217.513 45.2221 216.861 45.2962 216.294 45.2962C215.582 45.2962 215.067 45.0998 214.749 44.7071C214.443 44.3145 214.286 43.6868 214.286 42.8242C214.286 41.1118 214.986 40.2556 216.382 40.2556C217.734 40.2556 218.41 40.9927 218.41 42.4669L218.342 43.2201H215.348C215.356 43.6192 215.441 43.9121 215.61 44.0988C215.779 44.2855 216.089 44.3788 216.547 44.3788C217.002 44.3788 217.473 44.3595 217.956 44.3209ZM217.376 42.4089C217.376 41.9326 217.3 41.601 217.147 41.4143C216.998 41.2212 216.744 41.1246 216.382 41.1246C216.02 41.1246 215.759 41.2244 215.59 41.424C215.429 41.6236 215.344 41.9519 215.34 42.4089H217.376ZM222.02 41.2598H220.688V43.3842C220.688 43.7769 220.716 44.0376 220.776 44.1664C220.833 44.2951 220.982 44.3595 221.219 44.3595L222.012 44.3306L222.06 45.1707C221.629 45.2544 221.299 45.2962 221.074 45.2962C220.527 45.2962 220.149 45.1707 219.943 44.9196C219.746 44.6685 219.646 44.1954 219.646 43.5001V41.2598H219.026V40.3618H219.646V38.9616H220.688V40.3618H222.02V41.2598Z" fill="white"/>
<path d="M209.234 91.6361L210.341 86.7114H212.24L213.347 91.6361H212.349L212.152 90.7453H210.429L210.232 91.6361H209.234ZM211.118 87.537L210.615 89.8762H211.963L211.464 87.537H211.118ZM215.846 88.8406H214.952V90.3253C214.952 90.4701 214.956 90.5739 214.96 90.6367C214.968 90.6946 214.997 90.7453 215.041 90.7888C215.089 90.8322 215.162 90.854 215.258 90.854L215.809 90.8395L215.85 91.6144C215.528 91.6868 215.282 91.723 215.113 91.723C214.679 91.723 214.381 91.6264 214.22 91.4333C214.063 91.2354 213.983 90.8733 213.983 90.347V88.8406H213.556V88.015H213.983V87.0083H214.952V88.015H215.846V88.8406ZM218.481 88.8406H217.592V90.3253C217.592 90.4701 217.596 90.5739 217.6 90.6367C217.608 90.6946 217.636 90.7453 217.68 90.7888C217.729 90.8322 217.801 90.854 217.898 90.854L218.445 90.8395L218.489 91.6144C218.167 91.6868 217.922 91.723 217.753 91.723C217.318 91.723 217.021 91.6264 216.86 91.4333C216.703 91.2354 216.622 90.8733 216.622 90.347V88.8406H216.196V88.015H216.622V87.0083H217.592V88.015H218.481V88.8406ZM219.113 91.6361V88.015H220.087V91.6361H219.113ZM219.113 87.5515V86.5665H220.087V87.5515H219.113ZM220.642 88.015H221.656L222.235 90.8105H222.437L223.044 88.015H224.03L223.161 91.6361H221.511L220.642 88.015ZM227.322 89.1448V90.6512C227.33 90.767 227.35 90.8491 227.378 90.8974C227.406 90.9408 227.466 90.9722 227.559 90.9915L227.531 91.723C227.285 91.723 227.088 91.7061 226.935 91.6723C226.79 91.6385 226.646 91.5709 226.497 91.4695C226.147 91.6385 225.793 91.723 225.43 91.723C224.682 91.723 224.308 91.3271 224.308 90.5353C224.308 90.149 224.412 89.8762 224.618 89.7169C224.827 89.5527 225.145 89.4562 225.575 89.4272L226.352 89.3693V89.1448C226.352 88.9951 226.316 88.8937 226.247 88.8406C226.183 88.7827 226.074 88.7537 225.921 88.7537L224.561 88.8116L224.533 88.1381C225.048 87.9981 225.539 87.9281 226.002 87.9281C226.473 87.9281 226.807 88.0246 227.008 88.2178C227.217 88.4109 227.322 88.7199 227.322 89.1448ZM225.692 90.1008C225.422 90.1249 225.285 90.2697 225.285 90.5353C225.285 90.8008 225.402 90.9336 225.64 90.9336C225.825 90.9336 226.026 90.9046 226.243 90.8467L226.352 90.8177V90.0428L225.692 90.1008ZM228.094 88.884V88.015H230.782V88.884L229.261 90.767H230.782V91.6361H228.094V90.767L229.615 88.884H228.094ZM231.535 91.6361V88.015H232.504V91.6361H231.535ZM231.535 87.5515V86.5665H232.504V87.5515H231.535ZM233.599 88.4278C233.852 88.0946 234.283 87.9281 234.878 87.9281C235.478 87.9281 235.904 88.0946 236.162 88.4278C236.42 88.7561 236.544 89.2196 236.544 89.8183C236.544 91.0881 235.989 91.723 234.878 91.723C233.768 91.723 233.212 91.0881 233.212 89.8183C233.212 89.2196 233.341 88.7561 233.599 88.4278ZM234.343 90.6367C234.444 90.8105 234.625 90.8974 234.878 90.8974C235.136 90.8974 235.313 90.8105 235.41 90.6367C235.51 90.4629 235.562 90.1901 235.562 89.8183C235.562 89.4465 235.51 89.1761 235.41 89.0072C235.313 88.8382 235.136 88.7537 234.878 88.7537C234.625 88.7537 234.444 88.8382 234.343 89.0072C234.247 89.1761 234.198 89.4465 234.198 89.8183C234.198 90.1901 234.247 90.4629 234.343 90.6367ZM238.226 91.6361H237.256V88.015H238.222V88.2178C238.548 88.0246 238.85 87.9281 239.128 87.9281C239.61 87.9281 239.94 88.0705 240.126 88.3554C240.311 88.6402 240.399 89.0796 240.399 89.6735V91.6361H239.429V89.7024C239.429 89.3934 239.393 89.1665 239.321 89.0217C239.248 88.872 239.103 88.7971 238.886 88.7971C238.689 88.7971 238.5 88.8309 238.315 88.8985L238.226 88.9275V91.6361ZM242.057 90.2383C242.061 90.4604 242.121 90.6222 242.23 90.7236C242.347 90.8201 242.512 90.8684 242.725 90.8684C243.172 90.8684 243.574 90.8539 243.928 90.825L244.129 90.8032L244.145 91.5202C243.59 91.6554 243.087 91.723 242.636 91.723C242.093 91.723 241.695 91.5782 241.449 91.2885C241.204 90.9988 241.079 90.528 241.079 89.8762C241.079 88.5774 241.614 87.9281 242.681 87.9281C243.735 87.9281 244.258 88.4736 244.258 89.5648L244.186 90.2383H242.057ZM243.304 89.4996C243.304 89.2099 243.256 89.0096 243.167 88.8985C243.075 88.7826 242.914 88.7247 242.681 88.7247C242.455 88.7247 242.29 88.7851 242.194 88.9058C242.105 89.0216 242.057 89.2196 242.049 89.4996H243.304ZM247.9 87.9281C248.149 87.9281 248.471 87.9667 248.861 88.0439L249.058 88.0874L249.03 88.8551C248.648 88.8165 248.366 88.7971 248.181 88.7971C247.847 88.7971 247.626 88.8696 247.513 89.0144C247.409 89.1544 247.356 89.4224 247.356 89.8183C247.356 90.2142 247.409 90.487 247.513 90.6367C247.626 90.7815 247.851 90.854 248.189 90.854L249.03 90.796L249.058 91.5709C248.539 91.6723 248.149 91.723 247.875 91.723C247.34 91.723 246.954 91.5733 246.717 91.274C246.487 90.9698 246.371 90.4846 246.371 89.8183C246.371 89.152 246.491 88.6716 246.733 88.3771C246.974 88.0777 247.364 87.9281 247.9 87.9281ZM249.944 88.4278C250.201 88.0946 250.628 87.9281 251.227 87.9281C251.823 87.9281 252.253 88.0946 252.507 88.4278C252.764 88.7561 252.893 89.2196 252.893 89.8183C252.893 91.0881 252.338 91.723 251.227 91.723C250.117 91.723 249.561 91.0881 249.561 89.8183C249.561 89.2196 249.686 88.7561 249.944 88.4278ZM250.688 90.6367C250.793 90.8105 250.97 90.8974 251.227 90.8974C251.481 90.8974 251.658 90.8105 251.754 90.6367C251.855 90.4629 251.907 90.1901 251.907 89.8183C251.907 89.4465 251.855 89.1761 251.754 89.0072C251.658 88.8382 251.481 88.7537 251.227 88.7537C250.97 88.7537 250.793 88.8382 250.688 89.0072C250.592 89.1761 250.543 89.4465 250.543 89.8183C250.543 90.1901 250.592 90.4629 250.688 90.6367ZM254.575 91.6361H253.601V88.015H254.567V88.2178C254.901 88.0246 255.183 87.9281 255.42 87.9281C255.811 87.9281 256.112 88.0415 256.326 88.2685C256.772 88.0415 257.175 87.9281 257.545 87.9281C258.02 87.9281 258.354 88.0681 258.535 88.3481C258.724 88.6233 258.816 89.0651 258.816 89.6735V91.6361H257.847V89.7024C257.847 89.3934 257.814 89.1665 257.746 89.0217C257.678 88.872 257.545 88.7971 257.34 88.7971C257.187 88.7971 256.998 88.8309 256.776 88.8985L256.668 88.9347C256.688 89.2969 256.696 89.5721 256.696 89.7604V91.6361H255.726V89.7749C255.726 89.4176 255.694 89.1665 255.629 89.0217C255.569 88.872 255.432 88.7971 255.219 88.7971C255.03 88.7971 254.845 88.8309 254.66 88.8985L254.575 88.9275V91.6361ZM259.677 93.157V88.015H260.643V88.2105C260.957 88.0222 261.231 87.9281 261.468 87.9281C261.955 87.9281 262.317 88.0753 262.546 88.3698C262.78 88.6595 262.896 89.1544 262.896 89.8545C262.896 90.5546 262.768 91.0422 262.51 91.3174C262.257 91.5878 261.834 91.723 261.251 91.723C261.09 91.723 260.921 91.7085 260.736 91.6795L260.651 91.6651V93.157H259.677ZM261.279 88.7971C261.102 88.7971 260.921 88.8333 260.736 88.9058L260.651 88.942V90.8395C260.869 90.8684 261.041 90.8829 261.178 90.8829C261.46 90.8829 261.649 90.8008 261.75 90.6367C261.858 90.4725 261.911 90.1925 261.911 89.7966C261.911 89.1303 261.701 88.7971 261.279 88.7971ZM263.661 91.6361V86.5665H264.635V91.6361H263.661ZM266.369 90.2383C266.373 90.4604 266.429 90.6222 266.542 90.7236C266.659 90.8201 266.824 90.8684 267.033 90.8684C267.484 90.8684 267.886 90.8539 268.236 90.825L268.441 90.8032L268.453 91.5202C267.898 91.6554 267.395 91.723 266.949 91.723C266.401 91.723 266.007 91.5782 265.762 91.2885C265.512 90.9988 265.391 90.528 265.391 89.8762C265.391 88.5774 265.922 87.9281 266.993 87.9281C268.043 87.9281 268.57 88.4736 268.57 89.5648L268.498 90.2383H266.369ZM267.612 89.4996C267.612 89.2099 267.568 89.0096 267.476 88.8985C267.383 88.7826 267.222 88.7247 266.993 88.7247C266.763 88.7247 266.602 88.7851 266.506 88.9058C266.413 89.0216 266.365 89.2196 266.361 89.4996H267.612ZM271.27 88.8406H270.377V90.3253C270.377 90.4701 270.381 90.5739 270.385 90.6367C270.397 90.6946 270.421 90.7453 270.465 90.7888C270.514 90.8322 270.586 90.854 270.683 90.854L271.234 90.8395L271.278 91.6144C270.952 91.6868 270.707 91.723 270.538 91.723C270.103 91.723 269.805 91.6264 269.649 91.4333C269.488 91.2354 269.407 90.8733 269.407 90.347V88.8406H268.981V88.015H269.407V87.0083H270.377V88.015H271.27V88.8406ZM274.674 89.1448V90.6512C274.686 90.767 274.707 90.8491 274.735 90.8974C274.763 90.9408 274.823 90.9722 274.916 90.9915L274.888 91.723C274.638 91.723 274.441 91.7061 274.292 91.6723C274.147 91.6385 273.998 91.5709 273.849 91.4695C273.503 91.6385 273.149 91.723 272.787 91.723C272.039 91.723 271.664 91.3271 271.664 90.5353C271.664 90.149 271.765 89.8762 271.974 89.7169C272.184 89.5527 272.501 89.4562 272.932 89.4272L273.705 89.3693V89.1448C273.705 88.9951 273.672 88.8937 273.604 88.8406C273.536 88.7827 273.427 88.7537 273.278 88.7537L271.918 88.8116L271.886 88.1381C272.405 87.9981 272.896 87.9281 273.358 87.9281C273.825 87.9281 274.163 88.0246 274.364 88.2178C274.574 88.4109 274.674 88.7199 274.674 89.1448ZM273.045 90.1008C272.775 90.1249 272.642 90.2697 272.642 90.5353C272.642 90.8008 272.759 90.9336 272.996 90.9336C273.177 90.9336 273.379 90.9046 273.596 90.8467L273.705 90.8177V90.0428L273.045 90.1008ZM277.608 88.8406H276.714V90.3253C276.714 90.4701 276.718 90.5739 276.722 90.6367C276.735 90.6946 276.759 90.7453 276.803 90.7888C276.851 90.8322 276.924 90.854 277.02 90.854L277.571 90.8395L277.616 91.6144C277.29 91.6868 277.044 91.723 276.875 91.723C276.441 91.723 276.143 91.6264 275.986 91.4333C275.825 91.2354 275.745 90.8733 275.745 90.347V88.8406H275.318V88.015H275.745V87.0083H276.714V88.015H277.608V88.8406ZM281.012 89.1448V90.6512C281.024 90.767 281.044 90.8491 281.072 90.8974C281.1 90.9408 281.161 90.9722 281.253 90.9915L281.225 91.723C280.976 91.723 280.779 91.7061 280.63 91.6723C280.485 91.6385 280.336 91.5709 280.187 91.4695C279.841 91.6385 279.487 91.723 279.125 91.723C278.376 91.723 278.002 91.3271 278.002 90.5353C278.002 90.149 278.103 89.8762 278.312 89.7169C278.521 89.5527 278.839 89.4562 279.27 89.4272L280.042 89.3693V89.1448C280.042 88.9951 280.01 88.8937 279.942 88.8406C279.873 88.7827 279.764 88.7537 279.616 88.7537L278.256 88.8116L278.223 88.1381C278.742 87.9981 279.233 87.9281 279.696 87.9281C280.163 87.9281 280.501 88.0246 280.702 88.2178C280.911 88.4109 281.012 88.7199 281.012 89.1448ZM279.382 90.1008C279.113 90.1249 278.98 90.2697 278.98 90.5353C278.98 90.8008 279.097 90.9336 279.334 90.9336C279.515 90.9336 279.716 90.9046 279.934 90.8467L280.042 90.8177V90.0428L279.382 90.1008Z" fill="#17324D"/>
<path d="M337.873 104.109H209.109V104.914H337.873V104.109Z" fill="#17324D"/>
<g filter="url(#filter0_d_40000356_3227)">
<path d="M159.214 126.64H49.7647C44.4311 126.64 40.1074 130.964 40.1074 136.297V345.518C40.1074 350.851 44.4311 355.174 49.7647 355.174H159.214C164.547 355.174 168.871 350.851 168.871 345.518V136.297C168.871 130.964 164.547 126.64 159.214 126.64Z" fill="white"/>
<path d="M99.979 229.179C99.6086 229.179 99.3066 229.476 99.3066 229.847V231.798C99.3066 232.168 99.6086 232.47 99.979 232.47C100.349 232.47 100.647 232.168 100.647 231.798V229.847C100.647 229.476 100.349 229.179 99.979 229.179Z" fill="#768594"/>
<path d="M109 232.47C109.371 232.47 109.673 232.168 109.673 231.798V229.847C109.673 229.476 109.371 229.179 109 229.179C108.63 229.179 108.328 229.476 108.328 229.847V231.798C108.328 232.168 108.63 232.47 109 232.47Z" fill="#768594"/>
<path d="M108.988 237.423C108.727 237.161 108.3 237.161 108.039 237.423C107.093 238.368 105.83 238.891 104.49 238.891C103.15 238.891 101.89 238.368 100.941 237.423C100.679 237.161 100.253 237.161 99.9911 237.423C99.7295 237.684 99.7295 238.107 99.9911 238.368C101.194 239.571 102.792 240.231 104.49 240.231C106.188 240.231 107.785 239.571 108.988 238.368C109.25 238.107 109.25 237.684 108.988 237.423Z" fill="#768594"/>
<path d="M103.736 235.986C104.952 235.986 105.768 235.17 105.768 233.955V229.847C105.768 229.476 105.471 229.179 105.097 229.179C104.726 229.179 104.429 229.476 104.429 229.847V233.955C104.429 234.566 104.058 234.643 103.736 234.643C103.366 234.643 103.064 234.944 103.064 235.315C103.064 235.685 103.366 235.986 103.736 235.986Z" fill="#768594"/>
<path d="M93.0899 230.519C93.4601 230.519 93.7579 230.221 93.7579 229.847V226.423C93.7579 224.278 95.5043 222.532 97.649 222.532H99.8581C100.228 222.532 100.526 222.234 100.526 221.864C100.526 221.494 100.228 221.192 99.854 221.192H97.649C94.7639 221.192 92.418 223.538 92.418 226.423V229.851C92.418 230.221 92.7197 230.519 93.0899 230.519Z" fill="#768594"/>
<path d="M99.854 243.993H97.649C95.5043 243.993 93.7579 242.247 93.7579 240.102V236.678C93.7579 236.304 93.4601 236.007 93.0899 236.007C92.7197 236.007 92.418 236.304 92.418 236.678V240.102C92.418 242.987 94.7639 245.333 97.649 245.333H99.8581C100.228 245.333 100.526 245.031 100.526 244.661C100.526 244.291 100.228 243.993 99.854 243.993Z" fill="#768594"/>
<path d="M111.33 221.192H109.121C108.751 221.192 108.453 221.494 108.453 221.864C108.453 222.234 108.751 222.532 109.121 222.532H111.33C113.475 222.532 115.221 224.278 115.221 226.423V229.851C115.221 230.221 115.519 230.519 115.889 230.519C116.259 230.519 116.561 230.221 116.561 229.851V226.423C116.561 223.538 114.215 221.192 111.33 221.192Z" fill="#768594"/>
<path d="M115.889 236.007C115.519 236.007 115.221 236.304 115.221 236.678V240.102C115.221 242.247 113.475 243.993 111.33 243.993H109.121C108.751 243.993 108.453 244.291 108.453 244.661C108.453 245.031 108.751 245.333 109.121 245.333H111.33C114.215 245.333 116.561 242.987 116.561 240.102V236.678C116.561 236.304 116.259 236.007 115.889 236.007Z" fill="#768594"/>
<path d="M96.5176 258.208V254.309H98.8514V254.692H96.9522V256.212H98.5577V256.599H96.9522V258.208H96.5176ZM101.209 256.241V257.685C101.222 257.822 101.33 257.906 101.539 257.931L101.519 258.264C101.226 258.264 101 258.188 100.851 258.039C100.513 258.188 100.175 258.264 99.8373 258.264C99.5757 258.264 99.3786 258.192 99.2458 258.043C99.109 257.898 99.0405 257.689 99.0405 257.416C99.0405 257.138 99.113 256.941 99.2498 256.812C99.3906 256.679 99.608 256.599 99.9057 256.571L100.787 256.486V256.241C100.787 256.052 100.747 255.915 100.666 255.83C100.582 255.75 100.469 255.706 100.328 255.706C100.026 255.706 99.7126 255.726 99.3907 255.762L99.2176 255.782L99.2016 255.46C99.612 255.376 99.9782 255.335 100.3 255.335C100.618 255.335 100.847 255.408 100.992 255.557C101.137 255.702 101.209 255.931 101.209 256.241ZM99.4752 257.391C99.4752 257.737 99.62 257.91 99.9057 257.91C100.159 257.91 100.413 257.866 100.658 257.782L100.787 257.733V256.804L99.954 256.884C99.785 256.9 99.6643 256.949 99.5878 257.029C99.5154 257.114 99.4752 257.234 99.4752 257.391ZM103.097 255.335C103.221 255.335 103.431 255.36 103.728 255.404L103.865 255.42L103.849 255.762C103.547 255.73 103.326 255.714 103.181 255.714C102.863 255.714 102.646 255.79 102.529 255.943C102.417 256.096 102.36 256.377 102.36 256.788C102.36 257.198 102.413 257.484 102.517 257.645C102.626 257.806 102.851 257.886 103.189 257.886L103.853 257.838L103.869 258.184C103.519 258.236 103.262 258.264 103.089 258.264C102.646 258.264 102.344 258.152 102.175 257.926C102.01 257.701 101.926 257.323 101.926 256.788C101.926 256.253 102.018 255.875 102.195 255.661C102.376 255.444 102.678 255.335 103.097 255.335ZM106.38 257.858L106.545 257.842L106.557 258.176C106.127 258.236 105.76 258.264 105.459 258.264C105.052 258.264 104.762 258.148 104.593 257.914C104.424 257.677 104.34 257.311 104.34 256.816C104.34 255.83 104.734 255.335 105.519 255.335C105.897 255.335 106.183 255.444 106.368 255.657C106.557 255.866 106.65 256.2 106.65 256.655L106.63 256.973H104.771C104.771 257.287 104.827 257.516 104.94 257.669C105.052 257.818 105.245 257.894 105.523 257.894C105.805 257.894 106.09 257.882 106.38 257.858ZM106.227 256.635C106.227 256.293 106.171 256.048 106.058 255.903C105.949 255.762 105.768 255.689 105.519 255.689C105.27 255.689 105.084 255.766 104.956 255.915C104.831 256.068 104.766 256.305 104.762 256.635H106.227ZM108.621 258.208V254.309H109.056V258.208H108.621ZM111.398 258.208H110.006V254.309H111.398C112.034 254.309 112.452 254.563 112.661 255.066C112.782 255.355 112.842 255.734 112.842 256.204C112.842 257.182 112.597 257.802 112.11 258.055C111.913 258.156 111.675 258.208 111.398 258.208ZM112.396 256.204C112.396 255.456 112.227 254.989 111.893 254.804C111.76 254.732 111.595 254.692 111.398 254.692H110.44V257.826H111.398C112.062 257.826 112.396 257.283 112.396 256.204Z" fill="#5C6F82"/>
</g>
<path d="M40.2324 91.6361L41.339 86.7114H43.2382L44.3448 91.6361H43.3469L43.1497 90.7453H41.4275L41.2303 91.6361H40.2324ZM42.1156 87.537L41.6126 89.8762H42.9606L42.4617 87.537H42.1156ZM47.0488 88.015H48.0226V91.6361H47.0569V91.4333C46.7108 91.6264 46.409 91.723 46.1515 91.723C45.6485 91.723 45.3105 91.5854 45.1375 91.3102C44.9645 91.0302 44.876 90.5642 44.876 89.9124V88.015H45.8497V89.9269C45.8497 90.2842 45.8779 90.528 45.9342 90.6584C45.9946 90.7888 46.1314 90.854 46.3567 90.854C46.566 90.854 46.7671 90.8201 46.9563 90.7526L47.0488 90.7236V88.015ZM50.9237 88.8406H50.0345V90.3253C50.0345 90.4701 50.0345 90.5739 50.0385 90.6367C50.0506 90.6946 50.0747 90.7453 50.119 90.7888C50.1673 90.8322 50.2397 90.854 50.3363 90.854L50.8876 90.8395L50.9318 91.6144C50.6059 91.6868 50.3605 91.723 50.1915 91.723C49.7569 91.723 49.4591 91.6264 49.3022 91.4333C49.1413 91.2354 49.0607 90.8733 49.0607 90.347V88.8406H48.6342V88.015H49.0607V87.0083H50.0345V88.015H50.9237V88.8406ZM51.7527 88.4278C52.0062 88.0946 52.4328 87.9281 53.0323 87.9281C53.6319 87.9281 54.0584 88.0946 54.3159 88.4278C54.5694 88.7561 54.6982 89.2196 54.6982 89.8183C54.6982 91.0881 54.1429 91.723 53.0323 91.723C51.9217 91.723 51.3664 91.0881 51.3664 89.8183C51.3664 89.2196 51.4951 88.7561 51.7527 88.4278ZM52.4971 90.6367C52.5977 90.8105 52.7788 90.8974 53.0323 90.8974C53.2899 90.8974 53.4668 90.8105 53.5634 90.6367C53.664 90.4629 53.7123 90.1901 53.7123 89.8183C53.7123 89.4465 53.664 89.1761 53.5634 89.0072C53.4668 88.8382 53.2899 88.7537 53.0323 88.7537C52.7788 88.7537 52.5977 88.8382 52.4971 89.0072C52.4006 89.1761 52.3522 89.4465 52.3522 89.8183C52.3522 90.1901 52.4006 90.4629 52.4971 90.6367ZM55.4104 91.6361V88.015H56.3721V88.3988C56.7785 88.1574 57.1648 88.0005 57.531 87.9281V88.9058C57.1407 88.9878 56.8067 89.0723 56.525 89.1592L56.3801 89.2099V91.6361H55.4104ZM58.1064 91.6361V88.015H59.0761V91.6361H58.1064ZM58.1064 87.5515V86.5665H59.0761V87.5515H58.1064ZM59.8205 88.884V88.015H62.5084V88.884L60.9874 90.767H62.5084V91.6361H59.8205V90.767L61.3416 88.884H59.8205ZM63.108 88.884V88.015H65.796V88.884L64.275 90.767H65.796V91.6361H63.108V90.767L64.629 88.884H63.108ZM69.3249 89.1448V90.6512C69.333 90.767 69.353 90.8491 69.3812 90.8974C69.4134 90.9408 69.4737 90.9722 69.5623 90.9915L69.5341 91.723C69.2886 91.723 69.0915 91.7061 68.9426 91.6723C68.7977 91.6385 68.6489 91.5709 68.5 91.4695C68.1499 91.6385 67.7958 91.723 67.4336 91.723C66.6852 91.723 66.3111 91.3271 66.3111 90.5353C66.3111 90.149 66.4156 89.8762 66.6248 89.7169C66.83 89.5527 67.148 89.4562 67.5785 89.4272L68.3551 89.3693V89.1448C68.3551 88.9951 68.3189 88.8937 68.2545 88.8406C68.1861 88.7827 68.0774 88.7537 67.9286 88.7537L66.5645 88.8116L66.5363 88.1381C67.0514 87.9981 67.5423 87.9281 68.0051 87.9281C68.4759 87.9281 68.8099 88.0246 69.0151 88.2178C69.2203 88.4109 69.3249 88.7199 69.3249 89.1448ZM67.6952 90.1008C67.4256 90.1249 67.2888 90.2697 67.2888 90.5353C67.2888 90.8008 67.4095 90.9336 67.6429 90.9336C67.828 90.9336 68.0292 90.9046 68.2465 90.8467L68.3551 90.8177V90.0428L67.6952 90.1008ZM70.0975 88.884V88.015H72.7854V88.884L71.2643 90.767H72.7854V91.6361H70.0975V90.767L71.6185 88.884H70.0975ZM73.5379 91.6361V88.015H74.5076V91.6361H73.5379ZM73.5379 87.5515V86.5665H74.5076V87.5515H73.5379ZM75.6021 88.4278C75.8596 88.0946 76.2861 87.9281 76.8857 87.9281C77.4812 87.9281 77.9118 88.0946 78.1653 88.4278C78.4228 88.7561 78.5516 89.2196 78.5516 89.8183C78.5516 91.0881 77.9962 91.723 76.8857 91.723C75.7751 91.723 75.2198 91.0881 75.2198 89.8183C75.2198 89.2196 75.3446 88.7561 75.6021 88.4278ZM76.3465 90.6367C76.4511 90.8105 76.6281 90.8974 76.8857 90.8974C77.1392 90.8974 77.3162 90.8105 77.4128 90.6367C77.5134 90.4629 77.5658 90.1901 77.5658 89.8183C77.5658 89.4465 77.5134 89.1761 77.4128 89.0072C77.3162 88.8382 77.1392 88.7537 76.8857 88.7537C76.6281 88.7537 76.4511 88.8382 76.3465 89.0072C76.25 89.1761 76.2016 89.4465 76.2016 89.8183C76.2016 90.1901 76.25 90.4629 76.3465 90.6367ZM80.2335 91.6361H79.2598V88.015H80.2255V88.2178C80.5514 88.0246 80.8532 87.9281 81.1309 87.9281C81.6137 87.9281 81.9477 88.0705 82.1288 88.3554C82.3139 88.6402 82.4065 89.0796 82.4065 89.6735V91.6361H81.4326V89.7024C81.4326 89.3934 81.3964 89.1665 81.324 89.0217C81.2516 88.872 81.1068 88.7971 80.8895 88.7971C80.6923 88.7971 80.5031 88.8309 80.318 88.8985L80.2335 88.9275V91.6361ZM84.0602 90.2383C84.0643 90.4604 84.1246 90.6222 84.2332 90.7236C84.3499 90.8201 84.5149 90.8684 84.7282 90.8684C85.1748 90.8684 85.5772 90.8539 85.9313 90.825L86.1325 90.8032L86.1486 91.5202C85.5933 91.6554 85.0903 91.723 84.6396 91.723C84.0964 91.723 83.6981 91.5782 83.4526 91.2885C83.2072 90.9988 83.0825 90.528 83.0825 89.8762C83.0825 88.5774 83.6176 87.9281 84.6839 87.9281C85.7382 87.9281 86.2613 88.4736 86.2613 89.5648L86.1889 90.2383H84.0602ZM85.3077 89.4996C85.3077 89.2099 85.2593 89.0096 85.1708 88.8985C85.0783 88.7826 84.9173 88.7247 84.6839 88.7247C84.4586 88.7247 84.2936 88.7851 84.1971 88.9058C84.1086 89.0216 84.0602 89.2196 84.0522 89.4996H85.3077ZM88.7441 88.4278C89.0016 88.0946 89.4281 87.9281 90.0276 87.9281C90.6232 87.9281 91.0537 88.0946 91.3072 88.4278C91.5647 88.7561 91.6935 89.2196 91.6935 89.8183C91.6935 91.0881 91.1382 91.723 90.0276 91.723C88.9171 91.723 88.3617 91.0881 88.3617 89.8183C88.3617 89.2196 88.4865 88.7561 88.7441 88.4278ZM89.4884 90.6367C89.593 90.8105 89.7701 90.8974 90.0276 90.8974C90.2811 90.8974 90.4582 90.8105 90.5548 90.6367C90.6554 90.4629 90.7076 90.1901 90.7076 89.8183C90.7076 89.4465 90.6554 89.1761 90.5548 89.0072C90.4582 88.8382 90.2811 88.7537 90.0276 88.7537C89.7701 88.7537 89.593 88.8382 89.4884 89.0072C89.3918 89.1761 89.3436 89.4465 89.3436 89.8183C89.3436 90.1901 89.3918 90.4629 89.4884 90.6367ZM92.4017 93.157V88.015H93.3675V88.2105C93.6813 88.0222 93.9549 87.9281 94.1923 87.9281C94.6792 87.9281 95.0414 88.0753 95.2707 88.3698C95.5041 88.6595 95.6208 89.1544 95.6208 89.8545C95.6208 90.5546 95.492 91.0422 95.2345 91.3174C94.981 91.5878 94.5585 91.723 93.9751 91.723C93.8141 91.723 93.6451 91.7085 93.46 91.6795L93.3754 91.6651V93.157H92.4017ZM94.0032 88.7971C93.8261 88.7971 93.6451 88.8333 93.46 88.9058L93.3754 88.942V90.8395C93.5927 90.8684 93.7658 90.8829 93.9026 90.8829C94.1842 90.8829 94.3734 90.8008 94.474 90.6367C94.5827 90.4725 94.6349 90.1925 94.6349 89.7966C94.6349 89.1303 94.4257 88.7971 94.0032 88.7971ZM97.1378 90.2383C97.1458 90.4604 97.2021 90.6222 97.3148 90.7236C97.4275 90.8201 97.5924 90.8684 97.8057 90.8684C98.2564 90.8684 98.6547 90.8539 99.0088 90.825L99.21 90.8032L99.2261 91.5202C98.6708 91.6554 98.1678 91.723 97.7172 91.723C97.174 91.723 96.7756 91.5782 96.5302 91.2885C96.2847 90.9988 96.16 90.528 96.16 89.8762C96.16 88.5774 96.6952 87.9281 97.7615 87.9281C98.8157 87.9281 99.3428 88.4736 99.3428 89.5648L99.2704 90.2383H97.1378ZM98.3852 89.4996C98.3852 89.2099 98.3409 89.0096 98.2483 88.8985C98.1558 88.7826 97.9949 88.7247 97.7615 88.7247C97.5361 88.7247 97.3752 88.7851 97.2786 88.9058C97.1861 89.0216 97.1378 89.2196 97.1337 89.4996H98.3852ZM100.035 91.6361V88.015H100.997V88.3988C101.403 88.1574 101.789 88.0005 102.155 87.9281V88.9058C101.765 88.9878 101.431 89.0723 101.15 89.1592L101.005 89.2099V91.6361H100.035ZM105.503 89.1448V90.6512C105.515 90.767 105.532 90.8491 105.564 90.8974C105.592 90.9408 105.652 90.9722 105.745 90.9915L105.713 91.723C105.467 91.723 105.27 91.7061 105.121 91.6723C104.976 91.6385 104.827 91.5709 104.678 91.4695C104.332 91.6385 103.974 91.723 103.612 91.723C102.864 91.723 102.49 91.3271 102.49 90.5353C102.49 90.149 102.594 89.8762 102.803 89.7169C103.009 89.5527 103.33 89.4562 103.757 89.4272L104.534 89.3693V89.1448C104.534 88.9951 104.501 88.8937 104.433 88.8406C104.365 88.7827 104.256 88.7537 104.107 88.7537L102.743 88.8116L102.715 88.1381C103.234 87.9981 103.721 87.9281 104.188 87.9281C104.654 87.9281 104.988 88.0246 105.194 88.2178C105.399 88.4109 105.503 88.7199 105.503 89.1448ZM103.874 90.1008C103.604 90.1249 103.467 90.2697 103.467 90.5353C103.467 90.8008 103.588 90.9336 103.825 90.9336C104.007 90.9336 104.208 90.9046 104.425 90.8467L104.534 90.8177V90.0428L103.874 90.1008ZM106.276 88.884V88.015H108.964V88.884L107.443 90.767H108.964V91.6361H106.276V90.767L107.797 88.884H106.276ZM109.716 91.6361V88.015H110.69V91.6361H109.716ZM109.716 87.5515V86.5665H110.69V87.5515H109.716ZM111.781 88.4278C112.038 88.0946 112.465 87.9281 113.064 87.9281C113.664 87.9281 114.09 88.0946 114.344 88.4278C114.601 88.7561 114.73 89.2196 114.73 89.8183C114.73 91.0881 114.175 91.723 113.064 91.723C111.954 91.723 111.398 91.0881 111.398 89.8183C111.398 89.2196 111.527 88.7561 111.781 88.4278ZM112.529 90.6367C112.63 90.8105 112.807 90.8974 113.064 90.8974C113.318 90.8974 113.495 90.8105 113.591 90.6367C113.692 90.4629 113.744 90.1901 113.744 89.8183C113.744 89.4465 113.692 89.1761 113.591 89.0072C113.495 88.8382 113.318 88.7537 113.064 88.7537C112.807 88.7537 112.63 88.8382 112.529 89.0072C112.432 89.1761 112.384 89.4465 112.384 89.8183C112.384 90.1901 112.432 90.4629 112.529 90.6367ZM116.412 91.6361H115.442V88.015H116.404V88.2178C116.734 88.0246 117.036 87.9281 117.309 87.9281C117.792 87.9281 118.126 88.0705 118.307 88.3554C118.492 88.6402 118.585 89.0796 118.585 89.6735V91.6361H117.615V89.7024C117.615 89.3934 117.579 89.1665 117.507 89.0217C117.434 88.872 117.289 88.7971 117.072 88.7971C116.871 88.7971 116.682 88.8309 116.497 88.8985L116.412 88.9275V91.6361ZM120.239 90.2383C120.247 90.4604 120.303 90.6222 120.416 90.7236C120.528 90.8201 120.693 90.8684 120.907 90.8684C121.357 90.8684 121.756 90.8539 122.11 90.825L122.311 90.8032L122.327 91.5202C121.772 91.6554 121.269 91.723 120.818 91.723C120.275 91.723 119.877 91.5782 119.631 91.2885C119.386 90.9988 119.261 90.528 119.261 89.8762C119.261 88.5774 119.796 87.9281 120.862 87.9281C121.917 87.9281 122.444 88.4736 122.444 89.5648L122.371 90.2383H120.239ZM121.486 89.4996C121.486 89.2099 121.442 89.0096 121.349 88.8985C121.257 88.7826 121.096 88.7247 120.862 88.7247C120.637 88.7247 120.476 88.7851 120.38 88.9058C120.287 89.0216 120.239 89.2196 120.235 89.4996H121.486Z" fill="#17324D"/>
<path d="M168.871 104.109H40.1074V104.914H168.871V104.109Z" fill="#17324D"/>
<path d="M167.262 240.907C167.262 241.796 167.982 242.517 168.871 242.517C169.761 242.517 170.481 241.796 170.481 240.907C170.481 240.018 169.761 239.298 168.871 239.298C167.982 239.298 167.262 240.018 167.262 240.907ZM209.323 241.12C209.44 241.004 209.44 240.811 209.323 240.694L207.404 238.775C207.283 238.654 207.094 238.654 206.977 238.775C206.856 238.891 206.856 239.081 206.977 239.201L208.683 240.907L206.977 242.613C206.856 242.734 206.856 242.923 206.977 243.04C207.094 243.16 207.283 243.16 207.404 243.04L209.323 241.12ZM168.871 240.907V241.209H209.11V240.907V240.605H168.871V240.907Z" fill="#004080"/>
<path d="M-8.58203 310.767C-8.58203 311.656 -7.86176 312.376 -6.97249 312.376C-6.08322 312.376 -5.36295 311.656 -5.36295 310.767C-5.36295 309.878 -6.08322 309.157 -6.97249 309.157C-7.86176 309.157 -8.58203 309.878 -8.58203 310.767ZM40.3199 239.913C40.4366 239.797 40.4366 239.604 40.3199 239.487L38.4005 237.568C38.2798 237.447 38.0907 237.447 37.974 237.568C37.8532 237.684 37.8532 237.874 37.974 237.994L39.6801 239.7L37.974 241.406C37.8532 241.527 37.8532 241.716 37.974 241.833C38.0907 241.953 38.2798 241.953 38.4005 241.833L40.3199 239.913ZM-6.97249 310.767V311.069L9.32413 311.169L9.32816 310.867V310.566L-6.97249 310.465V310.767ZM17.4241 302.821H17.7259V247.747H17.4241H17.1223V302.821H17.4241ZM25.4718 239.7V240.002H40.1066V239.7V239.398H25.4718V239.7ZM17.4241 247.747H17.7259C17.7259 243.47 21.1945 240.002 25.4718 240.002V239.7V239.398C20.8605 239.398 17.1223 243.136 17.1223 247.747H17.4241ZM9.32816 310.867L9.32413 311.169C13.9556 311.197 17.7259 307.452 17.7259 302.821H17.4241H17.1223C17.1223 307.114 13.6256 310.59 9.32816 310.566V310.867Z" fill="#004080"/>
<g filter="url(#filter1_d_40000356_3227)">
<path d="M328.216 126.64H218.767C213.433 126.64 209.109 130.964 209.109 136.297V345.518C209.109 350.851 213.433 355.174 218.767 355.174H328.216C333.549 355.174 337.873 350.851 337.873 345.518V136.297C337.873 130.964 333.549 126.64 328.216 126.64Z" fill="white"/>
<path d="M217.105 214.867L218.465 209.355H220.244L221.612 214.867H220.711L220.413 213.684H218.297L217.999 214.867H217.105ZM219.158 210.103L218.474 212.896H220.236L219.56 210.103H219.158ZM224.356 211.592H223.246V213.362C223.246 213.692 223.27 213.91 223.318 214.014C223.367 214.123 223.491 214.175 223.688 214.175L224.348 214.151L224.389 214.851C224.03 214.924 223.757 214.956 223.568 214.956C223.113 214.956 222.799 214.851 222.626 214.642C222.461 214.433 222.377 214.038 222.377 213.459V211.592H221.862V210.844H222.377V209.677H223.246V210.844H224.356V211.592ZM227.242 211.592H226.131V213.362C226.131 213.692 226.155 213.91 226.203 214.014C226.252 214.123 226.372 214.175 226.574 214.175L227.233 214.151L227.274 214.851C226.912 214.924 226.638 214.956 226.453 214.956C225.994 214.956 225.68 214.851 225.511 214.642C225.342 214.433 225.262 214.038 225.262 213.459V211.592H224.747V210.844H225.262V209.677H226.131V210.844H227.242V211.592ZM227.962 214.867V210.844H228.839V214.867H227.962ZM227.962 210.16V209.234H228.839V210.16H227.962ZM229.523 210.844H230.44L231.213 214.119H231.471L232.275 210.844H233.169L232.122 214.867H230.561L229.523 210.844ZM236.778 212.083V213.918C236.782 214.038 236.81 214.127 236.867 214.183C236.923 214.24 237.011 214.272 237.132 214.288L237.108 214.956C236.645 214.956 236.287 214.859 236.038 214.658C235.607 214.859 235.177 214.956 234.742 214.956C233.941 214.956 233.543 214.529 233.543 213.676C233.543 213.27 233.648 212.976 233.865 212.791C234.082 212.61 234.42 212.501 234.871 212.461L235.909 212.373V212.083C235.909 211.87 235.861 211.721 235.764 211.632C235.671 211.548 235.535 211.504 235.354 211.504C235.008 211.504 234.581 211.528 234.066 211.568L233.808 211.584L233.776 210.964C234.36 210.828 234.895 210.755 235.386 210.755C235.877 210.755 236.231 210.864 236.448 211.077C236.665 211.286 236.778 211.624 236.778 212.083ZM234.975 213.081C234.605 213.113 234.42 213.314 234.42 213.684C234.42 214.054 234.581 214.24 234.911 214.24C235.177 214.24 235.462 214.199 235.764 214.111L235.909 214.063V212.992L234.975 213.081ZM237.675 211.624V210.844H240.661V211.624L238.73 214.087H240.661V214.867H237.675V214.087L239.615 211.624H237.675ZM241.534 214.867V210.844H242.411V214.867H241.534ZM241.534 210.16V209.234H242.411V210.16H241.534ZM243.691 211.278C243.969 210.932 244.431 210.755 245.075 210.755C245.719 210.755 246.178 210.932 246.451 211.278C246.729 211.628 246.87 212.151 246.87 212.847C246.87 213.548 246.737 214.071 246.468 214.425C246.198 214.779 245.735 214.956 245.075 214.956C244.415 214.956 243.953 214.779 243.683 214.425C243.413 214.071 243.281 213.548 243.281 212.847C243.281 212.151 243.417 211.628 243.691 211.278ZM244.351 213.894C244.476 214.111 244.717 214.215 245.075 214.215C245.433 214.215 245.675 214.111 245.8 213.894C245.924 213.68 245.985 213.33 245.985 212.839C245.985 212.353 245.916 212.007 245.783 211.801C245.655 211.6 245.417 211.496 245.075 211.496C244.733 211.496 244.492 211.6 244.359 211.801C244.23 212.007 244.166 212.353 244.166 212.839C244.166 213.33 244.226 213.68 244.351 213.894ZM248.62 214.867H247.743V210.844H248.612V211.093C249.002 210.868 249.373 210.755 249.723 210.755C250.258 210.755 250.624 210.908 250.817 211.214C251.014 211.516 251.115 212.015 251.115 212.711V214.867H250.246V212.735C250.246 212.3 250.198 211.994 250.101 211.809C250.009 211.628 249.819 211.536 249.53 211.536C249.256 211.536 248.99 211.592 248.741 211.697L248.62 211.745V214.867ZM254.998 214.143L255.223 214.119L255.239 214.771C254.628 214.895 254.089 214.956 253.614 214.956C253.018 214.956 252.592 214.795 252.326 214.465C252.069 214.139 251.94 213.616 251.94 212.896C251.94 211.471 252.523 210.755 253.686 210.755C254.813 210.755 255.376 211.371 255.376 212.598L255.32 213.226H252.825C252.833 213.56 252.906 213.805 253.042 213.958C253.183 214.115 253.445 214.191 253.823 214.191C254.205 214.191 254.596 214.175 254.998 214.143ZM254.515 212.55C254.515 212.155 254.451 211.878 254.322 211.721C254.201 211.56 253.988 211.479 253.686 211.479C253.389 211.479 253.167 211.564 253.026 211.729C252.894 211.898 252.825 212.172 252.817 212.55H254.515ZM258.092 214.867V209.355H258.986V214.867H258.092ZM259.726 210.152V209.355H263.75V210.152H262.197V214.867H261.295V210.152H259.726ZM263.867 213.097V212.3H266.273V213.097H263.867ZM266.824 209.355H267.766L268.554 214.095H268.723L269.77 209.371H270.816L271.862 214.095H272.039L272.828 209.355H273.769L272.683 214.867H271.242L270.293 210.449L269.351 214.867H267.903L266.824 209.355ZM277.355 212.083V213.918C277.359 214.038 277.387 214.127 277.443 214.183C277.5 214.24 277.588 214.272 277.709 214.288L277.685 214.956C277.222 214.956 276.864 214.859 276.614 214.658C276.184 214.859 275.753 214.956 275.319 214.956C274.518 214.956 274.119 214.529 274.119 213.676C274.119 213.27 274.224 212.976 274.441 212.791C274.659 212.61 274.997 212.501 275.447 212.461L276.485 212.373V212.083C276.485 211.87 276.437 211.721 276.341 211.632C276.248 211.548 276.111 211.504 275.93 211.504C275.584 211.504 275.158 211.528 274.643 211.568L274.385 211.584L274.353 210.964C274.936 210.828 275.471 210.755 275.962 210.755C276.453 210.755 276.807 210.864 277.025 211.077C277.242 211.286 277.355 211.624 277.355 212.083ZM275.552 213.081C275.182 213.113 274.997 213.314 274.997 213.684C274.997 214.054 275.158 214.24 275.488 214.24C275.753 214.24 276.039 214.199 276.341 214.111L276.485 214.063V212.992L275.552 213.081ZM278.501 214.867V209.17H279.379V214.867H278.501ZM280.537 214.867V209.17H281.415V214.867H280.537ZM285.39 214.143L285.616 214.119L285.632 214.771C285.02 214.895 284.477 214.956 284.006 214.956C283.41 214.956 282.98 214.795 282.718 214.465C282.461 214.139 282.332 213.616 282.332 212.896C282.332 211.471 282.916 210.755 284.079 210.755C285.205 210.755 285.769 211.371 285.769 212.598L285.712 213.226H283.217C283.221 213.56 283.294 213.805 283.435 213.958C283.575 214.115 283.833 214.191 284.215 214.191C284.598 214.191 284.988 214.175 285.39 214.143ZM284.907 212.55C284.907 212.155 284.843 211.878 284.714 211.721C284.589 211.56 284.38 211.479 284.079 211.479C283.777 211.479 283.559 211.564 283.419 211.729C283.286 211.898 283.213 212.172 283.209 212.55H284.907ZM288.778 211.592H287.668V213.362C287.668 213.692 287.692 213.91 287.74 214.014C287.788 214.123 287.909 214.175 288.11 214.175L288.77 214.151L288.811 214.851C288.448 214.924 288.175 214.956 287.99 214.956C287.531 214.956 287.217 214.851 287.048 214.642C286.879 214.433 286.799 214.038 286.799 213.459V211.592H286.284V210.844H286.799V209.677H287.668V210.844H288.778V211.592ZM292.77 210.755C293.056 210.755 293.39 210.795 293.776 210.868L293.977 210.908L293.945 211.6C293.523 211.56 293.209 211.536 293.003 211.536C292.597 211.536 292.323 211.628 292.183 211.809C292.042 211.994 291.973 212.336 291.973 212.839C291.973 213.346 292.042 213.692 292.174 213.885C292.307 214.079 292.589 214.175 293.011 214.175L293.953 214.111L293.977 214.811C293.434 214.907 293.028 214.956 292.754 214.956C292.142 214.956 291.712 214.795 291.458 214.465C291.213 214.135 291.088 213.592 291.088 212.839C291.088 212.091 291.221 211.556 291.482 211.238C291.744 210.916 292.174 210.755 292.77 210.755ZM295.003 211.278C295.281 210.932 295.744 210.755 296.387 210.755C297.031 210.755 297.49 210.932 297.764 211.278C298.041 211.628 298.182 212.151 298.182 212.847C298.182 213.548 298.049 214.071 297.78 214.425C297.51 214.779 297.047 214.956 296.387 214.956C295.728 214.956 295.265 214.779 294.995 214.425C294.726 214.071 294.593 213.548 294.593 212.847C294.593 212.151 294.73 211.628 295.003 211.278ZM295.663 213.894C295.788 214.111 296.029 214.215 296.387 214.215C296.746 214.215 296.987 214.111 297.112 213.894C297.236 213.68 297.297 213.33 297.297 212.839C297.297 212.353 297.228 212.007 297.096 211.801C296.967 211.6 296.729 211.496 296.387 211.496C296.045 211.496 295.804 211.6 295.671 211.801C295.542 212.007 295.478 212.353 295.478 212.839C295.478 213.33 295.538 213.68 295.663 213.894ZM299.932 214.867H299.055V210.844H299.924V211.093C300.303 210.868 300.653 210.755 300.971 210.755C301.437 210.755 301.775 210.888 301.993 211.15C302.48 210.888 302.966 210.755 303.449 210.755C303.932 210.755 304.27 210.908 304.471 211.206C304.669 211.504 304.769 212.003 304.769 212.711V214.867H303.9V212.735C303.9 212.3 303.852 211.994 303.763 211.809C303.675 211.628 303.494 211.536 303.216 211.536C302.975 211.536 302.713 211.592 302.435 211.697L302.299 211.753C302.339 211.862 302.363 212.204 302.363 212.783V214.867H301.494V212.799C301.494 212.324 301.449 211.994 301.365 211.809C301.276 211.628 301.091 211.536 300.802 211.536C300.532 211.536 300.283 211.592 300.053 211.697L299.932 211.745V214.867ZM305.795 216.597V210.844H306.664V211.093C307.035 210.868 307.381 210.755 307.703 210.755C308.234 210.755 308.624 210.92 308.869 211.246C309.119 211.568 309.24 212.115 309.24 212.88C309.24 213.644 309.099 214.179 308.813 214.489C308.535 214.803 308.077 214.956 307.437 214.956C307.22 214.956 306.962 214.932 306.672 214.883V216.597H305.795ZM307.55 211.536C307.3 211.536 307.047 211.592 306.793 211.705L306.672 211.761V214.135C306.89 214.179 307.123 214.199 307.381 214.199C307.747 214.199 308 214.095 308.137 213.885C308.278 213.676 308.346 213.322 308.346 212.815C308.346 211.962 308.081 211.536 307.55 211.536ZM310.169 214.867V209.17H311.046V214.867H310.169ZM315.018 214.143L315.243 214.119L315.259 214.771C314.648 214.895 314.109 214.956 313.634 214.956C313.038 214.956 312.612 214.795 312.346 214.465C312.089 214.139 311.96 213.616 311.96 212.896C311.96 211.471 312.543 210.755 313.706 210.755C314.833 210.755 315.396 211.371 315.396 212.598L315.34 213.226H312.845C312.853 213.56 312.926 213.805 313.062 213.958C313.203 214.115 313.465 214.191 313.843 214.191C314.225 214.191 314.616 214.175 315.018 214.143ZM314.535 212.55C314.535 212.155 314.471 211.878 314.342 211.721C314.221 211.56 314.008 211.479 313.706 211.479C313.408 211.479 313.187 211.564 313.046 211.729C312.913 211.898 312.845 212.172 312.837 212.55H314.535ZM318.406 211.592H317.295V213.362C317.295 213.692 317.32 213.91 317.368 214.014C317.416 214.123 317.541 214.175 317.738 214.175L318.398 214.151L318.438 214.851C318.08 214.924 317.806 214.956 317.617 214.956C317.163 214.956 316.849 214.851 316.676 214.642C316.511 214.433 316.426 214.038 316.426 213.459V211.592H315.911V210.844H316.426V209.677H317.295V210.844H318.406V211.592ZM322.104 212.083V213.918C322.108 214.038 322.136 214.127 322.192 214.183C322.249 214.24 322.337 214.272 322.458 214.288L322.434 214.956C321.971 214.956 321.613 214.859 321.364 214.658C320.933 214.859 320.502 214.956 320.068 214.956C319.267 214.956 318.869 214.529 318.869 213.676C318.869 213.27 318.973 212.976 319.191 212.791C319.408 212.61 319.746 212.501 320.197 212.461L321.235 212.373V212.083C321.235 211.87 321.187 211.721 321.09 211.632C320.997 211.548 320.861 211.504 320.679 211.504C320.333 211.504 319.907 211.528 319.392 211.568L319.134 211.584L319.102 210.964C319.686 210.828 320.221 210.755 320.712 210.755C321.203 210.755 321.557 210.864 321.774 211.077C321.991 211.286 322.104 211.624 322.104 212.083ZM320.301 213.081C319.931 213.113 319.746 213.314 319.746 213.684C319.746 214.054 319.907 214.24 320.237 214.24C320.502 214.24 320.788 214.199 321.09 214.111L321.235 214.063V212.992L320.301 213.081ZM325.367 211.592H324.257V213.362C324.257 213.692 324.281 213.91 324.329 214.014C324.377 214.123 324.502 214.175 324.699 214.175L325.359 214.151L325.399 214.851C325.041 214.924 324.768 214.956 324.579 214.956C324.124 214.956 323.81 214.851 323.637 214.642C323.472 214.433 323.388 214.038 323.388 213.459V211.592H322.872V210.844H323.388V209.677H324.257V210.844H325.367V211.592ZM329.065 212.083V213.918C329.073 214.038 329.101 214.127 329.154 214.183C329.214 214.24 329.303 214.272 329.419 214.288L329.395 214.956C328.936 214.956 328.578 214.859 328.325 214.658C327.898 214.859 327.464 214.956 327.029 214.956C326.232 214.956 325.83 214.529 325.83 213.676C325.83 213.27 325.939 212.976 326.152 212.791C326.373 212.61 326.707 212.501 327.158 212.461L328.196 212.373V212.083C328.196 211.87 328.148 211.721 328.051 211.632C327.963 211.548 327.826 211.504 327.641 211.504C327.299 211.504 326.868 211.528 326.353 211.568L326.096 211.584L326.063 210.964C326.651 210.828 327.186 210.755 327.673 210.755C328.168 210.755 328.522 210.864 328.735 211.077C328.957 211.286 329.065 211.624 329.065 212.083ZM327.262 213.081C326.892 213.113 326.707 213.314 326.707 213.684C326.707 214.054 326.872 214.24 327.198 214.24C327.468 214.24 327.753 214.199 328.051 214.111L328.196 214.063V212.992L327.262 213.081Z" fill="#5C6F82"/>
<path fill-rule="evenodd" clip-rule="evenodd" d="M269.379 249.594C269.066 249.908 268.555 249.908 268.241 249.594L263.291 244.641C263.014 244.363 262.571 244.355 262.285 244.617C261.98 244.898 261.968 245.377 262.265 245.671L268.237 251.602C268.555 251.919 269.066 251.915 269.379 251.597L284.425 236.316C284.666 236.075 284.666 235.681 284.429 235.439C284.183 235.19 283.781 235.186 283.535 235.435L269.379 249.594Z" fill="#768594"/>
<path fill-rule="evenodd" clip-rule="evenodd" d="M222.59 270.681C222.59 269.792 223.31 269.072 224.199 269.072H322.381C323.271 269.072 323.991 269.792 323.991 270.681C323.991 271.57 323.271 272.29 322.381 272.29H224.199C223.31 272.29 222.59 271.57 222.59 270.681Z" fill="#D9DADB" stroke="#768594" stroke-width="0.5"/>
<path fill-rule="evenodd" clip-rule="evenodd" d="M227.586 277.118C227.586 276.229 228.306 275.509 229.195 275.509H317.165C318.054 275.509 318.775 276.229 318.775 277.118C318.775 278.008 318.054 278.728 317.165 278.728H229.195C228.306 278.728 227.586 278.008 227.586 277.118Z" fill="#D9DADB" stroke="#768594" stroke-width="0.5"/>
</g>
</g>
<defs>
<filter id="filter0_d_40000356_3227" x="20.1074" y="106.64" width="168.764" height="268.534" filterUnits="userSpaceOnUse" color-interpolation-filters="sRGB">
<feFlood flood-opacity="0" result="BackgroundImageFix"/>
<feColorMatrix in="SourceAlpha" type="matrix" values="0 0 0 0 0 0 0 0 0 0 0 0 0 0 0 0 0 0 127 0" result="hardAlpha"/>
<feOffset/>
<feGaussianBlur stdDeviation="10"/>
<feComposite in2="hardAlpha" operator="out"/>
<feColorMatrix type="matrix" values="0 0 0 0 0 0 0 0 0 0 0 0 0 0 0 0 0 0 0.2 0"/>
<feBlend mode="normal" in2="BackgroundImageFix" result="effect1_dropShadow_40000356_3227"/>
<feBlend mode="normal" in="SourceGraphic" in2="effect1_dropShadow_40000356_3227" result="shape"/>
</filter>
<filter id="filter1_d_40000356_3227" x="189.109" y="106.64" width="168.764" height="268.534" filterUnits="userSpaceOnUse" color-interpolation-filters="sRGB">
<feFlood flood-opacity="0" result="BackgroundImageFix"/>
<feColorMatrix in="SourceAlpha" type="matrix" values="0 0 0 0 0 0 0 0 0 0 0 0 0 0 0 0 0 0 127 0" result="hardAlpha"/>
<feOffset/>
<feGaussianBlur stdDeviation="10"/>
<feComposite in2="hardAlpha" operator="out"/>
<feColorMatrix type="matrix" values="0 0 0 0 0 0 0 0 0 0 0 0 0 0 0 0 0 0 0.2 0"/>
<feBlend mode="normal" in2="BackgroundImageFix" result="effect1_dropShadow_40000356_3227"/>
<feBlend mode="normal" in="SourceGraphic" in2="effect1_dropShadow_40000356_3227" result="shape"/>
</filter>
<clipPath id="clip0_40000356_3227">
<rect width="453" height="384" fill="white" transform="translate(21.6836 31)"/>
</clipPath>
</defs>
</svg>
