<svg width="259" height="412" viewBox="0 0 259 412" fill="none" xmlns="http://www.w3.org/2000/svg">
<g clip-path="url(#clip0_40000380_3226)">
<rect width="259" height="412" fill="white"/>
<path d="M64.5431 61.9537H64.3331L63.8151 64.1797H65.0541L64.5431 61.9537ZM62.4151 66.1257L63.5911 61.1557H65.2851L66.4541 66.1257H65.4881L65.2501 65.0197H63.6191L63.3811 66.1257H62.4151ZM67.016 62.5557H67.947V62.7447C67.947 62.7447 68.332 62.4857 68.871 62.4857C69.599 62.4857 70.124 62.9757 70.124 64.3827C70.124 65.8247 69.536 66.1957 68.626 66.1957C68.276 66.1957 67.954 66.1257 67.954 66.1257V67.7357H67.016V62.5557ZM68.577 63.3117C68.276 63.3117 67.954 63.4517 67.954 63.4517V65.3417C67.954 65.3417 68.269 65.3837 68.465 65.3837C69.025 65.3837 69.172 65.0057 69.172 64.3827C69.172 63.5007 68.934 63.3117 68.577 63.3117ZM72.3915 65.3977L73.6165 65.4047L73.6305 66.0977C73.6305 66.0977 72.8255 66.2237 72.1745 66.2237C71.1175 66.2237 70.6695 65.6847 70.6695 64.3337C70.6695 63.0527 71.1805 62.4437 72.2515 62.4437C73.2315 62.4437 73.7425 62.9687 73.7425 64.0117L73.6725 64.6627H71.6145C71.6215 65.2227 71.6775 65.3977 72.3915 65.3977ZM72.8185 63.9487C72.8185 63.3957 72.6575 63.2137 72.2165 63.2137C71.7685 63.2137 71.6145 63.4307 71.6075 63.9487H72.8185ZM74.4262 62.5557H75.3572V62.9267C75.3572 62.9267 75.9452 62.5487 76.4772 62.4437V63.3887C75.8612 63.5077 75.3642 63.7107 75.3642 63.7107V66.1257H74.4262V62.5557ZM78.1367 64.8727C78.1367 65.2227 78.1367 65.3837 78.4307 65.3837L78.9977 65.3697L79.0397 66.1187C79.0397 66.1187 78.5357 66.2237 78.2907 66.2237C77.4437 66.2237 77.1987 65.9017 77.1987 64.8937V63.3537H76.7857V62.5557H77.1987V61.5547H78.1367V62.5557H78.9977V63.3537H78.1367V64.8727ZM82.6655 62.5557V66.1257H81.7345V65.9157C81.7345 65.9157 81.2305 66.2237 80.8595 66.2237C79.8375 66.2237 79.6275 65.6567 79.6275 64.4737V62.5557H80.5655V64.4877C80.5655 65.1107 80.5935 65.3837 81.0555 65.3837C81.4055 65.3837 81.7275 65.2297 81.7275 65.2297V62.5557H82.6655ZM83.5317 62.5557H84.4627V62.9267C84.4627 62.9267 85.0507 62.5487 85.5827 62.4437V63.3887C84.9667 63.5077 84.4697 63.7107 84.4697 63.7107V66.1257H83.5317V62.5557ZM88.7901 65.1877C88.7901 65.3977 88.8321 65.4817 89.0211 65.5167L88.9931 66.2237C88.5241 66.2237 88.2861 66.1747 87.9921 65.9787C87.9921 65.9787 87.4881 66.2237 86.9631 66.2237C86.2281 66.2237 85.8781 65.8177 85.8781 65.0617C85.8781 64.2287 86.3331 64.0047 87.1031 63.9487L87.8521 63.8927V63.6197C87.8521 63.3187 87.7191 63.2417 87.4391 63.2417C86.9771 63.2417 86.1231 63.2977 86.1231 63.2977L86.0951 62.6467C86.0951 62.6467 86.8441 62.4437 87.5161 62.4437C88.4261 62.4437 88.7901 62.8007 88.7901 63.6197V65.1877ZM87.2151 64.5997C86.9701 64.6207 86.8231 64.7397 86.8231 65.0337C86.8231 65.2927 86.9141 65.4607 87.1661 65.4607C87.4671 65.4607 87.8521 65.3487 87.8521 65.3487V64.5437L87.2151 64.5997ZM92.4717 65.3837C92.7797 65.3837 93.1297 65.2227 93.1297 65.2227V63.3117C93.1297 63.3117 92.7447 63.2557 92.5067 63.2557C92.0937 63.2557 91.8767 63.5217 91.8767 64.4317C91.8767 65.0827 92.0097 65.3837 92.4717 65.3837ZM94.0677 66.1257H93.1647V65.9367C93.1647 65.9367 92.8077 66.2237 92.2267 66.2237C91.3237 66.2237 90.9107 65.6007 90.9107 64.4317C90.9107 62.9477 91.4777 62.4437 92.3457 62.4437C92.6887 62.4437 93.1297 62.5277 93.1297 62.5277V61.0157H94.0677V66.1257ZM96.495 65.3977L97.72 65.4047L97.734 66.0977C97.734 66.0977 96.929 66.2237 96.278 66.2237C95.221 66.2237 94.773 65.6847 94.773 64.3337C94.773 63.0527 95.284 62.4437 96.355 62.4437C97.335 62.4437 97.846 62.9687 97.846 64.0117L97.776 64.6627H95.718C95.725 65.2227 95.781 65.3977 96.495 65.3977ZM96.922 63.9487C96.922 63.3957 96.761 63.2137 96.32 63.2137C95.872 63.2137 95.718 63.4307 95.711 63.9487H96.922ZM99.4467 64.8867C99.4467 65.2367 99.4537 65.3977 99.6777 65.3977C99.8737 65.3977 100.056 65.3837 100.056 65.3837L100.098 66.1187C100.098 66.1187 99.7757 66.2237 99.5307 66.2237C98.7537 66.2237 98.5087 65.9017 98.5087 65.1177V61.0157H99.4467V64.8867ZM101.559 64.8867C101.559 65.2367 101.566 65.3977 101.79 65.3977C101.986 65.3977 102.168 65.3837 102.168 65.3837L102.21 66.1187C102.21 66.1187 101.888 66.2237 101.643 66.2237C100.866 66.2237 100.621 65.9017 100.621 65.1177V61.0157H101.559V64.8867ZM102.772 61.0157H103.808L103.178 63.0317H102.422L102.772 61.0157ZM105.839 61.9537H105.629L105.111 64.1797H106.35L105.839 61.9537ZM103.711 66.1257L104.887 61.1557H106.581L107.75 66.1257H106.784L106.546 65.0197H104.915L104.677 66.1257H103.711ZM108.312 62.5557H109.243V62.7447C109.243 62.7447 109.628 62.4857 110.167 62.4857C110.895 62.4857 111.42 62.9757 111.42 64.3827C111.42 65.8247 110.832 66.1957 109.922 66.1957C109.572 66.1957 109.25 66.1257 109.25 66.1257V67.7357H108.312V62.5557ZM109.873 63.3117C109.572 63.3117 109.25 63.4517 109.25 63.4517V65.3417C109.25 65.3417 109.565 65.3837 109.761 65.3837C110.321 65.3837 110.468 65.0057 110.468 64.3827C110.468 63.5007 110.23 63.3117 109.873 63.3117ZM112.126 62.5557H113.057V62.7447C113.057 62.7447 113.442 62.4857 113.981 62.4857C114.709 62.4857 115.234 62.9757 115.234 64.3827C115.234 65.8247 114.646 66.1957 113.736 66.1957C113.386 66.1957 113.064 66.1257 113.064 66.1257V67.7357H112.126V62.5557ZM113.687 63.3117C113.386 63.3117 113.064 63.4517 113.064 63.4517V65.3417C113.064 65.3417 113.379 65.3837 113.575 65.3837C114.135 65.3837 114.282 65.0057 114.282 64.3827C114.282 63.5007 114.044 63.3117 113.687 63.3117Z" fill="#17324D"/>
<rect x="45.4867" y="91.9434" width="16.3" height="16.3" rx="8.15" stroke="#17324D" stroke-width="0.7"/>
<path d="M53.1548 100.7C53.1548 101.021 53.1172 101.305 53.042 101.551C52.9691 101.795 52.8631 101.999 52.7241 102.163C52.5851 102.329 52.4154 102.454 52.2148 102.539C52.0143 102.623 51.7887 102.665 51.5381 102.665C51.2897 102.665 51.0653 102.623 50.8647 102.539C50.6642 102.454 50.4945 102.329 50.3555 102.163C50.2142 101.999 50.1048 101.795 50.0273 101.551C49.9521 101.305 49.9146 101.021 49.9146 100.7V99.5104C49.9146 99.1891 49.9521 98.9065 50.0273 98.6627C50.1025 98.4166 50.2108 98.2104 50.3521 98.0441C50.491 97.88 50.6597 97.7558 50.8579 97.6715C51.0584 97.5872 51.2829 97.545 51.5312 97.545C51.7819 97.545 52.0075 97.5872 52.208 97.6715C52.4085 97.7558 52.5794 97.88 52.7207 98.0441C52.8597 98.2104 52.9668 98.4166 53.042 98.6627C53.1172 98.9065 53.1548 99.1891 53.1548 99.5104V100.7ZM50.8716 100.29L52.1978 99.3019C52.1932 99.115 52.1727 98.9555 52.1362 98.8234C52.1021 98.6889 52.0508 98.5818 51.9824 98.5021C51.93 98.4383 51.8651 98.3916 51.7876 98.3619C51.7124 98.33 51.627 98.3141 51.5312 98.3141C51.4242 98.3141 51.3296 98.3346 51.2476 98.3756C51.1678 98.4143 51.1006 98.4736 51.0459 98.5533C50.9867 98.6377 50.9422 98.747 50.9126 98.8815C50.8853 99.0159 50.8716 99.1754 50.8716 99.36V99.9103C50.8716 100.02 50.8716 100.093 50.8716 100.129C50.8716 100.165 50.8716 100.219 50.8716 100.29ZM52.1978 100.843V100.266C52.1978 100.191 52.1978 100.136 52.1978 100.102C52.1978 100.065 52.1978 100.014 52.1978 99.9479L50.8716 100.932C50.8761 101.083 50.891 101.216 50.916 101.332C50.9434 101.448 50.981 101.545 51.0288 101.623C51.0835 101.716 51.153 101.786 51.2373 101.831C51.3216 101.877 51.4219 101.9 51.5381 101.9C51.6452 101.9 51.7397 101.88 51.8218 101.841C51.9038 101.8 51.9722 101.739 52.0269 101.657C52.0838 101.57 52.126 101.46 52.1533 101.325C52.1829 101.189 52.1978 101.028 52.1978 100.843ZM56.4463 102.593H55.4858V98.7755L54.228 99.2267V98.3995L56.395 97.6168H56.4463V102.593Z" fill="#17324D"/>
<rect x="209.895" y="91.9434" width="16.3" height="16.3" rx="8.15" stroke="#17324D" stroke-width="0.7"/>
<path d="M217.563 100.7C217.563 101.021 217.525 101.305 217.45 101.551C217.377 101.795 217.271 101.999 217.132 102.163C216.993 102.329 216.824 102.454 216.623 102.539C216.423 102.623 216.197 102.665 215.946 102.665C215.698 102.665 215.473 102.623 215.273 102.539C215.072 102.454 214.903 102.329 214.764 102.163C214.622 101.999 214.513 101.795 214.436 101.551C214.36 101.305 214.323 101.021 214.323 100.7V99.5104C214.323 99.1891 214.36 98.9065 214.436 98.6627C214.511 98.4166 214.619 98.2104 214.76 98.0441C214.899 97.88 215.068 97.7558 215.266 97.6715C215.467 97.5872 215.691 97.545 215.939 97.545C216.19 97.545 216.416 97.5872 216.616 97.6715C216.817 97.7558 216.988 97.88 217.129 98.0441C217.268 98.2104 217.375 98.4166 217.45 98.6627C217.525 98.9065 217.563 99.1891 217.563 99.5104V100.7ZM215.28 100.29L216.606 99.3019C216.601 99.115 216.581 98.9555 216.544 98.8234C216.51 98.6889 216.459 98.5818 216.391 98.5021C216.338 98.4383 216.273 98.3916 216.196 98.3619C216.121 98.33 216.035 98.3141 215.939 98.3141C215.832 98.3141 215.738 98.3346 215.656 98.3756C215.576 98.4143 215.509 98.4736 215.454 98.5533C215.395 98.6377 215.35 98.747 215.321 98.8815C215.293 99.0159 215.28 99.1754 215.28 99.36V99.9103C215.28 100.02 215.28 100.093 215.28 100.129C215.28 100.165 215.28 100.219 215.28 100.29ZM216.606 100.843V100.266C216.606 100.191 216.606 100.136 216.606 100.102C216.606 100.065 216.606 100.014 216.606 99.9479L215.28 100.932C215.284 101.083 215.299 101.216 215.324 101.332C215.352 101.448 215.389 101.545 215.437 101.623C215.492 101.716 215.561 101.786 215.646 101.831C215.73 101.877 215.83 101.9 215.946 101.9C216.053 101.9 216.148 101.88 216.23 101.841C216.312 101.8 216.38 101.739 216.435 101.657C216.492 101.57 216.534 101.46 216.562 101.325C216.591 101.189 216.606 101.028 216.606 100.843ZM221.781 102.593H218.387V101.944L219.997 100.214C220.122 100.078 220.228 99.9536 220.314 99.8419C220.401 99.7303 220.472 99.6277 220.526 99.5343C220.579 99.4432 220.616 99.3577 220.639 99.278C220.664 99.1982 220.677 99.1207 220.677 99.0455C220.677 98.9339 220.661 98.8348 220.629 98.7482C220.597 98.6616 220.553 98.5875 220.496 98.526C220.436 98.4668 220.366 98.4212 220.284 98.3893C220.204 98.3574 220.115 98.3414 220.017 98.3414C219.889 98.3414 219.777 98.3597 219.679 98.3961C219.583 98.4303 219.503 98.4816 219.439 98.5499C219.373 98.6206 219.323 98.7083 219.289 98.8131C219.255 98.9179 219.238 99.0376 219.238 99.172H218.284C218.284 98.951 218.326 98.7425 218.411 98.5465C218.495 98.3483 218.615 98.1751 218.77 98.027C218.922 97.8789 219.107 97.7627 219.323 97.6783C219.542 97.5918 219.784 97.5485 220.048 97.5485C220.301 97.5485 220.524 97.5838 220.718 97.6544C220.914 97.7251 221.078 97.8242 221.21 97.9518C221.34 98.0794 221.439 98.2332 221.507 98.4132C221.576 98.5909 221.61 98.788 221.61 99.0045C221.61 99.1686 221.584 99.3258 221.531 99.4762C221.481 99.6243 221.409 99.7713 221.316 99.9171C221.22 100.063 221.106 100.212 220.974 100.365C220.842 100.515 220.695 100.674 220.533 100.84L219.597 101.831H221.781V102.593Z" fill="#17324D"/>
<g clip-path="url(#clip1_40000380_3226)">
<path d="M-1146.99 -207.889C-1146.99 -224.896 -1133.23 -238.682 -1116.26 -238.682H359.213C376.184 -238.682 389.944 -224.896 389.944 -207.889V1178.98C389.944 1195.99 376.184 1209.77 359.213 1209.77H-1116.26C-1133.23 1209.77 -1146.99 1195.99 -1146.99 1178.98V-207.889Z" fill="white"/>
<path d="M-1116.25 -238.682V-237.143H359.215V-238.682V-240.222H-1116.25V-238.682ZM389.946 -207.889H388.409V1178.98H389.946H391.482V-207.889H389.946ZM359.215 1209.77V1208.24H-1116.25V1209.77V1211.31H359.215V1209.77ZM-1146.98 1178.98H-1145.45V-207.889H-1146.98H-1148.52V1178.98H-1146.98ZM-1116.25 1209.77V1208.24C-1132.38 1208.24 -1145.45 1195.14 -1145.45 1178.98H-1146.98H-1148.52C-1148.52 1196.84 -1134.07 1211.31 -1116.25 1211.31V1209.77ZM389.946 1178.98H388.409C388.409 1195.14 375.337 1208.24 359.215 1208.24V1209.77V1211.31C377.035 1211.31 391.482 1196.84 391.482 1178.98H389.946ZM359.215 -238.682V-237.143C375.337 -237.143 388.409 -224.045 388.409 -207.889H389.946H391.482C391.482 -225.746 377.035 -240.222 359.215 -240.222V-238.682ZM-1116.25 -238.682V-240.222C-1134.07 -240.222 -1148.52 -225.746 -1148.52 -207.889H-1146.98H-1145.45C-1145.45 -224.045 -1132.38 -237.143 -1116.25 -237.143V-238.682Z" fill="#0066CC"/>
<path d="M-1070.16 31.532C-1070.16 28.1305 -1066.89 25.3733 -1062.87 25.3733H562.908C566.938 25.3733 570.202 28.1305 570.202 31.532V416.453C570.202 419.856 566.938 422.612 562.908 422.612H-1062.87C-1066.89 422.612 -1070.16 419.856 -1070.16 416.453V31.532Z" fill="#004080" fill-opacity="0.1"/>
<path d="M64.4726 77.6451H65.5216L64.3802 82.5751H62.5351L61.3936 77.6451H62.4427L63.2948 81.7051H63.6204L64.4726 77.6451ZM66.0844 82.5751V78.9501H67.0531V82.5751H66.0844ZM66.0844 78.4861V77.5001H67.0531V78.4861H66.0844ZM70.5461 79.8564C69.9472 79.779 69.5292 79.7403 69.288 79.7403C69.0509 79.7403 68.8981 79.7621 68.8257 79.8056C68.7574 79.8491 68.7252 79.9192 68.7252 80.0159C68.7252 80.1077 68.7695 80.1729 68.8619 80.2116C68.9584 80.2454 69.1996 80.2986 69.5855 80.3711C69.9754 80.4388 70.2526 80.5524 70.4174 80.7119C70.5822 80.8714 70.6627 81.1299 70.6627 81.4876C70.6627 82.2706 70.1763 82.6621 69.2075 82.6621C68.89 82.6621 68.5042 82.6186 68.05 82.5316L67.8208 82.4881L67.849 81.6761C68.4479 81.7534 68.8619 81.7921 69.0911 81.7921C69.3282 81.7921 69.489 81.7703 69.5694 81.7268C69.6578 81.6785 69.702 81.6084 69.702 81.5166C69.702 81.4248 69.6538 81.3571 69.5613 81.3136C69.4769 81.2701 69.2438 81.2169 68.87 81.1541C68.4961 81.0913 68.2188 80.9849 68.0379 80.8351C67.853 80.6853 67.7606 80.4194 67.7606 80.0376C67.7606 79.6509 67.8932 79.3609 68.1504 79.1676C68.4117 78.9694 68.7494 78.8704 69.1594 78.8704C69.4407 78.8704 69.8306 78.9163 70.321 79.0081L70.5622 79.0516L70.5461 79.8564ZM73.3678 79.7766H72.4755V81.2628C72.4755 81.4078 72.4795 81.5118 72.4835 81.5746C72.4956 81.6326 72.5197 81.6833 72.5639 81.7268C72.6121 81.7703 72.6845 81.7921 72.781 81.7921L73.3316 81.7776L73.3759 82.5533C73.0503 82.6258 72.8051 82.6621 72.6362 82.6621C72.2021 82.6621 71.9047 82.5654 71.7479 82.3721C71.5871 82.1739 71.5068 81.8114 71.5068 81.2846V79.7766H71.0807V78.9501H71.5068V77.9424H72.4755V78.9501H73.3678V79.7766ZM76.7684 80.0811V81.5891C76.7804 81.7051 76.7965 81.7873 76.8287 81.8356C76.8568 81.8791 76.9171 81.9105 77.0096 81.9298L76.9774 82.6621C76.7322 82.6621 76.5352 82.6452 76.3865 82.6114C76.2418 82.5775 76.093 82.5098 75.9443 82.4083C75.5986 82.5775 75.2409 82.6621 74.8792 82.6621C74.1315 82.6621 73.7577 82.2658 73.7577 81.4731C73.7577 81.0864 73.8622 80.8133 74.0712 80.6538C74.2762 80.4895 74.5979 80.3929 75.0239 80.3639L75.7997 80.3059V80.0811C75.7997 79.9313 75.7675 79.8298 75.6992 79.7766C75.6309 79.7186 75.5223 79.6896 75.3736 79.6896L74.011 79.7476L73.9828 79.0734C74.5014 78.9332 74.9877 78.8631 75.4539 78.8631C75.9202 78.8631 76.2538 78.9598 76.4588 79.1531C76.6638 79.3464 76.7684 79.6558 76.7684 80.0811ZM75.1404 81.0381C74.8711 81.0623 74.7344 81.2073 74.7344 81.4731C74.7344 81.7389 74.8551 81.8719 75.0922 81.8719C75.2731 81.8719 75.4741 81.8429 75.6911 81.7849L75.7997 81.7558V80.9801L75.1404 81.0381ZM82.3596 77.5001V82.5751H81.3949V82.4228C81.0572 82.5823 80.7678 82.6621 80.5186 82.6621C79.9961 82.6621 79.6263 82.5098 79.4213 82.2053C79.2123 81.9008 79.1078 81.4199 79.1078 80.7626C79.1078 80.1004 79.2323 79.6195 79.4775 79.3199C79.7308 79.0154 80.1046 78.8631 80.607 78.8631C80.7598 78.8631 80.9769 78.8873 81.2502 78.9356L81.3868 78.9646V77.5001H82.3596ZM81.2863 81.7051L81.3868 81.6833V79.7766C81.1215 79.7283 80.8884 79.7041 80.6794 79.7041C80.2895 79.7041 80.0925 80.0521 80.0925 80.7481C80.0925 81.1251 80.1368 81.3933 80.2252 81.5528C80.3096 81.7123 80.4543 81.7921 80.6513 81.7921C80.8523 81.7921 81.0653 81.7631 81.2863 81.7051ZM83.2519 82.5751V78.9501H84.2246V82.5751H83.2519ZM83.2519 78.4861V77.5001H84.2246V78.4861H83.2519ZM88.4532 82.5751H86.7971V77.6451H88.4532C88.8753 77.6451 89.225 77.691 89.5024 77.7829C89.7757 77.8699 89.9887 78.0173 90.1374 78.2251C90.2942 78.4281 90.3987 78.6698 90.455 78.9501C90.5152 79.2256 90.5434 79.5857 90.5434 80.0304C90.5434 80.475 90.5153 80.8448 90.463 81.1396C90.4107 81.4296 90.3103 81.6906 90.1615 81.9226C90.0168 82.1498 89.8038 82.3165 89.5224 82.4228C89.245 82.5243 88.8873 82.5751 88.4532 82.5751ZM89.5024 80.6176C89.5104 80.4629 89.5143 80.2503 89.5143 79.9796C89.5143 79.7041 89.5064 79.4842 89.4863 79.3199C89.4662 79.1555 89.4219 79.0057 89.3496 78.8704C89.2772 78.735 89.1687 78.6432 89.024 78.5949C88.8833 78.5417 88.6944 78.5151 88.4532 78.5151H87.7941V81.7051H88.4532C88.815 81.7051 89.0762 81.6133 89.241 81.4296C89.3817 81.2798 89.4662 81.0091 89.5024 80.6176ZM92.119 81.1758C92.123 81.3982 92.1834 81.5601 92.2919 81.6616C92.4085 81.7583 92.5733 81.8066 92.7863 81.8066C93.2325 81.8066 93.6344 81.7921 93.9841 81.7631L94.1891 81.7413L94.2012 82.4591C93.6465 82.5944 93.1481 82.6621 92.6979 82.6621C92.1512 82.6621 91.7573 82.5171 91.5121 82.2271C91.267 81.9371 91.1423 81.4658 91.1423 80.8133C91.1423 79.5132 91.6769 78.8631 92.7421 78.8631C93.7912 78.8631 94.3178 79.4093 94.3178 80.5016L94.2454 81.1758H92.119ZM93.3651 80.4364C93.3651 80.1464 93.3168 79.9458 93.2244 79.8346C93.136 79.7186 92.9712 79.6606 92.7421 79.6606C92.5129 79.6606 92.3522 79.721 92.2557 79.8418C92.1633 79.9578 92.1151 80.156 92.1111 80.4364H93.3651ZM97.0149 79.7766H96.1266V81.2628C96.1266 81.4078 96.1266 81.5118 96.1306 81.5746C96.1427 81.6326 96.1668 81.6833 96.211 81.7268C96.2592 81.7703 96.3316 81.7921 96.4281 81.7921L96.9787 81.7776L97.0229 82.5533C96.6974 82.6258 96.4521 82.6621 96.2833 82.6621C95.8492 82.6621 95.5518 82.5654 95.395 82.3721C95.2342 82.1739 95.1538 81.8114 95.1538 81.2846V79.7766H94.7278V78.9501H95.1538V77.9424H96.1266V78.9501H97.0149V79.7766ZM99.6517 79.7766H98.7593V81.2628C98.7593 81.4078 98.7633 81.5118 98.7674 81.5746C98.7794 81.6326 98.8036 81.6833 98.8478 81.7268C98.8961 81.7703 98.9683 81.7921 99.0648 81.7921L99.6155 81.7776L99.6597 82.5533C99.3341 82.6258 99.089 82.6621 98.9202 82.6621C98.4861 82.6621 98.1886 82.5654 98.0319 82.3721C97.8711 82.1739 97.7906 81.8114 97.7906 81.2846V79.7766H97.3645V78.9501H97.7906V77.9424H98.7593V78.9501H99.6517V79.7766ZM103.052 80.0811V81.5891C103.064 81.7051 103.08 81.7873 103.113 81.8356C103.141 81.8791 103.201 81.9105 103.293 81.9298L103.261 82.6621C103.016 82.6621 102.819 82.6452 102.67 82.6114C102.526 82.5775 102.377 82.5098 102.228 82.4083C101.883 82.5775 101.525 82.6621 101.163 82.6621C100.415 82.6621 100.042 82.2658 100.042 81.4731C100.042 81.0864 100.146 80.8133 100.355 80.6538C100.56 80.4895 100.882 80.3929 101.308 80.3639L102.084 80.3059V80.0811C102.084 79.9313 102.051 79.8298 101.983 79.7766C101.915 79.7186 101.806 79.6896 101.658 79.6896L100.295 79.7476L100.267 79.0734C100.785 78.9332 101.272 78.8631 101.738 78.8631C102.204 78.8631 102.538 78.9598 102.743 79.1531C102.948 79.3464 103.052 79.6558 103.052 80.0811ZM101.424 81.0381C101.155 81.0623 101.018 81.2073 101.018 81.4731C101.018 81.7389 101.139 81.8719 101.376 81.8719C101.557 81.8719 101.758 81.8429 101.975 81.7849L102.084 81.7558V80.9801L101.424 81.0381ZM107.257 83.0246C107.257 83.4403 107.096 83.7472 106.778 83.9453C106.461 84.1435 106.027 84.2426 105.484 84.2426C104.941 84.2426 104.523 84.1701 104.23 84.0251C103.941 83.8801 103.796 83.6167 103.796 83.2348C103.796 82.9303 103.969 82.6427 104.318 82.3721C104.138 82.2512 104.049 82.0676 104.049 81.8211C104.049 81.7244 104.121 81.5649 104.266 81.3426L104.33 81.2411C104.005 81.0043 103.84 80.6563 103.84 80.1971C103.84 79.7331 103.977 79.3972 104.254 79.1894C104.531 78.9815 104.901 78.8776 105.359 78.8776C105.569 78.8776 105.774 78.9018 105.975 78.9501L106.091 78.9719L107.257 78.9356V79.7114L106.714 79.6678C106.819 79.8322 106.871 79.9965 106.871 80.1608C106.871 80.6442 106.75 80.9777 106.501 81.1613C106.256 81.345 105.87 81.4369 105.343 81.4369C105.235 81.4369 105.134 81.4272 105.05 81.4078C105.002 81.5335 104.978 81.6374 104.978 81.7196C104.978 81.7969 105.018 81.8501 105.098 81.8791C105.183 81.9081 105.376 81.925 105.677 81.9298C106.284 81.9347 106.702 82.0168 106.923 82.1763C107.144 82.331 107.257 82.6138 107.257 83.0246ZM104.753 83.1333C104.753 83.3412 105.006 83.4451 105.512 83.4451C106.023 83.4451 106.28 83.3243 106.28 83.0826C106.28 82.9521 106.236 82.8675 106.147 82.8288C106.063 82.795 105.878 82.7757 105.597 82.7709L104.945 82.7201C104.817 82.8506 104.753 82.9883 104.753 83.1333ZM104.809 80.1681C104.809 80.5209 104.994 80.6974 105.359 80.6974C105.729 80.6974 105.918 80.5209 105.918 80.1681C105.918 79.8104 105.729 79.6316 105.359 79.6316C104.994 79.6316 104.809 79.8104 104.809 80.1681ZM107.884 82.5751V77.5001H108.856V82.5751H107.884ZM109.793 82.5751V78.9501H110.762V82.5751H109.793ZM109.793 78.4861V77.5001H110.762V78.4861H109.793ZM111.855 79.3634C112.108 79.0299 112.534 78.8631 113.133 78.8631C113.732 78.8631 114.158 79.0299 114.416 79.3634C114.669 79.692 114.797 80.156 114.797 80.7553C114.797 82.0265 114.243 82.6621 113.133 82.6621C112.024 82.6621 111.469 82.0265 111.469 80.7553C111.469 80.156 111.598 79.692 111.855 79.3634ZM112.599 81.5746C112.699 81.7486 112.88 81.8356 113.133 81.8356C113.391 81.8356 113.567 81.7486 113.664 81.5746C113.764 81.4006 113.813 81.1275 113.813 80.7553C113.813 80.3832 113.764 80.1125 113.664 79.9434C113.567 79.7742 113.391 79.6896 113.133 79.6896C112.88 79.6896 112.699 79.7742 112.599 79.9434C112.502 80.1125 112.454 80.3832 112.454 80.7553C112.454 81.1275 112.502 81.4006 112.599 81.5746ZM116.771 82.5751L117.88 77.6451H119.774L120.883 82.5751H119.882L119.689 81.6833H117.965L117.772 82.5751H116.771ZM118.652 78.4716L118.154 80.8133H119.5L119.002 78.4716H118.652ZM123.375 79.7766H122.487V81.2628C122.487 81.4078 122.491 81.5118 122.495 81.5746C122.503 81.6326 122.531 81.6833 122.575 81.7268C122.623 81.7703 122.696 81.7921 122.792 81.7921L123.339 81.7776L123.383 82.5533C123.062 82.6258 122.816 82.6621 122.648 82.6621C122.213 82.6621 121.916 82.5654 121.755 82.3721C121.599 82.1739 121.518 81.8114 121.518 81.2846V79.7766H121.092V78.9501H121.518V77.9424H122.487V78.9501H123.375V79.7766ZM126.012 79.7766H125.124V81.2628C125.124 81.4078 125.124 81.5118 125.132 81.5746C125.14 81.6326 125.168 81.6833 125.208 81.7268C125.256 81.7703 125.329 81.7921 125.425 81.7921L125.976 81.7776L126.02 82.5533C125.698 82.6258 125.449 82.6621 125.28 82.6621C124.846 82.6621 124.553 82.5654 124.392 82.3721C124.231 82.1739 124.155 81.8114 124.155 81.2846V79.7766H123.725V78.9501H124.155V77.9424H125.124V78.9501H126.012V79.7766ZM127.439 81.1758C127.443 81.3982 127.503 81.5601 127.612 81.6616C127.728 81.7583 127.893 81.8066 128.106 81.8066C128.552 81.8066 128.954 81.7921 129.308 81.7631L129.509 81.7413L129.525 82.4591C128.97 82.5944 128.468 82.6621 128.018 82.6621C127.475 82.6621 127.077 82.5171 126.832 82.2271C126.587 81.9371 126.462 81.4658 126.462 80.8133C126.462 79.5132 126.997 78.8631 128.062 78.8631C129.115 78.8631 129.638 79.4093 129.638 80.5016L129.565 81.1758H127.439ZM128.685 80.4364C128.685 80.1464 128.637 79.9458 128.548 79.8346C128.456 79.7186 128.295 79.6606 128.062 79.6606C127.837 79.6606 127.672 79.721 127.576 79.8418C127.487 79.9578 127.439 80.156 127.431 80.4364H128.685ZM132.93 79.8564C132.331 79.779 131.913 79.7403 131.671 79.7403C131.434 79.7403 131.282 79.7621 131.209 79.8056C131.141 79.8491 131.105 79.9192 131.105 80.0159C131.105 80.1077 131.153 80.1729 131.245 80.2116C131.342 80.2454 131.583 80.2986 131.969 80.3711C132.359 80.4388 132.636 80.5524 132.801 80.7119C132.962 80.8714 133.046 81.1299 133.046 81.4876C133.046 82.2706 132.56 82.6621 131.591 82.6621C131.274 82.6621 130.888 82.6186 130.433 82.5316L130.2 82.4881L130.232 81.6761C130.827 81.7534 131.245 81.7921 131.475 81.7921C131.712 81.7921 131.872 81.7703 131.953 81.7268C132.041 81.6785 132.081 81.6084 132.081 81.5166C132.081 81.4248 132.037 81.3571 131.945 81.3136C131.86 81.2701 131.627 81.2169 131.249 81.1541C130.88 81.0913 130.602 80.9849 130.417 80.8351C130.236 80.6853 130.144 80.4194 130.144 80.0376C130.144 79.6509 130.273 79.3609 130.534 79.1676C130.795 78.9694 131.129 78.8704 131.539 78.8704C131.824 78.8704 132.214 78.9163 132.705 79.0081L132.946 79.0516L132.93 79.8564ZM135.747 79.7766H134.859V81.2628C134.859 81.4078 134.863 81.5118 134.867 81.5746C134.875 81.6326 134.903 81.6833 134.947 81.7268C134.996 81.7703 135.068 81.7921 135.164 81.7921L135.711 81.7776L135.755 82.5533C135.434 82.6258 135.189 82.6621 135.02 82.6621C134.586 82.6621 134.288 82.5654 134.127 82.3721C133.971 82.1739 133.89 81.8114 133.89 81.2846V79.7766H133.464V78.9501H133.89V77.9424H134.859V78.9501H135.747V79.7766ZM139.152 80.0811V81.5891C139.16 81.7051 139.18 81.7873 139.208 81.8356C139.236 81.8791 139.297 81.9105 139.389 81.9298L139.361 82.6621C139.116 82.6621 138.919 82.6452 138.766 82.6114C138.621 82.5775 138.477 82.5098 138.328 82.4083C137.978 82.5775 137.624 82.6621 137.263 82.6621C136.515 82.6621 136.141 82.2658 136.141 81.4731C136.141 81.0864 136.246 80.8133 136.451 80.6538C136.66 80.4895 136.977 80.3929 137.407 80.3639L138.183 80.3059V80.0811C138.183 79.9313 138.147 79.8298 138.079 79.7766C138.014 79.7186 137.906 79.6896 137.753 79.6896L136.394 79.7476L136.366 79.0734C136.881 78.9332 137.371 78.8631 137.833 78.8631C138.304 78.8631 138.637 78.9598 138.838 79.1531C139.047 79.3464 139.152 79.6558 139.152 80.0811ZM137.524 81.0381C137.255 81.0623 137.118 81.2073 137.118 81.4731C137.118 81.7389 137.235 81.8719 137.472 81.8719C137.657 81.8719 137.858 81.8429 138.075 81.7849L138.183 81.7558V80.9801L137.524 81.0381ZM142.078 79.7766H141.19V81.2628C141.19 81.4078 141.194 81.5118 141.198 81.5746C141.206 81.6326 141.234 81.6833 141.278 81.7268C141.326 81.7703 141.399 81.7921 141.495 81.7921L142.042 81.7776L142.086 82.5533C141.765 82.6258 141.519 82.6621 141.351 82.6621C140.916 82.6621 140.619 82.5654 140.458 82.3721C140.301 82.1739 140.221 81.8114 140.221 81.2846V79.7766H139.795V78.9501H140.221V77.9424H141.19V78.9501H142.078V79.7766ZM142.906 79.3634C143.163 79.0299 143.589 78.8631 144.188 78.8631C144.783 78.8631 145.213 79.0299 145.467 79.3634C145.724 79.692 145.852 80.156 145.852 80.7553C145.852 82.0265 145.298 82.6621 144.188 82.6621C143.079 82.6621 142.524 82.0265 142.524 80.7553C142.524 80.156 142.649 79.692 142.906 79.3634ZM143.65 81.5746C143.754 81.7486 143.931 81.8356 144.188 81.8356C144.442 81.8356 144.618 81.7486 144.715 81.5746C144.815 81.4006 144.868 81.1275 144.868 80.7553C144.868 80.3832 144.815 80.1125 144.715 79.9434C144.618 79.7742 144.442 79.6896 144.188 79.6896C143.931 79.6896 143.754 79.7742 143.65 79.9434C143.553 80.1125 143.505 80.3832 143.505 80.7553C143.505 81.1275 143.553 81.4006 143.65 81.5746ZM148.24 82.5751V77.6451H151.424V78.5151H149.237V79.6678H150.989V80.5234H149.237V81.7051H151.424V82.5751H148.24ZM152.199 82.5751V77.5001H153.172V82.5751H152.199ZM154.905 81.1758C154.909 81.3982 154.965 81.5601 155.077 81.6616C155.194 81.7583 155.359 81.8066 155.568 81.8066C156.018 81.8066 156.42 81.7921 156.77 81.7631L156.975 81.7413L156.987 82.4591C156.432 82.5944 155.929 82.6621 155.483 82.6621C154.937 82.6621 154.543 82.5171 154.298 82.2271C154.048 81.9371 153.928 81.4658 153.928 80.8133C153.928 79.5132 154.458 78.8631 155.527 78.8631C156.577 78.8631 157.103 79.4093 157.103 80.5016L157.031 81.1758H154.905ZM156.147 80.4364C156.147 80.1464 156.102 79.9458 156.01 79.8346C155.917 79.7186 155.757 79.6606 155.527 79.6606C155.298 79.6606 155.138 79.721 155.041 79.8418C154.949 79.9578 154.901 80.156 154.896 80.4364H156.147ZM159.8 79.7766H158.912V81.2628C158.912 81.4078 158.912 81.5118 158.916 81.5746C158.928 81.6326 158.952 81.6833 158.996 81.7268C159.045 81.7703 159.117 81.7921 159.213 81.7921L159.764 81.7776L159.808 82.5533C159.483 82.6258 159.238 82.6621 159.069 82.6621C158.635 82.6621 158.337 82.5654 158.18 82.3721C158.02 82.1739 157.939 81.8114 157.939 81.2846V79.7766H157.513V78.9501H157.939V77.9424H158.912V78.9501H159.8V79.7766ZM162.437 79.7766H161.545V81.2628C161.545 81.4078 161.549 81.5118 161.553 81.5746C161.561 81.6326 161.589 81.6833 161.633 81.7268C161.681 81.7703 161.754 81.7921 161.85 81.7921L162.401 81.7776L162.441 82.5533C162.12 82.6258 161.874 82.6621 161.706 82.6621C161.271 82.6621 160.974 82.5654 160.813 82.3721C160.656 82.1739 160.576 81.8114 160.576 81.2846V79.7766H160.15V78.9501H160.576V77.9424H161.545V78.9501H162.437V79.7766ZM163.068 82.5751V78.9501H164.029V79.3343C164.435 79.0927 164.821 78.9356 165.186 78.8631V79.8418C164.797 79.924 164.463 80.0086 164.182 80.0956L164.037 80.1463V82.5751H163.068ZM165.954 79.3634C166.212 79.0299 166.638 78.8631 167.237 78.8631C167.831 78.8631 168.261 79.0299 168.515 79.3634C168.772 79.692 168.901 80.156 168.901 80.7553C168.901 82.0265 168.346 82.6621 167.237 82.6621C166.127 82.6621 165.572 82.0265 165.572 80.7553C165.572 80.156 165.697 79.692 165.954 79.3634ZM166.698 81.5746C166.802 81.7486 166.979 81.8356 167.237 81.8356C167.49 81.8356 167.667 81.7486 167.763 81.5746C167.864 81.4006 167.916 81.1275 167.916 80.7553C167.916 80.3832 167.864 80.1125 167.763 79.9434C167.667 79.7742 167.49 79.6896 167.237 79.6896C166.979 79.6896 166.802 79.7742 166.698 79.9434C166.601 80.1125 166.553 80.3832 166.553 80.7553C166.553 81.1275 166.601 81.4006 166.698 81.5746ZM170.581 82.5751H169.608V78.9501H170.573V79.1531C170.898 78.9598 171.2 78.8631 171.477 78.8631C171.959 78.8631 172.293 79.0057 172.474 79.2909C172.659 79.576 172.751 80.0159 172.751 80.6104V82.5751H171.779V80.6393C171.779 80.33 171.742 80.1029 171.67 79.9579C171.598 79.808 171.453 79.7331 171.236 79.7331C171.039 79.7331 170.85 79.7669 170.665 79.8346L170.581 79.8636V82.5751ZM173.608 82.5751V78.9501H174.58V82.5751H173.608ZM173.608 78.4861V77.5001H174.58V78.4861H173.608ZM176.827 78.8631C177.076 78.8631 177.398 78.9018 177.788 78.9791L177.985 79.0226L177.957 79.7911C177.575 79.7524 177.293 79.7331 177.109 79.7331C176.775 79.7331 176.554 79.8056 176.445 79.9506C176.337 80.0908 176.285 80.359 176.285 80.7553C176.285 81.1517 176.337 81.4248 176.445 81.5746C176.554 81.7196 176.779 81.7921 177.117 81.7921L177.957 81.7341L177.985 82.5098C177.47 82.6113 177.076 82.6621 176.807 82.6621C176.268 82.6621 175.883 82.5122 175.649 82.2126C175.416 81.9081 175.3 81.4223 175.3 80.7553C175.3 80.0883 175.42 79.6074 175.661 79.3126C175.903 79.0129 176.293 78.8631 176.827 78.8631ZM178.869 79.3634C179.126 79.0299 179.552 78.8631 180.151 78.8631C180.75 78.8631 181.176 79.0299 181.434 79.3634C181.687 79.692 181.815 80.156 181.815 80.7553C181.815 82.0265 181.261 82.6621 180.151 82.6621C179.042 82.6621 178.487 82.0265 178.487 80.7553C178.487 80.156 178.616 79.692 178.869 79.3634ZM179.617 81.5746C179.717 81.7486 179.894 81.8356 180.151 81.8356C180.409 81.8356 180.581 81.7486 180.678 81.5746C180.782 81.4006 180.831 81.1275 180.831 80.7553C180.831 80.3832 180.782 80.1125 180.678 79.9434C180.581 79.7742 180.409 79.6896 180.151 79.6896C179.894 79.6896 179.717 79.7742 179.617 79.9434C179.52 80.1125 179.472 80.3832 179.472 80.7553C179.472 81.1275 179.52 81.4006 179.617 81.5746Z" fill="#17324D"/>
<path d="M189.902 95.0612H61.2764V95.8667H189.902V95.0612Z" fill="#17324D"/>
<g filter="url(#filter0_d_40000380_3226)">
</g>
<g filter="url(#filter1_d_40000380_3226)">
<path d="M180.255 117.617H70.9233C65.5954 117.617 61.2764 121.944 61.2764 127.283V336.727C61.2764 342.066 65.5954 346.393 70.9233 346.393H180.255C185.583 346.393 189.902 342.066 189.902 336.727V127.283C189.902 121.944 185.583 117.617 180.255 117.617Z" fill="white"/>
<path d="M70.2471 136.144H68.3418V130.626H70.2471C71.0952 130.626 71.674 130.84 71.9835 131.271C72.293 131.702 72.4498 132.374 72.4498 133.293C72.4498 133.76 72.4176 134.159 72.3533 134.485C72.293 134.807 72.1885 135.101 72.0317 135.363C71.7262 135.882 71.1314 136.144 70.2471 136.144ZM71.5253 133.293C71.5253 132.628 71.4409 132.145 71.2761 131.851C71.1113 131.557 70.7656 131.408 70.2471 131.408H69.2341V135.355H70.2471C70.7776 135.355 71.1314 135.157 71.3083 134.767C71.3927 134.569 71.4489 134.356 71.4771 134.13C71.5092 133.905 71.5253 133.627 71.5253 133.293ZM73.6034 132.551C73.8808 132.201 74.343 132.028 74.9861 132.028C75.6293 132.028 76.0875 132.201 76.3608 132.551C76.6381 132.902 76.7788 133.425 76.7788 134.122C76.7788 134.819 76.6462 135.347 76.3769 135.701C76.1076 136.056 75.6453 136.233 74.9861 136.233C74.3269 136.233 73.8647 136.056 73.5954 135.701C73.3261 135.347 73.1934 134.819 73.1934 134.122C73.1934 133.425 73.3301 132.902 73.6034 132.551ZM74.2626 135.169C74.3872 135.383 74.6284 135.492 74.9861 135.492C75.3439 135.492 75.5851 135.383 75.7097 135.169C75.8343 134.956 75.8946 134.602 75.8946 134.114C75.8946 133.627 75.8262 133.28 75.6936 133.075C75.565 132.87 75.3278 132.769 74.9861 132.769C74.6445 132.769 74.4033 132.87 74.2706 133.075C74.142 133.28 74.0777 133.627 74.0777 134.114C74.0777 134.602 74.138 134.956 74.2626 135.169ZM79.1544 132.028C79.4357 132.028 79.7734 132.064 80.1592 132.141L80.3602 132.181L80.3281 132.874C79.9021 132.829 79.5885 132.809 79.3875 132.809C78.9775 132.809 78.7042 132.902 78.5675 133.083C78.4268 133.264 78.3585 133.611 78.3585 134.114C78.3585 134.618 78.4228 134.968 78.5595 135.161C78.6921 135.355 78.9695 135.451 79.3956 135.451L80.3362 135.387L80.3602 136.088C79.8176 136.185 79.4117 136.233 79.1384 136.233C78.5274 136.233 78.0933 136.068 77.8441 135.741C77.5949 135.407 77.4742 134.867 77.4742 134.114C77.4742 133.361 77.6028 132.829 77.8681 132.511C78.1294 132.189 78.5595 132.028 79.1544 132.028ZM83.6402 132.116H84.5084V136.144H83.6402V135.895C83.2504 136.12 82.8886 136.233 82.555 136.233C82.0043 136.233 81.6345 136.084 81.4456 135.79C81.2607 135.488 81.1641 134.964 81.1641 134.219V132.116H82.0405V134.227C82.0405 134.71 82.0807 135.037 82.1611 135.202C82.2415 135.367 82.4303 135.451 82.7238 135.451C83.0132 135.451 83.2785 135.399 83.5196 135.29L83.6402 135.242V132.116ZM86.4459 136.144H85.5697V132.116H86.4378V132.366C86.8197 132.141 87.1694 132.028 87.483 132.028C87.9492 132.028 88.2908 132.161 88.5039 132.423C88.9942 132.161 89.4766 132.028 89.959 132.028C90.4413 132.028 90.783 132.177 90.98 132.479C91.1809 132.773 91.2774 133.276 91.2774 133.985V136.144H90.4091V134.01C90.4091 133.575 90.365 133.264 90.2725 133.083C90.1881 132.902 90.0072 132.809 89.7258 132.809C89.4846 132.809 89.2274 132.862 88.946 132.97L88.8093 133.027C88.8536 133.136 88.8737 133.478 88.8737 134.058V136.144H88.0054V134.074C88.0054 133.595 87.9653 133.264 87.8769 133.083C87.7925 132.902 87.6035 132.809 87.3141 132.809C87.0488 132.809 86.7996 132.862 86.5665 132.97L86.4459 133.019V136.144ZM95.1683 135.419L95.3934 135.395L95.4095 136.048C94.7985 136.172 94.2559 136.233 93.7856 136.233C93.1907 136.233 92.7606 136.068 92.4994 135.741C92.2421 135.415 92.1135 134.892 92.1135 134.171C92.1135 132.741 92.6963 132.028 93.8579 132.028C94.9834 132.028 95.5461 132.644 95.5461 133.873L95.4899 134.501H92.9978C93.0018 134.835 93.0742 135.077 93.2149 135.234C93.3555 135.391 93.6128 135.468 93.9946 135.468C94.3765 135.468 94.7663 135.451 95.1683 135.419ZM94.686 133.824C94.686 133.425 94.6217 133.152 94.493 132.995C94.3684 132.833 94.1594 132.753 93.8579 132.753C93.5565 132.753 93.3394 132.837 93.1988 133.003C93.0661 133.168 92.9938 133.442 92.9897 133.824H94.686ZM97.2665 136.144H96.3903V132.116H97.2585V132.366C97.6483 132.141 98.0182 132.028 98.3679 132.028C98.9025 132.028 99.2682 132.181 99.4612 132.487C99.6581 132.789 99.7586 133.289 99.7586 133.985V136.144H98.8904V134.01C98.8904 133.575 98.8422 133.264 98.7458 133.083C98.6533 132.902 98.4643 132.809 98.1749 132.809C97.9016 132.809 97.6363 132.862 97.3871 132.97L97.2665 133.019V136.144ZM102.942 132.866H101.833V134.638C101.833 134.964 101.857 135.182 101.905 135.29C101.953 135.399 102.074 135.451 102.275 135.451L102.934 135.427L102.974 136.128C102.612 136.197 102.339 136.233 102.154 136.233C101.696 136.233 101.383 136.128 101.214 135.919C101.045 135.709 100.964 135.315 100.964 134.735V132.866H100.45V132.116H100.964V130.948H101.833V132.116H102.942V132.866ZM103.875 132.551C104.156 132.201 104.614 132.028 105.257 132.028C105.901 132.028 106.359 132.201 106.632 132.551C106.913 132.902 107.05 133.425 107.05 134.122C107.05 134.819 106.917 135.347 106.648 135.701C106.383 136.056 105.917 136.233 105.257 136.233C104.598 136.233 104.136 136.056 103.867 135.701C103.601 135.347 103.465 134.819 103.465 134.122C103.465 133.425 103.601 132.902 103.875 132.551ZM104.534 135.169C104.658 135.383 104.9 135.492 105.257 135.492C105.619 135.492 105.86 135.383 105.981 135.169C106.106 134.956 106.166 134.602 106.166 134.114C106.166 133.627 106.102 133.28 105.965 133.075C105.836 132.87 105.603 132.769 105.257 132.769C104.916 132.769 104.679 132.87 104.542 133.075C104.413 133.28 104.349 133.627 104.349 134.114C104.349 134.602 104.413 134.956 104.534 135.169Z" fill="#5C6F82"/>
<path fill-rule="evenodd" clip-rule="evenodd" d="M67.708 145.811C67.708 144.921 68.4275 144.2 69.3158 144.2H180.256C181.144 144.2 181.863 144.921 181.863 145.811C181.863 146.701 181.144 147.422 180.256 147.422H69.3158C68.4275 147.422 67.708 146.701 67.708 145.811Z" fill="#D9DADB" stroke="#768594" stroke-width="0.5"/>
<path fill-rule="evenodd" clip-rule="evenodd" d="M67.708 152.255C67.708 151.365 68.4275 150.644 69.3158 150.644H168.756C169.644 150.644 170.363 151.365 170.363 152.255C170.363 153.145 169.644 153.866 168.756 153.866H69.3158C68.4275 153.866 67.708 153.145 67.708 152.255Z" fill="#D9DADB" stroke="#768594" stroke-width="0.5"/>
<mask id="mask0_40000380_3226" style="mask-type:luminance" maskUnits="userSpaceOnUse" x="67" y="163" width="117" height="73">
<path d="M177.04 163.533H74.1393C70.5874 163.533 67.708 166.418 67.708 169.977V228.783C67.708 232.342 70.5874 235.227 74.1393 235.227H177.04C180.592 235.227 183.471 232.342 183.471 228.783V169.977C183.471 166.418 180.592 163.533 177.04 163.533Z" fill="white"/>
</mask>
<g mask="url(#mask0_40000380_3226)">
<path d="M177.04 163.533H74.1393C70.5874 163.533 67.708 166.418 67.708 169.977V228.783C67.708 232.342 70.5874 235.227 74.1393 235.227H177.04C180.592 235.227 183.471 232.342 183.471 228.783V169.977C183.471 166.418 180.592 163.533 177.04 163.533Z" fill="#F2F7FC"/>
</g>
<path d="M177.04 163.734H74.1395C70.6986 163.734 67.9092 166.53 67.9092 169.978V228.783C67.9092 232.231 70.6986 235.026 74.1395 235.026H177.04C180.481 235.026 183.27 232.231 183.27 228.783V169.978C183.27 166.53 180.481 163.734 177.04 163.734Z" stroke="#929DA9"/>
<path fill-rule="evenodd" clip-rule="evenodd" d="M74.1387 172.797C74.1387 171.323 75.3285 170.13 76.7997 170.13H169.571C171.042 170.13 172.232 171.323 172.232 172.797C172.232 174.271 171.042 175.467 169.571 175.467H76.7997C75.3285 175.467 74.1387 174.271 74.1387 172.797Z" fill="#768594"/>
<path fill-rule="evenodd" clip-rule="evenodd" d="M74.1387 180.953C74.1387 179.479 75.3285 178.283 76.7997 178.283H161.512C162.983 178.283 164.177 179.479 164.177 180.953C164.177 182.427 162.983 183.624 161.512 183.624H76.7997C75.3285 183.624 74.1387 182.427 74.1387 180.953Z" fill="#768594"/>
<path fill-rule="evenodd" clip-rule="evenodd" d="M74.9434 247.31C74.9434 245.977 76.0206 244.894 77.3551 244.894H118.355C119.685 244.894 120.766 245.977 120.766 247.31C120.766 248.643 119.685 249.727 118.355 249.727H77.3551C76.0206 249.727 74.9434 248.643 74.9434 247.31Z" fill="#C5C7C9" stroke="#768594" stroke-width="0.5"/>
<path fill-rule="evenodd" clip-rule="evenodd" d="M74.9434 254.56C74.9434 253.67 75.6629 252.949 76.5512 252.949H164.177C165.066 252.949 165.785 253.67 165.785 254.56C165.785 255.45 165.066 256.171 164.177 256.171H76.5512C75.6629 256.171 74.9434 255.45 74.9434 254.56Z" fill="#D9DADB" stroke="#768594" stroke-width="0.5"/>
<path d="M69.3111 252.948C70.1965 252.948 70.9143 252.227 70.9143 251.338C70.9143 250.448 70.1965 249.727 69.3111 249.727C68.4257 249.727 67.708 250.448 67.708 251.338C67.708 252.227 68.4257 252.948 69.3111 252.948Z" fill="#5C6F82"/>
<path fill-rule="evenodd" clip-rule="evenodd" d="M74.9434 265.033C74.9434 263.7 76.0206 262.616 77.3551 262.616H118.355C119.685 262.616 120.766 263.7 120.766 265.033C120.766 266.366 119.685 267.45 118.355 267.45H77.3551C76.0206 267.45 74.9434 266.366 74.9434 265.033Z" fill="#C5C7C9" stroke="#768594" stroke-width="0.5"/>
<path fill-rule="evenodd" clip-rule="evenodd" d="M74.9434 272.282C74.9434 271.392 75.6629 270.671 76.5512 270.671H164.177C165.066 270.671 165.785 271.392 165.785 272.282C165.785 273.173 165.066 273.894 164.177 273.894H76.5512C75.6629 273.894 74.9434 273.173 74.9434 272.282Z" fill="#D9DADB" stroke="#768594" stroke-width="0.5"/>
<path d="M69.3111 270.671C70.1965 270.671 70.9143 269.949 70.9143 269.06C70.9143 268.17 70.1965 267.449 69.3111 267.449C68.4257 267.449 67.708 268.17 67.708 269.06C67.708 269.949 68.4257 270.671 69.3111 270.671Z" fill="#5C6F82"/>
<path fill-rule="evenodd" clip-rule="evenodd" d="M74.9434 282.755C74.9434 281.422 76.0206 280.338 77.3551 280.338H118.355C119.685 280.338 120.766 281.422 120.766 282.755C120.766 284.088 119.685 285.171 118.355 285.171H77.3551C76.0206 285.171 74.9434 284.088 74.9434 282.755Z" fill="#C5C7C9" stroke="#768594" stroke-width="0.5"/>
<path fill-rule="evenodd" clip-rule="evenodd" d="M74.9434 290.005C74.9434 289.115 75.6629 288.394 76.5512 288.394H164.177C165.066 288.394 165.785 289.115 165.785 290.005C165.785 290.895 165.066 291.616 164.177 291.616H76.5512C75.6629 291.616 74.9434 290.895 74.9434 290.005Z" fill="#D9DADB" stroke="#768594" stroke-width="0.5"/>
<path d="M69.3111 288.393C70.1965 288.393 70.9143 287.672 70.9143 286.782C70.9143 285.893 70.1965 285.171 69.3111 285.171C68.4257 285.171 67.708 285.893 67.708 286.782C67.708 287.672 68.4257 288.393 69.3111 288.393Z" fill="#5C6F82"/>
<path d="M69.5521 307.787C68.9652 307.787 68.5592 307.63 68.3261 307.316C68.097 306.998 67.9805 306.502 67.9805 305.822C67.9805 305.137 68.097 304.63 68.3301 304.299C68.5673 303.969 68.9733 303.804 69.5521 303.804C70.1309 303.804 70.5369 303.969 70.766 304.299C70.9991 304.625 71.1156 305.133 71.1156 305.814C71.1156 306.265 71.0675 306.631 70.971 306.909C70.8785 307.187 70.7218 307.401 70.5048 307.546L70.975 308.307L70.3962 308.577L69.8938 307.755C69.8254 307.779 69.7088 307.787 69.5521 307.787ZM68.8205 306.913C68.9491 307.135 69.1903 307.244 69.5521 307.244C69.9138 307.244 70.155 307.135 70.2796 306.921C70.4042 306.704 70.4685 306.337 70.4685 305.822C70.4685 305.306 70.4042 304.932 70.2716 304.698C70.147 304.464 69.9058 304.348 69.5521 304.348C69.1984 304.348 68.9572 304.464 68.8245 304.698C68.6959 304.932 68.6276 305.302 68.6276 305.814C68.6276 306.325 68.6919 306.692 68.8205 306.913ZM73.4752 304.907H74.0821V307.727H73.4752V307.554C73.2018 307.711 72.9487 307.787 72.7155 307.787C72.3296 307.787 72.0723 307.687 71.9397 307.477C71.807 307.268 71.7427 306.901 71.7427 306.378V304.907H72.3577V306.386C72.3577 306.724 72.3858 306.95 72.4421 307.066C72.4984 307.183 72.627 307.244 72.836 307.244C73.037 307.244 73.222 307.203 73.3908 307.131L73.4752 307.095V304.907ZM76.9079 305.777V307.062C76.9119 307.143 76.932 307.207 76.9722 307.248C77.0124 307.284 77.0726 307.308 77.157 307.32L77.1411 307.787C76.8155 307.787 76.5662 307.719 76.3893 307.582C76.0919 307.719 75.7904 307.787 75.4849 307.787C74.9262 307.787 74.6448 307.489 74.6448 306.893C74.6448 306.607 74.7212 306.402 74.8699 306.273C75.0267 306.144 75.2598 306.067 75.5734 306.039L76.3009 305.979V305.777C76.3009 305.624 76.2688 305.52 76.2004 305.459C76.1361 305.399 76.0397 305.371 75.911 305.371C75.6739 305.371 75.3724 305.387 75.0107 305.415L74.8337 305.427L74.8097 304.992C75.2197 304.895 75.5935 304.847 75.9352 304.847C76.2809 304.847 76.526 304.92 76.6787 305.073C76.8315 305.218 76.9079 305.451 76.9079 305.777ZM75.6497 306.474C75.3884 306.498 75.2598 306.639 75.2598 306.897C75.2598 307.159 75.3724 307.288 75.6015 307.288C75.7904 307.288 75.9874 307.256 76.2004 307.195L76.3009 307.163V306.414L75.6497 306.474ZM77.7118 307.727V303.735H78.3268V307.727H77.7118ZM80.1557 304.847C80.3527 304.847 80.5858 304.871 80.8591 304.924L80.9998 304.952L80.9756 305.439C80.6782 305.407 80.4612 305.391 80.3165 305.391C80.0311 305.391 79.8422 305.455 79.7417 305.584C79.6452 305.713 79.5969 305.951 79.5969 306.305C79.5969 306.66 79.6452 306.905 79.7377 307.038C79.8301 307.175 80.0271 307.244 80.3245 307.244L80.9796 307.195L80.9998 307.687C80.6179 307.755 80.3326 307.787 80.1436 307.787C79.7136 307.787 79.4121 307.675 79.2352 307.445C79.0624 307.211 78.9779 306.833 78.9779 306.305C78.9779 305.781 79.0703 305.407 79.2552 305.185C79.4361 304.96 79.7377 304.847 80.1557 304.847ZM81.7153 305.214C81.9122 304.968 82.2337 304.847 82.6839 304.847C83.1341 304.847 83.4557 304.968 83.6447 305.214C83.8416 305.455 83.9381 305.822 83.9381 306.313C83.9381 306.8 83.8457 307.167 83.6567 307.417C83.4678 307.666 83.1462 307.787 82.6839 307.787C82.2217 307.787 81.8961 307.666 81.7112 307.417C81.5223 307.167 81.4299 306.8 81.4299 306.313C81.4299 305.822 81.5263 305.455 81.7153 305.214ZM82.1775 307.046C82.2619 307.195 82.4307 307.272 82.6839 307.272C82.9331 307.272 83.102 307.195 83.1904 307.046C83.2748 306.893 83.3191 306.647 83.3191 306.305C83.3191 305.963 83.2708 305.721 83.1783 305.58C83.0899 305.435 82.9251 305.363 82.6839 305.363C82.4428 305.363 82.278 305.435 82.1815 305.58C82.0931 305.721 82.0489 305.963 82.0489 306.305C82.0489 306.647 82.089 306.893 82.1775 307.046ZM86.5025 305.487C86.0563 305.427 85.7388 305.399 85.5379 305.399C85.3409 305.399 85.2002 305.423 85.1238 305.471C85.0475 305.516 85.0113 305.588 85.0113 305.693C85.0113 305.794 85.0515 305.866 85.1319 305.906C85.2203 305.947 85.4173 305.995 85.7308 306.051C86.0443 306.104 86.2694 306.188 86.398 306.305C86.5306 306.422 86.595 306.627 86.595 306.925C86.595 307.223 86.5025 307.441 86.3096 307.582C86.1207 307.719 85.8474 307.787 85.4816 307.787C85.2525 307.787 84.963 307.755 84.6174 307.695L84.4405 307.666L84.4647 307.151C84.9149 307.211 85.2364 307.244 85.4374 307.244C85.6343 307.244 85.775 307.219 85.8594 307.167C85.9439 307.119 85.988 307.038 85.988 306.925C85.988 306.813 85.9479 306.736 85.8635 306.696C85.7871 306.651 85.5941 306.603 85.2846 306.555C84.9831 306.502 84.758 306.422 84.6174 306.313C84.4727 306.204 84.4003 306.003 84.4003 305.713C84.4003 305.423 84.5008 305.21 84.6937 305.065C84.8947 304.924 85.148 304.851 85.4535 304.851C85.6946 304.851 85.988 304.879 86.3377 304.94L86.5106 304.976L86.5025 305.487ZM89.268 305.777V307.062C89.272 307.143 89.2921 307.207 89.3283 307.248C89.3725 307.284 89.4328 307.308 89.5172 307.32L89.4972 307.787C89.1756 307.787 88.9263 307.719 88.7495 307.582C88.448 307.719 88.1465 307.787 87.8451 307.787C87.2864 307.787 87.005 307.489 87.005 306.893C87.005 306.607 87.0814 306.402 87.2301 306.273C87.3828 306.144 87.62 306.067 87.9335 306.039L88.6611 305.979V305.777C88.6611 305.624 88.6249 305.52 88.5606 305.459C88.4963 305.399 88.3998 305.371 88.2712 305.371C88.03 305.371 87.7326 305.387 87.3708 305.415L87.1899 305.427L87.1698 304.992C87.5758 304.895 87.9537 304.847 88.2953 304.847C88.641 304.847 88.8861 304.92 89.0389 305.073C89.1916 305.218 89.268 305.451 89.268 305.777ZM88.0058 306.474C87.7486 306.498 87.62 306.639 87.62 306.897C87.62 307.159 87.7325 307.288 87.9617 307.288C88.1506 307.288 88.3475 307.256 88.5606 307.195L88.6611 307.163V306.414L88.0058 306.474ZM91.8888 307.727H91.2738V304.907H91.8807V305.081C92.1541 304.924 92.4153 304.847 92.6605 304.847C93.0343 304.847 93.2875 304.952 93.4242 305.165C93.5608 305.379 93.6332 305.725 93.6332 306.216V307.727H93.0262V306.233C93.0262 305.926 92.9901 305.713 92.9217 305.584C92.8574 305.455 92.7248 305.391 92.5238 305.391C92.3309 305.391 92.15 305.431 91.9732 305.504L91.8888 305.54V307.727ZM94.4975 305.214C94.6944 304.968 95.0159 304.847 95.4661 304.847C95.9163 304.847 96.2379 304.968 96.4269 305.214C96.6238 305.455 96.7203 305.822 96.7203 306.313C96.7203 306.8 96.6278 307.167 96.4388 307.417C96.2539 307.666 95.9284 307.787 95.4661 307.787C95.0039 307.787 94.6783 307.666 94.4934 307.417C94.3045 307.167 94.2121 306.8 94.2121 306.313C94.2121 305.822 94.3085 305.455 94.4975 305.214ZM94.9597 307.046C95.0441 307.195 95.2129 307.272 95.4661 307.272C95.7194 307.272 95.8882 307.195 95.9726 307.046C96.057 306.893 96.1013 306.647 96.1013 306.305C96.1013 305.963 96.057 305.721 95.9605 305.58C95.8721 305.435 95.7073 305.363 95.4661 305.363C95.225 305.363 95.0602 305.435 94.9637 305.58C94.8753 305.721 94.831 305.963 94.831 306.305C94.831 306.647 94.8753 306.893 94.9597 307.046ZM97.9422 307.727H97.3313V304.907H97.9382V305.081C98.2116 304.924 98.4728 304.847 98.714 304.847C99.0918 304.847 99.345 304.952 99.4817 305.165C99.6183 305.379 99.6867 305.725 99.6867 306.216V307.727H99.0797V306.233C99.0797 305.926 99.0476 305.713 98.9792 305.584C98.9149 305.455 98.7823 305.391 98.5813 305.391C98.3884 305.391 98.2035 305.431 98.0266 305.504L97.9422 305.54V307.727ZM103.152 305.431H102.376V306.672C102.376 306.901 102.392 307.054 102.428 307.131C102.46 307.203 102.549 307.244 102.685 307.244L103.148 307.223L103.176 307.715C102.922 307.763 102.733 307.787 102.601 307.787C102.283 307.787 102.062 307.715 101.942 307.57C101.825 307.421 101.769 307.147 101.769 306.74V305.431H101.407V304.907H101.769V304.09H102.376V304.907H103.152V305.431ZM103.807 305.214C104.004 304.968 104.325 304.847 104.775 304.847C105.226 304.847 105.547 304.968 105.736 305.214C105.933 305.455 106.03 305.822 106.03 306.313C106.03 306.8 105.937 307.167 105.748 307.417C105.563 307.666 105.238 307.787 104.775 307.787C104.313 307.787 103.988 307.666 103.803 307.417C103.614 307.167 103.521 306.8 103.521 306.313C103.521 305.822 103.618 305.455 103.807 305.214ZM104.269 307.046C104.353 307.195 104.522 307.272 104.775 307.272C105.029 307.272 105.197 307.195 105.282 307.046C105.366 306.893 105.411 306.647 105.411 306.305C105.411 305.963 105.366 305.721 105.27 305.58C105.181 305.435 105.017 305.363 104.775 305.363C104.534 305.363 104.37 305.435 104.273 305.58C104.185 305.721 104.14 305.963 104.14 306.305C104.14 306.647 104.185 306.893 104.269 307.046ZM106.641 307.727V304.907H107.247V305.246C107.565 305.04 107.887 304.907 108.204 304.847V305.459C107.883 305.524 107.605 305.608 107.376 305.709L107.252 305.757V307.727H106.641ZM109.285 307.727H108.674V304.907H109.281V305.081C109.555 304.924 109.812 304.847 110.057 304.847C110.431 304.847 110.688 304.952 110.821 305.165C110.962 305.379 111.03 305.725 111.03 306.216V307.727H110.423V306.233C110.423 305.926 110.391 305.713 110.322 305.584C110.258 305.455 110.125 305.391 109.92 305.391C109.732 305.391 109.547 305.431 109.37 305.504L109.285 305.54V307.727ZM113.827 305.777V307.062C113.831 307.143 113.852 307.207 113.888 307.248C113.932 307.284 113.992 307.308 114.077 307.32L114.057 307.787C113.735 307.787 113.486 307.719 113.309 307.582C113.008 307.719 112.706 307.787 112.405 307.787C111.846 307.787 111.564 307.489 111.564 306.893C111.564 306.607 111.641 306.402 111.79 306.273C111.942 306.144 112.179 306.067 112.493 306.039L113.22 305.979V305.777C113.22 305.624 113.184 305.52 113.12 305.459C113.056 305.399 112.959 305.371 112.831 305.371C112.589 305.371 112.292 305.387 111.93 305.415L111.749 305.427L111.729 304.992C112.135 304.895 112.513 304.847 112.855 304.847C113.2 304.847 113.446 304.92 113.598 305.073C113.751 305.218 113.827 305.451 113.827 305.777ZM112.565 306.474C112.308 306.498 112.179 306.639 112.179 306.897C112.179 307.159 112.292 307.288 112.521 307.288C112.71 307.288 112.907 307.256 113.12 307.195L113.22 307.163V306.414L112.565 306.474ZM116.448 307.727H115.833V304.907H116.44V305.081C116.713 304.924 116.975 304.847 117.22 304.847C117.594 304.847 117.847 304.952 117.984 305.165C118.12 305.379 118.193 305.725 118.193 306.216V307.727H117.586V306.233C117.586 305.926 117.55 305.713 117.481 305.584C117.417 305.455 117.284 305.391 117.083 305.391C116.89 305.391 116.71 305.431 116.533 305.504L116.448 305.54V307.727ZM120.91 307.219L121.067 307.203L121.079 307.658C120.649 307.747 120.271 307.787 119.941 307.787C119.523 307.787 119.226 307.675 119.041 307.445C118.86 307.215 118.772 306.849 118.772 306.345C118.772 305.346 119.178 304.847 119.993 304.847C120.781 304.847 121.175 305.274 121.175 306.136L121.135 306.575H119.391C119.395 306.809 119.443 306.982 119.543 307.091C119.64 307.199 119.821 307.252 120.086 307.252C120.355 307.252 120.629 307.244 120.91 307.219ZM120.572 306.104C120.572 305.826 120.528 305.632 120.436 305.524C120.351 305.411 120.202 305.355 119.993 305.355C119.78 305.355 119.628 305.411 119.531 305.528C119.435 305.645 119.387 305.838 119.382 306.104H120.572ZM121.762 307.727V304.907H122.377V307.727H121.762ZM121.762 304.428V303.78H122.377V304.428H121.762ZM126.654 303.735V307.727H126.047V307.582C125.77 307.719 125.52 307.787 125.291 307.787C124.925 307.787 124.652 307.679 124.479 307.457C124.31 307.235 124.226 306.861 124.226 306.341C124.226 305.818 124.323 305.439 124.507 305.201C124.7 304.964 124.998 304.847 125.4 304.847C125.532 304.847 125.745 304.871 126.039 304.92V303.735H126.654ZM125.942 307.139L126.039 307.103V305.431C125.814 305.395 125.605 305.375 125.416 305.375C125.038 305.375 124.845 305.693 124.845 306.321C124.845 306.668 124.889 306.909 124.978 307.046C125.066 307.175 125.207 307.244 125.4 307.244C125.589 307.244 125.77 307.207 125.942 307.139ZM129.48 305.777V307.062C129.484 307.143 129.504 307.207 129.54 307.248C129.58 307.284 129.644 307.308 129.725 307.32L129.709 307.787C129.387 307.787 129.138 307.719 128.961 307.582C128.66 307.719 128.358 307.787 128.053 307.787C127.494 307.787 127.217 307.489 127.217 306.893C127.217 306.607 127.293 306.402 127.442 306.273C127.594 306.144 127.828 306.067 128.145 306.039L128.869 305.979V305.777C128.869 305.624 128.837 305.52 128.768 305.459C128.704 305.399 128.611 305.371 128.483 305.371C128.242 305.371 127.94 305.387 127.582 305.415L127.401 305.427L127.377 304.992C127.787 304.895 128.165 304.847 128.503 304.847C128.849 304.847 129.098 304.92 129.246 305.073C129.403 305.218 129.48 305.451 129.48 305.777ZM128.217 306.474C127.96 306.498 127.828 306.639 127.828 306.897C127.828 307.159 127.944 307.288 128.173 307.288C128.362 307.288 128.559 307.256 128.768 307.195L128.869 307.163V306.414L128.217 306.474ZM131.763 305.431H130.987V306.672C130.987 306.901 131.003 307.054 131.035 307.131C131.071 307.203 131.156 307.244 131.297 307.244L131.755 307.223L131.783 307.715C131.534 307.763 131.341 307.787 131.212 307.787C130.89 307.787 130.673 307.715 130.553 307.57C130.436 307.421 130.376 307.147 130.376 306.74V305.431H130.018V304.907H130.376V304.09H130.987V304.907H131.763V305.431ZM132.265 307.727V304.907H132.88V307.727H132.265ZM132.265 304.428V303.78H132.88V304.428H132.265ZM135.537 304.714C135.537 304.968 135.505 305.161 135.441 305.29C135.38 305.423 135.256 305.564 135.063 305.713C134.87 305.866 134.745 305.983 134.681 306.076C134.621 306.16 134.589 306.257 134.589 306.357V306.543H134.094C134.006 306.426 133.961 306.281 133.961 306.104C133.961 306.007 133.998 305.914 134.066 305.822C134.138 305.725 134.267 305.604 134.448 305.455C134.633 305.302 134.757 305.181 134.814 305.101C134.874 305.012 134.906 304.899 134.906 304.762C134.906 304.485 134.705 304.348 134.307 304.348C134.082 304.348 133.849 304.376 133.6 304.428L133.471 304.456L133.435 303.989C133.785 303.864 134.102 303.804 134.388 303.804C134.781 303.804 135.071 303.876 135.256 304.021C135.441 304.166 135.537 304.396 135.537 304.714ZM133.998 307.727V306.937H134.653V307.727H133.998Z" fill="#0066CC"/>
<path d="M67.708 308.347H70.0877V308.516H67.708V308.347ZM71.0644 308.347H135.735V308.516H71.0644V308.347Z" fill="#0066CC"/>
<mask id="mask1_40000380_3226" style="mask-type:luminance" maskUnits="userSpaceOnUse" x="65" y="317" width="121" height="25">
<path d="M185.978 317.515H65.3379V341.765H185.978V317.515Z" fill="white"/>
</mask>
<g mask="url(#mask1_40000380_3226)">
<path d="M177.04 319.609H74.1395C70.6986 319.609 67.9092 322.404 67.9092 325.852V332.296C67.9092 335.744 70.6986 338.539 74.1395 338.539H177.04C180.481 338.539 183.27 335.744 183.27 332.296V325.852C183.27 322.404 180.481 319.609 177.04 319.609Z" fill="white" stroke="#0066CC"/>
<path d="M98.2038 329.92V331.491H97.4883V327.076H99.1604C100.157 327.076 100.652 327.543 100.652 328.482C100.652 329.11 100.415 329.533 99.9322 329.759L100.66 331.491H99.8759L99.2368 329.92H98.2038ZM99.9201 328.486C99.9201 327.958 99.6668 327.697 99.1604 327.697H98.2038V329.3H99.1725C99.4297 329.3 99.6187 329.227 99.7393 329.082C99.8599 328.929 99.9201 328.732 99.9201 328.486ZM101.379 331.491V328.268H102.083V331.491H101.379ZM101.379 327.721V326.98H102.083V327.721H101.379ZM103.634 331.491H102.931V328.268H103.626V328.47C103.932 328.289 104.209 328.196 104.462 328.196C104.836 328.196 105.109 328.305 105.278 328.514C105.668 328.305 106.058 328.196 106.444 328.196C106.83 328.196 107.103 328.317 107.26 328.558C107.421 328.796 107.497 329.195 107.497 329.763V331.491H106.802V329.783C106.802 329.437 106.765 329.187 106.693 329.042C106.625 328.897 106.48 328.824 106.255 328.824C106.062 328.824 105.857 328.865 105.632 328.953L105.523 328.998C105.56 329.082 105.576 329.356 105.576 329.823V331.491H104.88V329.835C104.88 329.453 104.848 329.187 104.776 329.042C104.707 328.897 104.559 328.824 104.326 328.824C104.113 328.824 103.916 328.865 103.731 328.953L103.634 328.989V331.491ZM110.27 328.268H110.962V331.491H110.27V331.289C109.957 331.471 109.667 331.563 109.402 331.563C108.96 331.563 108.663 331.442 108.514 331.209C108.365 330.967 108.289 330.548 108.289 329.952V328.268H108.988V329.956C108.988 330.343 109.02 330.605 109.085 330.737C109.149 330.87 109.302 330.935 109.535 330.935C109.768 330.935 109.981 330.895 110.174 330.806L110.27 330.77V328.268ZM111.987 328.615C112.208 328.337 112.578 328.196 113.092 328.196C113.607 328.196 113.972 328.337 114.194 328.615C114.415 328.897 114.527 329.316 114.527 329.872C114.527 330.431 114.419 330.854 114.206 331.136C113.989 331.418 113.619 331.563 113.092 331.563C112.566 331.563 112.196 331.418 111.979 331.136C111.766 330.854 111.657 330.431 111.657 329.872C111.657 329.316 111.766 328.897 111.987 328.615ZM112.513 330.709C112.614 330.883 112.807 330.967 113.092 330.967C113.378 330.967 113.571 330.883 113.671 330.709C113.772 330.54 113.82 330.258 113.82 329.867C113.82 329.477 113.763 329.199 113.659 329.034C113.554 328.873 113.366 328.792 113.092 328.792C112.819 328.792 112.626 328.873 112.521 329.034C112.417 329.199 112.365 329.477 112.365 329.867C112.365 330.258 112.413 330.54 112.513 330.709ZM114.869 328.268H115.604L116.219 330.891H116.428L117.072 328.268H117.783L116.947 331.491H115.701L114.869 328.268ZM118.334 331.491V328.268H119.033V331.491H118.334ZM118.334 327.721V326.98H119.033V327.721H118.334ZM123.921 326.927V331.491H123.226V331.321C122.912 331.483 122.627 331.563 122.365 331.563C121.943 331.563 121.634 331.434 121.437 331.181C121.244 330.927 121.147 330.504 121.147 329.904C121.147 329.308 121.256 328.873 121.469 328.603C121.69 328.333 122.028 328.196 122.486 328.196C122.639 328.196 122.884 328.224 123.217 328.281V326.927H123.921ZM123.109 330.822L123.217 330.774V328.869C122.96 328.824 122.723 328.804 122.506 328.804C122.072 328.804 121.855 329.163 121.855 329.888C121.855 330.282 121.903 330.556 122.004 330.709C122.108 330.862 122.269 330.935 122.486 330.935C122.703 330.935 122.912 330.899 123.109 330.822ZM127.149 329.259V330.729C127.153 330.826 127.177 330.895 127.221 330.943C127.265 330.987 127.337 331.015 127.43 331.027L127.414 331.563C127.044 331.563 126.759 331.483 126.558 331.321C126.216 331.483 125.87 331.563 125.521 331.563C124.882 331.563 124.564 331.221 124.564 330.536C124.564 330.21 124.648 329.972 124.821 329.827C124.998 329.682 125.263 329.594 125.625 329.565L126.453 329.493V329.259C126.453 329.09 126.417 328.969 126.337 328.901C126.264 328.832 126.156 328.796 126.011 328.796C125.738 328.796 125.392 328.812 124.982 328.848L124.777 328.861L124.749 328.365C125.219 328.252 125.645 328.196 126.035 328.196C126.429 328.196 126.715 328.285 126.883 328.454C127.06 328.623 127.149 328.893 127.149 329.259ZM125.71 330.061C125.412 330.085 125.263 330.246 125.263 330.544C125.263 330.838 125.396 330.987 125.657 330.987C125.87 330.987 126.099 330.955 126.337 330.887L126.453 330.846V329.988L125.71 330.061ZM129.524 331.491V327.076H130.24V331.491H129.524ZM130.826 327.713V327.076H134.042V327.713H132.804V331.491H132.081V327.713H130.826ZM134.139 330.073V329.437H136.064V330.073H134.139ZM136.502 327.076H137.254L137.885 330.87H138.017L138.853 327.088H139.69L140.526 330.87H140.67L141.297 327.076H142.053L141.185 331.491H140.031L139.272 327.954L138.52 331.491H137.362L136.502 327.076ZM144.915 329.259V330.729C144.919 330.826 144.943 330.895 144.987 330.943C145.036 330.987 145.104 331.015 145.2 331.027L145.18 331.563C144.81 331.563 144.525 331.483 144.324 331.321C143.982 331.483 143.637 331.563 143.291 331.563C142.652 331.563 142.33 331.221 142.33 330.536C142.33 330.21 142.419 329.972 142.588 329.827C142.765 329.682 143.034 329.594 143.392 329.565L144.224 329.493V329.259C144.224 329.09 144.183 328.969 144.107 328.901C144.035 328.832 143.922 328.796 143.777 328.796C143.504 328.796 143.163 328.812 142.749 328.848L142.544 328.861L142.519 328.365C142.986 328.252 143.416 328.196 143.806 328.196C144.2 328.196 144.481 328.285 144.654 328.454C144.831 328.623 144.915 328.893 144.915 329.259ZM143.476 330.061C143.179 330.085 143.034 330.246 143.034 330.544C143.034 330.838 143.162 330.987 143.424 330.987C143.641 330.987 143.866 330.955 144.107 330.887L144.224 330.846V329.988L143.476 330.061ZM145.835 331.491V326.927H146.535V331.491H145.835ZM147.463 331.491V326.927H148.163V331.491H147.463ZM151.338 330.911L151.519 330.891L151.531 331.414C151.045 331.511 150.611 331.563 150.233 331.563C149.759 331.563 149.413 331.43 149.204 331.168C148.999 330.907 148.894 330.488 148.894 329.912C148.894 328.768 149.361 328.196 150.289 328.196C151.19 328.196 151.64 328.691 151.64 329.674L151.596 330.178H149.602C149.606 330.443 149.666 330.637 149.775 330.762C149.887 330.886 150.096 330.951 150.402 330.951C150.703 330.951 151.017 330.935 151.338 330.911ZM150.952 329.634C150.952 329.316 150.9 329.094 150.8 328.969C150.699 328.84 150.53 328.776 150.289 328.776C150.052 328.776 149.875 328.844 149.763 328.977C149.658 329.11 149.602 329.328 149.598 329.634H150.952ZM154.047 328.869H153.159V330.286C153.159 330.548 153.179 330.721 153.215 330.806C153.256 330.895 153.352 330.935 153.513 330.935L154.039 330.919L154.072 331.479C153.786 331.535 153.565 331.563 153.416 331.563C153.051 331.563 152.801 331.479 152.665 331.309C152.532 331.144 152.464 330.826 152.464 330.363V328.869H152.054V328.268H152.464V327.334H153.159V328.268H154.047V328.869Z" fill="#0066CC"/>
</g>
</g>
</g>
<rect x="44.7895" y="87.3825" width="16.3" height="16.3" rx="8.15" stroke="#17324D" stroke-width="0.7"/>
<path d="M52.4575 96.1389C52.4575 96.4602 52.4199 96.7439 52.3447 96.99C52.2718 97.2338 52.1659 97.4377 52.0269 97.6018C51.8879 97.7681 51.7181 97.8935 51.5176 97.9778C51.3171 98.0621 51.0915 98.1042 50.8408 98.1042C50.5924 98.1042 50.368 98.0621 50.1675 97.9778C49.967 97.8935 49.7972 97.7681 49.6582 97.6018C49.5169 97.4377 49.4076 97.2338 49.3301 96.99C49.2549 96.7439 49.2173 96.4602 49.2173 96.1389V94.9495C49.2173 94.6282 49.2549 94.3456 49.3301 94.1018C49.4053 93.8557 49.5135 93.6495 49.6548 93.4832C49.7938 93.3191 49.9624 93.1949 50.1606 93.1106C50.3612 93.0263 50.5856 92.9841 50.834 92.9841C51.0846 92.9841 51.3102 93.0263 51.5107 93.1106C51.7113 93.1949 51.8822 93.3191 52.0234 93.4832C52.1624 93.6495 52.2695 93.8557 52.3447 94.1018C52.4199 94.3456 52.4575 94.6282 52.4575 94.9495V96.1389ZM50.1743 95.7288L51.5005 94.741C51.4959 94.5541 51.4754 94.3946 51.439 94.2625C51.4048 94.128 51.3535 94.0209 51.2852 93.9412C51.2327 93.8774 51.1678 93.8306 51.0903 93.801C51.0151 93.7691 50.9297 93.7532 50.834 93.7532C50.7269 93.7532 50.6323 93.7737 50.5503 93.8147C50.4705 93.8534 50.4033 93.9127 50.3486 93.9924C50.2894 94.0767 50.245 94.1861 50.2153 94.3206C50.188 94.455 50.1743 94.6145 50.1743 94.7991V95.3494C50.1743 95.4587 50.1743 95.5317 50.1743 95.5681C50.1743 95.6046 50.1743 95.6581 50.1743 95.7288ZM51.5005 96.2825V95.7048C51.5005 95.6296 51.5005 95.575 51.5005 95.5408C51.5005 95.5043 51.5005 95.453 51.5005 95.387L50.1743 96.3713C50.1789 96.5217 50.1937 96.655 50.2188 96.7712C50.2461 96.8875 50.2837 96.9843 50.3315 97.0618C50.3862 97.1552 50.4557 97.2247 50.54 97.2703C50.6243 97.3158 50.7246 97.3386 50.8408 97.3386C50.9479 97.3386 51.0425 97.3193 51.1245 97.2805C51.2065 97.2395 51.2749 97.178 51.3296 97.0959C51.3866 97.0094 51.4287 96.8988 51.4561 96.7644C51.4857 96.6277 51.5005 96.467 51.5005 96.2825ZM56.6719 93.5857L54.7339 98.0325H53.7324L55.6738 93.8318H53.1753V93.0559H56.6719V93.5857Z" fill="#17324D"/>
<path d="M57.3524 238.649C57.469 238.532 57.469 238.339 57.3524 238.222L55.4351 236.301C55.3145 236.18 55.1256 236.18 55.0091 236.301C54.8885 236.417 54.8885 236.607 55.0091 236.728L56.7134 238.435L55.0091 240.143C54.8885 240.264 54.8885 240.453 55.0091 240.57C55.1256 240.691 55.3145 240.691 55.4351 240.57L57.3524 238.649ZM20.074 238.435V238.737H57.1394V238.435V238.133H20.074V238.435Z" fill="#004080"/>
<path d="M20.2178 36.7109C20.2178 33.3082 22.9705 30.5521 26.3666 30.5521H232.607C236.004 30.5521 238.756 33.3082 238.756 36.7109V50.9529H20.2178V36.7109Z" fill="#004080"/>
<path d="M95.8257 37.655H96.7887V44H95.8257V37.655ZM101.169 40.301C101.169 40.301 100.125 40.157 99.5578 40.157C99.0538 40.157 98.7838 40.292 98.7838 40.679C98.7838 40.922 98.8918 41.021 99.3958 41.174L100.323 41.462C101.115 41.705 101.34 41.993 101.34 42.65C101.34 43.739 100.665 44.117 99.6118 44.117C98.9188 44.117 97.8838 43.91 97.8838 43.91L97.9198 43.118C97.9198 43.118 98.9908 43.28 99.5128 43.28C100.134 43.28 100.413 43.127 100.413 42.695C100.413 42.434 100.305 42.335 99.8818 42.209L98.8468 41.903C98.1448 41.687 97.8568 41.381 97.8568 40.715C97.8568 39.698 98.6578 39.32 99.5038 39.32C100.17 39.32 101.187 39.518 101.187 39.518L101.169 40.301ZM103.435 42.425C103.435 43.037 103.462 43.28 103.948 43.28C104.2 43.28 104.713 43.244 104.713 43.244L104.758 44C104.758 44 104.137 44.117 103.822 44.117C102.814 44.117 102.499 43.739 102.499 42.443V40.256H101.914V39.455H102.499V38.123H103.426V39.455H104.704V40.256H103.435V42.425ZM108.9 42.992C108.9 43.262 109.044 43.361 109.314 43.406L109.278 44.117C108.738 44.117 108.423 44.036 108.099 43.775C108.099 43.775 107.37 44.117 106.623 44.117C105.75 44.117 105.3 43.622 105.3 42.677C105.3 41.714 105.813 41.372 106.767 41.291L107.964 41.192V40.805C107.964 40.292 107.739 40.121 107.289 40.121C106.677 40.121 105.597 40.22 105.597 40.22L105.561 39.554C105.561 39.554 106.542 39.32 107.352 39.32C108.45 39.32 108.9 39.788 108.9 40.805V42.992ZM106.884 41.957C106.443 42.002 106.245 42.209 106.245 42.65C106.245 43.091 106.416 43.352 106.812 43.352C107.343 43.352 107.964 43.136 107.964 43.136V41.858L106.884 41.957ZM110.176 44V39.455H111.103V39.752C111.103 39.752 111.769 39.32 112.363 39.32C113.614 39.32 113.929 40.022 113.929 41.516V44H112.993V41.543C112.993 40.598 112.876 40.157 112.165 40.157C111.625 40.157 111.112 40.454 111.112 40.454V44H110.176ZM114.882 39.455H118.221V40.427L115.998 42.983V43.163H118.221V44H114.882V43.028L117.096 40.472V40.292H114.882V39.455ZM122.523 42.992C122.523 43.262 122.667 43.361 122.937 43.406L122.901 44.117C122.361 44.117 122.046 44.036 121.722 43.775C121.722 43.775 120.993 44.117 120.246 44.117C119.373 44.117 118.923 43.622 118.923 42.677C118.923 41.714 119.436 41.372 120.39 41.291L121.587 41.192V40.805C121.587 40.292 121.362 40.121 120.912 40.121C120.3 40.121 119.22 40.22 119.22 40.22L119.184 39.554C119.184 39.554 120.165 39.32 120.975 39.32C122.073 39.32 122.523 39.788 122.523 40.805V42.992ZM120.507 41.957C120.066 42.002 119.868 42.209 119.868 42.65C119.868 43.091 120.039 43.352 120.435 43.352C120.966 43.352 121.587 43.136 121.587 43.136V41.858L120.507 41.957ZM127.318 43.28C127.84 43.28 128.389 43.001 128.389 43.001V40.22C128.317 40.202 127.786 40.13 127.444 40.13C126.715 40.13 126.445 40.616 126.445 41.804C126.445 42.974 126.769 43.28 127.318 43.28ZM129.325 44H128.407V43.721C128.407 43.721 127.831 44.117 127.12 44.117C126.121 44.117 125.482 43.541 125.482 41.804C125.482 40.04 126.094 39.32 127.327 39.32C127.741 39.32 128.317 39.419 128.389 39.437V37.43H129.325V44ZM132.376 43.298C132.943 43.298 133.987 43.262 133.987 43.262L134.005 43.964C134.005 43.964 132.979 44.117 132.196 44.117C130.846 44.117 130.342 43.379 130.342 41.741C130.342 40.04 131.035 39.32 132.295 39.32C133.519 39.32 134.158 39.977 134.158 41.399L134.095 42.074H131.278C131.287 42.929 131.476 43.298 132.376 43.298ZM133.231 41.354C133.231 40.409 132.952 40.094 132.268 40.094C131.602 40.094 131.278 40.445 131.269 41.354H133.231ZM136.046 42.623C136.046 43.091 136.073 43.289 136.424 43.289C136.676 43.289 136.892 43.271 136.892 43.271L136.937 44.018C136.937 44.018 136.631 44.117 136.316 44.117C135.443 44.117 135.11 43.739 135.11 42.902V37.43H136.046V42.623ZM140.012 37.655L140.921 43.145H141.191L142.307 37.79H143.423L144.548 43.145H144.818L145.727 37.655H146.699L145.484 44H143.882L142.856 38.915L141.839 44H140.237L139.013 37.655H140.012ZM150.727 42.992C150.727 43.262 150.871 43.361 151.141 43.406L151.105 44.117C150.565 44.117 150.25 44.036 149.926 43.775C149.926 43.775 149.197 44.117 148.45 44.117C147.577 44.117 147.127 43.622 147.127 42.677C147.127 41.714 147.64 41.372 148.594 41.291L149.791 41.192V40.805C149.791 40.292 149.566 40.121 149.116 40.121C148.504 40.121 147.424 40.22 147.424 40.22L147.388 39.554C147.388 39.554 148.369 39.32 149.179 39.32C150.277 39.32 150.727 39.788 150.727 40.805V42.992ZM148.711 41.957C148.27 42.002 148.072 42.209 148.072 42.65C148.072 43.091 148.243 43.352 148.639 43.352C149.17 43.352 149.791 43.136 149.791 43.136V41.858L148.711 41.957ZM152.912 42.623C152.912 43.091 152.939 43.289 153.29 43.289C153.542 43.289 153.758 43.271 153.758 43.271L153.803 44.018C153.803 44.018 153.497 44.117 153.182 44.117C152.309 44.117 151.976 43.739 151.976 42.902V37.43H152.912V42.623ZM155.47 42.623C155.47 43.091 155.497 43.289 155.848 43.289C156.1 43.289 156.316 43.271 156.316 43.271L156.361 44.018C156.361 44.018 156.055 44.117 155.74 44.117C154.867 44.117 154.534 43.739 154.534 42.902V37.43H155.47V42.623ZM158.901 43.298C159.468 43.298 160.512 43.262 160.512 43.262L160.53 43.964C160.53 43.964 159.504 44.117 158.721 44.117C157.371 44.117 156.867 43.379 156.867 41.741C156.867 40.04 157.56 39.32 158.82 39.32C160.044 39.32 160.683 39.977 160.683 41.399L160.62 42.074H157.803C157.812 42.929 158.001 43.298 158.901 43.298ZM159.756 41.354C159.756 40.409 159.477 40.094 158.793 40.094C158.127 40.094 157.803 40.445 157.794 41.354H159.756ZM162.814 42.425C162.814 43.037 162.841 43.28 163.327 43.28C163.579 43.28 164.092 43.244 164.092 43.244L164.137 44C164.137 44 163.516 44.117 163.201 44.117C162.193 44.117 161.878 43.739 161.878 42.443V40.256H161.293V39.455H161.878V38.123H162.805V39.455H164.083V40.256H162.814V42.425Z" fill="white"/>
</g>
<defs>
<filter id="filter0_d_40000380_3226" x="-140.407" y="97.6166" width="168.626" height="268.777" filterUnits="userSpaceOnUse" color-interpolation-filters="sRGB">
<feFlood flood-opacity="0" result="BackgroundImageFix"/>
<feColorMatrix in="SourceAlpha" type="matrix" values="0 0 0 0 0 0 0 0 0 0 0 0 0 0 0 0 0 0 127 0" result="hardAlpha"/>
<feOffset/>
<feGaussianBlur stdDeviation="10"/>
<feComposite in2="hardAlpha" operator="out"/>
<feColorMatrix type="matrix" values="0 0 0 0 0 0 0 0 0 0 0 0 0 0 0 0 0 0 0.2 0"/>
<feBlend mode="normal" in2="BackgroundImageFix" result="effect1_dropShadow_40000380_3226"/>
<feBlend mode="normal" in="SourceGraphic" in2="effect1_dropShadow_40000380_3226" result="shape"/>
</filter>
<filter id="filter1_d_40000380_3226" x="41.2764" y="97.6166" width="168.626" height="268.777" filterUnits="userSpaceOnUse" color-interpolation-filters="sRGB">
<feFlood flood-opacity="0" result="BackgroundImageFix"/>
<feColorMatrix in="SourceAlpha" type="matrix" values="0 0 0 0 0 0 0 0 0 0 0 0 0 0 0 0 0 0 127 0" result="hardAlpha"/>
<feOffset/>
<feGaussianBlur stdDeviation="10"/>
<feComposite in2="hardAlpha" operator="out"/>
<feColorMatrix type="matrix" values="0 0 0 0 0 0 0 0 0 0 0 0 0 0 0 0 0 0 0.2 0"/>
<feBlend mode="normal" in2="BackgroundImageFix" result="effect1_dropShadow_40000380_3226"/>
<feBlend mode="normal" in="SourceGraphic" in2="effect1_dropShadow_40000380_3226" result="shape"/>
</filter>
<clipPath id="clip0_40000380_3226">
<rect width="259" height="412" fill="white"/>
</clipPath>
<clipPath id="clip1_40000380_3226">
<rect width="218" height="334" fill="white" transform="translate(20.7393 51)"/>
</clipPath>
</defs>
</svg>
