<svg xmlns="http://www.w3.org/2000/svg" xmlns:xlink="http://www.w3.org/1999/xlink" contentStyleType="text/css" data-diagram-type="DESCRIPTION" height="257px" preserveAspectRatio="none" style="width:646px;height:257px;" version="1.1" viewBox="0 0 646 257" width="646px" zoomAndPan="magnify"><defs/><g><!--cluster leafsContainer--><g class="cluster" data-entity="leafsContainer" data-source-line="14" data-uid="ent0007" id="cluster_leafsContainer"><rect fill="#E8F2D6" height="87" rx="2.5" ry="2.5" style="stroke:#181818;stroke-width:1;" width="482" x="82.5" y="164"/><text fill="#000000" font-family="sans-serif" font-size="14" font-weight="bold" lengthAdjust="spacing" textLength="42.2871" x="302.3564" y="178.9951">Leafs</text></g><!--entity ci--><g class="entity" data-entity="ci" data-source-line="15" data-uid="ent0008" id="entity_ci"><rect fill="#D6E8F2" height="36.2969" rx="2.5" ry="2.5" style="stroke:#181818;stroke-width:0.5;" width="138.7744" x="247" y="199"/><text fill="#000000" font-family="sans-serif" font-size="14" lengthAdjust="spacing" textLength="72.3652" x="257" y="221.9951">Credential</text><text fill="#000000" font-family="sans-serif" font-size="14" lengthAdjust="spacing" textLength="4.4502" x="329.3652" y="221.9951">&#160;</text><text fill="#000000" font-family="sans-serif" font-size="14" lengthAdjust="spacing" textLength="41.959" x="333.8154" y="221.9951">Issuer</text></g><!--entity wp--><g class="entity" data-entity="wp" data-source-line="16" data-uid="ent0009" id="entity_wp"><rect fill="#D6E8F2" height="36.2969" rx="2.5" ry="2.5" style="stroke:#181818;stroke-width:0.5;" width="126.9482" x="421" y="199"/><text fill="#000000" font-family="sans-serif" font-size="14" lengthAdjust="spacing" textLength="44.3037" x="431" y="221.9951">Wallet</text><text fill="#000000" font-family="sans-serif" font-size="14" lengthAdjust="spacing" textLength="4.4502" x="475.3037" y="221.9951">&#160;</text><text fill="#000000" font-family="sans-serif" font-size="14" lengthAdjust="spacing" textLength="58.1943" x="479.7539" y="221.9951">Provider</text></g><!--entity rp--><g class="entity" data-entity="rp" data-source-line="17" data-uid="ent0010" id="entity_rp"><rect fill="#D6E8F2" height="36.2969" rx="2.5" ry="2.5" style="stroke:#181818;stroke-width:0.5;" width="113.167" x="99" y="199"/><text fill="#000000" font-family="sans-serif" font-size="14" lengthAdjust="spacing" textLength="52.165" x="109" y="221.9951">Relying</text><text fill="#000000" font-family="sans-serif" font-size="14" lengthAdjust="spacing" textLength="4.4502" x="161.165" y="221.9951">&#160;</text><text fill="#000000" font-family="sans-serif" font-size="14" lengthAdjust="spacing" textLength="36.5518" x="165.6152" y="221.9951">Party</text></g><!--entity ta--><g class="entity" data-entity="ta" data-source-line="6" data-uid="ent0002" id="entity_ta"><rect fill="#D6E8F2" height="36.2969" rx="2.5" ry="2.5" style="stroke:#181818;stroke-width:0.5;" width="109.7559" x="261.5" y="7"/><text fill="#000000" font-family="sans-serif" font-size="14" lengthAdjust="spacing" textLength="35.9639" x="271.5" y="29.9951">Trust</text><text fill="#000000" font-family="sans-serif" font-size="14" lengthAdjust="spacing" textLength="4.4502" x="307.4639" y="29.9951">&#160;</text><text fill="#000000" font-family="sans-serif" font-size="14" lengthAdjust="spacing" textLength="49.3418" x="311.9141" y="29.9951">Anchor</text></g><!--entity int1--><g class="entity" data-entity="int1" data-source-line="8" data-uid="ent0003" id="entity_int1"><rect fill="#D6E8F2" height="36.2969" rx="2.5" ry="2.5" style="stroke:#181818;stroke-width:0.5;" width="110.5693" x="429" y="103"/><text fill="#000000" font-family="sans-serif" font-size="14" lengthAdjust="spacing" textLength="90.5693" x="439" y="125.9951">Intermediate</text></g><!--entity int2--><g class="entity" data-entity="int2" data-source-line="9" data-uid="ent0004" id="entity_int2"><rect fill="#D6E8F2" height="36.2969" rx="2.5" ry="2.5" style="stroke:#181818;stroke-width:0.5;" width="110.5693" x="100" y="103"/><text fill="#000000" font-family="sans-serif" font-size="14" lengthAdjust="spacing" textLength="90.5693" x="110" y="125.9951">Intermediate</text></g><!--entity leafs1--><g class="entity" data-entity="leafs1" data-source-line="11" data-uid="ent0005" id="entity_leafs1"><rect fill="#E8F2D6" height="36.2969" rx="2.5" ry="2.5" style="stroke:#181818;stroke-width:0.5;" width="57.2148" x="583" y="199"/><text fill="#000000" font-family="sans-serif" font-size="14" lengthAdjust="spacing" textLength="37.2148" x="593" y="221.9951">Leafs</text></g><!--entity leafs2--><g class="entity" data-entity="leafs2" data-source-line="12" data-uid="ent0006" id="entity_leafs2"><rect fill="#E8F2D6" height="36.2969" rx="2.5" ry="2.5" style="stroke:#181818;stroke-width:0.5;" width="57.2148" x="7" y="199"/><text fill="#000000" font-family="sans-serif" font-size="14" lengthAdjust="spacing" textLength="37.2148" x="17" y="221.9951">Leafs</text></g><!--reverse link ta to ci--><g class="link" data-entity-1="ta" data-entity-2="ci" data-source-line="20" data-uid="lnk12" id="link_ta_ci"><path d="M316.5,49.2 C316.5,85.37 316.5,162.96 316.5,198.98" fill="none" id="ta-backto-ci" style="stroke:#000000;stroke-width:1;"/><polygon fill="#000000" points="316.5,43.2,312.5,52.2,316.5,48.2,320.5,52.2,316.5,43.2" style="stroke:#000000;stroke-width:1;"/></g><!--reverse link int1 to wp--><g class="link" data-entity-1="int1" data-entity-2="wp" data-source-line="21" data-uid="lnk14" id="link_int1_wp"><path d="M484.5,145.24 C484.5,162.2 484.5,181.95 484.5,198.87" fill="none" id="int1-backto-wp" style="stroke:#000000;stroke-width:1;"/><polygon fill="#000000" points="484.5,139.24,480.5,148.24,484.5,144.24,488.5,148.24,484.5,139.24" style="stroke:#000000;stroke-width:1;"/></g><!--reverse link int2 to rp--><g class="link" data-entity-1="int2" data-entity-2="rp" data-source-line="22" data-uid="lnk16" id="link_int2_rp"><path d="M155.5,145.24 C155.5,162.2 155.5,181.95 155.5,198.87" fill="none" id="int2-backto-rp" style="stroke:#000000;stroke-width:1;"/><polygon fill="#000000" points="155.5,139.24,151.5,148.24,155.5,144.24,159.5,148.24,155.5,139.24" style="stroke:#000000;stroke-width:1;"/></g><!--reverse link int1 to leafs1--><g class="link" data-entity-1="int1" data-entity-2="leafs1" data-source-line="23" data-uid="lnk18" id="link_int1_leafs1"><path d="M540.7524,141.4924 C550.9624,146.1324 555.76,149.3 564.5,156 C579.83,167.75 592.96,185.62 601.42,198.8" fill="none" id="int1-backto-leafs1" style="stroke:#000000;stroke-width:1;"/><polygon fill="#000000" points="535.29,139.01,541.8286,146.3752,539.842,141.0787,545.1385,139.092,535.29,139.01" style="stroke:#000000;stroke-width:1;"/></g><!--reverse link int2 to leafs2--><g class="link" data-entity-1="int2" data-entity-2="leafs2" data-source-line="24" data-uid="lnk20" id="link_int2_leafs2"><path d="M104.5511,141.8181 C94.9911,146.4981 90.71,149.48 82.5,156 C67.37,168.01 54.21,185.84 45.7,198.94" fill="none" id="int2-backto-leafs2" style="stroke:#000000;stroke-width:1;"/><polygon fill="#000000" points="109.94,139.18,100.0979,139.5445,105.4492,141.3784,103.6153,146.7298,109.94,139.18" style="stroke:#000000;stroke-width:1;"/></g><!--reverse link ta to int1--><g class="link" data-entity-1="ta" data-entity-2="int1" data-source-line="25" data-uid="lnk22" id="link_ta_int1"><path d="M352.1559,45.9501 C382.5159,62.9401 423.65,85.95 454.02,102.95" fill="none" id="ta-backto-int1" style="stroke:#000000;stroke-width:1;"/><polygon fill="#000000" points="346.92,43.02,352.8204,50.9057,351.2832,45.4617,356.7272,43.9246,346.92,43.02" style="stroke:#000000;stroke-width:1;"/></g><!--reverse link ta to int2--><g class="link" data-entity-1="ta" data-entity-2="int2" data-source-line="26" data-uid="lnk24" id="link_ta_int2"><path d="M282.1594,46.0468 C253.0794,63.0368 213.82,85.95 184.71,102.95" fill="none" id="ta-backto-int2" style="stroke:#000000;stroke-width:1;"/><polygon fill="#000000" points="287.34,43.02,277.5512,44.1064,283.0228,45.5423,281.5869,51.0139,287.34,43.02" style="stroke:#000000;stroke-width:1;"/></g><!--SRC=[XT5DImCn40RWUtx5MCz5N4hn88MoLIXuA29ubEdkk8QcasKoQodYVpVxOTn2gRS9ysIIlBcoNBYc9BZFPpVvx2tth6YPP65Cs5ckKN0FMonsbVY6ozmxBw2276ABM4TgAU8FFTYwkCCOeKAHAqSmUP4cA2ov-F0o0GoW2DUh-SFTOtRYrgmaUoejAdNEijuc-G_Cpevy8dmF7N5j5QUrP3M_OB9aBg2KrI-6BmCmyhbG6IEow60TGaFzmmkRRdcYNz4vKjY8_xJbO0_rUVjCxcYvWWsA7ZifV_BRc7Z6jAcdYvYoYJFwkatIo6YLcI6GKNzu_iXq7v2cTIcdrGy0]--></g></svg>