<?xml version="1.0" encoding="UTF-8"?>
<svg id="Livello_1" xmlns="http://www.w3.org/2000/svg" version="1.1" viewBox="0 0 569.8 462.5">
  <!-- Generator: Adobe Illustrator 29.2.1, SVG Export Plug-In . SVG Version: 2.1.0 Build 116)  -->
  <defs>
    <style>
      .st0 {
        fill-rule: evenodd;
      }

      .st0, .st1 {
        fill: #0b3ee3;
      }
    </style>
  </defs>
  <circle class="st1" cx="57.1" cy="57.1" r="57.1"/>
  <path class="st0" d="M57.1,154.3c-27.5,0-49.7,22.3-49.7,49.7v199.9c0,27.5,22.3,49.7,49.7,49.7s49.7-22.3,49.7-49.7v-199.9c0-27.5-22.2-49.7-49.7-49.7Z"/>
  <path class="st0" d="M373.8,70.4c-108.3,0-196.1,87.8-196.1,196.1s87.8,196.1,196.1,196.1,196.1-87.8,196.1-196.1-87.9-196.1-196.1-196.1h0ZM311.3,255c-2.8,2.8-6.5,4.4-11.2,4.4s-8.4-1.6-11.4-4.7c-3-3.2-4.5-7-4.5-11.6s1.6-8.4,4.4-11.6c3-3.2,6.8-4.6,11.4-4.6s8.4,1.6,11.4,4.7c3,3.2,4.4,7,4.4,11.7-.2,4.8-1.6,8.5-4.5,11.7h0ZM365.5,331.4h-26.6v-102h26.6v102ZM423.6,333.8c-12,0-20.1-2.7-24.3-8.3-4.4-5.4-6.5-15.6-6.5-30.4v-94.1h26.6v28.3h24.3v23.4h-24.5v41.9c0,4.2.2,6.9.4,8.7.2,1.6.9,3.1,2.1,4.3,1.2,1.3,3.2,1.8,5.8,1.8l15.2-.4,1.2,21.7c-8.9,2-15.7,3.1-20.3,3.1h0Z"/>
</svg>