<svg width="519" height="110" viewBox="0 0 519 110" fill="none" xmlns="http://www.w3.org/2000/svg">
<rect width="519" height="110" fill="none"/>
<path d="M42.7764 50.8043C42.7764 45.527 40.8097 43.1736 35.9604 43.1736H27.6097V59.0603H35.9604C40.8097 59.0603 42.7764 56.1323 42.7764 50.8043ZM27.6097 73.5083H23.8657V39.9096H36.0097C43.2564 39.9096 46.6164 43.415 46.6164 50.8043C46.6164 58.2443 43.2564 62.323 36.0097 62.323H27.6097V73.5083Z" fill="black"/>
<path d="M53.9141 66.5475C53.9141 69.4275 55.1128 71.0608 57.5621 71.0608C61.1141 71.0608 65.0968 69.5728 65.0968 69.5728V61.5555L57.9928 62.2302C55.0661 62.5155 53.9141 63.9088 53.9141 66.5475ZM71.4808 71.2528L71.3354 74.0835C68.7928 74.0835 67.0648 73.6035 65.6248 72.1635C65.6248 72.1635 61.3061 74.0835 56.9861 74.0835C52.6168 74.0835 50.2661 71.5888 50.2661 66.6448C50.2661 62.0382 52.6168 60.0195 57.5621 59.5422L65.0968 58.8208V56.5635C65.0968 53.2062 63.6568 52.0048 60.7768 52.0048C57.4168 52.0048 51.7061 52.6302 51.7061 52.6302L51.5608 49.8928C51.5608 49.8928 56.8408 48.8368 60.9688 48.8368C66.3928 48.8368 68.7448 51.3328 68.7448 56.5635V69.1408C68.7448 70.5328 69.9448 71.0608 71.4808 71.2528Z" fill="black"/>
<path d="M79.6895 49.5091V52.7731C79.6895 52.7731 83.8668 49.7505 88.4735 48.8371V52.4851C83.9628 53.3985 79.7388 55.8931 79.7388 55.8931V73.5078H76.0908V49.5091H79.6895Z" fill="black"/>
<path d="M100.904 70.8688C102.248 70.8688 105.177 70.5795 105.177 70.5795L105.416 73.5568C105.416 73.5568 102.201 74.0835 100.52 74.0835C95.5773 74.0835 93.8493 72.2128 93.8493 65.3008V52.6302H90.4893V49.5088H93.8959V42.1648H97.4479V49.5088H105.081V52.6302H97.4973V65.3008C97.4973 69.3795 97.7853 70.8688 100.904 70.8688Z" fill="black"/>
<path d="M118.185 51.8622C114.104 51.8622 111.801 54.1168 111.753 60.1182H124.233C124.233 53.9742 122.409 51.8622 118.185 51.8622ZM126.921 70.4848L127.017 73.3155C127.017 73.3155 121.545 74.0835 117.656 74.0835C110.505 74.0835 108.153 69.9088 108.153 61.6542C108.153 52.3395 112.089 48.8368 118.185 48.8368C124.568 48.8368 127.832 52.1968 127.832 60.2608L127.64 62.9982H111.801C111.801 68.2288 113.385 70.9155 118.089 70.9155C121.688 70.9155 126.921 70.4848 126.921 70.4848Z" fill="black"/>
<path d="M158.983 68.996V52.532C158.215 52.3893 155.239 51.956 153.272 51.956C148.376 51.956 146.936 55.2693 146.936 61.7C146.936 69.572 149.432 70.8693 152.12 70.8693C155.527 70.8693 158.983 68.996 158.983 68.996ZM158.983 73.508V71.876C158.983 71.876 155.288 74.084 151.687 74.084C147.128 74.084 143.192 72.164 143.192 61.7C143.192 53.0613 145.928 48.8373 153.08 48.8373C155.143 48.8373 158.264 49.3173 158.983 49.46V38.4693H162.631V73.508H158.983Z" fill="black"/>
<path d="M173.288 73.5073H169.64V49.5087H173.288V73.5073ZM173.241 44.566H169.64V39.9087H173.241V44.566Z" fill="black"/>
<path d="M444.993 66.5369L443.184 66.5382C441.995 66.5396 441.335 65.8115 441.335 64.6209V34.7476C441.335 34.3209 440.992 34.0009 440.565 34.0009H432.404C431.977 34.0009 431.659 34.3209 431.659 34.7476V65.5769C431.659 71.2462 434.657 74.0049 440.895 74.0049H445.031C445.457 74.0049 445.816 73.6889 445.816 73.2622L445.815 67.2982C445.815 66.8716 445.42 66.5369 444.993 66.5369Z" fill="#003366"/>
<path d="M455.551 55.5126C455.573 52.2152 457.75 50.1952 461.043 50.1952C464.39 50.1952 466.374 52.1899 466.326 55.5126H455.551ZM461.046 44.0859C451.91 44.0859 446.422 49.7992 446.422 59.4232C446.422 69.1459 452.022 74.8032 461.533 74.8032C468.231 74.8032 472.731 71.9939 474.561 67.2312C474.715 66.8246 474.785 66.5806 474.783 66.3486C474.779 65.9432 474.577 65.5766 473.971 65.5766H466.347C466.087 65.5766 465.818 65.7112 465.523 66.1726C464.749 67.3792 463.241 68.0139 461.347 68.0139C457.323 68.0139 455.763 65.1499 455.518 61.6299H474.561C474.987 61.6299 475.306 61.3046 475.306 60.8779V58.0579C475.306 49.5152 469.955 44.0859 461.046 44.0859Z" fill="#003366"/>
<path d="M494.467 52.3466C494.894 52.3466 495.218 52.0279 495.218 51.6012V45.6279C495.218 45.2012 494.843 44.8812 494.417 44.8812H489.51V37.6799C489.51 37.2532 489.189 36.9346 488.762 36.9346L480.699 36.9332C480.273 36.9319 479.907 37.2679 479.907 37.6946L479.91 44.8812H476.549C476.122 44.8812 475.749 45.2039 475.749 45.6306V51.6012C475.749 52.0279 476.067 52.3492 476.494 52.3492H479.91V63.8732C479.91 70.6052 483.359 74.0039 490.261 74.0039H494.469C494.895 74.0039 495.218 73.6839 495.218 73.2572V67.3372C495.218 66.9119 494.897 66.5372 494.47 66.5372H491.374C490.183 66.5372 489.509 65.8119 489.509 64.6212L489.51 52.3492L494.467 52.3466Z" fill="#003366"/>
<path d="M400.911 66.4307C399.16 67.5654 397.455 68.0147 395.886 68.0147C393.339 68.0147 392.095 66.8267 392.095 64.8827C392.095 63.1494 393.086 62.1667 395.828 61.9614L400.911 61.5801V66.4307ZM412.808 66.5361H411.688C410.819 66.5361 410.299 65.9587 410.299 64.7707V55.4934C410.299 48.3094 405.446 44.0854 397.051 44.0854C390.132 44.0854 385.187 47.0081 383.29 51.4947C383.091 51.9654 382.979 52.3254 382.983 52.5627C382.99 52.9414 383.286 53.2014 383.734 53.2014H391.683C392.13 53.2014 392.382 53.0307 392.642 52.5414C393.238 51.4187 394.502 50.7601 396.439 50.7601C399.223 50.7601 400.907 52.1081 400.91 54.5401L400.911 55.7121L393.792 56.1907C386.32 56.6947 382.931 59.5854 382.931 65.2774C382.931 71.2961 386.72 74.8027 393.122 74.8027C396.52 74.8027 399.707 73.8147 402.212 71.8587C403.32 73.1694 405.216 74.0041 407.526 74.0041H412.824C413.251 74.0041 413.552 73.6841 413.552 73.2574L413.554 67.2881C413.554 66.8614 413.235 66.5361 412.808 66.5361Z" fill="#003366"/>
<path d="M316.131 41.4146V34.8026C316.131 34.3759 315.81 33.9999 315.383 33.9999H284.29C283.863 33.9999 283.54 34.3719 283.542 34.7986V41.4146C283.542 41.8412 283.859 42.2146 284.286 42.2146H294.85V73.2519C294.85 73.6786 295.222 74.0039 295.648 74.0039H304.022C304.448 74.0039 304.823 73.6839 304.823 73.2572V42.2146H315.384C315.811 42.2146 316.131 41.8412 316.131 41.4146Z" fill="#003366"/>
<path d="M428.99 66.5369L427.181 66.5382C425.991 66.5396 425.31 65.8115 425.31 64.6209V34.7476C425.31 34.3209 424.989 34.0009 424.562 34.0009H416.401C415.974 34.0009 415.655 34.3209 415.655 34.7476V65.5769C415.655 71.2462 418.654 74.0049 424.891 74.0049H429.027C429.454 74.0049 429.789 73.6889 429.789 73.2622L429.79 67.2782C429.791 66.8515 429.417 66.5369 428.99 66.5369Z" fill="#003366"/>
<path d="M328.715 53.9487L313.352 53.9447C312.926 53.9447 312.608 54.2634 312.608 54.69L312.611 60.9927C312.611 61.4194 312.944 61.7354 313.371 61.7354H328.711C329.138 61.7354 329.463 61.4167 329.463 60.99L329.464 54.6954C329.464 54.2687 329.142 53.9487 328.715 53.9487Z" fill="#003366"/>
<path d="M280.219 34.0004H271.739C271.312 34.0004 270.974 34.3137 270.975 34.7404L270.991 73.2577C270.991 73.6844 271.312 74.0044 271.739 74.0044H280.218C280.644 74.0044 280.966 73.6844 280.966 73.2577V34.7391C280.966 34.3124 280.646 34.0004 280.219 34.0004Z" fill="#003366"/>
<path d="M382.707 34.0004H375.403C375.027 34.0004 374.725 34.2911 374.662 34.6631L370.054 61.9017H369.562L363.867 34.6284C363.793 34.2711 363.494 34.0004 363.13 34.0004H351.989C351.626 34.0004 351.295 34.2711 351.219 34.6271L345.41 61.8484H344.914L340.37 34.6604C340.307 34.2884 339.986 34.0004 339.609 34.0004H332.035C331.557 34.0004 331.173 34.4484 331.255 34.9204L338.001 73.3724C338.065 73.7404 338.379 74.0044 338.754 74.0044H350.225C350.587 74.0044 350.895 73.7564 350.973 73.4017L357.098 45.2951H357.651L363.777 73.4031C363.854 73.7577 364.158 74.0044 364.521 74.0044H375.989C376.363 74.0044 376.683 73.7417 376.749 73.3737L383.493 34.9204C383.575 34.4484 383.186 34.0004 382.707 34.0004Z" fill="#003366"/>
<path d="M224.469 24.2946C224.104 24.0893 223.717 23.9973 223.341 23.9999C222.157 24.0093 221.069 24.9599 221.076 26.2813L221.143 38.3919L204.223 28.9039C203.857 28.6986 203.471 28.6066 203.095 28.6093C201.911 28.6173 200.831 29.5693 200.829 30.8906L200.793 70.8093C200.793 72.6106 201.604 74.1799 203.337 75.1519L218.548 83.7053C218.913 83.9106 219.3 84.0026 219.676 83.9999C220.861 83.9919 221.941 83.0413 221.941 81.7186V40.7853L229.984 45.2626C231.72 46.2293 232.528 47.8039 232.528 49.6053V73.5879L247.572 82.0266C247.937 82.2319 248.323 82.3239 248.699 82.3213C249.884 82.3133 250.964 81.3626 250.964 80.0399L250.981 42.0826C250.981 40.2813 250.171 38.7119 248.437 37.7399L224.469 24.2946Z" fill="#003366"/>
</svg>
