<svg width="1440" height="790" viewBox="0 0 1440 790" fill="none" xmlns="http://www.w3.org/2000/svg">
<g clip-path="url(#clip0_4168_44235)">
<rect width="1440" height="790" fill="white"/>
<rect width="1440" height="48" fill="#004D99"/>
<path d="M73.19 29V19.312H79.084V20.264H74.268V23.61H78.244V24.548H74.268V28.048H79.084V29H73.19ZM81.7963 29H80.7463V22H81.7823V22.49C82.5383 22.07 83.2616 21.86 83.9523 21.86C84.8856 21.86 85.5109 22.112 85.8283 22.616C86.1549 23.12 86.3183 24.016 86.3183 25.304V29H85.2823V25.332C85.2823 24.3613 85.1843 23.6987 84.9883 23.344C84.8016 22.98 84.3956 22.798 83.7703 22.798C83.4716 22.798 83.1543 22.8447 82.8183 22.938C82.4916 23.022 82.2396 23.106 82.0623 23.19L81.7963 23.316V29ZM91.8508 22.91H89.6248V26.256C89.6248 27.0587 89.6808 27.586 89.7928 27.838C89.9141 28.09 90.1941 28.216 90.6328 28.216L91.8788 28.132L91.9488 29C91.3235 29.1027 90.8475 29.154 90.5208 29.154C89.7928 29.154 89.2888 28.9767 89.0088 28.622C88.7288 28.2673 88.5888 27.5907 88.5888 26.592V22.91H87.5948V22H88.5888V19.858H89.6248V22H91.8508V22.91ZM97.893 28.132L98.299 28.09L98.327 28.916C97.263 29.0653 96.353 29.14 95.597 29.14C94.589 29.14 93.875 28.8507 93.455 28.272C93.035 27.684 92.825 26.774 92.825 25.542C92.825 23.0873 93.8003 21.86 95.751 21.86C96.6937 21.86 97.3983 22.126 97.865 22.658C98.3317 23.1807 98.565 24.0067 98.565 25.136L98.509 25.934H93.889C93.889 26.7087 94.029 27.2827 94.309 27.656C94.589 28.0293 95.0743 28.216 95.765 28.216C96.465 28.216 97.1743 28.188 97.893 28.132ZM97.515 25.094C97.515 24.2353 97.375 23.6287 97.095 23.274C96.8243 22.9193 96.3763 22.742 95.751 22.742C95.135 22.742 94.6683 22.9287 94.351 23.302C94.043 23.6753 93.8843 24.2727 93.875 25.094H97.515ZM108.22 24.114V27.698C108.248 28.0433 108.518 28.2487 109.032 28.314L108.99 29.14C108.252 29.14 107.697 28.9533 107.324 28.58C106.484 28.9533 105.644 29.14 104.804 29.14C104.16 29.14 103.67 28.958 103.334 28.594C102.998 28.23 102.83 27.7073 102.83 27.026C102.83 26.3447 103.002 25.8453 103.348 25.528C103.693 25.2013 104.234 25.0007 104.972 24.926L107.17 24.716V24.114C107.17 23.638 107.067 23.2973 106.862 23.092C106.656 22.8867 106.376 22.784 106.022 22.784C105.275 22.784 104.5 22.8307 103.698 22.924L103.264 22.966L103.222 22.168C104.248 21.9627 105.158 21.86 105.952 21.86C106.745 21.86 107.319 22.042 107.674 22.406C108.038 22.77 108.22 23.3393 108.22 24.114ZM103.908 26.97C103.908 27.8287 104.262 28.258 104.972 28.258C105.606 28.258 106.232 28.1507 106.848 27.936L107.17 27.824V25.514L105.098 25.71C104.678 25.7473 104.374 25.8687 104.188 26.074C104.001 26.2793 103.908 26.578 103.908 26.97ZM110.291 32.108V22H111.327V22.504C112.037 22.0747 112.737 21.86 113.427 21.86C114.314 21.86 114.958 22.1447 115.359 22.714C115.761 23.274 115.961 24.2027 115.961 25.5C115.961 26.7973 115.723 27.7307 115.247 28.3C114.781 28.86 114.001 29.14 112.909 29.14C112.34 29.14 111.817 29.0887 111.341 28.986V32.108H110.291ZM113.273 22.798C112.993 22.798 112.69 22.8447 112.363 22.938C112.046 23.0313 111.794 23.1247 111.607 23.218L111.341 23.358V28.076C112.004 28.1787 112.508 28.23 112.853 28.23C113.609 28.23 114.137 28.0153 114.435 27.586C114.743 27.1567 114.897 26.4567 114.897 25.486C114.897 24.5153 114.757 23.8247 114.477 23.414C114.207 23.0033 113.805 22.798 113.273 22.798ZM117.674 32.108V22H118.71V22.504C119.419 22.0747 120.119 21.86 120.81 21.86C121.697 21.86 122.341 22.1447 122.742 22.714C123.143 23.274 123.344 24.2027 123.344 25.5C123.344 26.7973 123.106 27.7307 122.63 28.3C122.163 28.86 121.384 29.14 120.292 29.14C119.723 29.14 119.2 29.0887 118.724 28.986V32.108H117.674ZM120.656 22.798C120.376 22.798 120.073 22.8447 119.746 22.938C119.429 23.0313 119.177 23.1247 118.99 23.218L118.724 23.358V28.076C119.387 28.1787 119.891 28.23 120.236 28.23C120.992 28.23 121.519 28.0153 121.818 27.586C122.126 27.1567 122.28 26.4567 122.28 25.486C122.28 24.5153 122.14 23.8247 121.86 23.414C121.589 23.0033 121.188 22.798 120.656 22.798ZM129.999 24.114V27.698C130.027 28.0433 130.297 28.2487 130.811 28.314L130.769 29.14C130.031 29.14 129.476 28.9533 129.103 28.58C128.263 28.9533 127.423 29.14 126.583 29.14C125.939 29.14 125.449 28.958 125.113 28.594C124.777 28.23 124.609 27.7073 124.609 27.026C124.609 26.3447 124.781 25.8453 125.127 25.528C125.472 25.2013 126.013 25.0007 126.751 24.926L128.949 24.716V24.114C128.949 23.638 128.846 23.2973 128.641 23.092C128.435 22.8867 128.155 22.784 127.801 22.784C127.054 22.784 126.279 22.8307 125.477 22.924L125.043 22.966L125.001 22.168C126.027 21.9627 126.937 21.86 127.731 21.86C128.524 21.86 129.098 22.042 129.453 22.406C129.817 22.77 129.999 23.3393 129.999 24.114ZM125.687 26.97C125.687 27.8287 126.041 28.258 126.751 28.258C127.385 28.258 128.011 28.1507 128.627 27.936L128.949 27.824V25.514L126.877 25.71C126.457 25.7473 126.153 25.8687 125.967 26.074C125.78 26.2793 125.687 26.578 125.687 26.97ZM132.071 29V22H133.107V22.952C133.919 22.392 134.773 22.0233 135.669 21.846V22.91C135.277 22.9847 134.866 23.1013 134.437 23.26C134.017 23.4187 133.695 23.5587 133.471 23.68L133.12 23.862V29H132.071ZM140.536 22.91H138.31V26.256C138.31 27.0587 138.366 27.586 138.478 27.838C138.6 28.09 138.88 28.216 139.318 28.216L140.564 28.132L140.634 29C140.009 29.1027 139.533 29.154 139.206 29.154C138.478 29.154 137.974 28.9767 137.694 28.622C137.414 28.2673 137.274 27.5907 137.274 26.592V22.91H136.28V22H137.274V19.858H138.31V22H140.536V22.91ZM146.579 28.132L146.985 28.09L147.013 28.916C145.949 29.0653 145.039 29.14 144.283 29.14C143.275 29.14 142.561 28.8507 142.141 28.272C141.721 27.684 141.511 26.774 141.511 25.542C141.511 23.0873 142.486 21.86 144.437 21.86C145.379 21.86 146.084 22.126 146.551 22.658C147.017 23.1807 147.251 24.0067 147.251 25.136L147.195 25.934H142.575C142.575 26.7087 142.715 27.2827 142.995 27.656C143.275 28.0293 143.76 28.216 144.451 28.216C145.151 28.216 145.86 28.188 146.579 28.132ZM146.201 25.094C146.201 24.2353 146.061 23.6287 145.781 23.274C145.51 22.9193 145.062 22.742 144.437 22.742C143.821 22.742 143.354 22.9287 143.037 23.302C142.729 23.6753 142.57 24.2727 142.561 25.094H146.201ZM149.937 29H148.887V22H149.923V22.49C150.679 22.07 151.402 21.86 152.093 21.86C153.026 21.86 153.652 22.112 153.969 22.616C154.296 23.12 154.459 24.016 154.459 25.304V29H153.423V25.332C153.423 24.3613 153.325 23.6987 153.129 23.344C152.942 22.98 152.536 22.798 151.911 22.798C151.612 22.798 151.295 22.8447 150.959 22.938C150.632 23.022 150.38 23.106 150.203 23.19L149.937 23.316V29ZM161.166 28.132L161.572 28.09L161.6 28.916C160.536 29.0653 159.626 29.14 158.87 29.14C157.862 29.14 157.148 28.8507 156.728 28.272C156.308 27.684 156.098 26.774 156.098 25.542C156.098 23.0873 157.074 21.86 159.024 21.86C159.967 21.86 160.672 22.126 161.138 22.658C161.605 23.1807 161.838 24.0067 161.838 25.136L161.782 25.934H157.162C157.162 26.7087 157.302 27.2827 157.582 27.656C157.862 28.0293 158.348 28.216 159.038 28.216C159.738 28.216 160.448 28.188 161.166 28.132ZM160.788 25.094C160.788 24.2353 160.648 23.6287 160.368 23.274C160.098 22.9193 159.65 22.742 159.024 22.742C158.408 22.742 157.942 22.9287 157.624 23.302C157.316 23.6753 157.158 24.2727 157.148 25.094H160.788ZM164.525 29H163.475V22H164.511V22.49C165.267 22.07 165.99 21.86 166.681 21.86C167.614 21.86 168.239 22.112 168.557 22.616C168.883 23.12 169.047 24.016 169.047 25.304V29H168.011V25.332C168.011 24.3613 167.913 23.6987 167.717 23.344C167.53 22.98 167.124 22.798 166.499 22.798C166.2 22.798 165.883 22.8447 165.547 22.938C165.22 23.022 164.968 23.106 164.791 23.19L164.525 23.316V29ZM170.574 22.938V22H175.768V22.938L171.848 28.062H175.768V29H170.574V28.062L174.494 22.938H170.574ZM182.307 24.114V27.698C182.335 28.0433 182.606 28.2487 183.119 28.314L183.077 29.14C182.34 29.14 181.785 28.9533 181.411 28.58C180.571 28.9533 179.731 29.14 178.891 29.14C178.247 29.14 177.757 28.958 177.421 28.594C177.085 28.23 176.917 27.7073 176.917 27.026C176.917 26.3447 177.09 25.8453 177.435 25.528C177.781 25.2013 178.322 25.0007 179.059 24.926L181.257 24.716V24.114C181.257 23.638 181.155 23.2973 180.949 23.092C180.744 22.8867 180.464 22.784 180.109 22.784C179.363 22.784 178.588 22.8307 177.785 22.924L177.351 22.966L177.309 22.168C178.336 21.9627 179.246 21.86 180.039 21.86C180.833 21.86 181.407 22.042 181.761 22.406C182.125 22.77 182.307 23.3393 182.307 24.114ZM177.995 26.97C177.995 27.8287 178.35 28.258 179.059 28.258C179.694 28.258 180.319 28.1507 180.935 27.936L181.257 27.824V25.514L179.185 25.71C178.765 25.7473 178.462 25.8687 178.275 26.074C178.089 26.2793 177.995 26.578 177.995 26.97Z" fill="white"/>
<g clip-path="url(#clip1_4168_44235)">
<path d="M1322.11 29V19.41H1323.66V29H1322.11ZM1324.94 20.796V19.41H1331.94V20.796H1329.24V29H1327.67V20.796H1324.94ZM1331.83 29L1334.2 19.41H1337.29L1339.67 29H1338.11L1337.59 26.942H1333.91L1333.39 29H1331.83ZM1335.4 20.712L1334.21 25.57H1337.28L1336.1 20.712H1335.4Z" fill="white"/>
<path d="M1356 27.1998L1350.4 21.5998L1351.1 20.7998L1356 25.6998L1360.9 20.7998L1361.6 21.5998L1356 27.1998Z" fill="white"/>
</g>
<rect width="1440" height="93" transform="translate(0 47.999)" fill="#F2F7FC"/>
<rect x="72.5" y="72.499" width="155.768" height="44" fill="#F2F7FC"/>
<rect x="72.5" y="72.499" width="155.768" height="44" stroke="#C5C7C9"/>
<line x1="72.9291" y1="72.5496" x2="228.123" y2="115.79" stroke="#C5C7C9"/>
<path d="M197.716 98.7794C198.136 99.5074 198.913 99.8714 200.047 99.8714C201.181 99.8714 201.951 99.5074 202.357 98.7794C202.777 98.0374 202.987 96.8054 202.987 95.0834C202.987 93.3474 202.777 92.0874 202.357 91.3034C201.937 90.5194 201.167 90.1274 200.047 90.1274C198.927 90.1274 198.157 90.5194 197.737 91.3034C197.317 92.0874 197.107 93.3474 197.107 95.0834C197.107 96.8054 197.31 98.0374 197.716 98.7794ZM204.625 100.627C203.743 101.803 202.217 102.391 200.047 102.391C197.877 102.391 196.344 101.803 195.448 100.627C194.566 99.4374 194.125 97.5824 194.125 95.0624C194.125 92.5424 194.566 90.6734 195.448 89.4554C196.344 88.2234 197.877 87.6074 200.047 87.6074C202.217 87.6074 203.743 88.2234 204.625 89.4554C205.521 90.6734 205.969 92.5424 205.969 95.0624C205.969 97.5824 205.521 99.4374 204.625 100.627Z" fill="black"/>
<path d="M187.861 97.0154V94.4954H192.019V101.908C190.017 102.23 188.393 102.391 187.147 102.391C184.921 102.391 183.388 101.796 182.548 100.606C181.722 99.4164 181.309 97.5264 181.309 94.9364C181.309 92.3464 181.743 90.4774 182.611 89.3294C183.479 88.1814 184.956 87.6074 187.042 87.6074C188.344 87.6074 189.751 87.7544 191.263 88.0484L192.019 88.1954L191.935 90.4424C190.255 90.2604 188.876 90.1694 187.798 90.1694C186.734 90.1694 185.985 90.2954 185.551 90.5474C185.117 90.7994 184.795 91.2684 184.585 91.9544C184.389 92.6264 184.291 93.7884 184.291 95.4404C184.291 97.0784 184.494 98.2264 184.9 98.8844C185.306 99.5424 186.146 99.8714 187.42 99.8714L189.163 99.7874V97.0154H187.861Z" fill="black"/>
<path d="M171.179 98.7794C171.599 99.5074 172.376 99.8714 173.51 99.8714C174.644 99.8714 175.414 99.5074 175.82 98.7794C176.24 98.0374 176.45 96.8054 176.45 95.0834C176.45 93.3474 176.24 92.0874 175.82 91.3034C175.4 90.5194 174.63 90.1274 173.51 90.1274C172.39 90.1274 171.62 90.5194 171.2 91.3034C170.78 92.0874 170.57 93.3474 170.57 95.0834C170.57 96.8054 170.773 98.0374 171.179 98.7794ZM178.088 100.627C177.206 101.803 175.68 102.391 173.51 102.391C171.34 102.391 169.807 101.803 168.911 100.627C168.029 99.4374 167.588 97.5824 167.588 95.0624C167.588 92.5424 168.029 90.6734 168.911 89.4554C169.807 88.2234 171.34 87.6074 173.51 87.6074C175.68 87.6074 177.206 88.2234 178.088 89.4554C178.984 90.6734 179.432 92.5424 179.432 95.0624C179.432 97.5824 178.984 99.4374 178.088 100.627Z" fill="black"/>
<path d="M166.563 102.139H158.436V87.8594H161.334V99.5774H166.563V102.139Z" fill="black"/>
<path d="M143.083 98.7794C143.503 99.5074 144.28 99.8714 145.414 99.8714C146.548 99.8714 147.318 99.5074 147.724 98.7794C148.144 98.0374 148.354 96.8054 148.354 95.0834C148.354 93.3474 148.144 92.0874 147.724 91.3034C147.304 90.5194 146.534 90.1274 145.414 90.1274C144.294 90.1274 143.524 90.5194 143.104 91.3034C142.684 92.0874 142.474 93.3474 142.474 95.0834C142.474 96.8054 142.677 98.0374 143.083 98.7794ZM149.992 100.627C149.11 101.803 147.584 102.391 145.414 102.391C143.244 102.391 141.711 101.803 140.815 100.627C139.933 99.4374 139.492 97.5824 139.492 95.0624C139.492 92.5424 139.933 90.6734 140.815 89.4554C141.711 88.2234 143.244 87.6074 145.414 87.6074C147.584 87.6074 149.11 88.2234 149.992 89.4554C150.888 90.6734 151.336 92.5424 151.336 95.0624C151.336 97.5824 150.888 99.4374 149.992 100.627Z" fill="black"/>
<path d="M129.154 97.4144C129.154 99.0804 130.001 99.9134 131.695 99.9134C133.389 99.9134 134.236 99.0804 134.236 97.4144V87.9014H137.134V97.3514C137.134 99.1014 136.679 100.389 135.769 101.215C134.873 102.027 133.515 102.433 131.695 102.433C129.875 102.433 128.51 102.027 127.6 101.215C126.704 100.389 126.256 99.1014 126.256 97.3514V87.9014H129.154V97.4144Z" fill="black"/>
<path d="M114.047 90.4214V87.8594H124.547V90.4214H120.767V102.139H117.869V90.4214H114.047Z" fill="black"/>
<path d="M108.936 102.139H100.809V87.8594H103.707V99.5774H108.936V102.139Z" fill="black"/>
<path d="M94.7988 102.139V87.8594H97.6968V102.139H94.7988Z" fill="black"/>
<path d="M252.768 59.999V128.999" stroke="#C5C7C9" stroke-linejoin="round"/>
<path d="M288.795 78.499C288.995 78.4978 289.201 78.5465 289.396 78.6563L302.179 85.8272C303.104 86.3459 303.536 87.1831 303.536 88.1436L303.527 108.387C303.527 109.092 302.952 109.6 302.319 109.605C302.119 109.606 301.913 109.556 301.718 109.446L293.694 104.946V92.1543C293.694 91.1938 293.263 90.3529 292.337 89.8379L288.048 87.4502V109.282C288.048 109.988 287.472 110.494 286.84 110.499C286.64 110.5 286.434 110.451 286.238 110.341L278.125 105.778C277.2 105.26 276.768 104.423 276.768 103.462L276.787 82.1729C276.788 81.4675 277.363 80.9612 277.995 80.9561C278.195 80.9549 278.402 81.0035 278.598 81.1133L287.622 86.1748L287.587 79.7158C287.583 79.0105 288.163 78.5041 288.795 78.499ZM381.396 88.9971C385.873 88.9971 388.462 91.2507 388.462 95.0821V100.03C388.462 100.663 388.739 100.971 389.202 100.971H389.8L389.798 100.974C390.025 100.974 390.195 101.147 390.195 101.374V104.557C390.195 104.784 390.034 104.955 389.807 104.955H386.981C385.75 104.955 384.737 104.509 384.146 103.81C382.81 104.852 381.111 105.38 379.299 105.38C375.885 105.38 373.863 103.51 373.863 100.3C373.863 97.2643 375.671 95.7227 379.656 95.4541L383.452 95.1973V94.5723C383.451 93.2762 382.552 92.5576 381.068 92.5576C380.036 92.5577 379.361 92.9078 379.044 93.5069C378.905 93.7681 378.77 93.8584 378.532 93.8584H374.293C374.054 93.8583 373.896 93.7201 373.893 93.5176C373.89 93.3907 373.951 93.1994 374.057 92.9483C375.07 90.556 377.706 88.9972 381.396 88.9971ZM415.525 88.9971C420.277 88.9971 423.131 91.8921 423.131 96.4483V97.9531C423.131 98.1801 422.96 98.3534 422.733 98.3535H412.577C412.709 100.231 413.54 101.76 415.687 101.76C416.695 101.76 417.501 101.421 417.913 100.776C418.07 100.531 418.215 100.459 418.353 100.459H422.42C422.743 100.459 422.851 100.655 422.853 100.871C422.854 100.994 422.817 101.125 422.734 101.341C421.759 103.881 419.36 105.38 415.787 105.38C410.715 105.38 407.728 102.311 407.728 97.1778C407.728 92.0445 410.654 88.9977 415.525 88.9971ZM373.746 83.6192V83.6201C374.001 83.6201 374.209 83.8599 374.165 84.1114L370.568 104.619C370.534 104.817 370.363 104.956 370.163 104.956H364.047C363.853 104.956 363.691 104.824 363.649 104.635L360.382 89.6436H360.087L356.819 104.635C356.778 104.824 356.613 104.956 356.42 104.956H350.303C350.104 104.956 349.936 104.816 349.901 104.619L346.304 84.1114C346.26 83.8599 346.466 83.6201 346.721 83.6201H350.759C350.96 83.6201 351.133 83.774 351.166 83.9717L353.59 98.4727H353.854L356.952 83.9551C356.994 83.7648 357.169 83.6204 357.363 83.6201H363.306C363.501 83.6202 363.66 83.7647 363.7 83.9551L366.736 98.5H366.999L369.456 83.9727C369.489 83.7739 369.65 83.6192 369.852 83.6192H373.746ZM319.085 83.6182C319.312 83.6182 319.483 83.7849 319.483 84.0117V104.557C319.483 104.784 319.311 104.955 319.084 104.955H314.562C314.336 104.955 314.164 104.784 314.164 104.557L314.155 84.0137C314.155 83.7868 314.336 83.6194 314.562 83.6192H319.085V83.6182ZM337.84 83.6182C338.068 83.6185 338.238 83.8192 338.238 84.0459V87.5723H338.237C338.237 87.8004 338.067 87.9997 337.84 88H332.208V104.556C332.208 104.783 332.007 104.954 331.78 104.954H327.314C327.087 104.954 326.889 104.779 326.889 104.552V87.9981H321.254C321.027 87.998 320.857 87.7983 320.857 87.5713V84.044C320.857 83.8169 321.03 83.6182 321.257 83.6182H337.84ZM396.067 83.6192C396.295 83.6193 396.466 83.7899 396.466 84.0166V99.9492C396.466 100.584 396.83 100.971 397.465 100.971H398.429C398.656 100.971 398.854 101.139 398.854 101.366V104.559C398.854 104.785 398.675 104.954 398.448 104.954H396.243C392.917 104.955 391.316 103.482 391.316 100.459V84.0166C391.317 83.7898 391.488 83.6192 391.715 83.6192H396.067ZM404.604 83.6192C404.83 83.6192 405.013 83.7898 405.014 84.0166V99.9492C405.014 100.584 405.365 100.971 406 100.971H406.966C407.193 100.971 407.404 101.15 407.404 101.377V104.559C407.404 104.785 407.212 104.954 406.985 104.954H404.779C401.453 104.955 399.854 103.482 399.854 100.459V84.0166C399.854 83.7899 400.024 83.6193 400.251 83.6192H404.604ZM430.31 85.1826C430.536 85.1828 430.708 85.3534 430.708 85.5801V89.4219H433.325C433.553 89.4219 433.753 89.5925 433.753 89.8194V93.0049C433.753 93.233 433.579 93.4032 433.353 93.4033H430.708V99.9483C430.708 100.583 431.069 100.97 431.703 100.97H433.354C433.581 100.97 433.753 101.17 433.753 101.397V104.555C433.753 104.782 433.58 104.952 433.354 104.952H431.108C427.427 104.952 425.588 103.14 425.588 99.5489V93.4033H423.767C423.539 93.4031 423.369 93.2308 423.369 93.0039V89.8194C423.369 89.5925 423.568 89.421 423.795 89.4209H425.587V85.5879C425.587 85.361 425.782 85.1829 426.009 85.1826H430.31ZM380.745 98.5313C379.282 98.6411 378.753 99.1659 378.753 100.09C378.753 101.126 379.417 101.76 380.774 101.76C381.612 101.76 382.521 101.52 383.455 100.915H383.456V98.3272L380.745 98.5313ZM344.95 94.2578L344.952 94.2588C345.179 94.259 345.351 94.4304 345.351 94.6572V98.0137C345.35 98.2406 345.176 98.4112 344.949 98.4112H336.768C336.539 98.4111 336.362 98.2416 336.36 98.0147V94.6533C336.36 94.4251 336.53 94.2549 336.757 94.2549L344.95 94.2578ZM415.524 92.2549C413.769 92.2549 412.608 93.333 412.597 95.0918H418.343C418.368 93.3195 417.28 92.2549 415.524 92.2549Z" fill="#0066CC"/>
<rect width="1440" height="459.604" transform="translate(0 172.999)" fill="white"/>
<path d="M530.888 235.999L535.784 214.239H544.168L549.064 235.999H544.648L543.784 232.063H536.168L535.304 235.999H530.888ZM539.208 217.887L537 228.223H542.952L540.744 217.887H539.208ZM561.018 219.999H565.306V235.999H561.05V235.103C559.514 235.956 558.18 236.383 557.05 236.383C554.831 236.383 553.338 235.775 552.57 234.559C551.802 233.322 551.418 231.263 551.418 228.383V219.999H555.706V228.447C555.706 230.026 555.834 231.103 556.09 231.679C556.346 232.255 556.964 232.543 557.946 232.543C558.884 232.543 559.77 232.394 560.602 232.095L561.018 231.967V219.999ZM578.129 223.647H574.193V230.207C574.193 230.847 574.204 231.306 574.225 231.583C574.268 231.839 574.385 232.063 574.577 232.255C574.791 232.447 575.111 232.543 575.537 232.543L577.969 232.479L578.161 235.903C576.732 236.223 575.644 236.383 574.897 236.383C572.977 236.383 571.665 235.956 570.961 235.103C570.257 234.228 569.905 232.628 569.905 230.303V223.647H568.017V219.999H569.905V215.551H574.193V219.999H578.129V223.647ZM584.442 229.823C584.463 230.804 584.719 231.519 585.21 231.967C585.722 232.394 586.447 232.607 587.385 232.607C589.37 232.607 591.14 232.543 592.698 232.415L593.594 232.319L593.658 235.487C591.204 236.084 588.986 236.383 587.002 236.383C584.591 236.383 582.842 235.743 581.754 234.463C580.666 233.183 580.122 231.103 580.122 228.223C580.122 222.484 582.479 219.615 587.194 219.615C591.844 219.615 594.17 222.026 594.17 226.847L593.85 229.823H584.442ZM589.946 226.559C589.946 225.279 589.743 224.394 589.338 223.903C588.932 223.391 588.218 223.135 587.194 223.135C586.191 223.135 585.476 223.402 585.05 223.935C584.644 224.447 584.431 225.322 584.41 226.559H589.946ZM601.522 235.999H597.234V219.999H601.49V220.895C602.941 220.042 604.274 219.615 605.49 219.615C607.623 219.615 609.095 220.244 609.906 221.503C610.717 222.762 611.122 224.703 611.122 227.327V235.999H606.834V227.455C606.834 226.09 606.674 225.087 606.354 224.447C606.034 223.786 605.394 223.455 604.434 223.455C603.559 223.455 602.717 223.604 601.906 223.903L601.522 224.031V235.999ZM623.786 223.647H619.85V230.207C619.85 230.847 619.86 231.306 619.882 231.583C619.924 231.839 620.042 232.063 620.234 232.255C620.447 232.447 620.767 232.543 621.194 232.543L623.626 232.479L623.818 235.903C622.388 236.223 621.3 236.383 620.554 236.383C618.634 236.383 617.322 235.956 616.618 235.103C615.914 234.228 615.562 232.628 615.562 230.303V223.647H613.674V219.999H615.562V215.551H619.85V219.999H623.786V223.647ZM626.578 235.999V219.999H630.866V235.999H626.578ZM626.578 217.951V213.599H630.866V217.951H626.578ZM640.812 219.615C641.921 219.615 643.34 219.786 645.068 220.127L645.932 220.319L645.804 223.711C644.118 223.54 642.87 223.455 642.06 223.455C640.588 223.455 639.606 223.775 639.116 224.415C638.646 225.034 638.412 226.218 638.412 227.967C638.412 229.716 638.646 230.922 639.116 231.583C639.606 232.223 640.598 232.543 642.092 232.543L645.804 232.287L645.932 235.711C643.649 236.159 641.91 236.383 640.716 236.383C638.348 236.383 636.641 235.722 635.596 234.399C634.572 233.055 634.06 230.911 634.06 227.967C634.06 225.023 634.593 222.9 635.66 221.599C636.726 220.276 638.444 219.615 640.812 219.615ZM661.365 224.991V231.647C661.408 232.159 661.493 232.522 661.621 232.735C661.749 232.927 662.016 233.066 662.421 233.151L662.293 236.383C661.205 236.383 660.33 236.308 659.669 236.159C659.029 236.01 658.378 235.711 657.717 235.263C656.181 236.01 654.613 236.383 653.013 236.383C649.706 236.383 648.053 234.634 648.053 231.135C648.053 229.428 648.512 228.223 649.429 227.519C650.346 226.794 651.754 226.367 653.653 226.239L657.077 225.983V224.991C657.077 224.33 656.928 223.882 656.629 223.647C656.33 223.391 655.85 223.263 655.189 223.263L649.173 223.519L649.045 220.543C651.328 219.924 653.493 219.615 655.541 219.615C657.61 219.615 659.093 220.042 659.989 220.895C660.906 221.748 661.365 223.114 661.365 224.991ZM654.165 229.215C652.97 229.322 652.373 229.962 652.373 231.135C652.373 232.308 652.896 232.895 653.941 232.895C654.752 232.895 655.637 232.767 656.597 232.511L657.077 232.383V228.959L654.165 229.215ZM664.781 223.839V219.999H676.653V223.839L669.933 232.159H676.653V235.999H664.781V232.159L671.501 223.839H664.781ZM679.984 235.999V219.999H684.272V235.999H679.984ZM679.984 217.951V213.599H684.272V217.951H679.984ZM689.098 221.823C690.229 220.351 692.117 219.615 694.762 219.615C697.407 219.615 699.295 220.351 700.426 221.823C701.557 223.274 702.122 225.322 702.122 227.967C702.122 233.578 699.669 236.383 694.762 236.383C689.855 236.383 687.402 233.578 687.402 227.967C687.402 225.322 687.967 223.274 689.098 221.823ZM692.394 231.583C692.842 232.351 693.631 232.735 694.762 232.735C695.893 232.735 696.671 232.351 697.098 231.583C697.546 230.815 697.77 229.61 697.77 227.967C697.77 226.324 697.546 225.13 697.098 224.383C696.671 223.636 695.893 223.263 694.762 223.263C693.631 223.263 692.842 223.636 692.394 224.383C691.967 225.13 691.754 226.324 691.754 227.967C691.754 229.61 691.967 230.815 692.394 231.583ZM709.553 235.999H705.265V219.999H709.521V220.895C710.972 220.042 712.305 219.615 713.521 219.615C715.655 219.615 717.127 220.244 717.937 221.503C718.748 222.762 719.153 224.703 719.153 227.327V235.999H714.865V227.455C714.865 226.09 714.705 225.087 714.385 224.447C714.065 223.786 713.425 223.455 712.465 223.455C711.591 223.455 710.748 223.604 709.937 223.903L709.553 224.031V235.999ZM726.473 229.823C726.494 230.804 726.75 231.519 727.241 231.967C727.753 232.394 728.478 232.607 729.417 232.607C731.401 232.607 733.171 232.543 734.729 232.415L735.625 232.319L735.689 235.487C733.235 236.084 731.017 236.383 729.033 236.383C726.622 236.383 724.873 235.743 723.785 234.463C722.697 233.183 722.153 231.103 722.153 228.223C722.153 222.484 724.51 219.615 729.225 219.615C733.875 219.615 736.201 222.026 736.201 226.847L735.881 229.823H726.473ZM731.977 226.559C731.977 225.279 731.774 224.394 731.369 223.903C730.963 223.391 730.249 223.135 729.225 223.135C728.222 223.135 727.507 223.402 727.081 223.935C726.675 224.447 726.462 225.322 726.441 226.559H731.977ZM752.281 219.615C753.39 219.615 754.809 219.786 756.537 220.127L757.401 220.319L757.273 223.711C755.587 223.54 754.339 223.455 753.529 223.455C752.057 223.455 751.075 223.775 750.585 224.415C750.115 225.034 749.881 226.218 749.881 227.967C749.881 229.716 750.115 230.922 750.585 231.583C751.075 232.223 752.067 232.543 753.561 232.543L757.273 232.287L757.401 235.711C755.118 236.159 753.379 236.383 752.185 236.383C749.817 236.383 748.11 235.722 747.065 234.399C746.041 233.055 745.529 230.911 745.529 227.967C745.529 225.023 746.062 222.9 747.129 221.599C748.195 220.276 749.913 219.615 752.281 219.615ZM761.317 221.823C762.447 220.351 764.335 219.615 766.981 219.615C769.626 219.615 771.514 220.351 772.645 221.823C773.775 223.274 774.341 225.322 774.341 227.967C774.341 233.578 771.887 236.383 766.981 236.383C762.074 236.383 759.621 233.578 759.621 227.967C759.621 225.322 760.186 223.274 761.317 221.823ZM764.613 231.583C765.061 232.351 765.85 232.735 766.981 232.735C768.111 232.735 768.89 232.351 769.317 231.583C769.765 230.815 769.989 229.61 769.989 227.967C769.989 226.324 769.765 225.13 769.317 224.383C768.89 223.636 768.111 223.263 766.981 223.263C765.85 223.263 765.061 223.636 764.613 224.383C764.186 225.13 763.973 226.324 763.973 227.967C763.973 229.61 764.186 230.815 764.613 231.583ZM781.772 235.999H777.484V219.999H781.74V220.895C783.212 220.042 784.471 219.615 785.516 219.615C787.244 219.615 788.577 220.116 789.516 221.119C791.479 220.116 793.271 219.615 794.892 219.615C797.004 219.615 798.465 220.234 799.276 221.471C800.108 222.687 800.524 224.639 800.524 227.327V235.999H796.236V227.455C796.236 226.09 796.087 225.087 795.788 224.447C795.489 223.786 794.892 223.455 793.996 223.455C793.313 223.455 792.481 223.604 791.5 223.903L791.02 224.063C791.105 225.663 791.148 226.879 791.148 227.711V235.999H786.86V227.775C786.86 226.196 786.721 225.087 786.444 224.447C786.167 223.786 785.559 223.455 784.62 223.455C783.788 223.455 782.967 223.604 782.156 223.903L781.772 224.031V235.999ZM804.328 242.719V219.999H808.584V220.863C809.97 220.031 811.186 219.615 812.232 219.615C814.386 219.615 815.976 220.266 817 221.567C818.024 222.847 818.536 225.034 818.536 228.127C818.536 231.22 817.97 233.375 816.84 234.591C815.709 235.786 813.853 236.383 811.272 236.383C810.568 236.383 809.81 236.319 809 236.191L808.616 236.127V242.719H804.328ZM811.4 223.455C810.61 223.455 809.81 223.615 809 223.935L808.616 224.095V232.479C809.576 232.607 810.354 232.671 810.952 232.671C812.189 232.671 813.032 232.308 813.48 231.583C813.949 230.858 814.184 229.62 814.184 227.871C814.184 224.927 813.256 223.455 811.4 223.455ZM821.926 235.999V213.599H826.214V235.999H821.926ZM833.879 229.823C833.9 230.804 834.156 231.519 834.647 231.967C835.159 232.394 835.884 232.607 836.823 232.607C838.807 232.607 840.578 232.543 842.135 232.415L843.031 232.319L843.095 235.487C840.642 236.084 838.423 236.383 836.439 236.383C834.028 236.383 832.279 235.743 831.191 234.463C830.103 233.183 829.559 231.103 829.559 228.223C829.559 222.484 831.916 219.615 836.631 219.615C841.282 219.615 843.607 222.026 843.607 226.847L843.287 229.823H833.879ZM839.383 226.559C839.383 225.279 839.18 224.394 838.775 223.903C838.37 223.391 837.655 223.135 836.631 223.135C835.628 223.135 834.914 223.402 834.487 223.935C834.082 224.447 833.868 225.322 833.847 226.559H839.383ZM855.536 223.647H851.6V230.207C851.6 230.847 851.61 231.306 851.632 231.583C851.674 231.839 851.792 232.063 851.984 232.255C852.197 232.447 852.517 232.543 852.944 232.543L855.376 232.479L855.568 235.903C854.138 236.223 853.05 236.383 852.304 236.383C850.384 236.383 849.072 235.956 848.368 235.103C847.664 234.228 847.312 232.628 847.312 230.303V223.647H845.424V219.999H847.312V215.551H851.6V219.999H855.536V223.647ZM870.584 224.991V231.647C870.626 232.159 870.712 232.522 870.84 232.735C870.968 232.927 871.234 233.066 871.64 233.151L871.512 236.383C870.424 236.383 869.549 236.308 868.888 236.159C868.248 236.01 867.597 235.711 866.936 235.263C865.4 236.01 863.832 236.383 862.232 236.383C858.925 236.383 857.272 234.634 857.272 231.135C857.272 229.428 857.73 228.223 858.648 227.519C859.565 226.794 860.973 226.367 862.872 226.239L866.296 225.983V224.991C866.296 224.33 866.146 223.882 865.848 223.647C865.549 223.391 865.069 223.263 864.408 223.263L858.392 223.519L858.264 220.543C860.546 219.924 862.712 219.615 864.76 219.615C866.829 219.615 868.312 220.042 869.208 220.895C870.125 221.748 870.584 223.114 870.584 224.991ZM863.384 229.215C862.189 229.322 861.592 229.962 861.592 231.135C861.592 232.308 862.114 232.895 863.16 232.895C863.97 232.895 864.856 232.767 865.816 232.511L866.296 232.383V228.959L863.384 229.215ZM883.536 223.647H879.6V230.207C879.6 230.847 879.61 231.306 879.632 231.583C879.674 231.839 879.792 232.063 879.984 232.255C880.197 232.447 880.517 232.543 880.944 232.543L883.376 232.479L883.568 235.903C882.138 236.223 881.05 236.383 880.304 236.383C878.384 236.383 877.072 235.956 876.368 235.103C875.664 234.228 875.312 232.628 875.312 230.303V223.647H873.424V219.999H875.312V215.551H879.6V219.999H883.536V223.647ZM898.584 224.991V231.647C898.626 232.159 898.712 232.522 898.84 232.735C898.968 232.927 899.234 233.066 899.64 233.151L899.512 236.383C898.424 236.383 897.549 236.308 896.888 236.159C896.248 236.01 895.597 235.711 894.936 235.263C893.4 236.01 891.832 236.383 890.232 236.383C886.925 236.383 885.272 234.634 885.272 231.135C885.272 229.428 885.73 228.223 886.648 227.519C887.565 226.794 888.973 226.367 890.872 226.239L894.296 225.983V224.991C894.296 224.33 894.146 223.882 893.848 223.647C893.549 223.391 893.069 223.263 892.408 223.263L886.392 223.519L886.264 220.543C888.546 219.924 890.712 219.615 892.76 219.615C894.829 219.615 896.312 220.042 897.208 220.895C898.125 221.748 898.584 223.114 898.584 224.991ZM891.384 229.215C890.189 229.322 889.592 229.962 889.592 231.135C889.592 232.308 890.114 232.895 891.16 232.895C891.97 232.895 892.856 232.767 893.816 232.511L894.296 232.383V228.959L891.384 229.215ZM902.864 235.999V230.847H907.472V235.999H902.864ZM903.28 227.999L902.864 214.239H907.504L907.056 227.999H903.28Z" fill="#17324D"/>
<path d="M742.865 406.493C721.601 392.219 707.933 360.605 712.331 335.879C716.729 311.153 737.537 302.681 758.795 316.955C780.059 331.229 793.727 362.843 789.329 387.569C784.931 412.295 764.123 420.767 742.865 406.493Z" fill="#0066CC"/>
<path d="M732.599 412.127C711.335 397.853 697.667 366.239 702.065 341.513C706.463 316.787 727.271 308.315 748.529 322.589C769.793 336.863 783.461 368.477 779.063 393.203C774.665 417.929 753.857 426.401 732.599 412.127Z" fill="#FFB458"/>
<path d="M722.675 417.965C701.411 403.691 687.743 372.077 692.141 347.351C696.539 322.625 717.347 314.153 738.605 328.427C759.869 342.701 773.537 374.315 769.139 399.041C764.741 423.767 743.933 432.239 722.675 417.965Z" fill="#7AC1FA"/>
<path d="M737.609 390.684L734.639 388.968C734.243 388.74 733.733 388.872 733.499 389.262C730.613 394.098 727.913 394.656 723.413 392.484C718.973 390.348 715.991 384.834 715.469 378.894C715.403 378.174 714.983 377.532 714.359 377.172L711.617 375.588C711.263 375.384 710.807 375.642 710.819 376.056C711.077 384.078 714.629 392.544 721.013 396.396C727.985 400.602 733.649 398.31 737.975 392.388C738.389 391.824 738.215 391.026 737.609 390.678V390.684Z" fill="#003366"/>
<path d="M711.857 368.417L714.785 370.109C715.487 370.517 716.363 370.007 716.363 369.197V353.003C716.363 352.247 715.961 351.557 715.307 351.179L712.379 349.487C711.677 349.079 710.801 349.589 710.801 350.399V366.593C710.801 367.349 711.203 368.039 711.857 368.417Z" fill="#003366"/>
<path d="M739.776 363.563L736.848 361.871C736.146 361.463 735.27 361.973 735.27 362.783V378.977C735.27 379.733 735.672 380.423 736.326 380.801L739.254 382.493C739.956 382.901 740.832 382.391 740.832 381.581V365.387C740.832 364.631 740.43 363.941 739.776 363.563Z" fill="#003366"/>
<path d="M669.499 420.947C669.055 419.345 668.851 417.701 668.791 415.811C668.665 412.067 668.539 408.323 668.425 404.579C668.317 401.117 668.233 397.661 668.125 394.199C668.095 393.269 668.035 392.345 668.191 391.415C668.557 389.249 670.627 387.311 672.817 387.119C673.945 387.017 673.759 387.209 673.873 386.099C674.185 383.147 674.485 380.195 674.743 377.237C674.845 376.067 674.857 374.891 675.241 373.757C676.393 370.319 681.055 369.077 683.761 371.483C686.503 373.805 685.549 376.661 685.345 379.763C685.339 379.859 685.315 379.967 685.501 380.093C686.449 376.847 687.163 373.571 688.141 370.337C690.355 363.419 700.429 366.467 698.515 373.391C696.781 379.793 695.173 386.051 693.367 392.459C698.935 389.225 705.757 389.627 710.401 394.253C712.861 396.647 714.517 399.533 715.171 402.905C715.681 405.545 715.387 408.119 713.587 410.273C709.681 414.953 705.601 408.425 704.521 404.747C702.121 397.823 696.679 402.077 695.641 407.231C694.933 410.045 695.359 414.257 697.561 416.351C699.283 417.983 702.187 417.893 704.101 416.645C707.161 414.731 712.327 409.247 714.685 414.851C716.023 418.433 715.219 421.625 712.741 424.439C710.779 426.665 708.907 427.319 706.243 428.135C703.117 429.095 700.057 431.651 697.261 433.343C693.919 435.359 690.409 437.435 686.515 437.675C682.879 437.897 680.167 436.205 678.103 433.409C675.925 430.463 672.991 428.441 671.167 425.057C670.399 423.635 669.859 422.303 669.487 420.947H669.499Z" fill="#FFB458"/>
<path d="M691.638 435.479C691.638 426.671 684.498 415.409 675.69 410.321C670.59 407.375 666.054 407.153 663.132 409.193L653.562 414.803C650.586 415.985 648.738 418.961 648.738 423.443C648.738 432.251 655.878 443.513 664.686 448.601C669.21 451.211 673.284 451.679 676.188 450.335C676.566 450.161 676.926 449.951 677.262 449.717L687.492 443.813C687.534 443.789 687.576 443.759 687.624 443.735L687.696 443.693C690.15 442.307 691.638 439.493 691.638 435.479Z" fill="#0066CC"/>
<path d="M666.37 538.801C665.134 539.053 664.024 539.179 663.04 539.179C662.056 539.179 661.258 539.047 660.646 538.783C660.046 538.507 659.578 538.087 659.242 537.523C658.918 536.947 658.69 536.293 658.558 535.561C658.438 534.817 658.378 533.893 658.378 532.789C658.378 531.685 658.438 530.761 658.558 530.017C658.69 529.261 658.918 528.595 659.242 528.019C659.578 527.443 660.046 527.023 660.646 526.759C661.246 526.495 662.026 526.363 662.986 526.363C663.946 526.363 665.074 526.495 666.37 526.759L666.316 527.929C665.104 527.713 664.024 527.605 663.076 527.605C661.756 527.605 660.88 528.001 660.448 528.793C660.028 529.573 659.818 530.911 659.818 532.807C659.818 533.755 659.854 534.517 659.926 535.093C660.01 535.669 660.166 536.191 660.394 536.659C660.622 537.115 660.952 537.445 661.384 537.649C661.828 537.841 662.47 537.937 663.31 537.937C664.162 537.937 665.164 537.829 666.316 537.613L666.37 538.801ZM667.832 534.481C667.832 532.837 668.126 531.649 668.714 530.917C669.302 530.185 670.292 529.819 671.684 529.819C673.088 529.819 674.078 530.185 674.654 530.917C675.242 531.649 675.536 532.837 675.536 534.481C675.536 536.125 675.26 537.319 674.708 538.063C674.156 538.807 673.148 539.179 671.684 539.179C670.22 539.179 669.212 538.807 668.66 538.063C668.108 537.319 667.832 536.125 667.832 534.481ZM669.218 534.463C669.218 535.771 669.374 536.689 669.686 537.217C670.01 537.745 670.676 538.009 671.684 538.009C672.704 538.009 673.37 537.751 673.682 537.235C673.994 536.707 674.15 535.783 674.15 534.463C674.15 533.143 673.976 532.237 673.628 531.745C673.28 531.241 672.632 530.989 671.684 530.989C670.748 530.989 670.1 531.241 669.74 531.745C669.392 532.237 669.218 533.143 669.218 534.463ZM679.087 538.999H677.737V529.999H679.069V530.629C680.041 530.089 680.971 529.819 681.859 529.819C683.059 529.819 683.863 530.143 684.271 530.791C684.691 531.439 684.901 532.591 684.901 534.247V538.999H683.569V534.283C683.569 533.035 683.443 532.183 683.191 531.727C682.951 531.259 682.429 531.025 681.625 531.025C681.241 531.025 680.833 531.085 680.401 531.205C679.981 531.313 679.657 531.421 679.429 531.529L679.087 531.691V538.999ZM692.015 531.169H689.153V535.471C689.153 536.503 689.225 537.181 689.369 537.505C689.525 537.829 689.885 537.991 690.449 537.991L692.051 537.883L692.141 538.999C691.337 539.131 690.725 539.197 690.305 539.197C689.369 539.197 688.721 538.969 688.361 538.513C688.001 538.057 687.821 537.187 687.821 535.903V531.169H686.543V529.999H687.821V527.245H689.153V529.999H692.015V531.169ZM693.663 538.999V529.999H695.013V538.999H693.663ZM693.663 527.965V526.399H695.013V527.965H693.663ZM698.951 538.999H697.601V529.999H698.933V530.629C699.905 530.089 700.835 529.819 701.723 529.819C702.923 529.819 703.727 530.143 704.135 530.791C704.555 531.439 704.765 532.591 704.765 534.247V538.999H703.433V534.283C703.433 533.035 703.307 532.183 703.055 531.727C702.815 531.259 702.293 531.025 701.489 531.025C701.105 531.025 700.697 531.085 700.265 531.205C699.845 531.313 699.521 531.421 699.293 531.529L698.951 531.691V538.999ZM712.885 529.999H714.235V538.999H712.885V538.369C711.985 538.909 711.097 539.179 710.221 539.179C708.997 539.179 708.181 538.861 707.773 538.225C707.377 537.589 707.179 536.413 707.179 534.697V529.999H708.529V534.679C708.529 535.987 708.643 536.863 708.871 537.307C709.099 537.751 709.615 537.973 710.419 537.973C710.815 537.973 711.217 537.919 711.625 537.811C712.033 537.691 712.345 537.577 712.561 537.469L712.885 537.307V529.999ZM723.185 532.717V537.325C723.221 537.769 723.569 538.033 724.229 538.117L724.175 539.179C723.227 539.179 722.513 538.939 722.033 538.459C720.953 538.939 719.873 539.179 718.793 539.179C717.965 539.179 717.335 538.945 716.903 538.477C716.471 538.009 716.255 537.337 716.255 536.461C716.255 535.585 716.477 534.943 716.921 534.535C717.365 534.115 718.061 533.857 719.009 533.761L721.835 533.491V532.717C721.835 532.105 721.703 531.667 721.439 531.403C721.175 531.139 720.815 531.007 720.359 531.007C719.399 531.007 718.403 531.067 717.371 531.187L716.813 531.241L716.759 530.215C718.079 529.951 719.249 529.819 720.269 529.819C721.289 529.819 722.027 530.053 722.483 530.521C722.951 530.989 723.185 531.721 723.185 532.717ZM717.641 536.389C717.641 537.493 718.097 538.045 719.009 538.045C719.825 538.045 720.629 537.907 721.421 537.631L721.835 537.487V534.517L719.171 534.769C718.631 534.817 718.241 534.973 718.001 535.237C717.761 535.501 717.641 535.885 717.641 536.389ZM732.63 531.025C731.322 531.025 730.668 531.481 730.668 532.393C730.668 532.813 730.818 533.113 731.118 533.293C731.418 533.461 732.102 533.641 733.17 533.833C734.238 534.013 734.994 534.271 735.438 534.607C735.882 534.943 736.104 535.573 736.104 536.497C736.104 537.421 735.804 538.099 735.204 538.531C734.616 538.963 733.752 539.179 732.612 539.179C731.868 539.179 730.992 539.095 729.984 538.927L729.444 538.837L729.516 537.667C730.884 537.871 731.916 537.973 732.612 537.973C733.308 537.973 733.836 537.865 734.196 537.649C734.568 537.421 734.754 537.049 734.754 536.533C734.754 536.005 734.598 535.651 734.286 535.471C733.974 535.279 733.29 535.099 732.234 534.931C731.178 534.763 730.428 534.517 729.984 534.193C729.54 533.869 729.318 533.269 729.318 532.393C729.318 531.517 729.624 530.869 730.236 530.449C730.86 530.029 731.634 529.819 732.558 529.819C733.29 529.819 734.208 529.903 735.312 530.071L735.816 530.161L735.78 531.313C734.448 531.121 733.398 531.025 732.63 531.025ZM743.787 529.999H745.137V538.999H743.787V538.369C742.887 538.909 741.999 539.179 741.123 539.179C739.899 539.179 739.083 538.861 738.675 538.225C738.279 537.589 738.081 536.413 738.081 534.697V529.999H739.431V534.679C739.431 535.987 739.545 536.863 739.773 537.307C740.001 537.751 740.517 537.973 741.321 537.973C741.717 537.973 742.119 537.919 742.527 537.811C742.935 537.691 743.247 537.577 743.463 537.469L743.787 537.307V529.999ZM747.842 538.999V526.075H749.192V538.999H747.842ZM758.681 531.025C757.373 531.025 756.719 531.481 756.719 532.393C756.719 532.813 756.869 533.113 757.169 533.293C757.469 533.461 758.153 533.641 759.221 533.833C760.289 534.013 761.045 534.271 761.489 534.607C761.933 534.943 762.155 535.573 762.155 536.497C762.155 537.421 761.855 538.099 761.255 538.531C760.667 538.963 759.803 539.179 758.663 539.179C757.919 539.179 757.043 539.095 756.035 538.927L755.495 538.837L755.567 537.667C756.935 537.871 757.967 537.973 758.663 537.973C759.359 537.973 759.887 537.865 760.247 537.649C760.619 537.421 760.805 537.049 760.805 536.533C760.805 536.005 760.649 535.651 760.337 535.471C760.025 535.279 759.341 535.099 758.285 534.931C757.229 534.763 756.479 534.517 756.035 534.193C755.591 533.869 755.369 533.269 755.369 532.393C755.369 531.517 755.675 530.869 756.287 530.449C756.911 530.029 757.685 529.819 758.609 529.819C759.341 529.819 760.259 529.903 761.363 530.071L761.867 530.161L761.831 531.313C760.499 531.121 759.449 531.025 758.681 531.025ZM764.222 538.999V529.999H765.572V538.999H764.222ZM764.222 527.965V526.399H765.572V527.965H764.222ZM772.821 531.169H769.959V535.471C769.959 536.503 770.031 537.181 770.175 537.505C770.331 537.829 770.691 537.991 771.255 537.991L772.857 537.883L772.947 538.999C772.143 539.131 771.531 539.197 771.111 539.197C770.175 539.197 769.527 538.969 769.167 538.513C768.807 538.057 768.627 537.187 768.627 535.903V531.169H767.349V529.999H768.627V527.245H769.959V529.999H772.821V531.169ZM774.074 534.481C774.074 532.837 774.368 531.649 774.956 530.917C775.544 530.185 776.534 529.819 777.926 529.819C779.33 529.819 780.32 530.185 780.896 530.917C781.484 531.649 781.778 532.837 781.778 534.481C781.778 536.125 781.502 537.319 780.95 538.063C780.398 538.807 779.39 539.179 777.926 539.179C776.462 539.179 775.454 538.807 774.902 538.063C774.35 537.319 774.074 536.125 774.074 534.481ZM775.46 534.463C775.46 535.771 775.616 536.689 775.928 537.217C776.252 537.745 776.918 538.009 777.926 538.009C778.946 538.009 779.612 537.751 779.924 537.235C780.236 536.707 780.392 535.783 780.392 534.463C780.392 533.143 780.218 532.237 779.87 531.745C779.522 531.241 778.874 530.989 777.926 530.989C776.99 530.989 776.342 531.241 775.982 531.745C775.634 532.237 775.46 533.143 775.46 534.463Z" fill="#17324D"/>
<rect x="665.5" y="593.999" width="109" height="48" rx="4" fill="#0066CC"/>
<path d="M694.491 624.175C692.891 624.175 691.803 623.732 691.227 622.847C690.662 621.962 690.379 620.506 690.379 618.479C690.379 616.452 690.667 615.012 691.243 614.159C691.819 613.295 692.902 612.863 694.491 612.863C695.44 612.863 696.486 612.996 697.627 613.263L697.563 614.703C696.603 614.532 695.643 614.447 694.683 614.447C693.723 614.447 693.072 614.735 692.731 615.311C692.39 615.876 692.219 616.948 692.219 618.527C692.219 620.095 692.384 621.167 692.715 621.743C693.046 622.308 693.691 622.591 694.651 622.591C695.611 622.591 696.582 622.511 697.563 622.351L697.611 623.823C696.512 624.058 695.472 624.175 694.491 624.175ZM699.597 616.863C700.152 616.17 701.069 615.823 702.349 615.823C703.629 615.823 704.541 616.17 705.085 616.863C705.64 617.556 705.917 618.596 705.917 619.983C705.917 621.37 705.651 622.415 705.117 623.119C704.584 623.823 703.661 624.175 702.349 624.175C701.037 624.175 700.115 623.823 699.581 623.119C699.048 622.415 698.781 621.37 698.781 619.983C698.781 618.596 699.053 617.556 699.597 616.863ZM700.909 622.063C701.155 622.49 701.635 622.703 702.349 622.703C703.064 622.703 703.544 622.49 703.789 622.063C704.035 621.636 704.157 620.938 704.157 619.967C704.157 618.996 704.024 618.308 703.757 617.903C703.501 617.498 703.032 617.295 702.349 617.295C701.667 617.295 701.192 617.498 700.925 617.903C700.669 618.308 700.541 618.996 700.541 619.967C700.541 620.938 700.664 621.636 700.909 622.063ZM709.394 623.999H707.65V615.999H709.378V616.495C710.156 616.047 710.892 615.823 711.586 615.823C712.652 615.823 713.378 616.127 713.762 616.735C714.156 617.332 714.354 618.324 714.354 619.711V623.999H712.626V619.759C712.626 618.895 712.53 618.282 712.338 617.919C712.156 617.556 711.778 617.375 711.202 617.375C710.658 617.375 710.135 617.482 709.634 617.695L709.394 617.791V623.999ZM720.688 617.487H718.48V621.007C718.48 621.658 718.528 622.09 718.624 622.303C718.72 622.516 718.965 622.623 719.36 622.623L720.672 622.575L720.752 623.967C720.037 624.106 719.493 624.175 719.12 624.175C718.213 624.175 717.589 623.967 717.248 623.551C716.917 623.135 716.752 622.351 716.752 621.199V617.487H715.728V615.999H716.752V613.679H718.48V615.999H720.688V617.487ZM722.118 623.999V615.999H723.863V623.999H722.118ZM722.118 614.639V612.799H723.863V614.639H722.118ZM727.722 623.999H725.978V615.999H727.706V616.495C728.485 616.047 729.221 615.823 729.914 615.823C730.981 615.823 731.706 616.127 732.09 616.735C732.485 617.332 732.682 618.324 732.682 619.711V623.999H730.954V619.759C730.954 618.895 730.858 618.282 730.666 617.919C730.485 617.556 730.106 617.375 729.53 617.375C728.986 617.375 728.463 617.482 727.962 617.695L727.722 617.791V623.999ZM739.56 615.999H741.288V623.999H739.56V623.503C738.782 623.951 738.062 624.175 737.4 624.175C736.302 624.175 735.566 623.882 735.192 623.295C734.819 622.698 734.632 621.658 734.632 620.175V615.999H736.376V620.191C736.376 621.151 736.456 621.796 736.616 622.127C736.776 622.458 737.15 622.623 737.736 622.623C738.312 622.623 738.84 622.516 739.32 622.303L739.56 622.207V615.999ZM749.32 618.463V622.111C749.33 622.346 749.389 622.522 749.496 622.639C749.613 622.746 749.789 622.815 750.024 622.847L749.976 624.175C749.058 624.175 748.349 623.978 747.848 623.583C746.994 623.978 746.136 624.175 745.272 624.175C743.682 624.175 742.888 623.327 742.888 621.631C742.888 620.82 743.101 620.234 743.528 619.871C743.965 619.508 744.632 619.29 745.528 619.215L747.592 619.039V618.463C747.592 618.036 747.496 617.738 747.304 617.567C747.122 617.396 746.85 617.311 746.488 617.311C745.805 617.311 744.952 617.354 743.928 617.439L743.416 617.471L743.352 616.239C744.514 615.962 745.581 615.823 746.552 615.823C747.533 615.823 748.237 616.036 748.664 616.463C749.101 616.879 749.32 617.546 749.32 618.463ZM745.736 620.447C745 620.511 744.632 620.911 744.632 621.647C744.632 622.383 744.957 622.751 745.608 622.751C746.141 622.751 746.706 622.666 747.304 622.495L747.592 622.399V620.271L745.736 620.447Z" fill="white"/>
<rect width="1440" height="64" transform="translate(0 725.999)" fill="#003366"/>
<mask id="path-30-inside-1_4168_44235" fill="white">
<path d="M0 725.999H1440V789.999H0V725.999Z"/>
</mask>
<path d="M0 725.999H1440V789.999H0V725.999Z" fill="#003366"/>
<path d="M0 725.999V726.999H1440V725.999V724.999H0V725.999Z" fill="white" fill-opacity="0.5" mask="url(#path-30-inside-1_4168_44235)"/>
<path d="M25.106 762.999V753.409H27.822L30.734 761.627H30.944V753.409H32.498V762.999H29.838L26.856 754.767H26.66V762.999H25.106ZM34.8176 756.755C35.303 756.148 36.1056 755.845 37.2256 755.845C38.3456 755.845 39.1436 756.148 39.6196 756.755C40.105 757.362 40.3476 758.272 40.3476 759.485C40.3476 760.698 40.1143 761.613 39.6476 762.229C39.181 762.845 38.3736 763.153 37.2256 763.153C36.0776 763.153 35.2703 762.845 34.8036 762.229C34.337 761.613 34.1036 760.698 34.1036 759.485C34.1036 758.272 34.3416 757.362 34.8176 756.755ZM35.9656 761.305C36.1803 761.678 36.6003 761.865 37.2256 761.865C37.851 761.865 38.271 761.678 38.4856 761.305C38.7003 760.932 38.8076 760.32 38.8076 759.471C38.8076 758.622 38.691 758.02 38.4576 757.665C38.2336 757.31 37.823 757.133 37.2256 757.133C36.6283 757.133 36.213 757.31 35.9796 757.665C35.7556 758.02 35.6436 758.622 35.6436 759.471C35.6436 760.32 35.751 760.932 35.9656 761.305ZM45.6295 757.301H43.6975V760.381C43.6975 760.95 43.7395 761.328 43.8235 761.515C43.9075 761.702 44.1221 761.795 44.4675 761.795L45.6155 761.753L45.6855 762.971C45.0601 763.092 44.5841 763.153 44.2575 763.153C43.4641 763.153 42.9181 762.971 42.6195 762.607C42.3301 762.243 42.1855 761.557 42.1855 760.549V757.301H41.2895V755.999H42.1855V753.969H43.6975V755.999H45.6295V757.301ZM51.865 761.739L52.257 761.697L52.285 762.831C51.221 763.046 50.2784 763.153 49.457 763.153C48.421 763.153 47.6744 762.868 47.217 762.299C46.769 761.73 46.545 760.82 46.545 759.569C46.545 757.086 47.5577 755.845 49.583 755.845C51.543 755.845 52.523 756.914 52.523 759.051L52.425 760.143H48.085C48.0944 760.722 48.2204 761.146 48.463 761.417C48.7057 761.688 49.1584 761.823 49.821 761.823C50.4837 761.823 51.165 761.795 51.865 761.739ZM51.025 758.967C51.025 758.276 50.913 757.796 50.689 757.525C50.4744 757.245 50.1057 757.105 49.583 757.105C49.0604 757.105 48.6777 757.25 48.435 757.539C48.2017 757.828 48.0804 758.304 48.071 758.967H51.025ZM62.6246 762.999H57.2486V753.409H58.8026V761.613H62.6246V762.999ZM68.6951 761.739L69.0871 761.697L69.1151 762.831C68.0511 763.046 67.1084 763.153 66.2871 763.153C65.2511 763.153 64.5044 762.868 64.0471 762.299C63.5991 761.73 63.3751 760.82 63.3751 759.569C63.3751 757.086 64.3878 755.845 66.4131 755.845C68.3731 755.845 69.3531 756.914 69.3531 759.051L69.2551 760.143H64.9151C64.9244 760.722 65.0504 761.146 65.2931 761.417C65.5358 761.688 65.9884 761.823 66.6511 761.823C67.3138 761.823 67.9951 761.795 68.6951 761.739ZM67.8551 758.967C67.8551 758.276 67.7431 757.796 67.5191 757.525C67.3044 757.245 66.9358 757.105 66.4131 757.105C65.8904 757.105 65.5078 757.25 65.2651 757.539C65.0318 757.828 64.9104 758.304 64.9011 758.967H67.8551ZM76.9385 763.951C76.9385 765.482 75.8325 766.247 73.6205 766.247C72.5565 766.247 71.7678 766.102 71.2545 765.813C70.7412 765.524 70.4845 764.996 70.4845 764.231C70.4845 763.886 70.5685 763.587 70.7365 763.335C70.9045 763.092 71.1752 762.826 71.5485 762.537C71.2405 762.332 71.0865 761.991 71.0865 761.515C71.0865 761.328 71.2125 761.025 71.4645 760.605L71.5905 760.395C70.9185 759.994 70.5825 759.294 70.5825 758.295C70.5825 757.455 70.8345 756.839 71.3385 756.447C71.8425 756.055 72.5238 755.859 73.3825 755.859C73.7932 755.859 74.1992 755.906 74.6005 755.999L74.8105 756.041L76.9805 755.985V757.217L75.8185 757.147C76.0705 757.474 76.1965 757.856 76.1965 758.295C76.1965 759.21 75.9632 759.844 75.4965 760.199C75.0392 760.544 74.3205 760.717 73.3405 760.717C73.0978 760.717 72.8925 760.698 72.7245 760.661C72.5938 760.978 72.5285 761.226 72.5285 761.403C72.5285 761.571 72.6125 761.688 72.7805 761.753C72.9578 761.818 73.3778 761.856 74.0405 761.865C75.1512 761.874 75.9118 762.024 76.3225 762.313C76.7332 762.602 76.9385 763.148 76.9385 763.951ZM71.9825 764.091C71.9825 764.418 72.1132 764.651 72.3745 764.791C72.6358 764.931 73.0838 765.001 73.7185 765.001C74.8478 765.001 75.4125 764.679 75.4125 764.035C75.4125 763.671 75.3098 763.438 75.1045 763.335C74.9085 763.242 74.5118 763.19 73.9145 763.181L72.5425 763.097C72.3372 763.265 72.1925 763.419 72.1085 763.559C72.0245 763.708 71.9825 763.886 71.9825 764.091ZM72.0945 758.295C72.0945 758.724 72.1972 759.042 72.4025 759.247C72.6078 759.443 72.9392 759.541 73.3965 759.541C73.8538 759.541 74.1805 759.443 74.3765 759.247C74.5818 759.042 74.6845 758.724 74.6845 758.295C74.6845 757.866 74.5818 757.553 74.3765 757.357C74.1712 757.152 73.8398 757.049 73.3825 757.049C72.5238 757.049 72.0945 757.464 72.0945 758.295ZM83.356 758.155V761.347C83.3653 761.552 83.4166 761.706 83.51 761.809C83.6126 761.902 83.7666 761.963 83.972 761.991L83.93 763.153C83.1273 763.153 82.5066 762.98 82.068 762.635C81.3213 762.98 80.57 763.153 79.814 763.153C78.4233 763.153 77.728 762.411 77.728 760.927C77.728 760.218 77.9146 759.704 78.288 759.387C78.6706 759.07 79.254 758.878 80.038 758.813L81.844 758.659V758.155C81.844 757.782 81.76 757.52 81.592 757.371C81.4333 757.222 81.1953 757.147 80.878 757.147C80.2806 757.147 79.534 757.184 78.638 757.259L78.19 757.287L78.134 756.209C79.1513 755.966 80.0846 755.845 80.934 755.845C81.7926 755.845 82.4086 756.032 82.782 756.405C83.1646 756.769 83.356 757.352 83.356 758.155ZM80.22 759.891C79.576 759.947 79.254 760.297 79.254 760.941C79.254 761.585 79.5386 761.907 80.108 761.907C80.5746 761.907 81.0693 761.832 81.592 761.683L81.844 761.599V759.737L80.22 759.891ZM85.3557 762.999V753.087H86.8817V762.999H85.3557ZM88.8127 762.999V755.999H90.3387V762.999H88.8127ZM88.8127 754.809V753.199H90.3387V754.809H88.8127Z" fill="white"/>
<path d="M24 764.539H91.2627V764.959H24V764.539Z" fill="white"/>
<path d="M120.62 760.017H118.66V762.999H117.106V753.409H120.62C122.795 753.409 123.882 754.482 123.882 756.629C123.882 757.73 123.607 758.57 123.056 759.149C122.515 759.728 121.703 760.017 120.62 760.017ZM118.66 758.673H120.606C121.726 758.673 122.286 757.992 122.286 756.629C122.286 755.976 122.151 755.5 121.88 755.201C121.609 754.902 121.185 754.753 120.606 754.753H118.66V758.673ZM125.195 762.999V755.999H126.707V756.839C127.501 756.326 128.294 755.994 129.087 755.845V757.371C128.285 757.53 127.599 757.735 127.029 757.987L126.721 758.113V762.999H125.195ZM130.254 762.999V755.999H131.78V762.999H130.254ZM130.254 754.809V753.199H131.78V754.809H130.254ZM132.973 755.999H134.569L135.913 761.697H136.361L137.761 755.999H139.315L137.495 762.999H134.779L132.973 755.999ZM145.592 758.155V761.347C145.602 761.552 145.653 761.706 145.746 761.809C145.849 761.902 146.003 761.963 146.208 761.991L146.166 763.153C145.364 763.153 144.743 762.98 144.304 762.635C143.558 762.98 142.806 763.153 142.05 763.153C140.66 763.153 139.964 762.411 139.964 760.927C139.964 760.218 140.151 759.704 140.524 759.387C140.907 759.07 141.49 758.878 142.274 758.813L144.08 758.659V758.155C144.08 757.782 143.996 757.52 143.828 757.371C143.67 757.222 143.432 757.147 143.114 757.147C142.517 757.147 141.77 757.184 140.874 757.259L140.426 757.287L140.37 756.209C141.388 755.966 142.321 755.845 143.17 755.845C144.029 755.845 144.645 756.032 145.018 756.405C145.401 756.769 145.592 757.352 145.592 758.155ZM142.456 759.891C141.812 759.947 141.49 760.297 141.49 760.941C141.49 761.585 141.775 761.907 142.344 761.907C142.811 761.907 143.306 761.832 143.828 761.683L144.08 761.599V759.737L142.456 759.891ZM150.126 755.845C150.621 755.845 151.204 755.91 151.876 756.041L152.226 756.111L152.17 757.315C151.433 757.24 150.887 757.203 150.532 757.203C149.823 757.203 149.347 757.362 149.104 757.679C148.861 757.996 148.74 758.594 148.74 759.471C148.74 760.348 148.857 760.955 149.09 761.291C149.323 761.627 149.809 761.795 150.546 761.795L152.184 761.683L152.226 762.901C151.283 763.069 150.574 763.153 150.098 763.153C149.034 763.153 148.283 762.868 147.844 762.299C147.415 761.72 147.2 760.778 147.2 759.471C147.2 758.164 147.429 757.236 147.886 756.685C148.343 756.125 149.09 755.845 150.126 755.845ZM153.057 755.999H154.555L156.039 761.697H156.417L157.901 755.999H159.413L156.753 766.009H155.255L156.095 762.999H154.891L153.057 755.999ZM167.364 760.017H165.404V762.999H163.85V753.409H167.364C169.539 753.409 170.626 754.482 170.626 756.629C170.626 757.73 170.351 758.57 169.8 759.149C169.259 759.728 168.447 760.017 167.364 760.017ZM165.404 758.673H167.35C168.47 758.673 169.03 757.992 169.03 756.629C169.03 755.976 168.895 755.5 168.624 755.201C168.353 754.902 167.929 754.753 167.35 754.753H165.404V758.673ZM172.318 756.755C172.803 756.148 173.606 755.845 174.726 755.845C175.846 755.845 176.644 756.148 177.12 756.755C177.605 757.362 177.848 758.272 177.848 759.485C177.848 760.698 177.614 761.613 177.148 762.229C176.681 762.845 175.874 763.153 174.726 763.153C173.578 763.153 172.77 762.845 172.304 762.229C171.837 761.613 171.604 760.698 171.604 759.485C171.604 758.272 171.842 757.362 172.318 756.755ZM173.466 761.305C173.68 761.678 174.1 761.865 174.726 761.865C175.351 761.865 175.771 761.678 175.986 761.305C176.2 760.932 176.308 760.32 176.308 759.471C176.308 758.622 176.191 758.02 175.958 757.665C175.734 757.31 175.323 757.133 174.726 757.133C174.128 757.133 173.713 757.31 173.48 757.665C173.256 758.02 173.144 758.622 173.144 759.471C173.144 760.32 173.251 760.932 173.466 761.305ZM179.447 762.999V753.087H180.973V762.999H179.447ZM182.904 762.999V755.999H184.43V762.999H182.904ZM182.904 754.809V753.199H184.43V754.809H182.904ZM188.899 755.845C189.394 755.845 189.977 755.91 190.649 756.041L190.999 756.111L190.943 757.315C190.206 757.24 189.66 757.203 189.305 757.203C188.596 757.203 188.12 757.362 187.877 757.679C187.635 757.996 187.513 758.594 187.513 759.471C187.513 760.348 187.63 760.955 187.863 761.291C188.097 761.627 188.582 761.795 189.319 761.795L190.957 761.683L190.999 762.901C190.057 763.069 189.347 763.153 188.871 763.153C187.807 763.153 187.056 762.868 186.617 762.299C186.188 761.72 185.973 760.778 185.973 759.471C185.973 758.164 186.202 757.236 186.659 756.685C187.117 756.125 187.863 755.845 188.899 755.845ZM191.831 755.999H193.329L194.813 761.697H195.191L196.675 755.999H198.187L195.527 766.009H194.029L194.869 762.999H193.665L191.831 755.999Z" fill="white"/>
<path d="M116 764.539H198.439V764.959H116V764.539Z" fill="white"/>
<path d="M227.424 762.999H224.106V753.409H227.424C228.899 753.409 229.907 753.782 230.448 754.529C230.989 755.276 231.26 756.447 231.26 758.043C231.26 758.855 231.204 759.546 231.092 760.115C230.989 760.675 230.803 761.184 230.532 761.641C230 762.546 228.964 762.999 227.424 762.999ZM229.65 758.043C229.65 756.886 229.505 756.05 229.216 755.537C228.927 755.024 228.329 754.767 227.424 754.767H225.66V761.627H227.424C228.348 761.627 228.964 761.286 229.272 760.605C229.421 760.26 229.519 759.891 229.566 759.499C229.622 759.107 229.65 758.622 229.65 758.043ZM232.893 762.999V755.999H234.419V762.999H232.893ZM232.893 754.809V753.199H234.419V754.809H232.893ZM238.888 755.845C239.382 755.845 239.966 755.91 240.638 756.041L240.988 756.111L240.932 757.315C240.194 757.24 239.648 757.203 239.294 757.203C238.584 757.203 238.108 757.362 237.866 757.679C237.623 757.996 237.502 758.594 237.502 759.471C237.502 760.348 237.618 760.955 237.852 761.291C238.085 761.627 238.57 761.795 239.308 761.795L240.946 761.683L240.988 762.901C240.045 763.069 239.336 763.153 238.86 763.153C237.796 763.153 237.044 762.868 236.606 762.299C236.176 761.72 235.962 760.778 235.962 759.471C235.962 758.164 236.19 757.236 236.648 756.685C237.105 756.125 237.852 755.845 238.888 755.845ZM243.989 762.999H242.463V753.087H243.989V756.363C244.68 756.018 245.319 755.845 245.907 755.845C246.84 755.845 247.475 756.111 247.811 756.643C248.156 757.166 248.329 758.034 248.329 759.247V762.999H246.803V759.289C246.803 758.533 246.724 757.996 246.565 757.679C246.406 757.362 246.07 757.203 245.557 757.203C245.109 757.203 244.661 757.278 244.213 757.427L243.989 757.511V762.999ZM250.106 762.999V755.999H251.632V762.999H250.106ZM250.106 754.809V753.199H251.632V754.809H250.106ZM258.663 758.155V761.347C258.672 761.552 258.723 761.706 258.817 761.809C258.919 761.902 259.073 761.963 259.279 761.991L259.237 763.153C258.434 763.153 257.813 762.98 257.375 762.635C256.628 762.98 255.877 763.153 255.121 763.153C253.73 763.153 253.035 762.411 253.035 760.927C253.035 760.218 253.221 759.704 253.595 759.387C253.977 759.07 254.561 758.878 255.345 758.813L257.151 758.659V758.155C257.151 757.782 257.067 757.52 256.899 757.371C256.74 757.222 256.502 757.147 256.185 757.147C255.587 757.147 254.841 757.184 253.945 757.259L253.497 757.287L253.441 756.209C254.458 755.966 255.391 755.845 256.241 755.845C257.099 755.845 257.715 756.032 258.089 756.405C258.471 756.769 258.663 757.352 258.663 758.155ZM255.527 759.891C254.883 759.947 254.561 760.297 254.561 760.941C254.561 761.585 254.845 761.907 255.415 761.907C255.881 761.907 256.376 761.832 256.899 761.683L257.151 761.599V759.737L255.527 759.891ZM260.578 762.999V755.999H262.09V756.839C262.884 756.326 263.677 755.994 264.47 755.845V757.371C263.668 757.53 262.982 757.735 262.412 757.987L262.104 758.113V762.999H260.578ZM270.817 758.155V761.347C270.826 761.552 270.878 761.706 270.971 761.809C271.074 761.902 271.228 761.963 271.433 761.991L271.391 763.153C270.588 763.153 269.968 762.98 269.529 762.635C268.782 762.98 268.031 763.153 267.275 763.153C265.884 763.153 265.189 762.411 265.189 760.927C265.189 760.218 265.376 759.704 265.749 759.387C266.132 759.07 266.715 758.878 267.499 758.813L269.305 758.659V758.155C269.305 757.782 269.221 757.52 269.053 757.371C268.894 757.222 268.656 757.147 268.339 757.147C267.742 757.147 266.995 757.184 266.099 757.259L265.651 757.287L265.595 756.209C266.612 755.966 267.546 755.845 268.395 755.845C269.254 755.845 269.87 756.032 270.243 756.405C270.626 756.769 270.817 757.352 270.817 758.155ZM267.681 759.891C267.037 759.947 266.715 760.297 266.715 760.941C266.715 761.585 267 761.907 267.569 761.907C268.036 761.907 268.53 761.832 269.053 761.683L269.305 761.599V759.737L267.681 759.891ZM272.383 757.357V755.999H277.577V757.357L274.217 761.641H277.577V762.999H272.383V761.641L275.757 757.357H272.383ZM279.09 762.999V755.999H280.616V762.999H279.09ZM279.09 754.809V753.199H280.616V754.809H279.09ZM282.845 756.755C283.33 756.148 284.133 755.845 285.253 755.845C286.373 755.845 287.171 756.148 287.647 756.755C288.132 757.362 288.375 758.272 288.375 759.485C288.375 760.698 288.142 761.613 287.675 762.229C287.208 762.845 286.401 763.153 285.253 763.153C284.105 763.153 283.298 762.845 282.831 762.229C282.364 761.613 282.131 760.698 282.131 759.485C282.131 758.272 282.369 757.362 282.845 756.755ZM283.993 761.305C284.208 761.678 284.628 761.865 285.253 761.865C285.878 761.865 286.298 761.678 286.513 761.305C286.728 760.932 286.835 760.32 286.835 759.471C286.835 758.622 286.718 758.02 286.485 757.665C286.261 757.31 285.85 757.133 285.253 757.133C284.656 757.133 284.24 757.31 284.007 757.665C283.783 758.02 283.671 758.622 283.671 759.471C283.671 760.32 283.778 760.932 283.993 761.305ZM291.417 762.999H289.891V755.999H291.403V756.433C292.084 756.041 292.728 755.845 293.335 755.845C294.268 755.845 294.903 756.111 295.239 756.643C295.584 757.166 295.757 758.034 295.757 759.247V762.999H294.245V759.289C294.245 758.533 294.161 757.996 293.993 757.679C293.834 757.362 293.503 757.203 292.999 757.203C292.523 757.203 292.065 757.296 291.627 757.483L291.417 757.567V762.999ZM302.517 761.739L302.909 761.697L302.937 762.831C301.873 763.046 300.931 763.153 300.109 763.153C299.073 763.153 298.327 762.868 297.869 762.299C297.421 761.73 297.197 760.82 297.197 759.569C297.197 757.086 298.21 755.845 300.235 755.845C302.195 755.845 303.175 756.914 303.175 759.051L303.077 760.143H298.737C298.747 760.722 298.873 761.146 299.115 761.417C299.358 761.688 299.811 761.823 300.473 761.823C301.136 761.823 301.817 761.795 302.517 761.739ZM301.677 758.967C301.677 758.276 301.565 757.796 301.341 757.525C301.127 757.245 300.758 757.105 300.235 757.105C299.713 757.105 299.33 757.25 299.087 757.539C298.854 757.828 298.733 758.304 298.723 758.967H301.677ZM307.075 762.999L309.441 753.409H312.535L314.915 762.999H313.347L312.829 760.941H309.147L308.629 762.999H307.075ZM310.645 754.711L309.455 759.569H312.521L311.345 754.711H310.645ZM318.649 755.845C319.144 755.845 319.727 755.91 320.399 756.041L320.749 756.111L320.693 757.315C319.956 757.24 319.41 757.203 319.055 757.203C318.346 757.203 317.87 757.362 317.627 757.679C317.385 757.996 317.263 758.594 317.263 759.471C317.263 760.348 317.38 760.955 317.613 761.291C317.847 761.627 318.332 761.795 319.069 761.795L320.707 761.683L320.749 762.901C319.807 763.069 319.097 763.153 318.621 763.153C317.557 763.153 316.806 762.868 316.367 762.299C315.938 761.72 315.723 760.778 315.723 759.471C315.723 758.164 315.952 757.236 316.409 756.685C316.867 756.125 317.613 755.845 318.649 755.845ZM324.774 755.845C325.269 755.845 325.852 755.91 326.524 756.041L326.874 756.111L326.818 757.315C326.081 757.24 325.535 757.203 325.18 757.203C324.471 757.203 323.995 757.362 323.752 757.679C323.51 757.996 323.388 758.594 323.388 759.471C323.388 760.348 323.505 760.955 323.738 761.291C323.972 761.627 324.457 761.795 325.194 761.795L326.832 761.683L326.874 762.901C325.932 763.069 325.222 763.153 324.746 763.153C323.682 763.153 322.931 762.868 322.492 762.299C322.063 761.72 321.848 760.778 321.848 759.471C321.848 758.164 322.077 757.236 322.534 756.685C322.992 756.125 323.738 755.845 324.774 755.845ZM333.265 761.739L333.657 761.697L333.685 762.831C332.621 763.046 331.679 763.153 330.857 763.153C329.821 763.153 329.075 762.868 328.617 762.299C328.169 761.73 327.945 760.82 327.945 759.569C327.945 757.086 328.958 755.845 330.983 755.845C332.943 755.845 333.923 756.914 333.923 759.051L333.825 760.143H329.485C329.495 760.722 329.621 761.146 329.863 761.417C330.106 761.688 330.559 761.823 331.221 761.823C331.884 761.823 332.565 761.795 333.265 761.739ZM332.425 758.967C332.425 758.276 332.313 757.796 332.089 757.525C331.875 757.245 331.506 757.105 330.983 757.105C330.461 757.105 330.078 757.25 329.835 757.539C329.602 757.828 329.481 758.304 329.471 758.967H332.425ZM340.249 757.441C339.147 757.292 338.349 757.217 337.855 757.217C337.36 757.217 337.015 757.278 336.819 757.399C336.632 757.511 336.539 757.693 336.539 757.945C336.539 758.197 336.641 758.374 336.847 758.477C337.061 758.58 337.556 758.701 338.331 758.841C339.115 758.972 339.67 759.182 339.997 759.471C340.323 759.76 340.487 760.274 340.487 761.011C340.487 761.748 340.249 762.29 339.773 762.635C339.306 762.98 338.62 763.153 337.715 763.153C337.145 763.153 336.427 763.074 335.559 762.915L335.125 762.845L335.181 761.571C336.301 761.72 337.108 761.795 337.603 761.795C338.097 761.795 338.447 761.734 338.653 761.613C338.867 761.492 338.975 761.291 338.975 761.011C338.975 760.731 338.872 760.54 338.667 760.437C338.471 760.325 337.99 760.208 337.225 760.087C336.469 759.956 335.913 759.756 335.559 759.485C335.204 759.214 335.027 758.72 335.027 758.001C335.027 757.282 335.269 756.746 335.755 756.391C336.249 756.036 336.879 755.859 337.645 755.859C338.242 755.859 338.975 755.934 339.843 756.083L340.277 756.167L340.249 757.441ZM346.811 757.441C345.71 757.292 344.912 757.217 344.417 757.217C343.923 757.217 343.577 757.278 343.381 757.399C343.195 757.511 343.101 757.693 343.101 757.945C343.101 758.197 343.204 758.374 343.409 758.477C343.624 758.58 344.119 758.701 344.893 758.841C345.677 758.972 346.233 759.182 346.559 759.471C346.886 759.76 347.049 760.274 347.049 761.011C347.049 761.748 346.811 762.29 346.335 762.635C345.869 762.98 345.183 763.153 344.277 763.153C343.708 763.153 342.989 763.074 342.121 762.915L341.687 762.845L341.743 761.571C342.863 761.72 343.671 761.795 344.165 761.795C344.66 761.795 345.01 761.734 345.215 761.613C345.43 761.492 345.537 761.291 345.537 761.011C345.537 760.731 345.435 760.54 345.229 760.437C345.033 760.325 344.553 760.208 343.787 760.087C343.031 759.956 342.476 759.756 342.121 759.485C341.767 759.214 341.589 758.72 341.589 758.001C341.589 757.282 341.832 756.746 342.317 756.391C342.812 756.036 343.442 755.859 344.207 755.859C344.805 755.859 345.537 755.934 346.405 756.083L346.839 756.167L346.811 757.441ZM348.516 762.999V755.999H350.042V762.999H348.516ZM348.516 754.809V753.199H350.042V754.809H348.516ZM355.155 755.845C356.116 755.845 356.807 756.116 357.227 756.657C357.656 757.189 357.871 758.136 357.871 759.499C357.871 760.862 357.619 761.814 357.115 762.355C356.611 762.887 355.724 763.153 354.455 763.153C354.016 763.153 353.321 763.111 352.369 763.027L351.893 762.985V753.087H353.405V756.265C354.049 755.985 354.632 755.845 355.155 755.845ZM354.455 761.795C355.201 761.795 355.696 761.622 355.939 761.277C356.191 760.922 356.317 760.325 356.317 759.485C356.317 758.645 356.209 758.057 355.995 757.721C355.789 757.376 355.449 757.203 354.973 757.203C354.525 757.203 354.077 757.273 353.629 757.413L353.405 757.483V761.739C353.918 761.776 354.268 761.795 354.455 761.795ZM359.399 762.999V755.999H360.925V762.999H359.399ZM359.399 754.809V753.199H360.925V754.809H359.399ZM362.86 762.999V753.087H364.386V762.999H362.86ZM366.317 762.999V755.999H367.843V762.999H366.317ZM366.317 754.809V753.199H367.843V754.809H366.317ZM373.46 757.301H371.528V760.381C371.528 760.95 371.57 761.328 371.654 761.515C371.738 761.702 371.952 761.795 372.298 761.795L373.446 761.753L373.516 762.971C372.89 763.092 372.414 763.153 372.088 763.153C371.294 763.153 370.748 762.971 370.45 762.607C370.16 762.243 370.016 761.557 370.016 760.549V757.301H369.12V755.999H370.016V753.969H371.528V755.999H373.46V757.301ZM379.891 758.155V761.347C379.9 761.552 379.952 761.706 380.045 761.809C380.148 761.902 380.302 761.963 380.507 761.991L380.465 763.153C379.662 763.153 379.042 762.98 378.603 762.635C377.856 762.98 377.105 763.153 376.349 763.153C374.958 763.153 374.263 762.411 374.263 760.927C374.263 760.218 374.45 759.704 374.823 759.387C375.206 759.07 375.789 758.878 376.573 758.813L378.379 758.659V758.155C378.379 757.782 378.295 757.52 378.127 757.371C377.968 757.222 377.73 757.147 377.413 757.147C376.816 757.147 376.069 757.184 375.173 757.259L374.725 757.287L374.669 756.209C375.686 755.966 376.62 755.845 377.469 755.845C378.328 755.845 378.944 756.032 379.317 756.405C379.7 756.769 379.891 757.352 379.891 758.155ZM376.755 759.891C376.111 759.947 375.789 760.297 375.789 760.941C375.789 761.585 376.074 761.907 376.643 761.907C377.11 761.907 377.604 761.832 378.127 761.683L378.379 761.599V759.737L376.755 759.891ZM375.817 752.527L379.121 753.941L378.757 754.935L375.341 753.843L375.817 752.527Z" fill="white"/>
<path d="M223 764.539H380.885V764.959H223V764.539Z" fill="white"/>
</g>
<defs>
<clipPath id="clip0_4168_44235">
<rect width="1440" height="790" fill="white"/>
</clipPath>
<clipPath id="clip1_4168_44235">
<rect width="47" height="24" fill="white" transform="translate(1321 12)"/>
</clipPath>
</defs>
</svg>
