<svg width="291" height="234" viewBox="0 0 291 234" fill="none" xmlns="http://www.w3.org/2000/svg">
<rect x="0.5" y="0.5" width="290" height="233" rx="4.5" stroke="#7B61FF" stroke-dasharray="10 5"/>
<rect x="20" y="20" width="251" height="60" rx="4" fill="#0066CC"/>
<g clip-path="url(#clip0_1679_32485)">
<path d="M53.4711 38.1181C53.3255 38.0357 53.1708 37.9991 53.0207 38C52.5465 38.0037 52.1117 38.3836 52.1144 38.9127L52.141 43.7572L45.3722 39.9609C45.2258 39.8785 45.0711 39.8419 44.9209 39.8428C44.4467 39.8464 44.0156 40.2264 44.0146 40.7555L44 56.7225C44 57.4429 44.3241 58.0709 45.018 58.46L51.1029 61.8819C51.2493 61.9643 51.404 62.0009 51.5542 62C52.0284 61.9963 52.4605 61.6164 52.4605 61.0873V44.7138L55.6773 46.5044C56.3721 46.8907 56.6953 47.5215 56.6953 48.2419V57.8357L62.7124 61.2109C62.8589 61.2933 63.0136 61.3299 63.1637 61.329C63.6379 61.3253 64.07 60.9454 64.07 60.4163L64.0764 45.2338C64.0764 44.5133 63.7523 43.8854 63.0584 43.4963L53.4711 38.1181Z" fill="white"/>
</g>
<path d="M95.2199 57V44.67H102.996V46.416H97.2179V49.908H101.916V51.636H97.2179V55.236H102.996V57H95.2199ZM106.897 57H104.935V48H106.879V48.558C107.755 48.054 108.583 47.802 109.363 47.802C110.563 47.802 111.379 48.144 111.811 48.828C112.255 49.5 112.477 50.616 112.477 52.176V57H110.533V52.23C110.533 51.258 110.425 50.568 110.209 50.16C110.005 49.752 109.579 49.548 108.931 49.548C108.319 49.548 107.731 49.668 107.167 49.908L106.897 50.016V57ZM119.603 49.674H117.119V53.634C117.119 54.366 117.173 54.852 117.281 55.092C117.389 55.332 117.665 55.452 118.109 55.452L119.585 55.398L119.675 56.964C118.871 57.12 118.259 57.198 117.839 57.198C116.819 57.198 116.117 56.964 115.733 56.496C115.361 56.028 115.175 55.146 115.175 53.85V49.674H114.023V48H115.175V45.39H117.119V48H119.603V49.674ZM121.212 57V48H123.156V49.08C124.176 48.42 125.196 47.994 126.216 47.802V49.764C125.184 49.968 124.302 50.232 123.57 50.556L123.174 50.718V57H121.212ZM134.376 50.772V54.876C134.388 55.14 134.454 55.338 134.574 55.47C134.706 55.59 134.904 55.668 135.168 55.704L135.114 57.198C134.082 57.198 133.284 56.976 132.72 56.532C131.76 56.976 130.794 57.198 129.822 57.198C128.034 57.198 127.14 56.244 127.14 54.336C127.14 53.424 127.38 52.764 127.86 52.356C128.352 51.948 129.102 51.702 130.11 51.618L132.432 51.42V50.772C132.432 50.292 132.324 49.956 132.108 49.764C131.904 49.572 131.598 49.476 131.19 49.476C130.422 49.476 129.462 49.524 128.31 49.62L127.734 49.656L127.662 48.27C128.97 47.958 130.17 47.802 131.262 47.802C132.366 47.802 133.158 48.042 133.638 48.522C134.13 48.99 134.376 49.74 134.376 50.772ZM130.344 53.004C129.516 53.076 129.102 53.526 129.102 54.354C129.102 55.182 129.468 55.596 130.2 55.596C130.8 55.596 131.436 55.5 132.108 55.308L132.432 55.2V52.806L130.344 53.004ZM144.16 47.802C144.796 47.802 145.546 47.886 146.41 48.054L146.86 48.144L146.788 49.692C145.84 49.596 145.138 49.548 144.682 49.548C143.77 49.548 143.158 49.752 142.846 50.16C142.534 50.568 142.378 51.336 142.378 52.464C142.378 53.592 142.528 54.372 142.828 54.804C143.128 55.236 143.752 55.452 144.7 55.452L146.806 55.308L146.86 56.874C145.648 57.09 144.736 57.198 144.124 57.198C142.756 57.198 141.79 56.832 141.226 56.1C140.674 55.356 140.398 54.144 140.398 52.464C140.398 50.784 140.692 49.59 141.28 48.882C141.868 48.162 142.828 47.802 144.16 47.802ZM149.155 48.972C149.779 48.192 150.811 47.802 152.251 47.802C153.691 47.802 154.717 48.192 155.329 48.972C155.953 49.752 156.265 50.922 156.265 52.482C156.265 54.042 155.965 55.218 155.365 56.01C154.765 56.802 153.727 57.198 152.251 57.198C150.775 57.198 149.737 56.802 149.137 56.01C148.537 55.218 148.237 54.042 148.237 52.482C148.237 50.922 148.543 49.752 149.155 48.972ZM150.631 54.822C150.907 55.302 151.447 55.542 152.251 55.542C153.055 55.542 153.595 55.302 153.871 54.822C154.147 54.342 154.285 53.556 154.285 52.464C154.285 51.372 154.135 50.598 153.835 50.142C153.547 49.686 153.019 49.458 152.251 49.458C151.483 49.458 150.949 49.686 150.649 50.142C150.361 50.598 150.217 51.372 150.217 52.464C150.217 53.556 150.355 54.342 150.631 54.822ZM160.176 57H158.214V48H160.158V48.558C161.034 48.054 161.862 47.802 162.642 47.802C163.842 47.802 164.658 48.144 165.09 48.828C165.534 49.5 165.756 50.616 165.756 52.176V57H163.812V52.23C163.812 51.258 163.704 50.568 163.488 50.16C163.284 49.752 162.858 49.548 162.21 49.548C161.598 49.548 161.01 49.668 160.446 49.908L160.176 50.016V57ZM172.23 57V44.67H174.228V57H172.23ZM175.876 46.452V44.67H184.876V46.452H181.402V57H179.386V46.452H175.876ZM185.142 53.04V51.258H190.524V53.04H185.142ZM191.753 44.67H193.859L195.623 55.272H196.001L198.341 44.706H200.681L203.021 55.272H203.417L205.181 44.67H207.287L204.857 57H201.635L199.511 47.118L197.405 57H194.165L191.753 44.67ZM215.306 50.772V54.876C215.318 55.14 215.384 55.338 215.504 55.47C215.636 55.59 215.834 55.668 216.098 55.704L216.044 57.198C215.012 57.198 214.214 56.976 213.65 56.532C212.69 56.976 211.724 57.198 210.752 57.198C208.964 57.198 208.07 56.244 208.07 54.336C208.07 53.424 208.31 52.764 208.79 52.356C209.282 51.948 210.032 51.702 211.04 51.618L213.362 51.42V50.772C213.362 50.292 213.254 49.956 213.038 49.764C212.834 49.572 212.528 49.476 212.12 49.476C211.352 49.476 210.392 49.524 209.24 49.62L208.664 49.656L208.592 48.27C209.9 47.958 211.1 47.802 212.192 47.802C213.296 47.802 214.088 48.042 214.568 48.522C215.06 48.99 215.306 49.74 215.306 50.772ZM211.274 53.004C210.446 53.076 210.032 53.526 210.032 54.354C210.032 55.182 210.398 55.596 211.13 55.596C211.73 55.596 212.366 55.5 213.038 55.308L213.362 55.2V52.806L211.274 53.004ZM217.877 57V44.256H219.839V57H217.877ZM222.43 57V44.256H224.392V57H222.43ZM233.283 55.38L233.787 55.326L233.823 56.784C232.455 57.06 231.243 57.198 230.187 57.198C228.855 57.198 227.895 56.832 227.307 56.1C226.731 55.368 226.443 54.198 226.443 52.59C226.443 49.398 227.745 47.802 230.349 47.802C232.869 47.802 234.129 49.176 234.129 51.924L234.003 53.328H228.423C228.435 54.072 228.597 54.618 228.909 54.966C229.221 55.314 229.803 55.488 230.655 55.488C231.507 55.488 232.383 55.452 233.283 55.38ZM232.203 51.816C232.203 50.928 232.059 50.31 231.771 49.962C231.495 49.602 231.021 49.422 230.349 49.422C229.677 49.422 229.185 49.608 228.873 49.98C228.573 50.352 228.417 50.964 228.405 51.816H232.203ZM240.857 49.674H238.373V53.634C238.373 54.366 238.427 54.852 238.535 55.092C238.643 55.332 238.919 55.452 239.363 55.452L240.839 55.398L240.929 56.964C240.125 57.12 239.513 57.198 239.093 57.198C238.073 57.198 237.371 56.964 236.987 56.496C236.615 56.028 236.429 55.146 236.429 53.85V49.674H235.277V48H236.429V45.39H238.373V48H240.857V49.674Z" fill="white"/>
<rect x="20" y="103" width="251" height="48" rx="4" fill="#0066CC"/>
<g clip-path="url(#clip1_1679_32485)">
<path d="M53.4711 115.118C53.3255 115.036 53.1708 114.999 53.0207 115C52.5465 115.004 52.1117 115.384 52.1144 115.913L52.141 120.757L45.3722 116.961C45.2258 116.878 45.0711 116.842 44.9209 116.843C44.4467 116.846 44.0156 117.226 44.0146 117.755L44 133.722C44 134.443 44.3241 135.071 45.018 135.46L51.1029 138.882C51.2493 138.964 51.404 139.001 51.5542 139C52.0284 138.996 52.4605 138.616 52.4605 138.087V121.714L55.6773 123.504C56.3721 123.891 56.6953 124.521 56.6953 125.242V134.836L62.7124 138.211C62.8589 138.293 63.0136 138.33 63.1637 138.329C63.6379 138.325 64.07 137.945 64.07 137.416L64.0764 122.234C64.0764 121.513 63.7523 120.885 63.0584 120.496L53.4711 115.118Z" fill="white"/>
</g>
<path d="M103.255 133V122.04H110.167V123.592H105.031V126.696H109.207V128.232H105.031V131.432H110.167V133H103.255ZM113.635 133H111.891V125H113.619V125.496C114.398 125.048 115.134 124.824 115.827 124.824C116.894 124.824 117.619 125.128 118.003 125.736C118.398 126.333 118.595 127.325 118.595 128.712V133H116.867V128.76C116.867 127.896 116.771 127.283 116.579 126.92C116.398 126.557 116.019 126.376 115.443 126.376C114.899 126.376 114.376 126.483 113.875 126.696L113.635 126.792V133ZM124.929 126.488H122.721V130.008C122.721 130.659 122.769 131.091 122.865 131.304C122.961 131.517 123.207 131.624 123.601 131.624L124.913 131.576L124.993 132.968C124.279 133.107 123.735 133.176 123.361 133.176C122.455 133.176 121.831 132.968 121.489 132.552C121.159 132.136 120.993 131.352 120.993 130.2V126.488H119.969V125H120.993V122.68H122.721V125H124.929V126.488ZM126.36 133V125H128.088V125.96C128.994 125.373 129.901 124.995 130.808 124.824V126.568C129.89 126.749 129.106 126.984 128.456 127.272L128.104 127.416V133H126.36ZM138.061 127.464V131.112C138.072 131.347 138.13 131.523 138.237 131.64C138.354 131.747 138.53 131.816 138.765 131.848L138.717 133.176C137.8 133.176 137.09 132.979 136.589 132.584C135.736 132.979 134.877 133.176 134.013 133.176C132.424 133.176 131.629 132.328 131.629 130.632C131.629 129.821 131.842 129.235 132.269 128.872C132.706 128.509 133.373 128.291 134.269 128.216L136.333 128.04V127.464C136.333 127.037 136.237 126.739 136.045 126.568C135.864 126.397 135.592 126.312 135.229 126.312C134.546 126.312 133.693 126.355 132.669 126.44L132.157 126.472L132.093 125.24C133.256 124.963 134.322 124.824 135.293 124.824C136.274 124.824 136.978 125.037 137.405 125.464C137.842 125.88 138.061 126.547 138.061 127.464ZM134.477 129.448C133.741 129.512 133.373 129.912 133.373 130.648C133.373 131.384 133.698 131.752 134.349 131.752C134.882 131.752 135.448 131.667 136.045 131.496L136.333 131.4V129.272L134.477 129.448ZM146.758 124.824C147.323 124.824 147.99 124.899 148.758 125.048L149.158 125.128L149.094 126.504C148.251 126.419 147.627 126.376 147.222 126.376C146.411 126.376 145.867 126.557 145.59 126.92C145.313 127.283 145.174 127.965 145.174 128.968C145.174 129.971 145.307 130.664 145.574 131.048C145.841 131.432 146.395 131.624 147.238 131.624L149.11 131.496L149.158 132.888C148.081 133.08 147.27 133.176 146.726 133.176C145.51 133.176 144.651 132.851 144.15 132.2C143.659 131.539 143.414 130.461 143.414 128.968C143.414 127.475 143.675 126.413 144.198 125.784C144.721 125.144 145.574 124.824 146.758 124.824ZM151.198 125.864C151.753 125.171 152.67 124.824 153.95 124.824C155.23 124.824 156.142 125.171 156.686 125.864C157.241 126.557 157.518 127.597 157.518 128.984C157.518 130.371 157.251 131.416 156.718 132.12C156.185 132.824 155.262 133.176 153.95 133.176C152.638 133.176 151.715 132.824 151.182 132.12C150.649 131.416 150.382 130.371 150.382 128.984C150.382 127.597 150.654 126.557 151.198 125.864ZM152.51 131.064C152.755 131.491 153.235 131.704 153.95 131.704C154.665 131.704 155.145 131.491 155.39 131.064C155.635 130.637 155.758 129.939 155.758 128.968C155.758 127.997 155.625 127.309 155.358 126.904C155.102 126.499 154.633 126.296 153.95 126.296C153.267 126.296 152.793 126.499 152.526 126.904C152.27 127.309 152.142 127.997 152.142 128.968C152.142 129.939 152.265 130.637 152.51 131.064ZM160.994 133H159.25V125H160.978V125.496C161.757 125.048 162.493 124.824 163.186 124.824C164.253 124.824 164.978 125.128 165.362 125.736C165.757 126.333 165.954 127.325 165.954 128.712V133H164.226V128.76C164.226 127.896 164.13 127.283 163.938 126.92C163.757 126.557 163.378 126.376 162.802 126.376C162.258 126.376 161.736 126.483 161.234 126.696L160.994 126.792V133ZM171.708 133V122.04H173.484V133H171.708ZM174.949 123.624V122.04H182.949V123.624H179.861V133H178.069V123.624H174.949ZM183.186 129.48V127.896H187.97V129.48H183.186ZM189.063 122.04H190.935L192.503 131.464H192.839L194.919 122.072H196.999L199.079 131.464H199.431L200.999 122.04H202.871L200.711 133H197.847L195.959 124.216L194.087 133H191.207L189.063 122.04ZM209.998 127.464V131.112C210.009 131.347 210.068 131.523 210.174 131.64C210.292 131.747 210.468 131.816 210.702 131.848L210.654 133.176C209.737 133.176 209.028 132.979 208.526 132.584C207.673 132.979 206.814 133.176 205.95 133.176C204.361 133.176 203.566 132.328 203.566 130.632C203.566 129.821 203.78 129.235 204.206 128.872C204.644 128.509 205.31 128.291 206.206 128.216L208.27 128.04V127.464C208.27 127.037 208.174 126.739 207.982 126.568C207.801 126.397 207.529 126.312 207.166 126.312C206.484 126.312 205.63 126.355 204.606 126.44L204.094 126.472L204.03 125.24C205.193 124.963 206.26 124.824 207.23 124.824C208.212 124.824 208.916 125.037 209.342 125.464C209.78 125.88 209.998 126.547 209.998 127.464ZM206.414 129.448C205.678 129.512 205.31 129.912 205.31 130.648C205.31 131.384 205.636 131.752 206.286 131.752C206.82 131.752 207.385 131.667 207.982 131.496L208.27 131.4V129.272L206.414 129.448ZM212.284 133V121.672H214.028V133H212.284ZM216.331 133V121.672H218.075V133H216.331ZM225.978 131.56L226.426 131.512L226.458 132.808C225.242 133.053 224.164 133.176 223.226 133.176C222.042 133.176 221.188 132.851 220.666 132.2C220.154 131.549 219.898 130.509 219.898 129.08C219.898 126.243 221.055 124.824 223.37 124.824C225.61 124.824 226.73 126.045 226.73 128.488L226.618 129.736H221.658C221.668 130.397 221.812 130.883 222.09 131.192C222.367 131.501 222.884 131.656 223.642 131.656C224.399 131.656 225.178 131.624 225.978 131.56ZM225.018 128.392C225.018 127.603 224.89 127.053 224.634 126.744C224.388 126.424 223.967 126.264 223.37 126.264C222.772 126.264 222.335 126.429 222.058 126.76C221.791 127.091 221.652 127.635 221.642 128.392H225.018ZM232.711 126.488H230.503V130.008C230.503 130.659 230.551 131.091 230.647 131.304C230.743 131.517 230.988 131.624 231.383 131.624L232.695 131.576L232.775 132.968C232.06 133.107 231.516 133.176 231.143 133.176C230.236 133.176 229.612 132.968 229.271 132.552C228.94 132.136 228.775 131.352 228.775 130.2V126.488H227.751V125H228.775V122.68H230.503V125H232.711V126.488Z" fill="white"/>
<rect x="20" y="174" width="251" height="40" rx="4" fill="#0066CC"/>
<g clip-path="url(#clip2_1679_32485)">
<path d="M50.3141 186.079C50.217 186.024 50.1139 185.999 50.0138 186C49.6977 186.002 49.4078 186.256 49.4096 186.608L49.4273 189.838L44.9148 187.307C44.8172 187.252 44.714 187.228 44.614 187.229C44.2978 187.231 44.0104 187.484 44.0098 187.837L44 198.482C44 198.962 44.216 199.381 44.6786 199.64L48.7352 201.921C48.8329 201.976 48.936 202.001 49.0361 202C49.3522 201.998 49.6403 201.744 49.6403 201.392V190.476L51.7849 191.67C52.2481 191.927 52.4635 192.348 52.4635 192.828V199.224L56.4749 201.474C56.5726 201.529 56.6757 201.553 56.7758 201.553C57.0919 201.55 57.38 201.297 57.38 200.944L57.3843 190.823C57.3843 190.342 57.1682 189.924 56.7056 189.664L50.3141 186.079Z" fill="white"/>
</g>
<path d="M107.945 199V189.41H113.993V190.768H109.499V193.484H113.153V194.828H109.499V197.628H113.993V199H107.945ZM117.027 199H115.501V192H117.013V192.434C117.694 192.042 118.338 191.846 118.945 191.846C119.878 191.846 120.513 192.112 120.849 192.644C121.194 193.167 121.367 194.035 121.367 195.248V199H119.855V195.29C119.855 194.534 119.771 193.997 119.603 193.68C119.444 193.363 119.113 193.204 118.609 193.204C118.133 193.204 117.676 193.297 117.237 193.484L117.027 193.568V199ZM126.909 193.302H124.977V196.382C124.977 196.951 125.019 197.329 125.103 197.516C125.187 197.703 125.402 197.796 125.747 197.796L126.895 197.754L126.965 198.972C126.34 199.093 125.864 199.154 125.537 199.154C124.744 199.154 124.198 198.972 123.899 198.608C123.61 198.244 123.465 197.558 123.465 196.55V193.302H122.569V192H123.465V189.97H124.977V192H126.909V193.302ZM128.161 199V192H129.673V192.84C130.466 192.327 131.26 191.995 132.053 191.846V193.372C131.25 193.531 130.564 193.736 129.995 193.988L129.687 194.114V199H128.161ZM138.4 194.156V197.348C138.409 197.553 138.46 197.707 138.554 197.81C138.656 197.903 138.81 197.964 139.016 197.992L138.974 199.154C138.171 199.154 137.55 198.981 137.112 198.636C136.365 198.981 135.614 199.154 134.858 199.154C133.467 199.154 132.772 198.412 132.772 196.928C132.772 196.219 132.958 195.705 133.332 195.388C133.714 195.071 134.298 194.879 135.082 194.814L136.888 194.66V194.156C136.888 193.783 136.804 193.521 136.636 193.372C136.477 193.223 136.239 193.148 135.922 193.148C135.324 193.148 134.578 193.185 133.682 193.26L133.234 193.288L133.178 192.21C134.195 191.967 135.128 191.846 135.978 191.846C136.836 191.846 137.452 192.033 137.826 192.406C138.208 192.77 138.4 193.353 138.4 194.156ZM135.264 195.892C134.62 195.948 134.298 196.298 134.298 196.942C134.298 197.586 134.582 197.908 135.152 197.908C135.618 197.908 136.113 197.833 136.636 197.684L136.888 197.6V195.738L135.264 195.892ZM146.01 191.846C146.504 191.846 147.088 191.911 147.76 192.042L148.11 192.112L148.054 193.316C147.316 193.241 146.77 193.204 146.416 193.204C145.706 193.204 145.23 193.363 144.988 193.68C144.745 193.997 144.624 194.595 144.624 195.472C144.624 196.349 144.74 196.956 144.974 197.292C145.207 197.628 145.692 197.796 146.43 197.796L148.068 197.684L148.11 198.902C147.167 199.07 146.458 199.154 145.982 199.154C144.918 199.154 144.166 198.869 143.728 198.3C143.298 197.721 143.084 196.779 143.084 195.472C143.084 194.165 143.312 193.237 143.77 192.686C144.227 192.126 144.974 191.846 146.01 191.846ZM149.895 192.756C150.38 192.149 151.183 191.846 152.303 191.846C153.423 191.846 154.221 192.149 154.697 192.756C155.182 193.363 155.425 194.273 155.425 195.486C155.425 196.699 155.191 197.614 154.725 198.23C154.258 198.846 153.451 199.154 152.303 199.154C151.155 199.154 150.347 198.846 149.881 198.23C149.414 197.614 149.181 196.699 149.181 195.486C149.181 194.273 149.419 193.363 149.895 192.756ZM151.043 197.306C151.257 197.679 151.677 197.866 152.303 197.866C152.928 197.866 153.348 197.679 153.563 197.306C153.777 196.933 153.885 196.321 153.885 195.472C153.885 194.623 153.768 194.021 153.535 193.666C153.311 193.311 152.9 193.134 152.303 193.134C151.705 193.134 151.29 193.311 151.057 193.666C150.833 194.021 150.721 194.623 150.721 195.472C150.721 196.321 150.828 196.933 151.043 197.306ZM158.466 199H156.94V192H158.452V192.434C159.134 192.042 159.778 191.846 160.384 191.846C161.318 191.846 161.952 192.112 162.288 192.644C162.634 193.167 162.806 194.035 162.806 195.248V199H161.294V195.29C161.294 194.534 161.21 193.997 161.042 193.68C160.884 193.363 160.552 193.204 160.048 193.204C159.572 193.204 159.115 193.297 158.676 193.484L158.466 193.568V199ZM167.841 199V189.41H169.395V199H167.841ZM170.677 190.796V189.41H177.677V190.796H174.975V199H173.407V190.796H170.677ZM177.884 195.92V194.534H182.07V195.92H177.884ZM183.026 189.41H184.664L186.036 197.656H186.33L188.15 189.438H189.97L191.79 197.656H192.098L193.47 189.41H195.108L193.218 199H190.712L189.06 191.314L187.422 199H184.902L183.026 189.41ZM201.345 194.156V197.348C201.354 197.553 201.406 197.707 201.499 197.81C201.602 197.903 201.756 197.964 201.961 197.992L201.919 199.154C201.116 199.154 200.496 198.981 200.057 198.636C199.31 198.981 198.559 199.154 197.803 199.154C196.412 199.154 195.717 198.412 195.717 196.928C195.717 196.219 195.904 195.705 196.277 195.388C196.66 195.071 197.243 194.879 198.027 194.814L199.833 194.66V194.156C199.833 193.783 199.749 193.521 199.581 193.372C199.422 193.223 199.184 193.148 198.867 193.148C198.27 193.148 197.523 193.185 196.627 193.26L196.179 193.288L196.123 192.21C197.14 191.967 198.074 191.846 198.923 191.846C199.782 191.846 200.398 192.033 200.771 192.406C201.154 192.77 201.345 193.353 201.345 194.156ZM198.209 195.892C197.565 195.948 197.243 196.298 197.243 196.942C197.243 197.586 197.528 197.908 198.097 197.908C198.564 197.908 199.058 197.833 199.581 197.684L199.833 197.6V195.738L198.209 195.892ZM203.345 199V189.088H204.871V199H203.345ZM206.886 199V189.088H208.412V199H206.886ZM215.327 197.74L215.719 197.698L215.747 198.832C214.683 199.047 213.74 199.154 212.919 199.154C211.883 199.154 211.136 198.869 210.679 198.3C210.231 197.731 210.007 196.821 210.007 195.57C210.007 193.087 211.019 191.846 213.045 191.846C215.005 191.846 215.985 192.915 215.985 195.052L215.887 196.144H211.547C211.556 196.723 211.682 197.147 211.925 197.418C212.167 197.689 212.62 197.824 213.283 197.824C213.945 197.824 214.627 197.796 215.327 197.74ZM214.487 194.968C214.487 194.277 214.375 193.797 214.151 193.526C213.936 193.246 213.567 193.106 213.045 193.106C212.522 193.106 212.139 193.251 211.897 193.54C211.663 193.829 211.542 194.305 211.533 194.968H214.487ZM221.218 193.302H219.286V196.382C219.286 196.951 219.328 197.329 219.412 197.516C219.496 197.703 219.711 197.796 220.056 197.796L221.204 197.754L221.274 198.972C220.649 199.093 220.173 199.154 219.846 199.154C219.053 199.154 218.507 198.972 218.208 198.608C217.919 198.244 217.774 197.558 217.774 196.55V193.302H216.878V192H217.774V189.97H219.286V192H221.218V193.302Z" fill="white"/>
<defs>
<clipPath id="clip0_1679_32485">
<rect width="20.0764" height="24" fill="white" transform="translate(44 38)"/>
</clipPath>
<clipPath id="clip1_1679_32485">
<rect width="20.0764" height="24" fill="white" transform="translate(44 115)"/>
</clipPath>
<clipPath id="clip2_1679_32485">
<rect width="13.3843" height="16" fill="white" transform="translate(44 186)"/>
</clipPath>
</defs>
</svg>
