<svg xmlns="http://www.w3.org/2000/svg" xmlns:xlink="http://www.w3.org/1999/xlink" contentStyleType="text/css" data-diagram-type="STATE" height="499px" preserveAspectRatio="none" style="width:432px;height:499px;background:#FFFFFF;" version="1.1" viewBox="0 0 432 499" width="432px" zoomAndPan="magnify"><defs/><g><rect fill="#FFA500" height="40" rx="12.5" ry="12.5" style="stroke:#181818;stroke-width:0.5;" width="69.6436" x="33.22" y="103"/><text fill="#000000" font-family="sans-serif" font-size="14" lengthAdjust="spacing" textLength="59.6436" x="38.22" y="127.8467">Installed</text><rect fill="#FFFF00" height="40" rx="12.5" ry="12.5" style="stroke:#181818;stroke-width:0.5;" width="92.1406" x="186.22" y="103"/><text fill="#000000" font-family="sans-serif" font-size="14" lengthAdjust="spacing" textLength="82.1406" x="191.22" y="127.8467">Operational</text><rect fill="#008000" height="40" rx="12.5" ry="12.5" style="stroke:#181818;stroke-width:0.5;" width="50" x="116.22" y="236"/><text fill="#000000" font-family="sans-serif" font-size="14" lengthAdjust="spacing" textLength="34.8223" x="123.8089" y="260.8467">Valid</text><rect fill="#D64545" height="40" rx="12.5" ry="12.5" style="stroke:#181818;stroke-width:0.5;" width="88.5244" x="96.72" y="354"/><text fill="#000000" font-family="sans-serif" font-size="14" lengthAdjust="spacing" textLength="78.5244" x="101.72" y="378.8467">Uninstalled</text><ellipse cx="68.22" cy="16" fill="#222222" rx="10" ry="10" style="stroke:#222222;stroke-width:1;"/><ellipse cx="141.22" cy="482" fill="none" rx="11" ry="11" style="stroke:#222222;stroke-width:1;"/><ellipse cx="141.22" cy="482" fill="#222222" rx="6" ry="6" style="stroke:#222222;stroke-width:1;"/><!--link *start* to Installed--><g class="link" data-entity-1="*start*" data-entity-2="Installed" data-source-line="8" data-uid="lnk3" id="link_*start*_Installed"><path d="M68.22,26.32 C68.22,43.38 68.22,73.98 68.22,96.64" fill="none" id="*start*-to-Installed" style="stroke:#181818;stroke-width:1;"/><polygon fill="#181818" points="68.22,102.64,72.22,93.64,68.22,97.64,64.22,93.64,68.22,102.64" style="stroke:#181818;stroke-width:1;"/><text fill="#000000" font-family="sans-serif" font-size="13" lengthAdjust="spacing" textLength="50.5718" x="69.22" y="69.0669">WI INST</text></g><!--link Installed to Uninstalled--><g class="link" data-entity-1="Installed" data-entity-2="Uninstalled" data-source-line="9" data-uid="lnk4" id="link_Installed_Uninstalled"><path d="M54.94,143.1 C36.07,172.79 6,231.37 27.22,277 C43.1,311.13 72.6322,334.3645 99.5922,350.7445" fill="none" id="Installed-to-Uninstalled" style="stroke:#181818;stroke-width:1;"/><polygon fill="#181818" points="104.72,353.86,99.1053,345.7683,100.4469,351.2638,94.9514,352.6053,104.72,353.86" style="stroke:#181818;stroke-width:1;"/><text fill="#000000" font-family="sans-serif" font-size="13" lengthAdjust="spacing" textLength="69.8115" x="28.22" y="260.5669">WI UNINST</text></g><!--link Installed to Operational--><g class="link" data-entity-1="Installed" data-entity-2="Operational" data-source-line="10" data-uid="lnk5" id="link_Installed_Operational"><path d="M103.41,123 C127.59,123 153.96,123 180.19,123" fill="none" id="Installed-to-Operational" style="stroke:#181818;stroke-width:1;"/><polygon fill="#181818" points="186.19,123,177.19,119,181.19,123,177.19,127,186.19,123" style="stroke:#181818;stroke-width:1;"/><text fill="#000000" font-family="sans-serif" font-size="13" lengthAdjust="spacing" textLength="46.7314" x="121.72" y="116.0669">WI ACT</text></g><!--reverse link Installed to Operational--><g class="link" data-entity-1="Installed" data-entity-2="Operational" data-source-line="12" data-uid="lnk8" id="link_Installed_Operational"><path d="M108.9891,140.2663 C114.7191,142.1863 114.97,141.94 120.72,143 C141.7,146.86 147.64,146.24 168.72,143 C174.44,142.12 180.34,140.82 186.14,139.3" fill="none" id="Installed-backto-Operational" style="stroke:#181818;stroke-width:1;"/><polygon fill="#181818" points="103.3,138.36,110.5628,145.0122,108.0409,139.9486,113.1045,137.4267,103.3,138.36" style="stroke:#181818;stroke-width:1;"/><text fill="#000000" font-family="sans-serif" font-size="13" lengthAdjust="spacing" textLength="46.96" x="121.72" y="139.0669">WI REV</text></g><!--link Operational to Uninstalled--><g class="link" data-entity-1="Operational" data-entity-2="Uninstalled" data-source-line="11" data-uid="lnk6" id="link_Operational_Uninstalled"><path d="M256.5,143.04 C290.58,172.18 345.45,229.44 317.22,277 C289.06,324.44 234.0614,348.2209 191.8614,360.7609" fill="none" id="Operational-to-Uninstalled" style="stroke:#181818;stroke-width:1;"/><polygon fill="#181818" points="186.11,362.47,195.8765,363.7407,190.9029,361.0458,193.5978,356.0721,186.11,362.47" style="stroke:#181818;stroke-width:1;"/><text fill="#000000" font-family="sans-serif" font-size="13" lengthAdjust="spacing" textLength="69.8115" x="325.22" y="260.5669">WI UNINST</text></g><!--link Operational to Operational--><g class="link" data-entity-1="Operational" data-entity-2="Operational" data-source-line="13" data-uid="lnk9" id="link_Operational_Operational"><path d="M278.43,112.21 C297.3,111.53 313.22,115.13 313.22,123 C313.22,130.87 303.2961,134.6861 284.4261,134.0061" fill="none" id="Operational-to-Operational" style="stroke:#181818;stroke-width:1;"/><polygon fill="#181818" points="278.43,133.79,287.2801,138.1115,283.4268,133.9701,287.5682,130.1167,278.43,133.79" style="stroke:#181818;stroke-width:1;"/><text fill="#0000FF" font-family="sans-serif" font-size="13" lengthAdjust="spacing" textLength="100.312" x="319.22" y="127.5669">(Q)EAA ISS/PRE</text></g><!--link Operational to Valid--><g class="link" data-entity-1="Operational" data-entity-2="Valid" data-source-line="14" data-uid="lnk10" id="link_Operational_Valid"><path d="M233.09,143.25 C232.96,160.74 230.4,186.53 218.22,205 C205.85,223.76 189.1837,234.4753 171.8237,242.6053" fill="none" id="Operational-to-Valid" style="stroke:#181818;stroke-width:1;"/><polygon fill="#181818" points="166.39,245.15,176.2369,244.9554,170.918,243.0294,172.844,237.7105,166.39,245.15" style="stroke:#181818;stroke-width:1;"/><text fill="#0000FF" font-family="sans-serif" font-size="13" lengthAdjust="spacing" textLength="46.1538" x="230.22" y="193.5669">PID ISS</text></g><!--reverse link Operational to Valid--><g class="link" data-entity-1="Operational" data-entity-2="Valid" data-source-line="15" data-uid="lnk12" id="link_Operational_Valid"><path d="M180.7571,144.2344 C166.6971,151.8044 157.95,159.31 149.22,173 C137.23,191.82 136.88,218.15 138.44,235.85" fill="none" id="Operational-backto-Valid" style="stroke:#181818;stroke-width:1;"/><polygon fill="#181818" points="186.04,141.39,176.2193,142.1346,181.6375,143.7603,180.0118,149.1785,186.04,141.39" style="stroke:#181818;stroke-width:1;"/><text fill="#0000FF" font-family="sans-serif" font-size="13" lengthAdjust="spacing" textLength="55.1548" x="150.22" y="186.0669">PID EXP/</text><text fill="#000000" font-family="sans-serif" font-size="13" lengthAdjust="spacing" textLength="4.1323" x="205.3748" y="186.0669">&#160;</text><text fill="#0000FF" font-family="sans-serif" font-size="13" lengthAdjust="spacing" textLength="55.9863" x="151.8704" y="201.1997">REV/DEL</text></g><!--reverse link Installed to Valid--><g class="link" data-entity-1="Installed" data-entity-2="Valid" data-source-line="16" data-uid="lnk14" id="link_Installed_Valid"><path d="M60.8702,149.072 C56.7002,166.322 54.94,185.92 65.22,205 C75.94,224.88 98.4,238.15 116.14,245.99" fill="none" id="Installed-backto-Valid" style="stroke:#181818;stroke-width:1;"/><polygon fill="#181818" points="62.28,143.24,56.2773,151.0481,61.1051,148.1,64.0533,152.9279,62.28,143.24" style="stroke:#181818;stroke-width:1;"/><text fill="#000000" font-family="sans-serif" font-size="13" lengthAdjust="spacing" textLength="46.96" x="66.22" y="193.5669">WI REV</text></g><!--link Valid to Valid--><g class="link" data-entity-1="Valid" data-entity-2="Valid" data-source-line="17" data-uid="lnk15" id="link_Valid_Valid"><path d="M166.5,246.19 C184,243.21 201.22,246.48 201.22,256 C201.22,265.52 189.9149,269.7972 172.4149,266.8172" fill="none" id="Valid-to-Valid" style="stroke:#181818;stroke-width:1;"/><polygon fill="#181818" points="166.5,265.81,174.7008,271.2641,171.429,266.6493,176.0438,263.3776,166.5,265.81" style="stroke:#181818;stroke-width:1;"/><text fill="#0000FF" font-family="sans-serif" font-size="13" lengthAdjust="spacing" textLength="99.6328" x="207.22" y="253.0669">(Q)EEA ISS/PRE</text><text fill="#000000" font-family="sans-serif" font-size="13" lengthAdjust="spacing" textLength="4.1323" x="306.8528" y="253.0669">&#160;</text><text fill="#0000FF" font-family="sans-serif" font-size="13" lengthAdjust="spacing" textLength="50.9019" x="233.6516" y="268.1997">PID PRE</text></g><!--link Valid to Uninstalled--><g class="link" data-entity-1="Valid" data-entity-2="Uninstalled" data-source-line="18" data-uid="lnk16" id="link_Valid_Uninstalled"><path d="M141.22,276.16 C141.22,297.65 141.22,326.31 141.22,347.82" fill="none" id="Valid-to-Uninstalled" style="stroke:#181818;stroke-width:1;"/><polygon fill="#181818" points="141.22,353.82,145.22,344.82,141.22,348.82,137.22,344.82,141.22,353.82" style="stroke:#181818;stroke-width:1;"/><text fill="#000000" font-family="sans-serif" font-size="13" lengthAdjust="spacing" textLength="69.8115" x="142.22" y="320.0669">WI UNINST</text></g><!--link Uninstalled to *end*--><g class="link" data-entity-1="Uninstalled" data-entity-2="*end*" data-source-line="19" data-uid="lnk18" id="link_Uninstalled_*end*"><path d="M141.22,394.44 C141.22,417.03 141.22,447.45 141.22,464.96" fill="none" id="Uninstalled-to-*end*" style="stroke:#181818;stroke-width:1;"/><polygon fill="#181818" points="141.22,470.96,145.22,461.96,141.22,465.96,137.22,461.96,141.22,470.96" style="stroke:#181818;stroke-width:1;"/><text fill="#000000" font-family="sans-serif" font-size="13" lengthAdjust="spacing" textLength="4.1323" x="142.22" y="437.0669">&#160;</text></g><!--SRC=[ZP9HQuCm58NV_HKN-h8Dn6pKCKG2CbCGHkVgsWtMFRYQhe5CHLF6zkkNMDl6Q5bzKNA_U-uvrsnOHe5-bU87CbglAbOALkIMLOjKK8Xo-UQSPZ2QJ08NeVRyiQHLgi2KmsWjdqDbaN8cQOJkqE5idhEZJdWxTiUkPG70szKxs5dndTluECc3bmYYQVAi2Ct07jJ46dG-7O8hzhaHajQCDdHmlqFr06SeTt1ErwBdU4OMVTAOxwyANbJU1zzIVF5qIO80eYHnuXdndQQ4JtfhrjfLYADGjNTQTzktjwKnskmZhx6pRuHbhfTb42Sa3oTbXsEtnA1H5PNqeXfZbIjp4Qte_xz7ls2sHEN5aXPgzakzwnliE-eB_m40]--></g></svg>