<svg xmlns="http://www.w3.org/2000/svg" xmlns:xlink="http://www.w3.org/1999/xlink" contentStyleType="text/css" data-diagram-type="ACTIVITY" height="947px" preserveAspectRatio="none" style="width:568px;height:947px;background:#FFFFFF;" version="1.1" viewBox="0 0 568 947" width="568px" zoomAndPan="magnify"><defs/><g><path d="M292.7124,10 L292.7124,56.3984 L272.7124,60.3984 L292.7124,64.3984 L292.7124,110.7969 A0,0 0 0 0 292.7124,110.7969 L510.4517,110.7969 A0,0 0 0 0 510.4517,110.7969 L510.4517,20 L500.4517,10 L292.7124,10 A0,0 0 0 0 292.7124,10 " fill="#FEFFDD" style="stroke:#181818;stroke-width:0.5;"/><path d="M500.4517,10 L500.4517,20 L510.4517,20 L500.4517,10 " fill="#FEFFDD" style="stroke:#181818;stroke-width:0.5;"/><text fill="#000000" font-family="sans-serif" font-size="13" lengthAdjust="spacing" textLength="37.3306" x="313.5564" y="27.0669">When</text><text fill="#000000" font-family="sans-serif" font-size="13" lengthAdjust="spacing" textLength="4.1323" x="350.887" y="27.0669">&#160;</text><text fill="#000000" font-family="sans-serif" font-size="13" lengthAdjust="spacing" textLength="7.9663" x="355.0193" y="27.0669">a</text><text fill="#000000" font-family="sans-serif" font-size="13" lengthAdjust="spacing" textLength="4.1323" x="362.9856" y="27.0669">&#160;</text><text fill="#000000" font-family="sans-serif" font-size="13" lengthAdjust="spacing" textLength="42.1611" x="367.1179" y="27.0669">Digital</text><text fill="#000000" font-family="sans-serif" font-size="13" lengthAdjust="spacing" textLength="4.1323" x="409.2791" y="27.0669">&#160;</text><text fill="#000000" font-family="sans-serif" font-size="13" lengthAdjust="spacing" textLength="67.1963" x="413.4114" y="27.0669">Credential</text><text fill="#000000" font-family="sans-serif" font-size="13" lengthAdjust="spacing" textLength="39.2603" x="314.7751" y="42.1997">needs</text><text fill="#000000" font-family="sans-serif" font-size="13" lengthAdjust="spacing" textLength="4.1323" x="354.0354" y="42.1997">&#160;</text><text fill="#000000" font-family="sans-serif" font-size="13" lengthAdjust="spacing" textLength="13.0508" x="358.1677" y="42.1997">to</text><text fill="#000000" font-family="sans-serif" font-size="13" lengthAdjust="spacing" textLength="4.1323" x="371.2185" y="42.1997">&#160;</text><text fill="#000000" font-family="sans-serif" font-size="13" lengthAdjust="spacing" textLength="16.25" x="375.3508" y="42.1997">be</text><text fill="#000000" font-family="sans-serif" font-size="13" lengthAdjust="spacing" textLength="4.1323" x="391.6008" y="42.1997">&#160;</text><text fill="#000000" font-family="sans-serif" font-size="13" lengthAdjust="spacing" textLength="58.189" x="395.7332" y="42.1997">updated,</text><text fill="#000000" font-family="sans-serif" font-size="13" lengthAdjust="spacing" textLength="4.1323" x="453.9221" y="42.1997">&#160;</text><text fill="#000000" font-family="sans-serif" font-size="13" lengthAdjust="spacing" textLength="21.3345" x="458.0544" y="42.1997">the</text><text fill="#000000" font-family="sans-serif" font-size="13" lengthAdjust="spacing" textLength="67.1963" x="298.7124" y="57.3325">Credential</text><text fill="#000000" font-family="sans-serif" font-size="13" lengthAdjust="spacing" textLength="4.1323" x="365.9087" y="57.3325">&#160;</text><text fill="#000000" font-family="sans-serif" font-size="13" lengthAdjust="spacing" textLength="45.7349" x="370.041" y="57.3325">Issuers</text><text fill="#000000" font-family="sans-serif" font-size="13" lengthAdjust="spacing" textLength="4.1323" x="415.7759" y="57.3325">&#160;</text><text fill="#000000" font-family="sans-serif" font-size="13" lengthAdjust="spacing" textLength="28.0503" x="419.9082" y="57.3325">MAY</text><text fill="#000000" font-family="sans-serif" font-size="13" lengthAdjust="spacing" textLength="4.1323" x="447.9585" y="57.3325">&#160;</text><text fill="#000000" font-family="sans-serif" font-size="13" lengthAdjust="spacing" textLength="31.2622" x="452.0908" y="57.3325">send</text><text fill="#000000" font-family="sans-serif" font-size="13" lengthAdjust="spacing" textLength="4.1323" x="483.353" y="57.3325">&#160;</text><text fill="#000000" font-family="sans-serif" font-size="13" lengthAdjust="spacing" textLength="7.9663" x="487.4854" y="57.3325">a</text><text fill="#000000" font-family="sans-serif" font-size="13" lengthAdjust="spacing" textLength="73.106" x="302.6987" y="72.4653">notification</text><text fill="#000000" font-family="sans-serif" font-size="13" lengthAdjust="spacing" textLength="4.1323" x="375.8047" y="72.4653">&#160;</text><text fill="#000000" font-family="sans-serif" font-size="13" lengthAdjust="spacing" textLength="13.0508" x="379.937" y="72.4653">to</text><text fill="#000000" font-family="sans-serif" font-size="13" lengthAdjust="spacing" textLength="4.1323" x="392.9878" y="72.4653">&#160;</text><text fill="#000000" font-family="sans-serif" font-size="13" lengthAdjust="spacing" textLength="21.3345" x="397.1201" y="72.4653">the</text><text fill="#000000" font-family="sans-serif" font-size="13" lengthAdjust="spacing" textLength="4.1323" x="418.4546" y="72.4653">&#160;</text><text fill="#000000" font-family="sans-serif" font-size="13" lengthAdjust="spacing" textLength="29.6309" x="422.5869" y="72.4653">User</text><text fill="#000000" font-family="sans-serif" font-size="13" lengthAdjust="spacing" textLength="4.1323" x="452.2178" y="72.4653">&#160;</text><text fill="#000000" font-family="sans-serif" font-size="13" lengthAdjust="spacing" textLength="35.1152" x="456.3501" y="72.4653">using</text><text fill="#000000" font-family="sans-serif" font-size="13" lengthAdjust="spacing" textLength="7.9663" x="317.676" y="87.5981">a</text><text fill="#000000" font-family="sans-serif" font-size="13" lengthAdjust="spacing" textLength="4.1323" x="325.6423" y="87.5981">&#160;</text><text fill="#000000" font-family="sans-serif" font-size="13" lengthAdjust="spacing" textLength="66.6694" x="329.7747" y="87.5981">registered</text><text fill="#000000" font-family="sans-serif" font-size="13" lengthAdjust="spacing" textLength="4.1323" x="396.4441" y="87.5981">&#160;</text><text fill="#000000" font-family="sans-serif" font-size="13" lengthAdjust="spacing" textLength="75.9116" x="400.5764" y="87.5981">out-of-band</text><text fill="#000000" font-family="sans-serif" font-size="13" lengthAdjust="spacing" textLength="100.5342" x="316.9619" y="102.731">communication</text><text fill="#000000" font-family="sans-serif" font-size="13" lengthAdjust="spacing" textLength="4.1323" x="417.4961" y="102.731">&#160;</text><text fill="#000000" font-family="sans-serif" font-size="13" lengthAdjust="spacing" textLength="55.5737" x="421.6284" y="102.731">channel.</text><ellipse cx="262.7124" cy="60.3984" fill="#222222" rx="10" ry="10" style="stroke:#222222;stroke-width:1;"/><rect fill="#F1F1F1" height="33.9688" rx="12.5" ry="12.5" style="stroke:#181818;stroke-width:0.5;" width="184.0098" x="170.7075" y="130.7969"/><text fill="#000000" font-family="sans-serif" font-size="12" lengthAdjust="spacing" textLength="27.3516" x="180.7075" y="151.9355">User</text><text fill="#000000" font-family="sans-serif" font-size="12" lengthAdjust="spacing" textLength="3.8145" x="208.0591" y="151.9355">&#160;</text><text fill="#000000" font-family="sans-serif" font-size="12" lengthAdjust="spacing" textLength="36.1992" x="211.8735" y="151.9355">opens</text><text fill="#000000" font-family="sans-serif" font-size="12" lengthAdjust="spacing" textLength="3.8145" x="248.0728" y="151.9355">&#160;</text><text fill="#000000" font-family="sans-serif" font-size="12" lengthAdjust="spacing" textLength="37.9746" x="251.8872" y="151.9355">Wallet</text><text fill="#000000" font-family="sans-serif" font-size="12" lengthAdjust="spacing" textLength="3.8145" x="289.8618" y="151.9355">&#160;</text><text fill="#000000" font-family="sans-serif" font-size="12" lengthAdjust="spacing" textLength="51.041" x="293.6763" y="151.9355">Instance</text><path d="M382.2173,188.6016 L382.2173,204.7344 L362.2173,208.7344 L382.2173,212.7344 L382.2173,228.8672 A0,0 0 0 0 382.2173,228.8672 L556.7798,228.8672 A0,0 0 0 0 556.7798,228.8672 L556.7798,198.6016 L546.7798,188.6016 L382.2173,188.6016 A0,0 0 0 0 382.2173,188.6016 " fill="#FEFFDD" style="stroke:#181818;stroke-width:0.5;"/><path d="M546.7798,188.6016 L546.7798,198.6016 L556.7798,198.6016 L546.7798,188.6016 " fill="#FEFFDD" style="stroke:#181818;stroke-width:0.5;"/><text fill="#000000" font-family="sans-serif" font-size="13" lengthAdjust="spacing" textLength="58.7285" x="388.2173" y="205.6685">Required</text><text fill="#000000" font-family="sans-serif" font-size="13" lengthAdjust="spacing" textLength="4.1323" x="446.9458" y="205.6685">&#160;</text><text fill="#000000" font-family="sans-serif" font-size="13" lengthAdjust="spacing" textLength="35.1089" x="451.0781" y="205.6685">when</text><text fill="#000000" font-family="sans-serif" font-size="13" lengthAdjust="spacing" textLength="4.1323" x="486.187" y="205.6685">&#160;</text><text fill="#000000" font-family="sans-serif" font-size="13" lengthAdjust="spacing" textLength="16.1929" x="490.3193" y="205.6685">no</text><text fill="#000000" font-family="sans-serif" font-size="13" lengthAdjust="spacing" textLength="4.1323" x="506.5122" y="205.6685">&#160;</text><text fill="#000000" font-family="sans-serif" font-size="13" lengthAdjust="spacing" textLength="31.1353" x="510.6445" y="205.6685">valid</text><text fill="#000000" font-family="sans-serif" font-size="13" lengthAdjust="spacing" textLength="41.4248" x="390.8389" y="220.8013">Status</text><text fill="#000000" font-family="sans-serif" font-size="13" lengthAdjust="spacing" textLength="4.1323" x="432.2637" y="220.8013">&#160;</text><text fill="#000000" font-family="sans-serif" font-size="13" lengthAdjust="spacing" textLength="67.4565" x="436.396" y="220.8013">Assertions</text><text fill="#000000" font-family="sans-serif" font-size="13" lengthAdjust="spacing" textLength="4.1323" x="503.8525" y="220.8013">&#160;</text><text fill="#000000" font-family="sans-serif" font-size="13" lengthAdjust="spacing" textLength="31.1733" x="507.9849" y="220.8013">exist</text><rect fill="#F1F1F1" height="47.9375" rx="12.5" ry="12.5" style="stroke:#181818;stroke-width:0.5;" width="199.0098" x="163.2075" y="184.7656"/><text fill="#000000" font-family="sans-serif" font-size="12" lengthAdjust="spacing" textLength="50.5605" x="173.2075" y="205.9043">Retrieve</text><text fill="#000000" font-family="sans-serif" font-size="12" lengthAdjust="spacing" textLength="3.8145" x="223.7681" y="205.9043">&#160;</text><text fill="#000000" font-family="sans-serif" font-size="12" lengthAdjust="spacing" textLength="38.2383" x="227.5825" y="205.9043">Status</text><text fill="#000000" font-family="sans-serif" font-size="12" lengthAdjust="spacing" textLength="3.8145" x="265.8208" y="205.9043">&#160;</text><text fill="#000000" font-family="sans-serif" font-size="12" lengthAdjust="spacing" textLength="62.2676" x="269.6353" y="205.9043">Assertions</text><text fill="#000000" font-family="sans-serif" font-size="12" lengthAdjust="spacing" textLength="3.8145" x="331.9028" y="205.9043">&#160;</text><text fill="#000000" font-family="sans-serif" font-size="12" lengthAdjust="spacing" textLength="16.5" x="335.7173" y="205.9043">for</text><text fill="#000000" font-family="sans-serif" font-size="12" lengthAdjust="spacing" textLength="38.2324" x="207.5493" y="219.873">stored</text><text fill="#000000" font-family="sans-serif" font-size="12" lengthAdjust="spacing" textLength="3.8145" x="245.7817" y="219.873">&#160;</text><text fill="#000000" font-family="sans-serif" font-size="12" lengthAdjust="spacing" textLength="68.2793" x="249.5962" y="219.873">Credentials</text><polygon fill="#F1F1F1" points="205.2068,414.0703,320.218,414.0703,332.218,426.0703,320.218,438.0703,205.2068,438.0703,193.2068,426.0703,205.2068,414.0703" style="stroke:#181818;stroke-width:0.5;"/><text fill="#000000" font-family="sans-serif" font-size="11" lengthAdjust="spacing" textLength="42.2759" x="205.2068" y="429.8784">Refresh</text><text fill="#000000" font-family="sans-serif" font-size="11" lengthAdjust="spacing" textLength="3.4966" x="247.4827" y="429.8784">&#160;</text><text fill="#000000" font-family="sans-serif" font-size="11" lengthAdjust="spacing" textLength="33.5586" x="250.9792" y="429.8784">Token</text><text fill="#000000" font-family="sans-serif" font-size="11" lengthAdjust="spacing" textLength="3.4966" x="284.5378" y="429.8784">&#160;</text><text fill="#000000" font-family="sans-serif" font-size="11" lengthAdjust="spacing" textLength="32.1836" x="288.0344" y="429.8784">valid?</text><text fill="#666666" font-family="sans-serif" font-size="12" lengthAdjust="spacing" textLength="20.7363" x="172.4705" y="423.2402">yes</text><text fill="#666666" font-family="sans-serif" font-size="12" lengthAdjust="spacing" textLength="14.9473" x="332.218" y="423.2402">no</text><rect fill="#F1F1F1" height="33.9688" rx="12.5" ry="12.5" style="stroke:#181818;stroke-width:0.5;" width="170.8789" x="11" y="448.0703"/><text fill="#000000" font-family="sans-serif" font-size="12" lengthAdjust="spacing" textLength="29.3145" x="21" y="469.209">Start</text><text fill="#000000" font-family="sans-serif" font-size="12" lengthAdjust="spacing" textLength="3.8145" x="50.3145" y="469.209">&#160;</text><text fill="#000000" font-family="sans-serif" font-size="12" lengthAdjust="spacing" textLength="46.1191" x="54.1289" y="469.209">Refresh</text><text fill="#000000" font-family="sans-serif" font-size="12" lengthAdjust="spacing" textLength="3.8145" x="100.248" y="469.209">&#160;</text><text fill="#000000" font-family="sans-serif" font-size="12" lengthAdjust="spacing" textLength="36.6094" x="104.0625" y="469.209">Token</text><text fill="#000000" font-family="sans-serif" font-size="12" lengthAdjust="spacing" textLength="3.8145" x="140.6719" y="469.209">&#160;</text><text fill="#000000" font-family="sans-serif" font-size="12" lengthAdjust="spacing" textLength="27.3926" x="144.4863" y="469.209">Flow</text><path d="M201.8789,448.0703 L201.8789,488.3359 A0,0 0 0 0 201.8789,488.3359 L397.9854,488.3359 A0,0 0 0 0 397.9854,488.3359 L397.9854,472.2031 L417.9854,468.2031 L397.9854,464.2031 L397.9854,458.0703 L387.9854,448.0703 L201.8789,448.0703 A0,0 0 0 0 201.8789,448.0703 " fill="#FEFFDD" style="stroke:#181818;stroke-width:0.5;"/><path d="M387.9854,448.0703 L387.9854,458.0703 L397.9854,458.0703 L387.9854,448.0703 " fill="#FEFFDD" style="stroke:#181818;stroke-width:0.5;"/><text fill="#000000" font-family="sans-serif" font-size="13" lengthAdjust="spacing" textLength="31.7573" x="207.8789" y="465.1372">Start</text><text fill="#000000" font-family="sans-serif" font-size="13" lengthAdjust="spacing" textLength="4.1323" x="239.6362" y="465.1372">&#160;</text><text fill="#000000" font-family="sans-serif" font-size="13" lengthAdjust="spacing" textLength="16.2056" x="243.7686" y="465.1372">an</text><text fill="#000000" font-family="sans-serif" font-size="13" lengthAdjust="spacing" textLength="4.1323" x="259.9741" y="465.1372">&#160;</text><text fill="#000000" font-family="sans-serif" font-size="13" lengthAdjust="spacing" textLength="26.8696" x="264.1064" y="465.1372">new</text><text fill="#000000" font-family="sans-serif" font-size="13" lengthAdjust="spacing" textLength="4.1323" x="290.9761" y="465.1372">&#160;</text><text fill="#000000" font-family="sans-serif" font-size="13" lengthAdjust="spacing" textLength="56.9702" x="295.1084" y="465.1372">Issuance</text><text fill="#000000" font-family="sans-serif" font-size="13" lengthAdjust="spacing" textLength="4.1323" x="352.0786" y="465.1372">&#160;</text><text fill="#000000" font-family="sans-serif" font-size="13" lengthAdjust="spacing" textLength="26.7744" x="356.2109" y="465.1372">flow</text><text fill="#000000" font-family="sans-serif" font-size="13" lengthAdjust="spacing" textLength="27.5806" x="209.8054" y="480.27">with</text><text fill="#000000" font-family="sans-serif" font-size="13" lengthAdjust="spacing" textLength="4.1323" x="237.386" y="480.27">&#160;</text><text fill="#000000" font-family="sans-serif" font-size="13" lengthAdjust="spacing" textLength="39.9775" x="241.5183" y="480.27">User's</text><text fill="#000000" font-family="sans-serif" font-size="13" lengthAdjust="spacing" textLength="4.1323" x="281.4958" y="480.27">&#160;</text><text fill="#000000" font-family="sans-serif" font-size="13" lengthAdjust="spacing" textLength="95.4307" x="285.6282" y="480.27">Authentication</text><ellipse cx="428.9854" cy="468.2031" fill="#FFFFFF" fill-opacity="0.00000" rx="11" ry="11" style="stroke:#222222;stroke-width:1;"/><ellipse cx="428.9854" cy="468.2031" fill="#222222" rx="6" ry="6" style="stroke:#222222;stroke-width:1;"/><polygon fill="#F1F1F1" points="207.4197,365.0859,318.0051,365.0859,330.0051,377.0859,318.0051,389.0859,207.4197,389.0859,195.4197,377.0859,207.4197,365.0859" style="stroke:#181818;stroke-width:0.5;"/><text fill="#666666" font-family="sans-serif" font-size="12" lengthAdjust="spacing" textLength="14.9473" x="266.7124" y="400.2246">no</text><text fill="#000000" font-family="sans-serif" font-size="11" lengthAdjust="spacing" textLength="37.8501" x="207.4197" y="380.894">Access</text><text fill="#000000" font-family="sans-serif" font-size="11" lengthAdjust="spacing" textLength="3.4966" x="245.2698" y="380.894">&#160;</text><text fill="#000000" font-family="sans-serif" font-size="11" lengthAdjust="spacing" textLength="33.5586" x="248.7664" y="380.894">Token</text><text fill="#000000" font-family="sans-serif" font-size="11" lengthAdjust="spacing" textLength="3.4966" x="282.325" y="380.894">&#160;</text><text fill="#000000" font-family="sans-serif" font-size="11" lengthAdjust="spacing" textLength="32.1836" x="285.8215" y="380.894">valid?</text><text fill="#666666" font-family="sans-serif" font-size="12" lengthAdjust="spacing" textLength="20.7363" x="330.0051" y="374.2559">yes</text><polygon fill="#F1F1F1" points="262.7124,508.3359,274.7124,520.3359,262.7124,532.3359,250.7124,520.3359,262.7124,508.3359" style="stroke:#181818;stroke-width:0.5;"/><rect fill="#F1F1F1" height="61.9063" rx="12.5" ry="12.5" style="stroke:#181818;stroke-width:0.5;" width="178.6777" x="173.3735" y="552.3359"/><text fill="#000000" font-family="sans-serif" font-size="12" lengthAdjust="spacing" textLength="22.418" x="183.3735" y="573.4746">Use</text><text fill="#000000" font-family="sans-serif" font-size="12" lengthAdjust="spacing" textLength="3.8145" x="205.7915" y="573.4746">&#160;</text><text fill="#000000" font-family="sans-serif" font-size="12" lengthAdjust="spacing" textLength="31.0547" x="209.606" y="573.4746">DPoP</text><text fill="#000000" font-family="sans-serif" font-size="12" lengthAdjust="spacing" textLength="3.8145" x="240.6606" y="573.4746">&#160;</text><text fill="#000000" font-family="sans-serif" font-size="12" lengthAdjust="spacing" textLength="41.291" x="244.4751" y="573.4746">Access</text><text fill="#000000" font-family="sans-serif" font-size="12" lengthAdjust="spacing" textLength="3.8145" x="285.7661" y="573.4746">&#160;</text><text fill="#000000" font-family="sans-serif" font-size="12" lengthAdjust="spacing" textLength="36.6094" x="289.5806" y="573.4746">Token</text><text fill="#000000" font-family="sans-serif" font-size="12" lengthAdjust="spacing" textLength="3.8145" x="326.1899" y="573.4746">&#160;</text><text fill="#000000" font-family="sans-serif" font-size="12" lengthAdjust="spacing" textLength="12.0469" x="330.0044" y="573.4746">to</text><text fill="#000000" font-family="sans-serif" font-size="12" lengthAdjust="spacing" textLength="47.1563" x="239.1343" y="587.4434">retrieve</text><text fill="#000000" font-family="sans-serif" font-size="12" lengthAdjust="spacing" textLength="24.8027" x="196.0239" y="601.4121">new</text><text fill="#000000" font-family="sans-serif" font-size="12" lengthAdjust="spacing" textLength="3.8145" x="220.8267" y="601.4121">&#160;</text><text fill="#000000" font-family="sans-serif" font-size="12" lengthAdjust="spacing" textLength="38.918" x="224.6411" y="601.4121">Digital</text><text fill="#000000" font-family="sans-serif" font-size="12" lengthAdjust="spacing" textLength="3.8145" x="263.5591" y="601.4121">&#160;</text><text fill="#000000" font-family="sans-serif" font-size="12" lengthAdjust="spacing" textLength="62.0273" x="267.3735" y="601.4121">Credential</text><polygon fill="#F1F1F1" points="175.2039,634.2422,350.2209,634.2422,362.2209,647.0469,350.2209,659.8516,175.2039,659.8516,163.2039,647.0469,175.2039,634.2422" style="stroke:#181818;stroke-width:0.5;"/><text fill="#000000" font-family="sans-serif" font-size="11" lengthAdjust="spacing" textLength="162.3037" x="175.2039" y="644.4526">credential_status_detail.state</text><text fill="#000000" font-family="sans-serif" font-size="11" lengthAdjust="spacing" textLength="3.4966" x="337.5076" y="644.4526">&#160;</text><text fill="#000000" font-family="sans-serif" font-size="11" lengthAdjust="spacing" textLength="9.2168" x="341.0042" y="644.4526">=</text><text fill="#000000" font-family="sans-serif" font-size="11" lengthAdjust="spacing" textLength="27.9727" x="186.0884" y="657.2573">&#160;&#160;&#160;&#160;&#160;&#160;&#160;&#160;</text><text fill="#000000" font-family="sans-serif" font-size="11" lengthAdjust="spacing" textLength="125.2754" x="214.061" y="657.2573">ATTRIBUTE_UPDATED?</text><text fill="#666666" font-family="sans-serif" font-size="12" lengthAdjust="spacing" textLength="20.7363" x="142.4675" y="644.2168">yes</text><text fill="#666666" font-family="sans-serif" font-size="12" lengthAdjust="spacing" textLength="14.9473" x="362.2209" y="644.2168">no</text><rect fill="#F1F1F1" height="33.9688" rx="12.5" ry="12.5" style="stroke:#181818;stroke-width:0.5;" width="184.6367" x="52.2007" y="669.8516"/><text fill="#000000" font-family="sans-serif" font-size="12" lengthAdjust="spacing" textLength="49.2832" x="62.2007" y="690.9902">Request</text><text fill="#000000" font-family="sans-serif" font-size="12" lengthAdjust="spacing" textLength="3.8145" x="111.4839" y="690.9902">&#160;</text><text fill="#000000" font-family="sans-serif" font-size="12" lengthAdjust="spacing" textLength="27.3516" x="115.2983" y="690.9902">User</text><text fill="#000000" font-family="sans-serif" font-size="12" lengthAdjust="spacing" textLength="3.8145" x="142.6499" y="690.9902">&#160;</text><text fill="#000000" font-family="sans-serif" font-size="12" lengthAdjust="spacing" textLength="80.373" x="146.4644" y="690.9902">Authorization</text><rect fill="#F1F1F1" height="33.9688" rx="12.5" ry="12.5" style="stroke:#181818;stroke-width:0.5;" width="146.4395" x="71.2993" y="772.8047"/><text fill="#000000" font-family="sans-serif" font-size="12" lengthAdjust="spacing" textLength="31.9805" x="81.2993" y="793.9434">Store</text><text fill="#000000" font-family="sans-serif" font-size="12" lengthAdjust="spacing" textLength="3.8145" x="113.2798" y="793.9434">&#160;</text><text fill="#000000" font-family="sans-serif" font-size="12" lengthAdjust="spacing" textLength="24.8027" x="117.0942" y="793.9434">new</text><text fill="#000000" font-family="sans-serif" font-size="12" lengthAdjust="spacing" textLength="3.8145" x="141.897" y="793.9434">&#160;</text><text fill="#000000" font-family="sans-serif" font-size="12" lengthAdjust="spacing" textLength="62.0273" x="145.7114" y="793.9434">Credential</text><polygon fill="#F1F1F1" points="98.1343,723.8203,190.9038,723.8203,202.9038,735.8203,190.9038,747.8203,98.1343,747.8203,86.1343,735.8203,98.1343,723.8203" style="stroke:#181818;stroke-width:0.5;"/><text fill="#666666" font-family="sans-serif" font-size="12" lengthAdjust="spacing" textLength="20.7363" x="148.519" y="758.959">yes</text><text fill="#000000" font-family="sans-serif" font-size="11" lengthAdjust="spacing" textLength="25.0723" x="98.1343" y="739.6284">User</text><text fill="#000000" font-family="sans-serif" font-size="11" lengthAdjust="spacing" textLength="3.4966" x="123.2065" y="739.6284">&#160;</text><text fill="#000000" font-family="sans-serif" font-size="11" lengthAdjust="spacing" textLength="64.2007" x="126.7031" y="739.6284">Authorizes?</text><text fill="#666666" font-family="sans-serif" font-size="12" lengthAdjust="spacing" textLength="14.9473" x="202.9038" y="732.9902">no</text><ellipse cx="239.8511" cy="735.8203" fill="#FFFFFF" fill-opacity="0.00000" rx="11" ry="11" style="stroke:#222222;stroke-width:1;"/><ellipse cx="239.8511" cy="735.8203" fill="#222222" rx="6" ry="6" style="stroke:#222222;stroke-width:1;"/><rect fill="#F1F1F1" height="33.9688" rx="12.5" ry="12.5" style="stroke:#181818;stroke-width:0.5;" width="146.4395" x="307.686" y="669.8516"/><text fill="#000000" font-family="sans-serif" font-size="12" lengthAdjust="spacing" textLength="31.9805" x="317.686" y="690.9902">Store</text><text fill="#000000" font-family="sans-serif" font-size="12" lengthAdjust="spacing" textLength="3.8145" x="349.6665" y="690.9902">&#160;</text><text fill="#000000" font-family="sans-serif" font-size="12" lengthAdjust="spacing" textLength="24.8027" x="353.481" y="690.9902">new</text><text fill="#000000" font-family="sans-serif" font-size="12" lengthAdjust="spacing" textLength="3.8145" x="378.2837" y="690.9902">&#160;</text><text fill="#000000" font-family="sans-serif" font-size="12" lengthAdjust="spacing" textLength="62.0273" x="382.0981" y="690.9902">Credential</text><polygon fill="#F1F1F1" points="262.7124,816.7734,274.7124,828.7734,262.7124,840.7734,250.7124,828.7734,262.7124,816.7734" style="stroke:#181818;stroke-width:0.5;"/><rect fill="#F1F1F1" height="33.9688" rx="12.5" ry="12.5" style="stroke:#181818;stroke-width:0.5;" width="180.6523" x="172.3862" y="860.7734"/><text fill="#000000" font-family="sans-serif" font-size="12" lengthAdjust="spacing" textLength="39.4277" x="182.3862" y="881.9121">Delete</text><text fill="#000000" font-family="sans-serif" font-size="12" lengthAdjust="spacing" textLength="3.8145" x="221.814" y="881.9121">&#160;</text><text fill="#000000" font-family="sans-serif" font-size="12" lengthAdjust="spacing" textLength="51.5684" x="225.6284" y="881.9121">previous</text><text fill="#000000" font-family="sans-serif" font-size="12" lengthAdjust="spacing" textLength="3.8145" x="277.1968" y="881.9121">&#160;</text><text fill="#000000" font-family="sans-serif" font-size="12" lengthAdjust="spacing" textLength="62.0273" x="281.0112" y="881.9121">Credential</text><polygon fill="#F1F1F1" points="174.7983,301.6875,350.6265,301.6875,362.6265,320.8945,350.6265,340.1016,174.7983,340.1016,162.7983,320.8945,174.7983,301.6875" style="stroke:#181818;stroke-width:0.5;"/><text fill="#666666" font-family="sans-serif" font-size="12" lengthAdjust="spacing" textLength="20.7363" x="266.7124" y="351.2402">yes</text><text fill="#000000" font-family="sans-serif" font-size="11" lengthAdjust="spacing" textLength="162.3037" x="174.7983" y="311.8979">credential_status_detail.state</text><text fill="#000000" font-family="sans-serif" font-size="11" lengthAdjust="spacing" textLength="3.4966" x="337.1021" y="311.8979">&#160;</text><text fill="#000000" font-family="sans-serif" font-size="11" lengthAdjust="spacing" textLength="10.0278" x="340.5986" y="311.8979">in</text><text fill="#000000" font-family="sans-serif" font-size="11" lengthAdjust="spacing" textLength="13.9863" x="225.4155" y="324.7026">&#160;&#160;&#160;&#160;</text><text fill="#000000" font-family="sans-serif" font-size="11" lengthAdjust="spacing" textLength="60.6074" x="239.4019" y="324.7026">[UPDATED,</text><text fill="#000000" font-family="sans-serif" font-size="11" lengthAdjust="spacing" textLength="129.5669" x="197.929" y="337.5073">ATTRIBUTE_UPDATED]?</text><text fill="#666666" font-family="sans-serif" font-size="12" lengthAdjust="spacing" textLength="14.9473" x="362.6265" y="318.0645">no</text><ellipse cx="399.5737" cy="320.8945" fill="#FFFFFF" fill-opacity="0.00000" rx="11" ry="11" style="stroke:#222222;stroke-width:1;"/><ellipse cx="399.5737" cy="320.8945" fill="#222222" rx="6" ry="6" style="stroke:#222222;stroke-width:1;"/><polygon fill="#F1F1F1" points="181.8022,252.7031,343.6226,252.7031,355.6226,264.7031,343.6226,276.7031,181.8022,276.7031,169.8022,264.7031,181.8022,252.7031" style="stroke:#181818;stroke-width:0.5;"/><text fill="#666666" font-family="sans-serif" font-size="12" lengthAdjust="spacing" textLength="20.7363" x="266.7124" y="287.8418">yes</text><text fill="#000000" font-family="sans-serif" font-size="11" lengthAdjust="spacing" textLength="56.8584" x="181.8022" y="268.5112">Credential</text><text fill="#000000" font-family="sans-serif" font-size="11" lengthAdjust="spacing" textLength="3.4966" x="238.6606" y="268.5112">&#160;</text><text fill="#000000" font-family="sans-serif" font-size="11" lengthAdjust="spacing" textLength="35.0518" x="242.1572" y="268.5112">Status</text><text fill="#000000" font-family="sans-serif" font-size="11" lengthAdjust="spacing" textLength="3.4966" x="277.209" y="268.5112">&#160;</text><text fill="#000000" font-family="sans-serif" font-size="11" lengthAdjust="spacing" textLength="9.2168" x="280.7056" y="268.5112">=</text><text fill="#000000" font-family="sans-serif" font-size="11" lengthAdjust="spacing" textLength="3.4966" x="289.9224" y="268.5112">&#160;</text><text fill="#000000" font-family="sans-serif" font-size="11" lengthAdjust="spacing" textLength="50.2036" x="293.4189" y="268.5112">INVALID?</text><text fill="#666666" font-family="sans-serif" font-size="12" lengthAdjust="spacing" textLength="14.9473" x="355.6226" y="261.873">no</text><ellipse cx="392.5698" cy="264.7031" fill="#FFFFFF" fill-opacity="0.00000" rx="11" ry="11" style="stroke:#222222;stroke-width:1;"/><ellipse cx="392.5698" cy="264.7031" fill="#222222" rx="6" ry="6" style="stroke:#222222;stroke-width:1;"/><ellipse cx="262.7124" cy="925.7422" fill="#FFFFFF" fill-opacity="0.00000" rx="11" ry="11" style="stroke:#222222;stroke-width:1;"/><ellipse cx="262.7124" cy="925.7422" fill="#222222" rx="6" ry="6" style="stroke:#222222;stroke-width:1;"/><line style="stroke:#666666;stroke-width:1;" x1="262.7124" x2="262.7124" y1="70.3984" y2="130.7969"/><polygon fill="#666666" points="258.7124,120.7969,262.7124,130.7969,266.7124,120.7969,262.7124,124.7969" style="stroke:#666666;stroke-width:1;"/><line style="stroke:#666666;stroke-width:1;" x1="262.7124" x2="262.7124" y1="164.7656" y2="184.7656"/><polygon fill="#666666" points="258.7124,174.7656,262.7124,184.7656,266.7124,174.7656,262.7124,178.7656" style="stroke:#666666;stroke-width:1;"/><line style="stroke:#666666;stroke-width:1;" x1="193.2068" x2="96.4395" y1="426.0703" y2="426.0703"/><line style="stroke:#666666;stroke-width:1;" x1="96.4395" x2="96.4395" y1="426.0703" y2="448.0703"/><polygon fill="#666666" points="92.4395,438.0703,96.4395,448.0703,100.4395,438.0703,96.4395,442.0703" style="stroke:#666666;stroke-width:1;"/><line style="stroke:#666666;stroke-width:1;" x1="332.218" x2="428.9854" y1="426.0703" y2="426.0703"/><line style="stroke:#666666;stroke-width:1;" x1="428.9854" x2="428.9854" y1="426.0703" y2="457.2031"/><polygon fill="#666666" points="424.9854,447.2031,428.9854,457.2031,432.9854,447.2031,428.9854,451.2031" style="stroke:#666666;stroke-width:1;"/><line style="stroke:#666666;stroke-width:1;" x1="96.4395" x2="96.4395" y1="482.0391" y2="493.3359"/><line style="stroke:#666666;stroke-width:1;" x1="96.4395" x2="262.7124" y1="493.3359" y2="493.3359"/><line style="stroke:#666666;stroke-width:1;" x1="262.7124" x2="262.7124" y1="493.3359" y2="508.3359"/><polygon fill="#666666" points="258.7124,498.3359,262.7124,508.3359,266.7124,498.3359,262.7124,502.3359" style="stroke:#666666;stroke-width:1;"/><line style="stroke:#666666;stroke-width:1;" x1="262.7124" x2="262.7124" y1="389.0859" y2="414.0703"/><polygon fill="#666666" points="258.7124,404.0703,262.7124,414.0703,266.7124,404.0703,262.7124,408.0703" style="stroke:#666666;stroke-width:1;"/><line style="stroke:#666666;stroke-width:1;" x1="330.0051" x2="459.9854" y1="377.0859" y2="377.0859"/><polygon fill="#666666" points="455.9854,444.2031,459.9854,454.2031,463.9854,444.2031,459.9854,448.2031" style="stroke:#666666;stroke-width:1;"/><line style="stroke:#666666;stroke-width:1;" x1="459.9854" x2="459.9854" y1="377.0859" y2="520.3359"/><line style="stroke:#666666;stroke-width:1;" x1="459.9854" x2="274.7124" y1="520.3359" y2="520.3359"/><polygon fill="#666666" points="284.7124,516.3359,274.7124,520.3359,284.7124,524.3359,280.7124,520.3359" style="stroke:#666666;stroke-width:1;"/><line style="stroke:#666666;stroke-width:1;" x1="262.7124" x2="262.7124" y1="532.3359" y2="552.3359"/><polygon fill="#666666" points="258.7124,542.3359,262.7124,552.3359,266.7124,542.3359,262.7124,546.3359" style="stroke:#666666;stroke-width:1;"/><line style="stroke:#666666;stroke-width:1;" x1="144.519" x2="144.519" y1="747.8203" y2="772.8047"/><polygon fill="#666666" points="140.519,762.8047,144.519,772.8047,148.519,762.8047,144.519,766.8047" style="stroke:#666666;stroke-width:1;"/><line style="stroke:#666666;stroke-width:1;" x1="202.9038" x2="228.8511" y1="735.8203" y2="735.8203"/><polygon fill="#666666" points="218.8511,731.8203,228.8511,735.8203,218.8511,739.8203,222.8511,735.8203" style="stroke:#666666;stroke-width:1;"/><line style="stroke:#666666;stroke-width:1;" x1="144.519" x2="144.519" y1="806.7734" y2="828.7734"/><line style="stroke:#666666;stroke-width:1;" x1="144.519" x2="250.7124" y1="828.7734" y2="828.7734"/><polygon fill="#666666" points="240.7124,824.7734,250.7124,828.7734,240.7124,832.7734,244.7124,828.7734" style="stroke:#666666;stroke-width:1;"/><line style="stroke:#666666;stroke-width:1;" x1="144.519" x2="144.519" y1="703.8203" y2="723.8203"/><polygon fill="#666666" points="140.519,713.8203,144.519,723.8203,148.519,713.8203,144.519,717.8203" style="stroke:#666666;stroke-width:1;"/><line style="stroke:#666666;stroke-width:1;" x1="163.2039" x2="144.519" y1="647.0469" y2="647.0469"/><line style="stroke:#666666;stroke-width:1;" x1="144.519" x2="144.519" y1="647.0469" y2="669.8516"/><polygon fill="#666666" points="140.519,659.8516,144.519,669.8516,148.519,659.8516,144.519,663.8516" style="stroke:#666666;stroke-width:1;"/><line style="stroke:#666666;stroke-width:1;" x1="362.2209" x2="380.9058" y1="647.0469" y2="647.0469"/><line style="stroke:#666666;stroke-width:1;" x1="380.9058" x2="380.9058" y1="647.0469" y2="669.8516"/><polygon fill="#666666" points="376.9058,659.8516,380.9058,669.8516,384.9058,659.8516,380.9058,663.8516" style="stroke:#666666;stroke-width:1;"/><line style="stroke:#666666;stroke-width:1;" x1="380.9058" x2="380.9058" y1="703.8203" y2="828.7734"/><line style="stroke:#666666;stroke-width:1;" x1="380.9058" x2="274.7124" y1="828.7734" y2="828.7734"/><polygon fill="#666666" points="284.7124,824.7734,274.7124,828.7734,284.7124,832.7734,280.7124,828.7734" style="stroke:#666666;stroke-width:1;"/><line style="stroke:#666666;stroke-width:1;" x1="262.7124" x2="262.7124" y1="614.2422" y2="634.2422"/><polygon fill="#666666" points="258.7124,624.2422,262.7124,634.2422,266.7124,624.2422,262.7124,628.2422" style="stroke:#666666;stroke-width:1;"/><line style="stroke:#666666;stroke-width:1;" x1="262.7124" x2="262.7124" y1="840.7734" y2="860.7734"/><polygon fill="#666666" points="258.7124,850.7734,262.7124,860.7734,266.7124,850.7734,262.7124,854.7734" style="stroke:#666666;stroke-width:1;"/><line style="stroke:#666666;stroke-width:1;" x1="262.7124" x2="262.7124" y1="340.1016" y2="365.0859"/><polygon fill="#666666" points="258.7124,355.0859,262.7124,365.0859,266.7124,355.0859,262.7124,359.0859" style="stroke:#666666;stroke-width:1;"/><line style="stroke:#666666;stroke-width:1;" x1="362.6265" x2="388.5737" y1="320.8945" y2="320.8945"/><polygon fill="#666666" points="378.5737,316.8945,388.5737,320.8945,378.5737,324.8945,382.5737,320.8945" style="stroke:#666666;stroke-width:1;"/><line style="stroke:#666666;stroke-width:1;" x1="262.7124" x2="262.7124" y1="894.7422" y2="914.7422"/><polygon fill="#666666" points="258.7124,904.7422,262.7124,914.7422,266.7124,904.7422,262.7124,908.7422" style="stroke:#666666;stroke-width:1;"/><line style="stroke:#666666;stroke-width:1;" x1="262.7124" x2="262.7124" y1="276.7031" y2="301.6875"/><polygon fill="#666666" points="258.7124,291.6875,262.7124,301.6875,266.7124,291.6875,262.7124,295.6875" style="stroke:#666666;stroke-width:1;"/><line style="stroke:#666666;stroke-width:1;" x1="355.6226" x2="381.5698" y1="264.7031" y2="264.7031"/><polygon fill="#666666" points="371.5698,260.7031,381.5698,264.7031,371.5698,268.7031,375.5698,264.7031" style="stroke:#666666;stroke-width:1;"/><line style="stroke:#666666;stroke-width:1;" x1="262.7124" x2="262.7124" y1="232.7031" y2="252.7031"/><polygon fill="#666666" points="258.7124,242.7031,262.7124,252.7031,266.7124,242.7031,262.7124,246.7031" style="stroke:#666666;stroke-width:1;"/><!--SRC=[ZLHDRzf04BtxLqnF9LA0Iq-Wg7BZL49AAaIWKLLLQB77U5Mpw-xCXgQ_lhC630OtwPxMks_UVBotVgTDMleCeM2kQ3GSEhKTh3KNVkK9NMeDe-51QZV3gbI6_QRi4sUbNWrlF_IduMZnS3_SA69qShHCNepQw7HG2JAIHQmSHyOoWjFhWgEd0WqeIBHaKINSEimaWvQjGSm8sC8AmLUPOiokWGiynKo8F3g2X_WR49fCc8HRvpfLhAq9qI5Y8RM39stM0d2urg4ypC1wxjkylr8IAJrjl3a4feKo1ij154X3kL4qgbbiXORWIPKbCaoCz6DI74jdencoq_YCyCYAFK5CWWza1BbrqhaDAO_5q_Xq3ZFyvNK0RCD0Z8LdLUeikkJ2trBzILawXzx9HFO1Dp3vyZM-doGVhy843FHUaAuYa1K2qYPWINN0CaDMkXo4BmHjQkJtnJI9vtV9DSJp-MpoQJ6_M-wFVbpo7hZZD4KYcDkVSbrtqOqDg_d0aX1wnhQl0zqCSuTK_1yVmEWnE0pQKPzBknstWDtv04Ibwkoe5kdi37PPb2Y5szg5mGQGIvvpv5PUJst0zoAZ3tNpmMHdq4RJiqETHzrVpIPO4vAfdK9h-E9-jpTb0mtrNZwsSKl1DznnSqnyuOj_IpCA3aVYtMCCax1E_wa7CUwqnA6Q5XxfDV5h-UMPrLrsTVUQz1tYdms_C_2DZ3kAer89oey3eNBuhAqyrAwOg3jRKzwEimseB_V9mlul]--></g></svg>