<svg xmlns="http://www.w3.org/2000/svg" xmlns:xlink="http://www.w3.org/1999/xlink" contentStyleType="text/css" data-diagram-type="ACTIVITY" height="827px" preserveAspectRatio="none" style="width:569px;height:827px;background:#FFFFFF;" version="1.1" viewBox="0 0 569 827" width="569px" zoomAndPan="magnify"><defs/><g><path d="M292.7124,10 L292.7124,56.3984 L272.7124,60.3984 L292.7124,64.3984 L292.7124,110.7969 A0,0 0 0 0 292.7124,110.7969 L510.4517,110.7969 A0,0 0 0 0 510.4517,110.7969 L510.4517,20 L500.4517,10 L292.7124,10 A0,0 0 0 0 292.7124,10" fill="#FEFFDD" style="stroke:#181818;stroke-width:0.5;"/><path d="M500.4517,10 L500.4517,20 L510.4517,20 L500.4517,10" fill="#FEFFDD" style="stroke:#181818;stroke-width:0.5;"/><text fill="#000000" font-family="sans-serif" font-size="13" lengthAdjust="spacing" textLength="37.3306" x="313.5564" y="27.0669">When</text><text fill="#000000" font-family="sans-serif" font-size="13" lengthAdjust="spacing" textLength="4.1323" x="350.887" y="27.0669">&#160;</text><text fill="#000000" font-family="sans-serif" font-size="13" lengthAdjust="spacing" textLength="7.9663" x="355.0193" y="27.0669">a</text><text fill="#000000" font-family="sans-serif" font-size="13" lengthAdjust="spacing" textLength="4.1323" x="362.9856" y="27.0669">&#160;</text><text fill="#000000" font-family="sans-serif" font-size="13" lengthAdjust="spacing" textLength="42.1611" x="367.1179" y="27.0669">Digital</text><text fill="#000000" font-family="sans-serif" font-size="13" lengthAdjust="spacing" textLength="4.1323" x="409.2791" y="27.0669">&#160;</text><text fill="#000000" font-family="sans-serif" font-size="13" lengthAdjust="spacing" textLength="67.1963" x="413.4114" y="27.0669">Credential</text><text fill="#000000" font-family="sans-serif" font-size="13" lengthAdjust="spacing" textLength="39.2603" x="314.7751" y="42.1997">needs</text><text fill="#000000" font-family="sans-serif" font-size="13" lengthAdjust="spacing" textLength="4.1323" x="354.0354" y="42.1997">&#160;</text><text fill="#000000" font-family="sans-serif" font-size="13" lengthAdjust="spacing" textLength="13.0508" x="358.1677" y="42.1997">to</text><text fill="#000000" font-family="sans-serif" font-size="13" lengthAdjust="spacing" textLength="4.1323" x="371.2185" y="42.1997">&#160;</text><text fill="#000000" font-family="sans-serif" font-size="13" lengthAdjust="spacing" textLength="16.25" x="375.3508" y="42.1997">be</text><text fill="#000000" font-family="sans-serif" font-size="13" lengthAdjust="spacing" textLength="4.1323" x="391.6008" y="42.1997">&#160;</text><text fill="#000000" font-family="sans-serif" font-size="13" lengthAdjust="spacing" textLength="58.189" x="395.7332" y="42.1997">updated,</text><text fill="#000000" font-family="sans-serif" font-size="13" lengthAdjust="spacing" textLength="4.1323" x="453.9221" y="42.1997">&#160;</text><text fill="#000000" font-family="sans-serif" font-size="13" lengthAdjust="spacing" textLength="21.3345" x="458.0544" y="42.1997">the</text><text fill="#000000" font-family="sans-serif" font-size="13" lengthAdjust="spacing" textLength="67.1963" x="298.7124" y="57.3325">Credential</text><text fill="#000000" font-family="sans-serif" font-size="13" lengthAdjust="spacing" textLength="4.1323" x="365.9087" y="57.3325">&#160;</text><text fill="#000000" font-family="sans-serif" font-size="13" lengthAdjust="spacing" textLength="45.7349" x="370.041" y="57.3325">Issuers</text><text fill="#000000" font-family="sans-serif" font-size="13" lengthAdjust="spacing" textLength="4.1323" x="415.7759" y="57.3325">&#160;</text><text fill="#000000" font-family="sans-serif" font-size="13" lengthAdjust="spacing" textLength="28.0503" x="419.9082" y="57.3325">MAY</text><text fill="#000000" font-family="sans-serif" font-size="13" lengthAdjust="spacing" textLength="4.1323" x="447.9585" y="57.3325">&#160;</text><text fill="#000000" font-family="sans-serif" font-size="13" lengthAdjust="spacing" textLength="31.2622" x="452.0908" y="57.3325">send</text><text fill="#000000" font-family="sans-serif" font-size="13" lengthAdjust="spacing" textLength="4.1323" x="483.353" y="57.3325">&#160;</text><text fill="#000000" font-family="sans-serif" font-size="13" lengthAdjust="spacing" textLength="7.9663" x="487.4854" y="57.3325">a</text><text fill="#000000" font-family="sans-serif" font-size="13" lengthAdjust="spacing" textLength="73.106" x="302.6987" y="72.4653">notification</text><text fill="#000000" font-family="sans-serif" font-size="13" lengthAdjust="spacing" textLength="4.1323" x="375.8047" y="72.4653">&#160;</text><text fill="#000000" font-family="sans-serif" font-size="13" lengthAdjust="spacing" textLength="13.0508" x="379.937" y="72.4653">to</text><text fill="#000000" font-family="sans-serif" font-size="13" lengthAdjust="spacing" textLength="4.1323" x="392.9878" y="72.4653">&#160;</text><text fill="#000000" font-family="sans-serif" font-size="13" lengthAdjust="spacing" textLength="21.3345" x="397.1201" y="72.4653">the</text><text fill="#000000" font-family="sans-serif" font-size="13" lengthAdjust="spacing" textLength="4.1323" x="418.4546" y="72.4653">&#160;</text><text fill="#000000" font-family="sans-serif" font-size="13" lengthAdjust="spacing" textLength="29.6309" x="422.5869" y="72.4653">User</text><text fill="#000000" font-family="sans-serif" font-size="13" lengthAdjust="spacing" textLength="4.1323" x="452.2178" y="72.4653">&#160;</text><text fill="#000000" font-family="sans-serif" font-size="13" lengthAdjust="spacing" textLength="35.1152" x="456.3501" y="72.4653">using</text><text fill="#000000" font-family="sans-serif" font-size="13" lengthAdjust="spacing" textLength="7.9663" x="317.676" y="87.5981">a</text><text fill="#000000" font-family="sans-serif" font-size="13" lengthAdjust="spacing" textLength="4.1323" x="325.6423" y="87.5981">&#160;</text><text fill="#000000" font-family="sans-serif" font-size="13" lengthAdjust="spacing" textLength="66.6694" x="329.7747" y="87.5981">registered</text><text fill="#000000" font-family="sans-serif" font-size="13" lengthAdjust="spacing" textLength="4.1323" x="396.4441" y="87.5981">&#160;</text><text fill="#000000" font-family="sans-serif" font-size="13" lengthAdjust="spacing" textLength="75.9116" x="400.5764" y="87.5981">out-of-band</text><text fill="#000000" font-family="sans-serif" font-size="13" lengthAdjust="spacing" textLength="100.5342" x="316.9619" y="102.731">communication</text><text fill="#000000" font-family="sans-serif" font-size="13" lengthAdjust="spacing" textLength="4.1323" x="417.4961" y="102.731">&#160;</text><text fill="#000000" font-family="sans-serif" font-size="13" lengthAdjust="spacing" textLength="55.5737" x="421.6284" y="102.731">channel.</text><ellipse cx="262.7124" cy="60.3984" fill="#222222" rx="10" ry="10" style="stroke:#222222;stroke-width:1;"/><rect fill="#F1F1F1" height="33.9688" rx="12.5" ry="12.5" style="stroke:#181818;stroke-width:0.5;" width="184.0098" x="170.7075" y="130.7969"/><text fill="#000000" font-family="sans-serif" font-size="12" lengthAdjust="spacing" textLength="27.3516" x="180.7075" y="151.9355">User</text><text fill="#000000" font-family="sans-serif" font-size="12" lengthAdjust="spacing" textLength="3.8145" x="208.0591" y="151.9355">&#160;</text><text fill="#000000" font-family="sans-serif" font-size="12" lengthAdjust="spacing" textLength="36.1992" x="211.8735" y="151.9355">opens</text><text fill="#000000" font-family="sans-serif" font-size="12" lengthAdjust="spacing" textLength="3.8145" x="248.0728" y="151.9355">&#160;</text><text fill="#000000" font-family="sans-serif" font-size="12" lengthAdjust="spacing" textLength="37.9746" x="251.8872" y="151.9355">Wallet</text><text fill="#000000" font-family="sans-serif" font-size="12" lengthAdjust="spacing" textLength="3.8145" x="289.8618" y="151.9355">&#160;</text><text fill="#000000" font-family="sans-serif" font-size="12" lengthAdjust="spacing" textLength="51.041" x="293.6763" y="151.9355">Instance</text><path d="M361.5718,174.7656 L361.5718,206.0313 L341.5718,210.0313 L361.5718,214.0313 L361.5718,245.2969 A0,0 0 0 0 361.5718,245.2969 L557.5005,245.2969 A0,0 0 0 0 557.5005,245.2969 L557.5005,184.7656 L547.5005,174.7656 L361.5718,174.7656 A0,0 0 0 0 361.5718,174.7656" fill="#FEFFDD" style="stroke:#181818;stroke-width:0.5;"/><path d="M547.5005,174.7656 L547.5005,184.7656 L557.5005,184.7656 L547.5005,174.7656" fill="#FEFFDD" style="stroke:#181818;stroke-width:0.5;"/><text fill="#000000" font-family="sans-serif" font-size="13" lengthAdjust="spacing" textLength="58.7285" x="378.2549" y="191.8325">Required</text><text fill="#000000" font-family="sans-serif" font-size="13" lengthAdjust="spacing" textLength="4.1323" x="436.9834" y="191.8325">&#160;</text><text fill="#000000" font-family="sans-serif" font-size="13" lengthAdjust="spacing" textLength="35.1089" x="441.1157" y="191.8325">when</text><text fill="#000000" font-family="sans-serif" font-size="13" lengthAdjust="spacing" textLength="4.1323" x="476.2246" y="191.8325">&#160;</text><text fill="#000000" font-family="sans-serif" font-size="13" lengthAdjust="spacing" textLength="16.1929" x="480.3569" y="191.8325">no</text><text fill="#000000" font-family="sans-serif" font-size="13" lengthAdjust="spacing" textLength="4.1323" x="496.5498" y="191.8325">&#160;</text><text fill="#000000" font-family="sans-serif" font-size="13" lengthAdjust="spacing" textLength="31.1353" x="500.6821" y="191.8325">valid</text><text fill="#000000" font-family="sans-serif" font-size="13" lengthAdjust="spacing" textLength="41.4248" x="401.1763" y="206.9653">Status</text><text fill="#000000" font-family="sans-serif" font-size="13" lengthAdjust="spacing" textLength="4.1323" x="442.6011" y="206.9653">&#160;</text><text fill="#000000" font-family="sans-serif" font-size="13" lengthAdjust="spacing" textLength="22.7246" x="446.7334" y="206.9653">List</text><text fill="#000000" font-family="sans-serif" font-size="13" lengthAdjust="spacing" textLength="4.1323" x="469.458" y="206.9653">&#160;</text><text fill="#000000" font-family="sans-serif" font-size="13" lengthAdjust="spacing" textLength="35.3057" x="473.5903" y="206.9653">exist.</text><text fill="#000000" font-family="sans-serif" font-size="13" lengthAdjust="spacing" textLength="8.4106" x="382.0889" y="222.0981">If</text><text fill="#000000" font-family="sans-serif" font-size="13" lengthAdjust="spacing" textLength="4.1323" x="390.4995" y="222.0981">&#160;</text><text fill="#000000" font-family="sans-serif" font-size="13" lengthAdjust="spacing" textLength="57.3574" x="394.6318" y="222.0981">possible,</text><text fill="#000000" font-family="sans-serif" font-size="13" lengthAdjust="spacing" textLength="4.1323" x="451.9893" y="222.0981">&#160;</text><text fill="#000000" font-family="sans-serif" font-size="13" lengthAdjust="spacing" textLength="26.3047" x="456.1216" y="222.0981">also</text><text fill="#000000" font-family="sans-serif" font-size="13" lengthAdjust="spacing" textLength="4.1323" x="482.4263" y="222.0981">&#160;</text><text fill="#000000" font-family="sans-serif" font-size="13" lengthAdjust="spacing" textLength="41.4248" x="486.5586" y="222.0981">Status</text><text fill="#000000" font-family="sans-serif" font-size="13" lengthAdjust="spacing" textLength="67.4565" x="367.5718" y="237.231">Assertions</text><text fill="#000000" font-family="sans-serif" font-size="13" lengthAdjust="spacing" textLength="4.1323" x="435.0283" y="237.231">&#160;</text><text fill="#000000" font-family="sans-serif" font-size="13" lengthAdjust="spacing" textLength="23.353" x="439.1606" y="237.231">can</text><text fill="#000000" font-family="sans-serif" font-size="13" lengthAdjust="spacing" textLength="4.1323" x="462.5137" y="237.231">&#160;</text><text fill="#000000" font-family="sans-serif" font-size="13" lengthAdjust="spacing" textLength="16.25" x="466.646" y="237.231">be</text><text fill="#000000" font-family="sans-serif" font-size="13" lengthAdjust="spacing" textLength="4.1323" x="482.896" y="237.231">&#160;</text><text fill="#000000" font-family="sans-serif" font-size="13" lengthAdjust="spacing" textLength="55.4722" x="487.0283" y="237.231">retrived.</text><rect fill="#F1F1F1" height="47.9375" rx="12.5" ry="12.5" style="stroke:#181818;stroke-width:0.5;" width="157.7188" x="183.853" y="186.0625"/><text fill="#000000" font-family="sans-serif" font-size="12" lengthAdjust="spacing" textLength="50.5605" x="193.853" y="207.2012">Retrieve</text><text fill="#000000" font-family="sans-serif" font-size="12" lengthAdjust="spacing" textLength="3.8145" x="244.4136" y="207.2012">&#160;</text><text fill="#000000" font-family="sans-serif" font-size="12" lengthAdjust="spacing" textLength="38.2383" x="248.228" y="207.2012">Status</text><text fill="#000000" font-family="sans-serif" font-size="12" lengthAdjust="spacing" textLength="3.8145" x="286.4663" y="207.2012">&#160;</text><text fill="#000000" font-family="sans-serif" font-size="12" lengthAdjust="spacing" textLength="20.9766" x="290.2808" y="207.2012">List</text><text fill="#000000" font-family="sans-serif" font-size="12" lengthAdjust="spacing" textLength="3.8145" x="311.2573" y="207.2012">&#160;</text><text fill="#000000" font-family="sans-serif" font-size="12" lengthAdjust="spacing" textLength="16.5" x="315.0718" y="207.2012">for</text><text fill="#000000" font-family="sans-serif" font-size="12" lengthAdjust="spacing" textLength="38.2324" x="207.5493" y="221.1699">stored</text><text fill="#000000" font-family="sans-serif" font-size="12" lengthAdjust="spacing" textLength="3.8145" x="245.7817" y="221.1699">&#160;</text><text fill="#000000" font-family="sans-serif" font-size="12" lengthAdjust="spacing" textLength="68.2793" x="249.5962" y="221.1699">Credentials</text><polygon fill="#F1F1F1" points="205.2068,363.2656,320.218,363.2656,332.218,375.2656,320.218,387.2656,205.2068,387.2656,193.2068,375.2656,205.2068,363.2656" style="stroke:#181818;stroke-width:0.5;"/><text fill="#000000" font-family="sans-serif" font-size="11" lengthAdjust="spacing" textLength="42.2759" x="205.2068" y="379.0737">Refresh</text><text fill="#000000" font-family="sans-serif" font-size="11" lengthAdjust="spacing" textLength="3.4966" x="247.4827" y="379.0737">&#160;</text><text fill="#000000" font-family="sans-serif" font-size="11" lengthAdjust="spacing" textLength="33.5586" x="250.9792" y="379.0737">Token</text><text fill="#000000" font-family="sans-serif" font-size="11" lengthAdjust="spacing" textLength="3.4966" x="284.5378" y="379.0737">&#160;</text><text fill="#000000" font-family="sans-serif" font-size="11" lengthAdjust="spacing" textLength="32.1836" x="288.0344" y="379.0737">valid?</text><text fill="#666666" font-family="sans-serif" font-size="12" lengthAdjust="spacing" textLength="20.7363" x="172.4705" y="372.4355">yes</text><text fill="#666666" font-family="sans-serif" font-size="12" lengthAdjust="spacing" textLength="14.9473" x="332.218" y="372.4355">no</text><rect fill="#F1F1F1" height="33.9688" rx="12.5" ry="12.5" style="stroke:#181818;stroke-width:0.5;" width="170.8789" x="11" y="397.2656"/><text fill="#000000" font-family="sans-serif" font-size="12" lengthAdjust="spacing" textLength="29.3145" x="21" y="418.4043">Start</text><text fill="#000000" font-family="sans-serif" font-size="12" lengthAdjust="spacing" textLength="3.8145" x="50.3145" y="418.4043">&#160;</text><text fill="#000000" font-family="sans-serif" font-size="12" lengthAdjust="spacing" textLength="46.1191" x="54.1289" y="418.4043">Refresh</text><text fill="#000000" font-family="sans-serif" font-size="12" lengthAdjust="spacing" textLength="3.8145" x="100.248" y="418.4043">&#160;</text><text fill="#000000" font-family="sans-serif" font-size="12" lengthAdjust="spacing" textLength="36.6094" x="104.0625" y="418.4043">Token</text><text fill="#000000" font-family="sans-serif" font-size="12" lengthAdjust="spacing" textLength="3.8145" x="140.6719" y="418.4043">&#160;</text><text fill="#000000" font-family="sans-serif" font-size="12" lengthAdjust="spacing" textLength="27.3926" x="144.4863" y="418.4043">Flow</text><path d="M201.8789,397.2656 L201.8789,437.5313 A0,0 0 0 0 201.8789,437.5313 L397.9854,437.5313 A0,0 0 0 0 397.9854,437.5313 L397.9854,421.3984 L417.9854,417.3984 L397.9854,413.3984 L397.9854,407.2656 L387.9854,397.2656 L201.8789,397.2656 A0,0 0 0 0 201.8789,397.2656" fill="#FEFFDD" style="stroke:#181818;stroke-width:0.5;"/><path d="M387.9854,397.2656 L387.9854,407.2656 L397.9854,407.2656 L387.9854,397.2656" fill="#FEFFDD" style="stroke:#181818;stroke-width:0.5;"/><text fill="#000000" font-family="sans-serif" font-size="13" lengthAdjust="spacing" textLength="31.7573" x="207.8789" y="414.3325">Start</text><text fill="#000000" font-family="sans-serif" font-size="13" lengthAdjust="spacing" textLength="4.1323" x="239.6362" y="414.3325">&#160;</text><text fill="#000000" font-family="sans-serif" font-size="13" lengthAdjust="spacing" textLength="16.2056" x="243.7686" y="414.3325">an</text><text fill="#000000" font-family="sans-serif" font-size="13" lengthAdjust="spacing" textLength="4.1323" x="259.9741" y="414.3325">&#160;</text><text fill="#000000" font-family="sans-serif" font-size="13" lengthAdjust="spacing" textLength="26.8696" x="264.1064" y="414.3325">new</text><text fill="#000000" font-family="sans-serif" font-size="13" lengthAdjust="spacing" textLength="4.1323" x="290.9761" y="414.3325">&#160;</text><text fill="#000000" font-family="sans-serif" font-size="13" lengthAdjust="spacing" textLength="56.9702" x="295.1084" y="414.3325">Issuance</text><text fill="#000000" font-family="sans-serif" font-size="13" lengthAdjust="spacing" textLength="4.1323" x="352.0786" y="414.3325">&#160;</text><text fill="#000000" font-family="sans-serif" font-size="13" lengthAdjust="spacing" textLength="26.7744" x="356.2109" y="414.3325">flow</text><text fill="#000000" font-family="sans-serif" font-size="13" lengthAdjust="spacing" textLength="27.5806" x="209.8054" y="429.4653">with</text><text fill="#000000" font-family="sans-serif" font-size="13" lengthAdjust="spacing" textLength="4.1323" x="237.386" y="429.4653">&#160;</text><text fill="#000000" font-family="sans-serif" font-size="13" lengthAdjust="spacing" textLength="39.9775" x="241.5183" y="429.4653">User's</text><text fill="#000000" font-family="sans-serif" font-size="13" lengthAdjust="spacing" textLength="4.1323" x="281.4958" y="429.4653">&#160;</text><text fill="#000000" font-family="sans-serif" font-size="13" lengthAdjust="spacing" textLength="95.4307" x="285.6282" y="429.4653">Authentication</text><ellipse cx="428.9854" cy="417.3984" fill="none" rx="11" ry="11" style="stroke:#222222;stroke-width:1;"/><ellipse cx="428.9854" cy="417.3984" fill="#222222" rx="6" ry="6" style="stroke:#222222;stroke-width:1;"/><polygon fill="#F1F1F1" points="207.4197,314.2813,318.0051,314.2813,330.0051,326.2813,318.0051,338.2813,207.4197,338.2813,195.4197,326.2813,207.4197,314.2813" style="stroke:#181818;stroke-width:0.5;"/><text fill="#666666" font-family="sans-serif" font-size="12" lengthAdjust="spacing" textLength="14.9473" x="266.7124" y="349.4199">no</text><text fill="#000000" font-family="sans-serif" font-size="11" lengthAdjust="spacing" textLength="37.8501" x="207.4197" y="330.0894">Access</text><text fill="#000000" font-family="sans-serif" font-size="11" lengthAdjust="spacing" textLength="3.4966" x="245.2698" y="330.0894">&#160;</text><text fill="#000000" font-family="sans-serif" font-size="11" lengthAdjust="spacing" textLength="33.5586" x="248.7664" y="330.0894">Token</text><text fill="#000000" font-family="sans-serif" font-size="11" lengthAdjust="spacing" textLength="3.4966" x="282.325" y="330.0894">&#160;</text><text fill="#000000" font-family="sans-serif" font-size="11" lengthAdjust="spacing" textLength="32.1836" x="285.8215" y="330.0894">valid?</text><text fill="#666666" font-family="sans-serif" font-size="12" lengthAdjust="spacing" textLength="20.7363" x="330.0051" y="323.4512">yes</text><polygon fill="#F1F1F1" points="262.7124,457.5313,274.7124,469.5313,262.7124,481.5313,250.7124,469.5313,262.7124,457.5313" style="stroke:#181818;stroke-width:0.5;"/><rect fill="#F1F1F1" height="61.9063" rx="12.5" ry="12.5" style="stroke:#181818;stroke-width:0.5;" width="178.6777" x="173.3735" y="501.5313"/><text fill="#000000" font-family="sans-serif" font-size="12" lengthAdjust="spacing" textLength="22.418" x="183.3735" y="522.6699">Use</text><text fill="#000000" font-family="sans-serif" font-size="12" lengthAdjust="spacing" textLength="3.8145" x="205.7915" y="522.6699">&#160;</text><text fill="#000000" font-family="sans-serif" font-size="12" lengthAdjust="spacing" textLength="31.0547" x="209.606" y="522.6699">DPoP</text><text fill="#000000" font-family="sans-serif" font-size="12" lengthAdjust="spacing" textLength="3.8145" x="240.6606" y="522.6699">&#160;</text><text fill="#000000" font-family="sans-serif" font-size="12" lengthAdjust="spacing" textLength="41.291" x="244.4751" y="522.6699">Access</text><text fill="#000000" font-family="sans-serif" font-size="12" lengthAdjust="spacing" textLength="3.8145" x="285.7661" y="522.6699">&#160;</text><text fill="#000000" font-family="sans-serif" font-size="12" lengthAdjust="spacing" textLength="36.6094" x="289.5806" y="522.6699">Token</text><text fill="#000000" font-family="sans-serif" font-size="12" lengthAdjust="spacing" textLength="3.8145" x="326.1899" y="522.6699">&#160;</text><text fill="#000000" font-family="sans-serif" font-size="12" lengthAdjust="spacing" textLength="12.0469" x="330.0044" y="522.6699">to</text><text fill="#000000" font-family="sans-serif" font-size="12" lengthAdjust="spacing" textLength="47.1563" x="239.1343" y="536.6387">retrieve</text><text fill="#000000" font-family="sans-serif" font-size="12" lengthAdjust="spacing" textLength="24.8027" x="196.0239" y="550.6074">new</text><text fill="#000000" font-family="sans-serif" font-size="12" lengthAdjust="spacing" textLength="3.8145" x="220.8267" y="550.6074">&#160;</text><text fill="#000000" font-family="sans-serif" font-size="12" lengthAdjust="spacing" textLength="38.918" x="224.6411" y="550.6074">Digital</text><text fill="#000000" font-family="sans-serif" font-size="12" lengthAdjust="spacing" textLength="3.8145" x="263.5591" y="550.6074">&#160;</text><text fill="#000000" font-family="sans-serif" font-size="12" lengthAdjust="spacing" textLength="62.0273" x="267.3735" y="550.6074">Credential</text><rect fill="#F1F1F1" height="33.9688" rx="12.5" ry="12.5" style="stroke:#181818;stroke-width:0.5;" width="184.6367" x="170.394" y="583.4375"/><text fill="#000000" font-family="sans-serif" font-size="12" lengthAdjust="spacing" textLength="49.2832" x="180.394" y="604.5762">Request</text><text fill="#000000" font-family="sans-serif" font-size="12" lengthAdjust="spacing" textLength="3.8145" x="229.6772" y="604.5762">&#160;</text><text fill="#000000" font-family="sans-serif" font-size="12" lengthAdjust="spacing" textLength="27.3516" x="233.4917" y="604.5762">User</text><text fill="#000000" font-family="sans-serif" font-size="12" lengthAdjust="spacing" textLength="3.8145" x="260.8433" y="604.5762">&#160;</text><text fill="#000000" font-family="sans-serif" font-size="12" lengthAdjust="spacing" textLength="80.373" x="264.6577" y="604.5762">Authorization</text><rect fill="#F1F1F1" height="33.9688" rx="12.5" ry="12.5" style="stroke:#181818;stroke-width:0.5;" width="146.4395" x="189.4927" y="686.3906"/><text fill="#000000" font-family="sans-serif" font-size="12" lengthAdjust="spacing" textLength="31.9805" x="199.4927" y="707.5293">Store</text><text fill="#000000" font-family="sans-serif" font-size="12" lengthAdjust="spacing" textLength="3.8145" x="231.4731" y="707.5293">&#160;</text><text fill="#000000" font-family="sans-serif" font-size="12" lengthAdjust="spacing" textLength="24.8027" x="235.2876" y="707.5293">new</text><text fill="#000000" font-family="sans-serif" font-size="12" lengthAdjust="spacing" textLength="3.8145" x="260.0903" y="707.5293">&#160;</text><text fill="#000000" font-family="sans-serif" font-size="12" lengthAdjust="spacing" textLength="62.0273" x="263.9048" y="707.5293">Credential</text><polygon fill="#F1F1F1" points="216.3276,637.4063,309.0972,637.4063,321.0972,649.4063,309.0972,661.4063,216.3276,661.4063,204.3276,649.4063,216.3276,637.4063" style="stroke:#181818;stroke-width:0.5;"/><text fill="#666666" font-family="sans-serif" font-size="12" lengthAdjust="spacing" textLength="20.7363" x="266.7124" y="672.5449">yes</text><text fill="#000000" font-family="sans-serif" font-size="11" lengthAdjust="spacing" textLength="25.0723" x="216.3276" y="653.2144">User</text><text fill="#000000" font-family="sans-serif" font-size="11" lengthAdjust="spacing" textLength="3.4966" x="241.3999" y="653.2144">&#160;</text><text fill="#000000" font-family="sans-serif" font-size="11" lengthAdjust="spacing" textLength="64.2007" x="244.8965" y="653.2144">Authorizes?</text><text fill="#666666" font-family="sans-serif" font-size="12" lengthAdjust="spacing" textLength="14.9473" x="321.0972" y="646.5762">no</text><ellipse cx="358.0444" cy="649.4063" fill="none" rx="11" ry="11" style="stroke:#222222;stroke-width:1;"/><ellipse cx="358.0444" cy="649.4063" fill="#222222" rx="6" ry="6" style="stroke:#222222;stroke-width:1;"/><rect fill="#F1F1F1" height="33.9688" rx="12.5" ry="12.5" style="stroke:#181818;stroke-width:0.5;" width="180.6523" x="172.3862" y="740.3594"/><text fill="#000000" font-family="sans-serif" font-size="12" lengthAdjust="spacing" textLength="39.4277" x="182.3862" y="761.498">Delete</text><text fill="#000000" font-family="sans-serif" font-size="12" lengthAdjust="spacing" textLength="3.8145" x="221.814" y="761.498">&#160;</text><text fill="#000000" font-family="sans-serif" font-size="12" lengthAdjust="spacing" textLength="51.5684" x="225.6284" y="761.498">previous</text><text fill="#000000" font-family="sans-serif" font-size="12" lengthAdjust="spacing" textLength="3.8145" x="277.1968" y="761.498">&#160;</text><text fill="#000000" font-family="sans-serif" font-size="12" lengthAdjust="spacing" textLength="62.0273" x="281.0112" y="761.498">Credential</text><polygon fill="#F1F1F1" points="166.5107,265.2969,358.9141,265.2969,370.9141,277.2969,358.9141,289.2969,166.5107,289.2969,154.5107,277.2969,166.5107,265.2969" style="stroke:#181818;stroke-width:0.5;"/><text fill="#666666" font-family="sans-serif" font-size="12" lengthAdjust="spacing" textLength="20.7363" x="266.7124" y="300.4355">yes</text><text fill="#000000" font-family="sans-serif" font-size="11" lengthAdjust="spacing" textLength="56.8584" x="166.5107" y="281.105">Credential</text><text fill="#000000" font-family="sans-serif" font-size="11" lengthAdjust="spacing" textLength="3.4966" x="223.3691" y="281.105">&#160;</text><text fill="#000000" font-family="sans-serif" font-size="11" lengthAdjust="spacing" textLength="35.0518" x="226.8657" y="281.105">Status</text><text fill="#000000" font-family="sans-serif" font-size="11" lengthAdjust="spacing" textLength="3.4966" x="261.9175" y="281.105">&#160;</text><text fill="#000000" font-family="sans-serif" font-size="11" lengthAdjust="spacing" textLength="9.2168" x="265.4141" y="281.105">=</text><text fill="#000000" font-family="sans-serif" font-size="11" lengthAdjust="spacing" textLength="3.4966" x="274.6309" y="281.105">&#160;</text><text fill="#000000" font-family="sans-serif" font-size="11" lengthAdjust="spacing" textLength="80.7866" x="278.1274" y="281.105">NEEDUPDATE?</text><text fill="#666666" font-family="sans-serif" font-size="12" lengthAdjust="spacing" textLength="14.9473" x="370.9141" y="274.4668">no</text><ellipse cx="407.8613" cy="277.2969" fill="none" rx="11" ry="11" style="stroke:#222222;stroke-width:1;"/><ellipse cx="407.8613" cy="277.2969" fill="#222222" rx="6" ry="6" style="stroke:#222222;stroke-width:1;"/><ellipse cx="262.7124" cy="805.3281" fill="none" rx="11" ry="11" style="stroke:#222222;stroke-width:1;"/><ellipse cx="262.7124" cy="805.3281" fill="#222222" rx="6" ry="6" style="stroke:#222222;stroke-width:1;"/><line style="stroke:#666666;stroke-width:1;" x1="262.7124" x2="262.7124" y1="70.3984" y2="130.7969"/><polygon fill="#666666" points="258.7124,120.7969,262.7124,130.7969,266.7124,120.7969,262.7124,124.7969" style="stroke:#666666;stroke-width:1;"/><line style="stroke:#666666;stroke-width:1;" x1="262.7124" x2="262.7124" y1="164.7656" y2="186.0625"/><polygon fill="#666666" points="258.7124,176.0625,262.7124,186.0625,266.7124,176.0625,262.7124,180.0625" style="stroke:#666666;stroke-width:1;"/><line style="stroke:#666666;stroke-width:1;" x1="193.2068" x2="96.4395" y1="375.2656" y2="375.2656"/><line style="stroke:#666666;stroke-width:1;" x1="96.4395" x2="96.4395" y1="375.2656" y2="397.2656"/><polygon fill="#666666" points="92.4395,387.2656,96.4395,397.2656,100.4395,387.2656,96.4395,391.2656" style="stroke:#666666;stroke-width:1;"/><line style="stroke:#666666;stroke-width:1;" x1="332.218" x2="428.9854" y1="375.2656" y2="375.2656"/><line style="stroke:#666666;stroke-width:1;" x1="428.9854" x2="428.9854" y1="375.2656" y2="406.3984"/><polygon fill="#666666" points="424.9854,396.3984,428.9854,406.3984,432.9854,396.3984,428.9854,400.3984" style="stroke:#666666;stroke-width:1;"/><line style="stroke:#666666;stroke-width:1;" x1="96.4395" x2="96.4395" y1="431.2344" y2="442.5313"/><line style="stroke:#666666;stroke-width:1;" x1="96.4395" x2="262.7124" y1="442.5313" y2="442.5313"/><line style="stroke:#666666;stroke-width:1;" x1="262.7124" x2="262.7124" y1="442.5313" y2="457.5313"/><polygon fill="#666666" points="258.7124,447.5313,262.7124,457.5313,266.7124,447.5313,262.7124,451.5313" style="stroke:#666666;stroke-width:1;"/><line style="stroke:#666666;stroke-width:1;" x1="262.7124" x2="262.7124" y1="338.2813" y2="363.2656"/><polygon fill="#666666" points="258.7124,353.2656,262.7124,363.2656,266.7124,353.2656,262.7124,357.2656" style="stroke:#666666;stroke-width:1;"/><line style="stroke:#666666;stroke-width:1;" x1="330.0051" x2="459.9854" y1="326.2813" y2="326.2813"/><polygon fill="#666666" points="455.9854,393.3984,459.9854,403.3984,463.9854,393.3984,459.9854,397.3984" style="stroke:#666666;stroke-width:1;"/><line style="stroke:#666666;stroke-width:1;" x1="459.9854" x2="459.9854" y1="326.2813" y2="469.5313"/><line style="stroke:#666666;stroke-width:1;" x1="459.9854" x2="274.7124" y1="469.5313" y2="469.5313"/><polygon fill="#666666" points="284.7124,465.5313,274.7124,469.5313,284.7124,473.5313,280.7124,469.5313" style="stroke:#666666;stroke-width:1;"/><line style="stroke:#666666;stroke-width:1;" x1="262.7124" x2="262.7124" y1="481.5313" y2="501.5313"/><polygon fill="#666666" points="258.7124,491.5313,262.7124,501.5313,266.7124,491.5313,262.7124,495.5313" style="stroke:#666666;stroke-width:1;"/><line style="stroke:#666666;stroke-width:1;" x1="262.7124" x2="262.7124" y1="563.4375" y2="583.4375"/><polygon fill="#666666" points="258.7124,573.4375,262.7124,583.4375,266.7124,573.4375,262.7124,577.4375" style="stroke:#666666;stroke-width:1;"/><line style="stroke:#666666;stroke-width:1;" x1="262.7124" x2="262.7124" y1="661.4063" y2="686.3906"/><polygon fill="#666666" points="258.7124,676.3906,262.7124,686.3906,266.7124,676.3906,262.7124,680.3906" style="stroke:#666666;stroke-width:1;"/><line style="stroke:#666666;stroke-width:1;" x1="321.0972" x2="347.0444" y1="649.4063" y2="649.4063"/><polygon fill="#666666" points="337.0444,645.4063,347.0444,649.4063,337.0444,653.4063,341.0444,649.4063" style="stroke:#666666;stroke-width:1;"/><line style="stroke:#666666;stroke-width:1;" x1="262.7124" x2="262.7124" y1="720.3594" y2="740.3594"/><polygon fill="#666666" points="258.7124,730.3594,262.7124,740.3594,266.7124,730.3594,262.7124,734.3594" style="stroke:#666666;stroke-width:1;"/><line style="stroke:#666666;stroke-width:1;" x1="262.7124" x2="262.7124" y1="617.4063" y2="637.4063"/><polygon fill="#666666" points="258.7124,627.4063,262.7124,637.4063,266.7124,627.4063,262.7124,631.4063" style="stroke:#666666;stroke-width:1;"/><line style="stroke:#666666;stroke-width:1;" x1="262.7124" x2="262.7124" y1="289.2969" y2="314.2813"/><polygon fill="#666666" points="258.7124,304.2813,262.7124,314.2813,266.7124,304.2813,262.7124,308.2813" style="stroke:#666666;stroke-width:1;"/><line style="stroke:#666666;stroke-width:1;" x1="370.9141" x2="396.8613" y1="277.2969" y2="277.2969"/><polygon fill="#666666" points="386.8613,273.2969,396.8613,277.2969,386.8613,281.2969,390.8613,277.2969" style="stroke:#666666;stroke-width:1;"/><line style="stroke:#666666;stroke-width:1;" x1="262.7124" x2="262.7124" y1="774.3281" y2="794.3281"/><polygon fill="#666666" points="258.7124,784.3281,262.7124,794.3281,266.7124,784.3281,262.7124,788.3281" style="stroke:#666666;stroke-width:1;"/><line style="stroke:#666666;stroke-width:1;" x1="262.7124" x2="262.7124" y1="234" y2="265.2969"/><polygon fill="#666666" points="258.7124,255.2969,262.7124,265.2969,266.7124,255.2969,262.7124,259.2969" style="stroke:#666666;stroke-width:1;"/><!--SRC=[ZLHDRzf04BtlhvYUJAG0bvv0KKLZAY4b5IAWAAegjDXZlEgow-wkeUclxum1Wy59umDQh-UzDnzl-AHCeiiK8G-Xy8D-tybTRwr2NgvAZown9g09lSHk-eMM9fGRtVKXrMhLl__SdVBLul6Xlv4-eAEhPVngv4OblO8YXV11kY2C3GXEhVCWddCq825Mf24rt3jCYL_HqI2c7eA55K9Pf39WUWiXn_EOYVSbEW-FenVmQ59Y8cwLgKG6PGsZ6R6WpA7qogmfmE5QSNAOWYr3rsRTbIGaLRGfpH6OvD8Or3t1f9ok48EAnHPeF3nBhJ70n50z9i6XeCyp34xX5k4fo51wU20LoAoZcYsBdTBsm_CEpF1tgJXWnwqm5hPIgrISi-0V-ks1c6HGME_LIkCj48yzQeqyvSQ9UqYauOuvpcQBwNa5AeFEMVCEs3luFXx7Ysayce-_t72_37HUqTy8e2TYK5A3bhu2BLCCKkaUlo4e0p_s-FWMHlFvRF9rCHyl3rS_hqdvgGyiC4eIz1xczXV5LVMtWnf0r1wXOsppCzFDC7Feyu_n0GoUs9NGH7tJTZTi1BRh0T1yYukhQhmNTx1NeV4Ot5NEPUj0HZgNaJlQjygq4OssvBp3qPWNeVLmBovL9jhVwWFR6UAfdKAZ-RGnxc3aEfJplLxGKtC-uf6xat9qPP6tXpFWxK1QWMhvk1VMgRzLAuQjfZXQe16F_htnLmQW5QtgRAlllU6tZB_PyAWT6Vr7CzgpdCOL8_tZ81GEjyhIshQ1n1k2KPtZWROPKdqzwF7v7m00]--></g></svg>