<svg xmlns="http://www.w3.org/2000/svg" xmlns:xlink="http://www.w3.org/1999/xlink" contentStyleType="text/css" data-diagram-type="STATE" height="482px" preserveAspectRatio="none" style="width:458px;height:482px;background:#FFFFFF;" version="1.1" viewBox="0 0 458 482" width="458px" zoomAndPan="magnify"><defs/><g><rect fill="#FFA500" height="40" rx="12.5" ry="12.5" style="stroke:#181818;stroke-width:0.5;" width="69.6436" x="32.57" y="103"/><text fill="#000000" font-family="sans-serif" font-size="14" lengthAdjust="spacing" textLength="59.6436" x="37.57" y="127.8467">Installed</text><rect fill="#228B22" height="40" rx="12.5" ry="12.5" style="stroke:#181818;stroke-width:0.5;" width="64.1543" x="190.31" y="103"/><text fill="#000000" font-family="sans-serif" font-size="14" lengthAdjust="spacing" textLength="54.1543" x="195.31" y="127.8467">Verified</text><rect fill="#FFFF00" height="40" rx="12.5" ry="12.5" style="stroke:#181818;stroke-width:0.5;" width="92.1406" x="119.32" y="220"/><text fill="#000000" font-family="sans-serif" font-size="14" lengthAdjust="spacing" textLength="82.1406" x="124.32" y="244.8467">Operational</text><rect fill="#D64545" height="40" rx="12.5" ry="12.5" style="stroke:#181818;stroke-width:0.5;" width="88.5244" x="121.13" y="337"/><text fill="#000000" font-family="sans-serif" font-size="14" lengthAdjust="spacing" textLength="78.5244" x="126.13" y="361.8467">Uninstalled</text><ellipse cx="67.39" cy="16" fill="#222222" rx="10" ry="10" style="stroke:#222222;stroke-width:1;"/><ellipse cx="165.39" cy="465" fill="none" rx="11" ry="11" style="stroke:#222222;stroke-width:1;"/><ellipse cx="165.39" cy="465" fill="#222222" rx="6" ry="6" style="stroke:#222222;stroke-width:1;"/><!--link *start* to Installed--><g class="link" data-entity-1="*start*" data-entity-2="Installed" data-source-line="8" data-uid="lnk3" id="link_*start*_Installed"><path d="M67.39,26.32 C67.39,43.38 67.39,73.98 67.39,96.64" fill="none" id="*start*-to-Installed" style="stroke:#181818;stroke-width:1;"/><polygon fill="#181818" points="67.39,102.64,71.39,93.64,67.39,97.64,63.39,93.64,67.39,102.64" style="stroke:#181818;stroke-width:1;"/><text fill="#000000" font-family="sans-serif" font-size="13" lengthAdjust="spacing" textLength="54.5898" x="68.39" y="69.0669">RPI INST</text></g><!--link Installed to Uninstalled--><g class="link" data-entity-1="Installed" data-entity-2="Uninstalled" data-source-line="9" data-uid="lnk4" id="link_Installed_Uninstalled"><path d="M52.61,143.36 C33.78,170.56 6,221.13 26.39,260 C46.15,297.66 82.686,320.906 115.366,336.206" fill="none" id="Installed-to-Uninstalled" style="stroke:#181818;stroke-width:1;"/><polygon fill="#181818" points="120.8,338.75,114.3451,331.3113,116.2717,336.63,110.953,338.5566,120.8,338.75" style="stroke:#181818;stroke-width:1;"/><text fill="#000000" font-family="sans-serif" font-size="13" lengthAdjust="spacing" textLength="73.8296" x="27.39" y="244.5669">RPI UNINST</text></g><!--link Installed to Ready--><g class="link" data-entity-1="Installed" data-entity-2="Ready" data-source-line="10" data-uid="lnk5" id="link_Installed_Ready"><path d="M102.56,123 C128.82,123 158.43,123 184,123" fill="none" id="Installed-to-Ready" style="stroke:#181818;stroke-width:1;"/><polygon fill="#181818" points="190,123,181,119,185,123,181,127,190,123" style="stroke:#181818;stroke-width:1;"/><text fill="#000000" font-family="sans-serif" font-size="13" lengthAdjust="spacing" textLength="52.1587" x="120.26" y="116.0669">RPI REG</text></g><!--reverse link Installed to Ready--><g class="link" data-entity-1="Installed" data-entity-2="Ready" data-source-line="12" data-uid="lnk8" id="link_Installed_Ready"><path d="M108.1292,140.1661 C113.9792,142.1261 114.37,141.92 120.26,143 C143,147.16 149.57,147.36 172.26,143 C178.15,141.87 184.23,140.05 190.03,137.97" fill="none" id="Installed-backto-Ready" style="stroke:#181818;stroke-width:1;"/><polygon fill="#181818" points="102.44,138.26,109.703,144.912,107.181,139.8484,112.2445,137.3264,102.44,138.26" style="stroke:#181818;stroke-width:1;"/><text fill="#000000" font-family="sans-serif" font-size="13" lengthAdjust="spacing" textLength="50.978" x="121.26" y="139.0669">RPI REV</text></g><!--link Ready to Uninstalled--><g class="link" data-entity-1="Ready" data-entity-2="Uninstalled" data-source-line="11" data-uid="lnk6" id="link_Ready_Uninstalled"><path d="M254.49,133.14 C278.08,140.99 309.97,154.06 333.39,173 C365.67,199.11 389.57,224.91 367.39,260 C332.96,314.49 264.1086,337.4314 215.8386,347.7014" fill="none" id="Ready-to-Uninstalled" style="stroke:#181818;stroke-width:1;"/><polygon fill="#181818" points="209.97,348.95,219.6054,350.9895,214.8605,347.9095,217.9405,343.1646,209.97,348.95" style="stroke:#181818;stroke-width:1;"/><text fill="#000000" font-family="sans-serif" font-size="13" lengthAdjust="spacing" textLength="73.8296" x="376.39" y="244.5669">RPI UNINST</text></g><!--link Ready to Ready--><g class="link" data-entity-1="Ready" data-entity-2="Ready" data-source-line="13" data-uid="lnk9" id="link_Ready_Ready"><path d="M254.83,112.56 C272.86,110.61 289.47,114.09 289.47,123 C289.47,131.91 278.8252,136.0352 260.7952,134.0852" fill="none" id="Ready-to-Ready" style="stroke:#181818;stroke-width:1;"/><polygon fill="#181818" points="254.83,133.44,263.3477,138.3845,259.801,133.9776,264.2079,130.4309,254.83,133.44" style="stroke:#181818;stroke-width:1;"/><text fill="#0000FF" font-family="sans-serif" font-size="13" lengthAdjust="spacing" textLength="101.6577" x="295.47" y="127.5669">PID/(Q)EAA PRE</text></g><!--link Ready to Operational--><g class="link" data-entity-1="Ready" data-entity-2="Operational" data-source-line="14" data-uid="lnk10" id="link_Ready_Operational"><path d="M243.72,143.36 C255.71,156.67 266.6,174.65 257.39,190 C247.24,206.91 234.5657,215.9384 217.0257,223.4484" fill="none" id="Ready-to-Operational" style="stroke:#181818;stroke-width:1;"/><polygon fill="#181818" points="211.51,225.81,221.3579,225.9447,216.1064,223.842,218.2091,218.5905,211.51,225.81" style="stroke:#181818;stroke-width:1;"/><text fill="#000000" font-family="sans-serif" font-size="13" lengthAdjust="spacing" textLength="63.356" x="261.39" y="186.0669">CERT EXP</text></g><!--reverse link Ready to Operational--><g class="link" data-entity-1="Ready" data-entity-2="Operational" data-source-line="16" data-uid="lnk13" id="link_Ready_Operational"><path d="M191.7875,147.2796 C182.7075,155.3996 177.89,161.62 172.39,173 C165.36,187.52 163.93,205.9 164.07,219.57" fill="none" id="Ready-backto-Operational" style="stroke:#181818;stroke-width:1;"/><polygon fill="#181818" points="196.26,143.28,186.8849,146.2978,192.5329,146.613,192.2177,152.2611,196.26,143.28" style="stroke:#181818;stroke-width:1;"/><text fill="#000000" font-family="sans-serif" font-size="13" lengthAdjust="spacing" textLength="75.9814" x="173.39" y="186.0669">CERT REISS</text></g><!--link Operational to Uninstalled--><g class="link" data-entity-1="Operational" data-entity-2="Uninstalled" data-source-line="15" data-uid="lnk11" id="link_Operational_Uninstalled"><path d="M165.39,260.25 C165.39,281.48 165.39,309.44 165.39,330.69" fill="none" id="Operational-to-Uninstalled" style="stroke:#181818;stroke-width:1;"/><polygon fill="#181818" points="165.39,336.69,169.39,327.69,165.39,331.69,161.39,327.69,165.39,336.69" style="stroke:#181818;stroke-width:1;"/><text fill="#000000" font-family="sans-serif" font-size="13" lengthAdjust="spacing" textLength="73.8296" x="166.39" y="303.0669">RPI UNINST</text></g><!--link Operational to Operational--><g class="link" data-entity-1="Operational" data-entity-2="Operational" data-source-line="17" data-uid="lnk14" id="link_Operational_Operational"><path d="M211.64,229.11 C230.53,228.43 246.46,232.06 246.46,240 C246.46,247.94 236.5261,251.7858 217.6361,251.1058" fill="none" id="Operational-to-Operational" style="stroke:#181818;stroke-width:1;"/><polygon fill="#181818" points="211.64,250.89,220.4903,255.2112,216.6368,251.0699,220.7781,247.2164,211.64,250.89" style="stroke:#181818;stroke-width:1;"/><text fill="#0000FF" font-family="sans-serif" font-size="13" lengthAdjust="spacing" textLength="108.1577" x="252.46" y="244.5669">PID/(Q)EAA PRE*</text></g><!--reverse link Installed to Operational--><g class="link" data-entity-1="Installed" data-entity-2="Operational" data-source-line="18" data-uid="lnk16" id="link_Installed_Operational"><path d="M70.5795,149.1845 C72.9895,163.3045 77,176.39 87.39,190 C96.61,202.08 109.73,211.94 122.58,219.56" fill="none" id="Installed-backto-Operational" style="stroke:#181818;stroke-width:1;"/><polygon fill="#181818" points="69.57,143.27,67.1412,152.8147,70.4112,148.1987,75.0272,151.4687,69.57,143.27" style="stroke:#181818;stroke-width:1;"/><text fill="#000000" font-family="sans-serif" font-size="13" lengthAdjust="spacing" textLength="70.3828" x="88.39" y="186.0669">RPI DEREG</text></g><!--link Uninstalled to *end*--><g class="link" data-entity-1="Uninstalled" data-entity-2="*end*" data-source-line="19" data-uid="lnk18" id="link_Uninstalled_*end*"><path d="M165.39,377.44 C165.39,399.91 165.39,430.06 165.39,447.68" fill="none" id="Uninstalled-to-*end*" style="stroke:#181818;stroke-width:1;"/><polygon fill="#181818" points="165.39,453.68,169.39,444.68,165.39,448.68,161.39,444.68,165.39,453.68" style="stroke:#181818;stroke-width:1;"/><text fill="#000000" font-family="sans-serif" font-size="13" lengthAdjust="spacing" textLength="4.1323" x="166.39" y="420.0669">&#160;</text></g><!--SRC=[XP5TQuCm68NlyojUwirM43kfOuW8RgR3cyx5jWp6BbmJrq2ceYcZ-_MB7_Lh6yrDGlBadCDv3vmoO9-vF05bvRxWkUHPYb0fOyaWIDKk1AEWhLQUjLYqzxCTAtZ26Pr1N09XCJs1PfftzwRP4ayvA-9AAXQW9MfrVxSfxrNzswMrj11wdR-1JhElL7TxKnj8642mZZQe3tAc1Z8DjrrFoO9_7AH2wtmDHF0ZQk9UqcafmHBvEnF1kpFGoJlxJ6I5_IwEp0q3txXwliQU1o71Zb4_kHFdGKKsF62o0VmIec5nbpAEs6FUPwdL20wYQCnCJF-FFEyoZ_x_tOQFgrg7SzKLf4Qg74h-pUmRqtMCwkJ-0000]--></g></svg>