<svg width="268" height="311" viewBox="0 0 268 311" fill="none" xmlns="http://www.w3.org/2000/svg">
<rect width="267.31" height="310.17" fill="white"/>
<g clip-path="url(#clip0_2110_7831)">
<path d="M127.46 25.2902C125.87 24.3902 124.18 23.9902 122.54 24.0002C117.36 24.0402 112.61 28.1902 112.64 33.9702L112.93 86.8902L38.99 45.4202C37.39 44.5202 35.7 44.1202 34.06 44.1302C28.88 44.1702 24.17 48.3202 24.16 54.1002L24 228.52C24 236.39 27.54 243.25 35.12 247.5L101.59 284.88C103.19 285.78 104.88 286.18 106.52 286.17C111.7 286.13 116.42 281.98 116.42 276.2V97.3402L151.56 116.9C159.15 121.12 162.68 128.01 162.68 135.88V240.68L228.41 277.55C230.01 278.45 231.7 278.85 233.34 278.84C238.52 278.8 243.24 274.65 243.24 268.87L243.31 103.02C243.31 95.1502 239.77 88.2902 232.19 84.0402L127.46 25.2902Z" fill="#0066CC"/>
</g>
<defs>
<clipPath id="clip0_2110_7831">
<rect width="219.31" height="262.17" fill="white" transform="translate(24 24)"/>
</clipPath>
</defs>
</svg>
