<svg width="1440" height="790" viewBox="0 0 1440 790" fill="none" xmlns="http://www.w3.org/2000/svg">
<g clip-path="url(#clip0_4184_74855)">
<rect width="1440" height="790" fill="white"/>
<rect width="1440" height="48" fill="#004D99"/>
<path d="M73.904 24.198C73.904 25.6167 74.0907 26.6387 74.464 27.264C74.8373 27.88 75.556 28.188 76.62 28.188C77.6933 28.188 78.412 27.8847 78.776 27.278C79.1493 26.6713 79.336 25.654 79.336 24.226C79.336 22.798 79.1447 21.7573 78.762 21.104C78.3793 20.4507 77.6607 20.124 76.606 20.124C75.5607 20.124 74.8467 20.4507 74.464 21.104C74.0907 21.748 73.904 22.7793 73.904 24.198ZM80.456 24.226C80.456 25.9527 80.1807 27.2033 79.63 27.978C79.0793 28.7527 78.076 29.14 76.62 29.14C75.1733 29.14 74.1747 28.7433 73.624 27.95C73.0733 27.1567 72.798 25.9107 72.798 24.212C72.798 22.504 73.078 21.2393 73.638 20.418C74.198 19.5873 75.192 19.172 76.62 19.172C78.048 19.172 79.042 19.5827 79.602 20.404C80.1713 21.2253 80.456 22.4993 80.456 24.226ZM82.2502 29V22H83.2862V22.952C84.0982 22.392 84.9522 22.0233 85.8482 21.846V22.91C85.4562 22.9847 85.0455 23.1013 84.6162 23.26C84.1962 23.4187 83.8742 23.5587 83.6502 23.68L83.3002 23.862V29H82.2502ZM89.6963 32.29C88.5763 32.29 87.7923 32.136 87.3443 31.828C86.9057 31.5293 86.6863 30.9787 86.6863 30.176C86.6863 29.7933 86.7703 29.4807 86.9383 29.238C87.1063 29.0047 87.391 28.7387 87.7923 28.44C87.531 28.2627 87.4003 27.9407 87.4003 27.474C87.4003 27.3153 87.517 27.0213 87.7503 26.592L87.8763 26.368C87.139 26.032 86.7703 25.3273 86.7703 24.254C86.7703 22.658 87.643 21.86 89.3883 21.86C89.8363 21.86 90.2517 21.9067 90.6343 22L90.8443 22.042L92.9163 21.986V22.882L91.5863 22.854C91.8943 23.162 92.0483 23.6287 92.0483 24.254C92.0483 25.1313 91.829 25.7473 91.3903 26.102C90.961 26.4473 90.2797 26.62 89.3463 26.62C89.0943 26.62 88.8657 26.6013 88.6603 26.564C88.4923 26.9747 88.4083 27.2407 88.4083 27.362C88.4083 27.6513 88.497 27.8333 88.6743 27.908C88.8517 27.9733 89.3883 28.006 90.2843 28.006C91.1803 28.006 91.8243 28.146 92.2163 28.426C92.6083 28.706 92.8043 29.252 92.8043 30.064C92.8043 31.548 91.7683 32.29 89.6963 32.29ZM87.7223 30.092C87.7223 30.5867 87.8577 30.9273 88.1283 31.114C88.4083 31.31 88.917 31.408 89.6543 31.408C90.401 31.408 90.933 31.3053 91.2503 31.1C91.577 30.8947 91.7403 30.5493 91.7403 30.064C91.7403 29.588 91.6237 29.28 91.3903 29.14C91.157 29 90.6997 28.93 90.0183 28.93L88.5063 28.86C88.1983 29.084 87.9883 29.28 87.8763 29.448C87.7737 29.616 87.7223 29.8307 87.7223 30.092ZM87.8203 24.254C87.8203 24.8047 87.9417 25.1967 88.1843 25.43C88.4363 25.6633 88.847 25.78 89.4163 25.78C89.9857 25.78 90.3917 25.6633 90.6343 25.43C90.877 25.1967 90.9983 24.8047 90.9983 24.254C90.9983 23.694 90.877 23.2973 90.6343 23.064C90.3917 22.8307 89.9857 22.714 89.4163 22.714C88.847 22.714 88.4363 22.8353 88.1843 23.078C87.9417 23.3113 87.8203 23.7033 87.8203 24.254ZM99.1277 24.114V27.698C99.1557 28.0433 99.4264 28.2487 99.9397 28.314L99.8977 29.14C99.1604 29.14 98.6051 28.9533 98.2317 28.58C97.3917 28.9533 96.5517 29.14 95.7117 29.14C95.0677 29.14 94.5777 28.958 94.2417 28.594C93.9057 28.23 93.7377 27.7073 93.7377 27.026C93.7377 26.3447 93.9104 25.8453 94.2557 25.528C94.6011 25.2013 95.1424 25.0007 95.8797 24.926L98.0777 24.716V24.114C98.0777 23.638 97.9751 23.2973 97.7697 23.092C97.5644 22.8867 97.2844 22.784 96.9297 22.784C96.1831 22.784 95.4084 22.8307 94.6057 22.924L94.1717 22.966L94.1297 22.168C95.1564 21.9627 96.0664 21.86 96.8597 21.86C97.6531 21.86 98.2271 22.042 98.5817 22.406C98.9457 22.77 99.1277 23.3393 99.1277 24.114ZM94.8157 26.97C94.8157 27.8287 95.1704 28.258 95.8797 28.258C96.5144 28.258 97.1397 28.1507 97.7557 27.936L98.0777 27.824V25.514L96.0057 25.71C95.5857 25.7473 95.2824 25.8687 95.0957 26.074C94.9091 26.2793 94.8157 26.578 94.8157 26.97ZM102.249 29H101.199V22H102.235V22.49C102.991 22.07 103.715 21.86 104.405 21.86C105.339 21.86 105.964 22.112 106.281 22.616C106.608 23.12 106.771 24.016 106.771 25.304V29H105.735V25.332C105.735 24.3613 105.637 23.6987 105.441 23.344C105.255 22.98 104.849 22.798 104.223 22.798C103.925 22.798 103.607 22.8447 103.271 22.938C102.945 23.022 102.693 23.106 102.515 23.19L102.249 23.316V29ZM108.719 29V22H109.769V29H108.719ZM108.719 20.418V19.2H109.769V20.418H108.719ZM111.361 22.938V22H116.555V22.938L112.635 28.062H116.555V29H111.361V28.062L115.281 22.938H111.361ZM123.095 24.114V27.698C123.123 28.0433 123.393 28.2487 123.907 28.314L123.865 29.14C123.127 29.14 122.572 28.9533 122.199 28.58C121.359 28.9533 120.519 29.14 119.679 29.14C119.035 29.14 118.545 28.958 118.209 28.594C117.873 28.23 117.705 27.7073 117.705 27.026C117.705 26.3447 117.877 25.8453 118.223 25.528C118.568 25.2013 119.109 25.0007 119.847 24.926L122.045 24.716V24.114C122.045 23.638 121.942 23.2973 121.737 23.092C121.531 22.8867 121.251 22.784 120.897 22.784C120.15 22.784 119.375 22.8307 118.573 22.924L118.139 22.966L118.097 22.168C119.123 21.9627 120.033 21.86 120.827 21.86C121.62 21.86 122.194 22.042 122.549 22.406C122.913 22.77 123.095 23.3393 123.095 24.114ZM118.783 26.97C118.783 27.8287 119.137 28.258 119.847 28.258C120.481 28.258 121.107 28.1507 121.723 27.936L122.045 27.824V25.514L119.973 25.71C119.553 25.7473 119.249 25.8687 119.063 26.074C118.876 26.2793 118.783 26.578 118.783 26.97ZM128.792 22.91H126.566V26.256C126.566 27.0587 126.622 27.586 126.734 27.838C126.856 28.09 127.136 28.216 127.574 28.216L128.82 28.132L128.89 29C128.265 29.1027 127.789 29.154 127.462 29.154C126.734 29.154 126.23 28.9767 125.95 28.622C125.67 28.2673 125.53 27.5907 125.53 26.592V22.91H124.536V22H125.53V19.858H126.566V22H128.792V22.91ZM130.074 29V22H131.124V29H130.074ZM130.074 20.418V19.2H131.124V20.418H130.074ZM132.829 25.486C132.829 24.2073 133.058 23.2833 133.515 22.714C133.972 22.1447 134.742 21.86 135.825 21.86C136.917 21.86 137.687 22.1447 138.135 22.714C138.592 23.2833 138.821 24.2073 138.821 25.486C138.821 26.7647 138.606 27.6933 138.177 28.272C137.748 28.8507 136.964 29.14 135.825 29.14C134.686 29.14 133.902 28.8507 133.473 28.272C133.044 27.6933 132.829 26.7647 132.829 25.486ZM133.907 25.472C133.907 26.4893 134.028 27.2033 134.271 27.614C134.523 28.0247 135.041 28.23 135.825 28.23C136.618 28.23 137.136 28.0293 137.379 27.628C137.622 27.2173 137.743 26.4987 137.743 25.472C137.743 24.4453 137.608 23.7407 137.337 23.358C137.066 22.966 136.562 22.77 135.825 22.77C135.097 22.77 134.593 22.966 134.313 23.358C134.042 23.7407 133.907 24.4453 133.907 25.472ZM141.583 29H140.533V22H141.569V22.49C142.325 22.07 143.049 21.86 143.739 21.86C144.673 21.86 145.298 22.112 145.615 22.616C145.942 23.12 146.105 24.016 146.105 25.304V29H145.069V25.332C145.069 24.3613 144.971 23.6987 144.775 23.344C144.589 22.98 144.183 22.798 143.557 22.798C143.259 22.798 142.941 22.8447 142.605 22.938C142.279 23.022 142.027 23.106 141.849 23.19L141.583 23.316V29ZM152.179 29H151.129V22H152.165V22.49C152.921 22.07 153.644 21.86 154.335 21.86C155.268 21.86 155.894 22.112 156.211 22.616C156.538 23.12 156.701 24.016 156.701 25.304V29H155.665V25.332C155.665 24.3613 155.567 23.6987 155.371 23.344C155.184 22.98 154.778 22.798 154.153 22.798C153.854 22.798 153.537 22.8447 153.201 22.938C152.874 23.022 152.622 23.106 152.445 23.19L152.179 23.316V29ZM163.591 24.114V27.698C163.619 28.0433 163.889 28.2487 164.403 28.314L164.361 29.14C163.623 29.14 163.068 28.9533 162.695 28.58C161.855 28.9533 161.015 29.14 160.175 29.14C159.531 29.14 159.041 28.958 158.705 28.594C158.369 28.23 158.201 27.7073 158.201 27.026C158.201 26.3447 158.373 25.8453 158.719 25.528C159.064 25.2013 159.605 25.0007 160.343 24.926L162.541 24.716V24.114C162.541 23.638 162.438 23.2973 162.233 23.092C162.027 22.8867 161.747 22.784 161.393 22.784C160.646 22.784 159.871 22.8307 159.069 22.924L158.635 22.966L158.593 22.168C159.619 21.9627 160.529 21.86 161.323 21.86C162.116 21.86 162.69 22.042 163.045 22.406C163.409 22.77 163.591 23.3393 163.591 24.114ZM159.279 26.97C159.279 27.8287 159.633 28.258 160.343 28.258C160.977 28.258 161.603 28.1507 162.219 27.936L162.541 27.824V25.514L160.469 25.71C160.049 25.7473 159.745 25.8687 159.559 26.074C159.372 26.2793 159.279 26.578 159.279 26.97ZM166.712 29H165.662V22H166.698V22.49C167.398 22.07 168.08 21.86 168.742 21.86C169.61 21.86 170.217 22.098 170.562 22.574C170.87 22.3873 171.267 22.224 171.752 22.084C172.247 21.9347 172.681 21.86 173.054 21.86C173.988 21.86 174.613 22.112 174.93 22.616C175.257 23.1107 175.42 24.0067 175.42 25.304V29H174.37V25.332C174.37 24.3613 174.277 23.6987 174.09 23.344C173.904 22.98 173.507 22.798 172.9 22.798C172.592 22.798 172.275 22.8447 171.948 22.938C171.622 23.022 171.37 23.106 171.192 23.19L170.926 23.316C171.048 23.624 171.108 24.3053 171.108 25.36V29H170.058V25.388C170.058 24.38 169.965 23.6987 169.778 23.344C169.601 22.98 169.204 22.798 168.588 22.798C168.29 22.798 167.982 22.8447 167.664 22.938C167.356 23.022 167.118 23.106 166.95 23.19L166.712 23.316V29ZM182.125 28.132L182.531 28.09L182.559 28.916C181.495 29.0653 180.585 29.14 179.829 29.14C178.821 29.14 178.107 28.8507 177.687 28.272C177.267 27.684 177.057 26.774 177.057 25.542C177.057 23.0873 178.033 21.86 179.983 21.86C180.926 21.86 181.631 22.126 182.097 22.658C182.564 23.1807 182.797 24.0067 182.797 25.136L182.741 25.934H178.121C178.121 26.7087 178.261 27.2827 178.541 27.656C178.821 28.0293 179.307 28.216 179.997 28.216C180.697 28.216 181.407 28.188 182.125 28.132ZM181.747 25.094C181.747 24.2353 181.607 23.6287 181.327 23.274C181.057 22.9193 180.609 22.742 179.983 22.742C179.367 22.742 178.901 22.9287 178.583 23.302C178.275 23.6753 178.117 24.2727 178.107 25.094H181.747Z" fill="white"/>
<g clip-path="url(#clip1_4184_74855)">
<path d="M1322.11 29V19.41H1328.15V20.768H1323.66V23.484H1327.31V24.828H1323.66V27.628H1328.15V29H1322.11ZM1329.84 29V19.41H1332.56L1335.47 27.628H1335.68V19.41H1337.24V29H1334.58L1331.59 20.768H1331.4V29H1329.84ZM1343.35 25.332V23.96H1346.08V28.832C1345.83 28.8973 1345.31 28.9673 1344.54 29.042C1343.77 29.1167 1343.22 29.154 1342.87 29.154C1341.42 29.154 1340.41 28.7527 1339.86 27.95C1339.31 27.1473 1339.04 25.892 1339.04 24.184C1339.04 22.4667 1339.32 21.216 1339.88 20.432C1340.45 19.648 1341.43 19.256 1342.82 19.256C1343.64 19.256 1344.56 19.3493 1345.59 19.536L1346.08 19.634L1346.02 20.866C1344.89 20.7167 1343.88 20.642 1342.98 20.642C1342.09 20.642 1341.47 20.894 1341.14 21.398C1340.81 21.902 1340.65 22.8353 1340.65 24.198C1340.65 25.5607 1340.8 26.5033 1341.11 27.026C1341.43 27.5393 1342.06 27.796 1343.01 27.796C1343.69 27.796 1344.2 27.754 1344.54 27.67V25.332H1343.35Z" fill="white"/>
<path d="M1363 27.1998L1357.4 21.5998L1358.1 20.7998L1363 25.6998L1367.9 20.7998L1368.6 21.5998L1363 27.1998Z" fill="white"/>
</g>
<rect width="1440" height="93" transform="translate(0 47.999)" fill="#F2F7FC"/>
<rect x="72.5" y="72.499" width="155.768" height="44" fill="#F2F7FC"/>
<rect x="72.5" y="72.499" width="155.768" height="44" stroke="#C5C7C9"/>
<line x1="72.9301" y1="72.5496" x2="228.124" y2="115.79" stroke="#C5C7C9"/>
<path d="M193.966 98.7794C194.386 99.5074 195.163 99.8714 196.297 99.8714C197.431 99.8714 198.201 99.5074 198.607 98.7794C199.027 98.0374 199.237 96.8054 199.237 95.0834C199.237 93.3474 199.027 92.0874 198.607 91.3034C198.187 90.5194 197.417 90.1274 196.297 90.1274C195.177 90.1274 194.407 90.5194 193.987 91.3034C193.567 92.0874 193.357 93.3474 193.357 95.0834C193.357 96.8054 193.56 98.0374 193.966 98.7794ZM200.875 100.627C199.993 101.803 198.467 102.391 196.297 102.391C194.127 102.391 192.594 101.803 191.698 100.627C190.816 99.4374 190.375 97.5824 190.375 95.0624C190.375 92.5424 190.816 90.6734 191.698 89.4554C192.594 88.2234 194.127 87.6074 196.297 87.6074C198.467 87.6074 199.993 88.2234 200.875 89.4554C201.771 90.6734 202.219 92.5424 202.219 95.0624C202.219 97.5824 201.771 99.4374 200.875 100.627Z" fill="black"/>
<path d="M184.11 97.0154V94.4954H188.268V101.908C186.266 102.23 184.642 102.391 183.396 102.391C181.17 102.391 179.637 101.796 178.797 100.606C177.971 99.4164 177.558 97.5264 177.558 94.9364C177.558 92.3464 177.992 90.4774 178.86 89.3294C179.728 88.1814 181.205 87.6074 183.291 87.6074C184.593 87.6074 186 87.7544 187.512 88.0484L188.268 88.1954L188.184 90.4424C186.504 90.2604 185.125 90.1694 184.047 90.1694C182.983 90.1694 182.234 90.2954 181.8 90.5474C181.366 90.7994 181.044 91.2684 180.834 91.9544C180.638 92.6264 180.54 93.7884 180.54 95.4404C180.54 97.0784 180.743 98.2264 181.149 98.8844C181.555 99.5424 182.395 99.8714 183.669 99.8714L185.412 99.7874V97.0154H184.11Z" fill="black"/>
<path d="M167.429 98.7794C167.849 99.5074 168.626 99.8714 169.76 99.8714C170.894 99.8714 171.664 99.5074 172.07 98.7794C172.49 98.0374 172.7 96.8054 172.7 95.0834C172.7 93.3474 172.49 92.0874 172.07 91.3034C171.65 90.5194 170.88 90.1274 169.76 90.1274C168.64 90.1274 167.87 90.5194 167.45 91.3034C167.03 92.0874 166.82 93.3474 166.82 95.0834C166.82 96.8054 167.023 98.0374 167.429 98.7794ZM174.338 100.627C173.456 101.803 171.93 102.391 169.76 102.391C167.59 102.391 166.057 101.803 165.161 100.627C164.279 99.4374 163.838 97.5824 163.838 95.0624C163.838 92.5424 164.279 90.6734 165.161 89.4554C166.057 88.2234 167.59 87.6074 169.76 87.6074C171.93 87.6074 173.456 88.2234 174.338 89.4554C175.234 90.6734 175.682 92.5424 175.682 95.0624C175.682 97.5824 175.234 99.4374 174.338 100.627Z" fill="black"/>
<path d="M162.813 102.139H154.686V87.8594H157.584V99.5774H162.813V102.139Z" fill="black"/>
<path d="M103.147 101.896H100.348V96.3179L96.0879 88.1028H99.1914L101.727 93.5998L104.262 88.1028H107.366L103.147 96.3179V101.896Z" fill="black"/>
<path d="M111.165 98.6505C111.571 99.3537 112.322 99.7053 113.417 99.7053C114.512 99.7053 115.256 99.3537 115.648 98.6505C116.054 97.9338 116.257 96.7438 116.257 95.0805C116.257 93.4037 116.054 92.1867 115.648 91.4294C115.243 90.6721 114.499 90.2935 113.417 90.2935C112.335 90.2935 111.591 90.6721 111.186 91.4294C110.78 92.1867 110.577 93.4037 110.577 95.0805C110.577 96.7438 110.773 97.9338 111.165 98.6505ZM117.839 100.436C116.987 101.571 115.513 102.139 113.417 102.139C111.321 102.139 109.84 101.571 108.975 100.436C108.123 99.2861 107.697 97.4943 107.697 95.0602C107.697 92.6261 108.123 90.8209 108.975 89.6444C109.84 88.4544 111.321 87.8594 113.417 87.8594C115.513 87.8594 116.987 88.4544 117.839 89.6444C118.704 90.8209 119.137 92.6261 119.137 95.0602C119.137 97.4943 118.704 99.2861 117.839 100.436Z" fill="black"/>
<path d="M124.215 97.2915C124.215 98.9007 125.033 99.7053 126.67 99.7053C128.306 99.7053 129.124 98.9007 129.124 97.2915V88.1028H131.923V97.2306C131.923 98.921 131.484 100.165 130.605 100.963C129.739 101.747 128.427 102.139 126.67 102.139C124.912 102.139 123.593 101.747 122.714 100.963C121.849 100.165 121.416 98.921 121.416 97.2306V88.1028H124.215V97.2915Z" fill="black"/>
<path d="M137.609 97.2712V101.896H134.809V88.1028H140.165C143.41 88.1028 145.033 89.6173 145.033 92.6464C145.033 94.445 144.357 95.7702 143.004 96.6221L144.972 101.896H141.909L140.306 97.2712H137.609ZM140.205 94.8777C140.868 94.8777 141.361 94.6748 141.686 94.2692C142.01 93.8635 142.173 93.3293 142.173 92.6667C142.173 92.0041 141.997 91.4767 141.645 91.0846C141.307 90.6924 140.814 90.4963 140.165 90.4963H137.609V94.8777H140.205Z" fill="black"/>
<path d="M252.769 59.999V128.999" stroke="#C5C7C9" stroke-linejoin="round"/>
<path d="M288.796 78.499C288.996 78.4978 289.202 78.5465 289.396 78.6563L302.18 85.8272C303.105 86.3459 303.537 87.1831 303.537 88.1436L303.528 108.387C303.528 109.092 302.953 109.6 302.32 109.605C302.12 109.606 301.914 109.556 301.719 109.446L293.695 104.946V92.1543C293.695 91.1938 293.264 90.3529 292.338 89.8379L288.049 87.4502V109.282C288.049 109.988 287.473 110.494 286.841 110.499C286.641 110.5 286.435 110.451 286.239 110.341L278.126 105.778C277.201 105.26 276.769 104.423 276.769 103.462L276.788 82.1729C276.789 81.4675 277.364 80.9612 277.996 80.9561C278.196 80.9549 278.403 81.0035 278.599 81.1133L287.623 86.1748L287.588 79.7158C287.584 79.0105 288.164 78.5041 288.796 78.499ZM381.396 88.9971C385.874 88.9971 388.463 91.2507 388.463 95.0821V100.03C388.463 100.663 388.74 100.971 389.203 100.971H389.801L389.799 100.974C390.026 100.974 390.196 101.147 390.196 101.374V104.557C390.196 104.784 390.035 104.955 389.808 104.955H386.982C385.751 104.955 384.738 104.509 384.147 103.81C382.811 104.852 381.112 105.38 379.3 105.38C375.886 105.38 373.864 103.51 373.864 100.3C373.864 97.2643 375.672 95.7227 379.657 95.4541L383.453 95.1973V94.5723C383.452 93.2762 382.553 92.5576 381.069 92.5576C380.037 92.5577 379.362 92.9078 379.045 93.5069C378.906 93.7681 378.771 93.8584 378.533 93.8584H374.294C374.055 93.8583 373.897 93.7201 373.894 93.5176C373.891 93.3907 373.952 93.1994 374.058 92.9483C375.071 90.556 377.707 88.9972 381.396 88.9971ZM415.526 88.9971C420.278 88.9971 423.132 91.8921 423.132 96.4483V97.9531C423.132 98.1801 422.961 98.3534 422.734 98.3535H412.578C412.71 100.231 413.541 101.76 415.688 101.76C416.696 101.76 417.502 101.421 417.914 100.776C418.071 100.531 418.216 100.459 418.354 100.459H422.421C422.744 100.459 422.852 100.655 422.854 100.871C422.855 100.994 422.818 101.125 422.735 101.341C421.76 103.881 419.361 105.38 415.788 105.38C410.715 105.38 407.729 102.311 407.729 97.1778C407.729 92.0445 410.655 88.9977 415.526 88.9971ZM373.747 83.6192V83.6201C374.002 83.6201 374.21 83.8599 374.166 84.1114L370.569 104.619C370.535 104.817 370.364 104.956 370.164 104.956H364.048C363.854 104.956 363.692 104.824 363.65 104.635L360.383 89.6436H360.088L356.82 104.635C356.779 104.824 356.614 104.956 356.421 104.956H350.304C350.105 104.956 349.937 104.816 349.902 104.619L346.305 84.1114C346.261 83.8599 346.467 83.6201 346.722 83.6201H350.76C350.961 83.6201 351.134 83.774 351.167 83.9717L353.591 98.4727H353.855L356.953 83.9551C356.995 83.7648 357.17 83.6204 357.364 83.6201H363.307C363.502 83.6202 363.661 83.7647 363.701 83.9551L366.737 98.5H367L369.457 83.9727C369.49 83.7739 369.651 83.6192 369.853 83.6192H373.747ZM319.086 83.6182C319.313 83.6182 319.484 83.7849 319.484 84.0117V104.557C319.484 104.784 319.312 104.955 319.085 104.955H314.563C314.337 104.955 314.165 104.784 314.165 104.557L314.156 84.0137C314.156 83.7868 314.337 83.6194 314.563 83.6192H319.086V83.6182ZM337.841 83.6182C338.069 83.6185 338.239 83.8192 338.239 84.0459V87.5723H338.238C338.238 87.8004 338.068 87.9997 337.841 88H332.209V104.556C332.209 104.783 332.008 104.954 331.781 104.954H327.315C327.088 104.954 326.89 104.779 326.89 104.552V87.9981H321.255C321.028 87.998 320.858 87.7983 320.858 87.5713V84.044C320.858 83.8169 321.031 83.6182 321.258 83.6182H337.841ZM396.068 83.6192C396.296 83.6193 396.467 83.7899 396.467 84.0166V99.9492C396.467 100.584 396.831 100.971 397.466 100.971H398.43C398.657 100.971 398.855 101.139 398.855 101.366V104.559C398.855 104.785 398.676 104.954 398.449 104.954H396.244C392.918 104.955 391.317 103.482 391.317 100.459V84.0166C391.318 83.7898 391.489 83.6192 391.716 83.6192H396.068ZM404.604 83.6192C404.831 83.6192 405.014 83.7898 405.015 84.0166V99.9492C405.015 100.584 405.366 100.971 406.001 100.971H406.967C407.194 100.971 407.405 101.15 407.405 101.377V104.559C407.405 104.785 407.213 104.954 406.986 104.954H404.78C401.454 104.955 399.854 103.482 399.854 100.459V84.0166C399.855 83.7899 400.025 83.6193 400.252 83.6192H404.604ZM430.311 85.1826C430.537 85.1828 430.709 85.3534 430.709 85.5801V89.4219H433.326C433.554 89.4219 433.754 89.5925 433.754 89.8194V93.0049C433.754 93.233 433.58 93.4032 433.354 93.4033H430.709V99.9483C430.709 100.583 431.07 100.97 431.704 100.97H433.355C433.582 100.97 433.754 101.17 433.754 101.397V104.555C433.754 104.782 433.581 104.952 433.354 104.952H431.109C427.428 104.952 425.589 103.14 425.589 99.5489V93.4033H423.768C423.54 93.4031 423.37 93.2308 423.37 93.0039V89.8194C423.37 89.5925 423.569 89.421 423.796 89.4209H425.588V85.5879C425.588 85.361 425.783 85.1829 426.01 85.1826H430.311ZM380.746 98.5313C379.283 98.6411 378.754 99.1659 378.754 100.09C378.754 101.126 379.418 101.76 380.775 101.76C381.613 101.76 382.522 101.52 383.456 100.915H383.457V98.3272L380.746 98.5313ZM344.951 94.2578L344.953 94.2588C345.18 94.259 345.352 94.4304 345.352 94.6572V98.0137C345.351 98.2406 345.177 98.4112 344.95 98.4112H336.769C336.54 98.4111 336.363 98.2416 336.361 98.0147V94.6533C336.361 94.4251 336.531 94.2549 336.758 94.2549L344.951 94.2578ZM415.525 92.2549C413.77 92.2549 412.609 93.333 412.598 95.0918H418.344C418.369 93.3195 417.281 92.2549 415.525 92.2549Z" fill="#0066CC"/>
<rect width="1440" height="459.604" transform="translate(0 172.999)" fill="white"/>
<path d="M577.193 230.879C577.833 231.988 579.017 232.543 580.745 232.543C582.473 232.543 583.646 231.988 584.265 230.879C584.905 229.748 585.225 227.871 585.225 225.247C585.225 222.602 584.905 220.682 584.265 219.487C583.625 218.292 582.451 217.695 580.745 217.695C579.038 217.695 577.865 218.292 577.225 219.487C576.585 220.682 576.265 222.602 576.265 225.247C576.265 227.871 576.574 229.748 577.193 230.879ZM587.721 233.695C586.377 235.487 584.051 236.383 580.745 236.383C577.438 236.383 575.102 235.487 573.737 233.695C572.393 231.882 571.721 229.055 571.721 225.215C571.721 221.375 572.393 218.527 573.737 216.671C575.102 214.794 577.438 213.855 580.745 213.855C584.051 213.855 586.377 214.794 587.721 216.671C589.086 218.527 589.769 221.375 589.769 225.215C589.769 229.055 589.086 231.882 587.721 233.695ZM593.172 242.719V219.999H597.428V220.863C598.814 220.031 600.03 219.615 601.076 219.615C603.23 219.615 604.82 220.266 605.844 221.567C606.868 222.847 607.38 225.034 607.38 228.127C607.38 231.22 606.814 233.375 605.684 234.591C604.553 235.786 602.697 236.383 600.116 236.383C599.412 236.383 598.654 236.319 597.844 236.191L597.46 236.127V242.719H593.172ZM600.244 223.455C599.454 223.455 598.654 223.615 597.844 223.935L597.46 224.095V232.479C598.42 232.607 599.198 232.671 599.796 232.671C601.033 232.671 601.876 232.308 602.324 231.583C602.793 230.858 603.028 229.62 603.028 227.871C603.028 224.927 602.1 223.455 600.244 223.455ZM614.098 229.823C614.119 230.804 614.375 231.519 614.866 231.967C615.378 232.394 616.103 232.607 617.042 232.607C619.026 232.607 620.796 232.543 622.354 232.415L623.25 232.319L623.314 235.487C620.86 236.084 618.642 236.383 616.658 236.383C614.247 236.383 612.498 235.743 611.41 234.463C610.322 233.183 609.778 231.103 609.778 228.223C609.778 222.484 612.135 219.615 616.85 219.615C621.5 219.615 623.826 222.026 623.826 226.847L623.506 229.823H614.098ZM619.602 226.559C619.602 225.279 619.399 224.394 618.994 223.903C618.588 223.391 617.874 223.135 616.85 223.135C615.847 223.135 615.132 223.402 614.706 223.935C614.3 224.447 614.087 225.322 614.066 226.559H619.602ZM626.89 235.999V219.999H631.146V221.695C632.938 220.628 634.645 219.935 636.266 219.615V223.935C634.538 224.298 633.056 224.671 631.818 225.055L631.178 225.279V235.999H626.89ZM651.053 224.991V231.647C651.095 232.159 651.181 232.522 651.309 232.735C651.437 232.927 651.703 233.066 652.109 233.151L651.981 236.383C650.893 236.383 650.018 236.308 649.357 236.159C648.717 236.01 648.066 235.711 647.405 235.263C645.869 236.01 644.301 236.383 642.701 236.383C639.394 236.383 637.741 234.634 637.741 231.135C637.741 229.428 638.199 228.223 639.117 227.519C640.034 226.794 641.442 226.367 643.341 226.239L646.765 225.983V224.991C646.765 224.33 646.615 223.882 646.317 223.647C646.018 223.391 645.538 223.263 644.877 223.263L638.861 223.519L638.733 220.543C641.015 219.924 643.181 219.615 645.229 219.615C647.298 219.615 648.781 220.042 649.677 220.895C650.594 221.748 651.053 223.114 651.053 224.991ZM643.853 229.215C642.658 229.322 642.061 229.962 642.061 231.135C642.061 232.308 642.583 232.895 643.629 232.895C644.439 232.895 645.325 232.767 646.285 232.511L646.765 232.383V228.959L643.853 229.215ZM664.004 223.647H660.068V230.207C660.068 230.847 660.079 231.306 660.1 231.583C660.143 231.839 660.26 232.063 660.452 232.255C660.666 232.447 660.986 232.543 661.412 232.543L663.844 232.479L664.036 235.903C662.607 236.223 661.519 236.383 660.772 236.383C658.852 236.383 657.54 235.956 656.836 235.103C656.132 234.228 655.78 232.628 655.78 230.303V223.647H653.892V219.999H655.78V215.551H660.068V219.999H664.004V223.647ZM666.797 235.999V219.999H671.085V235.999H666.797ZM666.797 217.951V213.599H671.085V217.951H666.797ZM675.911 221.823C677.041 220.351 678.929 219.615 681.575 219.615C684.22 219.615 686.108 220.351 687.239 221.823C688.369 223.274 688.935 225.322 688.935 227.967C688.935 233.578 686.481 236.383 681.575 236.383C676.668 236.383 674.215 233.578 674.215 227.967C674.215 225.322 674.78 223.274 675.911 221.823ZM679.207 231.583C679.655 232.351 680.444 232.735 681.575 232.735C682.705 232.735 683.484 232.351 683.911 231.583C684.359 230.815 684.583 229.61 684.583 227.967C684.583 226.324 684.359 225.13 683.911 224.383C683.484 223.636 682.705 223.263 681.575 223.263C680.444 223.263 679.655 223.636 679.207 224.383C678.78 225.13 678.567 226.324 678.567 227.967C678.567 229.61 678.78 230.815 679.207 231.583ZM696.366 235.999H692.078V219.999H696.334V220.895C697.784 220.042 699.118 219.615 700.334 219.615C702.467 219.615 703.939 220.244 704.75 221.503C705.56 222.762 705.966 224.703 705.966 227.327V235.999H701.678V227.455C701.678 226.09 701.518 225.087 701.198 224.447C700.878 223.786 700.238 223.455 699.278 223.455C698.403 223.455 697.56 223.604 696.75 223.903L696.366 224.031V235.999ZM722.781 219.615C723.89 219.615 725.309 219.786 727.037 220.127L727.901 220.319L727.773 223.711C726.087 223.54 724.839 223.455 724.029 223.455C722.557 223.455 721.575 223.775 721.085 224.415C720.615 225.034 720.381 226.218 720.381 227.967C720.381 229.716 720.615 230.922 721.085 231.583C721.575 232.223 722.567 232.543 724.061 232.543L727.773 232.287L727.901 235.711C725.618 236.159 723.879 236.383 722.685 236.383C720.317 236.383 718.61 235.722 717.565 234.399C716.541 233.055 716.029 230.911 716.029 227.967C716.029 225.023 716.562 222.9 717.629 221.599C718.695 220.276 720.413 219.615 722.781 219.615ZM731.817 221.823C732.947 220.351 734.835 219.615 737.481 219.615C740.126 219.615 742.014 220.351 743.145 221.823C744.275 223.274 744.841 225.322 744.841 227.967C744.841 233.578 742.387 236.383 737.481 236.383C732.574 236.383 730.121 233.578 730.121 227.967C730.121 225.322 730.686 223.274 731.817 221.823ZM735.113 231.583C735.561 232.351 736.35 232.735 737.481 232.735C738.611 232.735 739.39 232.351 739.817 231.583C740.265 230.815 740.489 229.61 740.489 227.967C740.489 226.324 740.265 225.13 739.817 224.383C739.39 223.636 738.611 223.263 737.481 223.263C736.35 223.263 735.561 223.636 735.113 224.383C734.686 225.13 734.473 226.324 734.473 227.967C734.473 229.61 734.686 230.815 735.113 231.583ZM752.272 235.999H747.984V219.999H752.24V220.895C753.712 220.042 754.971 219.615 756.016 219.615C757.744 219.615 759.077 220.116 760.016 221.119C761.979 220.116 763.771 219.615 765.392 219.615C767.504 219.615 768.965 220.234 769.776 221.471C770.608 222.687 771.024 224.639 771.024 227.327V235.999H766.736V227.455C766.736 226.09 766.587 225.087 766.288 224.447C765.989 223.786 765.392 223.455 764.496 223.455C763.813 223.455 762.981 223.604 762 223.903L761.52 224.063C761.605 225.663 761.648 226.879 761.648 227.711V235.999H757.36V227.775C757.36 226.196 757.221 225.087 756.944 224.447C756.667 223.786 756.059 223.455 755.12 223.455C754.288 223.455 753.467 223.604 752.656 223.903L752.272 224.031V235.999ZM774.828 242.719V219.999H779.084V220.863C780.47 220.031 781.686 219.615 782.732 219.615C784.886 219.615 786.476 220.266 787.5 221.567C788.524 222.847 789.036 225.034 789.036 228.127C789.036 231.22 788.47 233.375 787.34 234.591C786.209 235.786 784.353 236.383 781.772 236.383C781.068 236.383 780.31 236.319 779.5 236.191L779.116 236.127V242.719H774.828ZM781.9 223.455C781.11 223.455 780.31 223.615 779.5 223.935L779.116 224.095V232.479C780.076 232.607 780.854 232.671 781.452 232.671C782.689 232.671 783.532 232.308 783.98 231.583C784.449 230.858 784.684 229.62 784.684 227.871C784.684 224.927 783.756 223.455 781.9 223.455ZM792.426 235.999V213.599H796.714V235.999H792.426ZM804.379 229.823C804.4 230.804 804.656 231.519 805.147 231.967C805.659 232.394 806.384 232.607 807.323 232.607C809.307 232.607 811.078 232.543 812.635 232.415L813.531 232.319L813.595 235.487C811.142 236.084 808.923 236.383 806.939 236.383C804.528 236.383 802.779 235.743 801.691 234.463C800.603 233.183 800.059 231.103 800.059 228.223C800.059 222.484 802.416 219.615 807.131 219.615C811.782 219.615 814.107 222.026 814.107 226.847L813.787 229.823H804.379ZM809.883 226.559C809.883 225.279 809.68 224.394 809.275 223.903C808.87 223.391 808.155 223.135 807.131 223.135C806.128 223.135 805.414 223.402 804.987 223.935C804.582 224.447 804.368 225.322 804.347 226.559H809.883ZM826.036 223.647H822.1V230.207C822.1 230.847 822.11 231.306 822.132 231.583C822.174 231.839 822.292 232.063 822.484 232.255C822.697 232.447 823.017 232.543 823.444 232.543L825.876 232.479L826.068 235.903C824.638 236.223 823.55 236.383 822.804 236.383C820.884 236.383 819.572 235.956 818.868 235.103C818.164 234.228 817.812 232.628 817.812 230.303V223.647H815.924V219.999H817.812V215.551H822.1V219.999H826.036V223.647ZM832.348 229.823C832.369 230.804 832.625 231.519 833.116 231.967C833.628 232.394 834.353 232.607 835.292 232.607C837.276 232.607 839.046 232.543 840.604 232.415L841.5 232.319L841.564 235.487C839.11 236.084 836.892 236.383 834.908 236.383C832.497 236.383 830.748 235.743 829.66 234.463C828.572 233.183 828.028 231.103 828.028 228.223C828.028 222.484 830.385 219.615 835.1 219.615C839.75 219.615 842.076 222.026 842.076 226.847L841.756 229.823H832.348ZM837.852 226.559C837.852 225.279 837.649 224.394 837.244 223.903C836.838 223.391 836.124 223.135 835.1 223.135C834.097 223.135 833.382 223.402 832.956 223.935C832.55 224.447 832.337 225.322 832.316 226.559H837.852ZM858.74 213.599V235.999H854.484V235.327C852.991 236.031 851.7 236.383 850.612 236.383C848.287 236.383 846.666 235.711 845.748 234.367C844.831 233.023 844.372 230.9 844.372 227.999C844.372 225.076 844.916 222.954 846.004 221.631C847.114 220.287 848.778 219.615 850.996 219.615C851.679 219.615 852.628 219.722 853.844 219.935L854.452 220.063V213.599H858.74ZM854.004 232.159L854.452 232.063V223.647C853.279 223.434 852.234 223.327 851.316 223.327C849.588 223.327 848.724 224.863 848.724 227.935C848.724 229.599 848.916 230.783 849.3 231.487C849.684 232.191 850.314 232.543 851.188 232.543C852.084 232.543 853.023 232.415 854.004 232.159ZM862.895 235.999V230.847H867.503V235.999H862.895ZM863.311 227.999L862.895 214.239H867.535L867.087 227.999H863.311Z" fill="#17324D"/>
<path d="M742.867 406.493C721.603 392.219 707.935 360.605 712.333 335.879C716.731 311.153 737.539 302.681 758.797 316.955C780.061 331.229 793.729 362.843 789.331 387.569C784.933 412.295 764.125 420.767 742.867 406.493Z" fill="#0066CC"/>
<path d="M732.6 412.127C711.336 397.853 697.668 366.239 702.066 341.513C706.464 316.787 727.272 308.315 748.53 322.589C769.794 336.863 783.462 368.477 779.064 393.203C774.666 417.929 753.858 426.401 732.6 412.127Z" fill="#FFB458"/>
<path d="M722.676 417.965C701.412 403.691 687.744 372.077 692.142 347.351C696.54 322.625 717.348 314.153 738.606 328.427C759.87 342.701 773.538 374.315 769.14 399.041C764.742 423.767 743.934 432.239 722.676 417.965Z" fill="#7AC1FA"/>
<path d="M737.611 390.684L734.641 388.968C734.245 388.74 733.735 388.872 733.501 389.262C730.615 394.098 727.915 394.656 723.415 392.484C718.975 390.348 715.993 384.834 715.471 378.894C715.405 378.174 714.985 377.532 714.361 377.172L711.619 375.588C711.265 375.384 710.809 375.642 710.821 376.056C711.079 384.078 714.631 392.544 721.015 396.396C727.987 400.602 733.651 398.31 737.977 392.388C738.391 391.824 738.217 391.026 737.611 390.678V390.684Z" fill="#003366"/>
<path d="M711.859 368.417L714.787 370.109C715.489 370.517 716.365 370.007 716.365 369.197V353.003C716.365 352.247 715.963 351.557 715.309 351.179L712.381 349.487C711.679 349.079 710.803 349.589 710.803 350.399V366.593C710.803 367.349 711.205 368.039 711.859 368.417Z" fill="#003366"/>
<path d="M739.777 363.563L736.849 361.871C736.147 361.463 735.271 361.973 735.271 362.783V378.977C735.271 379.733 735.673 380.423 736.327 380.801L739.255 382.493C739.957 382.901 740.833 382.391 740.833 381.581V365.387C740.833 364.631 740.431 363.941 739.777 363.563Z" fill="#003366"/>
<path d="M669.499 420.947C669.055 419.345 668.851 417.701 668.791 415.811C668.665 412.067 668.539 408.323 668.425 404.579C668.317 401.117 668.233 397.661 668.125 394.199C668.095 393.269 668.035 392.345 668.191 391.415C668.557 389.249 670.627 387.311 672.817 387.119C673.945 387.017 673.759 387.209 673.873 386.099C674.185 383.147 674.485 380.195 674.743 377.237C674.845 376.067 674.857 374.891 675.241 373.757C676.393 370.319 681.055 369.077 683.761 371.483C686.503 373.805 685.549 376.661 685.345 379.763C685.339 379.859 685.315 379.967 685.501 380.093C686.449 376.847 687.163 373.571 688.141 370.337C690.355 363.419 700.429 366.467 698.515 373.391C696.781 379.793 695.173 386.051 693.367 392.459C698.935 389.225 705.757 389.627 710.401 394.253C712.861 396.647 714.517 399.533 715.171 402.905C715.681 405.545 715.387 408.119 713.587 410.273C709.681 414.953 705.601 408.425 704.521 404.747C702.121 397.823 696.679 402.077 695.641 407.231C694.933 410.045 695.359 414.257 697.561 416.351C699.283 417.983 702.187 417.893 704.101 416.645C707.161 414.731 712.327 409.247 714.685 414.851C716.023 418.433 715.219 421.625 712.741 424.439C710.779 426.665 708.907 427.319 706.243 428.135C703.117 429.095 700.057 431.651 697.261 433.343C693.919 435.359 690.409 437.435 686.515 437.675C682.879 437.897 680.167 436.205 678.103 433.409C675.925 430.463 672.991 428.441 671.167 425.057C670.399 423.635 669.859 422.303 669.487 420.947H669.499Z" fill="#FFB458"/>
<path d="M691.638 435.479C691.638 426.671 684.498 415.409 675.69 410.321C670.59 407.375 666.054 407.153 663.132 409.193L653.562 414.803C650.586 415.985 648.738 418.961 648.738 423.443C648.738 432.251 655.878 443.513 664.686 448.601C669.21 451.211 673.284 451.679 676.188 450.335C676.566 450.161 676.926 449.951 677.262 449.717L687.492 443.813C687.534 443.789 687.576 443.759 687.624 443.735L687.696 443.693C690.15 442.307 691.638 439.493 691.638 435.479Z" fill="#0066CC"/>
<path d="M574.665 538.801C573.429 539.053 572.319 539.179 571.335 539.179C570.351 539.179 569.553 539.047 568.941 538.783C568.341 538.507 567.873 538.087 567.537 537.523C567.213 536.947 566.985 536.293 566.853 535.561C566.733 534.817 566.673 533.893 566.673 532.789C566.673 531.685 566.733 530.761 566.853 530.017C566.985 529.261 567.213 528.595 567.537 528.019C567.873 527.443 568.341 527.023 568.941 526.759C569.541 526.495 570.321 526.363 571.281 526.363C572.241 526.363 573.369 526.495 574.665 526.759L574.611 527.929C573.399 527.713 572.319 527.605 571.371 527.605C570.051 527.605 569.175 528.001 568.743 528.793C568.323 529.573 568.113 530.911 568.113 532.807C568.113 533.755 568.149 534.517 568.221 535.093C568.305 535.669 568.461 536.191 568.689 536.659C568.917 537.115 569.247 537.445 569.679 537.649C570.123 537.841 570.765 537.937 571.605 537.937C572.457 537.937 573.459 537.829 574.611 537.613L574.665 538.801ZM576.127 534.481C576.127 532.837 576.421 531.649 577.009 530.917C577.597 530.185 578.587 529.819 579.979 529.819C581.383 529.819 582.373 530.185 582.949 530.917C583.537 531.649 583.831 532.837 583.831 534.481C583.831 536.125 583.555 537.319 583.003 538.063C582.451 538.807 581.443 539.179 579.979 539.179C578.515 539.179 577.507 538.807 576.955 538.063C576.403 537.319 576.127 536.125 576.127 534.481ZM577.513 534.463C577.513 535.771 577.669 536.689 577.981 537.217C578.305 537.745 578.971 538.009 579.979 538.009C580.999 538.009 581.665 537.751 581.977 537.235C582.289 536.707 582.445 535.783 582.445 534.463C582.445 533.143 582.271 532.237 581.923 531.745C581.575 531.241 580.927 530.989 579.979 530.989C579.043 530.989 578.395 531.241 578.035 531.745C577.687 532.237 577.513 533.143 577.513 534.463ZM587.382 538.999H586.032V529.999H587.364V530.629C588.336 530.089 589.266 529.819 590.154 529.819C591.354 529.819 592.158 530.143 592.566 530.791C592.986 531.439 593.196 532.591 593.196 534.247V538.999H591.864V534.283C591.864 533.035 591.738 532.183 591.486 531.727C591.246 531.259 590.724 531.025 589.92 531.025C589.536 531.025 589.128 531.085 588.696 531.205C588.276 531.313 587.952 531.421 587.724 531.529L587.382 531.691V538.999ZM600.31 531.169H597.448V535.471C597.448 536.503 597.52 537.181 597.664 537.505C597.82 537.829 598.18 537.991 598.744 537.991L600.346 537.883L600.436 538.999C599.632 539.131 599.02 539.197 598.6 539.197C597.664 539.197 597.016 538.969 596.656 538.513C596.296 538.057 596.116 537.187 596.116 535.903V531.169H594.838V529.999H596.116V527.245H597.448V529.999H600.31V531.169ZM601.958 538.999V529.999H603.308V538.999H601.958ZM601.958 527.965V526.399H603.308V527.965H601.958ZM607.246 538.999H605.896V529.999H607.228V530.629C608.2 530.089 609.13 529.819 610.018 529.819C611.218 529.819 612.022 530.143 612.43 530.791C612.85 531.439 613.06 532.591 613.06 534.247V538.999H611.728V534.283C611.728 533.035 611.602 532.183 611.35 531.727C611.11 531.259 610.588 531.025 609.784 531.025C609.4 531.025 608.992 531.085 608.56 531.205C608.14 531.313 607.816 531.421 607.588 531.529L607.246 531.691V538.999ZM621.18 529.999H622.53V538.999H621.18V538.369C620.28 538.909 619.392 539.179 618.516 539.179C617.292 539.179 616.476 538.861 616.068 538.225C615.672 537.589 615.474 536.413 615.474 534.697V529.999H616.824V534.679C616.824 535.987 616.938 536.863 617.166 537.307C617.394 537.751 617.91 537.973 618.714 537.973C619.11 537.973 619.512 537.919 619.92 537.811C620.328 537.691 620.64 537.577 620.856 537.469L621.18 537.307V529.999ZM631.246 537.883L631.768 537.829L631.804 538.891C630.436 539.083 629.266 539.179 628.294 539.179C626.998 539.179 626.08 538.807 625.54 538.063C625 537.307 624.73 536.137 624.73 534.553C624.73 531.397 625.984 529.819 628.492 529.819C629.704 529.819 630.61 530.161 631.21 530.845C631.81 531.517 632.11 532.579 632.11 534.031L632.038 535.057H626.098C626.098 536.053 626.278 536.791 626.638 537.271C626.998 537.751 627.622 537.991 628.51 537.991C629.41 537.991 630.322 537.955 631.246 537.883ZM630.76 533.977C630.76 532.873 630.58 532.093 630.22 531.637C629.872 531.181 629.296 530.953 628.492 530.953C627.7 530.953 627.1 531.193 626.692 531.673C626.296 532.153 626.092 532.921 626.08 533.977H630.76ZM637.773 534.481C637.773 532.837 638.067 531.649 638.655 530.917C639.243 530.185 640.233 529.819 641.625 529.819C643.029 529.819 644.019 530.185 644.595 530.917C645.183 531.649 645.477 532.837 645.477 534.481C645.477 536.125 645.201 537.319 644.649 538.063C644.097 538.807 643.089 539.179 641.625 539.179C640.161 539.179 639.153 538.807 638.601 538.063C638.049 537.319 637.773 536.125 637.773 534.481ZM639.159 534.463C639.159 535.771 639.315 536.689 639.627 537.217C639.951 537.745 640.617 538.009 641.625 538.009C642.645 538.009 643.311 537.751 643.623 537.235C643.935 536.707 644.091 535.783 644.091 534.463C644.091 533.143 643.917 532.237 643.569 531.745C643.221 531.241 642.573 530.989 641.625 530.989C640.689 530.989 640.041 531.241 639.681 531.745C639.333 532.237 639.159 533.143 639.159 534.463ZM649.029 538.999H647.679V529.999H649.011V530.629C649.983 530.089 650.913 529.819 651.801 529.819C653.001 529.819 653.805 530.143 654.213 530.791C654.633 531.439 654.843 532.591 654.843 534.247V538.999H653.511V534.283C653.511 533.035 653.385 532.183 653.133 531.727C652.893 531.259 652.371 531.025 651.567 531.025C651.183 531.025 650.775 531.085 650.343 531.205C649.923 531.313 649.599 531.421 649.371 531.529L649.029 531.691V538.999ZM665.964 531.169H663.102V535.471C663.102 536.503 663.174 537.181 663.318 537.505C663.474 537.829 663.834 537.991 664.398 537.991L666 537.883L666.09 538.999C665.286 539.131 664.674 539.197 664.254 539.197C663.318 539.197 662.67 538.969 662.31 538.513C661.95 538.057 661.77 537.187 661.77 535.903V531.169H660.492V529.999H661.77V527.245H663.102V529.999H665.964V531.169ZM668.962 538.999H667.612V526.075H668.962V530.503C669.922 530.047 670.846 529.819 671.734 529.819C672.934 529.819 673.738 530.143 674.146 530.791C674.566 531.439 674.776 532.591 674.776 534.247V538.999H673.426V534.283C673.426 533.035 673.3 532.183 673.048 531.727C672.808 531.259 672.292 531.025 671.5 531.025C670.744 531.025 670.012 531.163 669.304 531.439L668.962 531.565V538.999ZM683.4 537.883L683.922 537.829L683.958 538.891C682.59 539.083 681.42 539.179 680.448 539.179C679.152 539.179 678.234 538.807 677.694 538.063C677.154 537.307 676.884 536.137 676.884 534.553C676.884 531.397 678.138 529.819 680.646 529.819C681.858 529.819 682.764 530.161 683.364 530.845C683.964 531.517 684.264 532.579 684.264 534.031L684.192 535.057H678.252C678.252 536.053 678.432 536.791 678.792 537.271C679.152 537.751 679.776 537.991 680.664 537.991C681.564 537.991 682.476 537.955 683.4 537.883ZM682.914 533.977C682.914 532.873 682.734 532.093 682.374 531.637C682.026 531.181 681.45 530.953 680.646 530.953C679.854 530.953 679.254 531.193 678.846 531.673C678.45 532.153 678.246 532.921 678.234 533.977H682.914ZM689.585 529.999H690.935L692.753 537.829H693.041L695.183 530.179H696.587L698.729 537.829H699.035L700.835 529.999H702.185L700.043 538.999H697.793L695.885 531.961L693.977 538.999H691.727L689.585 529.999ZM710.066 537.883L710.588 537.829L710.624 538.891C709.256 539.083 708.086 539.179 707.114 539.179C705.818 539.179 704.9 538.807 704.36 538.063C703.82 537.307 703.55 536.137 703.55 534.553C703.55 531.397 704.804 529.819 707.312 529.819C708.524 529.819 709.43 530.161 710.03 530.845C710.63 531.517 710.93 532.579 710.93 534.031L710.858 535.057H704.918C704.918 536.053 705.098 536.791 705.458 537.271C705.818 537.751 706.442 537.991 707.33 537.991C708.23 537.991 709.142 537.955 710.066 537.883ZM709.58 533.977C709.58 532.873 709.4 532.093 709.04 531.637C708.692 531.181 708.116 530.953 707.312 530.953C706.52 530.953 705.92 531.193 705.512 531.673C705.116 532.153 704.912 532.921 704.9 533.977H709.58ZM717.012 529.819C718.224 529.819 719.07 530.167 719.55 530.863C720.042 531.547 720.288 532.753 720.288 534.481C720.288 536.209 719.982 537.427 719.37 538.135C718.77 538.831 717.66 539.179 716.04 539.179C715.536 539.179 714.702 539.131 713.538 539.035L713.034 538.981V526.075H714.366V530.449C715.278 530.029 716.16 529.819 717.012 529.819ZM716.022 537.973C717.198 537.973 717.972 537.709 718.344 537.181C718.728 536.641 718.92 535.735 718.92 534.463C718.92 533.191 718.77 532.303 718.47 531.799C718.17 531.283 717.636 531.025 716.868 531.025C716.172 531.025 715.458 531.157 714.726 531.421L714.366 531.547V537.883C715.146 537.943 715.698 537.973 716.022 537.973ZM725.335 531.025C724.027 531.025 723.373 531.481 723.373 532.393C723.373 532.813 723.523 533.113 723.823 533.293C724.123 533.461 724.807 533.641 725.875 533.833C726.943 534.013 727.699 534.271 728.143 534.607C728.587 534.943 728.809 535.573 728.809 536.497C728.809 537.421 728.509 538.099 727.909 538.531C727.321 538.963 726.457 539.179 725.317 539.179C724.573 539.179 723.697 539.095 722.689 538.927L722.149 538.837L722.221 537.667C723.589 537.871 724.621 537.973 725.317 537.973C726.013 537.973 726.541 537.865 726.901 537.649C727.273 537.421 727.459 537.049 727.459 536.533C727.459 536.005 727.303 535.651 726.991 535.471C726.679 535.279 725.995 535.099 724.939 534.931C723.883 534.763 723.133 534.517 722.689 534.193C722.245 533.869 722.023 533.269 722.023 532.393C722.023 531.517 722.329 530.869 722.941 530.449C723.565 530.029 724.339 529.819 725.263 529.819C725.995 529.819 726.913 529.903 728.017 530.071L728.521 530.161L728.485 531.313C727.153 531.121 726.103 531.025 725.335 531.025ZM730.876 538.999V529.999H732.226V538.999H730.876ZM730.876 527.965V526.399H732.226V527.965H730.876ZM739.476 531.169H736.614V535.471C736.614 536.503 736.686 537.181 736.83 537.505C736.986 537.829 737.346 537.991 737.91 537.991L739.512 537.883L739.602 538.999C738.798 539.131 738.186 539.197 737.766 539.197C736.83 539.197 736.182 538.969 735.822 538.513C735.462 538.057 735.282 537.187 735.282 535.903V531.169H734.004V529.999H735.282V527.245H736.614V529.999H739.476V531.169ZM747.244 537.883L747.766 537.829L747.802 538.891C746.434 539.083 745.264 539.179 744.292 539.179C742.996 539.179 742.078 538.807 741.538 538.063C740.998 537.307 740.728 536.137 740.728 534.553C740.728 531.397 741.982 529.819 744.49 529.819C745.702 529.819 746.608 530.161 747.208 530.845C747.808 531.517 748.108 532.579 748.108 534.031L748.036 535.057H742.096C742.096 536.053 742.276 536.791 742.636 537.271C742.996 537.751 743.62 537.991 744.508 537.991C745.408 537.991 746.32 537.955 747.244 537.883ZM746.758 533.977C746.758 532.873 746.578 532.093 746.218 531.637C745.87 531.181 745.294 530.953 744.49 530.953C743.698 530.953 743.098 531.193 742.69 531.673C742.294 532.153 742.09 532.921 742.078 533.977H746.758ZM758.631 525.517V527.677H756.561V539.053H758.631V541.213H754.095V525.517H758.631ZM759.315 529.999H761.691L762.789 536.947H763.221L764.589 530.179H767.073L768.441 536.947H768.873L769.971 529.999H772.347L770.637 538.999H766.857L765.831 533.491L764.805 538.999H761.025L759.315 529.999ZM775.883 535.525C775.895 536.077 776.039 536.479 776.315 536.731C776.603 536.971 777.011 537.091 777.539 537.091C778.655 537.091 779.651 537.055 780.527 536.983L781.031 536.929L781.067 538.711C779.687 539.047 778.439 539.215 777.323 539.215C775.967 539.215 774.983 538.855 774.371 538.135C773.759 537.415 773.453 536.245 773.453 534.625C773.453 531.397 774.779 529.783 777.431 529.783C780.047 529.783 781.355 531.139 781.355 533.851L781.175 535.525H775.883ZM778.979 533.689C778.979 532.969 778.865 532.471 778.637 532.195C778.409 531.907 778.007 531.763 777.431 531.763C776.867 531.763 776.465 531.913 776.225 532.213C775.997 532.501 775.877 532.993 775.865 533.689H778.979ZM787.435 529.783C788.695 529.783 789.613 530.131 790.189 530.827C790.777 531.511 791.071 532.741 791.071 534.517C791.071 536.293 790.735 537.523 790.063 538.207C789.391 538.879 788.233 539.215 786.589 539.215C786.073 539.215 785.131 539.155 783.763 539.035L783.079 538.963V526.399H785.491V530.269C786.259 529.945 786.907 529.783 787.435 529.783ZM786.589 537.055C787.393 537.055 787.933 536.863 788.209 536.479C788.485 536.083 788.623 535.381 788.623 534.373C788.623 532.753 788.119 531.943 787.111 531.943C786.631 531.943 786.175 532.003 785.743 532.123L785.491 532.177V536.983C786.043 537.031 786.409 537.055 786.589 537.055ZM799.332 532.249C797.844 532.057 796.8 531.961 796.2 531.961C795.612 531.961 795.228 532.015 795.048 532.123C794.88 532.231 794.796 532.405 794.796 532.645C794.796 532.873 794.91 533.035 795.138 533.131C795.378 533.215 795.978 533.347 796.938 533.527C797.91 533.695 798.6 533.977 799.008 534.373C799.416 534.769 799.62 535.411 799.62 536.299C799.62 538.243 798.414 539.215 796.002 539.215C795.21 539.215 794.25 539.107 793.122 538.891L792.546 538.783L792.618 536.767C794.106 536.959 795.138 537.055 795.714 537.055C796.302 537.055 796.698 537.001 796.902 536.893C797.118 536.773 797.226 536.599 797.226 536.371C797.226 536.143 797.112 535.975 796.884 535.867C796.668 535.759 796.092 535.627 795.156 535.471C794.232 535.315 793.542 535.051 793.086 534.679C792.63 534.307 792.402 533.647 792.402 532.699C792.402 531.739 792.726 531.019 793.374 530.539C794.022 530.047 794.856 529.801 795.876 529.801C796.584 529.801 797.55 529.915 798.774 530.143L799.368 530.251L799.332 532.249ZM801.36 538.999V529.999H803.772V538.999H801.36ZM801.36 528.847V526.399H803.772V528.847H801.36ZM810.987 532.051H808.773V535.741C808.773 536.101 808.779 536.359 808.791 536.515C808.815 536.659 808.881 536.785 808.989 536.893C809.109 537.001 809.289 537.055 809.529 537.055L810.897 537.019L811.005 538.945C810.201 539.125 809.589 539.215 809.169 539.215C808.089 539.215 807.351 538.975 806.955 538.495C806.559 538.003 806.361 537.103 806.361 535.795V532.051H805.299V529.999H806.361V527.497H808.773V529.999H810.987V532.051ZM814.537 535.525C814.549 536.077 814.693 536.479 814.969 536.731C815.257 536.971 815.665 537.091 816.193 537.091C817.309 537.091 818.305 537.055 819.181 536.983L819.685 536.929L819.721 538.711C818.341 539.047 817.093 539.215 815.977 539.215C814.621 539.215 813.637 538.855 813.025 538.135C812.413 537.415 812.107 536.245 812.107 534.625C812.107 531.397 813.433 529.783 816.085 529.783C818.701 529.783 820.009 531.139 820.009 533.851L819.829 535.525H814.537ZM817.633 533.689C817.633 532.969 817.519 532.471 817.291 532.195C817.063 531.907 816.661 531.763 816.085 531.763C815.521 531.763 815.119 531.913 814.879 532.213C814.651 532.501 814.531 532.993 814.519 533.689H817.633ZM828.1 538.999H825.688V529.999H828.082V530.503C828.898 530.023 829.648 529.783 830.332 529.783C831.532 529.783 832.36 530.137 832.816 530.845C833.272 531.553 833.5 532.645 833.5 534.121V538.999H831.088V534.193C831.088 533.425 830.998 532.861 830.818 532.501C830.638 532.129 830.278 531.943 829.738 531.943C829.246 531.943 828.772 532.027 828.316 532.195L828.1 532.267V538.999ZM842.531 532.807V536.551C842.555 536.839 842.603 537.043 842.675 537.163C842.747 537.271 842.897 537.349 843.125 537.397L843.053 539.215C842.441 539.215 841.949 539.173 841.577 539.089C841.217 539.005 840.851 538.837 840.479 538.585C839.615 539.005 838.733 539.215 837.833 539.215C835.973 539.215 835.043 538.231 835.043 536.263C835.043 535.303 835.301 534.625 835.817 534.229C836.333 533.821 837.125 533.581 838.193 533.509L840.119 533.365V532.807C840.119 532.435 840.035 532.183 839.867 532.051C839.699 531.907 839.429 531.835 839.057 531.835L835.673 531.979L835.601 530.305C836.885 529.957 838.103 529.783 839.255 529.783C840.419 529.783 841.253 530.023 841.757 530.503C842.273 530.983 842.531 531.751 842.531 532.807ZM838.481 535.183C837.809 535.243 837.473 535.603 837.473 536.263C837.473 536.923 837.767 537.253 838.355 537.253C838.811 537.253 839.309 537.181 839.849 537.037L840.119 536.965V535.039L838.481 535.183ZM847.243 538.999H844.831V529.999H847.225V530.503C848.053 530.023 848.761 529.783 849.349 529.783C850.321 529.783 851.071 530.065 851.599 530.629C852.703 530.065 853.711 529.783 854.623 529.783C855.811 529.783 856.633 530.131 857.089 530.827C857.557 531.511 857.791 532.609 857.791 534.121V538.999H855.379V534.193C855.379 533.425 855.295 532.861 855.127 532.501C854.959 532.129 854.623 531.943 854.119 531.943C853.735 531.943 853.267 532.027 852.715 532.195L852.445 532.285C852.493 533.185 852.517 533.869 852.517 534.337V538.999H850.105V534.373C850.105 533.485 850.027 532.861 849.871 532.501C849.715 532.129 849.373 531.943 848.845 531.943C848.377 531.943 847.915 532.027 847.459 532.195L847.243 532.267V538.999ZM861.91 535.525C861.922 536.077 862.066 536.479 862.342 536.731C862.63 536.971 863.038 537.091 863.566 537.091C864.682 537.091 865.678 537.055 866.554 536.983L867.058 536.929L867.094 538.711C865.714 539.047 864.466 539.215 863.35 539.215C861.994 539.215 861.01 538.855 860.398 538.135C859.786 537.415 859.48 536.245 859.48 534.625C859.48 531.397 860.806 529.783 863.458 529.783C866.074 529.783 867.382 531.139 867.382 533.851L867.202 535.525H861.91ZM865.006 533.689C865.006 532.969 864.892 532.471 864.664 532.195C864.436 531.907 864.034 531.763 863.458 531.763C862.894 531.763 862.492 531.913 862.252 532.213C862.024 532.501 861.904 532.993 861.892 533.689H865.006ZM868.62 527.677V525.517H873.156V541.213H868.62V539.053H870.69V527.677H868.62Z" fill="#17324D"/>
<rect x="665.5" y="593.999" width="109" height="48" rx="4" fill="#0066CC"/>
<path d="M694.483 624.175C692.883 624.175 691.795 623.732 691.219 622.847C690.654 621.962 690.371 620.506 690.371 618.479C690.371 616.452 690.659 615.012 691.235 614.159C691.811 613.295 692.894 612.863 694.483 612.863C695.432 612.863 696.478 612.996 697.619 613.263L697.555 614.703C696.595 614.532 695.635 614.447 694.675 614.447C693.715 614.447 693.064 614.735 692.723 615.311C692.382 615.876 692.211 616.948 692.211 618.527C692.211 620.095 692.376 621.167 692.707 621.743C693.038 622.308 693.683 622.591 694.643 622.591C695.603 622.591 696.574 622.511 697.555 622.351L697.603 623.823C696.504 624.058 695.464 624.175 694.483 624.175ZM699.59 616.863C700.144 616.17 701.062 615.823 702.342 615.823C703.622 615.823 704.534 616.17 705.078 616.863C705.632 617.556 705.91 618.596 705.91 619.983C705.91 621.37 705.643 622.415 705.11 623.119C704.576 623.823 703.654 624.175 702.342 624.175C701.03 624.175 700.107 623.823 699.574 623.119C699.04 622.415 698.774 621.37 698.774 619.983C698.774 618.596 699.046 617.556 699.59 616.863ZM700.902 622.063C701.147 622.49 701.627 622.703 702.342 622.703C703.056 622.703 703.536 622.49 703.782 622.063C704.027 621.636 704.15 620.938 704.15 619.967C704.15 618.996 704.016 618.308 703.75 617.903C703.494 617.498 703.024 617.295 702.342 617.295C701.659 617.295 701.184 617.498 700.918 617.903C700.662 618.308 700.534 618.996 700.534 619.967C700.534 620.938 700.656 621.636 700.902 622.063ZM709.386 623.999H707.642V615.999H709.37V616.495C710.149 616.047 710.885 615.823 711.578 615.823C712.645 615.823 713.37 616.127 713.754 616.735C714.149 617.332 714.346 618.324 714.346 619.711V623.999H712.618V619.759C712.618 618.895 712.522 618.282 712.33 617.919C712.149 617.556 711.77 617.375 711.194 617.375C710.65 617.375 710.127 617.482 709.626 617.695L709.386 617.791V623.999ZM720.68 617.487H718.472V621.007C718.472 621.658 718.52 622.09 718.616 622.303C718.712 622.516 718.958 622.623 719.352 622.623L720.664 622.575L720.744 623.967C720.03 624.106 719.486 624.175 719.112 624.175C718.206 624.175 717.582 623.967 717.24 623.551C716.91 623.135 716.744 622.351 716.744 621.199V617.487H715.72V615.999H716.744V613.679H718.472V615.999H720.68V617.487ZM722.111 623.999V615.999H723.855V623.999H722.111ZM722.111 614.639V612.799H723.855V614.639H722.111ZM727.714 623.999H725.97V615.999H727.698V616.495C728.477 616.047 729.213 615.823 729.906 615.823C730.973 615.823 731.698 616.127 732.082 616.735C732.477 617.332 732.674 618.324 732.674 619.711V623.999H730.946V619.759C730.946 618.895 730.85 618.282 730.658 617.919C730.477 617.556 730.098 617.375 729.522 617.375C728.978 617.375 728.455 617.482 727.954 617.695L727.714 617.791V623.999ZM739.552 615.999H741.28V623.999H739.552V623.503C738.774 623.951 738.054 624.175 737.392 624.175C736.294 624.175 735.558 623.882 735.184 623.295C734.811 622.698 734.624 621.658 734.624 620.175V615.999H736.368V620.191C736.368 621.151 736.448 621.796 736.608 622.127C736.768 622.458 737.142 622.623 737.728 622.623C738.304 622.623 738.832 622.516 739.312 622.303L739.552 622.207V615.999ZM749.088 622.559L749.536 622.511L749.568 623.807C748.352 624.052 747.275 624.175 746.336 624.175C745.152 624.175 744.299 623.85 743.776 623.199C743.264 622.548 743.008 621.508 743.008 620.079C743.008 617.242 744.165 615.823 746.48 615.823C748.72 615.823 749.84 617.044 749.84 619.487L749.728 620.735H744.768C744.779 621.396 744.923 621.882 745.2 622.191C745.477 622.5 745.995 622.655 746.752 622.655C747.509 622.655 748.288 622.623 749.088 622.559ZM748.128 619.391C748.128 618.602 748 618.052 747.744 617.743C747.499 617.423 747.077 617.263 746.48 617.263C745.883 617.263 745.445 617.428 745.168 617.759C744.901 618.09 744.763 618.634 744.752 619.391H748.128Z" fill="white"/>
<rect width="1440" height="64" transform="translate(0 725.999)" fill="#003366"/>
<mask id="path-26-inside-1_4184_74855" fill="white">
<path d="M0 725.999H1440V789.999H0V725.999Z"/>
</mask>
<path d="M0 725.999H1440V789.999H0V725.999Z" fill="#003366"/>
<path d="M0 725.999V726.999H1440V725.999V724.999H0V725.999Z" fill="white" fill-opacity="0.5" mask="url(#path-26-inside-1_4184_74855)"/>
<path d="M30.482 762.999H25.106V753.409H26.66V761.613H30.482V762.999ZM36.5525 761.739L36.9445 761.697L36.9725 762.831C35.9085 763.046 34.9659 763.153 34.1445 763.153C33.1085 763.153 32.3619 762.868 31.9045 762.299C31.4565 761.73 31.2325 760.82 31.2325 759.569C31.2325 757.086 32.2452 755.845 34.2705 755.845C36.2305 755.845 37.2105 756.914 37.2105 759.051L37.1125 760.143H32.7725C32.7819 760.722 32.9079 761.146 33.1505 761.417C33.3932 761.688 33.8459 761.823 34.5085 761.823C35.1712 761.823 35.8525 761.795 36.5525 761.739ZM35.7125 758.967C35.7125 758.276 35.6005 757.796 35.3765 757.525C35.1619 757.245 34.7932 757.105 34.2705 757.105C33.7479 757.105 33.3652 757.25 33.1225 757.539C32.8892 757.828 32.7679 758.304 32.7585 758.967H35.7125ZM44.7959 763.951C44.7959 765.482 43.6899 766.247 41.4779 766.247C40.4139 766.247 39.6252 766.102 39.1119 765.813C38.5986 765.524 38.3419 764.996 38.3419 764.231C38.3419 763.886 38.4259 763.587 38.5939 763.335C38.7619 763.092 39.0326 762.826 39.4059 762.537C39.0979 762.332 38.9439 761.991 38.9439 761.515C38.9439 761.328 39.0699 761.025 39.3219 760.605L39.4479 760.395C38.7759 759.994 38.4399 759.294 38.4399 758.295C38.4399 757.455 38.6919 756.839 39.1959 756.447C39.6999 756.055 40.3812 755.859 41.2399 755.859C41.6506 755.859 42.0566 755.906 42.4579 755.999L42.6679 756.041L44.8379 755.985V757.217L43.6759 757.147C43.9279 757.474 44.0539 757.856 44.0539 758.295C44.0539 759.21 43.8206 759.844 43.3539 760.199C42.8966 760.544 42.1779 760.717 41.1979 760.717C40.9552 760.717 40.7499 760.698 40.5819 760.661C40.4512 760.978 40.3859 761.226 40.3859 761.403C40.3859 761.571 40.4699 761.688 40.6379 761.753C40.8152 761.818 41.2352 761.856 41.8979 761.865C43.0086 761.874 43.7692 762.024 44.1799 762.313C44.5906 762.602 44.7959 763.148 44.7959 763.951ZM39.8399 764.091C39.8399 764.418 39.9706 764.651 40.2319 764.791C40.4932 764.931 40.9412 765.001 41.5759 765.001C42.7052 765.001 43.2699 764.679 43.2699 764.035C43.2699 763.671 43.1672 763.438 42.9619 763.335C42.7659 763.242 42.3692 763.19 41.7719 763.181L40.3999 763.097C40.1946 763.265 40.0499 763.419 39.9659 763.559C39.8819 763.708 39.8399 763.886 39.8399 764.091ZM39.9519 758.295C39.9519 758.724 40.0546 759.042 40.2599 759.247C40.4652 759.443 40.7966 759.541 41.2539 759.541C41.7112 759.541 42.0379 759.443 42.2339 759.247C42.4392 759.042 42.5419 758.724 42.5419 758.295C42.5419 757.866 42.4392 757.553 42.2339 757.357C42.0286 757.152 41.6972 757.049 41.2399 757.049C40.3812 757.049 39.9519 757.464 39.9519 758.295ZM51.2134 758.155V761.347C51.2227 761.552 51.274 761.706 51.3674 761.809C51.47 761.902 51.624 761.963 51.8294 761.991L51.7874 763.153C50.9847 763.153 50.364 762.98 49.9254 762.635C49.1787 762.98 48.4274 763.153 47.6714 763.153C46.2807 763.153 45.5854 762.411 45.5854 760.927C45.5854 760.218 45.772 759.704 46.1454 759.387C46.528 759.07 47.1114 758.878 47.8954 758.813L49.7014 758.659V758.155C49.7014 757.782 49.6174 757.52 49.4494 757.371C49.2907 757.222 49.0527 757.147 48.7354 757.147C48.138 757.147 47.3914 757.184 46.4954 757.259L46.0474 757.287L45.9914 756.209C47.0087 755.966 47.942 755.845 48.7914 755.845C49.65 755.845 50.266 756.032 50.6394 756.405C51.022 756.769 51.2134 757.352 51.2134 758.155ZM48.0774 759.891C47.4334 759.947 47.1114 760.297 47.1114 760.941C47.1114 761.585 47.396 761.907 47.9654 761.907C48.432 761.907 48.9267 761.832 49.4494 761.683L49.7014 761.599V759.737L48.0774 759.891ZM53.2131 762.999V753.087H54.7391V762.999H53.2131ZM61.2723 762.999H59.7463V755.999H61.2583V756.433C61.9396 756.041 62.5836 755.845 63.1903 755.845C64.1236 755.845 64.7583 756.111 65.0943 756.643C65.4396 757.166 65.6123 758.034 65.6123 759.247V762.999H64.1003V759.289C64.1003 758.533 64.0163 757.996 63.8483 757.679C63.6896 757.362 63.3583 757.203 62.8543 757.203C62.3783 757.203 61.9209 757.296 61.4823 757.483L61.2723 757.567V762.999ZM67.7668 756.755C68.2522 756.148 69.0548 755.845 70.1748 755.845C71.2948 755.845 72.0928 756.148 72.5688 756.755C73.0542 757.362 73.2968 758.272 73.2968 759.485C73.2968 760.698 73.0635 761.613 72.5968 762.229C72.1302 762.845 71.3228 763.153 70.1748 763.153C69.0268 763.153 68.2195 762.845 67.7528 762.229C67.2862 761.613 67.0528 760.698 67.0528 759.485C67.0528 758.272 67.2908 757.362 67.7668 756.755ZM68.9148 761.305C69.1295 761.678 69.5495 761.865 70.1748 761.865C70.8002 761.865 71.2202 761.678 71.4348 761.305C71.6495 760.932 71.7568 760.32 71.7568 759.471C71.7568 758.622 71.6402 758.02 71.4068 757.665C71.1828 757.31 70.7722 757.133 70.1748 757.133C69.5775 757.133 69.1622 757.31 68.9288 757.665C68.7048 758.02 68.5928 758.622 68.5928 759.471C68.5928 760.32 68.7002 760.932 68.9148 761.305ZM78.5787 757.301H76.6467V760.381C76.6467 760.95 76.6887 761.328 76.7727 761.515C76.8567 761.702 77.0713 761.795 77.4167 761.795L78.5647 761.753L78.6347 762.971C78.0093 763.092 77.5333 763.153 77.2067 763.153C76.4133 763.153 75.8673 762.971 75.5687 762.607C75.2793 762.243 75.1347 761.557 75.1347 760.549V757.301H74.2387V755.999H75.1347V753.969H76.6467V755.999H78.5787V757.301ZM84.8143 761.739L85.2063 761.697L85.2343 762.831C84.1703 763.046 83.2276 763.153 82.4062 763.153C81.3703 763.153 80.6236 762.868 80.1663 762.299C79.7183 761.73 79.4943 760.82 79.4943 759.569C79.4943 757.086 80.5069 755.845 82.5323 755.845C84.4923 755.845 85.4723 756.914 85.4723 759.051L85.3743 760.143H81.0343C81.0436 760.722 81.1696 761.146 81.4123 761.417C81.6549 761.688 82.1076 761.823 82.7703 761.823C83.4329 761.823 84.1143 761.795 84.8143 761.739ZM83.9743 758.967C83.9743 758.276 83.8623 757.796 83.6383 757.525C83.4236 757.245 83.0549 757.105 82.5323 757.105C82.0096 757.105 81.6269 757.25 81.3843 757.539C81.1509 757.828 81.0296 758.304 81.0203 758.967H83.9743ZM91.7976 757.441C90.6963 757.292 89.8983 757.217 89.4036 757.217C88.909 757.217 88.5636 757.278 88.3676 757.399C88.181 757.511 88.0876 757.693 88.0876 757.945C88.0876 758.197 88.1903 758.374 88.3956 758.477C88.6103 758.58 89.105 758.701 89.8796 758.841C90.6636 758.972 91.219 759.182 91.5456 759.471C91.8723 759.76 92.0356 760.274 92.0356 761.011C92.0356 761.748 91.7976 762.29 91.3216 762.635C90.855 762.98 90.169 763.153 89.2636 763.153C88.6943 763.153 87.9756 763.074 87.1076 762.915L86.6736 762.845L86.7296 761.571C87.8496 761.72 88.657 761.795 89.1516 761.795C89.6463 761.795 89.9963 761.734 90.2016 761.613C90.4163 761.492 90.5236 761.291 90.5236 761.011C90.5236 760.731 90.421 760.54 90.2156 760.437C90.0196 760.325 89.539 760.208 88.7736 760.087C88.0176 759.956 87.4623 759.756 87.1076 759.485C86.753 759.214 86.5756 758.72 86.5756 758.001C86.5756 757.282 86.8183 756.746 87.3036 756.391C87.7983 756.036 88.4283 755.859 89.1936 755.859C89.791 755.859 90.5236 755.934 91.3916 756.083L91.8256 756.167L91.7976 757.441Z" fill="white"/>
<path d="M24 764.539H37.9394V764.959H24V764.539ZM45.1466 764.539H92.5816V764.959H45.1466V764.539Z" fill="white"/>
<path d="M121.62 760.017H119.66V762.999H118.106V753.409H121.62C123.795 753.409 124.882 754.482 124.882 756.629C124.882 757.73 124.607 758.57 124.056 759.149C123.515 759.728 122.703 760.017 121.62 760.017ZM119.66 758.673H121.606C122.726 758.673 123.286 757.992 123.286 756.629C123.286 755.976 123.151 755.5 122.88 755.201C122.609 754.902 122.185 754.753 121.606 754.753H119.66V758.673ZM126.195 762.999V755.999H127.707V756.839C128.501 756.326 129.294 755.994 130.087 755.845V757.371C129.285 757.53 128.599 757.735 128.029 757.987L127.721 758.113V762.999H126.195ZM131.254 762.999V755.999H132.78V762.999H131.254ZM131.254 754.809V753.199H132.78V754.809H131.254ZM133.973 755.999H135.569L136.913 761.697H137.361L138.761 755.999H140.315L138.495 762.999H135.779L133.973 755.999ZM146.592 758.155V761.347C146.602 761.552 146.653 761.706 146.746 761.809C146.849 761.902 147.003 761.963 147.208 761.991L147.166 763.153C146.364 763.153 145.743 762.98 145.304 762.635C144.558 762.98 143.806 763.153 143.05 763.153C141.66 763.153 140.964 762.411 140.964 760.927C140.964 760.218 141.151 759.704 141.524 759.387C141.907 759.07 142.49 758.878 143.274 758.813L145.08 758.659V758.155C145.08 757.782 144.996 757.52 144.828 757.371C144.67 757.222 144.432 757.147 144.114 757.147C143.517 757.147 142.77 757.184 141.874 757.259L141.426 757.287L141.37 756.209C142.388 755.966 143.321 755.845 144.17 755.845C145.029 755.845 145.645 756.032 146.018 756.405C146.401 756.769 146.592 757.352 146.592 758.155ZM143.456 759.891C142.812 759.947 142.49 760.297 142.49 760.941C142.49 761.585 142.775 761.907 143.344 761.907C143.811 761.907 144.306 761.832 144.828 761.683L145.08 761.599V759.737L143.456 759.891ZM151.126 755.845C151.621 755.845 152.204 755.91 152.876 756.041L153.226 756.111L153.17 757.315C152.433 757.24 151.887 757.203 151.532 757.203C150.823 757.203 150.347 757.362 150.104 757.679C149.861 757.996 149.74 758.594 149.74 759.471C149.74 760.348 149.857 760.955 150.09 761.291C150.323 761.627 150.809 761.795 151.546 761.795L153.184 761.683L153.226 762.901C152.283 763.069 151.574 763.153 151.098 763.153C150.034 763.153 149.283 762.868 148.844 762.299C148.415 761.72 148.2 760.778 148.2 759.471C148.2 758.164 148.429 757.236 148.886 756.685C149.343 756.125 150.09 755.845 151.126 755.845ZM154.057 755.999H155.555L157.039 761.697H157.417L158.901 755.999H160.413L157.753 766.009H156.255L157.095 762.999H155.891L154.057 755.999ZM168.364 760.017H166.404V762.999H164.85V753.409H168.364C170.539 753.409 171.626 754.482 171.626 756.629C171.626 757.73 171.351 758.57 170.8 759.149C170.259 759.728 169.447 760.017 168.364 760.017ZM166.404 758.673H168.35C169.47 758.673 170.03 757.992 170.03 756.629C170.03 755.976 169.895 755.5 169.624 755.201C169.353 754.902 168.929 754.753 168.35 754.753H166.404V758.673ZM173.318 756.755C173.803 756.148 174.606 755.845 175.726 755.845C176.846 755.845 177.644 756.148 178.12 756.755C178.605 757.362 178.848 758.272 178.848 759.485C178.848 760.698 178.614 761.613 178.148 762.229C177.681 762.845 176.874 763.153 175.726 763.153C174.578 763.153 173.77 762.845 173.304 762.229C172.837 761.613 172.604 760.698 172.604 759.485C172.604 758.272 172.842 757.362 173.318 756.755ZM174.466 761.305C174.68 761.678 175.1 761.865 175.726 761.865C176.351 761.865 176.771 761.678 176.986 761.305C177.2 760.932 177.308 760.32 177.308 759.471C177.308 758.622 177.191 758.02 176.958 757.665C176.734 757.31 176.323 757.133 175.726 757.133C175.128 757.133 174.713 757.31 174.48 757.665C174.256 758.02 174.144 758.622 174.144 759.471C174.144 760.32 174.251 760.932 174.466 761.305ZM180.447 762.999V753.087H181.973V762.999H180.447ZM183.904 762.999V755.999H185.43V762.999H183.904ZM183.904 754.809V753.199H185.43V754.809H183.904ZM189.899 755.845C190.394 755.845 190.977 755.91 191.649 756.041L191.999 756.111L191.943 757.315C191.206 757.24 190.66 757.203 190.305 757.203C189.596 757.203 189.12 757.362 188.877 757.679C188.635 757.996 188.513 758.594 188.513 759.471C188.513 760.348 188.63 760.955 188.863 761.291C189.097 761.627 189.582 761.795 190.319 761.795L191.957 761.683L191.999 762.901C191.057 763.069 190.347 763.153 189.871 763.153C188.807 763.153 188.056 762.868 187.617 762.299C187.188 761.72 186.973 760.778 186.973 759.471C186.973 758.164 187.202 757.236 187.659 756.685C188.117 756.125 188.863 755.845 189.899 755.845ZM192.831 755.999H194.329L195.813 761.697H196.191L197.675 755.999H199.187L196.527 766.009H195.029L195.869 762.999H194.665L192.831 755.999Z" fill="white"/>
<path d="M117 764.539H199.439V764.959H117V764.539Z" fill="white"/>
<path d="M224.28 762.999L226.646 753.409H229.74L232.12 762.999H230.552L230.034 760.941H226.352L225.834 762.999H224.28ZM227.85 754.711L226.66 759.569H229.726L228.55 754.711H227.85ZM235.855 755.845C236.349 755.845 236.933 755.91 237.605 756.041L237.955 756.111L237.899 757.315C237.161 757.24 236.615 757.203 236.261 757.203C235.551 757.203 235.075 757.362 234.833 757.679C234.59 757.996 234.469 758.594 234.469 759.471C234.469 760.348 234.585 760.955 234.819 761.291C235.052 761.627 235.537 761.795 236.275 761.795L237.913 761.683L237.955 762.901C237.012 763.069 236.303 763.153 235.827 763.153C234.763 763.153 234.011 762.868 233.573 762.299C233.143 761.72 232.929 760.778 232.929 759.471C232.929 758.164 233.157 757.236 233.615 756.685C234.072 756.125 234.819 755.845 235.855 755.845ZM241.98 755.845C242.474 755.845 243.058 755.91 243.73 756.041L244.08 756.111L244.024 757.315C243.286 757.24 242.74 757.203 242.386 757.203C241.676 757.203 241.2 757.362 240.958 757.679C240.715 757.996 240.594 758.594 240.594 759.471C240.594 760.348 240.71 760.955 240.944 761.291C241.177 761.627 241.662 761.795 242.4 761.795L244.038 761.683L244.08 762.901C243.137 763.069 242.428 763.153 241.952 763.153C240.888 763.153 240.136 762.868 239.698 762.299C239.268 761.72 239.054 760.778 239.054 759.471C239.054 758.164 239.282 757.236 239.74 756.685C240.197 756.125 240.944 755.845 241.98 755.845ZM250.471 761.739L250.863 761.697L250.891 762.831C249.827 763.046 248.884 763.153 248.062 763.153C247.027 763.153 246.28 762.868 245.823 762.299C245.375 761.73 245.151 760.82 245.151 759.569C245.151 757.086 246.163 755.845 248.189 755.845C250.149 755.845 251.129 756.914 251.129 759.051L251.031 760.143H246.691C246.7 760.722 246.826 761.146 247.069 761.417C247.311 761.688 247.764 761.823 248.427 761.823C249.089 761.823 249.771 761.795 250.471 761.739ZM249.631 758.967C249.631 758.276 249.519 757.796 249.295 757.525C249.08 757.245 248.711 757.105 248.189 757.105C247.666 757.105 247.283 757.25 247.041 757.539C246.807 757.828 246.686 758.304 246.677 758.967H249.631ZM257.454 757.441C256.353 757.292 255.555 757.217 255.06 757.217C254.565 757.217 254.22 757.278 254.024 757.399C253.837 757.511 253.744 757.693 253.744 757.945C253.744 758.197 253.847 758.374 254.052 758.477C254.267 758.58 254.761 758.701 255.536 758.841C256.32 758.972 256.875 759.182 257.202 759.471C257.529 759.76 257.692 760.274 257.692 761.011C257.692 761.748 257.454 762.29 256.978 762.635C256.511 762.98 255.825 763.153 254.92 763.153C254.351 763.153 253.632 763.074 252.764 762.915L252.33 762.845L252.386 761.571C253.506 761.72 254.313 761.795 254.808 761.795C255.303 761.795 255.653 761.734 255.858 761.613C256.073 761.492 256.18 761.291 256.18 761.011C256.18 760.731 256.077 760.54 255.872 760.437C255.676 760.325 255.195 760.208 254.43 760.087C253.674 759.956 253.119 759.756 252.764 759.485C252.409 759.214 252.232 758.72 252.232 758.001C252.232 757.282 252.475 756.746 252.96 756.391C253.455 756.036 254.085 755.859 254.85 755.859C255.447 755.859 256.18 755.934 257.048 756.083L257.482 756.167L257.454 757.441ZM264.016 757.441C262.915 757.292 262.117 757.217 261.622 757.217C261.128 757.217 260.782 757.278 260.586 757.399C260.4 757.511 260.306 757.693 260.306 757.945C260.306 758.197 260.409 758.374 260.614 758.477C260.829 758.58 261.324 758.701 262.098 758.841C262.882 758.972 263.438 759.182 263.764 759.471C264.091 759.76 264.254 760.274 264.254 761.011C264.254 761.748 264.016 762.29 263.54 762.635C263.074 762.98 262.388 763.153 261.482 763.153C260.913 763.153 260.194 763.074 259.326 762.915L258.892 762.845L258.948 761.571C260.068 761.72 260.876 761.795 261.37 761.795C261.865 761.795 262.215 761.734 262.42 761.613C262.635 761.492 262.742 761.291 262.742 761.011C262.742 760.731 262.64 760.54 262.434 760.437C262.238 760.325 261.758 760.208 260.992 760.087C260.236 759.956 259.681 759.756 259.326 759.485C258.972 759.214 258.794 758.72 258.794 758.001C258.794 757.282 259.037 756.746 259.522 756.391C260.017 756.036 260.647 755.859 261.412 755.859C262.01 755.859 262.742 755.934 263.61 756.083L264.044 756.167L264.016 757.441ZM265.721 762.999V755.999H267.247V762.999H265.721ZM265.721 754.809V753.199H267.247V754.809H265.721ZM272.36 755.845C273.321 755.845 274.012 756.116 274.432 756.657C274.861 757.189 275.076 758.136 275.076 759.499C275.076 760.862 274.824 761.814 274.32 762.355C273.816 762.887 272.929 763.153 271.66 763.153C271.221 763.153 270.526 763.111 269.574 763.027L269.098 762.985V753.087H270.61V756.265C271.254 755.985 271.837 755.845 272.36 755.845ZM271.66 761.795C272.406 761.795 272.901 761.622 273.144 761.277C273.396 760.922 273.522 760.325 273.522 759.485C273.522 758.645 273.414 758.057 273.2 757.721C272.994 757.376 272.654 757.203 272.178 757.203C271.73 757.203 271.282 757.273 270.834 757.413L270.61 757.483V761.739C271.123 761.776 271.473 761.795 271.66 761.795ZM276.604 762.999V755.999H278.13V762.999H276.604ZM276.604 754.809V753.199H278.13V754.809H276.604ZM280.065 762.999V753.087H281.591V762.999H280.065ZM283.522 762.999V755.999H285.048V762.999H283.522ZM283.522 754.809V753.199H285.048V754.809H283.522ZM290.665 757.301H288.733V760.381C288.733 760.95 288.775 761.328 288.859 761.515C288.943 761.702 289.157 761.795 289.503 761.795L290.651 761.753L290.721 762.971C290.095 763.092 289.619 763.153 289.293 763.153C288.499 763.153 287.953 762.971 287.655 762.607C287.365 762.243 287.221 761.557 287.221 760.549V757.301H286.325V755.999H287.221V753.969H288.733V755.999H290.665V757.301ZM291.272 755.999H292.77L294.254 761.697H294.632L296.116 755.999H297.628L294.968 766.009H293.47L294.31 762.999H293.106L291.272 755.999ZM306.741 757.441C305.64 757.292 304.842 757.217 304.347 757.217C303.852 757.217 303.507 757.278 303.311 757.399C303.124 757.511 303.031 757.693 303.031 757.945C303.031 758.197 303.134 758.374 303.339 758.477C303.554 758.58 304.048 758.701 304.823 758.841C305.607 758.972 306.162 759.182 306.489 759.471C306.816 759.76 306.979 760.274 306.979 761.011C306.979 761.748 306.741 762.29 306.265 762.635C305.798 762.98 305.112 763.153 304.207 763.153C303.638 763.153 302.919 763.074 302.051 762.915L301.617 762.845L301.673 761.571C302.793 761.72 303.6 761.795 304.095 761.795C304.59 761.795 304.94 761.734 305.145 761.613C305.36 761.492 305.467 761.291 305.467 761.011C305.467 760.731 305.364 760.54 305.159 760.437C304.963 760.325 304.482 760.208 303.717 760.087C302.961 759.956 302.406 759.756 302.051 759.485C301.696 759.214 301.519 758.72 301.519 758.001C301.519 757.282 301.762 756.746 302.247 756.391C302.742 756.036 303.372 755.859 304.137 755.859C304.734 755.859 305.467 755.934 306.335 756.083L306.769 756.167L306.741 757.441ZM312.211 757.301H310.279V760.381C310.279 760.95 310.321 761.328 310.405 761.515C310.489 761.702 310.704 761.795 311.049 761.795L312.197 761.753L312.267 762.971C311.642 763.092 311.166 763.153 310.839 763.153C310.046 763.153 309.5 762.971 309.201 762.607C308.912 762.243 308.767 761.557 308.767 760.549V757.301H307.871V755.999H308.767V753.969H310.279V755.999H312.211V757.301ZM318.643 758.155V761.347C318.652 761.552 318.704 761.706 318.797 761.809C318.9 761.902 319.054 761.963 319.259 761.991L319.217 763.153C318.414 763.153 317.794 762.98 317.355 762.635C316.608 762.98 315.857 763.153 315.101 763.153C313.71 763.153 313.015 762.411 313.015 760.927C313.015 760.218 313.202 759.704 313.575 759.387C313.958 759.07 314.541 758.878 315.325 758.813L317.131 758.659V758.155C317.131 757.782 317.047 757.52 316.879 757.371C316.72 757.222 316.482 757.147 316.165 757.147C315.568 757.147 314.821 757.184 313.925 757.259L313.477 757.287L313.421 756.209C314.438 755.966 315.372 755.845 316.221 755.845C317.08 755.845 317.696 756.032 318.069 756.405C318.452 756.769 318.643 757.352 318.643 758.155ZM315.507 759.891C314.863 759.947 314.541 760.297 314.541 760.941C314.541 761.585 314.826 761.907 315.395 761.907C315.862 761.907 316.356 761.832 316.879 761.683L317.131 761.599V759.737L315.507 759.891ZM324.325 757.301H322.393V760.381C322.393 760.95 322.435 761.328 322.519 761.515C322.603 761.702 322.817 761.795 323.163 761.795L324.311 761.753L324.381 762.971C323.755 763.092 323.279 763.153 322.953 763.153C322.159 763.153 321.613 762.971 321.315 762.607C321.025 762.243 320.881 761.557 320.881 760.549V757.301H319.985V755.999H320.881V753.969H322.393V755.999H324.325V757.301ZM330.56 761.739L330.952 761.697L330.98 762.831C329.916 763.046 328.974 763.153 328.152 763.153C327.116 763.153 326.37 762.868 325.912 762.299C325.464 761.73 325.24 760.82 325.24 759.569C325.24 757.086 326.253 755.845 328.278 755.845C330.238 755.845 331.218 756.914 331.218 759.051L331.12 760.143H326.78C326.79 760.722 326.916 761.146 327.158 761.417C327.401 761.688 327.854 761.823 328.516 761.823C329.179 761.823 329.86 761.795 330.56 761.739ZM329.72 758.967C329.72 758.276 329.608 757.796 329.384 757.525C329.17 757.245 328.801 757.105 328.278 757.105C327.756 757.105 327.373 757.25 327.13 757.539C326.897 757.828 326.776 758.304 326.766 758.967H329.72ZM334.212 762.999H332.686V755.999H334.198V756.433C334.86 756.041 335.467 755.845 336.018 755.845C336.83 755.845 337.422 756.074 337.796 756.531C338.645 756.074 339.49 755.845 340.33 755.845C341.17 755.845 341.762 756.106 342.108 756.629C342.453 757.142 342.626 758.015 342.626 759.247V762.999H341.114V759.289C341.114 758.533 341.034 757.996 340.876 757.679C340.726 757.362 340.409 757.203 339.924 757.203C339.504 757.203 339.051 757.296 338.566 757.483L338.328 757.581C338.402 757.768 338.44 758.365 338.44 759.373V762.999H336.928V759.401C336.928 758.57 336.853 757.996 336.704 757.679C336.554 757.362 336.228 757.203 335.724 757.203C335.257 757.203 334.823 757.296 334.422 757.483L334.212 757.567V762.999ZM349.4 761.739L349.792 761.697L349.82 762.831C348.756 763.046 347.814 763.153 346.992 763.153C345.956 763.153 345.21 762.868 344.752 762.299C344.304 761.73 344.08 760.82 344.08 759.569C344.08 757.086 345.093 755.845 347.118 755.845C349.078 755.845 350.058 756.914 350.058 759.051L349.96 760.143H345.62C345.63 760.722 345.756 761.146 345.998 761.417C346.241 761.688 346.694 761.823 347.356 761.823C348.019 761.823 348.7 761.795 349.4 761.739ZM348.56 758.967C348.56 758.276 348.448 757.796 348.224 757.525C348.01 757.245 347.641 757.105 347.118 757.105C346.596 757.105 346.213 757.25 345.97 757.539C345.737 757.828 345.616 758.304 345.606 758.967H348.56ZM353.052 762.999H351.526V755.999H353.038V756.433C353.719 756.041 354.363 755.845 354.97 755.845C355.903 755.845 356.538 756.111 356.874 756.643C357.219 757.166 357.392 758.034 357.392 759.247V762.999H355.88V759.289C355.88 758.533 355.796 757.996 355.628 757.679C355.469 757.362 355.138 757.203 354.634 757.203C354.158 757.203 353.7 757.296 353.262 757.483L353.052 757.567V762.999ZM362.934 757.301H361.002V760.381C361.002 760.95 361.044 761.328 361.128 761.515C361.212 761.702 361.427 761.795 361.772 761.795L362.92 761.753L362.99 762.971C362.365 763.092 361.889 763.153 361.562 763.153C360.769 763.153 360.223 762.971 359.924 762.607C359.635 762.243 359.49 761.557 359.49 760.549V757.301H358.594V755.999H359.49V753.969H361.002V755.999H362.934V757.301Z" fill="white"/>
<path d="M224 764.539H293.346V764.959H224V764.539ZM295.779 764.539H363.256V764.959H295.779V764.539Z" fill="white"/>
</g>
<defs>
<clipPath id="clip0_4184_74855">
<rect width="1440" height="790" fill="white"/>
</clipPath>
<clipPath id="clip1_4184_74855">
<rect width="47" height="24" fill="white" transform="translate(1321 12)"/>
</clipPath>
</defs>
</svg>
