<svg width="24" height="24" viewBox="0 0 24 24" fill="none" xmlns="http://www.w3.org/2000/svg">
<mask id="path-1-inside-1_4177_48775" fill="white">
<path d="M17.7068 1.44743C17.5875 1.46053 17.4775 1.5178 17.3983 1.60797C17.3192 1.69815 17.2767 1.81467 17.2793 1.93458V2.41424C17.2784 2.4778 17.2902 2.54091 17.3139 2.59989C17.3376 2.65888 17.3728 2.71257 17.4175 2.75783C17.4621 2.8031 17.5154 2.83905 17.574 2.86358C17.6327 2.88811 17.6957 2.90074 17.7593 2.90074C17.8229 2.90074 17.8859 2.88811 17.9446 2.86358C18.0033 2.83905 18.0565 2.8031 18.1011 2.75783C18.1458 2.71257 18.181 2.65888 18.2047 2.59989C18.2285 2.54091 18.2402 2.4778 18.2393 2.41424V1.93458C18.2403 1.87032 18.2284 1.80653 18.2042 1.74697C18.1801 1.68741 18.1442 1.6333 18.0988 1.58786C18.0533 1.54242 17.9992 1.50658 17.9396 1.48245C17.88 1.45833 17.8161 1.44642 17.7518 1.44743C17.7368 1.44672 17.7218 1.44672 17.7068 1.44743ZM6.17216 1.45491C6.07355 1.46913 5.98181 1.51366 5.90966 1.58232C5.16716 2.29622 4.22073 3.06846 1.56729 5.92176C1.52444 5.96802 1.49113 6.02226 1.46926 6.08139C1.44738 6.14051 1.43738 6.20336 1.43981 6.26635C1.44225 6.32934 1.45707 6.39123 1.48344 6.44849C1.50981 6.50575 1.54721 6.55726 1.59351 6.60007C1.6398 6.64289 1.69408 6.67618 1.75324 6.69803C1.81241 6.71988 1.8753 6.72987 1.93833 6.72743C2.00136 6.72499 2.0633 6.71018 2.12059 6.68382C2.17789 6.65746 2.22943 6.62007 2.27227 6.57381C4.14197 4.56328 5.07947 3.6695 5.75967 3.0363V22.0804C5.75877 22.144 5.77052 22.2071 5.79424 22.266C5.81796 22.325 5.85317 22.3787 5.89783 22.424C5.94249 22.4692 5.99571 22.5052 6.05439 22.5297C6.11307 22.5543 6.17605 22.5669 6.23966 22.5669C6.30327 22.5669 6.36624 22.5543 6.42492 22.5297C6.4836 22.5052 6.53682 22.4692 6.58148 22.424C6.62614 22.3787 6.66135 22.325 6.68507 22.266C6.70879 22.2071 6.72054 22.144 6.71964 22.0804V3.0363C7.39984 3.6695 8.33734 4.56327 10.207 6.57381C10.2499 6.62007 10.3014 6.65745 10.3587 6.6838C10.416 6.71016 10.4779 6.72496 10.541 6.7274C10.604 6.72983 10.6669 6.71985 10.726 6.698C10.7852 6.67615 10.8395 6.64286 10.8858 6.60004C10.9321 6.55723 10.9695 6.50572 10.9958 6.44846C11.0222 6.39121 11.037 6.32932 11.0395 6.26634C11.0419 6.20335 11.0319 6.14051 11.01 6.08139C10.9882 6.02227 10.9549 5.96804 10.912 5.92178C8.25858 3.06848 7.31215 2.29622 6.56965 1.58232C6.51726 1.53255 6.45431 1.49524 6.38549 1.47318C6.31666 1.45112 6.24374 1.44487 6.17216 1.45491ZM17.7068 3.84573C17.5875 3.85883 17.4775 3.91611 17.3983 4.00629C17.3192 4.09646 17.2767 4.21298 17.2793 4.33289V4.81255C17.2784 4.87612 17.2902 4.93922 17.3139 4.99821C17.3376 5.05719 17.3728 5.11087 17.4175 5.15613C17.4621 5.2014 17.5154 5.23735 17.574 5.26188C17.6327 5.28641 17.6957 5.29906 17.7593 5.29906C17.8229 5.29906 17.8859 5.28641 17.9446 5.26188C18.0033 5.23735 18.0565 5.2014 18.1011 5.15613C18.1458 5.11087 18.181 5.05719 18.2047 4.99821C18.2285 4.93922 18.2402 4.87612 18.2393 4.81255V4.33289C18.2408 4.26461 18.2276 4.1968 18.2008 4.13399C18.1739 4.07119 18.1339 4.01485 18.0835 3.96873C18.0331 3.92261 17.9734 3.88778 17.9085 3.86657C17.8435 3.84536 17.7748 3.83825 17.7068 3.84573ZM17.7068 6.24404C17.5875 6.25714 17.4775 6.31443 17.3983 6.4046C17.3192 6.49478 17.2767 6.6113 17.2793 6.73121V20.9787C16.5991 20.3454 15.6624 19.445 13.7919 17.4337C13.7431 17.3796 13.6827 17.3373 13.6151 17.31C13.5475 17.2827 13.4746 17.2712 13.4019 17.2763C13.311 17.2825 13.2237 17.3144 13.1502 17.3684C13.0768 17.4223 13.0202 17.4961 12.9872 17.581C12.9541 17.6659 12.946 17.7585 12.9636 17.8479C12.9813 17.9372 13.0241 18.0198 13.087 18.0857C15.7404 20.939 16.6868 21.7113 17.4293 22.4251C17.5185 22.5095 17.6366 22.5565 17.7593 22.5565C17.8821 22.5565 18.0002 22.5095 18.0893 22.4251C18.8318 21.7113 19.7782 20.939 22.4317 18.0857C22.5182 17.9923 22.5641 17.8684 22.5591 17.7412C22.5542 17.614 22.4989 17.4939 22.4054 17.4074C22.312 17.321 22.1879 17.2752 22.0606 17.2801C21.9333 17.285 21.8132 17.3402 21.7267 17.4337C19.8563 19.445 18.9196 20.3454 18.2393 20.9787V6.73121C18.2408 6.66292 18.2276 6.59511 18.2008 6.53231C18.1739 6.46951 18.1339 6.41317 18.0835 6.36705C18.0331 6.32093 17.9734 6.2861 17.9085 6.26489C17.8435 6.24368 17.7748 6.23656 17.7068 6.24404Z"/>
</mask>
<path d="M17.7068 1.44743C17.5875 1.46053 17.4775 1.5178 17.3983 1.60797C17.3192 1.69815 17.2767 1.81467 17.2793 1.93458V2.41424C17.2784 2.4778 17.2902 2.54091 17.3139 2.59989C17.3376 2.65888 17.3728 2.71257 17.4175 2.75783C17.4621 2.8031 17.5154 2.83905 17.574 2.86358C17.6327 2.88811 17.6957 2.90074 17.7593 2.90074C17.8229 2.90074 17.8859 2.88811 17.9446 2.86358C18.0033 2.83905 18.0565 2.8031 18.1011 2.75783C18.1458 2.71257 18.181 2.65888 18.2047 2.59989C18.2285 2.54091 18.2402 2.4778 18.2393 2.41424V1.93458C18.2403 1.87032 18.2284 1.80653 18.2042 1.74697C18.1801 1.68741 18.1442 1.6333 18.0988 1.58786C18.0533 1.54242 17.9992 1.50658 17.9396 1.48245C17.88 1.45833 17.8161 1.44642 17.7518 1.44743C17.7368 1.44672 17.7218 1.44672 17.7068 1.44743ZM6.17216 1.45491C6.07355 1.46913 5.98181 1.51366 5.90966 1.58232C5.16716 2.29622 4.22073 3.06846 1.56729 5.92176C1.52444 5.96802 1.49113 6.02226 1.46926 6.08139C1.44738 6.14051 1.43738 6.20336 1.43981 6.26635C1.44225 6.32934 1.45707 6.39123 1.48344 6.44849C1.50981 6.50575 1.54721 6.55726 1.59351 6.60007C1.6398 6.64289 1.69408 6.67618 1.75324 6.69803C1.81241 6.71988 1.8753 6.72987 1.93833 6.72743C2.00136 6.72499 2.0633 6.71018 2.12059 6.68382C2.17789 6.65746 2.22943 6.62007 2.27227 6.57381C4.14197 4.56328 5.07947 3.6695 5.75967 3.0363V22.0804C5.75877 22.144 5.77052 22.2071 5.79424 22.266C5.81796 22.325 5.85317 22.3787 5.89783 22.424C5.94249 22.4692 5.99571 22.5052 6.05439 22.5297C6.11307 22.5543 6.17605 22.5669 6.23966 22.5669C6.30327 22.5669 6.36624 22.5543 6.42492 22.5297C6.4836 22.5052 6.53682 22.4692 6.58148 22.424C6.62614 22.3787 6.66135 22.325 6.68507 22.266C6.70879 22.2071 6.72054 22.144 6.71964 22.0804V3.0363C7.39984 3.6695 8.33734 4.56327 10.207 6.57381C10.2499 6.62007 10.3014 6.65745 10.3587 6.6838C10.416 6.71016 10.4779 6.72496 10.541 6.7274C10.604 6.72983 10.6669 6.71985 10.726 6.698C10.7852 6.67615 10.8395 6.64286 10.8858 6.60004C10.9321 6.55723 10.9695 6.50572 10.9958 6.44846C11.0222 6.39121 11.037 6.32932 11.0395 6.26634C11.0419 6.20335 11.0319 6.14051 11.01 6.08139C10.9882 6.02227 10.9549 5.96804 10.912 5.92178C8.25858 3.06848 7.31215 2.29622 6.56965 1.58232C6.51726 1.53255 6.45431 1.49524 6.38549 1.47318C6.31666 1.45112 6.24374 1.44487 6.17216 1.45491ZM17.7068 3.84573C17.5875 3.85883 17.4775 3.91611 17.3983 4.00629C17.3192 4.09646 17.2767 4.21298 17.2793 4.33289V4.81255C17.2784 4.87612 17.2902 4.93922 17.3139 4.99821C17.3376 5.05719 17.3728 5.11087 17.4175 5.15613C17.4621 5.2014 17.5154 5.23735 17.574 5.26188C17.6327 5.28641 17.6957 5.29906 17.7593 5.29906C17.8229 5.29906 17.8859 5.28641 17.9446 5.26188C18.0033 5.23735 18.0565 5.2014 18.1011 5.15613C18.1458 5.11087 18.181 5.05719 18.2047 4.99821C18.2285 4.93922 18.2402 4.87612 18.2393 4.81255V4.33289C18.2408 4.26461 18.2276 4.1968 18.2008 4.13399C18.1739 4.07119 18.1339 4.01485 18.0835 3.96873C18.0331 3.92261 17.9734 3.88778 17.9085 3.86657C17.8435 3.84536 17.7748 3.83825 17.7068 3.84573ZM17.7068 6.24404C17.5875 6.25714 17.4775 6.31443 17.3983 6.4046C17.3192 6.49478 17.2767 6.6113 17.2793 6.73121V20.9787C16.5991 20.3454 15.6624 19.445 13.7919 17.4337C13.7431 17.3796 13.6827 17.3373 13.6151 17.31C13.5475 17.2827 13.4746 17.2712 13.4019 17.2763C13.311 17.2825 13.2237 17.3144 13.1502 17.3684C13.0768 17.4223 13.0202 17.4961 12.9872 17.581C12.9541 17.6659 12.946 17.7585 12.9636 17.8479C12.9813 17.9372 13.0241 18.0198 13.087 18.0857C15.7404 20.939 16.6868 21.7113 17.4293 22.4251C17.5185 22.5095 17.6366 22.5565 17.7593 22.5565C17.8821 22.5565 18.0002 22.5095 18.0893 22.4251C18.8318 21.7113 19.7782 20.939 22.4317 18.0857C22.5182 17.9923 22.5641 17.8684 22.5591 17.7412C22.5542 17.614 22.4989 17.4939 22.4054 17.4074C22.312 17.321 22.1879 17.2752 22.0606 17.2801C21.9333 17.285 21.8132 17.3402 21.7267 17.4337C19.8563 19.445 18.9196 20.3454 18.2393 20.9787V6.73121C18.2408 6.66292 18.2276 6.59511 18.2008 6.53231C18.1739 6.46951 18.1339 6.41317 18.0835 6.36705C18.0331 6.32093 17.9734 6.2861 17.9085 6.26489C17.8435 6.24368 17.7748 6.23656 17.7068 6.24404Z" fill="#0066CC" stroke="#0066CC" stroke-width="2" mask="url(#path-1-inside-1_4177_48775)"/>
</svg>
