<svg width="360" height="2943" viewBox="0 0 360 2943" fill="none" xmlns="http://www.w3.org/2000/svg">
<g clip-path="url(#clip0_4184_75998)">
<rect width="360" height="2943" fill="white"/>
<rect width="360" height="52" fill="#004D99"/>
<text fill="white" style="white-space: pre" xml:space="preserve" font-family="Titillium Web" font-size="16" letter-spacing="0em"><tspan x="12" y="31.96">Ente appartenenza</tspan></text>
<g clip-path="url(#clip1_4184_75998)">
<text fill="white" style="white-space: pre" xml:space="preserve" font-family="Titillium Web" font-size="14" font-weight="600" letter-spacing="0em"><tspan x="301" y="31.215">ITA</tspan></text>
<path d="M336 29.1998L330.4 23.5998L331.1 22.7998L336 27.6998L340.9 22.7998L341.6 23.5998L336 29.1998Z" fill="white"/>
</g>
<rect width="360" height="93" transform="translate(0 52)" fill="#F2F7FC"/>
<rect x="12.5" y="69" width="208.024" height="59" fill="#F2F7FC"/>
<rect x="12.5" y="69" width="208.024" height="59" stroke="#C5C7C9"/>
<line x1="13.1957" y1="69.3953" x2="220.121" y2="127.049" stroke="#C5C7C9"/>
<path d="M179.621 103.54C180.181 104.51 181.217 104.996 182.729 104.996C184.241 104.996 185.268 104.51 185.809 103.54C186.369 102.55 186.649 100.908 186.649 98.6116C186.649 96.2969 186.369 94.6169 185.809 93.5716C185.249 92.5262 184.222 92.0036 182.729 92.0036C181.236 92.0036 180.209 92.5262 179.649 93.5716C179.089 94.6169 178.809 96.2969 178.809 98.6116C178.809 100.908 179.08 102.55 179.621 103.54ZM188.833 106.004C187.657 107.572 185.622 108.356 182.729 108.356C179.836 108.356 177.792 107.572 176.597 106.004C175.421 104.417 174.833 101.944 174.833 98.5836C174.833 95.2236 175.421 92.7316 176.597 91.1076C177.792 89.4649 179.836 88.6436 182.729 88.6436C185.622 88.6436 187.657 89.4649 188.833 91.1076C190.028 92.7316 190.625 95.2236 190.625 98.5836C190.625 101.944 190.028 104.417 188.833 106.004Z" fill="black"/>
<path d="M166.48 101.188V97.8276H172.024V107.712C169.355 108.141 167.189 108.356 165.528 108.356C162.56 108.356 160.516 107.562 159.396 105.976C158.295 104.389 157.744 101.869 157.744 98.4156C157.744 94.9622 158.323 92.4702 159.48 90.9396C160.637 89.4089 162.607 88.6436 165.388 88.6436C167.124 88.6436 169 88.8396 171.016 89.2316L172.024 89.4276L171.912 92.4236C169.672 92.1809 167.833 92.0596 166.396 92.0596C164.977 92.0596 163.979 92.2276 163.4 92.5636C162.821 92.8996 162.392 93.5249 162.112 94.4396C161.851 95.3356 161.72 96.8849 161.72 99.0876C161.72 101.272 161.991 102.802 162.532 103.68C163.073 104.557 164.193 104.996 165.892 104.996L168.216 104.884V101.188H166.48Z" fill="black"/>
<path d="M144.238 103.54C144.798 104.51 145.834 104.996 147.346 104.996C148.858 104.996 149.885 104.51 150.426 103.54C150.986 102.55 151.266 100.908 151.266 98.6116C151.266 96.2969 150.986 94.6169 150.426 93.5716C149.866 92.5262 148.84 92.0036 147.346 92.0036C145.853 92.0036 144.826 92.5262 144.266 93.5716C143.706 94.6169 143.426 96.2969 143.426 98.6116C143.426 100.908 143.697 102.55 144.238 103.54ZM153.45 106.004C152.274 107.572 150.24 108.356 147.346 108.356C144.453 108.356 142.409 107.572 141.214 106.004C140.038 104.417 139.45 101.944 139.45 98.5836C139.45 95.2236 140.038 92.7316 141.214 91.1076C142.409 89.4649 144.453 88.6436 147.346 88.6436C150.24 88.6436 152.274 89.4649 153.45 91.1076C154.645 92.7316 155.242 95.2236 155.242 98.5836C155.242 101.944 154.645 104.417 153.45 106.004Z" fill="black"/>
<path d="M138.083 108.019H127.247V88.9795H131.111V104.603H138.083V108.019Z" fill="black"/>
<path d="M106.777 103.54C107.337 104.51 108.373 104.996 109.885 104.996C111.397 104.996 112.424 104.51 112.965 103.54C113.525 102.55 113.805 100.908 113.805 98.6116C113.805 96.2969 113.525 94.6169 112.965 93.5716C112.405 92.5262 111.379 92.0036 109.885 92.0036C108.392 92.0036 107.365 92.5262 106.805 93.5716C106.245 94.6169 105.965 96.2969 105.965 98.6116C105.965 100.908 106.236 102.55 106.777 103.54ZM115.989 106.004C114.813 107.572 112.779 108.356 109.885 108.356C106.992 108.356 104.948 107.572 103.753 106.004C102.577 104.417 101.989 101.944 101.989 98.5836C101.989 95.2236 102.577 92.7316 103.753 91.1076C104.948 89.4649 106.992 88.6436 109.885 88.6436C112.779 88.6436 114.813 89.4649 115.989 91.1076C117.184 92.7316 117.781 95.2236 117.781 98.5836C117.781 101.944 117.184 104.417 115.989 106.004Z" fill="black"/>
<path d="M88.2048 101.663C88.2048 103.885 89.3342 104.995 91.5928 104.995C93.8515 104.995 94.9808 103.885 94.9808 101.663V88.9795H98.8448V101.579C98.8448 103.913 98.2382 105.63 97.0248 106.731C95.8302 107.814 94.0195 108.355 91.5928 108.355C89.1662 108.355 87.3462 107.814 86.1328 106.731C84.9382 105.63 84.3408 103.913 84.3408 101.579V88.9795H88.2048V101.663Z" fill="black"/>
<path d="M68.0625 92.3955V88.9795H82.0625V92.3955H77.0225V108.019H73.1585V92.3955H68.0625Z" fill="black"/>
<path d="M61.2471 108.019H50.4111V88.9795H54.2751V104.603H61.2471V108.019Z" fill="black"/>
<path d="M42.3994 108.019V88.9795H46.2634V108.019H42.3994Z" fill="black"/>
<text fill="#17324D" style="white-space: pre" xml:space="preserve" font-family="Titillium Web" font-size="28" font-weight="bold" letter-spacing="0px"><tspan x="47.1367" y="195.43">Accedi con un&#x2019;identit&#xe0; </tspan><tspan x="134.459" y="227.43">digitale</tspan></text>
<g filter="url(#filter0_d_4184_75998)">
<rect x="12" y="257" width="336" height="392" rx="4" fill="white"/>
<text fill="#2F475E" style="white-space: pre" xml:space="preserve" font-family="Titillium Web" font-size="24" font-weight="600" letter-spacing="0px"><tspan x="36" y="305.94">IT-Wallet</tspan></text>
<rect x="36" y="325" width="288" height="48" rx="4" fill="#0066CC"/>
<g clip-path="url(#clip2_4184_75998)">
<path d="M69.4711 337.118C69.3255 337.036 69.1708 336.999 69.0207 337C68.5465 337.004 68.1117 337.384 68.1144 337.913L68.141 342.757L61.3722 338.961C61.2258 338.878 61.0711 338.842 60.9209 338.843C60.4467 338.846 60.0156 339.226 60.0146 339.755L60 355.722C60 356.443 60.3241 357.071 61.018 357.46L67.1029 360.882C67.2493 360.964 67.404 361.001 67.5542 361C68.0284 360.996 68.4605 360.616 68.4605 360.087V343.714L71.6773 345.504C72.3721 345.891 72.6953 346.521 72.6953 347.242V356.836L78.7124 360.211C78.8589 360.293 79.0136 360.33 79.1637 360.329C79.6379 360.325 80.07 359.945 80.07 359.416L80.0764 344.234C80.0764 343.513 79.7523 342.885 79.0584 342.496L69.4711 337.118Z" fill="white"/>
</g>
<text fill="white" style="white-space: pre" xml:space="preserve" font-family="Titillium Web" font-size="16" font-weight="600" letter-spacing="0em"><tspan x="136.491" y="354.96">Entra con IT-Wallet</tspan></text>
<text fill="#0066CC" style="white-space: pre" xml:space="preserve" font-family="Titillium Web" font-size="14" font-weight="600" letter-spacing="0em" text-decoration="underline"><tspan x="36" y="402.215">Scopri di pi&#xf9;</tspan></text>
<path d="M129 400.2L123.4 394.6L124.1 393.8L129 398.7L133.9 393.8L134.6 394.6L129 400.2Z" fill="#0066CC"/>
<text fill="#2F475E" style="white-space: pre" xml:space="preserve" font-family="Titillium Web" font-size="16" letter-spacing="0em"><tspan x="36" y="438.96">IT-Wallet &#xe8; il sistema italiano di portafogli </tspan><tspan x="36" y="462.96">digitali che ti permette di autenticarti </tspan><tspan x="36" y="486.96">online e di accedere a servizi pubblici e </tspan><tspan x="36" y="510.96">privati in modo sicuro e veloce, utilizzando </tspan><tspan x="36" y="534.96">i dati, i documenti e le qualifiche che puoi </tspan><tspan x="36" y="558.96">ottenere in digitale in uno dei portafogli </tspan><tspan x="36" y="582.96">che ne fanno parte.</tspan></text>
<text fill="#0066CC" style="white-space: pre" xml:space="preserve" font-family="Titillium Web" font-size="14" font-weight="600" letter-spacing="0em" text-decoration="underline"><tspan x="36" y="618.215">Scopri come ottenerlo</tspan></text>
<path d="M186 607C186.274 607.005 186.495 607.226 186.5 607.5C186.5 607.776 186.276 608 186 608H181C179.895 608 179 608.895 179 610V619C179 620.105 179.895 621 181 621H190.01C191.114 621 192.01 620.105 192.01 619V613.5C192.01 613.224 192.234 613 192.51 613C192.778 613.005 192.995 613.222 193 613.49V619C193 620.657 191.657 622 190 622H181C179.343 622 178 620.657 178 619V610C178 608.343 179.343 607 181 607H186ZM194 605C194.552 605 195 605.448 195 606V611.5C195 611.776 194.776 612 194.5 612C194.224 612 194 611.776 194 611.5V606.614L185.538 615.076C185.343 615.271 185.026 615.271 184.831 615.076C184.636 614.881 184.636 614.564 184.831 614.369L193.2 606H188.5C188.224 606 188 605.776 188 605.5C188 605.224 188.224 605 188.5 605H194Z" fill="#0066CC"/>
</g>
<g filter="url(#filter1_d_4184_75998)">
<rect x="12" y="673" width="336" height="368" rx="4" fill="white"/>
<text fill="#17324D" style="white-space: pre" xml:space="preserve" font-family="Titillium Web" font-size="24" font-weight="600" letter-spacing="0px"><tspan x="36" y="721.94">CIE</tspan></text>
<rect width="288" height="48" transform="translate(36 741)" fill="#0066CC"/>
<path fill-rule="evenodd" clip-rule="evenodd" d="M56.2646 756.881C57.5958 756.94 58.9261 757.495 60.0418 758.223C66.1495 762.211 66.1689 771.648 59.6107 775.25V775.361C61.7771 775.795 63.9216 776.34 66.0855 776.786C67.0058 776.976 68.0616 777.307 68.7083 776.358C69.3726 775.383 68.603 774.465 68.7596 773.469C68.9423 772.313 69.9241 772.253 69.216 771.02C70.6415 770.602 69.3516 769.535 69.6917 768.683C70.106 767.647 71.6468 767.654 71.9651 766.456C72.1495 765.76 71.5567 764.975 71.1845 764.452C70.2954 763.2 68.6451 761.924 68.3875 760.333C68.2039 759.201 68.5887 758.114 68.5668 756.993C68.5508 756.173 68.2241 755.409 67.9412 754.655C67.7644 754.184 67.5952 753.37 67.1422 753.1C66.621 752.79 65.8253 753.283 65.3303 753.465C63.7911 754.03 62.2393 754.567 60.6893 755.1C59.6789 755.448 58.6794 755.829 57.6674 756.176C57.19 756.341 56.5728 756.45 56.2646 756.881Z" fill="white"/>
<path fill-rule="evenodd" clip-rule="evenodd" d="M52.7295 774.143V766.907H53.7011V774.143H52.7295ZM54.9961 774.143V766.907C55.2822 766.907 55.6023 766.888 55.9389 766.868C57.0988 766.799 58.4548 766.718 59.2927 767.365C60.7712 768.504 60.5894 772.695 59.0965 773.731C58.2635 774.309 56.9977 774.239 55.898 774.178C55.5785 774.16 55.2729 774.143 54.9961 774.143ZM56.112 773.146V767.915C56.2578 767.915 56.4203 767.906 56.5915 767.896C57.2329 767.861 57.9948 767.819 58.4435 768.215C59.352 769.015 59.2509 771.996 58.3668 772.766C57.8667 773.201 57.1574 773.177 56.5118 773.155C56.3748 773.151 56.2407 773.146 56.112 773.146Z" fill="white"/>
<path fill-rule="evenodd" clip-rule="evenodd" d="M52.8902 765.399V764.508C51.9792 764.508 50.7895 764.907 49.9803 764.318C48.8428 763.491 48.8462 759.957 49.9803 759.132C50.7987 758.537 51.9741 758.935 52.8902 758.942V758.051C51.671 757.952 50.0822 757.436 49.0163 758.336C47.6657 759.476 47.6539 763.957 49.0247 765.087C50.0831 765.96 51.6778 765.557 52.8902 765.399Z" fill="white"/>
<path fill-rule="evenodd" clip-rule="evenodd" d="M53.8613 757.828V758.942H54.9407V757.828H53.8613Z" fill="white"/>
<path fill-rule="evenodd" clip-rule="evenodd" d="M60.3368 764.619V765.399C60.0734 765.421 59.8057 765.461 59.5364 765.501C58.9741 765.585 58.4049 765.67 57.8538 765.589C55.7084 765.269 55.3161 761.616 56.8872 760.325C58.0079 759.403 60.0303 759.943 60.389 761.391C60.5134 761.895 60.488 762.355 60.461 762.846C60.4551 762.953 60.4491 763.062 60.4446 763.172H57.0985C57.1776 764.744 58.5353 764.687 59.7382 764.636C59.9447 764.628 60.1466 764.619 60.3368 764.619ZM57.2066 762.282H59.3654C59.3275 760.471 57.2445 760.471 57.2066 762.282Z" fill="white"/>
<path d="M54.9344 760.055H53.8604V765.545H54.9344V760.055Z" fill="white"/>
<line x1="84.5" y1="745" x2="84.5" y2="785" stroke="white"/>
<text fill="white" style="white-space: pre" xml:space="preserve" font-family="Titillium Web" font-size="16" font-weight="600" letter-spacing="0em"><tspan x="146.852" y="770.96">Entra con CIE</tspan></text>
<text fill="#0066CC" style="white-space: pre" xml:space="preserve" font-family="Titillium Web" font-size="14" font-weight="600" letter-spacing="0em" text-decoration="underline"><tspan x="36" y="818.215">Scopri di pi&#xf9;</tspan></text>
<path d="M129 816.2L123.4 810.6L124.1 809.8L129 814.7L133.9 809.8L134.6 810.6L129 816.2Z" fill="#0066CC"/>
<text fill="#17324D" style="white-space: pre" xml:space="preserve" font-family="Titillium Web" font-size="16" letter-spacing="0em"><tspan x="36" y="854.96">La&#xa0;Carta di Identit&#xe0; Elettronica (CIE)&#xa0;&#xe8; il </tspan><tspan x="36" y="878.96">documento personale che attesta l&#39;identit&#xe0; </tspan><tspan x="36" y="902.96">del cittadino. Dotata di microprocessore, </tspan><tspan x="36" y="926.96">oltre a comprovare l&#39;identit&#xe0; personale, </tspan><tspan x="36" y="950.96">permette l&#39;accesso ai servizi digitali della </tspan><tspan x="36" y="974.96">Pubblica Amministrazione.</tspan></text>
<text fill="#0066CC" style="white-space: pre" xml:space="preserve" font-family="Titillium Web" font-size="14" font-weight="600" letter-spacing="0em" text-decoration="underline"><tspan x="36" y="1010.22">Scopri come ottenerla</tspan></text>
<path d="M186 999C186.274 999.005 186.495 999.226 186.5 999.5C186.5 999.776 186.276 1000 186 1000H181C179.895 1000 179 1000.9 179 1002V1011C179 1012.1 179.895 1013 181 1013H190.01C191.114 1013 192.01 1012.1 192.01 1011V1005.5C192.01 1005.22 192.234 1005 192.51 1005C192.778 1005.01 192.995 1005.22 193 1005.49V1011C193 1012.66 191.657 1014 190 1014H181C179.343 1014 178 1012.66 178 1011V1002C178 1000.34 179.343 999 181 999H186ZM194 997C194.552 997 195 997.448 195 998V1003.5C195 1003.78 194.776 1004 194.5 1004C194.224 1004 194 1003.78 194 1003.5V998.614L185.538 1007.08C185.343 1007.27 185.026 1007.27 184.831 1007.08C184.636 1006.88 184.636 1006.56 184.831 1006.37L193.2 998H188.5C188.224 998 188 997.776 188 997.5C188 997.224 188.224 997 188.5 997H194Z" fill="#0066CC"/>
</g>
<g filter="url(#filter2_d_4184_75998)">
<rect x="12" y="1065" width="336" height="368" rx="4" fill="white"/>
<text fill="#17324D" style="white-space: pre" xml:space="preserve" font-family="Titillium Web" font-size="24" font-weight="600" letter-spacing="0px"><tspan x="36" y="1113.94">SPID</tspan></text>
<rect width="288" height="48" transform="translate(36 1133)" fill="#0066CC"/>
<g clip-path="url(#clip3_4184_75998)">
<path fill-rule="evenodd" clip-rule="evenodd" d="M60 1169C66.629 1169 72 1163.63 72 1157C72 1150.37 66.629 1145 60 1145C53.3751 1145 48 1150.37 48 1157C48 1163.63 53.3751 1169 60 1169ZM62.4592 1160.47C61.8384 1159.79 61.0251 1159.45 60.0285 1159.45C59.0197 1159.45 58.203 1159.78 57.5617 1160.44C56.9644 1161.06 56.6434 1161.83 56.6057 1162.75L63.3987 1162.98C63.3987 1161.98 63.0839 1161.15 62.4592 1160.47ZM62.4592 1152.04C61.8343 1151.36 61.0212 1151.02 60.0246 1151.02C59.024 1151.02 58.2069 1151.36 57.5656 1152.02C56.9244 1152.68 56.6018 1153.51 56.6018 1154.51C56.6019 1155.51 56.9243 1156.34 57.5695 1157.02C58.2148 1157.69 59.036 1158.03 60.0324 1158.03C61.029 1158.03 61.8343 1157.69 62.4592 1157.04C63.084 1156.38 63.3986 1155.55 63.3987 1154.55C63.3987 1153.55 63.0841 1152.72 62.4592 1152.04Z" fill="white"/>
</g>
<line x1="84.5" y1="1137" x2="84.5" y2="1177" stroke="white"/>
<text fill="white" style="white-space: pre" xml:space="preserve" font-family="Titillium Web" font-size="16" font-weight="600" letter-spacing="0em"><tspan x="141.43" y="1162.96">Entra con SPID</tspan></text>
<text fill="#0066CC" style="white-space: pre" xml:space="preserve" font-family="Titillium Web" font-size="14" font-weight="600" letter-spacing="0em" text-decoration="underline"><tspan x="36" y="1210.22">Scopri di pi&#xf9;</tspan></text>
<path d="M129 1208.2L123.4 1202.6L124.1 1201.8L129 1206.7L133.9 1201.8L134.6 1202.6L129 1208.2Z" fill="#0066CC"/>
<text fill="#17324D" style="white-space: pre" xml:space="preserve" font-family="Titillium Web" font-size="16" letter-spacing="0em"><tspan x="36" y="1246.96">SPID, il&#xa0;Sistema Pubblico di Identit&#xe0; </tspan><tspan x="36" y="1270.96">Digitale, &#xe8; il sistema di accesso che </tspan><tspan x="36" y="1294.96">consente di utilizzare i servizi online della </tspan><tspan x="36" y="1318.96">Pubblica Amministrazione e dei privati </tspan><tspan x="36" y="1342.96">accreditati. Se ne sei in possesso, accedi </tspan><tspan x="36" y="1366.96">con le credenziali del tuo gestore.</tspan></text>
<text fill="#0066CC" style="white-space: pre" xml:space="preserve" font-family="Titillium Web" font-size="14" font-weight="600" letter-spacing="0em" text-decoration="underline"><tspan x="36" y="1402.22">Scopri come ottenerlo</tspan></text>
<path d="M186 1391C186.274 1391.01 186.495 1391.23 186.5 1391.5C186.5 1391.78 186.276 1392 186 1392H181C179.895 1392 179 1392.9 179 1394V1403C179 1404.1 179.895 1405 181 1405H190.01C191.114 1405 192.01 1404.1 192.01 1403V1397.5C192.01 1397.22 192.234 1397 192.51 1397C192.778 1397.01 192.995 1397.22 193 1397.49V1403C193 1404.66 191.657 1406 190 1406H181C179.343 1406 178 1404.66 178 1403V1394C178 1392.34 179.343 1391 181 1391H186ZM194 1389C194.552 1389 195 1389.45 195 1390V1395.5C195 1395.78 194.776 1396 194.5 1396C194.224 1396 194 1395.78 194 1395.5V1390.61L185.538 1399.08C185.343 1399.27 185.026 1399.27 184.831 1399.08C184.636 1398.88 184.636 1398.56 184.831 1398.37L193.2 1390H188.5C188.224 1390 188 1389.78 188 1389.5C188 1389.22 188.224 1389 188.5 1389H194Z" fill="#0066CC"/>
</g>
<g filter="url(#filter3_d_4184_75998)">
<rect x="12" y="1457" width="336" height="344" rx="4" fill="white"/>
<text fill="#17324D" style="white-space: pre" xml:space="preserve" font-family="Titillium Web" font-size="24" font-weight="600" letter-spacing="0px"><tspan x="36" y="1505.94">European digital ID</tspan></text>
<rect x="36" y="1525" width="288" height="48" rx="8" fill="#005EAC"/>
<path d="M65 1531.75C74.5318 1531.75 82.25 1539.47 82.25 1549C82.25 1558.53 74.5318 1566.25 65 1566.25C55.4682 1566.25 47.75 1558.53 47.75 1549C47.75 1539.47 55.4682 1531.75 65 1531.75Z" fill="#2F67B2" stroke="white" stroke-width="0.5"/>
<path d="M58.0687 1558.89L58.5851 1560.48H60.2731L58.9028 1561.47L59.439 1563.08L58.0687 1562.09L56.6984 1563.08L57.2346 1561.47L55.8643 1560.48H57.5523L58.0687 1558.89Z" fill="#FCC800"/>
<path d="M53.1833 1539.86L53.6996 1541.47H55.3877L54.0174 1542.47L54.5338 1544.07L53.1833 1543.08L51.813 1544.07L52.3293 1542.47L50.959 1541.47H52.6471L53.1833 1539.86Z" fill="#FCC800"/>
<path d="M58.0492 1534.9L58.5655 1536.51H60.2536L58.9031 1537.5L59.4195 1539.11L58.0492 1538.12L56.6788 1539.11L57.2151 1537.5L55.8447 1536.51H57.5328L58.0492 1534.9Z" fill="#FCC800"/>
<path d="M65.0003 1533.03L65.5167 1534.64H67.2048L65.8345 1535.63L66.3707 1537.24L65.0003 1536.25L63.63 1537.24L64.1662 1535.63L62.7959 1534.64H64.484L65.0003 1533.03Z" fill="#FCC800"/>
<path d="M71.8714 1534.92L72.3878 1536.53H74.0759L72.7055 1537.52L73.2418 1539.11L71.8714 1538.14L70.5011 1539.11L71.0175 1537.52L69.667 1536.53H71.3551L71.8714 1534.92Z" fill="#FCC800"/>
<path d="M76.9362 1539.98L77.4526 1541.57H79.1407L77.7703 1542.57L78.2867 1544.17L76.9362 1543.18L75.5659 1544.17L76.0822 1542.57L74.7119 1541.57H76.4L76.9362 1539.98Z" fill="#FCC800"/>
<path d="M78.8031 1546.91L79.3194 1548.52H81.0075L79.6372 1549.52L80.1734 1551.12L78.8031 1550.13L77.4327 1551.12L77.969 1549.52L76.5986 1548.52H78.2867L78.8031 1546.91Z" fill="#FCC800"/>
<path d="M76.9164 1553.89L77.4526 1555.49H79.1407L77.7703 1556.49L78.2867 1558.1L76.9164 1557.1L75.5659 1558.1L76.0822 1556.49L74.7119 1555.49H76.4L76.9164 1553.89Z" fill="#FCC800"/>
<path d="M71.8718 1558.91L72.3881 1560.52H74.0762L72.7059 1561.51L73.2222 1563.12L71.8718 1562.13L70.5014 1563.12L71.0178 1561.51L69.6475 1560.52H71.3355L71.8718 1558.91Z" fill="#FCC800"/>
<path d="M65.0199 1560.76L65.5362 1562.37H67.2243L65.854 1563.36L66.3902 1564.97L65.0199 1563.97L63.6495 1564.97L64.1659 1563.36L62.8154 1562.37H64.5035L65.0199 1560.76Z" fill="#FCC800"/>
<path d="M53.1039 1553.87L53.6401 1555.47H55.3282L53.9578 1556.45L54.4742 1558.06L53.1039 1557.06L51.7534 1558.06L52.2697 1556.45L50.8994 1555.47H52.5875L53.1039 1553.87Z" fill="#FCC800"/>
<path d="M51.2175 1546.8L51.7338 1548.42H53.4418L52.0714 1549.42L52.5878 1551.05L51.2175 1550.03L49.8273 1551.05L50.3635 1549.42L48.9932 1548.42H50.6812L51.2175 1546.8Z" fill="#FCC800"/>
<path d="M65.0395 1550.57C63.5302 1550.57 62.279 1550.05 61.286 1549.02C60.3129 1547.99 59.8164 1546.72 59.8164 1545.21C59.8164 1543.68 60.3129 1542.43 61.286 1541.41C62.2592 1540.4 63.5103 1539.9 65.0197 1539.9C66.529 1539.9 67.7802 1540.42 68.7335 1541.45C69.6867 1542.49 70.1634 1543.76 70.1634 1545.27C70.1634 1546.78 69.6867 1548.05 68.7335 1549.04C67.7802 1550.05 66.5687 1550.57 65.0395 1550.57Z" fill="white"/>
<path d="M59.8359 1558.02C59.8359 1556.49 60.3324 1555.24 61.3056 1554.22C62.2787 1553.21 63.5299 1552.71 65.0591 1552.71C66.5684 1552.71 67.8196 1553.23 68.753 1554.26C69.7063 1555.3 70.1829 1556.57 70.1829 1558.08" fill="white"/>
<line opacity="0.5" x1="94.5" y1="1529" x2="94.5" y2="1569" stroke="white"/>
<text fill="white" style="white-space: pre" xml:space="preserve" font-family="Titillium Web" font-size="16" font-weight="600" letter-spacing="0em"><tspan x="106.32" y="1554.96">Login with eIDAS</tspan></text>
<text fill="#0066CC" style="white-space: pre" xml:space="preserve" font-family="Titillium Web" font-size="14" font-weight="600" letter-spacing="0em" text-decoration="underline"><tspan x="36" y="1602.22">Learn more</tspan></text>
<path d="M124 1600.2L118.4 1594.6L119.1 1593.8L124 1598.7L128.9 1593.8L129.6 1594.6L124 1600.2Z" fill="#0066CC"/>
<text fill="#17324D" style="white-space: pre" xml:space="preserve" font-family="Titillium Web" font-size="16" letter-spacing="0em"><tspan x="36" y="1638.96">Sign-in with a digital identity from another </tspan><tspan x="36" y="1662.96">European Country including Iceland, </tspan><tspan x="36" y="1686.96">Liechtenstein and Norway, and third </tspan><tspan x="36" y="1710.96">country nationals in possession of a </tspan><tspan x="36" y="1734.96">notified residency card.</tspan></text>
<text fill="#0066CC" style="white-space: pre" xml:space="preserve" font-family="Titillium Web" font-size="14" font-weight="600" letter-spacing="0em" text-decoration="underline"><tspan x="36" y="1770.22">Scopri come ottenerlo</tspan></text>
<path d="M186 1759C186.274 1759.01 186.495 1759.23 186.5 1759.5C186.5 1759.78 186.276 1760 186 1760H181C179.895 1760 179 1760.9 179 1762V1771C179 1772.1 179.895 1773 181 1773H190.01C191.114 1773 192.01 1772.1 192.01 1771V1765.5C192.01 1765.22 192.234 1765 192.51 1765C192.778 1765.01 192.995 1765.22 193 1765.49V1771C193 1772.66 191.657 1774 190 1774H181C179.343 1774 178 1772.66 178 1771V1762C178 1760.34 179.343 1759 181 1759H186ZM194 1757C194.552 1757 195 1757.45 195 1758V1763.5C195 1763.78 194.776 1764 194.5 1764C194.224 1764 194 1763.78 194 1763.5V1758.61L185.538 1767.08C185.343 1767.27 185.026 1767.27 184.831 1767.08C184.636 1766.88 184.636 1766.56 184.831 1766.37L193.2 1758H188.5C188.224 1758 188 1757.78 188 1757.5C188 1757.22 188.224 1757 188.5 1757H194Z" fill="#0066CC"/>
</g>
<text fill="#2F475E" style="white-space: pre" xml:space="preserve" font-family="Titillium Web" font-size="20" font-weight="600" letter-spacing="0px"><tspan x="60.5" y="1868.45">Non hai un&#x2019;identit&#xe0; digitale?</tspan></text>
<text fill="#0066CC" style="white-space: pre" xml:space="preserve" font-family="Titillium Web" font-size="14" font-weight="600" letter-spacing="0em" text-decoration="underline"><tspan x="98.5" y="1906.22">Scopri come ottenerla</tspan></text>
<path d="M248.5 1895C248.774 1895.01 248.995 1895.23 249 1895.5C249 1895.78 248.776 1896 248.5 1896H243.5C242.395 1896 241.5 1896.9 241.5 1898V1907C241.5 1908.1 242.395 1909 243.5 1909H252.51C253.614 1909 254.51 1908.1 254.51 1907V1901.5C254.51 1901.22 254.734 1901 255.01 1901C255.278 1901.01 255.495 1901.22 255.5 1901.49V1907C255.5 1908.66 254.157 1910 252.5 1910H243.5C241.843 1910 240.5 1908.66 240.5 1907V1898C240.5 1896.34 241.843 1895 243.5 1895H248.5ZM256.5 1893C257.052 1893 257.5 1893.45 257.5 1894V1899.5C257.5 1899.78 257.276 1900 257 1900C256.724 1900 256.5 1899.78 256.5 1899.5V1894.61L248.038 1903.08C247.843 1903.27 247.526 1903.27 247.331 1903.08C247.136 1902.88 247.136 1902.56 247.331 1902.37L255.7 1894H251C250.724 1894 250.5 1893.78 250.5 1893.5C250.5 1893.22 250.724 1893 251 1893H256.5Z" fill="#0066CC"/>
<rect width="360" height="838" transform="translate(0 1961)" fill="#F5F5F5"/>
<text fill="#17324D" style="white-space: pre" xml:space="preserve" font-family="Titillium Web" font-size="28" font-weight="bold" letter-spacing="0px"><tspan x="48.1758" y="2011.43">Accedi con un metodo </tspan><tspan x="113.705" y="2043.43">alternativo</tspan></text>
<g filter="url(#filter4_d_4184_75998)">
<rect x="12" y="2069" width="336" height="332" rx="4" fill="white"/>
<text fill="#17324D" style="white-space: pre" xml:space="preserve" font-family="Titillium Web" font-size="24" font-weight="600" letter-spacing="0px"><tspan x="36" y="2117.94">CNS</tspan></text>
<rect width="288" height="48" transform="translate(36 2141)" fill="#0066CC"/>
<g clip-path="url(#clip4_4184_75998)">
<path fill-rule="evenodd" clip-rule="evenodd" d="M60 2177C66.629 2177 72 2171.63 72 2165C72 2158.37 66.629 2153 60 2153C53.3751 2153 48 2158.37 48 2165C48 2171.63 53.3751 2177 60 2177ZM62.4592 2168.47C61.8384 2167.79 61.0251 2167.45 60.0285 2167.45C59.0197 2167.45 58.203 2167.78 57.5617 2168.44C56.9644 2169.06 56.6434 2169.83 56.6057 2170.75L63.3987 2170.98C63.3987 2169.98 63.0839 2169.15 62.4592 2168.47ZM62.4592 2160.04C61.8343 2159.36 61.0212 2159.02 60.0246 2159.02C59.024 2159.02 58.2069 2159.36 57.5656 2160.02C56.9244 2160.68 56.6018 2161.51 56.6018 2162.51C56.6019 2163.51 56.9243 2164.34 57.5695 2165.02C58.2148 2165.69 59.036 2166.03 60.0324 2166.03C61.029 2166.03 61.8343 2165.69 62.4592 2165.04C63.084 2164.38 63.3986 2163.55 63.3987 2162.55C63.3987 2161.55 63.0841 2160.72 62.4592 2160.04Z" fill="white"/>
</g>
<line x1="84.5" y1="2145" x2="84.5" y2="2185" stroke="white"/>
<text fill="white" style="white-space: pre" xml:space="preserve" font-family="Titillium Web" font-size="16" font-weight="600" letter-spacing="0em"><tspan x="143.594" y="2170.96">Entra con CNS</tspan></text>
<text fill="#0066CC" style="white-space: pre" xml:space="preserve" font-family="Titillium Web" font-size="14" font-weight="600" letter-spacing="0em" text-decoration="underline"><tspan x="36" y="2222.22">Scopri di pi&#xf9;</tspan></text>
<path d="M129 2220.2L123.4 2214.6L124.1 2213.8L129 2218.7L133.9 2213.8L134.6 2214.6L129 2220.2Z" fill="#0066CC"/>
<text fill="#17324D" style="white-space: pre" xml:space="preserve" font-family="Titillium Web" font-size="16" letter-spacing="0em"><tspan x="36" y="2262.96">La Tessera Sanitaria pu&#xf2; essere abilitata </tspan><tspan x="36" y="2286.96">all&#x2019;accesso ai servizi online se l&#x2019;hai attivata </tspan><tspan x="36" y="2310.96">come Carta Nazionale dei Servizi (CNS). </tspan><tspan x="36" y="2334.96">Richiede un lettore di smart card.</tspan></text>
<text fill="#0066CC" style="white-space: pre" xml:space="preserve" font-family="Titillium Web" font-size="14" font-weight="600" letter-spacing="0em" text-decoration="underline"><tspan x="36" y="2370.22">Scopri come ottenerla</tspan></text>
<path d="M186 2359C186.274 2359.01 186.495 2359.23 186.5 2359.5C186.5 2359.78 186.276 2360 186 2360H181C179.895 2360 179 2360.9 179 2362V2371C179 2372.1 179.895 2373 181 2373H190.01C191.114 2373 192.01 2372.1 192.01 2371V2365.5C192.01 2365.22 192.234 2365 192.51 2365C192.778 2365.01 192.995 2365.22 193 2365.49V2371C193 2372.66 191.657 2374 190 2374H181C179.343 2374 178 2372.66 178 2371V2362C178 2360.34 179.343 2359 181 2359H186ZM194 2357C194.552 2357 195 2357.45 195 2358V2363.5C195 2363.78 194.776 2364 194.5 2364C194.224 2364 194 2363.78 194 2363.5V2358.61L185.538 2367.08C185.343 2367.27 185.026 2367.27 184.831 2367.08C184.636 2366.88 184.636 2366.56 184.831 2366.37L193.2 2358H188.5C188.224 2358 188 2357.78 188 2357.5C188 2357.22 188.224 2357 188.5 2357H194Z" fill="#0066CC"/>
</g>
<g filter="url(#filter5_d_4184_75998)">
<rect x="12" y="2419" width="336" height="356" rx="4" fill="white"/>
<text fill="#17324D" style="white-space: pre" xml:space="preserve" font-family="Titillium Web" font-size="24" font-weight="600" letter-spacing="0px"><tspan x="36" y="2467.94">{Altro metodo}</tspan></text>
<rect x="36" y="2491" width="288" height="48" rx="4" fill="#0066CC"/>
<path d="M91.06 2513.84L95.48 2509.42L91.06 2505L86.64 2509.42L91.06 2513.84ZM96.7 2519.48L101.12 2515.06L96.7 2510.64L92.28 2515.06L96.7 2519.48ZM85.42 2519.48L89.84 2515.06L85.42 2510.64L81 2515.06L85.42 2519.48ZM91.06 2525.12L95.48 2520.7L91.06 2516.28L86.64 2520.7L91.06 2525.12Z" fill="white"/>
<text fill="white" style="white-space: pre" xml:space="preserve" font-family="Titillium Web" font-size="16" font-weight="600" letter-spacing="0em"><tspan x="111.352" y="2520.96">Entra con {Altro metodo}</tspan></text>
<text fill="#0066CC" style="white-space: pre" xml:space="preserve" font-family="Titillium Web" font-size="14" font-weight="600" letter-spacing="0em" text-decoration="underline"><tspan x="36" y="2572.22">Scopri di pi&#xf9;</tspan></text>
<path d="M129 2570.2L123.4 2564.6L124.1 2563.8L129 2568.7L133.9 2563.8L134.6 2564.6L129 2570.2Z" fill="#0066CC"/>
<text fill="#17324D" style="white-space: pre" xml:space="preserve" font-family="Titillium Web" font-size="16" letter-spacing="0em"><tspan x="36" y="2612.96">{Altro metodo} lorem ipsum dolor sit amet </tspan><tspan x="36" y="2636.96">consecteturlorem ipsum dolor sit amet </tspan><tspan x="36" y="2660.96">consecteturlorem ipsum dolor sit amet </tspan><tspan x="36" y="2684.96">consecteturlorem ipsum dolor sit amet </tspan><tspan x="36" y="2708.96">consecteturlorem ipsum </tspan></text>
<text fill="#0066CC" style="white-space: pre" xml:space="preserve" font-family="Titillium Web" font-size="14" font-weight="600" letter-spacing="0em" text-decoration="underline"><tspan x="36" y="2744.22">Scopri come ottenerlo</tspan></text>
<path d="M186 2733C186.274 2733.01 186.495 2733.23 186.5 2733.5C186.5 2733.78 186.276 2734 186 2734H181C179.895 2734 179 2734.9 179 2736V2745C179 2746.1 179.895 2747 181 2747H190.01C191.114 2747 192.01 2746.1 192.01 2745V2739.5C192.01 2739.22 192.234 2739 192.51 2739C192.778 2739.01 192.995 2739.22 193 2739.49V2745C193 2746.66 191.657 2748 190 2748H181C179.343 2748 178 2746.66 178 2745V2736C178 2734.34 179.343 2733 181 2733H186ZM194 2731C194.552 2731 195 2731.45 195 2732V2737.5C195 2737.78 194.776 2738 194.5 2738C194.224 2738 194 2737.78 194 2737.5V2732.61L185.538 2741.08C185.343 2741.27 185.026 2741.27 184.831 2741.08C184.636 2740.88 184.636 2740.56 184.831 2740.37L193.2 2732H188.5C188.224 2732 188 2731.78 188 2731.5C188 2731.22 188.224 2731 188.5 2731H194Z" fill="#0066CC"/>
</g>
<rect width="360" height="144" transform="translate(0 2799)" fill="#003366"/>
<mask id="path-105-inside-1_4184_75998" fill="white">
<path d="M0 2799H360V2943H0V2799Z"/>
</mask>
<path d="M0 2799H360V2943H0V2799Z" fill="#003366"/>
<path d="M0 2799V2800H360V2799V2798H0V2799Z" fill="white" fill-opacity="0.5" mask="url(#path-105-inside-1_4184_75998)"/>
<text fill="white" style="white-space: pre" xml:space="preserve" font-family="Titillium Web" font-size="14" font-weight="600" letter-spacing="0em" text-decoration="underline"><tspan x="24" y="2836.22">Note Legali</tspan></text>
<text fill="white" style="white-space: pre" xml:space="preserve" font-family="Titillium Web" font-size="14" font-weight="600" letter-spacing="0em" text-decoration="underline"><tspan x="24" y="2876.22">Privacy Policy</tspan></text>
<text fill="white" style="white-space: pre" xml:space="preserve" font-family="Titillium Web" font-size="14" font-weight="600" letter-spacing="0em" text-decoration="underline"><tspan x="24" y="2916.22">Dichiarazione Accessibilit&#xe0;</tspan></text>
</g>
<defs>
<filter id="filter0_d_4184_75998" x="-4" y="249" width="368" height="424" filterUnits="userSpaceOnUse" color-interpolation-filters="sRGB">
<feFlood flood-opacity="0" result="BackgroundImageFix"/>
<feColorMatrix in="SourceAlpha" type="matrix" values="0 0 0 0 0 0 0 0 0 0 0 0 0 0 0 0 0 0 127 0" result="hardAlpha"/>
<feOffset dy="8"/>
<feGaussianBlur stdDeviation="8"/>
<feColorMatrix type="matrix" values="0 0 0 0 0 0 0 0 0 0 0 0 0 0 0 0 0 0 0.15 0"/>
<feBlend mode="normal" in2="BackgroundImageFix" result="effect1_dropShadow_4184_75998"/>
<feBlend mode="normal" in="SourceGraphic" in2="effect1_dropShadow_4184_75998" result="shape"/>
</filter>
<filter id="filter1_d_4184_75998" x="-4" y="665" width="368" height="400" filterUnits="userSpaceOnUse" color-interpolation-filters="sRGB">
<feFlood flood-opacity="0" result="BackgroundImageFix"/>
<feColorMatrix in="SourceAlpha" type="matrix" values="0 0 0 0 0 0 0 0 0 0 0 0 0 0 0 0 0 0 127 0" result="hardAlpha"/>
<feOffset dy="8"/>
<feGaussianBlur stdDeviation="8"/>
<feColorMatrix type="matrix" values="0 0 0 0 0 0 0 0 0 0 0 0 0 0 0 0 0 0 0.15 0"/>
<feBlend mode="normal" in2="BackgroundImageFix" result="effect1_dropShadow_4184_75998"/>
<feBlend mode="normal" in="SourceGraphic" in2="effect1_dropShadow_4184_75998" result="shape"/>
</filter>
<filter id="filter2_d_4184_75998" x="-4" y="1057" width="368" height="400" filterUnits="userSpaceOnUse" color-interpolation-filters="sRGB">
<feFlood flood-opacity="0" result="BackgroundImageFix"/>
<feColorMatrix in="SourceAlpha" type="matrix" values="0 0 0 0 0 0 0 0 0 0 0 0 0 0 0 0 0 0 127 0" result="hardAlpha"/>
<feOffset dy="8"/>
<feGaussianBlur stdDeviation="8"/>
<feColorMatrix type="matrix" values="0 0 0 0 0 0 0 0 0 0 0 0 0 0 0 0 0 0 0.15 0"/>
<feBlend mode="normal" in2="BackgroundImageFix" result="effect1_dropShadow_4184_75998"/>
<feBlend mode="normal" in="SourceGraphic" in2="effect1_dropShadow_4184_75998" result="shape"/>
</filter>
<filter id="filter3_d_4184_75998" x="-4" y="1449" width="368" height="376" filterUnits="userSpaceOnUse" color-interpolation-filters="sRGB">
<feFlood flood-opacity="0" result="BackgroundImageFix"/>
<feColorMatrix in="SourceAlpha" type="matrix" values="0 0 0 0 0 0 0 0 0 0 0 0 0 0 0 0 0 0 127 0" result="hardAlpha"/>
<feOffset dy="8"/>
<feGaussianBlur stdDeviation="8"/>
<feColorMatrix type="matrix" values="0 0 0 0 0 0 0 0 0 0 0 0 0 0 0 0 0 0 0.15 0"/>
<feBlend mode="normal" in2="BackgroundImageFix" result="effect1_dropShadow_4184_75998"/>
<feBlend mode="normal" in="SourceGraphic" in2="effect1_dropShadow_4184_75998" result="shape"/>
</filter>
<filter id="filter4_d_4184_75998" x="-4" y="2061" width="368" height="364" filterUnits="userSpaceOnUse" color-interpolation-filters="sRGB">
<feFlood flood-opacity="0" result="BackgroundImageFix"/>
<feColorMatrix in="SourceAlpha" type="matrix" values="0 0 0 0 0 0 0 0 0 0 0 0 0 0 0 0 0 0 127 0" result="hardAlpha"/>
<feOffset dy="8"/>
<feGaussianBlur stdDeviation="8"/>
<feColorMatrix type="matrix" values="0 0 0 0 0 0 0 0 0 0 0 0 0 0 0 0 0 0 0.15 0"/>
<feBlend mode="normal" in2="BackgroundImageFix" result="effect1_dropShadow_4184_75998"/>
<feBlend mode="normal" in="SourceGraphic" in2="effect1_dropShadow_4184_75998" result="shape"/>
</filter>
<filter id="filter5_d_4184_75998" x="-4" y="2411" width="368" height="388" filterUnits="userSpaceOnUse" color-interpolation-filters="sRGB">
<feFlood flood-opacity="0" result="BackgroundImageFix"/>
<feColorMatrix in="SourceAlpha" type="matrix" values="0 0 0 0 0 0 0 0 0 0 0 0 0 0 0 0 0 0 127 0" result="hardAlpha"/>
<feOffset dy="8"/>
<feGaussianBlur stdDeviation="8"/>
<feColorMatrix type="matrix" values="0 0 0 0 0 0 0 0 0 0 0 0 0 0 0 0 0 0 0.15 0"/>
<feBlend mode="normal" in2="BackgroundImageFix" result="effect1_dropShadow_4184_75998"/>
<feBlend mode="normal" in="SourceGraphic" in2="effect1_dropShadow_4184_75998" result="shape"/>
</filter>
<clipPath id="clip0_4184_75998">
<rect width="360" height="2943" fill="white"/>
</clipPath>
<clipPath id="clip1_4184_75998">
<rect width="47" height="24" fill="white" transform="translate(301 14)"/>
</clipPath>
<clipPath id="clip2_4184_75998">
<rect width="20.0764" height="24" fill="white" transform="translate(60 337)"/>
</clipPath>
<clipPath id="clip3_4184_75998">
<rect width="24" height="24" fill="white" transform="translate(48 1145)"/>
</clipPath>
<clipPath id="clip4_4184_75998">
<rect width="24" height="24" fill="white" transform="translate(48 2153)"/>
</clipPath>
</defs>
</svg>
