<?xml version="1.0" encoding="UTF-8"?>
<svg id="Layer_1" data-name="Layer 1" xmlns="http://www.w3.org/2000/svg" viewBox="0 0 1286.49 212.22">
  <defs>
    <style>
      .cls-1 {
        fill: #fff;
      }
    </style>
  </defs>
  <g>
    <path class="cls-1" d="M1153.77,35.36v141.49h-27.5V35.36h27.5Z"/>
    <path class="cls-1" d="M1182.47,35.36h44.64c46.43,0,59.38,18.33,59.38,69.55,0,46.04-10.36,71.95-58.19,71.95h-45.84V35.36ZM1228.11,59.28h-18.13v93.66h18.13c22.72,0,30.09-12.36,30.09-48.03,0-38.06-7.37-45.63-30.09-45.63Z"/>
  </g>
  <g>
    <g>
      <path class="cls-1" d="M863.73,150.45h-6.4c-4.21,0-6.54-2.57-6.54-6.78V38.01c0-1.51-1.21-2.64-2.72-2.64h-28.87c-1.51,0-2.64,1.13-2.64,2.64v109.04c0,20.05,10.61,29.81,32.67,29.81h14.63c1.51,0,2.77-1.12,2.77-2.63v-21.09c0-1.51-1.4-2.7-2.91-2.69Z"/>
      <path class="cls-1" d="M920.51,71.04c-32.32,0-51.73,20.21-51.73,54.25s19.81,54.4,53.45,54.4c23.69,0,39.61-9.94,46.08-26.78.55-1.43.79-2.3.79-3.12-.01-1.43-.73-2.73-2.87-2.73h-26.97c-.92,0-1.87.48-2.91,2.11-2.74,4.27-8.08,6.52-14.77,6.52-14.24,0-19.75-10.13-20.62-22.58h67.36c1.51,0,2.64-1.15,2.64-2.66v-9.98c0-30.21-18.93-49.42-50.44-49.42ZM901.08,111.46c.08-11.66,7.78-18.81,19.42-18.81s18.86,7.06,18.69,18.81h-38.11Z"/>
      <path class="cls-1" d="M1038.72,100.26c1.51,0,2.65-1.13,2.65-2.64v-21.13c0-1.51-1.32-2.64-2.83-2.64h-17.35v-25.47c0-1.51-1.14-2.64-2.65-2.64h-28.52c-1.51,0-2.8,1.18-2.8,2.69v25.42s-11.88,0-11.88,0c-1.51,0-2.83,1.14-2.83,2.65v21.12c0,1.51,1.13,2.65,2.64,2.65h12.08v40.76c0,23.81,12.2,35.83,36.61,35.83h14.89c1.51,0,2.65-1.14,2.65-2.64v-20.94c0-1.5-1.14-2.83-2.64-2.83h-10.95c-4.21,0-6.6-2.57-6.6-6.78v-43.41s17.54,0,17.54,0Z"/>
      <path class="cls-1" d="M749.89,150.45h-3.96c-3.08,0-4.92-2.04-4.92-6.24v-32.82c0-25.41-17.17-40.35-46.86-40.35-24.47,0-41.96,10.34-48.67,26.21-.7,1.67-1.1,2.94-1.08,3.78.02,1.34,1.07,2.26,2.65,2.26h28.11c1.58,0,2.47-.6,3.39-2.33,2.11-3.97,6.58-6.3,13.43-6.3,9.85,0,15.8,4.76,15.81,13.37v4.14s-25.17,1.7-25.17,1.7c-26.43,1.78-38.42,12-38.42,32.14,0,21.29,13.41,33.69,36.05,33.69,12.02,0,23.29-3.5,32.15-10.41,3.92,4.64,10.62,7.59,18.79,7.59h18.74c1.51,0,2.58-1.13,2.58-2.64v-21.11c0-1.51-1.12-2.66-2.63-2.66ZM707.81,150.08c-6.19,4.01-12.22,5.6-17.78,5.6-9,0-13.41-4.2-13.41-11.08,0-6.13,3.51-9.61,13.21-10.33l17.98-1.35v17.16Z"/>
      <path class="cls-1" d="M407.95,61.59v-23.39c0-1.51-1.14-2.84-2.65-2.84h-109.98c-1.51,0-2.65,1.32-2.65,2.83v23.4c0,1.51,1.12,2.83,2.63,2.83h37.36s0,109.78,0,109.78c0,1.51,1.32,2.66,2.83,2.66h29.62c1.51,0,2.84-1.13,2.84-2.64v-109.8h37.35c1.51,0,2.64-1.32,2.64-2.83Z"/>
      <path class="cls-1" d="M807.13,150.45h-6.4c-4.21,0-6.62-2.57-6.62-6.78V38.01c0-1.51-1.14-2.64-2.64-2.64h-28.87c-1.51,0-2.64,1.13-2.64,2.64v109.04c0,20.05,10.61,29.81,32.67,29.81h14.63c1.51,0,2.69-1.12,2.69-2.63v-21.16c0-1.51-1.32-2.62-2.83-2.62Z"/>
      <path class="cls-1" d="M452.46,105.93l-54.34-.02c-1.51,0-2.63,1.13-2.63,2.64v22.29c.01,1.51,1.19,2.63,2.7,2.63h54.26c1.51,0,2.66-1.13,2.66-2.64v-22.26c0-1.51-1.14-2.64-2.65-2.64Z"/>
      <path class="cls-1" d="M280.93,35.37h-29.99c-1.51,0-2.7,1.11-2.7,2.62l.06,136.24c0,1.51,1.14,2.64,2.65,2.64h29.99c1.51,0,2.65-1.13,2.65-2.64V37.98c0-1.51-1.13-2.61-2.64-2.61Z"/>
      <path class="cls-1" d="M643.43,35.37h-25.83c-1.33,0-2.4,1.03-2.63,2.34l-16.3,96.34h-1.74l-20.14-96.46c-.26-1.26-1.32-2.22-2.61-2.22h-39.4c-1.29,0-2.46.96-2.72,2.21l-20.55,96.28h-1.75l-16.07-96.16c-.22-1.31-1.36-2.33-2.69-2.33h-26.79c-1.69,0-3.05,1.58-2.76,3.25l23.86,136c.23,1.3,1.34,2.24,2.67,2.24h40.57c1.28,0,2.37-.87,2.64-2.13l21.67-99.42h1.96l21.67,99.42c.27,1.26,1.35,2.13,2.63,2.13h40.56c1.32,0,2.46-.93,2.69-2.23l23.85-136.01c.29-1.67-1.08-3.25-2.78-3.25Z"/>
    </g>
    <path class="cls-1" d="M83.74,1.04C82.45.32,81.08,0,79.75,0c-4.19.03-8.04,3.39-8.01,8.07l.23,42.83L12.13,17.34c-1.29-.73-2.66-1.05-3.99-1.04-4.19.03-8.01,3.39-8.01,8.07l-.13,141.19c0,6.37,2.87,11.92,9,15.36l53.8,30.25c1.29.73,2.66,1.05,3.99,1.04,4.19-.03,8.01-3.39,8.01-8.07V59.37l28.45,15.84c6.14,3.42,9,8.99,9,15.36v84.83s53.21,29.85,53.21,29.85c1.29.73,2.66,1.05,3.99,1.04,4.19-.03,8.01-3.39,8.01-8.07l.06-134.25c0-6.37-2.87-11.92-9-15.36L83.74,1.04Z"/>
  </g>
</svg>