<svg width="360" height="733" viewBox="0 0 360 733" fill="none" xmlns="http://www.w3.org/2000/svg">
<g clip-path="url(#clip0_4177_47328)">
<rect width="360" height="733" fill="white"/>
<rect width="360" height="48" fill="#004D99"/>
<path d="M14.772 26.97C15.0893 27.5207 15.696 27.796 16.592 27.796C17.488 27.796 18.09 27.5253 18.398 26.984C18.7153 26.4427 18.874 25.5373 18.874 24.268C18.874 22.9893 18.7107 22.0607 18.384 21.482C18.0667 20.9033 17.4693 20.614 16.592 20.614C15.7147 20.614 15.1127 20.9033 14.786 21.482C14.4593 22.0607 14.296 22.9847 14.296 24.254C14.296 25.514 14.4547 26.4193 14.772 26.97ZM19.616 27.978C19.0467 28.762 18.0387 29.154 16.592 29.154C15.1453 29.154 14.1327 28.762 13.554 27.978C12.9753 27.1847 12.686 25.9433 12.686 24.254C12.686 22.5647 12.9753 21.3093 13.554 20.488C14.142 19.6667 15.1547 19.256 16.592 19.256C18.0293 19.256 19.0373 19.6667 19.616 20.488C20.1947 21.3 20.484 22.5553 20.484 24.254C20.484 25.9527 20.1947 27.194 19.616 27.978ZM22.1115 29V22H23.6235V22.84C24.4168 22.3267 25.2102 21.9953 26.0035 21.846V23.372C25.2008 23.5307 24.5148 23.736 23.9455 23.988L23.6375 24.114V29H22.1115ZM33.2471 29.952C33.2471 31.4827 32.1411 32.248 29.9291 32.248C28.8651 32.248 28.0764 32.1033 27.5631 31.814C27.0497 31.5247 26.7931 30.9973 26.7931 30.232C26.7931 29.8867 26.8771 29.588 27.0451 29.336C27.2131 29.0933 27.4837 28.8273 27.8571 28.538C27.5491 28.3327 27.3951 27.992 27.3951 27.516C27.3951 27.3293 27.5211 27.026 27.7731 26.606L27.8991 26.396C27.2271 25.9947 26.8911 25.2947 26.8911 24.296C26.8911 23.456 27.1431 22.84 27.6471 22.448C28.1511 22.056 28.8324 21.86 29.6911 21.86C30.1017 21.86 30.5077 21.9067 30.9091 22L31.1191 22.042L33.2891 21.986V23.218L32.1271 23.148C32.3791 23.4747 32.5051 23.8573 32.5051 24.296C32.5051 25.2107 32.2717 25.8453 31.8051 26.2C31.3477 26.5453 30.6291 26.718 29.6491 26.718C29.4064 26.718 29.2011 26.6993 29.0331 26.662C28.9024 26.9793 28.8371 27.2267 28.8371 27.404C28.8371 27.572 28.9211 27.6887 29.0891 27.754C29.2664 27.8193 29.6864 27.8567 30.3491 27.866C31.4597 27.8753 32.2204 28.0247 32.6311 28.314C33.0417 28.6033 33.2471 29.1493 33.2471 29.952ZM28.2911 30.092C28.2911 30.4187 28.4217 30.652 28.6831 30.792C28.9444 30.932 29.3924 31.002 30.0271 31.002C31.1564 31.002 31.7211 30.68 31.7211 30.036C31.7211 29.672 31.6184 29.4387 31.4131 29.336C31.2171 29.2427 30.8204 29.1913 30.2231 29.182L28.8511 29.098C28.6457 29.266 28.5011 29.42 28.4171 29.56C28.3331 29.7093 28.2911 29.8867 28.2911 30.092ZM28.4031 24.296C28.4031 24.7253 28.5057 25.0427 28.7111 25.248C28.9164 25.444 29.2477 25.542 29.7051 25.542C30.1624 25.542 30.4891 25.444 30.6851 25.248C30.8904 25.0427 30.9931 24.7253 30.9931 24.296C30.9931 23.8667 30.8904 23.554 30.6851 23.358C30.4797 23.1527 30.1484 23.05 29.6911 23.05C28.8324 23.05 28.4031 23.4653 28.4031 24.296ZM39.6645 24.156V27.348C39.6739 27.5533 39.7252 27.7073 39.8185 27.81C39.9212 27.9033 40.0752 27.964 40.2805 27.992L40.2385 29.154C39.4359 29.154 38.8152 28.9813 38.3765 28.636C37.6299 28.9813 36.8785 29.154 36.1225 29.154C34.7319 29.154 34.0365 28.412 34.0365 26.928C34.0365 26.2187 34.2232 25.7053 34.5965 25.388C34.9792 25.0707 35.5625 24.8793 36.3465 24.814L38.1525 24.66V24.156C38.1525 23.7827 38.0685 23.5213 37.9005 23.372C37.7419 23.2227 37.5039 23.148 37.1865 23.148C36.5892 23.148 35.8425 23.1853 34.9465 23.26L34.4985 23.288L34.4425 22.21C35.4599 21.9673 36.3932 21.846 37.2425 21.846C38.1012 21.846 38.7172 22.0327 39.0905 22.406C39.4732 22.77 39.6645 23.3533 39.6645 24.156ZM36.5285 25.892C35.8845 25.948 35.5625 26.298 35.5625 26.942C35.5625 27.586 35.8472 27.908 36.4165 27.908C36.8832 27.908 37.3779 27.8333 37.9005 27.684L38.1525 27.6V25.738L36.5285 25.892ZM43.1063 29H41.5802V22H43.0923V22.434C43.7736 22.042 44.4176 21.846 45.0243 21.846C45.9576 21.846 46.5923 22.112 46.9283 22.644C47.2736 23.1667 47.4463 24.0347 47.4463 25.248V29H45.9343V25.29C45.9343 24.534 45.8503 23.9973 45.6823 23.68C45.5236 23.3627 45.1923 23.204 44.6883 23.204C44.2123 23.204 43.7549 23.2973 43.3163 23.484L43.1063 23.568V29ZM49.2228 29V22H50.7488V29H49.2228ZM49.2228 20.81V19.2H50.7488V20.81H49.2228ZM52.2498 23.358V22H57.4438V23.358L54.0838 27.642H57.4438V29H52.2498V27.642L55.6238 23.358H52.2498ZM64.1372 24.156V27.348C64.1465 27.5533 64.1979 27.7073 64.2912 27.81C64.3939 27.9033 64.5479 27.964 64.7532 27.992L64.7112 29.154C63.9085 29.154 63.2879 28.9813 62.8492 28.636C62.1025 28.9813 61.3512 29.154 60.5952 29.154C59.2045 29.154 58.5092 28.412 58.5092 26.928C58.5092 26.2187 58.6959 25.7053 59.0692 25.388C59.4519 25.0707 60.0352 24.8793 60.8192 24.814L62.6252 24.66V24.156C62.6252 23.7827 62.5412 23.5213 62.3732 23.372C62.2145 23.2227 61.9765 23.148 61.6592 23.148C61.0619 23.148 60.3152 23.1853 59.4192 23.26L58.9712 23.288L58.9152 22.21C59.9325 21.9673 60.8659 21.846 61.7152 21.846C62.5739 21.846 63.1899 22.0327 63.5632 22.406C63.9459 22.77 64.1372 23.3533 64.1372 24.156ZM61.0012 25.892C60.3572 25.948 60.0352 26.298 60.0352 26.942C60.0352 27.586 60.3199 27.908 60.8892 27.908C61.3559 27.908 61.8505 27.8333 62.3732 27.684L62.6252 27.6V25.738L61.0012 25.892ZM69.8189 23.302H67.8869V26.382C67.8869 26.9513 67.9289 27.3293 68.0129 27.516C68.0969 27.7027 68.3116 27.796 68.6569 27.796L69.8049 27.754L69.8749 28.972C69.2496 29.0933 68.7736 29.154 68.4469 29.154C67.6536 29.154 67.1076 28.972 66.8089 28.608C66.5196 28.244 66.3749 27.558 66.3749 26.55V23.302H65.4789V22H66.3749V19.97H67.8869V22H69.8189V23.302ZM71.0705 29V22H72.5965V29H71.0705ZM71.0705 20.81V19.2H72.5965V20.81H71.0705ZM74.8254 22.756C75.3108 22.1493 76.1134 21.846 77.2334 21.846C78.3534 21.846 79.1514 22.1493 79.6274 22.756C80.1128 23.3627 80.3554 24.2727 80.3554 25.486C80.3554 26.6993 80.1221 27.614 79.6554 28.23C79.1888 28.846 78.3814 29.154 77.2334 29.154C76.0854 29.154 75.2781 28.846 74.8114 28.23C74.3448 27.614 74.1114 26.6993 74.1114 25.486C74.1114 24.2727 74.3494 23.3627 74.8254 22.756ZM75.9734 27.306C76.1881 27.6793 76.6081 27.866 77.2334 27.866C77.8588 27.866 78.2788 27.6793 78.4934 27.306C78.7081 26.9327 78.8154 26.3213 78.8154 25.472C78.8154 24.6227 78.6988 24.0207 78.4654 23.666C78.2414 23.3113 77.8308 23.134 77.2334 23.134C76.6361 23.134 76.2208 23.3113 75.9874 23.666C75.7634 24.0207 75.6514 24.6227 75.6514 25.472C75.6514 26.3213 75.7588 26.9327 75.9734 27.306ZM83.3973 29H81.8713V22H83.3833V22.434C84.0646 22.042 84.7086 21.846 85.3153 21.846C86.2486 21.846 86.8833 22.112 87.2193 22.644C87.5646 23.1667 87.7373 24.0347 87.7373 25.248V29H86.2253V25.29C86.2253 24.534 86.1413 23.9973 85.9733 23.68C85.8146 23.3627 85.4833 23.204 84.9793 23.204C84.5033 23.204 84.0459 23.2973 83.6073 23.484L83.3973 23.568V29ZM94.116 29H92.59V22H94.102V22.434C94.7833 22.042 95.4273 21.846 96.034 21.846C96.9673 21.846 97.602 22.112 97.938 22.644C98.2833 23.1667 98.456 24.0347 98.456 25.248V29H96.944V25.29C96.944 24.534 96.86 23.9973 96.692 23.68C96.5333 23.3627 96.202 23.204 95.698 23.204C95.222 23.204 94.7647 23.2973 94.326 23.484L94.116 23.568V29ZM105.413 24.156V27.348C105.422 27.5533 105.473 27.7073 105.567 27.81C105.669 27.9033 105.823 27.964 106.029 27.992L105.987 29.154C105.184 29.154 104.563 28.9813 104.125 28.636C103.378 28.9813 102.627 29.154 101.871 29.154C100.48 29.154 99.7846 28.412 99.7846 26.928C99.7846 26.2187 99.9713 25.7053 100.345 25.388C100.727 25.0707 101.311 24.8793 102.095 24.814L103.901 24.66V24.156C103.901 23.7827 103.817 23.5213 103.649 23.372C103.49 23.2227 103.252 23.148 102.935 23.148C102.337 23.148 101.591 23.1853 100.695 23.26L100.247 23.288L100.191 22.21C101.208 21.9673 102.141 21.846 102.991 21.846C103.849 21.846 104.465 22.0327 104.839 22.406C105.221 22.77 105.413 23.3533 105.413 24.156ZM102.277 25.892C101.633 25.948 101.311 26.298 101.311 26.942C101.311 27.586 101.595 27.908 102.165 27.908C102.631 27.908 103.126 27.8333 103.649 27.684L103.901 27.6V25.738L102.277 25.892ZM108.854 29H107.328V22H108.84V22.434C109.503 22.042 110.11 21.846 110.66 21.846C111.472 21.846 112.065 22.0747 112.438 22.532C113.288 22.0747 114.132 21.846 114.972 21.846C115.812 21.846 116.405 22.1073 116.75 22.63C117.096 23.1433 117.268 24.016 117.268 25.248V29H115.756V25.29C115.756 24.534 115.677 23.9973 115.518 23.68C115.369 23.3627 115.052 23.204 114.566 23.204C114.146 23.204 113.694 23.2973 113.208 23.484L112.97 23.582C113.045 23.7687 113.082 24.366 113.082 25.374V29H111.57V25.402C111.57 24.5713 111.496 23.9973 111.346 23.68C111.197 23.3627 110.87 23.204 110.366 23.204C109.9 23.204 109.466 23.2973 109.064 23.484L108.854 23.568V29ZM124.043 27.74L124.435 27.698L124.463 28.832C123.399 29.0467 122.456 29.154 121.635 29.154C120.599 29.154 119.852 28.8693 119.395 28.3C118.947 27.7307 118.723 26.8207 118.723 25.57C118.723 23.0873 119.735 21.846 121.761 21.846C123.721 21.846 124.701 22.9147 124.701 25.052L124.603 26.144H120.263C120.272 26.7227 120.398 27.1473 120.641 27.418C120.883 27.6887 121.336 27.824 121.999 27.824C122.661 27.824 123.343 27.796 124.043 27.74ZM123.203 24.968C123.203 24.2773 123.091 23.7967 122.867 23.526C122.652 23.246 122.283 23.106 121.761 23.106C121.238 23.106 120.855 23.2507 120.613 23.54C120.379 23.8293 120.258 24.3053 120.249 24.968H123.203Z" fill="white"/>
<g clip-path="url(#clip1_4177_47328)">
<path d="M302.106 29V19.41H308.154V20.768H303.66V23.484H307.314V24.828H303.66V27.628H308.154V29H302.106ZM309.844 29V19.41H312.56L315.472 27.628H315.682V19.41H317.236V29H314.576L311.594 20.768H311.398V29H309.844ZM323.348 25.332V23.96H326.078V28.832C325.826 28.8973 325.313 28.9673 324.538 29.042C323.773 29.1167 323.217 29.154 322.872 29.154C321.416 29.154 320.413 28.7527 319.862 27.95C319.311 27.1473 319.036 25.892 319.036 24.184C319.036 22.4667 319.316 21.216 319.876 20.432C320.445 19.648 321.425 19.256 322.816 19.256C323.637 19.256 324.561 19.3493 325.588 19.536L326.078 19.634L326.022 20.866C324.893 20.7167 323.88 20.642 322.984 20.642C322.088 20.642 321.472 20.894 321.136 21.398C320.809 21.902 320.646 22.8353 320.646 24.198C320.646 25.5607 320.8 26.5033 321.108 27.026C321.425 27.5393 322.06 27.796 323.012 27.796C323.693 27.796 324.202 27.754 324.538 27.67V25.332H323.348Z" fill="white"/>
<path d="M343 27.2L337.4 21.6L338.1 20.8L343 25.7L347.9 20.8L348.6 21.6L343 27.2Z" fill="white"/>
</g>
<rect width="360" height="72" transform="translate(0 48)" fill="#F2F7FC"/>
<rect x="12.5" y="69" width="106" height="30" fill="#F2F7FC"/>
<rect x="12.5" y="69" width="106" height="30" stroke="#C5C7C9"/>
<line x1="13.1976" y1="69.3958" x2="117.9" y2="99.0189" stroke="#C5C7C9"/>
<path d="M27.5978 92.4399H25.8058V87.9279L22.3658 81.4799H24.3658L26.6858 86.1839L29.0218 81.4799H31.0058L27.5978 87.9279V92.4399ZM33.7823 90.1199C34.1449 90.7493 34.8383 91.0639 35.8623 91.0639C36.8863 91.0639 37.5743 90.7546 37.9263 90.1359C38.2889 89.5173 38.4703 88.4826 38.4703 87.0319C38.4703 85.5706 38.2836 84.5093 37.9103 83.8479C37.5476 83.1866 36.8649 82.8559 35.8623 82.8559C34.8596 82.8559 34.1716 83.1866 33.7983 83.8479C33.4249 84.5093 33.2383 85.5653 33.2383 87.0159C33.2383 88.4559 33.4196 89.4906 33.7823 90.1199ZM39.3183 91.2719C38.6676 92.1679 37.5156 92.6159 35.8623 92.6159C34.2089 92.6159 33.0516 92.1679 32.3903 91.2719C31.7289 90.3653 31.3983 88.9466 31.3983 87.0159C31.3983 85.0853 31.7289 83.6506 32.3903 82.7119C33.0623 81.7733 34.2196 81.3039 35.8623 81.3039C37.5049 81.3039 38.6569 81.7733 39.3183 82.7119C39.9796 83.6399 40.3103 85.0746 40.3103 87.0159C40.3103 88.9573 39.9796 90.3759 39.3183 91.2719ZM44.0743 88.9359C44.0743 90.3546 44.8209 91.0639 46.3143 91.0639C47.8076 91.0639 48.5543 90.3546 48.5543 88.9359V81.4799H50.3463V88.9039C50.3463 90.1946 50.0049 91.1386 49.3223 91.7359C48.6503 92.3226 47.6423 92.6159 46.2983 92.6159C44.9649 92.6159 43.9623 92.3226 43.2903 91.7359C42.6183 91.1386 42.2823 90.1946 42.2823 88.9039V81.4799H44.0743V88.9359ZM54.5605 88.5359V92.4399H52.7845V81.4799H56.9445C59.4192 81.4799 60.6565 82.6426 60.6565 84.9679C60.6565 86.5253 60.0592 87.5813 58.8645 88.1359L60.6725 92.4399H58.7205L57.1365 88.5359H54.5605ZM58.8325 84.9839C58.8325 83.6719 58.2032 83.0159 56.9445 83.0159H54.5605V86.9999H56.9765C57.6165 86.9999 58.0858 86.8186 58.3845 86.4559C58.6832 86.0826 58.8325 85.5919 58.8325 84.9839ZM72.3348 92.4399H66.1908V81.4799H67.9668V90.8559H72.3348V92.4399ZM75.501 90.1199C75.8637 90.7493 76.557 91.0639 77.581 91.0639C78.605 91.0639 79.293 90.7546 79.645 90.1359C80.0077 89.5173 80.189 88.4826 80.189 87.0319C80.189 85.5706 80.0023 84.5093 79.629 83.8479C79.2663 83.1866 78.5837 82.8559 77.581 82.8559C76.5783 82.8559 75.8903 83.1866 75.517 83.8479C75.1437 84.5093 74.957 85.5653 74.957 87.0159C74.957 88.4559 75.1383 89.4906 75.501 90.1199ZM81.037 91.2719C80.3863 92.1679 79.2343 92.6159 77.581 92.6159C75.9277 92.6159 74.7703 92.1679 74.109 91.2719C73.4477 90.3653 73.117 88.9466 73.117 87.0159C73.117 85.0853 73.4477 83.6506 74.109 82.7119C74.781 81.7733 75.9383 81.3039 77.581 81.3039C79.2237 81.3039 80.3757 81.7733 81.037 82.7119C81.6983 83.6399 82.029 85.0746 82.029 87.0159C82.029 88.9573 81.6983 90.3759 81.037 91.2719ZM88.561 88.2479V86.6799H91.681V92.2479C91.393 92.3226 90.8063 92.4026 89.921 92.4879C89.0463 92.5733 88.4117 92.6159 88.017 92.6159C86.353 92.6159 85.2063 92.1573 84.577 91.2399C83.9477 90.3226 83.633 88.8879 83.633 86.9359C83.633 84.9733 83.953 83.5439 84.593 82.6479C85.2437 81.7519 86.3637 81.3039 87.953 81.3039C88.8917 81.3039 89.9477 81.4106 91.121 81.6239L91.681 81.7359L91.617 83.1439C90.3263 82.9733 89.169 82.8879 88.145 82.8879C87.121 82.8879 86.417 83.1759 86.033 83.7519C85.6597 84.3279 85.473 85.3946 85.473 86.9519C85.473 88.5093 85.649 89.5866 86.001 90.1839C86.3637 90.7706 87.089 91.0639 88.177 91.0639C88.9557 91.0639 89.537 91.0159 89.921 90.9199V88.2479H88.561ZM95.8135 90.1199C96.1762 90.7493 96.8695 91.0639 97.8935 91.0639C98.9175 91.0639 99.6055 90.7546 99.9575 90.1359C100.32 89.5173 100.502 88.4826 100.502 87.0319C100.502 85.5706 100.315 84.5093 99.9415 83.8479C99.5788 83.1866 98.8962 82.8559 97.8935 82.8559C96.8908 82.8559 96.2028 83.1866 95.8295 83.8479C95.4562 84.5093 95.2695 85.5653 95.2695 87.0159C95.2695 88.4559 95.4508 89.4906 95.8135 90.1199ZM101.35 91.2719C100.699 92.1679 99.5468 92.6159 97.8935 92.6159C96.2402 92.6159 95.0828 92.1679 94.4215 91.2719C93.7602 90.3653 93.4295 88.9466 93.4295 87.0159C93.4295 85.0853 93.7602 83.6506 94.4215 82.7119C95.0935 81.7733 96.2508 81.3039 97.8935 81.3039C99.5362 81.3039 100.688 81.7733 101.35 82.7119C102.011 83.6399 102.342 85.0746 102.342 87.0159C102.342 88.9573 102.011 90.3759 101.35 91.2719Z" fill="black"/>
<path d="M131 68.5V99.5" stroke="#C5C7C9" stroke-linejoin="round"/>
<path d="M152.021 72.0004C152.171 71.9995 152.325 72.0362 152.471 72.1185L162.059 77.4965C162.752 77.8855 163.076 78.5134 163.076 79.2338L163.07 94.4164C163.07 94.9454 162.638 95.3257 162.164 95.3295C162.014 95.3304 161.859 95.2935 161.713 95.2113L155.695 91.8353V82.2416C155.695 81.5214 155.372 80.8905 154.678 80.5043L151.461 78.7143V95.0873C151.461 95.6164 151.028 95.9967 150.554 96.0004C150.404 96.0012 150.249 95.9645 150.103 95.8822L144.018 92.4603C143.324 92.0714 143 91.4432 143 90.723L143.015 74.7553C143.016 74.2263 143.447 73.8468 143.921 73.8432C144.071 73.8422 144.226 73.8789 144.372 73.9613L151.141 77.7572L151.114 72.9125C151.112 72.3836 151.546 72.0042 152.021 72.0004ZM221.471 79.8734C224.828 79.8734 226.77 81.5635 226.771 84.4369V88.1488C226.771 88.6236 226.978 88.8538 227.326 88.8539H227.774L227.773 88.8559C227.943 88.8561 228.07 88.9865 228.07 89.1566V91.5434C228.07 91.7136 227.95 91.8422 227.779 91.8422H225.66C224.736 91.8422 223.977 91.5083 223.534 90.9838C222.532 91.7654 221.258 92.1605 219.898 92.1605C217.338 92.1605 215.822 90.7584 215.822 88.351C215.822 86.0743 217.178 84.9176 220.167 84.7162L223.014 84.5238V84.0551C223.013 83.0831 222.339 82.5443 221.226 82.5443C220.451 82.5444 219.945 82.8068 219.707 83.2562C219.603 83.4521 219.502 83.5199 219.323 83.5199H216.145C215.965 83.5199 215.846 83.416 215.844 83.2641C215.842 83.1689 215.887 83.0255 215.967 82.8373C216.727 81.0431 218.704 79.8736 221.471 79.8734ZM247.068 79.8734C250.632 79.8734 252.772 82.0451 252.772 85.4623V86.5912C252.772 86.7613 252.645 86.8908 252.475 86.891H244.856C244.955 88.2989 245.579 89.4457 247.189 89.4457C247.946 89.4457 248.55 89.1917 248.859 88.7084C248.977 88.5247 249.085 88.4712 249.188 88.4711H252.239C252.481 88.4712 252.562 88.6169 252.563 88.7787C252.564 88.8711 252.538 88.9695 252.476 89.1312C251.744 91.0362 249.944 92.1605 247.265 92.1605C243.46 92.1605 241.22 89.8594 241.22 86.0092C241.22 82.1592 243.415 79.8739 247.068 79.8734ZM215.734 75.8402V75.8412C215.926 75.8414 216.081 76.0209 216.048 76.2094L213.351 91.5902C213.325 91.7384 213.197 91.8429 213.047 91.8432H208.459C208.314 91.8431 208.193 91.7438 208.162 91.6019L205.711 80.3588H205.489L203.039 91.6019C203.008 91.7438 202.884 91.8432 202.739 91.8432H198.151C198.002 91.8432 197.876 91.7376 197.851 91.5902L195.152 76.2094C195.119 76.0208 195.274 75.8412 195.465 75.8412H198.494C198.645 75.8414 198.774 75.9567 198.799 76.1049L200.616 86.9799H200.815L203.139 76.0922C203.17 75.9494 203.302 75.8412 203.447 75.8412H207.903C208.05 75.8412 208.169 75.9494 208.199 76.0922L210.477 87.0014H210.674L212.517 76.1059C212.541 75.9568 212.662 75.8405 212.812 75.8402H215.734ZM174.738 75.8393C174.908 75.8393 175.036 75.9649 175.036 76.1351V91.5434C175.036 91.7136 174.908 91.8422 174.737 91.8422H171.347C171.176 91.8422 171.047 91.7136 171.047 91.5434L171.041 76.1361C171.041 75.9659 171.176 75.8402 171.347 75.8402H174.738V75.8393ZM188.804 75.8393C188.975 75.8393 189.103 75.9903 189.104 76.1605V78.8051H189.103C189.103 78.9763 188.974 79.1254 188.804 79.1254H184.58V91.5424C184.58 91.7126 184.43 91.8411 184.26 91.8412H180.91C180.74 91.8412 180.591 91.7105 180.591 91.5404V79.1254H176.365C176.195 79.1254 176.067 78.9744 176.067 78.8041V76.1586C176.068 75.9884 176.197 75.8393 176.367 75.8393H188.804ZM232.475 75.8402C232.646 75.8402 232.774 75.9688 232.774 76.1391V88.0883C232.775 88.564 233.047 88.8537 233.522 88.8539H234.246C234.416 88.8539 234.565 88.9805 234.565 89.1508V91.5443C234.565 91.7146 234.431 91.8412 234.261 91.8412H232.606C230.112 91.8421 228.912 90.7383 228.912 88.4711V76.1391C228.912 75.9689 229.04 75.8404 229.21 75.8402H232.475ZM238.877 75.8402C239.047 75.8402 239.185 75.9688 239.185 76.1391V88.0883C239.185 88.5641 239.449 88.8539 239.925 88.8539H240.648C240.819 88.8539 240.977 88.9885 240.978 89.1586V91.5443C240.978 91.7146 240.833 91.8412 240.663 91.8412H239.009C236.515 91.842 235.315 90.7382 235.314 88.4711V76.1391C235.314 75.9688 235.443 75.8402 235.613 75.8402H238.877ZM258.156 77.0131C258.327 77.0131 258.456 77.1416 258.456 77.3119V80.1928H260.418C260.589 80.1928 260.738 80.3204 260.738 80.4906V82.8803C260.738 83.0513 260.609 83.1781 260.438 83.1781H258.456V88.0873C258.456 88.5632 258.726 88.8529 259.202 88.8529H260.44C260.611 88.853 260.738 89.0032 260.738 89.1732V91.5424C260.738 91.7124 260.61 91.8402 260.439 91.8402H258.756C255.995 91.8402 254.615 90.4807 254.615 87.7875V83.1781H253.25C253.079 83.1781 252.951 83.0495 252.951 82.8793V80.4906C252.951 80.3205 253.1 80.1918 253.271 80.1918H254.614V77.3168C254.614 77.1466 254.761 77.0131 254.932 77.0131H258.156ZM220.983 87.0238C219.886 87.1062 219.489 87.5001 219.489 88.1928C219.489 88.9699 219.987 89.4456 221.005 89.4457C221.633 89.4457 222.315 89.266 223.016 88.8119H223.017V86.8715L220.983 87.0238ZM194.137 83.8197H194.138C194.308 83.8197 194.437 83.9483 194.438 84.1185V86.6361C194.437 86.8062 194.307 86.9347 194.137 86.935H188C187.829 86.9349 187.695 86.8073 187.694 86.6371V84.1156C187.694 83.9446 187.822 83.8178 187.992 83.8178L194.137 83.8197ZM247.067 82.3168C245.751 82.3169 244.879 83.1257 244.871 84.4447H249.182C249.201 83.1155 248.384 82.3168 247.067 82.3168Z" fill="#0066CC"/>
<rect width="360" height="132" transform="translate(0 120)" fill="white"/>
<path d="M32.9996 147.5H17.4996L22.7996 142.1L22.0996 141.4L15.5996 148L22.0996 154.6L22.7996 153.9L17.4996 148.5H32.9996V147.5Z" fill="#0066CC"/>
<path d="M101.65 157.692C99.6711 158.121 97.8884 158.336 96.3018 158.336C94.7151 158.336 93.4458 158.14 92.4938 157.748C91.5418 157.356 90.7951 156.731 90.2538 155.872C89.7124 155.013 89.3391 154.005 89.1338 152.848C88.9284 151.691 88.8258 150.235 88.8258 148.48C88.8258 144.803 89.3391 142.245 90.3658 140.808C91.4111 139.352 93.3244 138.624 96.1058 138.624C97.7111 138.624 99.5684 138.876 101.678 139.38L101.566 142.46C99.7178 142.18 98.1778 142.04 96.9458 142.04C95.7324 142.04 94.8644 142.208 94.3418 142.544C93.8191 142.861 93.4271 143.477 93.1658 144.392C92.9231 145.307 92.8018 146.865 92.8018 149.068C92.8018 151.271 93.0538 152.801 93.5578 153.66C94.0804 154.5 95.1071 154.92 96.6378 154.92C98.1871 154.92 99.8298 154.789 101.566 154.528L101.65 157.692ZM108.201 158H104.449V138.4H108.201V144.672C109.489 144 110.646 143.664 111.673 143.664C113.54 143.664 114.828 144.215 115.537 145.316C116.246 146.417 116.601 148.116 116.601 150.412V158H112.849V150.496C112.849 149.32 112.709 148.452 112.429 147.892C112.149 147.313 111.589 147.024 110.749 147.024C110.021 147.024 109.293 147.136 108.565 147.36L108.201 147.472V158ZM120.681 145.596C121.671 144.308 123.323 143.664 125.637 143.664C127.952 143.664 129.604 144.308 130.593 145.596C131.583 146.865 132.077 148.657 132.077 150.972C132.077 155.881 129.931 158.336 125.637 158.336C121.344 158.336 119.197 155.881 119.197 150.972C119.197 148.657 119.692 146.865 120.681 145.596ZM123.565 154.136C123.957 154.808 124.648 155.144 125.637 155.144C126.627 155.144 127.308 154.808 127.681 154.136C128.073 153.464 128.269 152.409 128.269 150.972C128.269 149.535 128.073 148.489 127.681 147.836C127.308 147.183 126.627 146.856 125.637 146.856C124.648 146.856 123.957 147.183 123.565 147.836C123.192 148.489 123.005 149.535 123.005 150.972C123.005 152.409 123.192 153.464 123.565 154.136ZM135.584 145.596C136.573 144.308 138.225 143.664 140.54 143.664C142.854 143.664 144.506 144.308 145.496 145.596C146.485 146.865 146.98 148.657 146.98 150.972C146.98 155.881 144.833 158.336 140.54 158.336C136.246 158.336 134.1 155.881 134.1 150.972C134.1 148.657 134.594 146.865 135.584 145.596ZM138.468 154.136C138.86 154.808 139.55 155.144 140.54 155.144C141.529 155.144 142.21 154.808 142.584 154.136C142.976 153.464 143.172 152.409 143.172 150.972C143.172 149.535 142.976 148.489 142.584 147.836C142.21 147.183 141.529 146.856 140.54 146.856C139.55 146.856 138.86 147.183 138.468 147.836C138.094 148.489 137.908 149.535 137.908 150.972C137.908 152.409 138.094 153.464 138.468 154.136ZM159.782 147.5C157.467 147.201 155.843 147.052 154.91 147.052C153.995 147.052 153.398 147.136 153.118 147.304C152.857 147.472 152.726 147.743 152.726 148.116C152.726 148.471 152.903 148.723 153.258 148.872C153.631 149.003 154.565 149.208 156.058 149.488C157.57 149.749 158.643 150.188 159.278 150.804C159.913 151.42 160.23 152.419 160.23 153.8C160.23 156.824 158.354 158.336 154.602 158.336C153.37 158.336 151.877 158.168 150.122 157.832L149.226 157.664L149.338 154.528C151.653 154.827 153.258 154.976 154.154 154.976C155.069 154.976 155.685 154.892 156.002 154.724C156.338 154.537 156.506 154.267 156.506 153.912C156.506 153.557 156.329 153.296 155.974 153.128C155.638 152.96 154.742 152.755 153.286 152.512C151.849 152.269 150.775 151.859 150.066 151.28C149.357 150.701 149.002 149.675 149.002 148.2C149.002 146.707 149.506 145.587 150.514 144.84C151.522 144.075 152.819 143.692 154.406 143.692C155.507 143.692 157.01 143.869 158.914 144.224L159.838 144.392L159.782 147.5ZM166.017 152.596C166.036 153.455 166.26 154.08 166.689 154.472C167.137 154.845 167.772 155.032 168.593 155.032C170.329 155.032 171.879 154.976 173.241 154.864L174.025 154.78L174.081 157.552C171.935 158.075 169.993 158.336 168.257 158.336C166.148 158.336 164.617 157.776 163.665 156.656C162.713 155.536 162.237 153.716 162.237 151.196C162.237 146.175 164.3 143.664 168.425 143.664C172.495 143.664 174.529 145.773 174.529 149.992L174.249 152.596H166.017ZM170.833 149.74C170.833 148.62 170.656 147.845 170.301 147.416C169.947 146.968 169.321 146.744 168.425 146.744C167.548 146.744 166.923 146.977 166.549 147.444C166.195 147.892 166.008 148.657 165.989 149.74H170.833ZM191.119 147.192H187.675V152.932C187.675 153.492 187.684 153.893 187.703 154.136C187.74 154.36 187.843 154.556 188.011 154.724C188.198 154.892 188.478 154.976 188.851 154.976L190.979 154.92L191.147 157.916C189.896 158.196 188.944 158.336 188.291 158.336C186.611 158.336 185.463 157.963 184.847 157.216C184.231 156.451 183.923 155.051 183.923 153.016V147.192H182.271V144H183.923V140.108H187.675V144H191.119V147.192ZM197.314 158H193.562V138.4H197.314V144.672C198.602 144 199.76 143.664 200.786 143.664C202.653 143.664 203.941 144.215 204.65 145.316C205.36 146.417 205.714 148.116 205.714 150.412V158H201.962V150.496C201.962 149.32 201.822 148.452 201.542 147.892C201.262 147.313 200.702 147.024 199.862 147.024C199.134 147.024 198.406 147.136 197.678 147.36L197.314 147.472V158ZM212.119 152.596C212.137 153.455 212.361 154.08 212.791 154.472C213.239 154.845 213.873 155.032 214.695 155.032C216.431 155.032 217.98 154.976 219.343 154.864L220.127 154.78L220.183 157.552C218.036 158.075 216.095 158.336 214.359 158.336C212.249 158.336 210.719 157.776 209.767 156.656C208.815 155.536 208.339 153.716 208.339 151.196C208.339 146.175 210.401 143.664 214.527 143.664C218.596 143.664 220.631 145.773 220.631 149.992L220.351 152.596H212.119ZM216.935 149.74C216.935 148.62 216.757 147.845 216.403 147.416C216.048 146.968 215.423 146.744 214.527 146.744C213.649 146.744 213.024 146.977 212.651 147.444C212.296 147.892 212.109 148.657 212.091 149.74H216.935ZM240.189 148.368V154.192C240.226 154.64 240.301 154.957 240.413 155.144C240.525 155.312 240.758 155.433 241.113 155.508L241.001 158.336C240.049 158.336 239.283 158.271 238.705 158.14C238.145 158.009 237.575 157.748 236.997 157.356C235.653 158.009 234.281 158.336 232.881 158.336C229.987 158.336 228.541 156.805 228.541 153.744C228.541 152.251 228.942 151.196 229.745 150.58C230.547 149.945 231.779 149.572 233.441 149.46L236.437 149.236V148.368C236.437 147.789 236.306 147.397 236.045 147.192C235.783 146.968 235.363 146.856 234.785 146.856L229.521 147.08L229.409 144.476C231.406 143.935 233.301 143.664 235.093 143.664C236.903 143.664 238.201 144.037 238.985 144.784C239.787 145.531 240.189 146.725 240.189 148.368ZM233.889 152.064C232.843 152.157 232.321 152.717 232.321 153.744C232.321 154.771 232.778 155.284 233.693 155.284C234.402 155.284 235.177 155.172 236.017 154.948L236.437 154.836V151.84L233.889 152.064ZM243.765 163.88V144H247.489V144.756C248.703 144.028 249.767 143.664 250.681 143.664C252.567 143.664 253.957 144.233 254.853 145.372C255.749 146.492 256.197 148.405 256.197 151.112C256.197 153.819 255.703 155.704 254.713 156.768C253.724 157.813 252.1 158.336 249.841 158.336C249.225 158.336 248.563 158.28 247.853 158.168L247.517 158.112V163.88H243.765ZM249.953 147.024C249.263 147.024 248.563 147.164 247.853 147.444L247.517 147.584V154.92C248.357 155.032 249.039 155.088 249.561 155.088C250.644 155.088 251.381 154.771 251.773 154.136C252.184 153.501 252.389 152.419 252.389 150.888C252.389 148.312 251.577 147.024 249.953 147.024ZM258.996 163.88V144H262.72V144.756C263.933 144.028 264.997 143.664 265.912 143.664C267.797 143.664 269.188 144.233 270.084 145.372C270.98 146.492 271.428 148.405 271.428 151.112C271.428 153.819 270.933 155.704 269.944 156.768C268.954 157.813 267.33 158.336 265.072 158.336C264.456 158.336 263.793 158.28 263.084 158.168L262.748 158.112V163.88H258.996ZM265.184 147.024C264.493 147.024 263.793 147.164 263.084 147.444L262.748 147.584V154.92C263.588 155.032 264.269 155.088 264.792 155.088C265.874 155.088 266.612 154.771 267.004 154.136C267.414 153.501 267.62 152.419 267.62 150.888C267.62 148.312 266.808 147.024 265.184 147.024Z" fill="#17324D"/>
<path d="M35.7934 186.3C33.7934 186.3 32.7934 187.053 32.7934 188.56C32.7934 189.4 33.0201 189.98 33.4734 190.3C33.9401 190.607 34.8734 190.92 36.2734 191.24C37.6868 191.547 38.6868 191.953 39.2734 192.46C39.8601 192.953 40.1534 193.773 40.1534 194.92C40.1534 197.76 38.6801 199.18 35.7334 199.18C34.7601 199.18 33.5401 199.067 32.0734 198.84L31.3534 198.74L31.5134 197.46C33.3268 197.7 34.7068 197.82 35.6534 197.82C37.6268 197.82 38.6134 196.893 38.6134 195.04C38.6134 194.293 38.3934 193.76 37.9534 193.44C37.5268 193.107 36.7201 192.827 35.5334 192.6C33.9734 192.267 32.8668 191.84 32.2134 191.32C31.5601 190.787 31.2334 189.9 31.2334 188.66C31.2334 186.18 32.7201 184.94 35.6934 184.94C36.6668 184.94 37.8334 185.04 39.1934 185.24L39.8734 185.34L39.7334 186.64C37.8801 186.413 36.5668 186.3 35.7934 186.3ZM49.3533 197.76L49.9333 197.7L49.9733 198.88C48.4533 199.093 47.1533 199.2 46.0733 199.2C44.6333 199.2 43.6133 198.787 43.0133 197.96C42.4133 197.12 42.1133 195.82 42.1133 194.06C42.1133 190.553 43.5066 188.8 46.2933 188.8C47.6399 188.8 48.6466 189.18 49.3133 189.94C49.9799 190.687 50.3133 191.867 50.3133 193.48L50.2333 194.62H43.6333C43.6333 195.727 43.8333 196.547 44.2333 197.08C44.6333 197.613 45.3266 197.88 46.3133 197.88C47.3133 197.88 48.3266 197.84 49.3533 197.76ZM48.8133 193.42C48.8133 192.193 48.6133 191.327 48.2133 190.82C47.8266 190.313 47.1866 190.06 46.2933 190.06C45.4133 190.06 44.7466 190.327 44.2933 190.86C43.8533 191.393 43.6266 192.247 43.6133 193.42H48.8133ZM52.7709 199V184.64H54.2709V199H52.7709ZM64.0798 197.76L64.6598 197.7L64.6998 198.88C63.1798 199.093 61.8798 199.2 60.7998 199.2C59.3598 199.2 58.3398 198.787 57.7398 197.96C57.1398 197.12 56.8398 195.82 56.8398 194.06C56.8398 190.553 58.2332 188.8 61.0198 188.8C62.3665 188.8 63.3732 189.18 64.0398 189.94C64.7065 190.687 65.0398 191.867 65.0398 193.48L64.9598 194.62H58.3598C58.3598 195.727 58.5598 196.547 58.9598 197.08C59.3598 197.613 60.0532 197.88 61.0398 197.88C62.0398 197.88 63.0532 197.84 64.0798 197.76ZM63.5398 193.42C63.5398 192.193 63.3398 191.327 62.9398 190.82C62.5532 190.313 61.9132 190.06 61.0198 190.06C60.1398 190.06 59.4732 190.327 59.0198 190.86C58.5798 191.393 58.3532 192.247 58.3398 193.42H63.5398ZM71.1175 188.8C71.5575 188.8 72.3042 188.88 73.3575 189.04L73.8375 189.1L73.7775 190.32C72.7108 190.2 71.9242 190.14 71.4175 190.14C70.2842 190.14 69.5108 190.413 69.0975 190.96C68.6975 191.493 68.4975 192.493 68.4975 193.96C68.4975 195.413 68.6842 196.427 69.0575 197C69.4442 197.573 70.2375 197.86 71.4375 197.86L73.7975 197.68L73.8575 198.92C72.6175 199.107 71.6908 199.2 71.0775 199.2C69.5175 199.2 68.4375 198.8 67.8375 198C67.2508 197.2 66.9575 195.853 66.9575 193.96C66.9575 192.053 67.2775 190.72 67.9175 189.96C68.5575 189.187 69.6242 188.8 71.1175 188.8ZM81.2684 190.3H78.0884V195.08C78.0884 196.227 78.1684 196.98 78.3284 197.34C78.5018 197.7 78.9018 197.88 79.5284 197.88L81.3084 197.76L81.4084 199C80.5151 199.147 79.8351 199.22 79.3684 199.22C78.3284 199.22 77.6084 198.967 77.2084 198.46C76.8084 197.953 76.6084 196.987 76.6084 195.56V190.3H75.1884V189H76.6084V185.94H78.0884V189H81.2684V190.3ZM92.6747 190.3H89.4947V195.08C89.4947 196.227 89.5747 196.98 89.7347 197.34C89.908 197.7 90.308 197.88 90.9347 197.88L92.7147 197.76L92.8147 199C91.9214 199.147 91.2414 199.22 90.7747 199.22C89.7347 199.22 89.0147 198.967 88.6147 198.46C88.2147 197.953 88.0147 196.987 88.0147 195.56V190.3H86.5947V189H88.0147V185.94H89.4947V189H92.6747V190.3ZM96.0064 199H94.5064V184.64H96.0064V189.56C97.0731 189.053 98.0997 188.8 99.0864 188.8C100.42 188.8 101.313 189.16 101.766 189.88C102.233 190.6 102.466 191.88 102.466 193.72V199H100.966V193.76C100.966 192.373 100.826 191.427 100.546 190.92C100.28 190.4 99.7064 190.14 98.8264 190.14C97.9864 190.14 97.1731 190.293 96.3864 190.6L96.0064 190.74V199ZM112.049 197.76L112.629 197.7L112.669 198.88C111.149 199.093 109.849 199.2 108.769 199.2C107.329 199.2 106.309 198.787 105.709 197.96C105.109 197.12 104.809 195.82 104.809 194.06C104.809 190.553 106.202 188.8 108.989 188.8C110.335 188.8 111.342 189.18 112.009 189.94C112.675 190.687 113.009 191.867 113.009 193.48L112.929 194.62H106.329C106.329 195.727 106.529 196.547 106.929 197.08C107.329 197.613 108.022 197.88 109.009 197.88C110.009 197.88 111.022 197.84 112.049 197.76ZM111.509 193.42C111.509 192.193 111.309 191.327 110.909 190.82C110.522 190.313 109.882 190.06 108.989 190.06C108.109 190.06 107.442 190.327 106.989 190.86C106.549 191.393 106.322 192.247 106.309 193.42H111.509ZM127.421 184.64V199H125.941V198.32C124.914 198.907 123.901 199.2 122.901 199.2C122.367 199.2 121.901 199.133 121.501 199C121.101 198.867 120.727 198.627 120.381 198.28C119.661 197.56 119.301 196.233 119.301 194.3C119.301 192.353 119.621 190.953 120.261 190.1C120.914 189.233 121.987 188.8 123.481 188.8C124.254 188.8 125.074 188.887 125.941 189.06V184.64H127.421ZM121.541 197.2C121.754 197.453 121.981 197.627 122.221 197.72C122.461 197.813 122.767 197.86 123.141 197.86C123.527 197.86 123.954 197.8 124.421 197.68C124.901 197.547 125.274 197.42 125.541 197.3L125.941 197.12V190.34C125.087 190.18 124.294 190.1 123.561 190.1C122.547 190.1 121.841 190.427 121.441 191.08C121.041 191.72 120.841 192.72 120.841 194.08C120.841 195.627 121.074 196.667 121.541 197.2ZM130.327 199V189H131.827V199H130.327ZM130.327 186.74V185H131.827V186.74H130.327ZM138.562 203.7C136.962 203.7 135.842 203.48 135.202 203.04C134.575 202.613 134.262 201.827 134.262 200.68C134.262 200.133 134.382 199.687 134.622 199.34C134.862 199.007 135.268 198.627 135.842 198.2C135.468 197.947 135.282 197.487 135.282 196.82C135.282 196.593 135.448 196.173 135.782 195.56L135.962 195.24C134.908 194.76 134.382 193.753 134.382 192.22C134.382 189.94 135.628 188.8 138.122 188.8C138.762 188.8 139.355 188.867 139.902 189L140.202 189.06L143.162 188.98V190.26L141.262 190.22C141.702 190.66 141.922 191.327 141.922 192.22C141.922 193.473 141.608 194.353 140.982 194.86C140.368 195.353 139.395 195.6 138.062 195.6C137.702 195.6 137.375 195.573 137.082 195.52C136.842 196.107 136.722 196.487 136.722 196.66C136.722 197.073 136.848 197.333 137.102 197.44C137.355 197.533 138.122 197.58 139.402 197.58C140.682 197.58 141.602 197.78 142.162 198.18C142.722 198.58 143.002 199.36 143.002 200.52C143.002 202.64 141.522 203.7 138.562 203.7ZM135.742 200.56C135.742 201.267 135.935 201.753 136.322 202.02C136.722 202.3 137.448 202.44 138.502 202.44C139.568 202.44 140.328 202.293 140.782 202C141.248 201.707 141.482 201.213 141.482 200.52C141.482 199.84 141.315 199.4 140.982 199.2C140.648 199 139.995 198.9 139.022 198.9L136.862 198.8C136.422 199.12 136.122 199.4 135.962 199.64C135.815 199.88 135.742 200.187 135.742 200.56ZM135.882 192.22C135.882 193.007 136.055 193.567 136.402 193.9C136.762 194.233 137.348 194.4 138.162 194.4C138.975 194.4 139.555 194.233 139.902 193.9C140.248 193.567 140.422 193.007 140.422 192.22C140.422 191.42 140.248 190.853 139.902 190.52C139.555 190.187 138.975 190.02 138.162 190.02C137.348 190.02 136.762 190.193 136.402 190.54C136.055 190.873 135.882 191.433 135.882 192.22ZM144.975 199V189H146.475V199H144.975ZM144.975 186.74V185H146.475V186.74H144.975ZM154.53 190.3H151.35V195.08C151.35 196.227 151.43 196.98 151.59 197.34C151.763 197.7 152.163 197.88 152.79 197.88L154.57 197.76L154.67 199C153.777 199.147 153.097 199.22 152.63 199.22C151.59 199.22 150.87 198.967 150.47 198.46C150.07 197.953 149.87 196.987 149.87 195.56V190.3H148.45V189H149.87V185.94H151.35V189H154.53V190.3ZM163.422 192.02V197.14C163.462 197.633 163.849 197.927 164.582 198.02L164.522 199.2C163.469 199.2 162.675 198.933 162.142 198.4C160.942 198.933 159.742 199.2 158.542 199.2C157.622 199.2 156.922 198.94 156.442 198.42C155.962 197.9 155.722 197.153 155.722 196.18C155.722 195.207 155.969 194.493 156.462 194.04C156.955 193.573 157.729 193.287 158.782 193.18L161.922 192.88V192.02C161.922 191.34 161.775 190.853 161.482 190.56C161.189 190.267 160.789 190.12 160.282 190.12C159.215 190.12 158.109 190.187 156.962 190.32L156.342 190.38L156.282 189.24C157.749 188.947 159.049 188.8 160.182 188.8C161.315 188.8 162.135 189.06 162.642 189.58C163.162 190.1 163.422 190.913 163.422 192.02ZM157.262 196.1C157.262 197.327 157.769 197.94 158.782 197.94C159.689 197.94 160.582 197.787 161.462 197.48L161.922 197.32V194.02L158.962 194.3C158.362 194.353 157.929 194.527 157.662 194.82C157.395 195.113 157.262 195.54 157.262 196.1ZM166.501 199V184.64H168.001V199H166.501ZM174.585 189H176.085L178.105 197.7H178.425L180.805 189.2H182.365L184.745 197.7H185.085L187.085 189H188.585L186.205 199H183.705L181.585 191.18L179.465 199H176.965L174.585 189ZM197.602 192.02V197.14C197.642 197.633 198.028 197.927 198.762 198.02L198.702 199.2C197.648 199.2 196.855 198.933 196.322 198.4C195.122 198.933 193.922 199.2 192.722 199.2C191.802 199.2 191.102 198.94 190.622 198.42C190.142 197.9 189.902 197.153 189.902 196.18C189.902 195.207 190.148 194.493 190.642 194.04C191.135 193.573 191.908 193.287 192.962 193.18L196.102 192.88V192.02C196.102 191.34 195.955 190.853 195.662 190.56C195.368 190.267 194.968 190.12 194.462 190.12C193.395 190.12 192.288 190.187 191.142 190.32L190.522 190.38L190.462 189.24C191.928 188.947 193.228 188.8 194.362 188.8C195.495 188.8 196.315 189.06 196.822 189.58C197.342 190.1 197.602 190.913 197.602 192.02ZM191.442 196.1C191.442 197.327 191.948 197.94 192.962 197.94C193.868 197.94 194.762 197.787 195.642 197.48L196.102 197.32V194.02L193.142 194.3C192.542 194.353 192.108 194.527 191.842 194.82C191.575 195.113 191.442 195.54 191.442 196.1ZM200.681 199V184.64H202.181V199H200.681ZM205.31 199V184.64H206.81V199H205.31ZM216.619 197.76L217.199 197.7L217.239 198.88C215.719 199.093 214.419 199.2 213.339 199.2C211.899 199.2 210.879 198.787 210.279 197.96C209.679 197.12 209.379 195.82 209.379 194.06C209.379 190.553 210.772 188.8 213.559 188.8C214.906 188.8 215.912 189.18 216.579 189.94C217.246 190.687 217.579 191.867 217.579 193.48L217.499 194.62H210.899C210.899 195.727 211.099 196.547 211.499 197.08C211.899 197.613 212.592 197.88 213.579 197.88C214.579 197.88 215.592 197.84 216.619 197.76ZM216.079 193.42C216.079 192.193 215.879 191.327 215.479 190.82C215.092 190.313 214.452 190.06 213.559 190.06C212.679 190.06 212.012 190.327 211.559 190.86C211.119 191.393 210.892 192.247 210.879 193.42H216.079ZM225.038 190.3H221.858V195.08C221.858 196.227 221.938 196.98 222.098 197.34C222.271 197.7 222.671 197.88 223.298 197.88L225.078 197.76L225.178 199C224.285 199.147 223.605 199.22 223.138 199.22C222.098 199.22 221.378 198.967 220.978 198.46C220.578 197.953 220.378 196.987 220.378 195.56V190.3H218.958V189H220.378V185.94H221.858V189H225.038V190.3ZM230.324 189H231.824L234.324 197.7H234.984L237.504 189H239.004L234.844 203.44H233.344L234.644 199H233.164L230.324 189ZM240.316 193.98C240.316 192.153 240.643 190.833 241.296 190.02C241.95 189.207 243.05 188.8 244.596 188.8C246.156 188.8 247.256 189.207 247.896 190.02C248.55 190.833 248.876 192.153 248.876 193.98C248.876 195.807 248.57 197.133 247.956 197.96C247.343 198.787 246.223 199.2 244.596 199.2C242.97 199.2 241.85 198.787 241.236 197.96C240.623 197.133 240.316 195.807 240.316 193.98ZM241.856 193.96C241.856 195.413 242.03 196.433 242.376 197.02C242.736 197.607 243.476 197.9 244.596 197.9C245.73 197.9 246.47 197.613 246.816 197.04C247.163 196.453 247.336 195.427 247.336 193.96C247.336 192.493 247.143 191.487 246.756 190.94C246.37 190.38 245.65 190.1 244.596 190.1C243.556 190.1 242.836 190.38 242.436 190.94C242.05 191.487 241.856 192.493 241.856 193.96ZM257.563 189H259.063V199H257.563V198.3C256.563 198.9 255.576 199.2 254.603 199.2C253.243 199.2 252.336 198.847 251.883 198.14C251.443 197.433 251.223 196.127 251.223 194.22V189H252.723V194.2C252.723 195.653 252.849 196.627 253.103 197.12C253.356 197.613 253.929 197.86 254.823 197.86C255.263 197.86 255.709 197.8 256.163 197.68C256.616 197.547 256.963 197.42 257.203 197.3L257.563 197.12V189ZM265.522 189H267.022L269.042 197.7H269.362L271.742 189.2H273.302L275.682 197.7H276.022L278.022 189H279.522L277.142 199H274.642L272.522 191.18L270.402 199H267.902L265.522 189ZM288.539 192.02V197.14C288.579 197.633 288.966 197.927 289.699 198.02L289.639 199.2C288.586 199.2 287.792 198.933 287.259 198.4C286.059 198.933 284.859 199.2 283.659 199.2C282.739 199.2 282.039 198.94 281.559 198.42C281.079 197.9 280.839 197.153 280.839 196.18C280.839 195.207 281.086 194.493 281.579 194.04C282.072 193.573 282.846 193.287 283.899 193.18L287.039 192.88V192.02C287.039 191.34 286.892 190.853 286.599 190.56C286.306 190.267 285.906 190.12 285.399 190.12C284.332 190.12 283.226 190.187 282.079 190.32L281.459 190.38L281.399 189.24C282.866 188.947 284.166 188.8 285.299 188.8C286.432 188.8 287.252 189.06 287.759 189.58C288.279 190.1 288.539 190.913 288.539 192.02ZM282.379 196.1C282.379 197.327 282.886 197.94 283.899 197.94C284.806 197.94 285.699 197.787 286.579 197.48L287.039 197.32V194.02L284.079 194.3C283.479 194.353 283.046 194.527 282.779 194.82C282.512 195.113 282.379 195.54 282.379 196.1ZM292.999 199H291.499V189H292.979V189.7C294.059 189.1 295.092 188.8 296.079 188.8C297.412 188.8 298.305 189.16 298.759 189.88C299.225 190.6 299.459 191.88 299.459 193.72V199H297.979V193.76C297.979 192.373 297.839 191.427 297.559 190.92C297.292 190.4 296.712 190.14 295.819 190.14C295.392 190.14 294.939 190.207 294.459 190.34C293.992 190.46 293.632 190.58 293.379 190.7L292.999 190.88V199ZM307.362 190.3H304.182V195.08C304.182 196.227 304.262 196.98 304.422 197.34C304.596 197.7 304.996 197.88 305.622 197.88L307.402 197.76L307.502 199C306.609 199.147 305.929 199.22 305.462 199.22C304.422 199.22 303.702 198.967 303.302 198.46C302.902 197.953 302.702 196.987 302.702 195.56V190.3H301.282V189H302.702V185.94H304.182V189H307.362V190.3ZM318.768 190.3H315.588V195.08C315.588 196.227 315.668 196.98 315.828 197.34C316.002 197.7 316.402 197.88 317.028 197.88L318.808 197.76L318.908 199C318.015 199.147 317.335 199.22 316.868 199.22C315.828 199.22 315.108 198.967 314.708 198.46C314.308 197.953 314.108 196.987 314.108 195.56V190.3H312.688V189H314.108V185.94H315.588V189H318.768V190.3ZM320.16 193.98C320.16 192.153 320.487 190.833 321.14 190.02C321.793 189.207 322.893 188.8 324.44 188.8C326 188.8 327.1 189.207 327.74 190.02C328.393 190.833 328.72 192.153 328.72 193.98C328.72 195.807 328.413 197.133 327.8 197.96C327.187 198.787 326.067 199.2 324.44 199.2C322.813 199.2 321.693 198.787 321.08 197.96C320.467 197.133 320.16 195.807 320.16 193.98ZM321.7 193.96C321.7 195.413 321.873 196.433 322.22 197.02C322.58 197.607 323.32 197.9 324.44 197.9C325.573 197.9 326.313 197.613 326.66 197.04C327.007 196.453 327.18 195.427 327.18 193.96C327.18 192.493 326.987 191.487 326.6 190.94C326.213 190.38 325.493 190.1 324.44 190.1C323.4 190.1 322.68 190.38 322.28 190.94C321.893 191.487 321.7 192.493 321.7 193.96ZM127.953 220.8C128.393 220.8 129.14 220.88 130.193 221.04L130.673 221.1L130.613 222.32C129.547 222.2 128.76 222.14 128.253 222.14C127.12 222.14 126.347 222.413 125.933 222.96C125.533 223.493 125.333 224.493 125.333 225.96C125.333 227.413 125.52 228.427 125.893 229C126.28 229.573 127.073 229.86 128.273 229.86L130.633 229.68L130.693 230.92C129.453 231.107 128.527 231.2 127.913 231.2C126.353 231.2 125.273 230.8 124.673 230C124.087 229.2 123.793 227.853 123.793 225.96C123.793 224.053 124.113 222.72 124.753 221.96C125.393 221.187 126.46 220.8 127.953 220.8ZM132.367 225.98C132.367 224.153 132.694 222.833 133.347 222.02C134.001 221.207 135.101 220.8 136.647 220.8C138.207 220.8 139.307 221.207 139.947 222.02C140.601 222.833 140.927 224.153 140.927 225.98C140.927 227.807 140.621 229.133 140.007 229.96C139.394 230.787 138.274 231.2 136.647 231.2C135.021 231.2 133.901 230.787 133.287 229.96C132.674 229.133 132.367 227.807 132.367 225.98ZM133.907 225.96C133.907 227.413 134.081 228.433 134.427 229.02C134.787 229.607 135.527 229.9 136.647 229.9C137.781 229.9 138.521 229.613 138.867 229.04C139.214 228.453 139.387 227.427 139.387 225.96C139.387 224.493 139.194 223.487 138.807 222.94C138.421 222.38 137.701 222.1 136.647 222.1C135.607 222.1 134.887 222.38 134.487 222.94C134.101 223.487 133.907 224.493 133.907 225.96ZM144.874 231H143.374V221H144.854V221.7C145.934 221.1 146.967 220.8 147.954 220.8C149.287 220.8 150.18 221.16 150.634 221.88C151.1 222.6 151.334 223.88 151.334 225.72V231H149.854V225.76C149.854 224.373 149.714 223.427 149.434 222.92C149.167 222.4 148.587 222.14 147.694 222.14C147.267 222.14 146.814 222.207 146.334 222.34C145.867 222.46 145.507 222.58 145.254 222.7L144.874 222.88V231ZM159.237 222.3H156.057V227.08C156.057 228.227 156.137 228.98 156.297 229.34C156.471 229.7 156.871 229.88 157.497 229.88L159.277 229.76L159.377 231C158.484 231.147 157.804 231.22 157.337 231.22C156.297 231.22 155.577 230.967 155.177 230.46C154.777 229.953 154.577 228.987 154.577 227.56V222.3H153.157V221H154.577V217.94H156.057V221H159.237V222.3ZM161.069 231V221H162.569V231H161.069ZM161.069 218.74V217H162.569V218.74H161.069ZM166.944 231H165.444V221H166.924V221.7C168.004 221.1 169.037 220.8 170.024 220.8C171.357 220.8 172.251 221.16 172.704 221.88C173.171 222.6 173.404 223.88 173.404 225.72V231H171.924V225.76C171.924 224.373 171.784 223.427 171.504 222.92C171.237 222.4 170.657 222.14 169.764 222.14C169.337 222.14 168.884 222.207 168.404 222.34C167.937 222.46 167.577 222.58 167.324 222.7L166.944 222.88V231ZM182.426 221H183.926V231H182.426V230.3C181.426 230.9 180.439 231.2 179.466 231.2C178.106 231.2 177.199 230.847 176.746 230.14C176.306 229.433 176.086 228.127 176.086 226.22V221H177.586V226.2C177.586 227.653 177.713 228.627 177.966 229.12C178.219 229.613 178.793 229.86 179.686 229.86C180.126 229.86 180.573 229.8 181.026 229.68C181.479 229.547 181.826 229.42 182.066 229.3L182.426 229.12V221ZM193.611 229.76L194.191 229.7L194.231 230.88C192.711 231.093 191.411 231.2 190.331 231.2C188.891 231.2 187.871 230.787 187.271 229.96C186.671 229.12 186.371 227.82 186.371 226.06C186.371 222.553 187.764 220.8 190.551 220.8C191.898 220.8 192.904 221.18 193.571 221.94C194.238 222.687 194.571 223.867 194.571 225.48L194.491 226.62H187.891C187.891 227.727 188.091 228.547 188.491 229.08C188.891 229.613 189.584 229.88 190.571 229.88C191.571 229.88 192.584 229.84 193.611 229.76ZM193.071 225.42C193.071 224.193 192.871 223.327 192.471 222.82C192.084 222.313 191.444 222.06 190.551 222.06C189.671 222.06 189.004 222.327 188.551 222.86C188.111 223.393 187.884 224.247 187.871 225.42H193.071ZM200.483 221H201.983L204.003 229.7H204.323L206.703 221.2H208.263L210.643 229.7H210.983L212.983 221H214.483L212.103 231H209.603L207.483 223.18L205.363 231H202.863L200.483 221ZM216.538 231V221H218.038V231H216.538ZM216.538 218.74V217H218.038V218.74H216.538ZM226.093 222.3H222.913V227.08C222.913 228.227 222.993 228.98 223.153 229.34C223.326 229.7 223.726 229.88 224.353 229.88L226.133 229.76L226.233 231C225.339 231.147 224.659 231.22 224.193 231.22C223.153 231.22 222.433 230.967 222.033 230.46C221.633 229.953 221.433 228.987 221.433 227.56V222.3H220.013V221H221.433V217.94H222.913V221H226.093V222.3ZM229.424 231H227.924V216.64H229.424V221.56C230.491 221.053 231.518 220.8 232.504 220.8C233.838 220.8 234.731 221.16 235.184 221.88C235.651 222.6 235.884 223.88 235.884 225.72V231H234.384V225.76C234.384 224.373 234.244 223.427 233.964 222.92C233.698 222.4 233.124 222.14 232.244 222.14C231.404 222.14 230.591 222.293 229.804 222.6L229.424 222.74V231Z" fill="#17324D"/>
<g filter="url(#filter0_d_4177_47328)">
<g clip-path="url(#clip2_4177_47328)">
<rect width="336" height="88" transform="translate(12 268)" fill="white"/>
<path d="M79.334 298V326L56 340L32.667 326V298L56 284L79.334 298ZM35.0098 299.405V324.595L56 337.188L76.9912 324.595V299.405L56 286.812L35.0098 299.405Z" fill="#0066CC"/>
<path d="M101.58 319V305.3H103.8V319H101.58ZM105.631 307.28V305.3H115.631V307.28H111.771V319H109.531V307.28H105.631ZM115.927 314.6V312.62H121.907V314.6H115.927ZM123.273 305.3H125.613L127.573 317.08H127.993L130.593 305.34H133.193L135.793 317.08H136.233L138.193 305.3H140.533L137.833 319H134.253L131.893 308.02L129.553 319H125.953L123.273 305.3ZM149.443 312.08V316.64C149.456 316.933 149.529 317.153 149.663 317.3C149.809 317.433 150.029 317.52 150.323 317.56L150.263 319.22C149.116 319.22 148.229 318.973 147.603 318.48C146.536 318.973 145.463 319.22 144.383 319.22C142.396 319.22 141.403 318.16 141.403 316.04C141.403 315.027 141.669 314.293 142.203 313.84C142.749 313.387 143.583 313.113 144.703 313.02L147.283 312.8V312.08C147.283 311.547 147.163 311.173 146.923 310.96C146.696 310.747 146.356 310.64 145.903 310.64C145.049 310.64 143.983 310.693 142.703 310.8L142.063 310.84L141.983 309.3C143.436 308.953 144.769 308.78 145.983 308.78C147.209 308.78 148.089 309.047 148.623 309.58C149.169 310.1 149.443 310.933 149.443 312.08ZM144.963 314.56C144.043 314.64 143.583 315.14 143.583 316.06C143.583 316.98 143.989 317.44 144.803 317.44C145.469 317.44 146.176 317.333 146.923 317.12L147.283 317V314.34L144.963 314.56ZM152.299 319V304.84H154.479V319H152.299ZM157.358 319V304.84H159.538V319H157.358ZM169.417 317.2L169.977 317.14L170.017 318.76C168.497 319.067 167.15 319.22 165.977 319.22C164.497 319.22 163.43 318.813 162.777 318C162.137 317.187 161.817 315.887 161.817 314.1C161.817 310.553 163.263 308.78 166.157 308.78C168.957 308.78 170.357 310.307 170.357 313.36L170.217 314.92H164.017C164.03 315.747 164.21 316.353 164.557 316.74C164.903 317.127 165.55 317.32 166.497 317.32C167.443 317.32 168.417 317.28 169.417 317.2ZM168.217 313.24C168.217 312.253 168.057 311.567 167.737 311.18C167.43 310.78 166.903 310.58 166.157 310.58C165.41 310.58 164.863 310.787 164.517 311.2C164.183 311.613 164.01 312.293 163.997 313.24H168.217ZM177.833 310.86H175.073V315.26C175.073 316.073 175.133 316.613 175.253 316.88C175.373 317.147 175.679 317.28 176.173 317.28L177.813 317.22L177.913 318.96C177.019 319.133 176.339 319.22 175.873 319.22C174.739 319.22 173.959 318.96 173.533 318.44C173.119 317.92 172.913 316.94 172.913 315.5V310.86H171.633V309H172.913V306.1H175.073V309H177.833V310.86ZM191.415 312.08V316.64C191.429 316.933 191.502 317.153 191.635 317.3C191.782 317.433 192.002 317.52 192.295 317.56L192.235 319.22C191.089 319.22 190.202 318.973 189.575 318.48C188.509 318.973 187.435 319.22 186.355 319.22C184.369 319.22 183.375 318.16 183.375 316.04C183.375 315.027 183.642 314.293 184.175 313.84C184.722 313.387 185.555 313.113 186.675 313.02L189.255 312.8V312.08C189.255 311.547 189.135 311.173 188.895 310.96C188.669 310.747 188.329 310.64 187.875 310.64C187.022 310.64 185.955 310.693 184.675 310.8L184.035 310.84L183.955 309.3C185.409 308.953 186.742 308.78 187.955 308.78C189.182 308.78 190.062 309.047 190.595 309.58C191.142 310.1 191.415 310.933 191.415 312.08ZM186.935 314.56C186.015 314.64 185.555 315.14 185.555 316.06C185.555 316.98 185.962 317.44 186.775 317.44C187.442 317.44 188.149 317.333 188.895 317.12L189.255 317V314.34L186.935 314.56ZM194.152 323.3V309H196.312V309.62C197.232 309.06 198.092 308.78 198.892 308.78C200.212 308.78 201.179 309.187 201.792 310C202.405 310.8 202.712 312.153 202.712 314.06C202.712 315.953 202.359 317.287 201.652 318.06C200.959 318.833 199.819 319.22 198.232 319.22C197.685 319.22 197.052 319.16 196.332 319.04V323.3H194.152ZM198.512 310.72C197.885 310.72 197.259 310.86 196.632 311.14L196.332 311.28V317.18C196.865 317.287 197.452 317.34 198.092 317.34C198.999 317.34 199.625 317.08 199.972 316.56C200.319 316.04 200.492 315.153 200.492 313.9C200.492 311.78 199.832 310.72 198.512 310.72ZM204.894 323.3V309H207.054V309.62C207.974 309.06 208.834 308.78 209.634 308.78C210.954 308.78 211.921 309.187 212.534 310C213.148 310.8 213.454 312.153 213.454 314.06C213.454 315.953 213.101 317.287 212.394 318.06C211.701 318.833 210.561 319.22 208.974 319.22C208.428 319.22 207.794 319.16 207.074 319.04V323.3H204.894ZM209.254 310.72C208.628 310.72 208.001 310.86 207.374 311.14L207.074 311.28V317.18C207.608 317.287 208.194 317.34 208.834 317.34C209.741 317.34 210.368 317.08 210.714 316.56C211.061 316.04 211.234 315.153 211.234 313.9C211.234 311.78 210.574 310.72 209.254 310.72ZM222.211 319H220.031V309H222.191V309.62C223.164 309.06 224.084 308.78 224.951 308.78C226.284 308.78 227.191 309.16 227.671 309.92C228.164 310.667 228.411 311.907 228.411 313.64V319H226.251V313.7C226.251 312.62 226.131 311.853 225.891 311.4C225.664 310.947 225.191 310.72 224.471 310.72C223.791 310.72 223.138 310.853 222.511 311.12L222.211 311.24V319ZM238.349 312.08V316.64C238.362 316.933 238.436 317.153 238.569 317.3C238.716 317.433 238.936 317.52 239.229 317.56L239.169 319.22C238.022 319.22 237.136 318.973 236.509 318.48C235.442 318.973 234.369 319.22 233.289 319.22C231.302 319.22 230.309 318.16 230.309 316.04C230.309 315.027 230.576 314.293 231.109 313.84C231.656 313.387 232.489 313.113 233.609 313.02L236.189 312.8V312.08C236.189 311.547 236.069 311.173 235.829 310.96C235.602 310.747 235.262 310.64 234.809 310.64C233.956 310.64 232.889 310.693 231.609 310.8L230.969 310.84L230.889 309.3C232.342 308.953 233.676 308.78 234.889 308.78C236.116 308.78 236.996 309.047 237.529 309.58C238.076 310.1 238.349 310.933 238.349 312.08ZM233.869 314.56C232.949 314.64 232.489 315.14 232.489 316.06C232.489 316.98 232.896 317.44 233.709 317.44C234.376 317.44 235.082 317.333 235.829 317.12L236.189 317V314.34L233.869 314.56ZM243.266 319H241.086V309H243.246V309.62C244.192 309.06 245.059 308.78 245.846 308.78C247.006 308.78 247.852 309.107 248.386 309.76C249.599 309.107 250.806 308.78 252.006 308.78C253.206 308.78 254.052 309.153 254.546 309.9C255.039 310.633 255.286 311.88 255.286 313.64V319H253.126V313.7C253.126 312.62 253.012 311.853 252.786 311.4C252.572 310.947 252.119 310.72 251.426 310.72C250.826 310.72 250.179 310.853 249.486 311.12L249.146 311.26C249.252 311.527 249.306 312.38 249.306 313.82V319H247.146V313.86C247.146 312.673 247.039 311.853 246.826 311.4C246.612 310.947 246.146 310.72 245.426 310.72C244.759 310.72 244.139 310.853 243.566 311.12L243.266 311.24V319ZM264.963 317.2L265.523 317.14L265.563 318.76C264.043 319.067 262.697 319.22 261.523 319.22C260.043 319.22 258.977 318.813 258.323 318C257.683 317.187 257.363 315.887 257.363 314.1C257.363 310.553 258.81 308.78 261.703 308.78C264.503 308.78 265.903 310.307 265.903 313.36L265.763 314.92H259.563C259.577 315.747 259.757 316.353 260.103 316.74C260.45 317.127 261.097 317.32 262.043 317.32C262.99 317.32 263.963 317.28 264.963 317.2ZM263.763 313.24C263.763 312.253 263.603 311.567 263.283 311.18C262.977 310.78 262.45 310.58 261.703 310.58C260.957 310.58 260.41 310.787 260.063 311.2C259.73 311.613 259.557 312.293 259.543 313.24H263.763Z" fill="#0066CC"/>
<path d="M100 321.2H193.548V321.8H100V321.2ZM196.936 321.2H204.291V321.8H196.936V321.2ZM207.678 321.2H266.683V321.8H207.678V321.2Z" fill="#0066CC"/>
<g clip-path="url(#clip3_4177_47328)">
<path d="M321.9 305L321.2 305.7L326.5 311.1H311V312.1H326.5L321.2 317.5L321.9 318.2L328.5 311.6L321.9 305Z" fill="#0066CC"/>
</g>
</g>
<rect x="12.5" y="268.5" width="335" height="87" rx="3.5" stroke="#C5C7C9"/>
</g>
<g filter="url(#filter1_d_4177_47328)">
<g clip-path="url(#clip4_4177_47328)">
<rect width="336" height="88" transform="translate(12 368)" fill="white"/>
<path d="M79.334 398V426L56 440L32.667 426V398L56 384L79.334 398ZM35.0098 399.405V424.595L56 437.188L76.9912 424.595V399.405L56 386.812L35.0098 399.405Z" fill="#0066CC"/>
<path d="M101.58 407V393.3H103.8V407H101.58ZM105.631 395.28V393.3H115.631V395.28H111.771V407H109.531V395.28H105.631ZM115.927 402.6V400.62H121.907V402.6H115.927ZM123.273 393.3H125.613L127.573 405.08H127.993L130.593 393.34H133.193L135.793 405.08H136.233L138.193 393.3H140.533L137.833 407H134.253L131.893 396.02L129.553 407H125.953L123.273 393.3ZM149.443 400.08V404.64C149.456 404.933 149.529 405.153 149.663 405.3C149.809 405.433 150.029 405.52 150.323 405.56L150.263 407.22C149.116 407.22 148.229 406.973 147.603 406.48C146.536 406.973 145.463 407.22 144.383 407.22C142.396 407.22 141.403 406.16 141.403 404.04C141.403 403.027 141.669 402.293 142.203 401.84C142.749 401.387 143.583 401.113 144.703 401.02L147.283 400.8V400.08C147.283 399.547 147.163 399.173 146.923 398.96C146.696 398.747 146.356 398.64 145.903 398.64C145.049 398.64 143.983 398.693 142.703 398.8L142.063 398.84L141.983 397.3C143.436 396.953 144.769 396.78 145.983 396.78C147.209 396.78 148.089 397.047 148.623 397.58C149.169 398.1 149.443 398.933 149.443 400.08ZM144.963 402.56C144.043 402.64 143.583 403.14 143.583 404.06C143.583 404.98 143.989 405.44 144.803 405.44C145.469 405.44 146.176 405.333 146.923 405.12L147.283 405V402.34L144.963 402.56ZM152.299 407V392.84H154.479V407H152.299ZM157.358 407V392.84H159.538V407H157.358ZM169.417 405.2L169.977 405.14L170.017 406.76C168.497 407.067 167.15 407.22 165.977 407.22C164.497 407.22 163.43 406.813 162.777 406C162.137 405.187 161.817 403.887 161.817 402.1C161.817 398.553 163.263 396.78 166.157 396.78C168.957 396.78 170.357 398.307 170.357 401.36L170.217 402.92H164.017C164.03 403.747 164.21 404.353 164.557 404.74C164.903 405.127 165.55 405.32 166.497 405.32C167.443 405.32 168.417 405.28 169.417 405.2ZM168.217 401.24C168.217 400.253 168.057 399.567 167.737 399.18C167.43 398.78 166.903 398.58 166.157 398.58C165.41 398.58 164.863 398.787 164.517 399.2C164.183 399.613 164.01 400.293 163.997 401.24H168.217ZM177.833 398.86H175.073V403.26C175.073 404.073 175.133 404.613 175.253 404.88C175.373 405.147 175.679 405.28 176.173 405.28L177.813 405.22L177.913 406.96C177.019 407.133 176.339 407.22 175.873 407.22C174.739 407.22 173.959 406.96 173.533 406.44C173.119 405.92 172.913 404.94 172.913 403.5V398.86H171.633V397H172.913V394.1H175.073V397H177.833V398.86ZM191.415 400.08V404.64C191.429 404.933 191.502 405.153 191.635 405.3C191.782 405.433 192.002 405.52 192.295 405.56L192.235 407.22C191.089 407.22 190.202 406.973 189.575 406.48C188.509 406.973 187.435 407.22 186.355 407.22C184.369 407.22 183.375 406.16 183.375 404.04C183.375 403.027 183.642 402.293 184.175 401.84C184.722 401.387 185.555 401.113 186.675 401.02L189.255 400.8V400.08C189.255 399.547 189.135 399.173 188.895 398.96C188.669 398.747 188.329 398.64 187.875 398.64C187.022 398.64 185.955 398.693 184.675 398.8L184.035 398.84L183.955 397.3C185.409 396.953 186.742 396.78 187.955 396.78C189.182 396.78 190.062 397.047 190.595 397.58C191.142 398.1 191.415 398.933 191.415 400.08ZM186.935 402.56C186.015 402.64 185.555 403.14 185.555 404.06C185.555 404.98 185.962 405.44 186.775 405.44C187.442 405.44 188.149 405.333 188.895 405.12L189.255 405V402.34L186.935 402.56ZM194.152 411.3V397H196.312V397.62C197.232 397.06 198.092 396.78 198.892 396.78C200.212 396.78 201.179 397.187 201.792 398C202.405 398.8 202.712 400.153 202.712 402.06C202.712 403.953 202.359 405.287 201.652 406.06C200.959 406.833 199.819 407.22 198.232 407.22C197.685 407.22 197.052 407.16 196.332 407.04V411.3H194.152ZM198.512 398.72C197.885 398.72 197.259 398.86 196.632 399.14L196.332 399.28V405.18C196.865 405.287 197.452 405.34 198.092 405.34C198.999 405.34 199.625 405.08 199.972 404.56C200.319 404.04 200.492 403.153 200.492 401.9C200.492 399.78 199.832 398.72 198.512 398.72ZM204.894 411.3V397H207.054V397.62C207.974 397.06 208.834 396.78 209.634 396.78C210.954 396.78 211.921 397.187 212.534 398C213.148 398.8 213.454 400.153 213.454 402.06C213.454 403.953 213.101 405.287 212.394 406.06C211.701 406.833 210.561 407.22 208.974 407.22C208.428 407.22 207.794 407.16 207.074 407.04V411.3H204.894ZM209.254 398.72C208.628 398.72 208.001 398.86 207.374 399.14L207.074 399.28V405.18C207.608 405.287 208.194 405.34 208.834 405.34C209.741 405.34 210.368 405.08 210.714 404.56C211.061 404.04 211.234 403.153 211.234 401.9C211.234 399.78 210.574 398.72 209.254 398.72ZM222.211 407H220.031V397H222.191V397.62C223.164 397.06 224.084 396.78 224.951 396.78C226.284 396.78 227.191 397.16 227.671 397.92C228.164 398.667 228.411 399.907 228.411 401.64V407H226.251V401.7C226.251 400.62 226.131 399.853 225.891 399.4C225.664 398.947 225.191 398.72 224.471 398.72C223.791 398.72 223.138 398.853 222.511 399.12L222.211 399.24V407ZM238.349 400.08V404.64C238.362 404.933 238.436 405.153 238.569 405.3C238.716 405.433 238.936 405.52 239.229 405.56L239.169 407.22C238.022 407.22 237.136 406.973 236.509 406.48C235.442 406.973 234.369 407.22 233.289 407.22C231.302 407.22 230.309 406.16 230.309 404.04C230.309 403.027 230.576 402.293 231.109 401.84C231.656 401.387 232.489 401.113 233.609 401.02L236.189 400.8V400.08C236.189 399.547 236.069 399.173 235.829 398.96C235.602 398.747 235.262 398.64 234.809 398.64C233.956 398.64 232.889 398.693 231.609 398.8L230.969 398.84L230.889 397.3C232.342 396.953 233.676 396.78 234.889 396.78C236.116 396.78 236.996 397.047 237.529 397.58C238.076 398.1 238.349 398.933 238.349 400.08ZM233.869 402.56C232.949 402.64 232.489 403.14 232.489 404.06C232.489 404.98 232.896 405.44 233.709 405.44C234.376 405.44 235.082 405.333 235.829 405.12L236.189 405V402.34L233.869 402.56ZM243.266 407H241.086V397H243.246V397.62C244.192 397.06 245.059 396.78 245.846 396.78C247.006 396.78 247.852 397.107 248.386 397.76C249.599 397.107 250.806 396.78 252.006 396.78C253.206 396.78 254.052 397.153 254.546 397.9C255.039 398.633 255.286 399.88 255.286 401.64V407H253.126V401.7C253.126 400.62 253.012 399.853 252.786 399.4C252.572 398.947 252.119 398.72 251.426 398.72C250.826 398.72 250.179 398.853 249.486 399.12L249.146 399.26C249.252 399.527 249.306 400.38 249.306 401.82V407H247.146V401.86C247.146 400.673 247.039 399.853 246.826 399.4C246.612 398.947 246.146 398.72 245.426 398.72C244.759 398.72 244.139 398.853 243.566 399.12L243.266 399.24V407ZM264.963 405.2L265.523 405.14L265.563 406.76C264.043 407.067 262.697 407.22 261.523 407.22C260.043 407.22 258.977 406.813 258.323 406C257.683 405.187 257.363 403.887 257.363 402.1C257.363 398.553 258.81 396.78 261.703 396.78C264.503 396.78 265.903 398.307 265.903 401.36L265.763 402.92H259.563C259.577 403.747 259.757 404.353 260.103 404.74C260.45 405.127 261.097 405.32 262.043 405.32C262.99 405.32 263.963 405.28 264.963 405.2ZM263.763 401.24C263.763 400.253 263.603 399.567 263.283 399.18C262.977 398.78 262.45 398.58 261.703 398.58C260.957 398.58 260.41 398.787 260.063 399.2C259.73 399.613 259.557 400.293 259.543 401.24H263.763ZM101.44 431V416.84H103.62V431H101.44ZM106.919 422.08C107.612 421.213 108.759 420.78 110.359 420.78C111.959 420.78 113.099 421.213 113.779 422.08C114.472 422.947 114.819 424.247 114.819 425.98C114.819 427.713 114.485 429.02 113.819 429.9C113.152 430.78 111.999 431.22 110.359 431.22C108.719 431.22 107.565 430.78 106.899 429.9C106.232 429.02 105.899 427.713 105.899 425.98C105.899 424.247 106.239 422.947 106.919 422.08ZM108.559 428.58C108.865 429.113 109.465 429.38 110.359 429.38C111.252 429.38 111.852 429.113 112.159 428.58C112.465 428.047 112.619 427.173 112.619 425.96C112.619 424.747 112.452 423.887 112.119 423.38C111.799 422.873 111.212 422.62 110.359 422.62C109.505 422.62 108.912 422.873 108.579 423.38C108.259 423.887 108.099 424.747 108.099 425.96C108.099 427.173 108.252 428.047 108.559 428.58ZM116.984 431V421H119.144V422.2C120.277 421.467 121.411 420.993 122.544 420.78V422.96C121.397 423.187 120.417 423.48 119.604 423.84L119.164 424.02V431H116.984ZM131.253 429.2L131.813 429.14L131.853 430.76C130.333 431.067 128.986 431.22 127.812 431.22C126.333 431.22 125.266 430.813 124.613 430C123.973 429.187 123.653 427.887 123.653 426.1C123.653 422.553 125.099 420.78 127.993 420.78C130.793 420.78 132.193 422.307 132.193 425.36L132.053 426.92H125.853C125.866 427.747 126.046 428.353 126.393 428.74C126.739 429.127 127.386 429.32 128.333 429.32C129.279 429.32 130.253 429.28 131.253 429.2ZM130.053 425.24C130.053 424.253 129.893 423.567 129.573 423.18C129.266 422.78 128.739 422.58 127.993 422.58C127.246 422.58 126.699 422.787 126.353 423.2C126.019 423.613 125.846 424.293 125.833 425.24H130.053ZM136.469 431H134.289V421H136.449V421.62C137.395 421.06 138.262 420.78 139.049 420.78C140.209 420.78 141.055 421.107 141.589 421.76C142.802 421.107 144.009 420.78 145.209 420.78C146.409 420.78 147.255 421.153 147.749 421.9C148.242 422.633 148.489 423.88 148.489 425.64V431H146.329V425.7C146.329 424.62 146.215 423.853 145.989 423.4C145.775 422.947 145.322 422.72 144.629 422.72C144.029 422.72 143.382 422.853 142.689 423.12L142.349 423.26C142.455 423.527 142.509 424.38 142.509 425.82V431H140.349V425.86C140.349 424.673 140.242 423.853 140.029 423.4C139.815 422.947 139.349 422.72 138.629 422.72C137.962 422.72 137.342 422.853 136.769 423.12L136.469 423.24V431ZM155.441 431V421H157.621V431H155.441ZM155.441 419.3V417H157.621V419.3H155.441ZM160.265 435.3V421H162.425V421.62C163.345 421.06 164.205 420.78 165.005 420.78C166.325 420.78 167.292 421.187 167.905 422C168.519 422.8 168.825 424.153 168.825 426.06C168.825 427.953 168.472 429.287 167.765 430.06C167.072 430.833 165.932 431.22 164.345 431.22C163.799 431.22 163.165 431.16 162.445 431.04V435.3H160.265ZM164.625 422.72C163.999 422.72 163.372 422.86 162.745 423.14L162.445 423.28V429.18C162.979 429.287 163.565 429.34 164.205 429.34C165.112 429.34 165.739 429.08 166.085 428.56C166.432 428.04 166.605 427.153 166.605 425.9C166.605 423.78 165.945 422.72 164.625 422.72ZM177.948 423.06C176.374 422.847 175.234 422.74 174.528 422.74C173.821 422.74 173.328 422.827 173.048 423C172.781 423.16 172.648 423.42 172.648 423.78C172.648 424.14 172.794 424.393 173.088 424.54C173.394 424.687 174.101 424.86 175.208 425.06C176.328 425.247 177.121 425.547 177.588 425.96C178.054 426.373 178.288 427.107 178.288 428.16C178.288 429.213 177.948 429.987 177.268 430.48C176.601 430.973 175.621 431.22 174.328 431.22C173.514 431.22 172.488 431.107 171.248 430.88L170.628 430.78L170.708 428.96C172.308 429.173 173.461 429.28 174.168 429.28C174.874 429.28 175.374 429.193 175.668 429.02C175.974 428.847 176.128 428.56 176.128 428.16C176.128 427.76 175.981 427.487 175.688 427.34C175.408 427.18 174.721 427.013 173.628 426.84C172.548 426.653 171.754 426.367 171.248 425.98C170.741 425.593 170.488 424.887 170.488 423.86C170.488 422.833 170.834 422.067 171.528 421.56C172.234 421.053 173.134 420.8 174.228 420.8C175.081 420.8 176.128 420.907 177.368 421.12L177.988 421.24L177.948 423.06ZM186.443 421H188.603V431H186.443V430.38C185.469 430.94 184.569 431.22 183.743 431.22C182.369 431.22 181.449 430.853 180.983 430.12C180.516 429.373 180.283 428.073 180.283 426.22V421H182.463V426.24C182.463 427.44 182.563 428.247 182.763 428.66C182.963 429.073 183.429 429.28 184.163 429.28C184.883 429.28 185.543 429.147 186.143 428.88L186.443 428.76V421ZM193.422 431H191.242V421H193.402V421.62C194.349 421.06 195.215 420.78 196.002 420.78C197.162 420.78 198.009 421.107 198.542 421.76C199.755 421.107 200.962 420.78 202.162 420.78C203.362 420.78 204.209 421.153 204.702 421.9C205.195 422.633 205.442 423.88 205.442 425.64V431H203.282V425.7C203.282 424.62 203.169 423.853 202.942 423.4C202.729 422.947 202.275 422.72 201.582 422.72C200.982 422.72 200.335 422.853 199.642 423.12L199.302 423.26C199.409 423.527 199.462 424.38 199.462 425.82V431H197.302V425.86C197.302 424.673 197.195 423.853 196.982 423.4C196.769 422.947 196.302 422.72 195.582 422.72C194.915 422.72 194.295 422.853 193.722 423.12L193.422 423.24V431ZM220.554 416.84V431H218.394V430.48C217.421 430.973 216.528 431.22 215.714 431.22C214.408 431.22 213.448 430.827 212.834 430.04C212.234 429.253 211.934 427.933 211.934 426.08C211.934 424.227 212.268 422.88 212.934 422.04C213.614 421.2 214.668 420.78 216.094 420.78C216.574 420.78 217.334 420.867 218.374 421.04V416.84H220.554ZM218.034 428.92L218.374 428.78V422.86C217.574 422.727 216.834 422.66 216.154 422.66C214.808 422.66 214.134 423.78 214.134 426.02C214.134 427.247 214.288 428.1 214.594 428.58C214.914 429.047 215.414 429.28 216.094 429.28C216.774 429.28 217.421 429.16 218.034 428.92ZM223.735 422.08C224.428 421.213 225.575 420.78 227.175 420.78C228.775 420.78 229.915 421.213 230.595 422.08C231.288 422.947 231.635 424.247 231.635 425.98C231.635 427.713 231.302 429.02 230.635 429.9C229.968 430.78 228.815 431.22 227.175 431.22C225.535 431.22 224.382 430.78 223.715 429.9C223.048 429.02 222.715 427.713 222.715 425.98C222.715 424.247 223.055 422.947 223.735 422.08ZM225.375 428.58C225.682 429.113 226.282 429.38 227.175 429.38C228.068 429.38 228.668 429.113 228.975 428.58C229.282 428.047 229.435 427.173 229.435 425.96C229.435 424.747 229.268 423.887 228.935 423.38C228.615 422.873 228.028 422.62 227.175 422.62C226.322 422.62 225.728 422.873 225.395 423.38C225.075 423.887 224.915 424.747 224.915 425.96C224.915 427.173 225.068 428.047 225.375 428.58ZM233.92 431V416.84H236.1V431H233.92ZM239.399 422.08C240.092 421.213 241.239 420.78 242.839 420.78C244.439 420.78 245.579 421.213 246.259 422.08C246.952 422.947 247.299 424.247 247.299 425.98C247.299 427.713 246.966 429.02 246.299 429.9C245.632 430.78 244.479 431.22 242.839 431.22C241.199 431.22 240.046 430.78 239.379 429.9C238.712 429.02 238.379 427.713 238.379 425.98C238.379 424.247 238.719 422.947 239.399 422.08ZM241.039 428.58C241.346 429.113 241.946 429.38 242.839 429.38C243.732 429.38 244.332 429.113 244.639 428.58C244.946 428.047 245.099 427.173 245.099 425.96C245.099 424.747 244.932 423.887 244.599 423.38C244.279 422.873 243.692 422.62 242.839 422.62C241.986 422.62 241.392 422.873 241.059 423.38C240.739 423.887 240.579 424.747 240.579 425.96C240.579 427.173 240.732 428.047 241.039 428.58ZM249.465 431V421H251.625V422.2C252.758 421.467 253.891 420.993 255.025 420.78V422.96C253.878 423.187 252.898 423.48 252.085 423.84L251.645 424.02V431H249.465ZM268.026 423.06C266.452 422.847 265.312 422.74 264.606 422.74C263.899 422.74 263.406 422.827 263.126 423C262.859 423.16 262.726 423.42 262.726 423.78C262.726 424.14 262.872 424.393 263.166 424.54C263.472 424.687 264.179 424.86 265.286 425.06C266.406 425.247 267.199 425.547 267.666 425.96C268.132 426.373 268.366 427.107 268.366 428.16C268.366 429.213 268.026 429.987 267.346 430.48C266.679 430.973 265.699 431.22 264.406 431.22C263.592 431.22 262.566 431.107 261.326 430.88L260.706 430.78L260.786 428.96C262.386 429.173 263.539 429.28 264.246 429.28C264.952 429.28 265.452 429.193 265.746 429.02C266.052 428.847 266.206 428.56 266.206 428.16C266.206 427.76 266.059 427.487 265.766 427.34C265.486 427.18 264.799 427.013 263.706 426.84C262.626 426.653 261.832 426.367 261.326 425.98C260.819 425.593 260.566 424.887 260.566 423.86C260.566 422.833 260.912 422.067 261.606 421.56C262.312 421.053 263.212 420.8 264.306 420.8C265.159 420.8 266.206 420.907 267.446 421.12L268.066 421.24L268.026 423.06ZM270.461 431V421H272.641V431H270.461ZM270.461 419.3V417H272.641V419.3H270.461ZM280.665 422.86H277.905V427.26C277.905 428.073 277.965 428.613 278.085 428.88C278.205 429.147 278.512 429.28 279.005 429.28L280.645 429.22L280.745 430.96C279.852 431.133 279.172 431.22 278.705 431.22C277.572 431.22 276.792 430.96 276.365 430.44C275.952 429.92 275.745 428.94 275.745 427.5V422.86H274.465V421H275.745V418.1H277.905V421H280.665V422.86Z" fill="#0066CC"/>
<path d="M100 409.2H193.548V409.8H100V409.2ZM196.936 409.2H204.291V409.8H196.936V409.2ZM207.678 409.2H266.68V409.8H207.678V409.2ZM100 433.2H159.666V433.8H100V433.2ZM163.045 433.2H281.125V433.8H163.045V433.2Z" fill="#0066CC"/>
<g clip-path="url(#clip5_4177_47328)">
<path d="M321.9 405L321.2 405.7L326.5 411.1H311V412.1H326.5L321.2 417.5L321.9 418.2L328.5 411.6L321.9 405Z" fill="#0066CC"/>
</g>
</g>
<rect x="12.5" y="368.5" width="335" height="87" rx="3.5" stroke="#C5C7C9"/>
</g>
<rect width="360" height="160" transform="translate(0 573)" fill="#003366"/>
<path d="M18.482 618H13.106V608.41H14.66V616.614H18.482V618ZM24.5525 616.74L24.9445 616.698L24.9725 617.832C23.9085 618.047 22.9659 618.154 22.1445 618.154C21.1085 618.154 20.3619 617.869 19.9045 617.3C19.4565 616.731 19.2325 615.821 19.2325 614.57C19.2325 612.087 20.2452 610.846 22.2705 610.846C24.2305 610.846 25.2105 611.915 25.2105 614.052L25.1125 615.144H20.7725C20.7819 615.723 20.9079 616.147 21.1505 616.418C21.3932 616.689 21.8459 616.824 22.5085 616.824C23.1712 616.824 23.8525 616.796 24.5525 616.74ZM23.7125 613.968C23.7125 613.277 23.6005 612.797 23.3765 612.526C23.1619 612.246 22.7932 612.106 22.2705 612.106C21.7479 612.106 21.3652 612.251 21.1225 612.54C20.8892 612.829 20.7679 613.305 20.7585 613.968H23.7125ZM32.7959 618.952C32.7959 620.483 31.6899 621.248 29.4779 621.248C28.4139 621.248 27.6252 621.103 27.1119 620.814C26.5986 620.525 26.3419 619.997 26.3419 619.232C26.3419 618.887 26.4259 618.588 26.5939 618.336C26.7619 618.093 27.0326 617.827 27.4059 617.538C27.0979 617.333 26.9439 616.992 26.9439 616.516C26.9439 616.329 27.0699 616.026 27.3219 615.606L27.4479 615.396C26.7759 614.995 26.4399 614.295 26.4399 613.296C26.4399 612.456 26.6919 611.84 27.1959 611.448C27.6999 611.056 28.3812 610.86 29.2399 610.86C29.6506 610.86 30.0566 610.907 30.4579 611L30.6679 611.042L32.8379 610.986V612.218L31.6759 612.148C31.9279 612.475 32.0539 612.857 32.0539 613.296C32.0539 614.211 31.8206 614.845 31.3539 615.2C30.8966 615.545 30.1779 615.718 29.1979 615.718C28.9552 615.718 28.7499 615.699 28.5819 615.662C28.4512 615.979 28.3859 616.227 28.3859 616.404C28.3859 616.572 28.4699 616.689 28.6379 616.754C28.8152 616.819 29.2352 616.857 29.8979 616.866C31.0086 616.875 31.7692 617.025 32.1799 617.314C32.5906 617.603 32.7959 618.149 32.7959 618.952ZM27.8399 619.092C27.8399 619.419 27.9706 619.652 28.2319 619.792C28.4932 619.932 28.9412 620.002 29.5759 620.002C30.7052 620.002 31.2699 619.68 31.2699 619.036C31.2699 618.672 31.1672 618.439 30.9619 618.336C30.7659 618.243 30.3692 618.191 29.7719 618.182L28.3999 618.098C28.1946 618.266 28.0499 618.42 27.9659 618.56C27.8819 618.709 27.8399 618.887 27.8399 619.092ZM27.9519 613.296C27.9519 613.725 28.0546 614.043 28.2599 614.248C28.4652 614.444 28.7966 614.542 29.2539 614.542C29.7112 614.542 30.0379 614.444 30.2339 614.248C30.4392 614.043 30.5419 613.725 30.5419 613.296C30.5419 612.867 30.4392 612.554 30.2339 612.358C30.0286 612.153 29.6972 612.05 29.2399 612.05C28.3812 612.05 27.9519 612.465 27.9519 613.296ZM39.2134 613.156V616.348C39.2227 616.553 39.274 616.707 39.3674 616.81C39.47 616.903 39.624 616.964 39.8294 616.992L39.7874 618.154C38.9847 618.154 38.364 617.981 37.9254 617.636C37.1787 617.981 36.4274 618.154 35.6714 618.154C34.2807 618.154 33.5854 617.412 33.5854 615.928C33.5854 615.219 33.772 614.705 34.1454 614.388C34.528 614.071 35.1114 613.879 35.8954 613.814L37.7014 613.66V613.156C37.7014 612.783 37.6174 612.521 37.4494 612.372C37.2907 612.223 37.0527 612.148 36.7354 612.148C36.138 612.148 35.3914 612.185 34.4954 612.26L34.0474 612.288L33.9914 611.21C35.0087 610.967 35.942 610.846 36.7914 610.846C37.65 610.846 38.266 611.033 38.6394 611.406C39.022 611.77 39.2134 612.353 39.2134 613.156ZM36.0774 614.892C35.4334 614.948 35.1114 615.298 35.1114 615.942C35.1114 616.586 35.396 616.908 35.9654 616.908C36.432 616.908 36.9267 616.833 37.4494 616.684L37.7014 616.6V614.738L36.0774 614.892ZM41.2131 618V608.088H42.7391V618H41.2131ZM49.2723 618H47.7463V611H49.2583V611.434C49.9396 611.042 50.5836 610.846 51.1903 610.846C52.1236 610.846 52.7583 611.112 53.0943 611.644C53.4396 612.167 53.6123 613.035 53.6123 614.248V618H52.1003V614.29C52.1003 613.534 52.0163 612.997 51.8483 612.68C51.6896 612.363 51.3583 612.204 50.8543 612.204C50.3783 612.204 49.9209 612.297 49.4823 612.484L49.2723 612.568V618ZM55.7668 611.756C56.2522 611.149 57.0548 610.846 58.1748 610.846C59.2948 610.846 60.0928 611.149 60.5688 611.756C61.0542 612.363 61.2968 613.273 61.2968 614.486C61.2968 615.699 61.0635 616.614 60.5968 617.23C60.1302 617.846 59.3228 618.154 58.1748 618.154C57.0268 618.154 56.2195 617.846 55.7528 617.23C55.2862 616.614 55.0528 615.699 55.0528 614.486C55.0528 613.273 55.2908 612.363 55.7668 611.756ZM56.9148 616.306C57.1295 616.679 57.5495 616.866 58.1748 616.866C58.8002 616.866 59.2202 616.679 59.4348 616.306C59.6495 615.933 59.7568 615.321 59.7568 614.472C59.7568 613.623 59.6402 613.021 59.4068 612.666C59.1828 612.311 58.7722 612.134 58.1748 612.134C57.5775 612.134 57.1622 612.311 56.9288 612.666C56.7048 613.021 56.5928 613.623 56.5928 614.472C56.5928 615.321 56.7002 615.933 56.9148 616.306ZM66.5787 612.302H64.6467V615.382C64.6467 615.951 64.6887 616.329 64.7727 616.516C64.8567 616.703 65.0713 616.796 65.4167 616.796L66.5647 616.754L66.6347 617.972C66.0093 618.093 65.5333 618.154 65.2067 618.154C64.4133 618.154 63.8673 617.972 63.5687 617.608C63.2793 617.244 63.1347 616.558 63.1347 615.55V612.302H62.2387V611H63.1347V608.97H64.6467V611H66.5787V612.302ZM72.8143 616.74L73.2063 616.698L73.2343 617.832C72.1703 618.047 71.2276 618.154 70.4062 618.154C69.3703 618.154 68.6236 617.869 68.1663 617.3C67.7183 616.731 67.4943 615.821 67.4943 614.57C67.4943 612.087 68.5069 610.846 70.5323 610.846C72.4923 610.846 73.4723 611.915 73.4723 614.052L73.3743 615.144H69.0343C69.0436 615.723 69.1696 616.147 69.4123 616.418C69.6549 616.689 70.1076 616.824 70.7703 616.824C71.4329 616.824 72.1143 616.796 72.8143 616.74ZM71.9743 613.968C71.9743 613.277 71.8623 612.797 71.6383 612.526C71.4236 612.246 71.0549 612.106 70.5323 612.106C70.0096 612.106 69.6269 612.251 69.3843 612.54C69.1509 612.829 69.0296 613.305 69.0203 613.968H71.9743ZM79.7976 612.442C78.6963 612.293 77.8983 612.218 77.4036 612.218C76.909 612.218 76.5636 612.279 76.3676 612.4C76.181 612.512 76.0876 612.694 76.0876 612.946C76.0876 613.198 76.1903 613.375 76.3956 613.478C76.6103 613.581 77.105 613.702 77.8796 613.842C78.6636 613.973 79.219 614.183 79.5456 614.472C79.8723 614.761 80.0356 615.275 80.0356 616.012C80.0356 616.749 79.7976 617.291 79.3216 617.636C78.855 617.981 78.169 618.154 77.2636 618.154C76.6943 618.154 75.9756 618.075 75.1076 617.916L74.6736 617.846L74.7296 616.572C75.8496 616.721 76.657 616.796 77.1516 616.796C77.6463 616.796 77.9963 616.735 78.2016 616.614C78.4163 616.493 78.5236 616.292 78.5236 616.012C78.5236 615.732 78.421 615.541 78.2156 615.438C78.0196 615.326 77.539 615.209 76.7736 615.088C76.0176 614.957 75.4623 614.757 75.1076 614.486C74.753 614.215 74.5756 613.721 74.5756 613.002C74.5756 612.283 74.8183 611.747 75.3036 611.392C75.7983 611.037 76.4283 610.86 77.1936 610.86C77.791 610.86 78.5236 610.935 79.3916 611.084L79.8256 611.168L79.7976 612.442Z" fill="white"/>
<path d="M12 619.54H25.9394V619.96H12V619.54ZM33.1466 619.54H80.5816V619.96H33.1466V619.54Z" fill="white"/>
<path d="M16.62 655.018H14.66V658H13.106V648.41H16.62C18.7947 648.41 19.882 649.483 19.882 651.63C19.882 652.731 19.6067 653.571 19.056 654.15C18.5147 654.729 17.7027 655.018 16.62 655.018ZM14.66 653.674H16.606C17.726 653.674 18.286 652.993 18.286 651.63C18.286 650.977 18.1507 650.501 17.88 650.202C17.6093 649.903 17.1847 649.754 16.606 649.754H14.66V653.674ZM21.1955 658V651H22.7075V651.84C23.5008 651.327 24.2942 650.995 25.0875 650.846V652.372C24.2848 652.531 23.5988 652.736 23.0295 652.988L22.7215 653.114V658H21.1955ZM26.2541 658V651H27.7801V658H26.2541ZM26.2541 649.81V648.2H27.7801V649.81H26.2541ZM28.973 651H30.569L31.913 656.698H32.361L33.761 651H35.315L33.495 658H30.779L28.973 651ZM41.5923 653.156V656.348C41.6016 656.553 41.6529 656.707 41.7463 656.81C41.8489 656.903 42.0029 656.964 42.2083 656.992L42.1663 658.154C41.3636 658.154 40.7429 657.981 40.3043 657.636C39.5576 657.981 38.8063 658.154 38.0503 658.154C36.6596 658.154 35.9643 657.412 35.9643 655.928C35.9643 655.219 36.1509 654.705 36.5243 654.388C36.9069 654.071 37.4903 653.879 38.2743 653.814L40.0803 653.66V653.156C40.0803 652.783 39.9963 652.521 39.8283 652.372C39.6696 652.223 39.4316 652.148 39.1143 652.148C38.5169 652.148 37.7703 652.185 36.8743 652.26L36.4263 652.288L36.3703 651.21C37.3876 650.967 38.3209 650.846 39.1703 650.846C40.0289 650.846 40.6449 651.033 41.0183 651.406C41.4009 651.77 41.5923 652.353 41.5923 653.156ZM38.4563 654.892C37.8123 654.948 37.4903 655.298 37.4903 655.942C37.4903 656.586 37.7749 656.908 38.3443 656.908C38.8109 656.908 39.3056 656.833 39.8283 656.684L40.0803 656.6V654.738L38.4563 654.892ZM46.126 650.846C46.6207 650.846 47.204 650.911 47.876 651.042L48.226 651.112L48.17 652.316C47.4327 652.241 46.8867 652.204 46.532 652.204C45.8227 652.204 45.3467 652.363 45.104 652.68C44.8613 652.997 44.74 653.595 44.74 654.472C44.74 655.349 44.8567 655.956 45.09 656.292C45.3233 656.628 45.8087 656.796 46.546 656.796L48.184 656.684L48.226 657.902C47.2833 658.07 46.574 658.154 46.098 658.154C45.034 658.154 44.2827 657.869 43.844 657.3C43.4147 656.721 43.2 655.779 43.2 654.472C43.2 653.165 43.4287 652.237 43.886 651.686C44.3433 651.126 45.09 650.846 46.126 650.846ZM49.0573 651H50.5553L52.0393 656.698H52.4173L53.9013 651H55.4133L52.7533 661.01H51.2553L52.0953 658H50.8913L49.0573 651ZM63.3641 655.018H61.4041V658H59.8501V648.41H63.3641C65.5388 648.41 66.6261 649.483 66.6261 651.63C66.6261 652.731 66.3508 653.571 65.8001 654.15C65.2588 654.729 64.4468 655.018 63.3641 655.018ZM61.4041 653.674H63.3501C64.4701 653.674 65.0301 652.993 65.0301 651.63C65.0301 650.977 64.8948 650.501 64.6241 650.202C64.3535 649.903 63.9288 649.754 63.3501 649.754H61.4041V653.674ZM68.3176 651.756C68.803 651.149 69.6056 650.846 70.7256 650.846C71.8456 650.846 72.6436 651.149 73.1196 651.756C73.605 652.363 73.8476 653.273 73.8476 654.486C73.8476 655.699 73.6143 656.614 73.1476 657.23C72.681 657.846 71.8736 658.154 70.7256 658.154C69.5776 658.154 68.7703 657.846 68.3036 657.23C67.837 656.614 67.6036 655.699 67.6036 654.486C67.6036 653.273 67.8416 652.363 68.3176 651.756ZM69.4656 656.306C69.6803 656.679 70.1003 656.866 70.7256 656.866C71.351 656.866 71.771 656.679 71.9856 656.306C72.2003 655.933 72.3076 655.321 72.3076 654.472C72.3076 653.623 72.191 653.021 71.9576 652.666C71.7336 652.311 71.323 652.134 70.7256 652.134C70.1283 652.134 69.713 652.311 69.4796 652.666C69.2556 653.021 69.1436 653.623 69.1436 654.472C69.1436 655.321 69.251 655.933 69.4656 656.306ZM75.4475 658V648.088H76.9735V658H75.4475ZM78.9045 658V651H80.4305V658H78.9045ZM78.9045 649.81V648.2H80.4305V649.81H78.9045ZM84.8994 650.846C85.3941 650.846 85.9774 650.911 86.6494 651.042L86.9994 651.112L86.9434 652.316C86.2061 652.241 85.6601 652.204 85.3054 652.204C84.5961 652.204 84.1201 652.363 83.8774 652.68C83.6348 652.997 83.5134 653.595 83.5134 654.472C83.5134 655.349 83.6301 655.956 83.8634 656.292C84.0968 656.628 84.5821 656.796 85.3194 656.796L86.9574 656.684L86.9994 657.902C86.0568 658.07 85.3474 658.154 84.8714 658.154C83.8074 658.154 83.0561 657.869 82.6174 657.3C82.1881 656.721 81.9734 655.779 81.9734 654.472C81.9734 653.165 82.2021 652.237 82.6594 651.686C83.1168 651.126 83.8634 650.846 84.8994 650.846ZM87.8308 651H89.3288L90.8128 656.698H91.1908L92.6748 651H94.1868L91.5268 661.01H90.0288L90.8688 658H89.6648L87.8308 651Z" fill="white"/>
<path d="M12 659.54H51.1269V659.96H12V659.54ZM53.5606 659.54H89.9003V659.96H53.5606V659.54ZM92.3341 659.54H94.4388V659.96H92.3341V659.54Z" fill="white"/>
<path d="M12.28 698L14.646 688.41H17.74L20.12 698H18.552L18.034 695.942H14.352L13.834 698H12.28ZM15.85 689.712L14.66 694.57H17.726L16.55 689.712H15.85ZM23.8545 690.846C24.3492 690.846 24.9325 690.911 25.6045 691.042L25.9545 691.112L25.8985 692.316C25.1612 692.241 24.6152 692.204 24.2605 692.204C23.5512 692.204 23.0752 692.363 22.8325 692.68C22.5898 692.997 22.4685 693.595 22.4685 694.472C22.4685 695.349 22.5852 695.956 22.8185 696.292C23.0518 696.628 23.5372 696.796 24.2745 696.796L25.9125 696.684L25.9545 697.902C25.0118 698.07 24.3025 698.154 23.8265 698.154C22.7625 698.154 22.0112 697.869 21.5725 697.3C21.1432 696.721 20.9285 695.779 20.9285 694.472C20.9285 693.165 21.1572 692.237 21.6145 691.686C22.0718 691.126 22.8185 690.846 23.8545 690.846ZM29.9795 690.846C30.4742 690.846 31.0575 690.911 31.7295 691.042L32.0795 691.112L32.0235 692.316C31.2862 692.241 30.7402 692.204 30.3855 692.204C29.6762 692.204 29.2002 692.363 28.9575 692.68C28.7148 692.997 28.5935 693.595 28.5935 694.472C28.5935 695.349 28.7102 695.956 28.9435 696.292C29.1768 696.628 29.6622 696.796 30.3995 696.796L32.0375 696.684L32.0795 697.902C31.1368 698.07 30.4275 698.154 29.9515 698.154C28.8875 698.154 28.1362 697.869 27.6975 697.3C27.2682 696.721 27.0535 695.779 27.0535 694.472C27.0535 693.165 27.2822 692.237 27.7395 691.686C28.1968 691.126 28.9435 690.846 29.9795 690.846ZM38.4705 696.74L38.8625 696.698L38.8905 697.832C37.8265 698.047 36.8838 698.154 36.0625 698.154C35.0265 698.154 34.2798 697.869 33.8225 697.3C33.3745 696.731 33.1505 695.821 33.1505 694.57C33.1505 692.087 34.1632 690.846 36.1885 690.846C38.1485 690.846 39.1285 691.915 39.1285 694.052L39.0305 695.144H34.6905C34.6998 695.723 34.8258 696.147 35.0685 696.418C35.3112 696.689 35.7638 696.824 36.4265 696.824C37.0892 696.824 37.7705 696.796 38.4705 696.74ZM37.6305 693.968C37.6305 693.277 37.5185 692.797 37.2945 692.526C37.0798 692.246 36.7112 692.106 36.1885 692.106C35.6658 692.106 35.2832 692.251 35.0405 692.54C34.8072 692.829 34.6858 693.305 34.6765 693.968H37.6305ZM45.4539 692.442C44.3525 692.293 43.5545 692.218 43.0599 692.218C42.5652 692.218 42.2199 692.279 42.0239 692.4C41.8372 692.512 41.7439 692.694 41.7439 692.946C41.7439 693.198 41.8465 693.375 42.0519 693.478C42.2665 693.581 42.7612 693.702 43.5359 693.842C44.3199 693.973 44.8752 694.183 45.2019 694.472C45.5285 694.761 45.6919 695.275 45.6919 696.012C45.6919 696.749 45.4539 697.291 44.9779 697.636C44.5112 697.981 43.8252 698.154 42.9199 698.154C42.3505 698.154 41.6319 698.075 40.7639 697.916L40.3299 697.846L40.3859 696.572C41.5059 696.721 42.3132 696.796 42.8079 696.796C43.3025 696.796 43.6525 696.735 43.8579 696.614C44.0725 696.493 44.1799 696.292 44.1799 696.012C44.1799 695.732 44.0772 695.541 43.8719 695.438C43.6759 695.326 43.1952 695.209 42.4299 695.088C41.6739 694.957 41.1185 694.757 40.7639 694.486C40.4092 694.215 40.2319 693.721 40.2319 693.002C40.2319 692.283 40.4745 691.747 40.9599 691.392C41.4545 691.037 42.0845 690.86 42.8499 690.86C43.4472 690.86 44.1799 690.935 45.0479 691.084L45.4819 691.168L45.4539 692.442ZM52.0164 692.442C50.915 692.293 50.117 692.218 49.6224 692.218C49.1277 692.218 48.7824 692.279 48.5864 692.4C48.3997 692.512 48.3064 692.694 48.3064 692.946C48.3064 693.198 48.409 693.375 48.6144 693.478C48.829 693.581 49.3237 693.702 50.0984 693.842C50.8824 693.973 51.4377 694.183 51.7644 694.472C52.091 694.761 52.2544 695.275 52.2544 696.012C52.2544 696.749 52.0164 697.291 51.5404 697.636C51.0737 697.981 50.3877 698.154 49.4824 698.154C48.913 698.154 48.1944 698.075 47.3264 697.916L46.8924 697.846L46.9484 696.572C48.0684 696.721 48.8757 696.796 49.3704 696.796C49.865 696.796 50.215 696.735 50.4204 696.614C50.635 696.493 50.7424 696.292 50.7424 696.012C50.7424 695.732 50.6397 695.541 50.4344 695.438C50.2384 695.326 49.7577 695.209 48.9924 695.088C48.2364 694.957 47.681 694.757 47.3264 694.486C46.9717 694.215 46.7944 693.721 46.7944 693.002C46.7944 692.283 47.037 691.747 47.5224 691.392C48.017 691.037 48.647 690.86 49.4124 690.86C50.0097 690.86 50.7424 690.935 51.6104 691.084L52.0444 691.168L52.0164 692.442ZM53.7209 698V691H55.2469V698H53.7209ZM53.7209 689.81V688.2H55.2469V689.81H53.7209ZM60.3598 690.846C61.3212 690.846 62.0118 691.117 62.4318 691.658C62.8612 692.19 63.0758 693.137 63.0758 694.5C63.0758 695.863 62.8238 696.815 62.3198 697.356C61.8158 697.888 60.9292 698.154 59.6598 698.154C59.2212 698.154 58.5258 698.112 57.5738 698.028L57.0978 697.986V688.088H58.6098V691.266C59.2538 690.986 59.8372 690.846 60.3598 690.846ZM59.6598 696.796C60.4065 696.796 60.9012 696.623 61.1438 696.278C61.3958 695.923 61.5218 695.326 61.5218 694.486C61.5218 693.646 61.4145 693.058 61.1998 692.722C60.9945 692.377 60.6538 692.204 60.1778 692.204C59.7298 692.204 59.2818 692.274 58.8338 692.414L58.6098 692.484V696.74C59.1232 696.777 59.4732 696.796 59.6598 696.796ZM64.6037 698V691H66.1297V698H64.6037ZM64.6037 689.81V688.2H66.1297V689.81H64.6037ZM68.0646 698V688.088H69.5906V698H68.0646ZM71.5217 698V691H73.0477V698H71.5217ZM71.5217 689.81V688.2H73.0477V689.81H71.5217ZM78.6646 692.302H76.7326V695.382C76.7326 695.951 76.7746 696.329 76.8586 696.516C76.9426 696.703 77.1573 696.796 77.5026 696.796L78.6506 696.754L78.7206 697.972C78.0953 698.093 77.6193 698.154 77.2926 698.154C76.4993 698.154 75.9533 697.972 75.6546 697.608C75.3653 697.244 75.2206 696.558 75.2206 695.55V692.302H74.3246V691H75.2206V688.97H76.7326V691H78.6646V692.302ZM79.2722 691H80.7702L82.2542 696.698H82.6322L84.1162 691H85.6282L82.9682 701.01H81.4702L82.3102 698H81.1062L79.2722 691ZM94.741 692.442C93.6397 692.293 92.8417 692.218 92.347 692.218C91.8523 692.218 91.507 692.279 91.311 692.4C91.1243 692.512 91.031 692.694 91.031 692.946C91.031 693.198 91.1337 693.375 91.339 693.478C91.5537 693.581 92.0483 693.702 92.823 693.842C93.607 693.973 94.1623 694.183 94.489 694.472C94.8157 694.761 94.979 695.275 94.979 696.012C94.979 696.749 94.741 697.291 94.265 697.636C93.7983 697.981 93.1123 698.154 92.207 698.154C91.6377 698.154 90.919 698.075 90.051 697.916L89.617 697.846L89.673 696.572C90.793 696.721 91.6003 696.796 92.095 696.796C92.5897 696.796 92.9397 696.735 93.145 696.614C93.3597 696.493 93.467 696.292 93.467 696.012C93.467 695.732 93.3643 695.541 93.159 695.438C92.963 695.326 92.4823 695.209 91.717 695.088C90.961 694.957 90.4057 694.757 90.051 694.486C89.6963 694.215 89.519 693.721 89.519 693.002C89.519 692.283 89.7617 691.747 90.247 691.392C90.7417 691.037 91.3717 690.86 92.137 690.86C92.7343 690.86 93.467 690.935 94.335 691.084L94.769 691.168L94.741 692.442ZM100.211 692.302H98.2795V695.382C98.2795 695.951 98.3215 696.329 98.4055 696.516C98.4895 696.703 98.7042 696.796 99.0495 696.796L100.197 696.754L100.267 697.972C99.6422 698.093 99.1662 698.154 98.8395 698.154C98.0462 698.154 97.5002 697.972 97.2015 697.608C96.9122 697.244 96.7675 696.558 96.7675 695.55V692.302H95.8715V691H96.7675V688.97H98.2795V691H100.211V692.302ZM106.643 693.156V696.348C106.652 696.553 106.704 696.707 106.797 696.81C106.9 696.903 107.054 696.964 107.259 696.992L107.217 698.154C106.414 698.154 105.794 697.981 105.355 697.636C104.608 697.981 103.857 698.154 103.101 698.154C101.71 698.154 101.015 697.412 101.015 695.928C101.015 695.219 101.202 694.705 101.575 694.388C101.958 694.071 102.541 693.879 103.325 693.814L105.131 693.66V693.156C105.131 692.783 105.047 692.521 104.879 692.372C104.72 692.223 104.482 692.148 104.165 692.148C103.568 692.148 102.821 692.185 101.925 692.26L101.477 692.288L101.421 691.21C102.438 690.967 103.372 690.846 104.221 690.846C105.08 690.846 105.696 691.033 106.069 691.406C106.452 691.77 106.643 692.353 106.643 693.156ZM103.507 694.892C102.863 694.948 102.541 695.298 102.541 695.942C102.541 696.586 102.826 696.908 103.395 696.908C103.862 696.908 104.356 696.833 104.879 696.684L105.131 696.6V694.738L103.507 694.892ZM112.325 692.302H110.393V695.382C110.393 695.951 110.435 696.329 110.519 696.516C110.603 696.703 110.817 696.796 111.163 696.796L112.311 696.754L112.381 697.972C111.755 698.093 111.279 698.154 110.953 698.154C110.159 698.154 109.613 697.972 109.315 697.608C109.025 697.244 108.881 696.558 108.881 695.55V692.302H107.985V691H108.881V688.97H110.393V691H112.325V692.302ZM118.56 696.74L118.952 696.698L118.98 697.832C117.916 698.047 116.974 698.154 116.152 698.154C115.116 698.154 114.37 697.869 113.912 697.3C113.464 696.731 113.24 695.821 113.24 694.57C113.24 692.087 114.253 690.846 116.278 690.846C118.238 690.846 119.218 691.915 119.218 694.052L119.12 695.144H114.78C114.79 695.723 114.916 696.147 115.158 696.418C115.401 696.689 115.854 696.824 116.516 696.824C117.179 696.824 117.86 696.796 118.56 696.74ZM117.72 693.968C117.72 693.277 117.608 692.797 117.384 692.526C117.17 692.246 116.801 692.106 116.278 692.106C115.756 692.106 115.373 692.251 115.13 692.54C114.897 692.829 114.776 693.305 114.766 693.968H117.72ZM122.212 698H120.686V691H122.198V691.434C122.86 691.042 123.467 690.846 124.018 690.846C124.83 690.846 125.422 691.075 125.796 691.532C126.645 691.075 127.49 690.846 128.33 690.846C129.17 690.846 129.762 691.107 130.108 691.63C130.453 692.143 130.626 693.016 130.626 694.248V698H129.114V694.29C129.114 693.534 129.034 692.997 128.876 692.68C128.726 692.363 128.409 692.204 127.924 692.204C127.504 692.204 127.051 692.297 126.566 692.484L126.328 692.582C126.402 692.769 126.44 693.366 126.44 694.374V698H124.928V694.402C124.928 693.571 124.853 692.997 124.704 692.68C124.554 692.363 124.228 692.204 123.724 692.204C123.257 692.204 122.823 692.297 122.422 692.484L122.212 692.568V698ZM137.4 696.74L137.792 696.698L137.82 697.832C136.756 698.047 135.814 698.154 134.992 698.154C133.956 698.154 133.21 697.869 132.752 697.3C132.304 696.731 132.08 695.821 132.08 694.57C132.08 692.087 133.093 690.846 135.118 690.846C137.078 690.846 138.058 691.915 138.058 694.052L137.96 695.144H133.62C133.63 695.723 133.756 696.147 133.998 696.418C134.241 696.689 134.694 696.824 135.356 696.824C136.019 696.824 136.7 696.796 137.4 696.74ZM136.56 693.968C136.56 693.277 136.448 692.797 136.224 692.526C136.01 692.246 135.641 692.106 135.118 692.106C134.596 692.106 134.213 692.251 133.97 692.54C133.737 692.829 133.616 693.305 133.606 693.968H136.56ZM141.052 698H139.526V691H141.038V691.434C141.719 691.042 142.363 690.846 142.97 690.846C143.903 690.846 144.538 691.112 144.874 691.644C145.219 692.167 145.392 693.035 145.392 694.248V698H143.88V694.29C143.88 693.534 143.796 692.997 143.628 692.68C143.469 692.363 143.138 692.204 142.634 692.204C142.158 692.204 141.7 692.297 141.262 692.484L141.052 692.568V698ZM150.934 692.302H149.002V695.382C149.002 695.951 149.044 696.329 149.128 696.516C149.212 696.703 149.427 696.796 149.772 696.796L150.92 696.754L150.99 697.972C150.365 698.093 149.889 698.154 149.562 698.154C148.769 698.154 148.223 697.972 147.924 697.608C147.635 697.244 147.49 696.558 147.49 695.55V692.302H146.594V691H147.49V688.97H149.002V691H150.934V692.302Z" fill="white"/>
<path d="M12 699.54H81.3456V699.96H12V699.54ZM83.7794 699.54H151.256V699.96H83.7794V699.54Z" fill="white"/>
</g>
<defs>
<filter id="filter0_d_4177_47328" x="-4" y="260" width="368" height="120" filterUnits="userSpaceOnUse" color-interpolation-filters="sRGB">
<feFlood flood-opacity="0" result="BackgroundImageFix"/>
<feColorMatrix in="SourceAlpha" type="matrix" values="0 0 0 0 0 0 0 0 0 0 0 0 0 0 0 0 0 0 127 0" result="hardAlpha"/>
<feOffset dy="8"/>
<feGaussianBlur stdDeviation="8"/>
<feColorMatrix type="matrix" values="0 0 0 0 0 0 0 0 0 0 0 0 0 0 0 0 0 0 0.15 0"/>
<feBlend mode="normal" in2="BackgroundImageFix" result="effect1_dropShadow_4177_47328"/>
<feBlend mode="normal" in="SourceGraphic" in2="effect1_dropShadow_4177_47328" result="shape"/>
</filter>
<filter id="filter1_d_4177_47328" x="-4" y="360" width="368" height="120" filterUnits="userSpaceOnUse" color-interpolation-filters="sRGB">
<feFlood flood-opacity="0" result="BackgroundImageFix"/>
<feColorMatrix in="SourceAlpha" type="matrix" values="0 0 0 0 0 0 0 0 0 0 0 0 0 0 0 0 0 0 127 0" result="hardAlpha"/>
<feOffset dy="8"/>
<feGaussianBlur stdDeviation="8"/>
<feColorMatrix type="matrix" values="0 0 0 0 0 0 0 0 0 0 0 0 0 0 0 0 0 0 0.15 0"/>
<feBlend mode="normal" in2="BackgroundImageFix" result="effect1_dropShadow_4177_47328"/>
<feBlend mode="normal" in="SourceGraphic" in2="effect1_dropShadow_4177_47328" result="shape"/>
</filter>
<clipPath id="clip0_4177_47328">
<rect width="360" height="733" fill="white"/>
</clipPath>
<clipPath id="clip1_4177_47328">
<rect width="47" height="24" fill="white" transform="translate(301 12)"/>
</clipPath>
<clipPath id="clip2_4177_47328">
<rect x="12" y="268" width="336" height="88" rx="4" fill="white"/>
</clipPath>
<clipPath id="clip3_4177_47328">
<rect width="24" height="24" fill="white" transform="translate(308 300)"/>
</clipPath>
<clipPath id="clip4_4177_47328">
<rect x="12" y="368" width="336" height="88" rx="4" fill="white"/>
</clipPath>
<clipPath id="clip5_4177_47328">
<rect width="24" height="24" fill="white" transform="translate(308 400)"/>
</clipPath>
</defs>
</svg>
