<svg xmlns="http://www.w3.org/2000/svg" xmlns:xlink="http://www.w3.org/1999/xlink" contentStyleType="text/css" data-diagram-type="STATE" height="482px" preserveAspectRatio="none" style="width:448px;height:482px;background:#FFFFFF;" version="1.1" viewBox="0 0 448 482" width="448px" zoomAndPan="magnify"><defs/><g><rect fill="#FFA500" height="40" rx="12.5" ry="12.5" style="stroke:#181818;stroke-width:0.5;" width="69.6436" x="32.05" y="103"/><text fill="#000000" font-family="sans-serif" font-size="14" lengthAdjust="spacing" textLength="59.6436" x="37.05" y="127.8467">Installed</text><rect fill="#228B22" height="40" rx="12.5" ry="12.5" style="stroke:#181818;stroke-width:0.5;" width="64.1543" x="191.05" y="103"/><text fill="#000000" font-family="sans-serif" font-size="14" lengthAdjust="spacing" textLength="54.1543" x="196.05" y="127.8467">Verified</text><rect fill="#FFFF00" height="40" rx="12.5" ry="12.5" style="stroke:#181818;stroke-width:0.5;" width="81.9824" x="119.05" y="220"/><text fill="#000000" font-family="sans-serif" font-size="14" lengthAdjust="spacing" textLength="71.9824" x="124.05" y="244.8467">Unverified</text><rect fill="#D64545" height="40" rx="12.5" ry="12.5" style="stroke:#181818;stroke-width:0.5;" width="88.5244" x="115.55" y="337"/><text fill="#000000" font-family="sans-serif" font-size="14" lengthAdjust="spacing" textLength="78.5244" x="120.55" y="361.8467">Uninstalled</text><ellipse cx="67.05" cy="16" fill="#222222" rx="10" ry="10" style="stroke:#222222;stroke-width:1;"/><ellipse cx="160.05" cy="465" fill="none" rx="11" ry="11" style="stroke:#222222;stroke-width:1;"/><ellipse cx="160.05" cy="465" fill="#222222" rx="6" ry="6" style="stroke:#222222;stroke-width:1;"/><!--link *start* to Installed--><g class="link" data-entity-1="*start*" data-entity-2="Installed" data-source-line="8" data-uid="lnk3" id="link_*start*_Installed"><path d="M67.05,26.32 C67.05,43.38 67.05,73.98 67.05,96.64" fill="none" id="*start*-to-Installed" style="stroke:#181818;stroke-width:1;"/><polygon fill="#181818" points="67.05,102.64,71.05,93.64,67.05,97.64,63.05,93.64,67.05,102.64" style="stroke:#181818;stroke-width:1;"/><text fill="#000000" font-family="sans-serif" font-size="13" lengthAdjust="spacing" textLength="54.5898" x="68.05" y="69.0669">RPI INST</text></g><!--link Installed to Uninstalled--><g class="link" data-entity-1="Installed" data-entity-2="Uninstalled" data-source-line="9" data-uid="lnk4" id="link_Installed_Uninstalled"><path d="M52.37,143.31 C33.65,170.46 6,220.95 26.05,260 C44.69,296.27 78.7307,319.2322 110.0107,334.8322" fill="none" id="Installed-to-Uninstalled" style="stroke:#181818;stroke-width:1;"/><polygon fill="#181818" points="115.38,337.51,109.1112,329.9138,110.9056,335.2785,105.5408,337.0729,115.38,337.51" style="stroke:#181818;stroke-width:1;"/><text fill="#000000" font-family="sans-serif" font-size="13" lengthAdjust="spacing" textLength="73.8296" x="27.05" y="244.5669">RPI UNINST</text></g><!--link Installed to Ready--><g class="link" data-entity-1="Installed" data-entity-2="Ready" data-source-line="10" data-uid="lnk5" id="link_Installed_Ready"><path d="M102.06,123 C128.65,123 158.94,123 184.82,123" fill="none" id="Installed-to-Ready" style="stroke:#181818;stroke-width:1;"/><polygon fill="#181818" points="190.82,123,181.82,119,185.82,123,181.82,127,190.82,123" style="stroke:#181818;stroke-width:1;"/><text fill="#000000" font-family="sans-serif" font-size="13" lengthAdjust="spacing" textLength="52.1587" x="120.55" y="116.0669">RPI REG</text></g><!--reverse link Installed to Ready--><g class="link" data-entity-1="Installed" data-entity-2="Ready" data-source-line="12" data-uid="lnk8" id="link_Installed_Ready"><path d="M107.9302,140.063 C113.9402,142.073 114.5,141.91 120.55,143 C143.3,147.11 149.85,147.33 172.55,143 C178.67,141.83 184.99,139.94 191,137.77" fill="none" id="Installed-backto-Ready" style="stroke:#181818;stroke-width:1;"/><polygon fill="#181818" points="102.24,138.16,109.5066,144.808,106.9818,139.7459,112.044,137.2211,102.24,138.16" style="stroke:#181818;stroke-width:1;"/><text fill="#000000" font-family="sans-serif" font-size="13" lengthAdjust="spacing" textLength="50.978" x="121.55" y="139.0669">RPI REV</text></g><!--link Ready to Uninstalled--><g class="link" data-entity-1="Ready" data-entity-2="Uninstalled" data-source-line="11" data-uid="lnk6" id="link_Ready_Uninstalled"><path d="M255.25,132.04 C279.14,139.37 311.21,152.28 333.05,173 C362.16,200.6 378.32,225.99 357.05,260 C323.88,313.07 257.8504,336.2486 210.7004,346.9786" fill="none" id="Ready-to-Uninstalled" style="stroke:#181818;stroke-width:1;"/><polygon fill="#181818" points="204.85,348.31,214.5132,350.2132,209.7253,347.2005,212.738,342.4126,204.85,348.31" style="stroke:#181818;stroke-width:1;"/><text fill="#000000" font-family="sans-serif" font-size="13" lengthAdjust="spacing" textLength="73.8296" x="367.05" y="244.5669">RPI UNINST</text></g><!--link Ready to Ready--><g class="link" data-entity-1="Ready" data-entity-2="Ready" data-source-line="13" data-uid="lnk9" id="link_Ready_Ready"><path d="M255.11,112.68 C273.25,110.67 290.05,114.11 290.05,123 C290.05,131.89 279.2135,135.9908 261.0735,133.9808" fill="none" id="Ready-to-Ready" style="stroke:#181818;stroke-width:1;"/><polygon fill="#181818" points="255.11,133.32,263.6147,138.2868,260.0796,133.8707,264.4958,130.3355,255.11,133.32" style="stroke:#181818;stroke-width:1;"/><text fill="#0000FF" font-family="sans-serif" font-size="13" lengthAdjust="spacing" textLength="101.6577" x="296.05" y="127.5669">PID/(Q)EAA PRE</text></g><!--link Ready to Unverified--><g class="link" data-entity-1="Ready" data-entity-2="Unverified" data-source-line="14" data-uid="lnk10" id="link_Ready_Unverified"><path d="M243.75,143.19 C255.61,156.59 266.44,174.74 257.05,190 C244.9,209.77 227.6887,219.8551 207.2087,227.0751" fill="none" id="Ready-to-Unverified" style="stroke:#181818;stroke-width:1;"/><polygon fill="#181818" points="201.55,229.07,211.3679,229.8501,206.2655,227.4076,208.7081,222.3052,201.55,229.07" style="stroke:#181818;stroke-width:1;"/><text fill="#000000" font-family="sans-serif" font-size="13" lengthAdjust="spacing" textLength="63.356" x="261.05" y="186.0669">CERT EXP</text></g><!--reverse link Ready to Unverified--><g class="link" data-entity-1="Ready" data-entity-2="Unverified" data-source-line="16" data-uid="lnk13" id="link_Ready_Unverified"><path d="M192.6169,147.1451 C183.3269,155.3251 178.15,161.64 172.05,173 C164.29,187.47 161.44,206.02 160.44,219.77" fill="none" id="Ready-backto-Unverified" style="stroke:#181818;stroke-width:1;"/><polygon fill="#181818" points="197.12,143.18,187.7219,146.1255,193.3674,146.4842,193.0087,152.1297,197.12,143.18" style="stroke:#181818;stroke-width:1;"/><text fill="#000000" font-family="sans-serif" font-size="13" lengthAdjust="spacing" textLength="75.9814" x="173.05" y="186.0669">CERT REISS</text></g><!--link Unverified to Uninstalled--><g class="link" data-entity-1="Unverified" data-entity-2="Uninstalled" data-source-line="15" data-uid="lnk11" id="link_Unverified_Uninstalled"><path d="M160.05,260.25 C160.05,281.48 160.05,309.44 160.05,330.69" fill="none" id="Unverified-to-Uninstalled" style="stroke:#181818;stroke-width:1;"/><polygon fill="#181818" points="160.05,336.69,164.05,327.69,160.05,331.69,156.05,327.69,160.05,336.69" style="stroke:#181818;stroke-width:1;"/><text fill="#000000" font-family="sans-serif" font-size="13" lengthAdjust="spacing" textLength="73.8296" x="161.05" y="303.0669">RPI UNINST</text></g><!--link Unverified to Unverified--><g class="link" data-entity-1="Unverified" data-entity-2="Unverified" data-source-line="17" data-uid="lnk14" id="link_Unverified_Unverified"><path d="M201.1,229.32 C219.8,228.23 236.05,231.79 236.05,240 C236.05,248.21 225.7898,252.1191 207.0898,251.0291" fill="none" id="Unverified-to-Unverified" style="stroke:#181818;stroke-width:1;"/><polygon fill="#181818" points="201.1,250.68,209.852,255.1969,206.0915,250.971,210.3175,247.2105,201.1,250.68" style="stroke:#181818;stroke-width:1;"/><text fill="#0000FF" font-family="sans-serif" font-size="13" lengthAdjust="spacing" textLength="108.1577" x="242.05" y="244.5669">PID/(Q)EAA PRE*</text></g><!--reverse link Installed to Unverified--><g class="link" data-entity-1="Installed" data-entity-2="Unverified" data-source-line="18" data-uid="lnk16" id="link_Installed_Unverified"><path d="M69.9345,149.1168 C72.1545,163.1968 75.97,176.25 86.05,190 C94.99,202.17 107.93,212.21 120.49,219.96" fill="none" id="Installed-backto-Unverified" style="stroke:#181818;stroke-width:1;"/><polygon fill="#181818" points="69,143.19,66.4505,152.7032,69.7787,148.129,74.3529,151.4572,69,143.19" style="stroke:#181818;stroke-width:1;"/><text fill="#000000" font-family="sans-serif" font-size="13" lengthAdjust="spacing" textLength="70.3828" x="87.05" y="186.0669">RPI DEREG</text></g><!--link Uninstalled to *end*--><g class="link" data-entity-1="Uninstalled" data-entity-2="*end*" data-source-line="19" data-uid="lnk18" id="link_Uninstalled_*end*"><path d="M160.05,377.44 C160.05,400.03 160.05,430.45 160.05,447.96" fill="none" id="Uninstalled-to-*end*" style="stroke:#181818;stroke-width:1;"/><polygon fill="#181818" points="160.05,453.96,164.05,444.96,160.05,448.96,156.05,444.96,160.05,453.96" style="stroke:#181818;stroke-width:1;"/><text fill="#000000" font-family="sans-serif" font-size="13" lengthAdjust="spacing" textLength="4.1323" x="161.05" y="420.0669">&#160;</text></g><!--SRC=[XP5VQuCm5CNVyoakzMKhY9tKCQG8RgR3b-9YBOEn1zTSru1JqNIZ-_HB_Tzretb9I7uvvt3kJd04_2Za0JXMsr8KKkGP8PMC9OAVgJrDaOEsNBhMRDRUJpPOYaGWdq1S0SEO7q0ppRjxqso9AFji4T0IjVglKIO6KUzsRiqjGbwchw3p_2lJdS7J1XRuuA_2DHboTDH8fk6YrM-o5EyxgT0wNWCn-aYQj9TqMYh5H9vdOdJJ0RtyOfkdUMc_fNjq0jyphfwkgUj2mEZ2g9-SC-Uk8HiUA5i3VGx8gBPB2SVelXY2r5gC-c5uWfmQ_fzssiST__wx1uyU2nrFL5UG6gOogCGtsZUcip2E9-S7]--></g></svg>