<svg width="1440" height="840" viewBox="0 0 1440 840" fill="none" xmlns="http://www.w3.org/2000/svg">
<g clip-path="url(#clip0_2083_8770)">
<rect width="1440" height="840" fill="white"/>
<rect width="1440" height="52" fill="#004D99"/>
<path d="M76.104 22.65L76.23 24.9C76.23 25.656 76.104 26.202 75.852 26.538C75.6 26.874 75.072 27.15 74.268 27.366C75.06 27.57 75.582 27.858 75.834 28.23C76.098 28.59 76.23 29.154 76.23 29.922L76.104 32.028C76.104 32.544 76.218 32.94 76.446 33.216C76.674 33.504 77.1 33.666 77.724 33.702V35.358C76.44 35.31 75.528 35.046 74.988 34.566C74.46 34.098 74.196 33.324 74.196 32.244L74.322 30.066C74.322 29.142 73.662 28.5 72.342 28.14V26.61C73.026 26.454 73.524 26.232 73.836 25.944C74.16 25.644 74.322 25.26 74.322 24.792L74.196 22.506C74.196 21.378 74.46 20.586 74.988 20.13C75.528 19.662 76.446 19.404 77.742 19.356L77.76 21.012C77.124 21.06 76.686 21.216 76.446 21.48C76.218 21.744 76.104 22.134 76.104 22.65ZM79.8556 33V20.67H83.3476L87.0916 31.236H87.3616V20.67H89.3596V33H85.9396L82.1056 22.416H81.8536V33H79.8556ZM92.342 24.972C92.966 24.192 93.998 23.802 95.438 23.802C96.878 23.802 97.904 24.192 98.516 24.972C99.14 25.752 99.452 26.922 99.452 28.482C99.452 30.042 99.152 31.218 98.552 32.01C97.952 32.802 96.914 33.198 95.438 33.198C93.962 33.198 92.924 32.802 92.324 32.01C91.724 31.218 91.424 30.042 91.424 28.482C91.424 26.922 91.73 25.752 92.342 24.972ZM93.818 30.822C94.094 31.302 94.634 31.542 95.438 31.542C96.242 31.542 96.782 31.302 97.058 30.822C97.334 30.342 97.472 29.556 97.472 28.464C97.472 27.372 97.322 26.598 97.022 26.142C96.734 25.686 96.206 25.458 95.438 25.458C94.67 25.458 94.136 25.686 93.836 26.142C93.548 26.598 93.404 27.372 93.404 28.464C93.404 29.556 93.542 30.342 93.818 30.822ZM103.363 33H101.401V24H103.345V24.558C104.197 24.054 104.977 23.802 105.685 23.802C106.729 23.802 107.491 24.096 107.971 24.684C109.063 24.096 110.149 23.802 111.229 23.802C112.309 23.802 113.071 24.138 113.515 24.81C113.959 25.47 114.181 26.592 114.181 28.176V33H112.237V28.23C112.237 27.258 112.135 26.568 111.931 26.16C111.739 25.752 111.331 25.548 110.707 25.548C110.167 25.548 109.585 25.668 108.961 25.908L108.655 26.034C108.751 26.274 108.799 27.042 108.799 28.338V33H106.855V28.374C106.855 27.306 106.759 26.568 106.567 26.16C106.375 25.752 105.955 25.548 105.307 25.548C104.707 25.548 104.149 25.668 103.633 25.908L103.363 26.016V33ZM122.891 31.38L123.395 31.326L123.431 32.784C122.063 33.06 120.851 33.198 119.795 33.198C118.463 33.198 117.503 32.832 116.915 32.1C116.339 31.368 116.051 30.198 116.051 28.59C116.051 25.398 117.353 23.802 119.957 23.802C122.477 23.802 123.737 25.176 123.737 27.924L123.611 29.328H118.031C118.043 30.072 118.205 30.618 118.517 30.966C118.829 31.314 119.411 31.488 120.263 31.488C121.115 31.488 121.991 31.452 122.891 31.38ZM121.811 27.816C121.811 26.928 121.667 26.31 121.379 25.962C121.103 25.602 120.629 25.422 119.957 25.422C119.285 25.422 118.793 25.608 118.481 25.98C118.181 26.352 118.025 26.964 118.013 27.816H121.811ZM135.987 31.38L136.491 31.326L136.527 32.784C135.159 33.06 133.947 33.198 132.891 33.198C131.559 33.198 130.599 32.832 130.011 32.1C129.435 31.368 129.147 30.198 129.147 28.59C129.147 25.398 130.449 23.802 133.053 23.802C135.573 23.802 136.833 25.176 136.833 27.924L136.707 29.328H131.127C131.139 30.072 131.301 30.618 131.613 30.966C131.925 31.314 132.507 31.488 133.359 31.488C134.211 31.488 135.087 31.452 135.987 31.38ZM134.907 27.816C134.907 26.928 134.763 26.31 134.475 25.962C134.199 25.602 133.725 25.422 133.053 25.422C132.381 25.422 131.889 25.608 131.577 25.98C131.277 26.352 131.121 26.964 131.109 27.816H134.907ZM140.681 33H138.719V24H140.663V24.558C141.539 24.054 142.367 23.802 143.147 23.802C144.347 23.802 145.163 24.144 145.595 24.828C146.039 25.5 146.261 26.616 146.261 28.176V33H144.317V28.23C144.317 27.258 144.209 26.568 143.993 26.16C143.789 25.752 143.363 25.548 142.715 25.548C142.103 25.548 141.515 25.668 140.951 25.908L140.681 26.016V33ZM153.387 25.674H150.903V29.634C150.903 30.366 150.957 30.852 151.065 31.092C151.173 31.332 151.449 31.452 151.893 31.452L153.369 31.398L153.459 32.964C152.655 33.12 152.043 33.198 151.623 33.198C150.603 33.198 149.901 32.964 149.517 32.496C149.145 32.028 148.959 31.146 148.959 29.85V25.674H147.807V24H148.959V21.39H150.903V24H153.387V25.674ZM161.405 31.38L161.909 31.326L161.945 32.784C160.577 33.06 159.365 33.198 158.309 33.198C156.977 33.198 156.017 32.832 155.429 32.1C154.853 31.368 154.565 30.198 154.565 28.59C154.565 25.398 155.867 23.802 158.471 23.802C160.991 23.802 162.251 25.176 162.251 27.924L162.125 29.328H156.545C156.557 30.072 156.719 30.618 157.031 30.966C157.343 31.314 157.925 31.488 158.777 31.488C159.629 31.488 160.505 31.452 161.405 31.38ZM160.325 27.816C160.325 26.928 160.181 26.31 159.893 25.962C159.617 25.602 159.143 25.422 158.471 25.422C157.799 25.422 157.307 25.608 156.995 25.98C156.695 26.352 156.539 26.964 156.527 27.816H160.325ZM164.955 32.028L164.829 29.922C164.829 29.154 164.955 28.59 165.207 28.23C165.471 27.858 165.999 27.57 166.791 27.366C165.987 27.15 165.459 26.874 165.207 26.538C164.955 26.202 164.829 25.656 164.829 24.9L164.955 22.65C164.955 22.134 164.835 21.744 164.595 21.48C164.367 21.216 163.935 21.06 163.299 21.012L163.317 19.356C164.613 19.404 165.525 19.662 166.053 20.13C166.593 20.586 166.863 21.378 166.863 22.506L166.737 24.792C166.737 25.26 166.893 25.644 167.205 25.944C167.529 26.232 168.033 26.454 168.717 26.61V28.14C167.397 28.5 166.737 29.142 166.737 30.066L166.863 32.244C166.863 33.324 166.593 34.098 166.053 34.566C165.525 35.046 164.619 35.31 163.335 35.358V33.702C163.959 33.666 164.385 33.504 164.613 33.216C164.841 32.94 164.955 32.544 164.955 32.028Z" fill="white"/>
<path d="M72 34.98H75.1163V35.52H72V34.98ZM78.2666 34.98H162.796V35.52H78.2666V34.98ZM165.931 34.98H169.059V35.52H165.931V34.98Z" fill="white"/>
<g clip-path="url(#clip1_2083_8770)">
<path d="M1322.11 31V21.41H1323.66V31H1322.11ZM1324.94 22.796V21.41H1331.94V22.796H1329.24V31H1327.67V22.796H1324.94ZM1331.83 31L1334.2 21.41H1337.29L1339.67 31H1338.11L1337.59 28.942H1333.91L1333.39 31H1331.83ZM1335.4 22.712L1334.21 27.57H1337.28L1336.1 22.712H1335.4Z" fill="white"/>
<path d="M1356 29.2008L1350.4 23.6008L1351.1 22.8008L1356 27.7008L1360.9 22.8008L1361.6 23.6008L1356 29.2008Z" fill="white"/>
</g>
<rect width="1440" height="93" transform="translate(0 52)" fill="#F2F7FC"/>
<rect x="72.5" y="69" width="208.024" height="59" fill="#F2F7FC"/>
<rect x="72.5" y="69" width="208.024" height="59" stroke="#C5C7C9"/>
<line x1="73.1957" y1="69.3953" x2="280.121" y2="127.049" stroke="#C5C7C9"/>
<path d="M102.815 108.5V89.46H106.679V108.5H102.815ZM121.662 108.5H110.826V89.46H114.69V105.084H121.662V108.5ZM128.478 92.876V89.46H142.478V92.876H137.438V108.5H133.574V92.876H128.478ZM148.62 102.144C148.62 104.365 149.749 105.476 152.008 105.476C154.267 105.476 155.396 104.365 155.396 102.144V89.46H159.26V102.06C159.26 104.393 158.653 106.111 157.44 107.212C156.245 108.295 154.435 108.836 152.008 108.836C149.581 108.836 147.761 108.295 146.548 107.212C145.353 106.111 144.756 104.393 144.756 102.06V89.46H148.62V102.144ZM167.192 104.02C167.752 104.991 168.788 105.476 170.3 105.476C171.812 105.476 172.839 104.991 173.38 104.02C173.94 103.031 174.22 101.388 174.22 99.092C174.22 96.7773 173.94 95.0973 173.38 94.052C172.82 93.0067 171.794 92.484 170.3 92.484C168.807 92.484 167.78 93.0067 167.22 94.052C166.66 95.0973 166.38 96.7773 166.38 99.092C166.38 101.388 166.651 103.031 167.192 104.02ZM176.404 106.484C175.228 108.052 173.194 108.836 170.3 108.836C167.407 108.836 165.363 108.052 164.168 106.484C162.992 104.897 162.404 102.424 162.404 99.064C162.404 95.704 162.992 93.212 164.168 91.588C165.363 89.9453 167.407 89.124 170.3 89.124C173.194 89.124 175.228 89.9453 176.404 91.588C177.599 93.212 178.196 95.704 178.196 99.064C178.196 102.424 177.599 104.897 176.404 106.484ZM198.498 108.5H187.662V89.46H191.526V105.084H198.498V108.5ZM204.653 104.02C205.213 104.991 206.249 105.476 207.761 105.476C209.273 105.476 210.3 104.991 210.841 104.02C211.401 103.031 211.681 101.388 211.681 99.092C211.681 96.7773 211.401 95.0973 210.841 94.052C210.281 93.0067 209.255 92.484 207.761 92.484C206.268 92.484 205.241 93.0067 204.681 94.052C204.121 95.0973 203.841 96.7773 203.841 99.092C203.841 101.388 204.112 103.031 204.653 104.02ZM213.865 106.484C212.689 108.052 210.655 108.836 207.761 108.836C204.868 108.836 202.824 108.052 201.629 106.484C200.453 104.897 199.865 102.424 199.865 99.064C199.865 95.704 200.453 93.212 201.629 91.588C202.824 89.9453 204.868 89.124 207.761 89.124C210.655 89.124 212.689 89.9453 213.865 91.588C215.06 93.212 215.657 95.704 215.657 99.064C215.657 102.424 215.06 104.897 213.865 106.484ZM226.895 101.668V98.308H232.439V108.192C229.77 108.621 227.604 108.836 225.943 108.836C222.975 108.836 220.931 108.043 219.811 106.456C218.71 104.869 218.159 102.349 218.159 98.896C218.159 95.4427 218.738 92.9507 219.895 91.42C221.052 89.8893 223.022 89.124 225.803 89.124C227.539 89.124 229.415 89.32 231.431 89.712L232.439 89.908L232.327 92.904C230.087 92.6613 228.248 92.54 226.811 92.54C225.392 92.54 224.394 92.708 223.815 93.044C223.236 93.38 222.807 94.0053 222.527 94.92C222.266 95.816 222.135 97.3653 222.135 99.568C222.135 101.752 222.406 103.283 222.947 104.16C223.488 105.037 224.608 105.476 226.307 105.476L228.631 105.364V101.668H226.895ZM240.036 104.02C240.596 104.991 241.632 105.476 243.144 105.476C244.656 105.476 245.683 104.991 246.224 104.02C246.784 103.031 247.064 101.388 247.064 99.092C247.064 96.7773 246.784 95.0973 246.224 94.052C245.664 93.0067 244.637 92.484 243.144 92.484C241.651 92.484 240.624 93.0067 240.064 94.052C239.504 95.0973 239.224 96.7773 239.224 99.092C239.224 101.388 239.495 103.031 240.036 104.02ZM249.248 106.484C248.072 108.052 246.037 108.836 243.144 108.836C240.251 108.836 238.207 108.052 237.012 106.484C235.836 104.897 235.248 102.424 235.248 99.064C235.248 95.704 235.836 93.212 237.012 91.588C238.207 89.9453 240.251 89.124 243.144 89.124C246.037 89.124 248.072 89.9453 249.248 91.588C250.443 93.212 251.04 95.704 251.04 99.064C251.04 102.424 250.443 104.897 249.248 106.484Z" fill="black"/>
<path d="M305.024 68.5V128.5" stroke="#C5C7C9" stroke-linejoin="round"/>
<path d="M341.052 82.5C341.252 82.4988 341.458 82.5474 341.652 82.6572L354.436 89.8281C355.361 90.3468 355.793 91.184 355.793 92.1445L355.784 112.388C355.784 113.093 355.208 113.601 354.576 113.605C354.376 113.607 354.17 113.557 353.975 113.447L345.951 108.947V96.1553C345.951 95.1948 345.52 94.3539 344.594 93.8389L340.305 91.4512V113.283C340.304 113.988 339.729 114.495 339.097 114.5C338.897 114.501 338.69 114.452 338.495 114.342L330.382 109.779C329.457 109.261 329.024 108.423 329.024 107.463L329.044 86.1738C329.045 85.4685 329.62 84.9621 330.252 84.957C330.452 84.9558 330.659 85.0044 330.854 85.1143L339.879 90.1758L339.844 83.7168C339.84 83.0114 340.42 82.505 341.052 82.5ZM433.652 92.998C438.129 92.998 440.719 95.2516 440.719 99.083V104.031C440.719 104.664 440.996 104.971 441.459 104.972H442.057L442.055 104.975C442.282 104.975 442.452 105.148 442.452 105.375V108.558C442.452 108.785 442.291 108.956 442.063 108.956H439.238C438.007 108.956 436.994 108.51 436.403 107.811C435.067 108.853 433.368 109.381 431.556 109.381C428.142 109.381 426.12 107.511 426.12 104.301C426.12 101.265 427.928 99.7236 431.913 99.4551L435.709 99.1982V98.5732C435.708 97.2772 434.809 96.5586 433.325 96.5586C432.293 96.5587 431.618 96.9087 431.301 97.5078C431.162 97.769 431.027 97.8594 430.789 97.8594H426.55C426.311 97.8593 426.153 97.7211 426.149 97.5186C426.147 97.3916 426.207 97.2003 426.313 96.9492C427.327 94.5569 429.963 92.9981 433.652 92.998ZM467.782 92.998C472.534 92.998 475.388 95.893 475.388 100.449V101.954C475.388 102.181 475.217 102.354 474.99 102.354H464.834C464.966 104.232 465.797 105.761 467.943 105.761C468.952 105.761 469.757 105.422 470.17 104.777C470.327 104.532 470.472 104.46 470.609 104.46H474.677C475 104.46 475.108 104.656 475.109 104.872C475.111 104.995 475.074 105.126 474.991 105.342C474.016 107.882 471.616 109.381 468.044 109.381C462.971 109.381 459.985 106.312 459.984 101.179C459.984 96.0455 462.911 92.9987 467.782 92.998ZM426.003 87.6201V87.6211C426.258 87.6211 426.466 87.8609 426.422 88.1123L422.825 108.62C422.791 108.818 422.62 108.957 422.42 108.957H416.304C416.11 108.957 415.948 108.825 415.906 108.636L412.639 93.6445H412.344L409.076 108.636C409.035 108.825 408.87 108.957 408.677 108.957H402.56C402.361 108.957 402.192 108.817 402.158 108.62L398.561 88.1123C398.517 87.8609 398.722 87.6211 398.978 87.6211H403.016C403.217 87.6211 403.39 87.775 403.423 87.9727L405.847 102.474H406.111L409.209 87.9561C409.25 87.7658 409.426 87.6213 409.62 87.6211H415.562C415.758 87.6211 415.917 87.7657 415.957 87.9561L418.993 102.501H419.256L421.713 87.9736C421.746 87.7749 421.907 87.6201 422.108 87.6201H426.003ZM371.342 87.6191C371.569 87.6191 371.74 87.7859 371.74 88.0127V108.558C371.74 108.785 371.568 108.956 371.341 108.956H366.819C366.592 108.956 366.421 108.785 366.421 108.558L366.412 88.0146C366.412 87.7877 366.592 87.6203 366.819 87.6201H371.342V87.6191ZM390.097 87.6191C390.325 87.6194 390.495 87.8202 390.495 88.0469V91.5732H390.494C390.494 91.8013 390.323 92.0007 390.097 92.001H384.465V108.557C384.465 108.784 384.264 108.955 384.037 108.955H379.571C379.344 108.955 379.146 108.78 379.146 108.553V91.999H373.511C373.284 91.9989 373.114 91.7992 373.114 91.5723V88.0449C373.114 87.8179 373.287 87.6191 373.514 87.6191H390.097ZM448.324 87.6201C448.552 87.6202 448.722 87.7908 448.723 88.0176V103.95C448.723 104.585 449.087 104.972 449.722 104.972H450.686C450.913 104.972 451.111 105.14 451.111 105.367V108.56C451.111 108.786 450.932 108.955 450.705 108.955H448.5C445.174 108.956 443.573 107.483 443.573 104.46V88.0176C443.573 87.7907 443.745 87.6201 443.972 87.6201H448.324ZM456.86 87.6201C457.087 87.6201 457.27 87.7907 457.271 88.0176V103.95C457.271 104.585 457.622 104.972 458.257 104.972H459.223C459.45 104.972 459.661 105.151 459.661 105.378V108.56C459.661 108.786 459.469 108.955 459.242 108.955H457.036C453.71 108.956 452.11 107.483 452.11 104.46V88.0176C452.111 87.7909 452.281 87.6203 452.508 87.6201H456.86ZM482.566 89.1836C482.793 89.1837 482.965 89.3544 482.965 89.5811V93.4229H485.582C485.81 93.4229 486.01 93.5934 486.01 93.8203V97.0059C486.01 97.234 485.836 97.4041 485.609 97.4043H482.965V103.949C482.965 104.584 483.325 104.971 483.96 104.971H485.611C485.838 104.971 486.01 105.171 486.01 105.397V108.556C486.01 108.783 485.837 108.953 485.61 108.953H483.365C479.684 108.953 477.845 107.141 477.845 103.55V97.4043H476.023C475.795 97.4041 475.626 97.2318 475.626 97.0049V93.8203C475.626 93.5935 475.825 93.422 476.052 93.4219H477.844V89.5889C477.844 89.362 478.039 89.1838 478.266 89.1836H482.566ZM433.002 102.532C431.539 102.642 431.01 103.167 431.01 104.091C431.01 105.127 431.674 105.761 433.031 105.761C433.869 105.761 434.778 105.521 435.712 104.916H435.713V102.328L433.002 102.532ZM397.207 98.2588L397.209 98.2598C397.436 98.26 397.607 98.4313 397.607 98.6582V102.015C397.607 102.242 397.433 102.412 397.206 102.412H389.024C388.796 102.412 388.618 102.243 388.617 102.016V98.6543C388.617 98.426 388.787 98.2559 389.014 98.2559L397.207 98.2588ZM467.781 96.2559C466.026 96.2559 464.865 97.3339 464.854 99.0928H470.6C470.625 97.3205 469.536 96.2559 467.781 96.2559Z" fill="#0066CC"/>
<rect width="1440" height="441" transform="translate(0 257)" fill="white"/>
<path d="M549.129 319.648C546.867 320.139 544.83 320.384 543.017 320.384C541.203 320.384 539.753 320.16 538.665 319.712C537.577 319.264 536.723 318.549 536.105 317.568C535.486 316.587 535.059 315.435 534.825 314.112C534.59 312.789 534.473 311.125 534.473 309.12C534.473 304.917 535.059 301.995 536.233 300.352C537.427 298.688 539.614 297.856 542.793 297.856C544.627 297.856 546.75 298.144 549.161 298.72L549.033 302.24C546.921 301.92 545.161 301.76 543.753 301.76C542.366 301.76 541.374 301.952 540.777 302.336C540.179 302.699 539.731 303.403 539.433 304.448C539.155 305.493 539.017 307.275 539.017 309.792C539.017 312.309 539.305 314.059 539.881 315.04C540.478 316 541.651 316.48 543.401 316.48C545.171 316.48 547.049 316.331 549.033 316.032L549.129 319.648ZM552.942 305.824C554.072 304.352 555.96 303.616 558.606 303.616C561.251 303.616 563.139 304.352 564.27 305.824C565.4 307.275 565.966 309.323 565.966 311.968C565.966 317.579 563.512 320.384 558.606 320.384C553.699 320.384 551.246 317.579 551.246 311.968C551.246 309.323 551.811 307.275 552.942 305.824ZM556.238 315.584C556.686 316.352 557.475 316.736 558.606 316.736C559.736 316.736 560.515 316.352 560.942 315.584C561.39 314.816 561.614 313.611 561.614 311.968C561.614 310.325 561.39 309.131 560.942 308.384C560.515 307.637 559.736 307.264 558.606 307.264C557.475 307.264 556.686 307.637 556.238 308.384C555.811 309.131 555.598 310.325 555.598 311.968C555.598 313.611 555.811 314.816 556.238 315.584ZM573.397 320H569.109V304H573.365V304.896C574.816 304.043 576.149 303.616 577.365 303.616C579.498 303.616 580.97 304.245 581.781 305.504C582.592 306.763 582.997 308.704 582.997 311.328V320H578.709V311.456C578.709 310.091 578.549 309.088 578.229 308.448C577.909 307.787 577.269 307.456 576.309 307.456C575.434 307.456 574.592 307.605 573.781 307.904L573.397 308.032V320ZM595.661 307.648H591.725V314.208C591.725 314.848 591.735 315.307 591.757 315.584C591.799 315.84 591.917 316.064 592.109 316.256C592.322 316.448 592.642 316.544 593.069 316.544L595.501 316.48L595.693 319.904C594.263 320.224 593.175 320.384 592.429 320.384C590.509 320.384 589.197 319.957 588.493 319.104C587.789 318.229 587.437 316.629 587.437 314.304V307.648H585.549V304H587.437V299.552H591.725V304H595.661V307.648ZM598.453 320V304H602.741V320H598.453ZM598.453 301.952V297.6H602.741V301.952H598.453ZM610.991 320H606.703V304H610.959V304.896C612.409 304.043 613.743 303.616 614.959 303.616C617.092 303.616 618.564 304.245 619.375 305.504C620.185 306.763 620.591 308.704 620.591 311.328V320H616.303V311.456C616.303 310.091 616.143 309.088 615.823 308.448C615.503 307.787 614.863 307.456 613.903 307.456C613.028 307.456 612.185 307.605 611.375 307.904L610.991 308.032V320ZM633.83 304H638.118V320H633.862V319.104C632.326 319.957 630.993 320.384 629.862 320.384C627.644 320.384 626.15 319.776 625.382 318.56C624.614 317.323 624.23 315.264 624.23 312.384V304H628.518V312.448C628.518 314.027 628.646 315.104 628.902 315.68C629.158 316.256 629.777 316.544 630.758 316.544C631.697 316.544 632.582 316.395 633.414 316.096L633.83 315.968V304ZM654.334 308.992V315.648C654.376 316.16 654.462 316.523 654.59 316.736C654.718 316.928 654.984 317.067 655.39 317.152L655.262 320.384C654.174 320.384 653.299 320.309 652.638 320.16C651.998 320.011 651.347 319.712 650.686 319.264C649.15 320.011 647.582 320.384 645.982 320.384C642.675 320.384 641.022 318.635 641.022 315.136C641.022 313.429 641.48 312.224 642.398 311.52C643.315 310.795 644.723 310.368 646.622 310.24L650.046 309.984V308.992C650.046 308.331 649.896 307.883 649.598 307.648C649.299 307.392 648.819 307.264 648.158 307.264L642.142 307.52L642.014 304.544C644.296 303.925 646.462 303.616 648.51 303.616C650.579 303.616 652.062 304.043 652.958 304.896C653.875 305.749 654.334 307.115 654.334 308.992ZM647.134 313.216C645.939 313.323 645.342 313.963 645.342 315.136C645.342 316.309 645.864 316.896 646.91 316.896C647.72 316.896 648.606 316.768 649.566 316.512L650.046 316.384V312.96L647.134 313.216ZM676.941 308C674.295 307.659 672.439 307.488 671.373 307.488C670.327 307.488 669.645 307.584 669.325 307.776C669.026 307.968 668.877 308.277 668.877 308.704C668.877 309.109 669.079 309.397 669.485 309.568C669.911 309.717 670.978 309.952 672.685 310.272C674.413 310.571 675.639 311.072 676.365 311.776C677.09 312.48 677.453 313.621 677.453 315.2C677.453 318.656 675.309 320.384 671.021 320.384C669.613 320.384 667.906 320.192 665.901 319.808L664.877 319.616L665.005 316.032C667.65 316.373 669.485 316.544 670.509 316.544C671.554 316.544 672.258 316.448 672.621 316.256C673.005 316.043 673.197 315.733 673.197 315.328C673.197 314.923 672.994 314.624 672.589 314.432C672.205 314.24 671.181 314.005 669.517 313.728C667.874 313.451 666.647 312.981 665.837 312.32C665.026 311.659 664.621 310.485 664.621 308.8C664.621 307.093 665.197 305.813 666.349 304.96C667.501 304.085 668.983 303.648 670.797 303.648C672.055 303.648 673.773 303.851 675.949 304.256L677.005 304.448L676.941 308ZM689.987 304H694.275V320H690.019V319.104C688.483 319.957 687.149 320.384 686.019 320.384C683.8 320.384 682.307 319.776 681.539 318.56C680.771 317.323 680.387 315.264 680.387 312.384V304H684.675V312.448C684.675 314.027 684.803 315.104 685.059 315.68C685.315 316.256 685.933 316.544 686.915 316.544C687.853 316.544 688.739 316.395 689.571 316.096L689.987 315.968V304ZM698.426 320V297.6H702.714V320H698.426ZM707.051 320V297.6H711.339V320H707.051ZM714.812 306.144L716.316 298.24H720.828L718.108 306.144H714.812ZM735.459 308.992V315.648C735.501 316.16 735.587 316.523 735.715 316.736C735.843 316.928 736.109 317.067 736.515 317.152L736.387 320.384C735.299 320.384 734.424 320.309 733.763 320.16C733.123 320.011 732.472 319.712 731.811 319.264C730.275 320.011 728.707 320.384 727.107 320.384C723.8 320.384 722.147 318.635 722.147 315.136C722.147 313.429 722.605 312.224 723.523 311.52C724.44 310.795 725.848 310.368 727.747 310.24L731.171 309.984V308.992C731.171 308.331 731.021 307.883 730.723 307.648C730.424 307.392 729.944 307.264 729.283 307.264L723.267 307.52L723.139 304.544C725.421 303.925 727.587 303.616 729.635 303.616C731.704 303.616 733.187 304.043 734.083 304.896C735 305.749 735.459 307.115 735.459 308.992ZM728.259 313.216C727.064 313.323 726.467 313.963 726.467 315.136C726.467 316.309 726.989 316.896 728.035 316.896C728.845 316.896 729.731 316.768 730.691 316.512L731.171 316.384V312.96L728.259 313.216ZM739.547 326.72V304H743.803V304.864C745.189 304.032 746.405 303.616 747.451 303.616C749.605 303.616 751.195 304.267 752.219 305.568C753.243 306.848 753.755 309.035 753.755 312.128C753.755 315.221 753.189 317.376 752.059 318.592C750.928 319.787 749.072 320.384 746.491 320.384C745.787 320.384 745.029 320.32 744.219 320.192L743.835 320.128V326.72H739.547ZM746.619 307.456C745.829 307.456 745.029 307.616 744.219 307.936L743.835 308.096V316.48C744.795 316.608 745.573 316.672 746.171 316.672C747.408 316.672 748.251 316.309 748.699 315.584C749.168 314.859 749.403 313.621 749.403 311.872C749.403 308.928 748.475 307.456 746.619 307.456ZM756.953 326.72V304H761.209V304.864C762.595 304.032 763.811 303.616 764.857 303.616C767.011 303.616 768.601 304.267 769.625 305.568C770.649 306.848 771.161 309.035 771.161 312.128C771.161 315.221 770.595 317.376 769.465 318.592C768.334 319.787 766.478 320.384 763.897 320.384C763.193 320.384 762.435 320.32 761.625 320.192L761.241 320.128V326.72H756.953ZM764.025 307.456C763.235 307.456 762.435 307.616 761.625 307.936L761.241 308.096V316.48C762.201 316.608 762.979 316.672 763.577 316.672C764.814 316.672 765.657 316.309 766.105 315.584C766.574 314.859 766.809 313.621 766.809 311.872C766.809 308.928 765.881 307.456 764.025 307.456ZM781.774 320V298.24H786.19V320H781.774ZM788.979 302.144V298.24H804.979V302.144H799.219V320H794.803V302.144H788.979ZM805.386 313.44V309.536H814.858V313.44H805.386ZM816.796 298.24H821.436L824.124 316.224H824.604L828.508 298.24H833.628L837.532 316.224H838.012L840.7 298.24H845.34L841.18 320H834.492L831.068 303.456L827.644 320H820.956L816.796 298.24ZM859.709 308.992V315.648C859.751 316.16 859.837 316.523 859.965 316.736C860.093 316.928 860.359 317.067 860.765 317.152L860.637 320.384C859.549 320.384 858.674 320.309 858.013 320.16C857.373 320.011 856.722 319.712 856.061 319.264C854.525 320.011 852.957 320.384 851.357 320.384C848.05 320.384 846.397 318.635 846.397 315.136C846.397 313.429 846.855 312.224 847.773 311.52C848.69 310.795 850.098 310.368 851.997 310.24L855.421 309.984V308.992C855.421 308.331 855.271 307.883 854.973 307.648C854.674 307.392 854.194 307.264 853.533 307.264L847.517 307.52L847.389 304.544C849.671 303.925 851.837 303.616 853.885 303.616C855.954 303.616 857.437 304.043 858.333 304.896C859.25 305.749 859.709 307.115 859.709 308.992ZM852.509 313.216C851.314 313.323 850.717 313.963 850.717 315.136C850.717 316.309 851.239 316.896 852.285 316.896C853.095 316.896 853.981 316.768 854.941 316.512L855.421 316.384V312.96L852.509 313.216ZM863.989 320V297.6H868.277V320H863.989ZM872.614 320V297.6H876.902V320H872.614ZM884.567 313.824C884.588 314.805 884.844 315.52 885.335 315.968C885.847 316.395 886.572 316.608 887.51 316.608C889.495 316.608 891.265 316.544 892.823 316.416L893.719 316.32L893.783 319.488C891.329 320.085 889.111 320.384 887.127 320.384C884.716 320.384 882.967 319.744 881.879 318.464C880.791 317.184 880.247 315.104 880.247 312.224C880.247 306.485 882.604 303.616 887.319 303.616C891.969 303.616 894.295 306.027 894.295 310.848L893.975 313.824H884.567ZM890.071 310.56C890.071 309.28 889.868 308.395 889.463 307.904C889.057 307.392 888.343 307.136 887.319 307.136C886.316 307.136 885.601 307.403 885.175 307.936C884.769 308.448 884.556 309.323 884.535 310.56H890.071ZM906.223 307.648H902.287V314.208C902.287 314.848 902.298 315.307 902.319 315.584C902.362 315.84 902.479 316.064 902.671 316.256C902.884 316.448 903.204 316.544 903.631 316.544L906.063 316.48L906.255 319.904C904.826 320.224 903.738 320.384 902.991 320.384C901.071 320.384 899.759 319.957 899.055 319.104C898.351 318.229 897.999 316.629 897.999 314.304V307.648H896.111V304H897.999V299.552H902.287V304H906.223V307.648Z" fill="#17324D"/>
<path d="M730.602 467.484V375.258C730.602 370.992 735.216 368.328 738.912 370.464L774.36 390.93C777.978 393.018 780.204 396.876 780.204 401.058V494.67C780.204 498.936 775.59 501.6 771.894 499.464L737.646 479.694C733.284 477.174 730.602 472.524 730.602 467.49V467.484Z" fill="#7AC1FA"/>
<path d="M720.414 473.4V381.18C720.414 376.914 725.028 374.25 728.724 376.386L764.172 396.852C767.79 398.94 770.016 402.798 770.016 406.98V500.592C770.016 504.858 765.402 507.522 761.706 505.386L727.458 485.616C723.096 483.096 720.414 478.446 720.414 473.412V473.4Z" fill="#FFB357"/>
<path d="M709.974 480.948V387.336C709.974 383.07 714.588 380.406 718.284 382.542L753.732 403.008C757.35 405.096 759.576 408.954 759.576 413.136V506.748C759.576 511.014 754.962 513.678 751.266 511.542L715.818 491.076C712.2 488.988 709.974 485.13 709.974 480.948Z" fill="#0066CC"/>
<path d="M713.729 477.282V395.148C713.729 393.078 715.967 391.788 717.761 392.82L744.905 408.492C747.605 410.052 749.267 412.926 749.267 416.046V498.18C749.267 500.25 747.029 501.54 745.235 500.508L718.091 484.836C715.391 483.276 713.729 480.402 713.729 477.282Z" fill="white"/>
<path d="M721.325 406.115C721.325 403.823 723.803 402.395 725.789 403.541L736.673 409.829C738.449 410.855 739.541 412.751 739.541 414.803V415.889C739.541 417.695 737.585 418.829 736.019 417.923L724.193 411.095C722.417 410.069 721.325 408.173 721.325 406.121V406.115Z" fill="#0066CC"/>
<path d="M741.384 430.878L730.008 424.5C729.318 424.11 728.46 424.614 728.46 425.406V431.19L720.45 426.696C719.73 426.294 718.842 426.81 718.842 427.638V446.55C718.842 447.408 719.304 448.2 720.054 448.62L727.23 452.646C727.95 453.048 728.838 452.532 728.838 451.704V432.324L732.252 434.238C733.236 434.79 733.848 435.834 733.848 436.962V447.852L741.042 451.884C741.732 452.274 742.59 451.77 742.59 450.978V432.93C742.59 432.078 742.128 431.292 741.384 430.872V430.878Z" fill="#0066CC"/>
<path d="M690.438 507.541C673.512 497.773 659.796 476.131 659.796 459.205C659.796 442.279 673.518 436.483 690.438 446.251C707.364 456.019 721.08 477.661 721.08 494.587C721.08 511.513 707.358 517.309 690.438 507.541Z" fill="#CDD2FC"/>
<path d="M704.604 484.694L692.01 464.828C691.476 463.982 690.408 463.652 689.484 464.042L688.71 464.372C687.546 464.864 687.102 466.286 687.78 467.348L694.65 478.184L679.026 469.166C677.664 468.38 675.96 469.364 675.96 470.936V471.872C675.96 473.126 676.626 474.278 677.712 474.902L695.874 485.384C695.946 485.426 696.024 485.45 696.096 485.486L689.946 488.084C688.782 488.576 688.338 489.998 689.016 491.06L689.49 491.81C690.024 492.656 691.092 492.986 692.016 492.596L703.68 487.67C704.844 487.178 705.288 485.756 704.61 484.694H704.604Z" fill="#0066CC"/>
<path d="M570.465 570.806H567.297V575H565.911V562.544H570.465C571.821 562.544 572.823 562.874 573.471 563.534C574.119 564.194 574.443 565.202 574.443 566.558C574.443 569.39 573.117 570.806 570.465 570.806ZM567.297 569.582H570.447C572.163 569.582 573.021 568.574 573.021 566.558C573.021 565.598 572.817 564.896 572.409 564.452C572.001 563.996 571.347 563.768 570.447 563.768H567.297V569.582ZM582.396 573.884L582.918 573.83L582.954 574.892C581.586 575.084 580.416 575.18 579.444 575.18C578.148 575.18 577.23 574.808 576.69 574.064C576.15 573.308 575.88 572.138 575.88 570.554C575.88 567.398 577.134 565.82 579.642 565.82C580.854 565.82 581.76 566.162 582.36 566.846C582.96 567.518 583.26 568.58 583.26 570.032L583.188 571.058H577.248C577.248 572.054 577.428 572.792 577.788 573.272C578.148 573.752 578.772 573.992 579.66 573.992C580.56 573.992 581.472 573.956 582.396 573.884ZM581.91 569.978C581.91 568.874 581.73 568.094 581.37 567.638C581.022 567.182 580.446 566.954 579.642 566.954C578.85 566.954 578.25 567.194 577.842 567.674C577.446 568.154 577.242 568.922 577.23 569.978H581.91ZM585.364 575V566H586.696V567.224C587.74 566.504 588.838 566.03 589.99 565.802V567.17C589.486 567.266 588.958 567.416 588.406 567.62C587.866 567.824 587.452 568.004 587.164 568.16L586.714 568.394V575H585.364ZM595.542 578.996V566H596.874V566.648C597.786 566.096 598.686 565.82 599.574 565.82C600.714 565.82 601.542 566.186 602.058 566.918C602.574 567.638 602.832 568.832 602.832 570.5C602.832 572.168 602.526 573.368 601.914 574.1C601.314 574.82 600.312 575.18 598.908 575.18C598.176 575.18 597.504 575.114 596.892 574.982V578.996H595.542ZM599.376 567.026C599.016 567.026 598.626 567.086 598.206 567.206C597.798 567.326 597.474 567.446 597.234 567.566L596.892 567.746V573.812C597.744 573.944 598.392 574.01 598.836 574.01C599.808 574.01 600.486 573.734 600.87 573.182C601.266 572.63 601.464 571.73 601.464 570.482C601.464 569.234 601.284 568.346 600.924 567.818C600.576 567.29 600.06 567.026 599.376 567.026ZM605.034 575V566H606.366V567.224C607.41 566.504 608.508 566.03 609.66 565.802V567.17C609.156 567.266 608.628 567.416 608.076 567.62C607.536 567.824 607.122 568.004 606.834 568.16L606.384 568.394V575H605.034ZM610.685 570.482C610.685 568.838 610.979 567.65 611.567 566.918C612.155 566.186 613.145 565.82 614.537 565.82C615.941 565.82 616.931 566.186 617.507 566.918C618.095 567.65 618.389 568.838 618.389 570.482C618.389 572.126 618.113 573.32 617.561 574.064C617.009 574.808 616.001 575.18 614.537 575.18C613.073 575.18 612.065 574.808 611.513 574.064C610.961 573.32 610.685 572.126 610.685 570.482ZM612.071 570.464C612.071 571.772 612.227 572.69 612.539 573.218C612.863 573.746 613.529 574.01 614.537 574.01C615.557 574.01 616.223 573.752 616.535 573.236C616.847 572.708 617.003 571.784 617.003 570.464C617.003 569.144 616.829 568.238 616.481 567.746C616.133 567.242 615.485 566.99 614.537 566.99C613.601 566.99 612.953 567.242 612.593 567.746C612.245 568.238 612.071 569.144 612.071 570.464ZM623.417 567.026C622.109 567.026 621.455 567.482 621.455 568.394C621.455 568.814 621.605 569.114 621.905 569.294C622.205 569.462 622.889 569.642 623.957 569.834C625.025 570.014 625.781 570.272 626.225 570.608C626.669 570.944 626.891 571.574 626.891 572.498C626.891 573.422 626.591 574.1 625.991 574.532C625.403 574.964 624.539 575.18 623.399 575.18C622.655 575.18 621.779 575.096 620.771 574.928L620.231 574.838L620.303 573.668C621.671 573.872 622.703 573.974 623.399 573.974C624.095 573.974 624.623 573.866 624.983 573.65C625.355 573.422 625.541 573.05 625.541 572.534C625.541 572.006 625.385 571.652 625.073 571.472C624.761 571.28 624.077 571.1 623.021 570.932C621.965 570.764 621.215 570.518 620.771 570.194C620.327 569.87 620.105 569.27 620.105 568.394C620.105 567.518 620.411 566.87 621.023 566.45C621.647 566.03 622.421 565.82 623.345 565.82C624.077 565.82 624.995 565.904 626.099 566.072L626.603 566.162L626.567 567.314C625.235 567.122 624.185 567.026 623.417 567.026ZM635.078 573.884L635.6 573.83L635.636 574.892C634.268 575.084 633.098 575.18 632.126 575.18C630.83 575.18 629.912 574.808 629.372 574.064C628.832 573.308 628.562 572.138 628.562 570.554C628.562 567.398 629.816 565.82 632.324 565.82C633.536 565.82 634.442 566.162 635.042 566.846C635.642 567.518 635.942 568.58 635.942 570.032L635.87 571.058H629.93C629.93 572.054 630.11 572.792 630.47 573.272C630.83 573.752 631.454 573.992 632.342 573.992C633.242 573.992 634.154 573.956 635.078 573.884ZM634.592 569.978C634.592 568.874 634.412 568.094 634.052 567.638C633.704 567.182 633.128 566.954 632.324 566.954C631.532 566.954 630.932 567.194 630.524 567.674C630.128 568.154 629.924 568.922 629.912 569.978H634.592ZM641.52 579.23C640.08 579.23 639.072 579.032 638.496 578.636C637.932 578.252 637.65 577.544 637.65 576.512C637.65 576.02 637.758 575.618 637.974 575.306C638.19 575.006 638.556 574.664 639.072 574.28C638.736 574.052 638.568 573.638 638.568 573.038C638.568 572.834 638.718 572.456 639.018 571.904L639.18 571.616C638.232 571.184 637.758 570.278 637.758 568.898C637.758 566.846 638.88 565.82 641.124 565.82C641.7 565.82 642.234 565.88 642.726 566L642.996 566.054L645.66 565.982V567.134L643.95 567.098C644.346 567.494 644.544 568.094 644.544 568.898C644.544 570.026 644.262 570.818 643.698 571.274C643.146 571.718 642.27 571.94 641.07 571.94C640.746 571.94 640.452 571.916 640.188 571.868C639.972 572.396 639.864 572.738 639.864 572.894C639.864 573.266 639.978 573.5 640.206 573.596C640.434 573.68 641.124 573.722 642.276 573.722C643.428 573.722 644.256 573.902 644.76 574.262C645.264 574.622 645.516 575.324 645.516 576.368C645.516 578.276 644.184 579.23 641.52 579.23ZM638.982 576.404C638.982 577.04 639.156 577.478 639.504 577.718C639.864 577.97 640.518 578.096 641.466 578.096C642.426 578.096 643.11 577.964 643.518 577.7C643.938 577.436 644.148 576.992 644.148 576.368C644.148 575.756 643.998 575.36 643.698 575.18C643.398 575 642.81 574.91 641.934 574.91L639.99 574.82C639.594 575.108 639.324 575.36 639.18 575.576C639.048 575.792 638.982 576.068 638.982 576.404ZM639.108 568.898C639.108 569.606 639.264 570.11 639.576 570.41C639.9 570.71 640.428 570.86 641.16 570.86C641.892 570.86 642.414 570.71 642.726 570.41C643.038 570.11 643.194 569.606 643.194 568.898C643.194 568.178 643.038 567.668 642.726 567.368C642.414 567.068 641.892 566.918 641.16 566.918C640.428 566.918 639.9 567.074 639.576 567.386C639.264 567.686 639.108 568.19 639.108 568.898ZM652.908 566H654.258V575H652.908V574.37C652.008 574.91 651.12 575.18 650.244 575.18C649.02 575.18 648.204 574.862 647.796 574.226C647.4 573.59 647.202 572.414 647.202 570.698V566H648.552V570.68C648.552 571.988 648.666 572.864 648.894 573.308C649.122 573.752 649.638 573.974 650.442 573.974C650.838 573.974 651.24 573.92 651.648 573.812C652.056 573.692 652.368 573.578 652.584 573.47L652.908 573.308V566ZM656.855 575V566H658.205V575H656.855ZM656.855 563.966V562.4H658.205V563.966H656.855ZM660.792 575V566H662.124V567.224C663.168 566.504 664.266 566.03 665.418 565.802V567.17C664.914 567.266 664.386 567.416 663.834 567.62C663.294 567.824 662.88 568.004 662.592 568.16L662.142 568.394V575H660.792ZM672.959 573.884L673.481 573.83L673.517 574.892C672.149 575.084 670.979 575.18 670.007 575.18C668.711 575.18 667.793 574.808 667.253 574.064C666.713 573.308 666.443 572.138 666.443 570.554C666.443 567.398 667.697 565.82 670.205 565.82C671.417 565.82 672.323 566.162 672.923 566.846C673.523 567.518 673.823 568.58 673.823 570.032L673.751 571.058H667.811C667.811 572.054 667.991 572.792 668.351 573.272C668.711 573.752 669.335 573.992 670.223 573.992C671.123 573.992 672.035 573.956 672.959 573.884ZM672.473 569.978C672.473 568.874 672.293 568.094 671.933 567.638C671.585 567.182 671.009 566.954 670.205 566.954C669.413 566.954 668.813 567.194 668.405 567.674C668.009 568.154 667.805 568.922 667.793 569.978H672.473ZM675.243 577.214L676.071 573.074H677.565L676.359 577.214H675.243ZM686.716 567.026C685.408 567.026 684.754 567.482 684.754 568.394C684.754 568.814 684.904 569.114 685.204 569.294C685.504 569.462 686.188 569.642 687.256 569.834C688.324 570.014 689.08 570.272 689.524 570.608C689.968 570.944 690.19 571.574 690.19 572.498C690.19 573.422 689.89 574.1 689.29 574.532C688.702 574.964 687.838 575.18 686.698 575.18C685.954 575.18 685.078 575.096 684.07 574.928L683.53 574.838L683.602 573.668C684.97 573.872 686.002 573.974 686.698 573.974C687.394 573.974 687.922 573.866 688.282 573.65C688.654 573.422 688.84 573.05 688.84 572.534C688.84 572.006 688.684 571.652 688.372 571.472C688.06 571.28 687.376 571.1 686.32 570.932C685.264 570.764 684.514 570.518 684.07 570.194C683.626 569.87 683.404 569.27 683.404 568.394C683.404 567.518 683.71 566.87 684.322 566.45C684.946 566.03 685.72 565.82 686.644 565.82C687.376 565.82 688.294 565.904 689.398 566.072L689.902 566.162L689.866 567.314C688.534 567.122 687.484 567.026 686.716 567.026ZM698.377 573.884L698.899 573.83L698.935 574.892C697.567 575.084 696.397 575.18 695.425 575.18C694.129 575.18 693.211 574.808 692.671 574.064C692.131 573.308 691.861 572.138 691.861 570.554C691.861 567.398 693.115 565.82 695.623 565.82C696.835 565.82 697.741 566.162 698.341 566.846C698.941 567.518 699.241 568.58 699.241 570.032L699.169 571.058H693.229C693.229 572.054 693.409 572.792 693.769 573.272C694.129 573.752 694.753 573.992 695.641 573.992C696.541 573.992 697.453 573.956 698.377 573.884ZM697.891 569.978C697.891 568.874 697.711 568.094 697.351 567.638C697.003 567.182 696.427 566.954 695.623 566.954C694.831 566.954 694.231 567.194 693.823 567.674C693.427 568.154 693.223 568.922 693.211 569.978H697.891ZM704.819 579.23C703.379 579.23 702.371 579.032 701.795 578.636C701.231 578.252 700.949 577.544 700.949 576.512C700.949 576.02 701.057 575.618 701.273 575.306C701.489 575.006 701.855 574.664 702.371 574.28C702.035 574.052 701.867 573.638 701.867 573.038C701.867 572.834 702.017 572.456 702.317 571.904L702.479 571.616C701.531 571.184 701.057 570.278 701.057 568.898C701.057 566.846 702.179 565.82 704.423 565.82C704.999 565.82 705.533 565.88 706.025 566L706.295 566.054L708.959 565.982V567.134L707.249 567.098C707.645 567.494 707.843 568.094 707.843 568.898C707.843 570.026 707.561 570.818 706.997 571.274C706.445 571.718 705.569 571.94 704.369 571.94C704.045 571.94 703.751 571.916 703.487 571.868C703.271 572.396 703.163 572.738 703.163 572.894C703.163 573.266 703.277 573.5 703.505 573.596C703.733 573.68 704.423 573.722 705.575 573.722C706.727 573.722 707.555 573.902 708.059 574.262C708.563 574.622 708.815 575.324 708.815 576.368C708.815 578.276 707.483 579.23 704.819 579.23ZM702.281 576.404C702.281 577.04 702.455 577.478 702.803 577.718C703.163 577.97 703.817 578.096 704.765 578.096C705.725 578.096 706.409 577.964 706.817 577.7C707.237 577.436 707.447 576.992 707.447 576.368C707.447 575.756 707.297 575.36 706.997 575.18C706.697 575 706.109 574.91 705.233 574.91L703.289 574.82C702.893 575.108 702.623 575.36 702.479 575.576C702.347 575.792 702.281 576.068 702.281 576.404ZM702.407 568.898C702.407 569.606 702.563 570.11 702.875 570.41C703.199 570.71 703.727 570.86 704.459 570.86C705.191 570.86 705.713 570.71 706.025 570.41C706.337 570.11 706.493 569.606 706.493 568.898C706.493 568.178 706.337 567.668 706.025 567.368C705.713 567.068 705.191 566.918 704.459 566.918C703.727 566.918 703.199 567.074 702.875 567.386C702.563 567.686 702.407 568.19 702.407 568.898ZM716.207 566H717.557V575H716.207V574.37C715.307 574.91 714.419 575.18 713.543 575.18C712.319 575.18 711.503 574.862 711.095 574.226C710.699 573.59 710.501 572.414 710.501 570.698V566H711.851V570.68C711.851 571.988 711.965 572.864 712.193 573.308C712.421 573.752 712.937 573.974 713.741 573.974C714.137 573.974 714.539 573.92 714.947 573.812C715.355 573.692 715.667 573.578 715.883 573.47L716.207 573.308V566ZM720.153 575V566H721.503V575H720.153ZM720.153 563.966V562.4H721.503V563.966H720.153ZM728.154 575V562.076H729.504V575H728.154ZM738.332 573.884L738.854 573.83L738.89 574.892C737.522 575.084 736.352 575.18 735.38 575.18C734.084 575.18 733.166 574.808 732.626 574.064C732.086 573.308 731.816 572.138 731.816 570.554C731.816 567.398 733.07 565.82 735.578 565.82C736.79 565.82 737.696 566.162 738.296 566.846C738.896 567.518 739.196 568.58 739.196 570.032L739.124 571.058H733.184C733.184 572.054 733.364 572.792 733.724 573.272C734.084 573.752 734.708 573.992 735.596 573.992C736.496 573.992 737.408 573.956 738.332 573.884ZM737.846 569.978C737.846 568.874 737.666 568.094 737.306 567.638C736.958 567.182 736.382 566.954 735.578 566.954C734.786 566.954 734.186 567.194 733.778 567.674C733.382 568.154 733.178 568.922 733.166 569.978H737.846ZM745.255 575V566H746.605V575H745.255ZM745.255 563.966V562.4H746.605V563.966H745.255ZM752.018 567.026C750.71 567.026 750.056 567.482 750.056 568.394C750.056 568.814 750.206 569.114 750.506 569.294C750.806 569.462 751.49 569.642 752.558 569.834C753.626 570.014 754.382 570.272 754.826 570.608C755.27 570.944 755.492 571.574 755.492 572.498C755.492 573.422 755.192 574.1 754.592 574.532C754.004 574.964 753.14 575.18 752 575.18C751.256 575.18 750.38 575.096 749.372 574.928L748.832 574.838L748.904 573.668C750.272 573.872 751.304 573.974 752 573.974C752.696 573.974 753.224 573.866 753.584 573.65C753.956 573.422 754.142 573.05 754.142 572.534C754.142 572.006 753.986 571.652 753.674 571.472C753.362 571.28 752.678 571.1 751.622 570.932C750.566 570.764 749.816 570.518 749.372 570.194C748.928 569.87 748.706 569.27 748.706 568.394C748.706 567.518 749.012 566.87 749.624 566.45C750.248 566.03 751.022 565.82 751.946 565.82C752.678 565.82 753.596 565.904 754.7 566.072L755.204 566.162L755.168 567.314C753.836 567.122 752.786 567.026 752.018 567.026ZM762.222 567.17H759.36V571.472C759.36 572.504 759.432 573.182 759.576 573.506C759.732 573.83 760.092 573.992 760.656 573.992L762.258 573.884L762.348 575C761.544 575.132 760.932 575.198 760.512 575.198C759.576 575.198 758.928 574.97 758.568 574.514C758.208 574.058 758.028 573.188 758.028 571.904V567.17H756.75V566H758.028V563.246H759.36V566H762.222V567.17ZM763.87 575V566H765.202V567.224C766.246 566.504 767.344 566.03 768.496 565.802V567.17C767.992 567.266 767.464 567.416 766.912 567.62C766.372 567.824 765.958 568.004 765.67 568.16L765.22 568.394V575H763.87ZM775.709 566H777.059V575H775.709V574.37C774.809 574.91 773.921 575.18 773.045 575.18C771.821 575.18 771.005 574.862 770.597 574.226C770.201 573.59 770.003 572.414 770.003 570.698V566H771.353V570.68C771.353 571.988 771.467 572.864 771.695 573.308C771.923 573.752 772.439 573.974 773.243 573.974C773.639 573.974 774.041 573.92 774.449 573.812C774.857 573.692 775.169 573.578 775.385 573.47L775.709 573.308V566ZM779.115 567.206V566H785.793V567.206L780.753 573.794H785.793V575H779.115V573.794L784.155 567.206H779.115ZM787.847 575V566H789.197V575H787.847ZM787.847 563.966V562.4H789.197V563.966H787.847ZM791.388 570.482C791.388 568.838 791.682 567.65 792.27 566.918C792.858 566.186 793.848 565.82 795.24 565.82C796.644 565.82 797.634 566.186 798.21 566.918C798.798 567.65 799.092 568.838 799.092 570.482C799.092 572.126 798.816 573.32 798.264 574.064C797.712 574.808 796.704 575.18 795.24 575.18C793.776 575.18 792.768 574.808 792.216 574.064C791.664 573.32 791.388 572.126 791.388 570.482ZM792.774 570.464C792.774 571.772 792.93 572.69 793.242 573.218C793.566 573.746 794.232 574.01 795.24 574.01C796.26 574.01 796.926 573.752 797.238 573.236C797.55 572.708 797.706 571.784 797.706 570.464C797.706 569.144 797.532 568.238 797.184 567.746C796.836 567.242 796.188 566.99 795.24 566.99C794.304 566.99 793.656 567.242 793.296 567.746C792.948 568.238 792.774 569.144 792.774 570.464ZM802.644 575H801.294V566H802.626V566.63C803.598 566.09 804.528 565.82 805.416 565.82C806.616 565.82 807.42 566.144 807.828 566.792C808.248 567.44 808.458 568.592 808.458 570.248V575H807.126V570.284C807.126 569.036 807 568.184 806.748 567.728C806.508 567.26 805.986 567.026 805.182 567.026C804.798 567.026 804.39 567.086 803.958 567.206C803.538 567.314 803.214 567.422 802.986 567.53L802.644 567.692V575ZM810.962 575V566H812.312V575H810.962ZM810.962 563.966V562.4H812.312V563.966H810.962ZM821.681 567.026C820.373 567.026 819.719 567.482 819.719 568.394C819.719 568.814 819.869 569.114 820.169 569.294C820.469 569.462 821.153 569.642 822.221 569.834C823.289 570.014 824.045 570.272 824.489 570.608C824.933 570.944 825.155 571.574 825.155 572.498C825.155 573.422 824.855 574.1 824.255 574.532C823.667 574.964 822.803 575.18 821.663 575.18C820.919 575.18 820.043 575.096 819.035 574.928L818.495 574.838L818.567 573.668C819.935 573.872 820.967 573.974 821.663 573.974C822.359 573.974 822.887 573.866 823.247 573.65C823.619 573.422 823.805 573.05 823.805 572.534C823.805 572.006 823.649 571.652 823.337 571.472C823.025 571.28 822.341 571.1 821.285 570.932C820.229 570.764 819.479 570.518 819.035 570.194C818.591 569.87 818.369 569.27 818.369 568.394C818.369 567.518 818.675 566.87 819.287 566.45C819.911 566.03 820.685 565.82 821.609 565.82C822.341 565.82 823.259 565.904 824.363 566.072L824.867 566.162L824.831 567.314C823.499 567.122 822.449 567.026 821.681 567.026ZM832.838 566H834.188V575H832.838V574.37C831.938 574.91 831.05 575.18 830.174 575.18C828.95 575.18 828.134 574.862 827.726 574.226C827.33 573.59 827.132 572.414 827.132 570.698V566H828.482V570.68C828.482 571.988 828.596 572.864 828.824 573.308C829.052 573.752 829.568 573.974 830.372 573.974C830.768 573.974 831.17 573.92 831.578 573.812C831.986 573.692 832.298 573.578 832.514 573.47L832.838 573.308V566ZM836.892 575V562.076H838.242V575H836.892ZM841.058 575V562.076H842.408V575H841.058ZM844.774 566.198L845.566 562.256H846.988L845.836 566.198H844.774ZM855.267 568.718V573.326C855.303 573.77 855.651 574.034 856.311 574.118L856.257 575.18C855.309 575.18 854.595 574.94 854.115 574.46C853.035 574.94 851.955 575.18 850.875 575.18C850.047 575.18 849.417 574.946 848.985 574.478C848.553 574.01 848.337 573.338 848.337 572.462C848.337 571.586 848.559 570.944 849.003 570.536C849.447 570.116 850.143 569.858 851.091 569.762L853.917 569.492V568.718C853.917 568.106 853.785 567.668 853.521 567.404C853.257 567.14 852.897 567.008 852.441 567.008C851.481 567.008 850.485 567.068 849.453 567.188L848.895 567.242L848.841 566.216C850.161 565.952 851.331 565.82 852.351 565.82C853.371 565.82 854.109 566.054 854.565 566.522C855.033 566.99 855.267 567.722 855.267 568.718ZM849.723 572.39C849.723 573.494 850.179 574.046 851.091 574.046C851.907 574.046 852.711 573.908 853.503 573.632L853.917 573.488V570.518L851.253 570.77C850.713 570.818 850.323 570.974 850.083 571.238C849.843 571.502 849.723 571.886 849.723 572.39ZM857.931 578.996V566H859.263V566.648C860.175 566.096 861.075 565.82 861.963 565.82C863.103 565.82 863.931 566.186 864.447 566.918C864.963 567.638 865.221 568.832 865.221 570.5C865.221 572.168 864.915 573.368 864.303 574.1C863.703 574.82 862.701 575.18 861.297 575.18C860.565 575.18 859.893 575.114 859.281 574.982V578.996H857.931ZM861.765 567.026C861.405 567.026 861.015 567.086 860.595 567.206C860.187 567.326 859.863 567.446 859.623 567.566L859.281 567.746V573.812C860.133 573.944 860.781 574.01 861.225 574.01C862.197 574.01 862.875 573.734 863.259 573.182C863.655 572.63 863.853 571.73 863.853 570.482C863.853 569.234 863.673 568.346 863.313 567.818C862.965 567.29 862.449 567.026 861.765 567.026ZM867.423 578.996V566H868.755V566.648C869.667 566.096 870.567 565.82 871.455 565.82C872.595 565.82 873.423 566.186 873.939 566.918C874.455 567.638 874.713 568.832 874.713 570.5C874.713 572.168 874.407 573.368 873.795 574.1C873.195 574.82 872.193 575.18 870.789 575.18C870.057 575.18 869.385 575.114 868.773 574.982V578.996H867.423ZM871.257 567.026C870.897 567.026 870.507 567.086 870.087 567.206C869.679 567.326 869.355 567.446 869.115 567.566L868.773 567.746V573.812C869.625 573.944 870.273 574.01 870.717 574.01C871.689 574.01 872.367 573.734 872.751 573.182C873.147 572.63 873.345 571.73 873.345 570.482C873.345 569.234 873.165 568.346 872.805 567.818C872.457 567.29 871.941 567.026 871.257 567.026ZM650.046 600.884L650.568 600.83L650.604 601.892C649.236 602.084 648.066 602.18 647.094 602.18C645.798 602.18 644.88 601.808 644.34 601.064C643.8 600.308 643.53 599.138 643.53 597.554C643.53 594.398 644.784 592.82 647.292 592.82C648.504 592.82 649.41 593.162 650.01 593.846C650.61 594.518 650.91 595.58 650.91 597.032L650.838 598.058H644.898C644.898 599.054 645.078 599.792 645.438 600.272C645.798 600.752 646.422 600.992 647.31 600.992C648.21 600.992 649.122 600.956 650.046 600.884ZM649.56 596.978C649.56 595.874 649.38 595.094 649.02 594.638C648.672 594.182 648.096 593.954 647.292 593.954C646.5 593.954 645.9 594.194 645.492 594.674C645.096 595.154 644.892 595.922 644.88 596.978H649.56ZM663.323 595.718V600.326C663.359 600.77 663.707 601.034 664.367 601.118L664.313 602.18C663.365 602.18 662.651 601.94 662.171 601.46C661.091 601.94 660.011 602.18 658.931 602.18C658.103 602.18 657.473 601.946 657.041 601.478C656.609 601.01 656.393 600.338 656.393 599.462C656.393 598.586 656.615 597.944 657.059 597.536C657.503 597.116 658.199 596.858 659.147 596.762L661.973 596.492V595.718C661.973 595.106 661.841 594.668 661.577 594.404C661.313 594.14 660.953 594.008 660.497 594.008C659.537 594.008 658.541 594.068 657.509 594.188L656.951 594.242L656.897 593.216C658.217 592.952 659.387 592.82 660.407 592.82C661.427 592.82 662.165 593.054 662.621 593.522C663.089 593.99 663.323 594.722 663.323 595.718ZM657.779 599.39C657.779 600.494 658.235 601.046 659.147 601.046C659.963 601.046 660.767 600.908 661.559 600.632L661.973 600.488V597.518L659.309 597.77C658.769 597.818 658.379 597.974 658.139 598.238C657.899 598.502 657.779 598.886 657.779 599.39ZM671.602 593H672.952V602H671.602V601.37C670.702 601.91 669.814 602.18 668.938 602.18C667.714 602.18 666.898 601.862 666.49 601.226C666.094 600.59 665.896 599.414 665.896 597.698V593H667.246V597.68C667.246 598.988 667.36 599.864 667.588 600.308C667.816 600.752 668.332 600.974 669.136 600.974C669.532 600.974 669.934 600.92 670.342 600.812C670.75 600.692 671.062 600.578 671.278 600.47L671.602 600.308V593ZM680.211 594.17H677.349V598.472C677.349 599.504 677.421 600.182 677.565 600.506C677.721 600.83 678.081 600.992 678.645 600.992L680.247 600.884L680.337 602C679.533 602.132 678.921 602.198 678.501 602.198C677.565 602.198 676.917 601.97 676.557 601.514C676.197 601.058 676.017 600.188 676.017 598.904V594.17H674.739V593H676.017V590.246H677.349V593H680.211V594.17ZM681.463 597.482C681.463 595.838 681.757 594.65 682.345 593.918C682.933 593.186 683.923 592.82 685.315 592.82C686.719 592.82 687.709 593.186 688.285 593.918C688.873 594.65 689.167 595.838 689.167 597.482C689.167 599.126 688.891 600.32 688.339 601.064C687.787 601.808 686.779 602.18 685.315 602.18C683.851 602.18 682.843 601.808 682.291 601.064C681.739 600.32 681.463 599.126 681.463 597.482ZM682.849 597.464C682.849 598.772 683.005 599.69 683.317 600.218C683.641 600.746 684.307 601.01 685.315 601.01C686.335 601.01 687.001 600.752 687.313 600.236C687.625 599.708 687.781 598.784 687.781 597.464C687.781 596.144 687.607 595.238 687.259 594.746C686.911 594.242 686.263 593.99 685.315 593.99C684.379 593.99 683.731 594.242 683.371 594.746C683.023 595.238 682.849 596.144 682.849 597.464ZM691.369 602V593H692.701V594.224C693.745 593.504 694.843 593.03 695.995 592.802V594.17C695.491 594.266 694.963 594.416 694.411 594.62C693.871 594.824 693.457 595.004 693.169 595.16L692.719 595.394V602H691.369ZM697.592 602V593H698.942V602H697.592ZM697.592 590.966V589.4H698.942V590.966H697.592ZM700.989 594.206V593H707.667V594.206L702.627 600.794H707.667V602H700.989V600.794L706.029 594.206H700.989ZM709.181 594.206V593H715.859V594.206L710.819 600.794H715.859V602H709.181V600.794L714.221 594.206H709.181ZM724.266 595.718V600.326C724.302 600.77 724.65 601.034 725.31 601.118L725.256 602.18C724.308 602.18 723.594 601.94 723.114 601.46C722.034 601.94 720.954 602.18 719.874 602.18C719.046 602.18 718.416 601.946 717.984 601.478C717.552 601.01 717.336 600.338 717.336 599.462C717.336 598.586 717.558 597.944 718.002 597.536C718.446 597.116 719.142 596.858 720.09 596.762L722.916 596.492V595.718C722.916 595.106 722.784 594.668 722.52 594.404C722.256 594.14 721.896 594.008 721.44 594.008C720.48 594.008 719.484 594.068 718.452 594.188L717.894 594.242L717.84 593.216C719.16 592.952 720.33 592.82 721.35 592.82C722.37 592.82 723.108 593.054 723.564 593.522C724.032 593.99 724.266 594.722 724.266 595.718ZM718.722 599.39C718.722 600.494 719.178 601.046 720.09 601.046C720.906 601.046 721.71 600.908 722.502 600.632L722.916 600.488V597.518L720.252 597.77C719.712 597.818 719.322 597.974 719.082 598.238C718.842 598.502 718.722 598.886 718.722 599.39ZM730.993 602V589.076H732.343V602H730.993ZM734.709 593.198L735.501 589.256H736.923L735.771 593.198H734.709ZM745.202 595.718V600.326C745.238 600.77 745.586 601.034 746.246 601.118L746.192 602.18C745.244 602.18 744.53 601.94 744.05 601.46C742.97 601.94 741.89 602.18 740.81 602.18C739.982 602.18 739.352 601.946 738.92 601.478C738.488 601.01 738.272 600.338 738.272 599.462C738.272 598.586 738.494 597.944 738.938 597.536C739.382 597.116 740.078 596.858 741.026 596.762L743.852 596.492V595.718C743.852 595.106 743.72 594.668 743.456 594.404C743.192 594.14 742.832 594.008 742.376 594.008C741.416 594.008 740.42 594.068 739.388 594.188L738.83 594.242L738.776 593.216C740.096 592.952 741.266 592.82 742.286 592.82C743.306 592.82 744.044 593.054 744.5 593.522C744.968 593.99 745.202 594.722 745.202 595.718ZM739.658 599.39C739.658 600.494 740.114 601.046 741.026 601.046C741.842 601.046 742.646 600.908 743.438 600.632L743.852 600.488V597.518L741.188 597.77C740.648 597.818 740.258 597.974 740.018 598.238C739.778 598.502 739.658 598.886 739.658 599.39ZM751.231 592.82C751.627 592.82 752.299 592.892 753.247 593.036L753.679 593.09L753.625 594.188C752.665 594.08 751.957 594.026 751.501 594.026C750.481 594.026 749.785 594.272 749.413 594.764C749.053 595.244 748.873 596.144 748.873 597.464C748.873 598.772 749.041 599.684 749.377 600.2C749.725 600.716 750.439 600.974 751.519 600.974L753.643 600.812L753.697 601.928C752.581 602.096 751.747 602.18 751.195 602.18C749.791 602.18 748.819 601.82 748.279 601.1C747.751 600.38 747.487 599.168 747.487 597.464C747.487 595.748 747.775 594.548 748.351 593.864C748.927 593.168 749.887 592.82 751.231 592.82ZM758.966 592.82C759.362 592.82 760.034 592.892 760.982 593.036L761.414 593.09L761.36 594.188C760.4 594.08 759.692 594.026 759.236 594.026C758.216 594.026 757.52 594.272 757.148 594.764C756.788 595.244 756.608 596.144 756.608 597.464C756.608 598.772 756.776 599.684 757.112 600.2C757.46 600.716 758.174 600.974 759.254 600.974L761.378 600.812L761.432 601.928C760.316 602.096 759.482 602.18 758.93 602.18C757.526 602.18 756.554 601.82 756.014 601.1C755.486 600.38 755.222 599.168 755.222 597.464C755.222 595.748 755.51 594.548 756.086 593.864C756.662 593.168 757.622 592.82 758.966 592.82ZM769.454 600.884L769.976 600.83L770.012 601.892C768.644 602.084 767.474 602.18 766.502 602.18C765.206 602.18 764.288 601.808 763.748 601.064C763.208 600.308 762.938 599.138 762.938 597.554C762.938 594.398 764.192 592.82 766.7 592.82C767.912 592.82 768.818 593.162 769.418 593.846C770.018 594.518 770.318 595.58 770.318 597.032L770.246 598.058H764.306C764.306 599.054 764.486 599.792 764.846 600.272C765.206 600.752 765.83 600.992 766.718 600.992C767.618 600.992 768.53 600.956 769.454 600.884ZM768.968 596.978C768.968 595.874 768.788 595.094 768.428 594.638C768.08 594.182 767.504 593.954 766.7 593.954C765.908 593.954 765.308 594.194 764.9 594.674C764.504 595.154 764.3 595.922 764.288 596.978H768.968ZM775.248 594.026C773.94 594.026 773.286 594.482 773.286 595.394C773.286 595.814 773.436 596.114 773.736 596.294C774.036 596.462 774.72 596.642 775.788 596.834C776.856 597.014 777.612 597.272 778.056 597.608C778.5 597.944 778.722 598.574 778.722 599.498C778.722 600.422 778.422 601.1 777.822 601.532C777.234 601.964 776.37 602.18 775.23 602.18C774.486 602.18 773.61 602.096 772.602 601.928L772.062 601.838L772.134 600.668C773.502 600.872 774.534 600.974 775.23 600.974C775.926 600.974 776.454 600.866 776.814 600.65C777.186 600.422 777.372 600.05 777.372 599.534C777.372 599.006 777.216 598.652 776.904 598.472C776.592 598.28 775.908 598.1 774.852 597.932C773.796 597.764 773.046 597.518 772.602 597.194C772.158 596.87 771.936 596.27 771.936 595.394C771.936 594.518 772.242 593.87 772.854 593.45C773.478 593.03 774.252 592.82 775.176 592.82C775.908 592.82 776.826 592.904 777.93 593.072L778.434 593.162L778.398 594.314C777.066 594.122 776.016 594.026 775.248 594.026ZM783.615 594.026C782.307 594.026 781.653 594.482 781.653 595.394C781.653 595.814 781.803 596.114 782.103 596.294C782.403 596.462 783.087 596.642 784.155 596.834C785.223 597.014 785.979 597.272 786.423 597.608C786.867 597.944 787.089 598.574 787.089 599.498C787.089 600.422 786.789 601.1 786.189 601.532C785.601 601.964 784.737 602.18 783.597 602.18C782.853 602.18 781.977 602.096 780.969 601.928L780.429 601.838L780.501 600.668C781.869 600.872 782.901 600.974 783.597 600.974C784.293 600.974 784.821 600.866 785.181 600.65C785.553 600.422 785.739 600.05 785.739 599.534C785.739 599.006 785.583 598.652 785.271 598.472C784.959 598.28 784.275 598.1 783.219 597.932C782.163 597.764 781.413 597.518 780.969 597.194C780.525 596.87 780.303 596.27 780.303 595.394C780.303 594.518 780.609 593.87 781.221 593.45C781.845 593.03 782.619 592.82 783.543 592.82C784.275 592.82 785.193 592.904 786.297 593.072L786.801 593.162L786.765 594.314C785.433 594.122 784.383 594.026 783.615 594.026ZM788.76 597.482C788.76 595.838 789.054 594.65 789.642 593.918C790.23 593.186 791.22 592.82 792.612 592.82C794.016 592.82 795.006 593.186 795.582 593.918C796.17 594.65 796.464 595.838 796.464 597.482C796.464 599.126 796.188 600.32 795.636 601.064C795.084 601.808 794.076 602.18 792.612 602.18C791.148 602.18 790.14 601.808 789.588 601.064C789.036 600.32 788.76 599.126 788.76 597.482ZM790.146 597.464C790.146 598.772 790.302 599.69 790.614 600.218C790.938 600.746 791.604 601.01 792.612 601.01C793.632 601.01 794.298 600.752 794.61 600.236C794.922 599.708 795.078 598.784 795.078 597.464C795.078 596.144 794.904 595.238 794.556 594.746C794.208 594.242 793.56 593.99 792.612 593.99C791.676 593.99 791.028 594.242 790.668 594.746C790.32 595.238 790.146 596.144 790.146 597.464Z" fill="#17324D"/>
<rect width="1440" height="62" transform="translate(0 778)" fill="#003366"/>
<mask id="path-19-inside-1_2083_8770" fill="white">
<path d="M0 778H1440V840H0V778Z"/>
</mask>
<path d="M0 778H1440V840H0V778Z" fill="#004D99"/>
<path d="M0 778V779H1440V778V777H0V778Z" fill="white" fill-opacity="0.5" mask="url(#path-19-inside-1_2083_8770)"/>
<path d="M25.106 814V804.41H27.822L30.734 812.628H30.944V804.41H32.498V814H29.838L26.856 805.768H26.66V814H25.106ZM34.8176 807.756C35.303 807.149 36.1056 806.846 37.2256 806.846C38.3456 806.846 39.1436 807.149 39.6196 807.756C40.105 808.363 40.3476 809.273 40.3476 810.486C40.3476 811.699 40.1143 812.614 39.6476 813.23C39.181 813.846 38.3736 814.154 37.2256 814.154C36.0776 814.154 35.2703 813.846 34.8036 813.23C34.337 812.614 34.1036 811.699 34.1036 810.486C34.1036 809.273 34.3416 808.363 34.8176 807.756ZM35.9656 812.306C36.1803 812.679 36.6003 812.866 37.2256 812.866C37.851 812.866 38.271 812.679 38.4856 812.306C38.7003 811.933 38.8076 811.321 38.8076 810.472C38.8076 809.623 38.691 809.021 38.4576 808.666C38.2336 808.311 37.823 808.134 37.2256 808.134C36.6283 808.134 36.213 808.311 35.9796 808.666C35.7556 809.021 35.6436 809.623 35.6436 810.472C35.6436 811.321 35.751 811.933 35.9656 812.306ZM45.6295 808.302H43.6975V811.382C43.6975 811.951 43.7395 812.329 43.8235 812.516C43.9075 812.703 44.1221 812.796 44.4675 812.796L45.6155 812.754L45.6855 813.972C45.0601 814.093 44.5841 814.154 44.2575 814.154C43.4641 814.154 42.9181 813.972 42.6195 813.608C42.3301 813.244 42.1855 812.558 42.1855 811.55V808.302H41.2895V807H42.1855V804.97H43.6975V807H45.6295V808.302ZM51.865 812.74L52.257 812.698L52.285 813.832C51.221 814.047 50.2784 814.154 49.457 814.154C48.421 814.154 47.6744 813.869 47.217 813.3C46.769 812.731 46.545 811.821 46.545 810.57C46.545 808.087 47.5577 806.846 49.583 806.846C51.543 806.846 52.523 807.915 52.523 810.052L52.425 811.144H48.085C48.0944 811.723 48.2204 812.147 48.463 812.418C48.7057 812.689 49.1584 812.824 49.821 812.824C50.4837 812.824 51.165 812.796 51.865 812.74ZM51.025 809.968C51.025 809.277 50.913 808.797 50.689 808.526C50.4744 808.246 50.1057 808.106 49.583 808.106C49.0604 808.106 48.6777 808.251 48.435 808.54C48.2017 808.829 48.0804 809.305 48.071 809.968H51.025ZM62.6246 814H57.2486V804.41H58.8026V812.614H62.6246V814ZM68.6951 812.74L69.0871 812.698L69.1151 813.832C68.0511 814.047 67.1084 814.154 66.2871 814.154C65.2511 814.154 64.5044 813.869 64.0471 813.3C63.5991 812.731 63.3751 811.821 63.3751 810.57C63.3751 808.087 64.3878 806.846 66.4131 806.846C68.3731 806.846 69.3531 807.915 69.3531 810.052L69.2551 811.144H64.9151C64.9244 811.723 65.0504 812.147 65.2931 812.418C65.5358 812.689 65.9884 812.824 66.6511 812.824C67.3138 812.824 67.9951 812.796 68.6951 812.74ZM67.8551 809.968C67.8551 809.277 67.7431 808.797 67.5191 808.526C67.3044 808.246 66.9358 808.106 66.4131 808.106C65.8904 808.106 65.5078 808.251 65.2651 808.54C65.0318 808.829 64.9104 809.305 64.9011 809.968H67.8551ZM76.9385 814.952C76.9385 816.483 75.8325 817.248 73.6205 817.248C72.5565 817.248 71.7678 817.103 71.2545 816.814C70.7412 816.525 70.4845 815.997 70.4845 815.232C70.4845 814.887 70.5685 814.588 70.7365 814.336C70.9045 814.093 71.1752 813.827 71.5485 813.538C71.2405 813.333 71.0865 812.992 71.0865 812.516C71.0865 812.329 71.2125 812.026 71.4645 811.606L71.5905 811.396C70.9185 810.995 70.5825 810.295 70.5825 809.296C70.5825 808.456 70.8345 807.84 71.3385 807.448C71.8425 807.056 72.5238 806.86 73.3825 806.86C73.7932 806.86 74.1992 806.907 74.6005 807L74.8105 807.042L76.9805 806.986V808.218L75.8185 808.148C76.0705 808.475 76.1965 808.857 76.1965 809.296C76.1965 810.211 75.9632 810.845 75.4965 811.2C75.0392 811.545 74.3205 811.718 73.3405 811.718C73.0978 811.718 72.8925 811.699 72.7245 811.662C72.5938 811.979 72.5285 812.227 72.5285 812.404C72.5285 812.572 72.6125 812.689 72.7805 812.754C72.9578 812.819 73.3778 812.857 74.0405 812.866C75.1512 812.875 75.9118 813.025 76.3225 813.314C76.7332 813.603 76.9385 814.149 76.9385 814.952ZM71.9825 815.092C71.9825 815.419 72.1132 815.652 72.3745 815.792C72.6358 815.932 73.0838 816.002 73.7185 816.002C74.8478 816.002 75.4125 815.68 75.4125 815.036C75.4125 814.672 75.3098 814.439 75.1045 814.336C74.9085 814.243 74.5118 814.191 73.9145 814.182L72.5425 814.098C72.3372 814.266 72.1925 814.42 72.1085 814.56C72.0245 814.709 71.9825 814.887 71.9825 815.092ZM72.0945 809.296C72.0945 809.725 72.1972 810.043 72.4025 810.248C72.6078 810.444 72.9392 810.542 73.3965 810.542C73.8538 810.542 74.1805 810.444 74.3765 810.248C74.5818 810.043 74.6845 809.725 74.6845 809.296C74.6845 808.867 74.5818 808.554 74.3765 808.358C74.1712 808.153 73.8398 808.05 73.3825 808.05C72.5238 808.05 72.0945 808.465 72.0945 809.296ZM83.356 809.156V812.348C83.3653 812.553 83.4166 812.707 83.51 812.81C83.6126 812.903 83.7666 812.964 83.972 812.992L83.93 814.154C83.1273 814.154 82.5066 813.981 82.068 813.636C81.3213 813.981 80.57 814.154 79.814 814.154C78.4233 814.154 77.728 813.412 77.728 811.928C77.728 811.219 77.9146 810.705 78.288 810.388C78.6706 810.071 79.254 809.879 80.038 809.814L81.844 809.66V809.156C81.844 808.783 81.76 808.521 81.592 808.372C81.4333 808.223 81.1953 808.148 80.878 808.148C80.2806 808.148 79.534 808.185 78.638 808.26L78.19 808.288L78.134 807.21C79.1513 806.967 80.0846 806.846 80.934 806.846C81.7926 806.846 82.4086 807.033 82.782 807.406C83.1646 807.77 83.356 808.353 83.356 809.156ZM80.22 810.892C79.576 810.948 79.254 811.298 79.254 811.942C79.254 812.586 79.5386 812.908 80.108 812.908C80.5746 812.908 81.0693 812.833 81.592 812.684L81.844 812.6V810.738L80.22 810.892ZM85.3557 814V804.088H86.8817V814H85.3557ZM88.8127 814V807H90.3387V814H88.8127ZM88.8127 805.81V804.2H90.3387V805.81H88.8127Z" fill="white"/>
<path d="M24 815.54H70.08V815.96H24V815.54ZM77.2872 815.54H91.2627V815.96H77.2872V815.54Z" fill="white"/>
<path d="M120.62 811.018H118.66V814H117.106V804.41H120.62C122.795 804.41 123.882 805.483 123.882 807.63C123.882 808.731 123.607 809.571 123.056 810.15C122.515 810.729 121.703 811.018 120.62 811.018ZM118.66 809.674H120.606C121.726 809.674 122.286 808.993 122.286 807.63C122.286 806.977 122.151 806.501 121.88 806.202C121.609 805.903 121.185 805.754 120.606 805.754H118.66V809.674ZM125.195 814V807H126.707V807.84C127.501 807.327 128.294 806.995 129.087 806.846V808.372C128.285 808.531 127.599 808.736 127.029 808.988L126.721 809.114V814H125.195ZM130.254 814V807H131.78V814H130.254ZM130.254 805.81V804.2H131.78V805.81H130.254ZM132.973 807H134.569L135.913 812.698H136.361L137.761 807H139.315L137.495 814H134.779L132.973 807ZM145.592 809.156V812.348C145.602 812.553 145.653 812.707 145.746 812.81C145.849 812.903 146.003 812.964 146.208 812.992L146.166 814.154C145.364 814.154 144.743 813.981 144.304 813.636C143.558 813.981 142.806 814.154 142.05 814.154C140.66 814.154 139.964 813.412 139.964 811.928C139.964 811.219 140.151 810.705 140.524 810.388C140.907 810.071 141.49 809.879 142.274 809.814L144.08 809.66V809.156C144.08 808.783 143.996 808.521 143.828 808.372C143.67 808.223 143.432 808.148 143.114 808.148C142.517 808.148 141.77 808.185 140.874 808.26L140.426 808.288L140.37 807.21C141.388 806.967 142.321 806.846 143.17 806.846C144.029 806.846 144.645 807.033 145.018 807.406C145.401 807.77 145.592 808.353 145.592 809.156ZM142.456 810.892C141.812 810.948 141.49 811.298 141.49 811.942C141.49 812.586 141.775 812.908 142.344 812.908C142.811 812.908 143.306 812.833 143.828 812.684L144.08 812.6V810.738L142.456 810.892ZM150.126 806.846C150.621 806.846 151.204 806.911 151.876 807.042L152.226 807.112L152.17 808.316C151.433 808.241 150.887 808.204 150.532 808.204C149.823 808.204 149.347 808.363 149.104 808.68C148.861 808.997 148.74 809.595 148.74 810.472C148.74 811.349 148.857 811.956 149.09 812.292C149.323 812.628 149.809 812.796 150.546 812.796L152.184 812.684L152.226 813.902C151.283 814.07 150.574 814.154 150.098 814.154C149.034 814.154 148.283 813.869 147.844 813.3C147.415 812.721 147.2 811.779 147.2 810.472C147.2 809.165 147.429 808.237 147.886 807.686C148.343 807.126 149.09 806.846 150.126 806.846ZM153.057 807H154.555L156.039 812.698H156.417L157.901 807H159.413L156.753 817.01H155.255L156.095 814H154.891L153.057 807ZM167.364 811.018H165.404V814H163.85V804.41H167.364C169.539 804.41 170.626 805.483 170.626 807.63C170.626 808.731 170.351 809.571 169.8 810.15C169.259 810.729 168.447 811.018 167.364 811.018ZM165.404 809.674H167.35C168.47 809.674 169.03 808.993 169.03 807.63C169.03 806.977 168.895 806.501 168.624 806.202C168.353 805.903 167.929 805.754 167.35 805.754H165.404V809.674ZM172.318 807.756C172.803 807.149 173.606 806.846 174.726 806.846C175.846 806.846 176.644 807.149 177.12 807.756C177.605 808.363 177.848 809.273 177.848 810.486C177.848 811.699 177.614 812.614 177.148 813.23C176.681 813.846 175.874 814.154 174.726 814.154C173.578 814.154 172.77 813.846 172.304 813.23C171.837 812.614 171.604 811.699 171.604 810.486C171.604 809.273 171.842 808.363 172.318 807.756ZM173.466 812.306C173.68 812.679 174.1 812.866 174.726 812.866C175.351 812.866 175.771 812.679 175.986 812.306C176.2 811.933 176.308 811.321 176.308 810.472C176.308 809.623 176.191 809.021 175.958 808.666C175.734 808.311 175.323 808.134 174.726 808.134C174.128 808.134 173.713 808.311 173.48 808.666C173.256 809.021 173.144 809.623 173.144 810.472C173.144 811.321 173.251 811.933 173.466 812.306ZM179.447 814V804.088H180.973V814H179.447ZM182.904 814V807H184.43V814H182.904ZM182.904 805.81V804.2H184.43V805.81H182.904ZM188.899 806.846C189.394 806.846 189.977 806.911 190.649 807.042L190.999 807.112L190.943 808.316C190.206 808.241 189.66 808.204 189.305 808.204C188.596 808.204 188.12 808.363 187.877 808.68C187.635 808.997 187.513 809.595 187.513 810.472C187.513 811.349 187.63 811.956 187.863 812.292C188.097 812.628 188.582 812.796 189.319 812.796L190.957 812.684L190.999 813.902C190.057 814.07 189.347 814.154 188.871 814.154C187.807 814.154 187.056 813.869 186.617 813.3C186.188 812.721 185.973 811.779 185.973 810.472C185.973 809.165 186.202 808.237 186.659 807.686C187.117 807.126 187.863 806.846 188.899 806.846ZM191.831 807H193.329L194.813 812.698H195.191L196.675 807H198.187L195.527 817.01H194.029L194.869 814H193.665L191.831 807Z" fill="white"/>
<path d="M116 815.54H155.127V815.96H116V815.54ZM157.561 815.54H193.9V815.96H157.561V815.54ZM196.334 815.54H198.439V815.96H196.334V815.54Z" fill="white"/>
<path d="M227.424 814H224.106V804.41H227.424C228.899 804.41 229.907 804.783 230.448 805.53C230.989 806.277 231.26 807.448 231.26 809.044C231.26 809.856 231.204 810.547 231.092 811.116C230.989 811.676 230.803 812.185 230.532 812.642C230 813.547 228.964 814 227.424 814ZM229.65 809.044C229.65 807.887 229.505 807.051 229.216 806.538C228.927 806.025 228.329 805.768 227.424 805.768H225.66V812.628H227.424C228.348 812.628 228.964 812.287 229.272 811.606C229.421 811.261 229.519 810.892 229.566 810.5C229.622 810.108 229.65 809.623 229.65 809.044ZM232.893 814V807H234.419V814H232.893ZM232.893 805.81V804.2H234.419V805.81H232.893ZM238.888 806.846C239.382 806.846 239.966 806.911 240.638 807.042L240.988 807.112L240.932 808.316C240.194 808.241 239.648 808.204 239.294 808.204C238.584 808.204 238.108 808.363 237.866 808.68C237.623 808.997 237.502 809.595 237.502 810.472C237.502 811.349 237.618 811.956 237.852 812.292C238.085 812.628 238.57 812.796 239.308 812.796L240.946 812.684L240.988 813.902C240.045 814.07 239.336 814.154 238.86 814.154C237.796 814.154 237.044 813.869 236.606 813.3C236.176 812.721 235.962 811.779 235.962 810.472C235.962 809.165 236.19 808.237 236.648 807.686C237.105 807.126 237.852 806.846 238.888 806.846ZM243.989 814H242.463V804.088H243.989V807.364C244.68 807.019 245.319 806.846 245.907 806.846C246.84 806.846 247.475 807.112 247.811 807.644C248.156 808.167 248.329 809.035 248.329 810.248V814H246.803V810.29C246.803 809.534 246.724 808.997 246.565 808.68C246.406 808.363 246.07 808.204 245.557 808.204C245.109 808.204 244.661 808.279 244.213 808.428L243.989 808.512V814ZM250.106 814V807H251.632V814H250.106ZM250.106 805.81V804.2H251.632V805.81H250.106ZM258.663 809.156V812.348C258.672 812.553 258.723 812.707 258.817 812.81C258.919 812.903 259.073 812.964 259.279 812.992L259.237 814.154C258.434 814.154 257.813 813.981 257.375 813.636C256.628 813.981 255.877 814.154 255.121 814.154C253.73 814.154 253.035 813.412 253.035 811.928C253.035 811.219 253.221 810.705 253.595 810.388C253.977 810.071 254.561 809.879 255.345 809.814L257.151 809.66V809.156C257.151 808.783 257.067 808.521 256.899 808.372C256.74 808.223 256.502 808.148 256.185 808.148C255.587 808.148 254.841 808.185 253.945 808.26L253.497 808.288L253.441 807.21C254.458 806.967 255.391 806.846 256.241 806.846C257.099 806.846 257.715 807.033 258.089 807.406C258.471 807.77 258.663 808.353 258.663 809.156ZM255.527 810.892C254.883 810.948 254.561 811.298 254.561 811.942C254.561 812.586 254.845 812.908 255.415 812.908C255.881 812.908 256.376 812.833 256.899 812.684L257.151 812.6V810.738L255.527 810.892ZM260.578 814V807H262.09V807.84C262.884 807.327 263.677 806.995 264.47 806.846V808.372C263.668 808.531 262.982 808.736 262.412 808.988L262.104 809.114V814H260.578ZM270.817 809.156V812.348C270.826 812.553 270.878 812.707 270.971 812.81C271.074 812.903 271.228 812.964 271.433 812.992L271.391 814.154C270.588 814.154 269.968 813.981 269.529 813.636C268.782 813.981 268.031 814.154 267.275 814.154C265.884 814.154 265.189 813.412 265.189 811.928C265.189 811.219 265.376 810.705 265.749 810.388C266.132 810.071 266.715 809.879 267.499 809.814L269.305 809.66V809.156C269.305 808.783 269.221 808.521 269.053 808.372C268.894 808.223 268.656 808.148 268.339 808.148C267.742 808.148 266.995 808.185 266.099 808.26L265.651 808.288L265.595 807.21C266.612 806.967 267.546 806.846 268.395 806.846C269.254 806.846 269.87 807.033 270.243 807.406C270.626 807.77 270.817 808.353 270.817 809.156ZM267.681 810.892C267.037 810.948 266.715 811.298 266.715 811.942C266.715 812.586 267 812.908 267.569 812.908C268.036 812.908 268.53 812.833 269.053 812.684L269.305 812.6V810.738L267.681 810.892ZM272.383 808.358V807H277.577V808.358L274.217 812.642H277.577V814H272.383V812.642L275.757 808.358H272.383ZM279.09 814V807H280.616V814H279.09ZM279.09 805.81V804.2H280.616V805.81H279.09ZM282.845 807.756C283.33 807.149 284.133 806.846 285.253 806.846C286.373 806.846 287.171 807.149 287.647 807.756C288.132 808.363 288.375 809.273 288.375 810.486C288.375 811.699 288.142 812.614 287.675 813.23C287.208 813.846 286.401 814.154 285.253 814.154C284.105 814.154 283.298 813.846 282.831 813.23C282.364 812.614 282.131 811.699 282.131 810.486C282.131 809.273 282.369 808.363 282.845 807.756ZM283.993 812.306C284.208 812.679 284.628 812.866 285.253 812.866C285.878 812.866 286.298 812.679 286.513 812.306C286.728 811.933 286.835 811.321 286.835 810.472C286.835 809.623 286.718 809.021 286.485 808.666C286.261 808.311 285.85 808.134 285.253 808.134C284.656 808.134 284.24 808.311 284.007 808.666C283.783 809.021 283.671 809.623 283.671 810.472C283.671 811.321 283.778 811.933 283.993 812.306ZM291.417 814H289.891V807H291.403V807.434C292.084 807.042 292.728 806.846 293.335 806.846C294.268 806.846 294.903 807.112 295.239 807.644C295.584 808.167 295.757 809.035 295.757 810.248V814H294.245V810.29C294.245 809.534 294.161 808.997 293.993 808.68C293.834 808.363 293.503 808.204 292.999 808.204C292.523 808.204 292.065 808.297 291.627 808.484L291.417 808.568V814ZM302.517 812.74L302.909 812.698L302.937 813.832C301.873 814.047 300.931 814.154 300.109 814.154C299.073 814.154 298.327 813.869 297.869 813.3C297.421 812.731 297.197 811.821 297.197 810.57C297.197 808.087 298.21 806.846 300.235 806.846C302.195 806.846 303.175 807.915 303.175 810.052L303.077 811.144H298.737C298.747 811.723 298.873 812.147 299.115 812.418C299.358 812.689 299.811 812.824 300.473 812.824C301.136 812.824 301.817 812.796 302.517 812.74ZM301.677 809.968C301.677 809.277 301.565 808.797 301.341 808.526C301.127 808.246 300.758 808.106 300.235 808.106C299.713 808.106 299.33 808.251 299.087 808.54C298.854 808.829 298.733 809.305 298.723 809.968H301.677ZM307.075 814L309.441 804.41H312.535L314.915 814H313.347L312.829 811.942H309.147L308.629 814H307.075ZM310.645 805.712L309.455 810.57H312.521L311.345 805.712H310.645ZM318.649 806.846C319.144 806.846 319.727 806.911 320.399 807.042L320.749 807.112L320.693 808.316C319.956 808.241 319.41 808.204 319.055 808.204C318.346 808.204 317.87 808.363 317.627 808.68C317.385 808.997 317.263 809.595 317.263 810.472C317.263 811.349 317.38 811.956 317.613 812.292C317.847 812.628 318.332 812.796 319.069 812.796L320.707 812.684L320.749 813.902C319.807 814.07 319.097 814.154 318.621 814.154C317.557 814.154 316.806 813.869 316.367 813.3C315.938 812.721 315.723 811.779 315.723 810.472C315.723 809.165 315.952 808.237 316.409 807.686C316.867 807.126 317.613 806.846 318.649 806.846ZM324.774 806.846C325.269 806.846 325.852 806.911 326.524 807.042L326.874 807.112L326.818 808.316C326.081 808.241 325.535 808.204 325.18 808.204C324.471 808.204 323.995 808.363 323.752 808.68C323.51 808.997 323.388 809.595 323.388 810.472C323.388 811.349 323.505 811.956 323.738 812.292C323.972 812.628 324.457 812.796 325.194 812.796L326.832 812.684L326.874 813.902C325.932 814.07 325.222 814.154 324.746 814.154C323.682 814.154 322.931 813.869 322.492 813.3C322.063 812.721 321.848 811.779 321.848 810.472C321.848 809.165 322.077 808.237 322.534 807.686C322.992 807.126 323.738 806.846 324.774 806.846ZM333.265 812.74L333.657 812.698L333.685 813.832C332.621 814.047 331.679 814.154 330.857 814.154C329.821 814.154 329.075 813.869 328.617 813.3C328.169 812.731 327.945 811.821 327.945 810.57C327.945 808.087 328.958 806.846 330.983 806.846C332.943 806.846 333.923 807.915 333.923 810.052L333.825 811.144H329.485C329.495 811.723 329.621 812.147 329.863 812.418C330.106 812.689 330.559 812.824 331.221 812.824C331.884 812.824 332.565 812.796 333.265 812.74ZM332.425 809.968C332.425 809.277 332.313 808.797 332.089 808.526C331.875 808.246 331.506 808.106 330.983 808.106C330.461 808.106 330.078 808.251 329.835 808.54C329.602 808.829 329.481 809.305 329.471 809.968H332.425ZM340.249 808.442C339.147 808.293 338.349 808.218 337.855 808.218C337.36 808.218 337.015 808.279 336.819 808.4C336.632 808.512 336.539 808.694 336.539 808.946C336.539 809.198 336.641 809.375 336.847 809.478C337.061 809.581 337.556 809.702 338.331 809.842C339.115 809.973 339.67 810.183 339.997 810.472C340.323 810.761 340.487 811.275 340.487 812.012C340.487 812.749 340.249 813.291 339.773 813.636C339.306 813.981 338.62 814.154 337.715 814.154C337.145 814.154 336.427 814.075 335.559 813.916L335.125 813.846L335.181 812.572C336.301 812.721 337.108 812.796 337.603 812.796C338.097 812.796 338.447 812.735 338.653 812.614C338.867 812.493 338.975 812.292 338.975 812.012C338.975 811.732 338.872 811.541 338.667 811.438C338.471 811.326 337.99 811.209 337.225 811.088C336.469 810.957 335.913 810.757 335.559 810.486C335.204 810.215 335.027 809.721 335.027 809.002C335.027 808.283 335.269 807.747 335.755 807.392C336.249 807.037 336.879 806.86 337.645 806.86C338.242 806.86 338.975 806.935 339.843 807.084L340.277 807.168L340.249 808.442ZM346.811 808.442C345.71 808.293 344.912 808.218 344.417 808.218C343.923 808.218 343.577 808.279 343.381 808.4C343.195 808.512 343.101 808.694 343.101 808.946C343.101 809.198 343.204 809.375 343.409 809.478C343.624 809.581 344.119 809.702 344.893 809.842C345.677 809.973 346.233 810.183 346.559 810.472C346.886 810.761 347.049 811.275 347.049 812.012C347.049 812.749 346.811 813.291 346.335 813.636C345.869 813.981 345.183 814.154 344.277 814.154C343.708 814.154 342.989 814.075 342.121 813.916L341.687 813.846L341.743 812.572C342.863 812.721 343.671 812.796 344.165 812.796C344.66 812.796 345.01 812.735 345.215 812.614C345.43 812.493 345.537 812.292 345.537 812.012C345.537 811.732 345.435 811.541 345.229 811.438C345.033 811.326 344.553 811.209 343.787 811.088C343.031 810.957 342.476 810.757 342.121 810.486C341.767 810.215 341.589 809.721 341.589 809.002C341.589 808.283 341.832 807.747 342.317 807.392C342.812 807.037 343.442 806.86 344.207 806.86C344.805 806.86 345.537 806.935 346.405 807.084L346.839 807.168L346.811 808.442ZM348.516 814V807H350.042V814H348.516ZM348.516 805.81V804.2H350.042V805.81H348.516ZM355.155 806.846C356.116 806.846 356.807 807.117 357.227 807.658C357.656 808.19 357.871 809.137 357.871 810.5C357.871 811.863 357.619 812.815 357.115 813.356C356.611 813.888 355.724 814.154 354.455 814.154C354.016 814.154 353.321 814.112 352.369 814.028L351.893 813.986V804.088H353.405V807.266C354.049 806.986 354.632 806.846 355.155 806.846ZM354.455 812.796C355.201 812.796 355.696 812.623 355.939 812.278C356.191 811.923 356.317 811.326 356.317 810.486C356.317 809.646 356.209 809.058 355.995 808.722C355.789 808.377 355.449 808.204 354.973 808.204C354.525 808.204 354.077 808.274 353.629 808.414L353.405 808.484V812.74C353.918 812.777 354.268 812.796 354.455 812.796ZM359.399 814V807H360.925V814H359.399ZM359.399 805.81V804.2H360.925V805.81H359.399ZM362.86 814V804.088H364.386V814H362.86ZM366.317 814V807H367.843V814H366.317ZM366.317 805.81V804.2H367.843V805.81H366.317ZM373.46 808.302H371.528V811.382C371.528 811.951 371.57 812.329 371.654 812.516C371.738 812.703 371.952 812.796 372.298 812.796L373.446 812.754L373.516 813.972C372.89 814.093 372.414 814.154 372.088 814.154C371.294 814.154 370.748 813.972 370.45 813.608C370.16 813.244 370.016 812.558 370.016 811.55V808.302H369.12V807H370.016V804.97H371.528V807H373.46V808.302ZM379.891 809.156V812.348C379.9 812.553 379.952 812.707 380.045 812.81C380.148 812.903 380.302 812.964 380.507 812.992L380.465 814.154C379.662 814.154 379.042 813.981 378.603 813.636C377.856 813.981 377.105 814.154 376.349 814.154C374.958 814.154 374.263 813.412 374.263 811.928C374.263 811.219 374.45 810.705 374.823 810.388C375.206 810.071 375.789 809.879 376.573 809.814L378.379 809.66V809.156C378.379 808.783 378.295 808.521 378.127 808.372C377.968 808.223 377.73 808.148 377.413 808.148C376.816 808.148 376.069 808.185 375.173 808.26L374.725 808.288L374.669 807.21C375.686 806.967 376.62 806.846 377.469 806.846C378.328 806.846 378.944 807.033 379.317 807.406C379.7 807.77 379.891 808.353 379.891 809.156ZM376.755 810.892C376.111 810.948 375.789 811.298 375.789 811.942C375.789 812.586 376.074 812.908 376.643 812.908C377.11 812.908 377.604 812.833 378.127 812.684L378.379 812.6V810.738L376.755 810.892ZM375.817 803.528L379.121 804.942L378.757 805.936L375.341 804.844L375.817 803.528Z" fill="white"/>
<path d="M223 815.54H380.885V815.96H223V815.54Z" fill="white"/>
</g>
<defs>
<clipPath id="clip0_2083_8770">
<rect width="1440" height="840" fill="white"/>
</clipPath>
<clipPath id="clip1_2083_8770">
<rect width="47" height="24" fill="white" transform="translate(1321 14)"/>
</clipPath>
</defs>
</svg>
