<svg width="360" height="733" viewBox="0 0 360 733" fill="none" xmlns="http://www.w3.org/2000/svg">
<g clip-path="url(#clip0_4177_47339)">
<rect width="360" height="733" fill="white"/>
<rect width="360" height="48" fill="#004D99"/>
<path d="M14.772 26.97C15.0893 27.5207 15.696 27.796 16.592 27.796C17.488 27.796 18.09 27.5253 18.398 26.984C18.7153 26.4427 18.874 25.5373 18.874 24.268C18.874 22.9893 18.7107 22.0607 18.384 21.482C18.0667 20.9033 17.4693 20.614 16.592 20.614C15.7147 20.614 15.1127 20.9033 14.786 21.482C14.4593 22.0607 14.296 22.9847 14.296 24.254C14.296 25.514 14.4547 26.4193 14.772 26.97ZM19.616 27.978C19.0467 28.762 18.0387 29.154 16.592 29.154C15.1453 29.154 14.1327 28.762 13.554 27.978C12.9753 27.1847 12.686 25.9433 12.686 24.254C12.686 22.5647 12.9753 21.3093 13.554 20.488C14.142 19.6667 15.1547 19.256 16.592 19.256C18.0293 19.256 19.0373 19.6667 19.616 20.488C20.1947 21.3 20.484 22.5553 20.484 24.254C20.484 25.9527 20.1947 27.194 19.616 27.978ZM22.1115 29V22H23.6235V22.84C24.4168 22.3267 25.2102 21.9953 26.0035 21.846V23.372C25.2008 23.5307 24.5148 23.736 23.9455 23.988L23.6375 24.114V29H22.1115ZM33.2471 29.952C33.2471 31.4827 32.1411 32.248 29.9291 32.248C28.8651 32.248 28.0764 32.1033 27.5631 31.814C27.0497 31.5247 26.7931 30.9973 26.7931 30.232C26.7931 29.8867 26.8771 29.588 27.0451 29.336C27.2131 29.0933 27.4837 28.8273 27.8571 28.538C27.5491 28.3327 27.3951 27.992 27.3951 27.516C27.3951 27.3293 27.5211 27.026 27.7731 26.606L27.8991 26.396C27.2271 25.9947 26.8911 25.2947 26.8911 24.296C26.8911 23.456 27.1431 22.84 27.6471 22.448C28.1511 22.056 28.8324 21.86 29.6911 21.86C30.1017 21.86 30.5077 21.9067 30.9091 22L31.1191 22.042L33.2891 21.986V23.218L32.1271 23.148C32.3791 23.4747 32.5051 23.8573 32.5051 24.296C32.5051 25.2107 32.2717 25.8453 31.8051 26.2C31.3477 26.5453 30.6291 26.718 29.6491 26.718C29.4064 26.718 29.2011 26.6993 29.0331 26.662C28.9024 26.9793 28.8371 27.2267 28.8371 27.404C28.8371 27.572 28.9211 27.6887 29.0891 27.754C29.2664 27.8193 29.6864 27.8567 30.3491 27.866C31.4597 27.8753 32.2204 28.0247 32.6311 28.314C33.0417 28.6033 33.2471 29.1493 33.2471 29.952ZM28.2911 30.092C28.2911 30.4187 28.4217 30.652 28.6831 30.792C28.9444 30.932 29.3924 31.002 30.0271 31.002C31.1564 31.002 31.7211 30.68 31.7211 30.036C31.7211 29.672 31.6184 29.4387 31.4131 29.336C31.2171 29.2427 30.8204 29.1913 30.2231 29.182L28.8511 29.098C28.6457 29.266 28.5011 29.42 28.4171 29.56C28.3331 29.7093 28.2911 29.8867 28.2911 30.092ZM28.4031 24.296C28.4031 24.7253 28.5057 25.0427 28.7111 25.248C28.9164 25.444 29.2477 25.542 29.7051 25.542C30.1624 25.542 30.4891 25.444 30.6851 25.248C30.8904 25.0427 30.9931 24.7253 30.9931 24.296C30.9931 23.8667 30.8904 23.554 30.6851 23.358C30.4797 23.1527 30.1484 23.05 29.6911 23.05C28.8324 23.05 28.4031 23.4653 28.4031 24.296ZM39.6645 24.156V27.348C39.6739 27.5533 39.7252 27.7073 39.8185 27.81C39.9212 27.9033 40.0752 27.964 40.2805 27.992L40.2385 29.154C39.4359 29.154 38.8152 28.9813 38.3765 28.636C37.6299 28.9813 36.8785 29.154 36.1225 29.154C34.7319 29.154 34.0365 28.412 34.0365 26.928C34.0365 26.2187 34.2232 25.7053 34.5965 25.388C34.9792 25.0707 35.5625 24.8793 36.3465 24.814L38.1525 24.66V24.156C38.1525 23.7827 38.0685 23.5213 37.9005 23.372C37.7419 23.2227 37.5039 23.148 37.1865 23.148C36.5892 23.148 35.8425 23.1853 34.9465 23.26L34.4985 23.288L34.4425 22.21C35.4599 21.9673 36.3932 21.846 37.2425 21.846C38.1012 21.846 38.7172 22.0327 39.0905 22.406C39.4732 22.77 39.6645 23.3533 39.6645 24.156ZM36.5285 25.892C35.8845 25.948 35.5625 26.298 35.5625 26.942C35.5625 27.586 35.8472 27.908 36.4165 27.908C36.8832 27.908 37.3779 27.8333 37.9005 27.684L38.1525 27.6V25.738L36.5285 25.892ZM43.1063 29H41.5802V22H43.0923V22.434C43.7736 22.042 44.4176 21.846 45.0243 21.846C45.9576 21.846 46.5923 22.112 46.9283 22.644C47.2736 23.1667 47.4463 24.0347 47.4463 25.248V29H45.9343V25.29C45.9343 24.534 45.8503 23.9973 45.6823 23.68C45.5236 23.3627 45.1923 23.204 44.6883 23.204C44.2123 23.204 43.7549 23.2973 43.3163 23.484L43.1063 23.568V29ZM49.2228 29V22H50.7488V29H49.2228ZM49.2228 20.81V19.2H50.7488V20.81H49.2228ZM52.2498 23.358V22H57.4438V23.358L54.0838 27.642H57.4438V29H52.2498V27.642L55.6238 23.358H52.2498ZM64.1372 24.156V27.348C64.1465 27.5533 64.1979 27.7073 64.2912 27.81C64.3939 27.9033 64.5479 27.964 64.7532 27.992L64.7112 29.154C63.9085 29.154 63.2879 28.9813 62.8492 28.636C62.1025 28.9813 61.3512 29.154 60.5952 29.154C59.2045 29.154 58.5092 28.412 58.5092 26.928C58.5092 26.2187 58.6959 25.7053 59.0692 25.388C59.4519 25.0707 60.0352 24.8793 60.8192 24.814L62.6252 24.66V24.156C62.6252 23.7827 62.5412 23.5213 62.3732 23.372C62.2145 23.2227 61.9765 23.148 61.6592 23.148C61.0619 23.148 60.3152 23.1853 59.4192 23.26L58.9712 23.288L58.9152 22.21C59.9325 21.9673 60.8659 21.846 61.7152 21.846C62.5739 21.846 63.1899 22.0327 63.5632 22.406C63.9459 22.77 64.1372 23.3533 64.1372 24.156ZM61.0012 25.892C60.3572 25.948 60.0352 26.298 60.0352 26.942C60.0352 27.586 60.3199 27.908 60.8892 27.908C61.3559 27.908 61.8505 27.8333 62.3732 27.684L62.6252 27.6V25.738L61.0012 25.892ZM69.8189 23.302H67.8869V26.382C67.8869 26.9513 67.9289 27.3293 68.0129 27.516C68.0969 27.7027 68.3116 27.796 68.6569 27.796L69.8049 27.754L69.8749 28.972C69.2496 29.0933 68.7736 29.154 68.4469 29.154C67.6536 29.154 67.1076 28.972 66.8089 28.608C66.5196 28.244 66.3749 27.558 66.3749 26.55V23.302H65.4789V22H66.3749V19.97H67.8869V22H69.8189V23.302ZM71.0705 29V22H72.5965V29H71.0705ZM71.0705 20.81V19.2H72.5965V20.81H71.0705ZM74.8254 22.756C75.3108 22.1493 76.1134 21.846 77.2334 21.846C78.3534 21.846 79.1514 22.1493 79.6274 22.756C80.1128 23.3627 80.3554 24.2727 80.3554 25.486C80.3554 26.6993 80.1221 27.614 79.6554 28.23C79.1888 28.846 78.3814 29.154 77.2334 29.154C76.0854 29.154 75.2781 28.846 74.8114 28.23C74.3448 27.614 74.1114 26.6993 74.1114 25.486C74.1114 24.2727 74.3494 23.3627 74.8254 22.756ZM75.9734 27.306C76.1881 27.6793 76.6081 27.866 77.2334 27.866C77.8588 27.866 78.2788 27.6793 78.4934 27.306C78.7081 26.9327 78.8154 26.3213 78.8154 25.472C78.8154 24.6227 78.6988 24.0207 78.4654 23.666C78.2414 23.3113 77.8308 23.134 77.2334 23.134C76.6361 23.134 76.2208 23.3113 75.9874 23.666C75.7634 24.0207 75.6514 24.6227 75.6514 25.472C75.6514 26.3213 75.7588 26.9327 75.9734 27.306ZM83.3973 29H81.8713V22H83.3833V22.434C84.0646 22.042 84.7086 21.846 85.3153 21.846C86.2486 21.846 86.8833 22.112 87.2193 22.644C87.5646 23.1667 87.7373 24.0347 87.7373 25.248V29H86.2253V25.29C86.2253 24.534 86.1413 23.9973 85.9733 23.68C85.8146 23.3627 85.4833 23.204 84.9793 23.204C84.5033 23.204 84.0459 23.2973 83.6073 23.484L83.3973 23.568V29ZM94.116 29H92.59V22H94.102V22.434C94.7833 22.042 95.4273 21.846 96.034 21.846C96.9673 21.846 97.602 22.112 97.938 22.644C98.2833 23.1667 98.456 24.0347 98.456 25.248V29H96.944V25.29C96.944 24.534 96.86 23.9973 96.692 23.68C96.5333 23.3627 96.202 23.204 95.698 23.204C95.222 23.204 94.7647 23.2973 94.326 23.484L94.116 23.568V29ZM105.413 24.156V27.348C105.422 27.5533 105.473 27.7073 105.567 27.81C105.669 27.9033 105.823 27.964 106.029 27.992L105.987 29.154C105.184 29.154 104.563 28.9813 104.125 28.636C103.378 28.9813 102.627 29.154 101.871 29.154C100.48 29.154 99.7846 28.412 99.7846 26.928C99.7846 26.2187 99.9713 25.7053 100.345 25.388C100.727 25.0707 101.311 24.8793 102.095 24.814L103.901 24.66V24.156C103.901 23.7827 103.817 23.5213 103.649 23.372C103.49 23.2227 103.252 23.148 102.935 23.148C102.337 23.148 101.591 23.1853 100.695 23.26L100.247 23.288L100.191 22.21C101.208 21.9673 102.141 21.846 102.991 21.846C103.849 21.846 104.465 22.0327 104.839 22.406C105.221 22.77 105.413 23.3533 105.413 24.156ZM102.277 25.892C101.633 25.948 101.311 26.298 101.311 26.942C101.311 27.586 101.595 27.908 102.165 27.908C102.631 27.908 103.126 27.8333 103.649 27.684L103.901 27.6V25.738L102.277 25.892ZM108.854 29H107.328V22H108.84V22.434C109.503 22.042 110.11 21.846 110.66 21.846C111.472 21.846 112.065 22.0747 112.438 22.532C113.288 22.0747 114.132 21.846 114.972 21.846C115.812 21.846 116.405 22.1073 116.75 22.63C117.096 23.1433 117.268 24.016 117.268 25.248V29H115.756V25.29C115.756 24.534 115.677 23.9973 115.518 23.68C115.369 23.3627 115.052 23.204 114.566 23.204C114.146 23.204 113.694 23.2973 113.208 23.484L112.97 23.582C113.045 23.7687 113.082 24.366 113.082 25.374V29H111.57V25.402C111.57 24.5713 111.496 23.9973 111.346 23.68C111.197 23.3627 110.87 23.204 110.366 23.204C109.9 23.204 109.466 23.2973 109.064 23.484L108.854 23.568V29ZM124.043 27.74L124.435 27.698L124.463 28.832C123.399 29.0467 122.456 29.154 121.635 29.154C120.599 29.154 119.852 28.8693 119.395 28.3C118.947 27.7307 118.723 26.8207 118.723 25.57C118.723 23.0873 119.735 21.846 121.761 21.846C123.721 21.846 124.701 22.9147 124.701 25.052L124.603 26.144H120.263C120.272 26.7227 120.398 27.1473 120.641 27.418C120.883 27.6887 121.336 27.824 121.999 27.824C122.661 27.824 123.343 27.796 124.043 27.74ZM123.203 24.968C123.203 24.2773 123.091 23.7967 122.867 23.526C122.652 23.246 122.283 23.106 121.761 23.106C121.238 23.106 120.855 23.2507 120.613 23.54C120.379 23.8293 120.258 24.3053 120.249 24.968H123.203Z" fill="white"/>
<g clip-path="url(#clip1_4177_47339)">
<path d="M302.106 29V19.41H308.154V20.768H303.66V23.484H307.314V24.828H303.66V27.628H308.154V29H302.106ZM309.844 29V19.41H312.56L315.472 27.628H315.682V19.41H317.236V29H314.576L311.594 20.768H311.398V29H309.844ZM323.348 25.332V23.96H326.078V28.832C325.826 28.8973 325.313 28.9673 324.538 29.042C323.773 29.1167 323.217 29.154 322.872 29.154C321.416 29.154 320.413 28.7527 319.862 27.95C319.311 27.1473 319.036 25.892 319.036 24.184C319.036 22.4667 319.316 21.216 319.876 20.432C320.445 19.648 321.425 19.256 322.816 19.256C323.637 19.256 324.561 19.3493 325.588 19.536L326.078 19.634L326.022 20.866C324.893 20.7167 323.88 20.642 322.984 20.642C322.088 20.642 321.472 20.894 321.136 21.398C320.809 21.902 320.646 22.8353 320.646 24.198C320.646 25.5607 320.8 26.5033 321.108 27.026C321.425 27.5393 322.06 27.796 323.012 27.796C323.693 27.796 324.202 27.754 324.538 27.67V25.332H323.348Z" fill="white"/>
<path d="M343 27.2L337.4 21.6L338.1 20.8L343 25.7L347.9 20.8L348.6 21.6L343 27.2Z" fill="white"/>
</g>
<rect width="360" height="72" transform="translate(0 48)" fill="#F2F7FC"/>
<rect x="12.5" y="69" width="106" height="30" fill="#F2F7FC"/>
<rect x="12.5" y="69" width="106" height="30" stroke="#C5C7C9"/>
<line x1="13.1967" y1="69.3958" x2="117.899" y2="99.0189" stroke="#C5C7C9"/>
<path d="M27.5987 92.4399H25.8067V87.9279L22.3667 81.4799H24.3667L26.6867 86.1839L29.0227 81.4799H31.0067L27.5987 87.9279V92.4399ZM33.7832 90.1199C34.1459 90.7493 34.8392 91.0639 35.8632 91.0639C36.8872 91.0639 37.5752 90.7546 37.9272 90.1359C38.2899 89.5173 38.4712 88.4826 38.4712 87.0319C38.4712 85.5706 38.2846 84.5093 37.9112 83.8479C37.5486 83.1866 36.8659 82.8559 35.8632 82.8559C34.8606 82.8559 34.1726 83.1866 33.7992 83.8479C33.4259 84.5093 33.2392 85.5653 33.2392 87.0159C33.2392 88.4559 33.4206 89.4906 33.7832 90.1199ZM39.3192 91.2719C38.6686 92.1679 37.5166 92.6159 35.8632 92.6159C34.2099 92.6159 33.0526 92.1679 32.3912 91.2719C31.7299 90.3653 31.3992 88.9466 31.3992 87.0159C31.3992 85.0853 31.7299 83.6506 32.3912 82.7119C33.0632 81.7733 34.2206 81.3039 35.8632 81.3039C37.5059 81.3039 38.6579 81.7733 39.3192 82.7119C39.9806 83.6399 40.3112 85.0746 40.3112 87.0159C40.3112 88.9573 39.9806 90.3759 39.3192 91.2719ZM44.0752 88.9359C44.0752 90.3546 44.8219 91.0639 46.3152 91.0639C47.8086 91.0639 48.5552 90.3546 48.5552 88.9359V81.4799H50.3472V88.9039C50.3472 90.1946 50.0059 91.1386 49.3232 91.7359C48.6512 92.3226 47.6432 92.6159 46.2992 92.6159C44.9659 92.6159 43.9632 92.3226 43.2912 91.7359C42.6192 91.1386 42.2832 90.1946 42.2832 88.9039V81.4799H44.0752V88.9359ZM54.5615 88.5359V92.4399H52.7855V81.4799H56.9455C59.4202 81.4799 60.6575 82.6426 60.6575 84.9679C60.6575 86.5253 60.0602 87.5813 58.8655 88.1359L60.6735 92.4399H58.7215L57.1375 88.5359H54.5615ZM58.8335 84.9839C58.8335 83.6719 58.2042 83.0159 56.9455 83.0159H54.5615V86.9999H56.9775C57.6175 86.9999 58.0868 86.8186 58.3855 86.4559C58.6842 86.0826 58.8335 85.5919 58.8335 84.9839ZM72.3357 92.4399H66.1917V81.4799H67.9677V90.8559H72.3357V92.4399ZM75.502 90.1199C75.8647 90.7493 76.558 91.0639 77.582 91.0639C78.606 91.0639 79.294 90.7546 79.646 90.1359C80.0087 89.5173 80.19 88.4826 80.19 87.0319C80.19 85.5706 80.0033 84.5093 79.63 83.8479C79.2673 83.1866 78.5847 82.8559 77.582 82.8559C76.5793 82.8559 75.8913 83.1866 75.518 83.8479C75.1447 84.5093 74.958 85.5653 74.958 87.0159C74.958 88.4559 75.1393 89.4906 75.502 90.1199ZM81.038 91.2719C80.3873 92.1679 79.2353 92.6159 77.582 92.6159C75.9287 92.6159 74.7713 92.1679 74.11 91.2719C73.4487 90.3653 73.118 88.9466 73.118 87.0159C73.118 85.0853 73.4487 83.6506 74.11 82.7119C74.782 81.7733 75.9393 81.3039 77.582 81.3039C79.2247 81.3039 80.3767 81.7733 81.038 82.7119C81.6993 83.6399 82.03 85.0746 82.03 87.0159C82.03 88.9573 81.6993 90.3759 81.038 91.2719ZM88.562 88.2479V86.6799H91.682V92.2479C91.394 92.3226 90.8073 92.4026 89.922 92.4879C89.0473 92.5733 88.4127 92.6159 88.018 92.6159C86.354 92.6159 85.2073 92.1573 84.578 91.2399C83.9487 90.3226 83.634 88.8879 83.634 86.9359C83.634 84.9733 83.954 83.5439 84.594 82.6479C85.2447 81.7519 86.3647 81.3039 87.954 81.3039C88.8927 81.3039 89.9487 81.4106 91.122 81.6239L91.682 81.7359L91.618 83.1439C90.3273 82.9733 89.17 82.8879 88.146 82.8879C87.122 82.8879 86.418 83.1759 86.034 83.7519C85.6607 84.3279 85.474 85.3946 85.474 86.9519C85.474 88.5093 85.65 89.5866 86.002 90.1839C86.3647 90.7706 87.09 91.0639 88.178 91.0639C88.9567 91.0639 89.538 91.0159 89.922 90.9199V88.2479H88.562ZM95.8145 90.1199C96.1772 90.7493 96.8705 91.0639 97.8945 91.0639C98.9185 91.0639 99.6065 90.7546 99.9585 90.1359C100.321 89.5173 100.502 88.4826 100.502 87.0319C100.502 85.5706 100.316 84.5093 99.9425 83.8479C99.5798 83.1866 98.8972 82.8559 97.8945 82.8559C96.8918 82.8559 96.2038 83.1866 95.8305 83.8479C95.4572 84.5093 95.2705 85.5653 95.2705 87.0159C95.2705 88.4559 95.4518 89.4906 95.8145 90.1199ZM101.35 91.2719C100.7 92.1679 99.5478 92.6159 97.8945 92.6159C96.2412 92.6159 95.0838 92.1679 94.4225 91.2719C93.7612 90.3653 93.4305 88.9466 93.4305 87.0159C93.4305 85.0853 93.7612 83.6506 94.4225 82.7119C95.0945 81.7733 96.2518 81.3039 97.8945 81.3039C99.5372 81.3039 100.689 81.7733 101.35 82.7119C102.012 83.6399 102.342 85.0746 102.342 87.0159C102.342 88.9573 102.012 90.3759 101.35 91.2719Z" fill="black"/>
<path d="M131 68.5V99.5" stroke="#C5C7C9" stroke-linejoin="round"/>
<path d="M152.021 72.0003C152.171 71.9993 152.325 72.0361 152.471 72.1184L162.059 77.4964C162.752 77.8854 163.076 78.5133 163.076 79.2337L163.07 94.4163C163.07 94.9452 162.638 95.3255 162.164 95.3294C162.014 95.3303 161.859 95.2934 161.713 95.2112L155.695 91.8352V82.2415C155.695 81.5213 155.372 80.8904 154.678 80.5042L151.461 78.7141V95.0872C151.461 95.6163 151.028 95.9966 150.554 96.0003C150.404 96.0011 150.249 95.9644 150.103 95.8821L144.018 92.4602C143.324 92.0712 143 91.4431 143 90.7229L143.015 74.7551C143.016 74.2262 143.447 73.8467 143.921 73.843C144.071 73.8421 144.226 73.8788 144.372 73.9612L151.141 77.7571L151.114 72.9124C151.112 72.3835 151.546 72.004 152.021 72.0003ZM221.471 79.8733C224.828 79.8733 226.77 81.5634 226.771 84.4368V88.1487C226.771 88.6234 226.978 88.8537 227.326 88.8538H227.774L227.773 88.8557C227.943 88.8559 228.07 88.9864 228.07 89.1565V91.5432C228.07 91.7135 227.95 91.8421 227.779 91.8421H225.66C224.736 91.842 223.977 91.5082 223.534 90.9837C222.532 91.7652 221.258 92.1604 219.898 92.1604C217.338 92.1604 215.822 90.7583 215.822 88.3508C215.822 86.0742 217.178 84.9175 220.167 84.7161L223.014 84.5237V84.0549C223.013 83.083 222.339 82.5442 221.226 82.5442C220.451 82.5443 219.945 82.8067 219.707 83.2561C219.603 83.452 219.502 83.5198 219.323 83.5198H216.145C215.965 83.5198 215.846 83.4159 215.844 83.2639C215.842 83.1688 215.887 83.0254 215.967 82.8372C216.727 81.043 218.704 79.8734 221.471 79.8733ZM247.068 79.8733C250.632 79.8733 252.772 82.045 252.772 85.4622V86.5911C252.772 86.7612 252.645 86.8907 252.475 86.8909H244.856C244.955 88.2988 245.579 89.4456 247.189 89.4456C247.946 89.4456 248.55 89.1916 248.859 88.7083C248.977 88.5246 249.085 88.4701 249.188 88.47H252.239C252.481 88.4701 252.562 88.6168 252.563 88.7786C252.564 88.871 252.538 88.9693 252.476 89.1311C251.744 91.0361 249.944 92.1604 247.265 92.1604C243.46 92.1604 241.22 89.8593 241.22 86.009C241.22 82.1591 243.415 79.8738 247.068 79.8733ZM215.734 75.8401V75.8411C215.926 75.8412 216.081 76.0207 216.048 76.2092L213.351 91.5901C213.325 91.7382 213.197 91.8428 213.047 91.843H208.459C208.314 91.843 208.193 91.7437 208.162 91.6018L205.711 80.3587H205.489L203.039 91.6018C203.008 91.7437 202.884 91.843 202.739 91.843H198.151C198.002 91.843 197.876 91.7375 197.851 91.5901L195.152 76.2092C195.119 76.0207 195.274 75.8411 195.465 75.8411H198.494C198.645 75.8413 198.774 75.9566 198.799 76.1048L200.616 86.9798H200.815L203.139 76.0921C203.17 75.9492 203.302 75.8411 203.447 75.8411H207.903C208.05 75.8411 208.169 75.9492 208.199 76.0921L210.477 87.0012H210.674L212.517 76.1057C212.541 75.9567 212.662 75.8403 212.812 75.8401H215.734ZM174.738 75.8391C174.908 75.8392 175.036 75.9648 175.036 76.135V91.5432C175.036 91.7135 174.908 91.842 174.737 91.8421H171.347C171.176 91.8421 171.047 91.7135 171.047 91.5432L171.041 76.136C171.041 75.9657 171.176 75.8401 171.347 75.8401H174.738V75.8391ZM188.804 75.8391C188.975 75.8391 189.103 75.9902 189.104 76.1604V78.8049H189.103C189.103 78.9761 188.974 79.1253 188.804 79.1253H184.58V91.5423C184.58 91.7125 184.43 91.841 184.26 91.8411H180.91C180.74 91.8411 180.591 91.7104 180.591 91.5403V79.1253H176.365C176.195 79.1253 176.067 78.9742 176.067 78.804V76.1585C176.068 75.9883 176.197 75.8391 176.367 75.8391H188.804ZM232.475 75.8401C232.646 75.8401 232.774 75.9687 232.774 76.1389V88.0882C232.775 88.5638 233.047 88.8536 233.522 88.8538H234.246C234.416 88.8538 234.565 88.9804 234.565 89.1507V91.5442C234.565 91.7145 234.431 91.8411 234.261 91.8411H232.606C230.112 91.842 228.912 90.7375 228.912 88.47V76.1389C228.912 75.9688 229.04 75.8402 229.21 75.8401H232.475ZM238.877 75.8401C239.047 75.8401 239.185 75.9687 239.185 76.1389V88.0882C239.185 88.564 239.449 88.8538 239.925 88.8538H240.648C240.819 88.8538 240.977 88.9884 240.978 89.1585V91.5442C240.978 91.7145 240.833 91.8411 240.663 91.8411H239.009C236.514 91.8419 235.314 90.7374 235.314 88.47V76.1389C235.314 75.9687 235.443 75.8401 235.613 75.8401H238.877ZM258.156 77.013C258.327 77.013 258.456 77.1415 258.456 77.3118V80.1926H260.418C260.589 80.1926 260.738 80.3203 260.738 80.4905V82.8801C260.738 83.0512 260.609 83.178 260.438 83.178H258.456V88.0872C258.456 88.563 258.726 88.8528 259.202 88.8528H260.44C260.611 88.8529 260.738 89.003 260.738 89.1731V91.5413C260.738 91.7115 260.61 91.8401 260.439 91.8401H258.756C255.995 91.8401 254.615 90.4806 254.615 87.7874V83.178H253.25C253.079 83.178 252.951 83.0493 252.951 82.8792V80.4905C252.951 80.3203 253.1 80.1917 253.271 80.1917H254.614V77.3167C254.614 77.1465 254.761 77.013 254.932 77.013H258.156ZM220.983 87.0237C219.886 87.1061 219.489 87.4999 219.489 88.1926C219.489 88.9698 219.987 89.4455 221.005 89.4456C221.633 89.4456 222.315 89.2658 223.016 88.8118H223.017V86.8714L220.983 87.0237ZM194.137 83.8196H194.138C194.308 83.8196 194.437 83.9482 194.438 84.1184V86.636C194.437 86.8061 194.307 86.9346 194.137 86.9348H188C187.829 86.9348 187.695 86.8072 187.694 86.637V84.1155C187.694 83.9444 187.822 83.8176 187.992 83.8176L194.137 83.8196ZM247.067 82.3167C245.751 82.3168 244.879 83.1255 244.871 84.4446H249.182C249.201 83.1154 248.384 82.3167 247.067 82.3167Z" fill="#0066CC"/>
<path d="M19.7631 204.5L24.0471 185.46H31.3831L35.6671 204.5H31.8031L31.0471 201.056H24.3831L23.6271 204.5H19.7631ZM27.0431 188.652L25.1111 197.696H30.3191L28.3871 188.652H27.0431ZM46.1269 190.5H49.8789V204.5H46.1549V203.716C44.8109 204.463 43.6442 204.836 42.6549 204.836C40.7135 204.836 39.4069 204.304 38.7349 203.24C38.0629 202.157 37.7269 200.356 37.7269 197.836V190.5H41.4789V197.892C41.4789 199.273 41.5909 200.216 41.8149 200.72C42.0389 201.224 42.5802 201.476 43.4389 201.476C44.2602 201.476 45.0349 201.345 45.7629 201.084L46.1269 200.972V190.5ZM61.0994 193.692H57.6554V199.432C57.6554 199.992 57.6648 200.393 57.6834 200.636C57.7208 200.86 57.8234 201.056 57.9914 201.224C58.1781 201.392 58.4581 201.476 58.8314 201.476L60.9594 201.42L61.1274 204.416C59.8768 204.696 58.9248 204.836 58.2714 204.836C56.5914 204.836 55.4434 204.463 54.8274 203.716C54.2114 202.951 53.9034 201.551 53.9034 199.516V193.692H52.2514V190.5H53.9034V186.608H57.6554V190.5H61.0994V193.692ZM67.2946 204.5H63.5426V184.9H67.2946V191.172C68.5826 190.5 69.74 190.164 70.7666 190.164C72.6333 190.164 73.9213 190.715 74.6306 191.816C75.34 192.917 75.6946 194.616 75.6946 196.912V204.5H71.9426V196.996C71.9426 195.82 71.8026 194.952 71.5226 194.392C71.2426 193.813 70.6826 193.524 69.8426 193.524C69.1146 193.524 68.3866 193.636 67.6586 193.86L67.2946 193.972V204.5ZM82.0992 199.096C82.1179 199.955 82.3419 200.58 82.7712 200.972C83.2192 201.345 83.8539 201.532 84.6752 201.532C86.4112 201.532 87.9605 201.476 89.3232 201.364L90.1072 201.28L90.1632 204.052C88.0165 204.575 86.0752 204.836 84.3392 204.836C82.2299 204.836 80.6992 204.276 79.7472 203.156C78.7952 202.036 78.3192 200.216 78.3192 197.696C78.3192 192.675 80.3819 190.164 84.5072 190.164C88.5765 190.164 90.6112 192.273 90.6112 196.492L90.3312 199.096H82.0992ZM86.9152 196.24C86.9152 195.12 86.7379 194.345 86.3832 193.916C86.0285 193.468 85.4032 193.244 84.5072 193.244C83.6299 193.244 83.0045 193.477 82.6312 193.944C82.2765 194.392 82.0899 195.157 82.0712 196.24H86.9152ZM97.0446 204.5H93.2926V190.5H97.0166V191.284C98.286 190.537 99.4526 190.164 100.517 190.164C102.383 190.164 103.671 190.715 104.381 191.816C105.09 192.917 105.445 194.616 105.445 196.912V204.5H101.693V197.024C101.693 195.829 101.553 194.952 101.273 194.392C100.993 193.813 100.433 193.524 99.5926 193.524C98.8273 193.524 98.09 193.655 97.3806 193.916L97.0446 194.028V204.5ZM116.525 193.692H113.081V199.432C113.081 199.992 113.091 200.393 113.109 200.636C113.147 200.86 113.249 201.056 113.417 201.224C113.604 201.392 113.884 201.476 114.257 201.476L116.385 201.42L116.553 204.416C115.303 204.696 114.351 204.836 113.697 204.836C112.017 204.836 110.869 204.463 110.253 203.716C109.637 202.951 109.329 201.551 109.329 199.516V193.692H107.677V190.5H109.329V186.608H113.081V190.5H116.525V193.692ZM118.968 204.5V190.5H122.72V204.5H118.968ZM118.968 188.708V184.9H122.72V188.708H118.968ZM131.423 190.164C132.394 190.164 133.635 190.313 135.147 190.612L135.903 190.78L135.791 193.748C134.317 193.599 133.225 193.524 132.515 193.524C131.227 193.524 130.369 193.804 129.939 194.364C129.529 194.905 129.323 195.941 129.323 197.472C129.323 199.003 129.529 200.057 129.939 200.636C130.369 201.196 131.237 201.476 132.543 201.476L135.791 201.252L135.903 204.248C133.906 204.64 132.385 204.836 131.339 204.836C129.267 204.836 127.774 204.257 126.859 203.1C125.963 201.924 125.515 200.048 125.515 197.472C125.515 194.896 125.982 193.039 126.915 191.9C127.849 190.743 129.351 190.164 131.423 190.164ZM149.407 194.868V200.692C149.445 201.14 149.519 201.457 149.631 201.644C149.743 201.812 149.977 201.933 150.331 202.008L150.219 204.836C149.267 204.836 148.502 204.771 147.923 204.64C147.363 204.509 146.794 204.248 146.215 203.856C144.871 204.509 143.499 204.836 142.099 204.836C139.206 204.836 137.759 203.305 137.759 200.244C137.759 198.751 138.161 197.696 138.963 197.08C139.766 196.445 140.998 196.072 142.659 195.96L145.655 195.736V194.868C145.655 194.289 145.525 193.897 145.263 193.692C145.002 193.468 144.582 193.356 144.003 193.356L138.739 193.58L138.627 190.976C140.625 190.435 142.519 190.164 144.311 190.164C146.122 190.164 147.419 190.537 148.203 191.284C149.006 192.031 149.407 193.225 149.407 194.868ZM143.107 198.564C142.062 198.657 141.539 199.217 141.539 200.244C141.539 201.271 141.997 201.784 142.911 201.784C143.621 201.784 144.395 201.672 145.235 201.448L145.655 201.336V198.34L143.107 198.564ZM160.74 193.692H157.296V199.432C157.296 199.992 157.305 200.393 157.324 200.636C157.361 200.86 157.464 201.056 157.632 201.224C157.819 201.392 158.099 201.476 158.472 201.476L160.6 201.42L160.768 204.416C159.517 204.696 158.565 204.836 157.912 204.836C156.232 204.836 155.084 204.463 154.468 203.716C153.852 202.951 153.544 201.551 153.544 199.516V193.692H151.892V190.5H153.544V186.608H157.296V190.5H160.74V193.692ZM163.183 204.5V190.5H166.935V204.5H163.183ZM163.183 188.708V184.9H166.935V188.708H163.183ZM171.158 192.096C172.147 190.808 173.799 190.164 176.114 190.164C178.429 190.164 180.081 190.808 181.07 192.096C182.059 193.365 182.554 195.157 182.554 197.472C182.554 202.381 180.407 204.836 176.114 204.836C171.821 204.836 169.674 202.381 169.674 197.472C169.674 195.157 170.169 193.365 171.158 192.096ZM174.042 200.636C174.434 201.308 175.125 201.644 176.114 201.644C177.103 201.644 177.785 201.308 178.158 200.636C178.55 199.964 178.746 198.909 178.746 197.472C178.746 196.035 178.55 194.989 178.158 194.336C177.785 193.683 177.103 193.356 176.114 193.356C175.125 193.356 174.434 193.683 174.042 194.336C173.669 194.989 173.482 196.035 173.482 197.472C173.482 198.909 173.669 199.964 174.042 200.636ZM189.056 204.5H185.304V190.5H189.028V191.284C190.298 190.537 191.464 190.164 192.528 190.164C194.395 190.164 195.683 190.715 196.392 191.816C197.102 192.917 197.456 194.616 197.456 196.912V204.5H193.704V197.024C193.704 195.829 193.564 194.952 193.284 194.392C193.004 193.813 192.444 193.524 191.604 193.524C190.839 193.524 190.102 193.655 189.392 193.916L189.056 194.028V204.5ZM212.169 190.164C213.14 190.164 214.381 190.313 215.893 190.612L216.649 190.78L216.537 193.748C215.063 193.599 213.971 193.524 213.261 193.524C211.973 193.524 211.115 193.804 210.685 194.364C210.275 194.905 210.069 195.941 210.069 197.472C210.069 199.003 210.275 200.057 210.685 200.636C211.115 201.196 211.983 201.476 213.289 201.476L216.537 201.252L216.649 204.248C214.652 204.64 213.131 204.836 212.085 204.836C210.013 204.836 208.52 204.257 207.605 203.1C206.709 201.924 206.261 200.048 206.261 197.472C206.261 194.896 206.728 193.039 207.661 191.9C208.595 190.743 210.097 190.164 212.169 190.164ZM220.076 192.096C221.065 190.808 222.717 190.164 225.032 190.164C227.347 190.164 228.999 190.808 229.988 192.096C230.977 193.365 231.472 195.157 231.472 197.472C231.472 202.381 229.325 204.836 225.032 204.836C220.739 204.836 218.592 202.381 218.592 197.472C218.592 195.157 219.087 193.365 220.076 192.096ZM222.96 200.636C223.352 201.308 224.043 201.644 225.032 201.644C226.021 201.644 226.703 201.308 227.076 200.636C227.468 199.964 227.664 198.909 227.664 197.472C227.664 196.035 227.468 194.989 227.076 194.336C226.703 193.683 226.021 193.356 225.032 193.356C224.043 193.356 223.352 193.683 222.96 194.336C222.587 194.989 222.4 196.035 222.4 197.472C222.4 198.909 222.587 199.964 222.96 200.636ZM237.974 204.5H234.222V190.5H237.946V191.284C239.234 190.537 240.336 190.164 241.25 190.164C242.762 190.164 243.929 190.603 244.75 191.48C246.468 190.603 248.036 190.164 249.454 190.164C251.302 190.164 252.581 190.705 253.29 191.788C254.018 192.852 254.382 194.56 254.382 196.912V204.5H250.63V197.024C250.63 195.829 250.5 194.952 250.238 194.392C249.977 193.813 249.454 193.524 248.67 193.524C248.073 193.524 247.345 193.655 246.486 193.916L246.066 194.056C246.141 195.456 246.178 196.52 246.178 197.248V204.5H242.426V197.304C242.426 195.923 242.305 194.952 242.062 194.392C241.82 193.813 241.288 193.524 240.466 193.524C239.738 193.524 239.02 193.655 238.31 193.916L237.974 194.028V204.5ZM257.711 210.38V190.5H261.435V191.256C262.648 190.528 263.712 190.164 264.627 190.164C266.512 190.164 267.903 190.733 268.799 191.872C269.695 192.992 270.143 194.905 270.143 197.612C270.143 200.319 269.648 202.204 268.659 203.268C267.669 204.313 266.045 204.836 263.787 204.836C263.171 204.836 262.508 204.78 261.799 204.668L261.463 204.612V210.38H257.711ZM263.899 193.524C263.208 193.524 262.508 193.664 261.799 193.944L261.463 194.084V201.42C262.303 201.532 262.984 201.588 263.507 201.588C264.589 201.588 265.327 201.271 265.719 200.636C266.129 200.001 266.335 198.919 266.335 197.388C266.335 194.812 265.523 193.524 263.899 193.524ZM273.109 204.5V184.9H276.861V204.5H273.109ZM283.568 199.096C283.587 199.955 283.811 200.58 284.24 200.972C284.688 201.345 285.323 201.532 286.144 201.532C287.88 201.532 289.429 201.476 290.792 201.364L291.576 201.28L291.632 204.052C289.485 204.575 287.544 204.836 285.808 204.836C283.699 204.836 282.168 204.276 281.216 203.156C280.264 202.036 279.788 200.216 279.788 197.696C279.788 192.675 281.851 190.164 285.976 190.164C290.045 190.164 292.08 192.273 292.08 196.492L291.8 199.096H283.568ZM288.384 196.24C288.384 195.12 288.207 194.345 287.852 193.916C287.497 193.468 286.872 193.244 285.976 193.244C285.099 193.244 284.473 193.477 284.1 193.944C283.745 194.392 283.559 195.157 283.54 196.24H288.384ZM302.517 193.692H299.073V199.432C299.073 199.992 299.083 200.393 299.101 200.636C299.139 200.86 299.241 201.056 299.409 201.224C299.596 201.392 299.876 201.476 300.249 201.476L302.377 201.42L302.545 204.416C301.295 204.696 300.343 204.836 299.689 204.836C298.009 204.836 296.861 204.463 296.245 203.716C295.629 202.951 295.321 201.551 295.321 199.516V193.692H293.669V190.5H295.321V186.608H299.073V190.5H302.517V193.692ZM308.041 199.096C308.059 199.955 308.283 200.58 308.713 200.972C309.161 201.345 309.795 201.532 310.617 201.532C312.353 201.532 313.902 201.476 315.265 201.364L316.049 201.28L316.105 204.052C313.958 204.575 312.017 204.836 310.281 204.836C308.171 204.836 306.641 204.276 305.689 203.156C304.737 202.036 304.261 200.216 304.261 197.696C304.261 192.675 306.323 190.164 310.449 190.164C314.518 190.164 316.553 192.273 316.553 196.492L316.273 199.096H308.041ZM312.857 196.24C312.857 195.12 312.679 194.345 312.325 193.916C311.97 193.468 311.345 193.244 310.449 193.244C309.571 193.244 308.946 193.477 308.573 193.944C308.218 194.392 308.031 195.157 308.013 196.24H312.857ZM331.134 184.9V204.5H327.41V203.912C326.103 204.528 324.974 204.836 324.022 204.836C321.987 204.836 320.569 204.248 319.766 203.072C318.963 201.896 318.562 200.039 318.562 197.5C318.562 194.943 319.038 193.085 319.99 191.928C320.961 190.752 322.417 190.164 324.358 190.164C324.955 190.164 325.786 190.257 326.85 190.444L327.382 190.556V184.9H331.134ZM326.99 201.14L327.382 201.056V193.692C326.355 193.505 325.441 193.412 324.638 193.412C323.126 193.412 322.37 194.756 322.37 197.444C322.37 198.9 322.538 199.936 322.874 200.552C323.21 201.168 323.761 201.476 324.526 201.476C325.31 201.476 326.131 201.364 326.99 201.14ZM334.769 204.5V199.992H338.801V204.5H334.769ZM335.133 197.5L334.769 185.46H338.829L338.437 197.5H335.133Z" fill="#17324D"/>
<path d="M200.326 337.161C181.425 324.473 169.275 296.372 173.185 274.393C177.094 252.415 195.59 244.884 214.486 257.572C233.387 270.26 245.537 298.361 241.627 320.34C237.718 342.319 219.222 349.849 200.326 337.161Z" fill="#0066CC"/>
<path d="M191.201 342.169C172.3 329.481 160.15 301.38 164.06 279.401C167.969 257.423 186.465 249.892 205.361 262.58C224.262 275.268 236.412 303.369 232.502 325.348C228.593 347.327 210.097 354.857 191.201 342.169Z" fill="#FFB458"/>
<path d="M182.379 347.359C163.477 334.671 151.328 306.569 155.237 284.591C159.147 262.612 177.643 255.081 196.539 267.769C215.44 280.457 227.589 308.559 223.68 330.537C219.771 352.516 201.275 360.047 182.379 347.359Z" fill="#7AC1FA"/>
<path d="M195.653 323.108L193.013 321.583C192.661 321.38 192.208 321.497 192 321.844C189.435 326.143 187.035 326.639 183.035 324.708C179.088 322.809 176.437 317.908 175.973 312.628C175.915 311.988 175.541 311.417 174.987 311.097L172.549 309.689C172.235 309.508 171.829 309.737 171.84 310.105C172.069 317.236 175.227 324.761 180.901 328.185C187.099 331.924 192.133 329.887 195.979 324.623C196.347 324.121 196.192 323.412 195.653 323.103V323.108Z" fill="#003366"/>
<path d="M172.763 303.316L175.366 304.82C175.99 305.183 176.768 304.729 176.768 304.009V289.615C176.768 288.943 176.411 288.329 175.83 287.993L173.227 286.489C172.603 286.127 171.824 286.58 171.824 287.3V301.695C171.824 302.367 172.182 302.98 172.763 303.316Z" fill="#003366"/>
<path d="M197.58 299.001L194.977 297.497C194.353 297.135 193.574 297.588 193.574 298.308V312.703C193.574 313.375 193.932 313.988 194.513 314.324L197.116 315.828C197.74 316.191 198.518 315.737 198.518 315.017V300.623C198.518 299.951 198.161 299.337 197.58 299.001Z" fill="#003366"/>
<path d="M135.109 350.009C134.715 348.585 134.533 347.124 134.48 345.444C134.368 342.116 134.256 338.788 134.155 335.46C134.059 332.383 133.984 329.311 133.888 326.233C133.861 325.407 133.808 324.585 133.947 323.759C134.272 321.833 136.112 320.111 138.059 319.94C139.061 319.849 138.896 320.02 138.997 319.033C139.275 316.409 139.541 313.785 139.771 311.156C139.861 310.116 139.872 309.071 140.213 308.063C141.237 305.007 145.381 303.903 147.787 306.041C150.224 308.105 149.376 310.644 149.195 313.401C149.189 313.487 149.168 313.583 149.333 313.695C150.176 310.809 150.811 307.897 151.68 305.023C153.648 298.873 162.603 301.583 160.901 307.737C159.36 313.428 157.931 318.991 156.325 324.687C161.275 321.812 167.339 322.169 171.467 326.281C173.653 328.409 175.125 330.975 175.707 333.972C176.16 336.319 175.899 338.607 174.299 340.521C170.827 344.681 167.2 338.879 166.24 335.609C164.107 329.455 159.269 333.236 158.347 337.817C157.717 340.319 158.096 344.063 160.053 345.924C161.584 347.375 164.165 347.295 165.867 346.185C168.587 344.484 173.179 339.609 175.275 344.591C176.464 347.775 175.749 350.612 173.547 353.113C171.803 355.092 170.139 355.673 167.771 356.399C164.992 357.252 162.272 359.524 159.787 361.028C156.816 362.82 153.696 364.665 150.235 364.879C147.003 365.076 144.592 363.572 142.757 361.087C140.821 358.468 138.213 356.671 136.592 353.663C135.909 352.399 135.429 351.215 135.099 350.009H135.109Z" fill="#FFB458"/>
<path d="M154.79 362.927C154.79 355.097 148.443 345.087 140.614 340.564C136.08 337.945 132.048 337.748 129.451 339.561L120.944 344.548C118.299 345.599 116.656 348.244 116.656 352.228C116.656 360.057 123.003 370.068 130.832 374.591C134.854 376.911 138.475 377.327 141.056 376.132C141.392 375.977 141.712 375.791 142.011 375.583L151.104 370.335C151.142 370.313 151.179 370.287 151.222 370.265L151.286 370.228C153.467 368.996 154.79 366.495 154.79 362.927Z" fill="#0066CC"/>
<path d="M106.58 436.324C105.482 436.548 104.495 436.66 103.62 436.66C102.746 436.66 102.036 436.543 101.492 436.308C100.959 436.063 100.543 435.689 100.244 435.188C99.9562 434.676 99.7536 434.095 99.6362 433.444C99.5296 432.783 99.4762 431.961 99.4762 430.98C99.4762 429.999 99.5296 429.177 99.6362 428.516C99.7536 427.844 99.9562 427.252 100.244 426.74C100.543 426.228 100.959 425.855 101.492 425.62C102.026 425.385 102.719 425.268 103.572 425.268C104.426 425.268 105.428 425.385 106.58 425.62L106.532 426.66C105.455 426.468 104.495 426.372 103.652 426.372C102.479 426.372 101.7 426.724 101.316 427.428C100.943 428.121 100.756 429.311 100.756 430.996C100.756 431.839 100.788 432.516 100.852 433.028C100.927 433.54 101.066 434.004 101.268 434.42C101.471 434.825 101.764 435.119 102.148 435.3C102.543 435.471 103.114 435.556 103.86 435.556C104.618 435.556 105.508 435.46 106.532 435.268L106.58 436.324ZM107.879 432.484C107.879 431.023 108.14 429.967 108.663 429.316C109.186 428.665 110.066 428.34 111.303 428.34C112.551 428.34 113.431 428.665 113.943 429.316C114.466 429.967 114.727 431.023 114.727 432.484C114.727 433.945 114.482 435.007 113.991 435.668C113.5 436.329 112.604 436.66 111.303 436.66C110.002 436.66 109.106 436.329 108.615 435.668C108.124 435.007 107.879 433.945 107.879 432.484ZM109.111 432.468C109.111 433.631 109.25 434.447 109.527 434.916C109.815 435.385 110.407 435.62 111.303 435.62C112.21 435.62 112.802 435.391 113.079 434.932C113.356 434.463 113.495 433.641 113.495 432.468C113.495 431.295 113.34 430.489 113.031 430.052C112.722 429.604 112.146 429.38 111.303 429.38C110.471 429.38 109.895 429.604 109.575 430.052C109.266 430.489 109.111 431.295 109.111 432.468ZM117.884 436.5H116.684V428.5H117.868V429.06C118.732 428.58 119.559 428.34 120.348 428.34C121.415 428.34 122.13 428.628 122.492 429.204C122.866 429.78 123.052 430.804 123.052 432.276V436.5H121.868V432.308C121.868 431.199 121.756 430.441 121.532 430.036C121.319 429.62 120.855 429.412 120.14 429.412C119.799 429.412 119.436 429.465 119.052 429.572C118.679 429.668 118.391 429.764 118.188 429.86L117.884 430.004V436.5ZM129.375 429.54H126.831V433.364C126.831 434.281 126.895 434.884 127.023 435.172C127.162 435.46 127.482 435.604 127.983 435.604L129.407 435.508L129.487 436.5C128.772 436.617 128.228 436.676 127.855 436.676C127.023 436.676 126.447 436.473 126.127 436.068C125.807 435.663 125.647 434.889 125.647 433.748V429.54H124.511V428.5H125.647V426.052H126.831V428.5H129.375V429.54ZM130.84 436.5V428.5H132.04V436.5H130.84ZM130.84 426.692V425.3H132.04V426.692H130.84ZM135.54 436.5H134.34V428.5H135.524V429.06C136.388 428.58 137.215 428.34 138.004 428.34C139.071 428.34 139.786 428.628 140.148 429.204C140.522 429.78 140.708 430.804 140.708 432.276V436.5H139.524V432.308C139.524 431.199 139.412 430.441 139.188 430.036C138.975 429.62 138.511 429.412 137.796 429.412C137.455 429.412 137.092 429.465 136.708 429.572C136.335 429.668 136.047 429.764 135.844 429.86L135.54 430.004V436.5ZM147.926 428.5H149.126V436.5H147.926V435.94C147.126 436.42 146.337 436.66 145.558 436.66C144.47 436.66 143.745 436.377 143.382 435.812C143.03 435.247 142.854 434.201 142.854 432.676V428.5H144.054V432.66C144.054 433.823 144.156 434.601 144.358 434.996C144.561 435.391 145.02 435.588 145.734 435.588C146.086 435.588 146.444 435.54 146.806 435.444C147.169 435.337 147.446 435.236 147.638 435.14L147.926 434.996V428.5ZM156.874 435.508L157.338 435.46L157.37 436.404C156.154 436.575 155.114 436.66 154.25 436.66C153.098 436.66 152.282 436.329 151.802 435.668C151.322 434.996 151.082 433.956 151.082 432.548C151.082 429.743 152.197 428.34 154.426 428.34C155.504 428.34 156.309 428.644 156.842 429.252C157.376 429.849 157.642 430.793 157.642 432.084L157.578 432.996H152.298C152.298 433.881 152.458 434.537 152.778 434.964C153.098 435.391 153.653 435.604 154.442 435.604C155.242 435.604 156.053 435.572 156.874 435.508ZM156.442 432.036C156.442 431.055 156.282 430.361 155.962 429.956C155.653 429.551 155.141 429.348 154.426 429.348C153.722 429.348 153.189 429.561 152.826 429.988C152.474 430.415 152.293 431.097 152.282 432.036H156.442ZM162.676 432.484C162.676 431.023 162.937 429.967 163.46 429.316C163.983 428.665 164.863 428.34 166.1 428.34C167.348 428.34 168.228 428.665 168.74 429.316C169.263 429.967 169.524 431.023 169.524 432.484C169.524 433.945 169.279 435.007 168.788 435.668C168.297 436.329 167.401 436.66 166.1 436.66C164.799 436.66 163.903 436.329 163.412 435.668C162.921 435.007 162.676 433.945 162.676 432.484ZM163.908 432.468C163.908 433.631 164.047 434.447 164.324 434.916C164.612 435.385 165.204 435.62 166.1 435.62C167.007 435.62 167.599 435.391 167.876 434.932C168.153 434.463 168.292 433.641 168.292 432.468C168.292 431.295 168.137 430.489 167.828 430.052C167.519 429.604 166.943 429.38 166.1 429.38C165.268 429.38 164.692 429.604 164.372 430.052C164.063 430.489 163.908 431.295 163.908 432.468ZM172.681 436.5H171.481V428.5H172.665V429.06C173.529 428.58 174.356 428.34 175.145 428.34C176.212 428.34 176.926 428.628 177.289 429.204C177.662 429.78 177.849 430.804 177.849 432.276V436.5H176.665V432.308C176.665 431.199 176.553 430.441 176.329 430.036C176.116 429.62 175.652 429.412 174.937 429.412C174.596 429.412 174.233 429.465 173.849 429.572C173.476 429.668 173.188 429.764 172.985 429.86L172.681 430.004V436.5ZM187.734 429.54H185.19V433.364C185.19 434.281 185.254 434.884 185.382 435.172C185.521 435.46 185.841 435.604 186.342 435.604L187.766 435.508L187.846 436.5C187.132 436.617 186.588 436.676 186.214 436.676C185.382 436.676 184.806 436.473 184.486 436.068C184.166 435.663 184.006 434.889 184.006 433.748V429.54H182.87V428.5H184.006V426.052H185.19V428.5H187.734V429.54ZM190.4 436.5H189.2V425.012H190.4V428.948C191.253 428.543 192.075 428.34 192.864 428.34C193.931 428.34 194.645 428.628 195.008 429.204C195.381 429.78 195.568 430.804 195.568 432.276V436.5H194.368V432.308C194.368 431.199 194.256 430.441 194.032 430.036C193.819 429.62 193.36 429.412 192.656 429.412C191.984 429.412 191.333 429.535 190.704 429.78L190.4 429.892V436.5ZM203.234 435.508L203.698 435.46L203.73 436.404C202.514 436.575 201.474 436.66 200.61 436.66C199.458 436.66 198.642 436.329 198.162 435.668C197.682 434.996 197.442 433.956 197.442 432.548C197.442 429.743 198.556 428.34 200.786 428.34C201.863 428.34 202.668 428.644 203.202 429.252C203.735 429.849 204.002 430.793 204.002 432.084L203.938 432.996H198.658C198.658 433.881 198.818 434.537 199.138 434.964C199.458 435.391 200.012 435.604 200.802 435.604C201.602 435.604 202.412 435.572 203.234 435.508ZM202.802 432.036C202.802 431.055 202.642 430.361 202.322 429.956C202.012 429.551 201.5 429.348 200.786 429.348C200.082 429.348 199.548 429.561 199.186 429.988C198.834 430.415 198.652 431.097 198.642 432.036H202.802ZM208.731 428.5H209.931L211.547 435.46H211.803L213.707 428.66H214.955L216.859 435.46H217.131L218.731 428.5H219.931L218.027 436.5H216.027L214.331 430.244L212.635 436.5H210.635L208.731 428.5ZM226.937 435.508L227.401 435.46L227.433 436.404C226.217 436.575 225.177 436.66 224.313 436.66C223.161 436.66 222.345 436.329 221.865 435.668C221.385 434.996 221.145 433.956 221.145 432.548C221.145 429.743 222.259 428.34 224.489 428.34C225.566 428.34 226.371 428.644 226.905 429.252C227.438 429.849 227.705 430.793 227.705 432.084L227.641 432.996H222.361C222.361 433.881 222.521 434.537 222.841 434.964C223.161 435.391 223.715 435.604 224.505 435.604C225.305 435.604 226.115 435.572 226.937 435.508ZM226.505 432.036C226.505 431.055 226.345 430.361 226.025 429.956C225.715 429.551 225.203 429.348 224.489 429.348C223.785 429.348 223.251 429.561 222.889 429.988C222.537 430.415 222.355 431.097 222.345 432.036H226.505ZM233.111 428.34C234.188 428.34 234.94 428.649 235.367 429.268C235.804 429.876 236.023 430.948 236.023 432.484C236.023 434.02 235.751 435.103 235.207 435.732C234.674 436.351 233.687 436.66 232.247 436.66C231.799 436.66 231.058 436.617 230.023 436.532L229.575 436.484V425.012H230.759V428.9C231.57 428.527 232.354 428.34 233.111 428.34ZM232.231 435.588C233.276 435.588 233.964 435.353 234.295 434.884C234.636 434.404 234.807 433.599 234.807 432.468C234.807 431.337 234.674 430.548 234.407 430.1C234.14 429.641 233.666 429.412 232.983 429.412C232.364 429.412 231.73 429.529 231.079 429.764L230.759 429.876V435.508C231.452 435.561 231.943 435.588 232.231 435.588ZM240.509 429.412C239.346 429.412 238.765 429.817 238.765 430.628C238.765 431.001 238.898 431.268 239.165 431.428C239.431 431.577 240.039 431.737 240.989 431.908C241.938 432.068 242.61 432.297 243.005 432.596C243.399 432.895 243.597 433.455 243.597 434.276C243.597 435.097 243.33 435.7 242.797 436.084C242.274 436.468 241.506 436.66 240.493 436.66C239.831 436.66 239.053 436.585 238.157 436.436L237.677 436.356L237.741 435.316C238.957 435.497 239.874 435.588 240.493 435.588C241.111 435.588 241.581 435.492 241.901 435.3C242.231 435.097 242.397 434.767 242.397 434.308C242.397 433.839 242.258 433.524 241.981 433.364C241.703 433.193 241.095 433.033 240.157 432.884C239.218 432.735 238.551 432.516 238.157 432.228C237.762 431.94 237.565 431.407 237.565 430.628C237.565 429.849 237.837 429.273 238.381 428.9C238.935 428.527 239.623 428.34 240.445 428.34C241.095 428.34 241.911 428.415 242.893 428.564L243.341 428.644L243.309 429.668C242.125 429.497 241.191 429.412 240.509 429.412ZM245.434 436.5V428.5H246.634V436.5H245.434ZM245.434 426.692V425.3H246.634V426.692H245.434ZM253.078 429.54H250.534V433.364C250.534 434.281 250.598 434.884 250.726 435.172C250.865 435.46 251.185 435.604 251.686 435.604L253.11 435.508L253.19 436.5C252.476 436.617 251.932 436.676 251.558 436.676C250.726 436.676 250.15 436.473 249.83 436.068C249.51 435.663 249.35 434.889 249.35 433.748V429.54H248.214V428.5H249.35V426.052H250.534V428.5H253.078V429.54ZM259.984 435.508L260.448 435.46L260.48 436.404C259.264 436.575 258.224 436.66 257.36 436.66C256.208 436.66 255.392 436.329 254.912 435.668C254.432 434.996 254.192 433.956 254.192 432.548C254.192 429.743 255.306 428.34 257.536 428.34C258.613 428.34 259.418 428.644 259.952 429.252C260.485 429.849 260.752 430.793 260.752 432.084L260.688 432.996H255.408C255.408 433.881 255.568 434.537 255.888 434.964C256.208 435.391 256.762 435.604 257.552 435.604C258.352 435.604 259.162 435.572 259.984 435.508ZM259.552 432.036C259.552 431.055 259.392 430.361 259.072 429.956C258.762 429.551 258.25 429.348 257.536 429.348C256.832 429.348 256.298 429.561 255.936 429.988C255.584 430.415 255.402 431.097 255.392 432.036H259.552Z" fill="#17324D"/>
<rect x="125.5" y="466.5" width="109" height="48" rx="4" fill="#0066CC"/>
<path d="M154.483 496.676C152.883 496.676 151.795 496.233 151.219 495.348C150.654 494.463 150.371 493.007 150.371 490.98C150.371 488.953 150.659 487.513 151.235 486.66C151.811 485.796 152.894 485.364 154.483 485.364C155.432 485.364 156.478 485.497 157.619 485.764L157.555 487.204C156.595 487.033 155.635 486.948 154.675 486.948C153.715 486.948 153.064 487.236 152.723 487.812C152.382 488.377 152.211 489.449 152.211 491.028C152.211 492.596 152.376 493.668 152.707 494.244C153.038 494.809 153.683 495.092 154.643 495.092C155.603 495.092 156.574 495.012 157.555 494.852L157.603 496.324C156.504 496.559 155.464 496.676 154.483 496.676ZM159.59 489.364C160.144 488.671 161.062 488.324 162.342 488.324C163.622 488.324 164.534 488.671 165.078 489.364C165.632 490.057 165.91 491.097 165.91 492.484C165.91 493.871 165.643 494.916 165.11 495.62C164.576 496.324 163.654 496.676 162.342 496.676C161.03 496.676 160.107 496.324 159.574 495.62C159.04 494.916 158.774 493.871 158.774 492.484C158.774 491.097 159.046 490.057 159.59 489.364ZM160.902 494.564C161.147 494.991 161.627 495.204 162.342 495.204C163.056 495.204 163.536 494.991 163.782 494.564C164.027 494.137 164.15 493.439 164.15 492.468C164.15 491.497 164.016 490.809 163.75 490.404C163.494 489.999 163.024 489.796 162.342 489.796C161.659 489.796 161.184 489.999 160.918 490.404C160.662 490.809 160.534 491.497 160.534 492.468C160.534 493.439 160.656 494.137 160.902 494.564ZM169.386 496.5H167.642V488.5H169.37V488.996C170.149 488.548 170.885 488.324 171.578 488.324C172.645 488.324 173.37 488.628 173.754 489.236C174.149 489.833 174.346 490.825 174.346 492.212V496.5H172.618V492.26C172.618 491.396 172.522 490.783 172.33 490.42C172.149 490.057 171.77 489.876 171.194 489.876C170.65 489.876 170.127 489.983 169.626 490.196L169.386 490.292V496.5ZM180.68 489.988H178.472V493.508C178.472 494.159 178.52 494.591 178.616 494.804C178.712 495.017 178.958 495.124 179.352 495.124L180.664 495.076L180.744 496.468C180.03 496.607 179.486 496.676 179.112 496.676C178.206 496.676 177.582 496.468 177.24 496.052C176.91 495.636 176.744 494.852 176.744 493.7V489.988H175.72V488.5H176.744V486.18H178.472V488.5H180.68V489.988ZM182.111 496.5V488.5H183.855V496.5H182.111ZM182.111 487.14V485.3H183.855V487.14H182.111ZM187.714 496.5H185.97V488.5H187.698V488.996C188.477 488.548 189.213 488.324 189.906 488.324C190.973 488.324 191.698 488.628 192.082 489.236C192.477 489.833 192.674 490.825 192.674 492.212V496.5H190.946V492.26C190.946 491.396 190.85 490.783 190.658 490.42C190.477 490.057 190.098 489.876 189.522 489.876C188.978 489.876 188.455 489.983 187.954 490.196L187.714 490.292V496.5ZM199.552 488.5H201.28V496.5H199.552V496.004C198.774 496.452 198.054 496.676 197.392 496.676C196.294 496.676 195.558 496.383 195.184 495.796C194.811 495.199 194.624 494.159 194.624 492.676V488.5H196.368V492.692C196.368 493.652 196.448 494.297 196.608 494.628C196.768 494.959 197.142 495.124 197.728 495.124C198.304 495.124 198.832 495.017 199.312 494.804L199.552 494.708V488.5ZM209.088 495.06L209.536 495.012L209.568 496.308C208.352 496.553 207.275 496.676 206.336 496.676C205.152 496.676 204.299 496.351 203.776 495.7C203.264 495.049 203.008 494.009 203.008 492.58C203.008 489.743 204.165 488.324 206.48 488.324C208.72 488.324 209.84 489.545 209.84 491.988L209.728 493.236H204.768C204.779 493.897 204.923 494.383 205.2 494.692C205.477 495.001 205.995 495.156 206.752 495.156C207.509 495.156 208.288 495.124 209.088 495.06ZM208.128 491.892C208.128 491.103 208 490.553 207.744 490.244C207.499 489.924 207.077 489.764 206.48 489.764C205.883 489.764 205.445 489.929 205.168 490.26C204.901 490.591 204.763 491.135 204.752 491.892H208.128Z" fill="white"/>
<rect width="360" height="160" transform="translate(0 573)" fill="#003366"/>
<path d="M18.482 618H13.106V608.41H14.66V616.614H18.482V618ZM24.5525 616.74L24.9445 616.698L24.9725 617.832C23.9085 618.047 22.9659 618.154 22.1445 618.154C21.1085 618.154 20.3619 617.869 19.9045 617.3C19.4565 616.731 19.2325 615.821 19.2325 614.57C19.2325 612.087 20.2452 610.846 22.2705 610.846C24.2305 610.846 25.2105 611.915 25.2105 614.052L25.1125 615.144H20.7725C20.7819 615.723 20.9079 616.147 21.1505 616.418C21.3932 616.689 21.8459 616.824 22.5085 616.824C23.1712 616.824 23.8525 616.796 24.5525 616.74ZM23.7125 613.968C23.7125 613.277 23.6005 612.797 23.3765 612.526C23.1619 612.246 22.7932 612.106 22.2705 612.106C21.7479 612.106 21.3652 612.251 21.1225 612.54C20.8892 612.829 20.7679 613.305 20.7585 613.968H23.7125ZM32.7959 618.952C32.7959 620.483 31.6899 621.248 29.4779 621.248C28.4139 621.248 27.6252 621.103 27.1119 620.814C26.5986 620.525 26.3419 619.997 26.3419 619.232C26.3419 618.887 26.4259 618.588 26.5939 618.336C26.7619 618.093 27.0326 617.827 27.4059 617.538C27.0979 617.333 26.9439 616.992 26.9439 616.516C26.9439 616.329 27.0699 616.026 27.3219 615.606L27.4479 615.396C26.7759 614.995 26.4399 614.295 26.4399 613.296C26.4399 612.456 26.6919 611.84 27.1959 611.448C27.6999 611.056 28.3812 610.86 29.2399 610.86C29.6506 610.86 30.0566 610.907 30.4579 611L30.6679 611.042L32.8379 610.986V612.218L31.6759 612.148C31.9279 612.475 32.0539 612.857 32.0539 613.296C32.0539 614.211 31.8206 614.845 31.3539 615.2C30.8966 615.545 30.1779 615.718 29.1979 615.718C28.9552 615.718 28.7499 615.699 28.5819 615.662C28.4512 615.979 28.3859 616.227 28.3859 616.404C28.3859 616.572 28.4699 616.689 28.6379 616.754C28.8152 616.819 29.2352 616.857 29.8979 616.866C31.0086 616.875 31.7692 617.025 32.1799 617.314C32.5906 617.603 32.7959 618.149 32.7959 618.952ZM27.8399 619.092C27.8399 619.419 27.9706 619.652 28.2319 619.792C28.4932 619.932 28.9412 620.002 29.5759 620.002C30.7052 620.002 31.2699 619.68 31.2699 619.036C31.2699 618.672 31.1672 618.439 30.9619 618.336C30.7659 618.243 30.3692 618.191 29.7719 618.182L28.3999 618.098C28.1946 618.266 28.0499 618.42 27.9659 618.56C27.8819 618.709 27.8399 618.887 27.8399 619.092ZM27.9519 613.296C27.9519 613.725 28.0546 614.043 28.2599 614.248C28.4652 614.444 28.7966 614.542 29.2539 614.542C29.7112 614.542 30.0379 614.444 30.2339 614.248C30.4392 614.043 30.5419 613.725 30.5419 613.296C30.5419 612.867 30.4392 612.554 30.2339 612.358C30.0286 612.153 29.6972 612.05 29.2399 612.05C28.3812 612.05 27.9519 612.465 27.9519 613.296ZM39.2134 613.156V616.348C39.2227 616.553 39.274 616.707 39.3674 616.81C39.47 616.903 39.624 616.964 39.8294 616.992L39.7874 618.154C38.9847 618.154 38.364 617.981 37.9254 617.636C37.1787 617.981 36.4274 618.154 35.6714 618.154C34.2807 618.154 33.5854 617.412 33.5854 615.928C33.5854 615.219 33.772 614.705 34.1454 614.388C34.528 614.071 35.1114 613.879 35.8954 613.814L37.7014 613.66V613.156C37.7014 612.783 37.6174 612.521 37.4494 612.372C37.2907 612.223 37.0527 612.148 36.7354 612.148C36.138 612.148 35.3914 612.185 34.4954 612.26L34.0474 612.288L33.9914 611.21C35.0087 610.967 35.942 610.846 36.7914 610.846C37.65 610.846 38.266 611.033 38.6394 611.406C39.022 611.77 39.2134 612.353 39.2134 613.156ZM36.0774 614.892C35.4334 614.948 35.1114 615.298 35.1114 615.942C35.1114 616.586 35.396 616.908 35.9654 616.908C36.432 616.908 36.9267 616.833 37.4494 616.684L37.7014 616.6V614.738L36.0774 614.892ZM41.2131 618V608.088H42.7391V618H41.2131ZM49.2723 618H47.7463V611H49.2583V611.434C49.9396 611.042 50.5836 610.846 51.1903 610.846C52.1236 610.846 52.7583 611.112 53.0943 611.644C53.4396 612.167 53.6123 613.035 53.6123 614.248V618H52.1003V614.29C52.1003 613.534 52.0163 612.997 51.8483 612.68C51.6896 612.363 51.3583 612.204 50.8543 612.204C50.3783 612.204 49.9209 612.297 49.4823 612.484L49.2723 612.568V618ZM55.7668 611.756C56.2522 611.149 57.0548 610.846 58.1748 610.846C59.2948 610.846 60.0928 611.149 60.5688 611.756C61.0542 612.363 61.2968 613.273 61.2968 614.486C61.2968 615.699 61.0635 616.614 60.5968 617.23C60.1302 617.846 59.3228 618.154 58.1748 618.154C57.0268 618.154 56.2195 617.846 55.7528 617.23C55.2862 616.614 55.0528 615.699 55.0528 614.486C55.0528 613.273 55.2908 612.363 55.7668 611.756ZM56.9148 616.306C57.1295 616.679 57.5495 616.866 58.1748 616.866C58.8002 616.866 59.2202 616.679 59.4348 616.306C59.6495 615.933 59.7568 615.321 59.7568 614.472C59.7568 613.623 59.6402 613.021 59.4068 612.666C59.1828 612.311 58.7722 612.134 58.1748 612.134C57.5775 612.134 57.1622 612.311 56.9288 612.666C56.7048 613.021 56.5928 613.623 56.5928 614.472C56.5928 615.321 56.7002 615.933 56.9148 616.306ZM66.5787 612.302H64.6467V615.382C64.6467 615.951 64.6887 616.329 64.7727 616.516C64.8567 616.703 65.0713 616.796 65.4167 616.796L66.5647 616.754L66.6347 617.972C66.0093 618.093 65.5333 618.154 65.2067 618.154C64.4133 618.154 63.8673 617.972 63.5687 617.608C63.2793 617.244 63.1347 616.558 63.1347 615.55V612.302H62.2387V611H63.1347V608.97H64.6467V611H66.5787V612.302ZM72.8143 616.74L73.2063 616.698L73.2343 617.832C72.1703 618.047 71.2276 618.154 70.4062 618.154C69.3703 618.154 68.6236 617.869 68.1663 617.3C67.7183 616.731 67.4943 615.821 67.4943 614.57C67.4943 612.087 68.5069 610.846 70.5323 610.846C72.4923 610.846 73.4723 611.915 73.4723 614.052L73.3743 615.144H69.0343C69.0436 615.723 69.1696 616.147 69.4123 616.418C69.6549 616.689 70.1076 616.824 70.7703 616.824C71.4329 616.824 72.1143 616.796 72.8143 616.74ZM71.9743 613.968C71.9743 613.277 71.8623 612.797 71.6383 612.526C71.4236 612.246 71.0549 612.106 70.5323 612.106C70.0096 612.106 69.6269 612.251 69.3843 612.54C69.1509 612.829 69.0296 613.305 69.0203 613.968H71.9743ZM79.7976 612.442C78.6963 612.293 77.8983 612.218 77.4036 612.218C76.909 612.218 76.5636 612.279 76.3676 612.4C76.181 612.512 76.0876 612.694 76.0876 612.946C76.0876 613.198 76.1903 613.375 76.3956 613.478C76.6103 613.581 77.105 613.702 77.8796 613.842C78.6636 613.973 79.219 614.183 79.5456 614.472C79.8723 614.761 80.0356 615.275 80.0356 616.012C80.0356 616.749 79.7976 617.291 79.3216 617.636C78.855 617.981 78.169 618.154 77.2636 618.154C76.6943 618.154 75.9756 618.075 75.1076 617.916L74.6736 617.846L74.7296 616.572C75.8496 616.721 76.657 616.796 77.1516 616.796C77.6463 616.796 77.9963 616.735 78.2016 616.614C78.4163 616.493 78.5236 616.292 78.5236 616.012C78.5236 615.732 78.421 615.541 78.2156 615.438C78.0196 615.326 77.539 615.209 76.7736 615.088C76.0176 614.957 75.4623 614.757 75.1076 614.486C74.753 614.215 74.5756 613.721 74.5756 613.002C74.5756 612.283 74.8183 611.747 75.3036 611.392C75.7983 611.037 76.4283 610.86 77.1936 610.86C77.791 610.86 78.5236 610.935 79.3916 611.084L79.8256 611.168L79.7976 612.442Z" fill="white"/>
<path d="M12 619.54H25.9394V619.96H12V619.54ZM33.1466 619.54H80.5816V619.96H33.1466V619.54Z" fill="white"/>
<path d="M16.62 655.018H14.66V658H13.106V648.41H16.62C18.7947 648.41 19.882 649.483 19.882 651.63C19.882 652.731 19.6067 653.571 19.056 654.15C18.5147 654.729 17.7027 655.018 16.62 655.018ZM14.66 653.674H16.606C17.726 653.674 18.286 652.993 18.286 651.63C18.286 650.977 18.1507 650.501 17.88 650.202C17.6093 649.903 17.1847 649.754 16.606 649.754H14.66V653.674ZM21.1955 658V651H22.7075V651.84C23.5008 651.327 24.2942 650.995 25.0875 650.846V652.372C24.2848 652.531 23.5988 652.736 23.0295 652.988L22.7215 653.114V658H21.1955ZM26.2541 658V651H27.7801V658H26.2541ZM26.2541 649.81V648.2H27.7801V649.81H26.2541ZM28.973 651H30.569L31.913 656.698H32.361L33.761 651H35.315L33.495 658H30.779L28.973 651ZM41.5923 653.156V656.348C41.6016 656.553 41.6529 656.707 41.7463 656.81C41.8489 656.903 42.0029 656.964 42.2083 656.992L42.1663 658.154C41.3636 658.154 40.7429 657.981 40.3043 657.636C39.5576 657.981 38.8063 658.154 38.0503 658.154C36.6596 658.154 35.9643 657.412 35.9643 655.928C35.9643 655.219 36.1509 654.705 36.5243 654.388C36.9069 654.071 37.4903 653.879 38.2743 653.814L40.0803 653.66V653.156C40.0803 652.783 39.9963 652.521 39.8283 652.372C39.6696 652.223 39.4316 652.148 39.1143 652.148C38.5169 652.148 37.7703 652.185 36.8743 652.26L36.4263 652.288L36.3703 651.21C37.3876 650.967 38.3209 650.846 39.1703 650.846C40.0289 650.846 40.6449 651.033 41.0183 651.406C41.4009 651.77 41.5923 652.353 41.5923 653.156ZM38.4563 654.892C37.8123 654.948 37.4903 655.298 37.4903 655.942C37.4903 656.586 37.7749 656.908 38.3443 656.908C38.8109 656.908 39.3056 656.833 39.8283 656.684L40.0803 656.6V654.738L38.4563 654.892ZM46.126 650.846C46.6207 650.846 47.204 650.911 47.876 651.042L48.226 651.112L48.17 652.316C47.4327 652.241 46.8867 652.204 46.532 652.204C45.8227 652.204 45.3467 652.363 45.104 652.68C44.8613 652.997 44.74 653.595 44.74 654.472C44.74 655.349 44.8567 655.956 45.09 656.292C45.3233 656.628 45.8087 656.796 46.546 656.796L48.184 656.684L48.226 657.902C47.2833 658.07 46.574 658.154 46.098 658.154C45.034 658.154 44.2827 657.869 43.844 657.3C43.4147 656.721 43.2 655.779 43.2 654.472C43.2 653.165 43.4287 652.237 43.886 651.686C44.3433 651.126 45.09 650.846 46.126 650.846ZM49.0573 651H50.5553L52.0393 656.698H52.4173L53.9013 651H55.4133L52.7533 661.01H51.2553L52.0953 658H50.8913L49.0573 651ZM63.3641 655.018H61.4041V658H59.8501V648.41H63.3641C65.5388 648.41 66.6261 649.483 66.6261 651.63C66.6261 652.731 66.3508 653.571 65.8001 654.15C65.2588 654.729 64.4468 655.018 63.3641 655.018ZM61.4041 653.674H63.3501C64.4701 653.674 65.0301 652.993 65.0301 651.63C65.0301 650.977 64.8948 650.501 64.6241 650.202C64.3535 649.903 63.9288 649.754 63.3501 649.754H61.4041V653.674ZM68.3176 651.756C68.803 651.149 69.6056 650.846 70.7256 650.846C71.8456 650.846 72.6436 651.149 73.1196 651.756C73.605 652.363 73.8476 653.273 73.8476 654.486C73.8476 655.699 73.6143 656.614 73.1476 657.23C72.681 657.846 71.8736 658.154 70.7256 658.154C69.5776 658.154 68.7703 657.846 68.3036 657.23C67.837 656.614 67.6036 655.699 67.6036 654.486C67.6036 653.273 67.8416 652.363 68.3176 651.756ZM69.4656 656.306C69.6803 656.679 70.1003 656.866 70.7256 656.866C71.351 656.866 71.771 656.679 71.9856 656.306C72.2003 655.933 72.3076 655.321 72.3076 654.472C72.3076 653.623 72.191 653.021 71.9576 652.666C71.7336 652.311 71.323 652.134 70.7256 652.134C70.1283 652.134 69.713 652.311 69.4796 652.666C69.2556 653.021 69.1436 653.623 69.1436 654.472C69.1436 655.321 69.251 655.933 69.4656 656.306ZM75.4475 658V648.088H76.9735V658H75.4475ZM78.9045 658V651H80.4305V658H78.9045ZM78.9045 649.81V648.2H80.4305V649.81H78.9045ZM84.8994 650.846C85.3941 650.846 85.9774 650.911 86.6494 651.042L86.9994 651.112L86.9434 652.316C86.2061 652.241 85.6601 652.204 85.3054 652.204C84.5961 652.204 84.1201 652.363 83.8774 652.68C83.6348 652.997 83.5134 653.595 83.5134 654.472C83.5134 655.349 83.6301 655.956 83.8634 656.292C84.0968 656.628 84.5821 656.796 85.3194 656.796L86.9574 656.684L86.9994 657.902C86.0568 658.07 85.3474 658.154 84.8714 658.154C83.8074 658.154 83.0561 657.869 82.6174 657.3C82.1881 656.721 81.9734 655.779 81.9734 654.472C81.9734 653.165 82.2021 652.237 82.6594 651.686C83.1168 651.126 83.8634 650.846 84.8994 650.846ZM87.8308 651H89.3288L90.8128 656.698H91.1908L92.6748 651H94.1868L91.5268 661.01H90.0288L90.8688 658H89.6648L87.8308 651Z" fill="white"/>
<path d="M12 659.54H51.1269V659.96H12V659.54ZM53.5606 659.54H89.9003V659.96H53.5606V659.54ZM92.3341 659.54H94.4388V659.96H92.3341V659.54Z" fill="white"/>
<path d="M12.28 698L14.646 688.41H17.74L20.12 698H18.552L18.034 695.942H14.352L13.834 698H12.28ZM15.85 689.712L14.66 694.57H17.726L16.55 689.712H15.85ZM23.8545 690.846C24.3492 690.846 24.9325 690.911 25.6045 691.042L25.9545 691.112L25.8985 692.316C25.1612 692.241 24.6152 692.204 24.2605 692.204C23.5512 692.204 23.0752 692.363 22.8325 692.68C22.5898 692.997 22.4685 693.595 22.4685 694.472C22.4685 695.349 22.5852 695.956 22.8185 696.292C23.0518 696.628 23.5372 696.796 24.2745 696.796L25.9125 696.684L25.9545 697.902C25.0118 698.07 24.3025 698.154 23.8265 698.154C22.7625 698.154 22.0112 697.869 21.5725 697.3C21.1432 696.721 20.9285 695.779 20.9285 694.472C20.9285 693.165 21.1572 692.237 21.6145 691.686C22.0718 691.126 22.8185 690.846 23.8545 690.846ZM29.9795 690.846C30.4742 690.846 31.0575 690.911 31.7295 691.042L32.0795 691.112L32.0235 692.316C31.2862 692.241 30.7402 692.204 30.3855 692.204C29.6762 692.204 29.2002 692.363 28.9575 692.68C28.7148 692.997 28.5935 693.595 28.5935 694.472C28.5935 695.349 28.7102 695.956 28.9435 696.292C29.1768 696.628 29.6622 696.796 30.3995 696.796L32.0375 696.684L32.0795 697.902C31.1368 698.07 30.4275 698.154 29.9515 698.154C28.8875 698.154 28.1362 697.869 27.6975 697.3C27.2682 696.721 27.0535 695.779 27.0535 694.472C27.0535 693.165 27.2822 692.237 27.7395 691.686C28.1968 691.126 28.9435 690.846 29.9795 690.846ZM38.4705 696.74L38.8625 696.698L38.8905 697.832C37.8265 698.047 36.8838 698.154 36.0625 698.154C35.0265 698.154 34.2798 697.869 33.8225 697.3C33.3745 696.731 33.1505 695.821 33.1505 694.57C33.1505 692.087 34.1632 690.846 36.1885 690.846C38.1485 690.846 39.1285 691.915 39.1285 694.052L39.0305 695.144H34.6905C34.6998 695.723 34.8258 696.147 35.0685 696.418C35.3112 696.689 35.7638 696.824 36.4265 696.824C37.0892 696.824 37.7705 696.796 38.4705 696.74ZM37.6305 693.968C37.6305 693.277 37.5185 692.797 37.2945 692.526C37.0798 692.246 36.7112 692.106 36.1885 692.106C35.6658 692.106 35.2832 692.251 35.0405 692.54C34.8072 692.829 34.6858 693.305 34.6765 693.968H37.6305ZM45.4539 692.442C44.3525 692.293 43.5545 692.218 43.0599 692.218C42.5652 692.218 42.2199 692.279 42.0239 692.4C41.8372 692.512 41.7439 692.694 41.7439 692.946C41.7439 693.198 41.8465 693.375 42.0519 693.478C42.2665 693.581 42.7612 693.702 43.5359 693.842C44.3199 693.973 44.8752 694.183 45.2019 694.472C45.5285 694.761 45.6919 695.275 45.6919 696.012C45.6919 696.749 45.4539 697.291 44.9779 697.636C44.5112 697.981 43.8252 698.154 42.9199 698.154C42.3505 698.154 41.6319 698.075 40.7639 697.916L40.3299 697.846L40.3859 696.572C41.5059 696.721 42.3132 696.796 42.8079 696.796C43.3025 696.796 43.6525 696.735 43.8579 696.614C44.0725 696.493 44.1799 696.292 44.1799 696.012C44.1799 695.732 44.0772 695.541 43.8719 695.438C43.6759 695.326 43.1952 695.209 42.4299 695.088C41.6739 694.957 41.1185 694.757 40.7639 694.486C40.4092 694.215 40.2319 693.721 40.2319 693.002C40.2319 692.283 40.4745 691.747 40.9599 691.392C41.4545 691.037 42.0845 690.86 42.8499 690.86C43.4472 690.86 44.1799 690.935 45.0479 691.084L45.4819 691.168L45.4539 692.442ZM52.0164 692.442C50.915 692.293 50.117 692.218 49.6224 692.218C49.1277 692.218 48.7824 692.279 48.5864 692.4C48.3997 692.512 48.3064 692.694 48.3064 692.946C48.3064 693.198 48.409 693.375 48.6144 693.478C48.829 693.581 49.3237 693.702 50.0984 693.842C50.8824 693.973 51.4377 694.183 51.7644 694.472C52.091 694.761 52.2544 695.275 52.2544 696.012C52.2544 696.749 52.0164 697.291 51.5404 697.636C51.0737 697.981 50.3877 698.154 49.4824 698.154C48.913 698.154 48.1944 698.075 47.3264 697.916L46.8924 697.846L46.9484 696.572C48.0684 696.721 48.8757 696.796 49.3704 696.796C49.865 696.796 50.215 696.735 50.4204 696.614C50.635 696.493 50.7424 696.292 50.7424 696.012C50.7424 695.732 50.6397 695.541 50.4344 695.438C50.2384 695.326 49.7577 695.209 48.9924 695.088C48.2364 694.957 47.681 694.757 47.3264 694.486C46.9717 694.215 46.7944 693.721 46.7944 693.002C46.7944 692.283 47.037 691.747 47.5224 691.392C48.017 691.037 48.647 690.86 49.4124 690.86C50.0097 690.86 50.7424 690.935 51.6104 691.084L52.0444 691.168L52.0164 692.442ZM53.7209 698V691H55.2469V698H53.7209ZM53.7209 689.81V688.2H55.2469V689.81H53.7209ZM60.3598 690.846C61.3212 690.846 62.0118 691.117 62.4318 691.658C62.8612 692.19 63.0758 693.137 63.0758 694.5C63.0758 695.863 62.8238 696.815 62.3198 697.356C61.8158 697.888 60.9292 698.154 59.6598 698.154C59.2212 698.154 58.5258 698.112 57.5738 698.028L57.0978 697.986V688.088H58.6098V691.266C59.2538 690.986 59.8372 690.846 60.3598 690.846ZM59.6598 696.796C60.4065 696.796 60.9012 696.623 61.1438 696.278C61.3958 695.923 61.5218 695.326 61.5218 694.486C61.5218 693.646 61.4145 693.058 61.1998 692.722C60.9945 692.377 60.6538 692.204 60.1778 692.204C59.7298 692.204 59.2818 692.274 58.8338 692.414L58.6098 692.484V696.74C59.1232 696.777 59.4732 696.796 59.6598 696.796ZM64.6037 698V691H66.1297V698H64.6037ZM64.6037 689.81V688.2H66.1297V689.81H64.6037ZM68.0646 698V688.088H69.5906V698H68.0646ZM71.5217 698V691H73.0477V698H71.5217ZM71.5217 689.81V688.2H73.0477V689.81H71.5217ZM78.6646 692.302H76.7326V695.382C76.7326 695.951 76.7746 696.329 76.8586 696.516C76.9426 696.703 77.1573 696.796 77.5026 696.796L78.6506 696.754L78.7206 697.972C78.0953 698.093 77.6193 698.154 77.2926 698.154C76.4993 698.154 75.9533 697.972 75.6546 697.608C75.3653 697.244 75.2206 696.558 75.2206 695.55V692.302H74.3246V691H75.2206V688.97H76.7326V691H78.6646V692.302ZM79.2722 691H80.7702L82.2542 696.698H82.6322L84.1162 691H85.6282L82.9682 701.01H81.4702L82.3102 698H81.1062L79.2722 691ZM94.741 692.442C93.6397 692.293 92.8417 692.218 92.347 692.218C91.8523 692.218 91.507 692.279 91.311 692.4C91.1243 692.512 91.031 692.694 91.031 692.946C91.031 693.198 91.1337 693.375 91.339 693.478C91.5537 693.581 92.0483 693.702 92.823 693.842C93.607 693.973 94.1623 694.183 94.489 694.472C94.8157 694.761 94.979 695.275 94.979 696.012C94.979 696.749 94.741 697.291 94.265 697.636C93.7983 697.981 93.1123 698.154 92.207 698.154C91.6377 698.154 90.919 698.075 90.051 697.916L89.617 697.846L89.673 696.572C90.793 696.721 91.6003 696.796 92.095 696.796C92.5897 696.796 92.9397 696.735 93.145 696.614C93.3597 696.493 93.467 696.292 93.467 696.012C93.467 695.732 93.3643 695.541 93.159 695.438C92.963 695.326 92.4823 695.209 91.717 695.088C90.961 694.957 90.4057 694.757 90.051 694.486C89.6963 694.215 89.519 693.721 89.519 693.002C89.519 692.283 89.7617 691.747 90.247 691.392C90.7417 691.037 91.3717 690.86 92.137 690.86C92.7343 690.86 93.467 690.935 94.335 691.084L94.769 691.168L94.741 692.442ZM100.211 692.302H98.2795V695.382C98.2795 695.951 98.3215 696.329 98.4055 696.516C98.4895 696.703 98.7042 696.796 99.0495 696.796L100.197 696.754L100.267 697.972C99.6422 698.093 99.1662 698.154 98.8395 698.154C98.0462 698.154 97.5002 697.972 97.2015 697.608C96.9122 697.244 96.7675 696.558 96.7675 695.55V692.302H95.8715V691H96.7675V688.97H98.2795V691H100.211V692.302ZM106.643 693.156V696.348C106.652 696.553 106.704 696.707 106.797 696.81C106.9 696.903 107.054 696.964 107.259 696.992L107.217 698.154C106.414 698.154 105.794 697.981 105.355 697.636C104.608 697.981 103.857 698.154 103.101 698.154C101.71 698.154 101.015 697.412 101.015 695.928C101.015 695.219 101.202 694.705 101.575 694.388C101.958 694.071 102.541 693.879 103.325 693.814L105.131 693.66V693.156C105.131 692.783 105.047 692.521 104.879 692.372C104.72 692.223 104.482 692.148 104.165 692.148C103.568 692.148 102.821 692.185 101.925 692.26L101.477 692.288L101.421 691.21C102.438 690.967 103.372 690.846 104.221 690.846C105.08 690.846 105.696 691.033 106.069 691.406C106.452 691.77 106.643 692.353 106.643 693.156ZM103.507 694.892C102.863 694.948 102.541 695.298 102.541 695.942C102.541 696.586 102.826 696.908 103.395 696.908C103.862 696.908 104.356 696.833 104.879 696.684L105.131 696.6V694.738L103.507 694.892ZM112.325 692.302H110.393V695.382C110.393 695.951 110.435 696.329 110.519 696.516C110.603 696.703 110.817 696.796 111.163 696.796L112.311 696.754L112.381 697.972C111.755 698.093 111.279 698.154 110.953 698.154C110.159 698.154 109.613 697.972 109.315 697.608C109.025 697.244 108.881 696.558 108.881 695.55V692.302H107.985V691H108.881V688.97H110.393V691H112.325V692.302ZM118.56 696.74L118.952 696.698L118.98 697.832C117.916 698.047 116.974 698.154 116.152 698.154C115.116 698.154 114.37 697.869 113.912 697.3C113.464 696.731 113.24 695.821 113.24 694.57C113.24 692.087 114.253 690.846 116.278 690.846C118.238 690.846 119.218 691.915 119.218 694.052L119.12 695.144H114.78C114.79 695.723 114.916 696.147 115.158 696.418C115.401 696.689 115.854 696.824 116.516 696.824C117.179 696.824 117.86 696.796 118.56 696.74ZM117.72 693.968C117.72 693.277 117.608 692.797 117.384 692.526C117.17 692.246 116.801 692.106 116.278 692.106C115.756 692.106 115.373 692.251 115.13 692.54C114.897 692.829 114.776 693.305 114.766 693.968H117.72ZM122.212 698H120.686V691H122.198V691.434C122.86 691.042 123.467 690.846 124.018 690.846C124.83 690.846 125.422 691.075 125.796 691.532C126.645 691.075 127.49 690.846 128.33 690.846C129.17 690.846 129.762 691.107 130.108 691.63C130.453 692.143 130.626 693.016 130.626 694.248V698H129.114V694.29C129.114 693.534 129.034 692.997 128.876 692.68C128.726 692.363 128.409 692.204 127.924 692.204C127.504 692.204 127.051 692.297 126.566 692.484L126.328 692.582C126.402 692.769 126.44 693.366 126.44 694.374V698H124.928V694.402C124.928 693.571 124.853 692.997 124.704 692.68C124.554 692.363 124.228 692.204 123.724 692.204C123.257 692.204 122.823 692.297 122.422 692.484L122.212 692.568V698ZM137.4 696.74L137.792 696.698L137.82 697.832C136.756 698.047 135.814 698.154 134.992 698.154C133.956 698.154 133.21 697.869 132.752 697.3C132.304 696.731 132.08 695.821 132.08 694.57C132.08 692.087 133.093 690.846 135.118 690.846C137.078 690.846 138.058 691.915 138.058 694.052L137.96 695.144H133.62C133.63 695.723 133.756 696.147 133.998 696.418C134.241 696.689 134.694 696.824 135.356 696.824C136.019 696.824 136.7 696.796 137.4 696.74ZM136.56 693.968C136.56 693.277 136.448 692.797 136.224 692.526C136.01 692.246 135.641 692.106 135.118 692.106C134.596 692.106 134.213 692.251 133.97 692.54C133.737 692.829 133.616 693.305 133.606 693.968H136.56ZM141.052 698H139.526V691H141.038V691.434C141.719 691.042 142.363 690.846 142.97 690.846C143.903 690.846 144.538 691.112 144.874 691.644C145.219 692.167 145.392 693.035 145.392 694.248V698H143.88V694.29C143.88 693.534 143.796 692.997 143.628 692.68C143.469 692.363 143.138 692.204 142.634 692.204C142.158 692.204 141.7 692.297 141.262 692.484L141.052 692.568V698ZM150.934 692.302H149.002V695.382C149.002 695.951 149.044 696.329 149.128 696.516C149.212 696.703 149.427 696.796 149.772 696.796L150.92 696.754L150.99 697.972C150.365 698.093 149.889 698.154 149.562 698.154C148.769 698.154 148.223 697.972 147.924 697.608C147.635 697.244 147.49 696.558 147.49 695.55V692.302H146.594V691H147.49V688.97H149.002V691H150.934V692.302Z" fill="white"/>
<path d="M12 699.54H81.3456V699.96H12V699.54ZM83.7794 699.54H151.256V699.96H83.7794V699.54Z" fill="white"/>
</g>
<defs>
<clipPath id="clip0_4177_47339">
<rect width="360" height="733" fill="white"/>
</clipPath>
<clipPath id="clip1_4177_47339">
<rect width="47" height="24" fill="white" transform="translate(301 12)"/>
</clipPath>
</defs>
</svg>
