<svg width="1440" height="1335" viewBox="0 0 1440 1335" fill="none" xmlns="http://www.w3.org/2000/svg">
<g clip-path="url(#clip0_4184_75684)">
<rect width="1440" height="1335" fill="white"/>
<rect width="1440" height="52" fill="#004D99"/>
<text fill="white" style="white-space: pre" xml:space="preserve" font-family="Titillium Web" font-size="18" letter-spacing="0em"><tspan x="72" y="32.705">Ente appartenenza</tspan></text>
<g clip-path="url(#clip1_4184_75684)">
<text fill="white" style="white-space: pre" xml:space="preserve" font-family="Titillium Web" font-size="14" font-weight="600" letter-spacing="0em"><tspan x="1321" y="31.215">ITA</tspan></text>
<path d="M1356 29.1998L1350.4 23.5998L1351.1 22.7998L1356 27.6998L1360.9 22.7998L1361.6 23.5998L1356 29.1998Z" fill="white"/>
</g>
<rect width="1440" height="93" transform="translate(0 52)" fill="#F2F7FC"/>
<rect x="72.5" y="69" width="208.024" height="59" fill="#F2F7FC"/>
<rect x="72.5" y="69" width="208.024" height="59" stroke="#C5C7C9"/>
<line x1="73.1952" y1="69.3953" x2="280.12" y2="127.049" stroke="#C5C7C9"/>
<path d="M239.621 103.54C240.181 104.51 241.217 104.996 242.729 104.996C244.241 104.996 245.268 104.51 245.809 103.54C246.369 102.55 246.649 100.908 246.649 98.6116C246.649 96.2969 246.369 94.6169 245.809 93.5716C245.249 92.5262 244.222 92.0036 242.729 92.0036C241.236 92.0036 240.209 92.5262 239.649 93.5716C239.089 94.6169 238.809 96.2969 238.809 98.6116C238.809 100.908 239.08 102.55 239.621 103.54ZM248.833 106.004C247.657 107.572 245.622 108.356 242.729 108.356C239.836 108.356 237.792 107.572 236.597 106.004C235.421 104.417 234.833 101.944 234.833 98.5836C234.833 95.2236 235.421 92.7316 236.597 91.1076C237.792 89.4649 239.836 88.6436 242.729 88.6436C245.622 88.6436 247.657 89.4649 248.833 91.1076C250.028 92.7316 250.625 95.2236 250.625 98.5836C250.625 101.944 250.028 104.417 248.833 106.004Z" fill="black"/>
<path d="M226.48 101.188V97.8276H232.024V107.712C229.354 108.141 227.189 108.356 225.528 108.356C222.56 108.356 220.516 107.562 219.396 105.976C218.294 104.389 217.744 101.869 217.744 98.4156C217.744 94.9622 218.322 92.4702 219.48 90.9396C220.637 89.4089 222.606 88.6436 225.388 88.6436C227.124 88.6436 229 88.8396 231.016 89.2316L232.024 89.4276L231.912 92.4236C229.672 92.1809 227.833 92.0596 226.396 92.0596C224.977 92.0596 223.978 92.2276 223.4 92.5636C222.821 92.8996 222.392 93.5249 222.112 94.4396C221.85 95.3356 221.72 96.8849 221.72 99.0876C221.72 101.272 221.99 102.802 222.532 103.68C223.073 104.557 224.193 104.996 225.892 104.996L228.216 104.884V101.188H226.48Z" fill="black"/>
<path d="M204.238 103.54C204.798 104.51 205.834 104.996 207.346 104.996C208.858 104.996 209.885 104.51 210.426 103.54C210.986 102.55 211.266 100.908 211.266 98.6116C211.266 96.2969 210.986 94.6169 210.426 93.5716C209.866 92.5262 208.84 92.0036 207.346 92.0036C205.853 92.0036 204.826 92.5262 204.266 93.5716C203.706 94.6169 203.426 96.2969 203.426 98.6116C203.426 100.908 203.697 102.55 204.238 103.54ZM213.45 106.004C212.274 107.572 210.24 108.356 207.346 108.356C204.453 108.356 202.409 107.572 201.214 106.004C200.038 104.417 199.45 101.944 199.45 98.5836C199.45 95.2236 200.038 92.7316 201.214 91.1076C202.409 89.4649 204.453 88.6436 207.346 88.6436C210.24 88.6436 212.274 89.4649 213.45 91.1076C214.645 92.7316 215.242 95.2236 215.242 98.5836C215.242 101.944 214.645 104.417 213.45 106.004Z" fill="black"/>
<path d="M198.083 108.019H187.247V88.9795H191.111V104.603H198.083V108.019Z" fill="black"/>
<path d="M166.777 103.54C167.337 104.51 168.373 104.996 169.885 104.996C171.397 104.996 172.424 104.51 172.965 103.54C173.525 102.55 173.805 100.908 173.805 98.6116C173.805 96.2969 173.525 94.6169 172.965 93.5716C172.405 92.5262 171.379 92.0036 169.885 92.0036C168.392 92.0036 167.365 92.5262 166.805 93.5716C166.245 94.6169 165.965 96.2969 165.965 98.6116C165.965 100.908 166.236 102.55 166.777 103.54ZM175.989 106.004C174.813 107.572 172.779 108.356 169.885 108.356C166.992 108.356 164.948 107.572 163.753 106.004C162.577 104.417 161.989 101.944 161.989 98.5836C161.989 95.2236 162.577 92.7316 163.753 91.1076C164.948 89.4649 166.992 88.6436 169.885 88.6436C172.779 88.6436 174.813 89.4649 175.989 91.1076C177.184 92.7316 177.781 95.2236 177.781 98.5836C177.781 101.944 177.184 104.417 175.989 106.004Z" fill="black"/>
<path d="M148.205 101.663C148.205 103.885 149.334 104.995 151.593 104.995C153.851 104.995 154.981 103.885 154.981 101.663V88.9795H158.845V101.579C158.845 103.913 158.238 105.63 157.025 106.731C155.83 107.814 154.019 108.355 151.593 108.355C149.166 108.355 147.346 107.814 146.133 106.731C144.938 105.63 144.341 103.913 144.341 101.579V88.9795H148.205V101.663Z" fill="black"/>
<path d="M128.062 92.3955V88.9795H142.062V92.3955H137.023V108.019H133.159V92.3955H128.062Z" fill="black"/>
<path d="M121.247 108.019H110.411V88.9795H114.275V104.603H121.247V108.019Z" fill="black"/>
<path d="M102.399 108.019V88.9795H106.263V108.019H102.399Z" fill="black"/>
<text fill="#1A1A1A" style="white-space: pre" xml:space="preserve" font-family="Titillium Web" font-size="32" font-weight="bold" letter-spacing="0px"><tspan x="512.594" y="199.92">Accedi con un&#x2019;identit&#xe0; digitale</tspan></text>
<g filter="url(#filter0_d_4184_75684)">
<rect x="157" y="231" width="259.667" height="535" rx="4" fill="white"/>
<text fill="#2F475E" style="white-space: pre" xml:space="preserve" font-family="Titillium Web" font-size="28" font-weight="600" letter-spacing="0px"><tspan x="181" y="282.43">IT-Wallet</tspan></text>
<rect x="181" y="313" width="211.667" height="48" rx="4" fill="#0066CC"/>
<g clip-path="url(#clip2_4184_75684)">
<path d="M214.471 325.118C214.326 325.036 214.171 324.999 214.021 325C213.547 325.004 213.112 325.384 213.114 325.913L213.141 330.757L206.372 326.961C206.226 326.878 206.071 326.842 205.921 326.843C205.447 326.846 205.016 327.226 205.015 327.755L205 343.722C205 344.443 205.324 345.071 206.018 345.46L212.103 348.882C212.249 348.964 212.404 349.001 212.554 349C213.028 348.996 213.46 348.616 213.46 348.087V331.714L216.677 333.504C217.372 333.891 217.695 334.521 217.695 335.242V344.836L223.712 348.211C223.859 348.293 224.014 348.33 224.164 348.329C224.638 348.325 225.07 347.945 225.07 347.416L225.076 332.234C225.076 331.513 224.752 330.885 224.058 330.496L214.471 325.118Z" fill="white"/>
</g>
<text fill="white" style="white-space: pre" xml:space="preserve" font-family="Titillium Web" font-size="16" font-weight="600" letter-spacing="0em"><tspan x="243.324" y="342.96">Entra con IT-Wallet</tspan></text>
<text fill="#0066CC" style="white-space: pre" xml:space="preserve" font-family="Titillium Web" font-size="14" font-weight="600" letter-spacing="0em" text-decoration="underline"><tspan x="181" y="390.215">Scopri di pi&#xf9;</tspan></text>
<path d="M274 388.2L268.4 382.6L269.1 381.8L274 386.7L278.9 381.8L279.6 382.6L274 388.2Z" fill="#0066CC"/>
<text fill="#2F475E" style="white-space: pre" xml:space="preserve" font-family="Titillium Web" font-size="18" letter-spacing="0em"><tspan x="181" y="429.205">IT-Wallet &#xe8; il sistema </tspan><tspan x="181" y="456.205">italiano di portafogli digitali </tspan><tspan x="181" y="483.205">che ti permette di </tspan><tspan x="181" y="510.205">autenticarti online e di </tspan><tspan x="181" y="537.205">accedere a servizi pubblici e </tspan><tspan x="181" y="564.205">privati in modo sicuro e </tspan><tspan x="181" y="591.205">veloce, utilizzando i dati, i </tspan><tspan x="181" y="618.205">documenti e le qualifiche </tspan><tspan x="181" y="645.205">che puoi ottenere in digitale </tspan><tspan x="181" y="672.205">in uno dei portafogli che ne </tspan><tspan x="181" y="699.205">fanno parte.</tspan></text>
<text fill="#0066CC" style="white-space: pre" xml:space="preserve" font-family="Titillium Web" font-size="14" font-weight="600" letter-spacing="0em" text-decoration="underline"><tspan x="181" y="735.215">Scopri come ottenerlo</tspan></text>
<path d="M331 724C331.274 724.005 331.495 724.226 331.5 724.5C331.5 724.776 331.276 725 331 725H326C324.895 725 324 725.895 324 727V736C324 737.105 324.895 738 326 738H335.01C336.114 738 337.01 737.105 337.01 736V730.5C337.01 730.224 337.234 730 337.51 730C337.778 730.005 337.995 730.222 338 730.49V736C338 737.657 336.657 739 335 739H326C324.343 739 323 737.657 323 736V727C323 725.343 324.343 724 326 724H331ZM339 722C339.552 722 340 722.448 340 723V728.5C340 728.776 339.776 729 339.5 729C339.224 729 339 728.776 339 728.5V723.614L330.538 732.076C330.343 732.271 330.026 732.271 329.831 732.076C329.636 731.881 329.636 731.564 329.831 731.369L338.2 723H333.5C333.224 723 333 722.776 333 722.5C333 722.224 333.224 722 333.5 722H339Z" fill="#0066CC"/>
</g>
<g filter="url(#filter1_d_4184_75684)">
<rect x="440.667" y="231" width="259.667" height="535" rx="4" fill="white"/>
<text fill="#17324D" style="white-space: pre" xml:space="preserve" font-family="Titillium Web" font-size="28" font-weight="600" letter-spacing="0px"><tspan x="464.667" y="282.43">CIE</tspan></text>
<rect width="211.667" height="48" transform="translate(464.667 313)" fill="#0066CC"/>
<path fill-rule="evenodd" clip-rule="evenodd" d="M484.931 328.881C486.262 328.94 487.593 329.495 488.708 330.223C494.816 334.211 494.835 343.648 488.277 347.25V347.361C490.444 347.795 492.588 348.34 494.752 348.786C495.672 348.976 496.728 349.307 497.375 348.358C498.039 347.383 497.27 346.465 497.426 345.469C497.609 344.313 498.591 344.253 497.882 343.02C499.308 342.602 498.018 341.535 498.358 340.683C498.772 339.647 500.313 339.654 500.632 338.456C500.816 337.76 500.223 336.975 499.851 336.452C498.962 335.2 497.312 333.924 497.054 332.333C496.87 331.201 497.255 330.114 497.233 328.993C497.217 328.173 496.891 327.409 496.608 326.655C496.431 326.184 496.262 325.37 495.809 325.1C495.288 324.79 494.492 325.283 493.997 325.465C492.458 326.03 490.906 326.567 489.356 327.1C488.345 327.448 487.346 327.829 486.334 328.176C485.856 328.341 485.239 328.45 484.931 328.881Z" fill="white"/>
<path fill-rule="evenodd" clip-rule="evenodd" d="M481.396 346.143V338.907H482.368V346.143H481.396ZM483.663 346.143V338.907C483.949 338.907 484.269 338.888 484.605 338.868C485.765 338.799 487.121 338.718 487.959 339.365C489.438 340.504 489.256 344.695 487.763 345.731C486.93 346.309 485.664 346.239 484.565 346.178C484.245 346.16 483.939 346.143 483.663 346.143ZM484.779 345.146V339.915C484.924 339.915 485.087 339.906 485.258 339.896C485.899 339.861 486.661 339.819 487.11 340.215C488.018 341.015 487.917 343.996 487.033 344.766C486.533 345.201 485.824 345.177 485.178 345.155C485.041 345.151 484.907 345.146 484.779 345.146Z" fill="white"/>
<path fill-rule="evenodd" clip-rule="evenodd" d="M481.557 337.399V336.508C480.646 336.508 479.456 336.907 478.647 336.318C477.509 335.491 477.513 331.957 478.647 331.132C479.465 330.537 480.641 330.935 481.557 330.942V330.051C480.338 329.952 478.749 329.436 477.683 330.336C476.332 331.476 476.32 335.957 477.691 337.087C478.75 337.96 480.344 337.557 481.557 337.399Z" fill="white"/>
<path fill-rule="evenodd" clip-rule="evenodd" d="M482.528 329.828V330.942H483.607V329.828H482.528Z" fill="white"/>
<path fill-rule="evenodd" clip-rule="evenodd" d="M489.004 336.619V337.399C488.74 337.421 488.473 337.461 488.203 337.501C487.641 337.585 487.072 337.67 486.521 337.589C484.375 337.269 483.983 333.616 485.554 332.325C486.675 331.403 488.697 331.943 489.056 333.391C489.18 333.895 489.155 334.355 489.128 334.846C489.122 334.953 489.116 335.062 489.112 335.172H485.766C485.845 336.744 487.202 336.687 488.405 336.636C488.612 336.628 488.814 336.619 489.004 336.619ZM485.874 334.282H488.032C487.995 332.471 485.911 332.471 485.874 334.282Z" fill="white"/>
<path d="M483.601 332.055H482.527V337.545H483.601V332.055Z" fill="white"/>
<line x1="513.167" y1="317" x2="513.167" y2="357" stroke="white"/>
<text fill="white" style="white-space: pre" xml:space="preserve" font-family="Titillium Web" font-size="16" font-weight="600" letter-spacing="0em"><tspan x="537.351" y="342.96">Entra con CIE</tspan></text>
<text fill="#0066CC" style="white-space: pre" xml:space="preserve" font-family="Titillium Web" font-size="14" font-weight="600" letter-spacing="0em" text-decoration="underline"><tspan x="464.667" y="390.215">Scopri di pi&#xf9;</tspan></text>
<path d="M557.666 388.2L552.066 382.6L552.766 381.8L557.666 386.7L562.566 381.8L563.266 382.6L557.666 388.2Z" fill="#0066CC"/>
<text fill="#17324D" style="white-space: pre" xml:space="preserve" font-family="Titillium Web" font-size="18" letter-spacing="0em"><tspan x="464.667" y="429.205">La&#xa0;Carta di Identit&#xe0; </tspan><tspan x="464.667" y="456.205">Elettronica (CIE)&#xa0;&#xe8; il </tspan><tspan x="464.667" y="483.205">documento personale che </tspan><tspan x="464.667" y="510.205">attesta l&#39;identit&#xe0; del </tspan><tspan x="464.667" y="537.205">cittadino. Dotata di </tspan><tspan x="464.667" y="564.205">microprocessore, oltre a </tspan><tspan x="464.667" y="591.205">comprovare l&#39;identit&#xe0; </tspan><tspan x="464.667" y="618.205">personale, permette </tspan><tspan x="464.667" y="645.205">l&#39;accesso ai servizi digitali </tspan><tspan x="464.667" y="672.205">della Pubblica </tspan><tspan x="464.667" y="699.205">Amministrazione.</tspan></text>
<text fill="#0066CC" style="white-space: pre" xml:space="preserve" font-family="Titillium Web" font-size="14" font-weight="600" letter-spacing="0em" text-decoration="underline"><tspan x="464.667" y="735.215">Scopri come ottenerla</tspan></text>
<path d="M614.667 724C614.94 724.005 615.161 724.226 615.167 724.5C615.167 724.776 614.943 725 614.667 725H609.667C608.562 725 607.667 725.895 607.667 727V736C607.667 737.105 608.562 738 609.667 738H618.676C619.781 738 620.676 737.105 620.676 736V730.5C620.676 730.224 620.9 730 621.176 730C621.445 730.005 621.661 730.222 621.667 730.49V736C621.667 737.657 620.323 739 618.667 739H609.667C608.01 739 606.667 737.657 606.667 736V727C606.667 725.343 608.01 724 609.667 724H614.667ZM622.667 722C623.219 722 623.667 722.448 623.667 723V728.5C623.667 728.776 623.443 729 623.167 729C622.89 729 622.667 728.776 622.667 728.5V723.614L614.205 732.076C614.009 732.271 613.693 732.271 613.498 732.076C613.302 731.881 613.302 731.564 613.498 731.369L621.867 723H617.167C616.89 723 616.667 722.776 616.667 722.5C616.667 722.224 616.89 722 617.167 722H622.667Z" fill="#0066CC"/>
</g>
<g filter="url(#filter2_d_4184_75684)">
<rect x="724.333" y="231" width="259.667" height="490" rx="4" fill="white"/>
<text fill="#17324D" style="white-space: pre" xml:space="preserve" font-family="Titillium Web" font-size="28" font-weight="600" letter-spacing="0px"><tspan x="748.333" y="282.43">SPID</tspan></text>
<rect width="211.667" height="48" transform="translate(748.333 313)" fill="#0066CC"/>
<g clip-path="url(#clip3_4184_75684)">
<path fill-rule="evenodd" clip-rule="evenodd" d="M772.333 349C778.962 349 784.333 343.629 784.333 337C784.333 330.371 778.962 325 772.333 325C765.709 325 760.333 330.371 760.333 337C760.333 343.629 765.709 349 772.333 349ZM774.793 340.468C774.172 339.786 773.359 339.45 772.362 339.45C771.353 339.45 770.536 339.782 769.895 340.443C769.298 341.064 768.977 341.831 768.939 342.749L775.732 342.98C775.732 341.983 775.417 341.15 774.793 340.468ZM774.793 332.041C774.168 331.359 773.355 331.025 772.358 331.025C771.358 331.025 770.54 331.355 769.899 332.017C769.258 332.678 768.935 333.508 768.935 334.509C768.935 335.505 769.258 336.343 769.903 337.017C770.548 337.695 771.369 338.029 772.366 338.029C773.363 338.029 774.168 337.695 774.793 337.037C775.418 336.376 775.732 335.546 775.732 334.554C775.732 333.553 775.418 332.719 774.793 332.041Z" fill="white"/>
</g>
<line x1="796.833" y1="317" x2="796.833" y2="357" stroke="white"/>
<text fill="white" style="white-space: pre" xml:space="preserve" font-family="Titillium Web" font-size="16" font-weight="600" letter-spacing="0em"><tspan x="815.597" y="342.96">Entra con SPID</tspan></text>
<text fill="#0066CC" style="white-space: pre" xml:space="preserve" font-family="Titillium Web" font-size="14" font-weight="600" letter-spacing="0em" text-decoration="underline"><tspan x="748.333" y="390.215">Scopri di pi&#xf9;</tspan></text>
<path d="M841.333 388.2L835.733 382.6L836.433 381.8L841.333 386.7L846.233 381.8L846.933 382.6L841.333 388.2Z" fill="#0066CC"/>
<text fill="#17324D" style="white-space: pre" xml:space="preserve" font-family="Titillium Web" font-size="18" letter-spacing="0em"><tspan x="748.333" y="429.705">SPID, il&#xa0;Sistema Pubblico di </tspan><tspan x="748.333" y="457.705">Identit&#xe0; Digitale, &#xe8; il </tspan><tspan x="748.333" y="485.705">sistema di accesso che </tspan><tspan x="748.333" y="513.705">consente di utilizzare i </tspan><tspan x="748.333" y="541.705">servizi online della Pubblica </tspan><tspan x="748.333" y="569.705">Amministrazione e dei </tspan><tspan x="748.333" y="597.705">privati accreditati. Se ne sei </tspan><tspan x="748.333" y="625.705">in possesso, accedi con le </tspan><tspan x="748.333" y="653.705">credenziali del tuo gestore.</tspan></text>
<text fill="#0066CC" style="white-space: pre" xml:space="preserve" font-family="Titillium Web" font-size="14" font-weight="600" letter-spacing="0em" text-decoration="underline"><tspan x="748.333" y="690.215">Scopri come ottenerlo</tspan></text>
<path d="M898.333 679C898.607 679.005 898.828 679.226 898.833 679.5C898.833 679.776 898.61 680 898.333 680H893.333C892.229 680 891.333 680.895 891.333 682V691C891.333 692.105 892.229 693 893.333 693H902.343C903.448 693 904.343 692.105 904.343 691V685.5C904.343 685.224 904.567 685 904.843 685C905.112 685.005 905.328 685.222 905.333 685.49V691C905.333 692.657 903.99 694 902.333 694H893.333C891.677 694 890.333 692.657 890.333 691V682C890.333 680.343 891.677 679 893.333 679H898.333ZM906.333 677C906.886 677 907.333 677.448 907.333 678V683.5C907.333 683.776 907.11 684 906.833 684C906.557 684 906.333 683.776 906.333 683.5V678.614L897.872 687.076C897.676 687.271 897.36 687.271 897.165 687.076C896.969 686.881 896.969 686.564 897.165 686.369L905.534 678H900.833C900.557 678 900.333 677.776 900.333 677.5C900.333 677.224 900.557 677 900.833 677H906.333Z" fill="#0066CC"/>
</g>
<g filter="url(#filter3_d_4184_75684)">
<rect x="1008" y="231" width="275" height="434" rx="4" fill="white"/>
<text fill="#17324D" style="white-space: pre" xml:space="preserve" font-family="Titillium Web" font-size="28" font-weight="600" letter-spacing="0px"><tspan x="1032" y="282.43">European digital ID</tspan></text>
<rect x="1032" y="313" width="215.5" height="48" rx="8" fill="#005EAC"/>
<g clip-path="url(#clip4_4184_75684)">
<path d="M1061 352.867C1069.76 352.867 1076.87 345.763 1076.87 337C1076.87 328.238 1069.76 321.134 1061 321.134C1052.24 321.134 1045.13 328.238 1045.13 337C1045.13 345.763 1052.24 352.867 1061 352.867Z" fill="#005EAC"/>
<path d="M1061 320.634C1070.04 320.634 1077.37 327.961 1077.37 337C1077.37 346.039 1070.04 353.367 1061 353.367C1051.96 353.367 1044.63 346.039 1044.63 337C1044.63 327.961 1051.96 320.634 1061 320.634Z" stroke="white" stroke-opacity="0.9"/>
<path d="M1054.16 346.747L1054.68 348.334H1056.35L1054.99 349.308L1055.52 350.895L1054.16 349.92L1052.82 350.895L1053.34 349.308L1051.98 348.334H1053.66L1054.16 346.747Z" fill="#F3CC23"/>
<path d="M1049.33 328.002L1049.85 329.589H1051.5L1050.17 330.563L1050.69 332.15L1049.33 331.153L1047.99 332.15L1048.51 330.563L1047.15 329.589H1048.83L1049.33 328.002Z" fill="#F3CC23"/>
<path d="M1054.15 323.105L1054.65 324.669H1056.33L1054.97 325.667L1055.49 327.253L1054.15 326.256L1052.79 327.253L1053.32 325.667L1051.96 324.669H1053.63L1054.15 323.105Z" fill="#F3CC23"/>
<path d="M1061 321.247L1061.52 322.834H1063.18L1061.84 323.808L1062.36 325.395L1061 324.42L1059.66 325.395L1060.16 323.808L1058.82 322.834H1060.48L1061 321.247Z" fill="#F3CC23"/>
<path d="M1067.78 323.105L1068.3 324.692H1069.95L1068.62 325.667L1069.14 327.253L1067.78 326.279L1066.44 327.253L1066.94 325.667L1065.6 324.692H1067.28L1067.78 323.105Z" fill="#F3CC23"/>
<path d="M1072.76 328.093L1073.29 329.679H1074.96L1073.6 330.654L1074.12 332.241L1072.76 331.266L1071.43 332.241L1071.95 330.654L1070.59 329.679H1072.27L1072.76 328.093Z" fill="#F3CC23"/>
<path d="M1074.62 334.961L1075.14 336.548H1076.8L1075.46 337.522L1075.96 339.109L1074.62 338.112L1073.29 339.109L1073.78 337.522L1072.45 336.548H1074.1L1074.62 334.961Z" fill="#F3CC23"/>
<path d="M1072.76 341.828L1073.29 343.415H1074.94L1073.6 344.389L1074.12 345.976L1072.76 345.001L1071.43 345.976L1071.93 344.389L1070.59 343.415H1072.24L1072.76 341.828Z" fill="#F3CC23"/>
<path d="M1067.78 346.792L1068.3 348.379H1069.95L1068.62 349.353L1069.11 350.94L1067.78 349.965L1066.44 350.94L1066.94 349.353L1065.6 348.379H1067.26L1067.78 346.792Z" fill="#F3CC23"/>
<path d="M1061.02 348.605L1061.54 350.192H1063.2L1061.86 351.167L1062.36 352.753L1061.02 351.779L1059.66 352.753L1060.18 351.167L1058.85 350.192H1060.5L1061.02 348.605Z" fill="#F3CC23"/>
<path d="M1049.28 341.806L1049.78 343.392H1051.46L1050.1 344.367L1050.62 345.954L1049.28 344.956L1047.92 345.954L1048.44 344.367L1047.08 343.392H1048.76L1049.28 341.806Z" fill="#F3CC23"/>
<path d="M1047.4 334.824L1047.92 336.434H1049.6L1048.24 337.408L1048.76 339.018L1047.4 338.02L1046.04 339.018L1046.56 337.408L1045.2 336.434H1046.88L1047.4 334.824Z" fill="#F3CC23"/>
<path d="M1061.05 338.542C1059.55 338.542 1058.33 338.043 1057.35 337.023C1056.38 336.003 1055.9 334.756 1055.9 333.26C1055.9 331.764 1056.38 330.518 1057.35 329.52C1058.3 328.523 1059.55 328.024 1061.05 328.024C1062.54 328.024 1063.77 328.523 1064.7 329.543C1065.62 330.563 1066.1 331.81 1066.1 333.306C1066.1 334.802 1065.62 336.048 1064.7 337.046C1063.77 338.043 1062.54 338.542 1061.05 338.542Z" fill="white"/>
<path d="M1055.9 345.909C1055.9 344.413 1056.38 343.166 1057.35 342.169C1058.33 341.172 1059.55 340.673 1061.05 340.673C1062.54 340.673 1063.77 341.172 1064.7 342.192C1065.62 343.212 1066.1 344.458 1066.1 345.954" fill="white"/>
</g>
<line x1="1090.5" y1="317" x2="1090.5" y2="357" stroke="#004D99"/>
<text fill="white" style="white-space: pre" xml:space="preserve" font-family="Titillium Web" font-size="16" font-weight="600" letter-spacing="0em"><tspan x="1099.07" y="342.96">Login with eIDAS</tspan></text>
<text fill="#0066CC" style="white-space: pre" xml:space="preserve" font-family="Titillium Web" font-size="14" font-weight="600" letter-spacing="0em" text-decoration="underline"><tspan x="1032" y="390.215">Learn more</tspan></text>
<path d="M1120 388.2L1114.4 382.6L1115.1 381.8L1120 386.7L1124.9 381.8L1125.6 382.6L1120 388.2Z" fill="#0066CC"/>
<text fill="#17324D" style="white-space: pre" xml:space="preserve" font-family="Titillium Web" font-size="18" letter-spacing="0em"><tspan x="1032" y="429.705">Sign-in with a digital identity </tspan><tspan x="1032" y="457.705">from another European </tspan><tspan x="1032" y="485.705">Country including Iceland, </tspan><tspan x="1032" y="513.705">Liechtenstein and Norway, </tspan><tspan x="1032" y="541.705">and third country nationals in </tspan><tspan x="1032" y="569.705">possession of a notified </tspan><tspan x="1032" y="597.705">residency card.</tspan></text>
<text fill="#0066CC" style="white-space: pre" xml:space="preserve" font-family="Titillium Web" font-size="14" font-weight="600" letter-spacing="0em" text-decoration="underline"><tspan x="1032" y="634.215">More informations</tspan></text>
<path d="M1163 623C1163.27 623.005 1163.49 623.226 1163.5 623.5C1163.5 623.776 1163.28 624 1163 624H1158C1156.9 624 1156 624.895 1156 626V635C1156 636.105 1156.9 637 1158 637H1167.01C1168.11 637 1169.01 636.105 1169.01 635V629.5C1169.01 629.224 1169.23 629 1169.51 629C1169.78 629.005 1169.99 629.222 1170 629.49V635C1170 636.657 1168.66 638 1167 638H1158C1156.34 638 1155 636.657 1155 635V626C1155 624.343 1156.34 623 1158 623H1163ZM1171 621C1171.55 621 1172 621.448 1172 622V627.5C1172 627.776 1171.78 628 1171.5 628C1171.22 628 1171 627.776 1171 627.5V622.614L1162.54 631.076C1162.34 631.271 1162.03 631.271 1161.83 631.076C1161.64 630.881 1161.64 630.564 1161.83 630.369L1170.2 622H1165.5C1165.22 622 1165 621.776 1165 621.5C1165 621.224 1165.22 621 1165.5 621H1171Z" fill="#0066CC"/>
</g>
<text fill="#2F475E" style="white-space: pre" xml:space="preserve" font-family="Titillium Web" font-size="24" font-weight="600" letter-spacing="0px"><tspan x="576.5" y="837.44">Non hai un&#x2019;identit&#xe0; digitale?</tspan></text>
<text fill="#0066CC" style="white-space: pre" xml:space="preserve" font-family="Titillium Web" font-size="14" font-weight="600" letter-spacing="0em" text-decoration="underline"><tspan x="638.5" y="876.215">Scopri come ottenerla</tspan></text>
<path d="M788.5 865C788.774 865.005 788.995 865.226 789 865.5C789 865.776 788.776 866 788.5 866H783.5C782.395 866 781.5 866.895 781.5 868V877C781.5 878.105 782.395 879 783.5 879H792.51C793.614 879 794.51 878.105 794.51 877V871.5C794.51 871.224 794.734 871 795.01 871C795.278 871.005 795.495 871.222 795.5 871.49V877C795.5 878.657 794.157 880 792.5 880H783.5C781.843 880 780.5 878.657 780.5 877V868C780.5 866.343 781.843 865 783.5 865H788.5ZM796.5 863C797.052 863 797.5 863.448 797.5 864V869.5C797.5 869.776 797.276 870 797 870C796.724 870 796.5 869.776 796.5 869.5V864.614L788.038 873.076C787.843 873.271 787.526 873.271 787.331 873.076C787.136 872.881 787.136 872.564 787.331 872.369L795.7 864H791C790.724 864 790.5 863.776 790.5 863.5C790.5 863.224 790.724 863 791 863H796.5Z" fill="#0066CC"/>
<rect width="1440" height="340" transform="translate(0 931)" fill="#F5F5F5"/>
<text fill="#17324D" style="white-space: pre" xml:space="preserve" font-family="Titillium Web" font-size="32" font-weight="bold" letter-spacing="0px"><tspan x="490.062" y="985.92">Accedi con un metodo alternativo</tspan></text>
<g filter="url(#filter4_d_4184_75684)">
<rect x="729" y="1037" width="268" height="186" rx="4" fill="white"/>
<text fill="#17324D" style="white-space: pre" xml:space="preserve" font-family="Titillium Web" font-size="28" font-weight="600" letter-spacing="0px"><tspan x="753" y="1088.43">{Altro metodo}</tspan></text>
<rect x="753" y="1111" width="220" height="48" rx="4" fill="#0066CC"/>
<path d="M774.06 1133.84L778.48 1129.42L774.06 1125L769.64 1129.42L774.06 1133.84ZM779.7 1139.48L784.12 1135.06L779.7 1130.64L775.28 1135.06L779.7 1139.48ZM768.42 1139.48L772.84 1135.06L768.42 1130.64L764 1135.06L768.42 1139.48ZM774.06 1145.12L778.48 1140.7L774.06 1136.28L769.64 1140.7L774.06 1145.12Z" fill="white"/>
<text fill="white" style="white-space: pre" xml:space="preserve" font-family="Titillium Web" font-size="16" font-weight="600" letter-spacing="0em"><tspan x="794.352" y="1140.96">Entra con {Altro metodo}</tspan></text>
<text fill="#0066CC" style="white-space: pre" xml:space="preserve" font-family="Titillium Web" font-size="14" font-weight="600" letter-spacing="0em" text-decoration="underline"><tspan x="753" y="1192.22">Scopri di pi&#xf9;</tspan></text>
<path d="M846 1190.2L840.4 1184.6L841.1 1183.8L846 1188.7L850.9 1183.8L851.6 1184.6L846 1190.2Z" fill="#0066CC"/>
</g>
<g filter="url(#filter5_d_4184_75684)">
<rect x="443" y="1037" width="268" height="186" rx="4" fill="white"/>
<text fill="#17324D" style="white-space: pre" xml:space="preserve" font-family="Titillium Web" font-size="28" font-weight="600" letter-spacing="0px"><tspan x="467" y="1088.43">CNS</tspan></text>
<rect width="220" height="48" transform="translate(467 1111)" fill="#0066CC"/>
<g clip-path="url(#clip5_4184_75684)">
<path fill-rule="evenodd" clip-rule="evenodd" d="M491 1147C497.629 1147 503 1141.63 503 1135C503 1128.37 497.629 1123 491 1123C484.375 1123 479 1128.37 479 1135C479 1141.63 484.375 1147 491 1147ZM493.459 1138.47C492.838 1137.79 492.025 1137.45 491.029 1137.45C490.02 1137.45 489.203 1137.78 488.562 1138.44C487.964 1139.06 487.643 1139.83 487.606 1140.75L494.399 1140.98C494.399 1139.98 494.084 1139.15 493.459 1138.47ZM493.459 1130.04C492.834 1129.36 492.021 1129.02 491.025 1129.02C490.024 1129.02 489.207 1129.36 488.566 1130.02C487.924 1130.68 487.602 1131.51 487.602 1132.51C487.602 1133.51 487.924 1134.34 488.57 1135.02C489.215 1135.69 490.036 1136.03 491.032 1136.03C492.029 1136.03 492.834 1135.69 493.459 1135.04C494.084 1134.38 494.399 1133.55 494.399 1132.55C494.399 1131.55 494.084 1130.72 493.459 1130.04Z" fill="white"/>
</g>
<line x1="515.5" y1="1115" x2="515.5" y2="1155" stroke="white"/>
<text fill="white" style="white-space: pre" xml:space="preserve" font-family="Titillium Web" font-size="16" font-weight="600" letter-spacing="0em"><tspan x="540.594" y="1140.96">Entra con CNS</tspan></text>
<text fill="#0066CC" style="white-space: pre" xml:space="preserve" font-family="Titillium Web" font-size="14" font-weight="600" letter-spacing="0em" text-decoration="underline"><tspan x="467" y="1192.22">Scopri di pi&#xf9;</tspan></text>
<path d="M560 1190.2L554.4 1184.6L555.1 1183.8L560 1188.7L564.9 1183.8L565.6 1184.6L560 1190.2Z" fill="#0066CC"/>
</g>
<mask id="path-100-inside-1_4184_75684" fill="white">
<path d="M0 1271H1440V1335H0V1271Z"/>
</mask>
<path d="M0 1271H1440V1335H0V1271Z" fill="#004D99"/>
<path d="M0 1271V1272H1440V1271V1270H0V1271Z" fill="white" fill-opacity="0.5" mask="url(#path-100-inside-1_4184_75684)"/>
<text fill="white" style="white-space: pre" xml:space="preserve" font-family="Titillium Web" font-size="14" font-weight="600" letter-spacing="0em" text-decoration="underline"><tspan x="24" y="1308.22">Note Legali</tspan></text>
<text fill="white" style="white-space: pre" xml:space="preserve" font-family="Titillium Web" font-size="14" font-weight="600" letter-spacing="0em" text-decoration="underline"><tspan x="116" y="1308.22">Privacy Policy</tspan></text>
<text fill="white" style="white-space: pre" xml:space="preserve" font-family="Titillium Web" font-size="14" font-weight="600" letter-spacing="0em" text-decoration="underline"><tspan x="223" y="1308.22">Dichiarazione Accessibilit&#xe0;</tspan></text>
</g>
<defs>
<filter id="filter0_d_4184_75684" x="141" y="223" width="291.667" height="567" filterUnits="userSpaceOnUse" color-interpolation-filters="sRGB">
<feFlood flood-opacity="0" result="BackgroundImageFix"/>
<feColorMatrix in="SourceAlpha" type="matrix" values="0 0 0 0 0 0 0 0 0 0 0 0 0 0 0 0 0 0 127 0" result="hardAlpha"/>
<feOffset dy="8"/>
<feGaussianBlur stdDeviation="8"/>
<feColorMatrix type="matrix" values="0 0 0 0 0 0 0 0 0 0 0 0 0 0 0 0 0 0 0.15 0"/>
<feBlend mode="normal" in2="BackgroundImageFix" result="effect1_dropShadow_4184_75684"/>
<feBlend mode="normal" in="SourceGraphic" in2="effect1_dropShadow_4184_75684" result="shape"/>
</filter>
<filter id="filter1_d_4184_75684" x="424.667" y="223" width="291.667" height="567" filterUnits="userSpaceOnUse" color-interpolation-filters="sRGB">
<feFlood flood-opacity="0" result="BackgroundImageFix"/>
<feColorMatrix in="SourceAlpha" type="matrix" values="0 0 0 0 0 0 0 0 0 0 0 0 0 0 0 0 0 0 127 0" result="hardAlpha"/>
<feOffset dy="8"/>
<feGaussianBlur stdDeviation="8"/>
<feColorMatrix type="matrix" values="0 0 0 0 0 0 0 0 0 0 0 0 0 0 0 0 0 0 0.15 0"/>
<feBlend mode="normal" in2="BackgroundImageFix" result="effect1_dropShadow_4184_75684"/>
<feBlend mode="normal" in="SourceGraphic" in2="effect1_dropShadow_4184_75684" result="shape"/>
</filter>
<filter id="filter2_d_4184_75684" x="708.333" y="223" width="291.667" height="522" filterUnits="userSpaceOnUse" color-interpolation-filters="sRGB">
<feFlood flood-opacity="0" result="BackgroundImageFix"/>
<feColorMatrix in="SourceAlpha" type="matrix" values="0 0 0 0 0 0 0 0 0 0 0 0 0 0 0 0 0 0 127 0" result="hardAlpha"/>
<feOffset dy="8"/>
<feGaussianBlur stdDeviation="8"/>
<feColorMatrix type="matrix" values="0 0 0 0 0 0 0 0 0 0 0 0 0 0 0 0 0 0 0.15 0"/>
<feBlend mode="normal" in2="BackgroundImageFix" result="effect1_dropShadow_4184_75684"/>
<feBlend mode="normal" in="SourceGraphic" in2="effect1_dropShadow_4184_75684" result="shape"/>
</filter>
<filter id="filter3_d_4184_75684" x="992" y="223" width="307" height="466" filterUnits="userSpaceOnUse" color-interpolation-filters="sRGB">
<feFlood flood-opacity="0" result="BackgroundImageFix"/>
<feColorMatrix in="SourceAlpha" type="matrix" values="0 0 0 0 0 0 0 0 0 0 0 0 0 0 0 0 0 0 127 0" result="hardAlpha"/>
<feOffset dy="8"/>
<feGaussianBlur stdDeviation="8"/>
<feColorMatrix type="matrix" values="0 0 0 0 0 0 0 0 0 0 0 0 0 0 0 0 0 0 0.15 0"/>
<feBlend mode="normal" in2="BackgroundImageFix" result="effect1_dropShadow_4184_75684"/>
<feBlend mode="normal" in="SourceGraphic" in2="effect1_dropShadow_4184_75684" result="shape"/>
</filter>
<filter id="filter4_d_4184_75684" x="713" y="1029" width="300" height="218" filterUnits="userSpaceOnUse" color-interpolation-filters="sRGB">
<feFlood flood-opacity="0" result="BackgroundImageFix"/>
<feColorMatrix in="SourceAlpha" type="matrix" values="0 0 0 0 0 0 0 0 0 0 0 0 0 0 0 0 0 0 127 0" result="hardAlpha"/>
<feOffset dy="8"/>
<feGaussianBlur stdDeviation="8"/>
<feColorMatrix type="matrix" values="0 0 0 0 0 0 0 0 0 0 0 0 0 0 0 0 0 0 0.15 0"/>
<feBlend mode="normal" in2="BackgroundImageFix" result="effect1_dropShadow_4184_75684"/>
<feBlend mode="normal" in="SourceGraphic" in2="effect1_dropShadow_4184_75684" result="shape"/>
</filter>
<filter id="filter5_d_4184_75684" x="427" y="1029" width="300" height="218" filterUnits="userSpaceOnUse" color-interpolation-filters="sRGB">
<feFlood flood-opacity="0" result="BackgroundImageFix"/>
<feColorMatrix in="SourceAlpha" type="matrix" values="0 0 0 0 0 0 0 0 0 0 0 0 0 0 0 0 0 0 127 0" result="hardAlpha"/>
<feOffset dy="8"/>
<feGaussianBlur stdDeviation="8"/>
<feColorMatrix type="matrix" values="0 0 0 0 0 0 0 0 0 0 0 0 0 0 0 0 0 0 0.15 0"/>
<feBlend mode="normal" in2="BackgroundImageFix" result="effect1_dropShadow_4184_75684"/>
<feBlend mode="normal" in="SourceGraphic" in2="effect1_dropShadow_4184_75684" result="shape"/>
</filter>
<clipPath id="clip0_4184_75684">
<rect width="1440" height="1335" fill="white"/>
</clipPath>
<clipPath id="clip1_4184_75684">
<rect width="47" height="24" fill="white" transform="translate(1321 14)"/>
</clipPath>
<clipPath id="clip2_4184_75684">
<rect width="20.0764" height="24" fill="white" transform="translate(205 325)"/>
</clipPath>
<clipPath id="clip3_4184_75684">
<rect width="24" height="24" fill="white" transform="translate(760.333 325)"/>
</clipPath>
<clipPath id="clip4_4184_75684">
<rect width="34" height="34" fill="white" transform="translate(1044 320)"/>
</clipPath>
<clipPath id="clip5_4184_75684">
<rect width="24" height="24" fill="white" transform="translate(479 1123)"/>
</clipPath>
</defs>
</svg>
