<svg width="1287" height="301" viewBox="0 0 1287 301" fill="none" xmlns="http://www.w3.org/2000/svg">
<rect width="1286.15" height="300.386" fill="white"/>
<rect width="1238.15" height="252.386" transform="translate(24 24)" fill="white"/>
<path d="M118.862 24.0005C120.441 23.9909 122.068 24.3763 123.599 25.2427L224.421 81.7993C231.718 85.8907 235.125 92.4956 235.125 100.072L235.058 259.732C235.058 265.296 230.514 269.291 225.527 269.33C223.949 269.339 222.321 268.954 220.781 268.087L157.505 232.594V131.705C157.505 124.128 154.106 117.496 146.8 113.433L112.971 94.603V266.789C112.97 272.353 108.427 276.348 103.44 276.386C101.862 276.396 100.235 276.01 98.6943 275.144L34.7051 239.16C27.408 235.068 24 228.463 24 220.887L24.1543 52.9771C24.1639 47.4129 28.698 43.418 33.6846 43.3794C35.2633 43.3698 36.8905 43.7543 38.4307 44.6206L109.611 84.5435L109.332 33.5981C109.303 28.0341 113.876 24.0392 118.862 24.0005ZM849.209 106.8C884.52 106.8 904.938 124.572 904.938 154.791V193.817C904.938 198.813 907.124 201.24 910.782 201.24H915.489L915.479 201.258C917.27 201.258 918.608 202.626 918.608 204.417V229.523C918.608 231.314 917.337 232.662 915.547 232.662H893.261C883.548 232.662 875.568 229.147 870.908 223.631C860.367 231.853 846.966 236.011 832.67 236.011C805.744 236.011 789.802 221.263 789.802 195.945C789.802 172.003 804.06 159.844 835.491 157.726L865.43 155.705V150.776C865.42 140.552 858.335 134.882 846.629 134.882C838.485 134.882 833.161 137.645 830.658 142.372C829.561 144.432 828.501 145.144 826.624 145.144H793.19C791.304 145.144 790.062 144.056 790.033 142.458C790.014 141.457 790.486 139.946 791.323 137.962C799.314 119.094 820.107 106.8 849.209 106.8ZM1118.4 106.8C1155.87 106.802 1178.38 129.636 1178.38 165.572V177.442C1178.38 179.232 1177.03 180.599 1175.24 180.599H1095.13C1096.17 195.405 1102.73 207.458 1119.66 207.458C1127.62 207.458 1133.97 204.791 1137.22 199.708C1138.47 197.774 1139.6 197.206 1140.69 197.206H1172.77C1175.32 197.206 1176.17 198.746 1176.18 200.45C1176.19 201.422 1175.9 202.453 1175.25 204.157C1167.56 224.19 1148.63 236.011 1120.45 236.011C1080.44 236.011 1056.89 211.809 1056.89 171.319C1056.89 130.831 1079.97 106.803 1118.4 106.8ZM788.878 64.3853V64.394C790.89 64.3941 792.526 66.2812 792.18 68.2642L763.81 230.014C763.54 231.574 762.192 232.67 760.613 232.67H712.374C710.843 232.67 709.572 231.631 709.245 230.139L683.474 111.903H681.145L655.373 230.139C655.046 231.631 653.746 232.67 652.226 232.67H603.976C602.407 232.67 601.078 231.564 600.809 230.014L572.438 68.2642C572.092 66.2811 573.71 64.394 575.722 64.394H607.576C609.164 64.394 610.522 65.6072 610.782 67.1665L629.901 181.534H631.99L656.423 67.0317C656.75 65.5302 658.136 64.394 659.667 64.394H706.53C708.07 64.3941 709.322 65.5302 709.64 67.0317L733.591 181.754H735.661L755.04 67.1763C755.3 65.6075 756.57 64.3855 758.158 64.3853H788.878ZM357.761 64.3755C359.551 64.3755 360.899 65.6943 360.899 67.4849V229.523C360.899 231.313 359.542 232.661 357.752 232.662H322.094C320.303 232.662 318.946 231.313 318.946 229.523L318.879 67.4946C318.879 65.7041 320.303 64.3853 322.094 64.3853H357.761V64.3755ZM505.677 64.3755C507.477 64.3755 508.825 65.9638 508.825 67.7544V95.5659H508.815C508.815 97.3661 507.467 98.9351 505.677 98.9351H461.259V229.513C461.259 231.304 459.68 232.652 457.89 232.652H422.665C420.874 232.652 419.306 231.274 419.306 229.484V98.9253H374.868C373.078 98.9253 371.739 97.3467 371.739 95.5562V67.7349C371.739 65.9445 373.096 64.3758 374.887 64.3755H505.677ZM964.923 64.3853C966.723 64.3853 968.071 65.7325 968.071 67.5229V193.182C968.071 198.188 970.94 201.24 975.945 201.24H983.551C985.341 201.24 986.91 202.568 986.91 204.359V229.533C986.91 231.323 985.495 232.652 983.705 232.652H966.31C940.077 232.661 927.455 221.051 927.455 197.206V67.5229C927.455 65.7325 928.803 64.3853 930.594 64.3853H964.923ZM1032.25 64.3853C1034.04 64.3854 1035.49 65.7326 1035.49 67.5229V193.182C1035.49 198.188 1038.26 201.24 1043.27 201.24H1050.88C1052.67 201.24 1054.34 202.654 1054.34 204.445V229.533C1054.34 231.323 1052.82 232.652 1051.03 232.652H1033.64C1007.41 232.661 994.785 221.051 994.785 197.206V67.5229C994.785 65.7325 996.133 64.3853 997.924 64.3853H1032.25ZM1234.99 76.7173C1236.78 76.7174 1238.14 78.0646 1238.14 79.855V110.151H1258.78C1260.58 110.151 1262.15 111.498 1262.15 113.289V138.415C1262.15 140.215 1260.78 141.553 1258.99 141.553H1238.14V193.172C1238.14 198.178 1240.98 201.23 1245.99 201.23H1259.01C1260.8 201.23 1262.15 202.809 1262.15 204.599V229.503C1262.15 231.294 1260.79 232.642 1259 232.642H1241.3C1212.26 232.642 1197.76 218.346 1197.76 190.024V141.553H1183.39C1181.59 141.553 1180.26 140.196 1180.25 138.406V113.289C1180.26 111.498 1181.82 110.141 1183.62 110.141H1197.75V79.9126C1197.75 78.1222 1199.29 76.7173 1201.08 76.7173H1234.99ZM844.078 181.996C832.536 182.862 828.367 187.001 828.367 194.289C828.367 202.462 833.604 207.458 844.309 207.458C850.913 207.458 858.085 205.571 865.449 200.796H865.459V180.388L844.078 181.996ZM561.763 148.292L561.772 148.301C563.563 148.301 564.92 149.649 564.92 151.44V177.914C564.92 179.704 563.543 181.052 561.753 181.052H497.225C495.424 181.052 494.019 179.714 494.009 177.923V151.411C494.009 149.611 495.347 148.273 497.138 148.273L561.763 148.292ZM1118.38 132.495C1104.54 132.495 1095.38 140.995 1095.29 154.867H1140.61C1140.81 140.889 1132.23 132.495 1118.38 132.495Z" fill="#0066CC"/>
</svg>
