<svg width="300" height="48" viewBox="0 0 300 48" fill="none" xmlns="http://www.w3.org/2000/svg">
<rect width="300" height="48" rx="4" fill="#0066CC"/>
<g clip-path="url(#clip0_2149_27027)">
<path d="M78.433 12.1181C78.2875 12.0357 78.1327 11.9991 77.9826 12C77.5084 12.0037 77.0736 12.3836 77.0763 12.9127L77.1029 17.7572L70.3342 13.9609C70.1877 13.8785 70.033 13.8419 69.8828 13.8428C69.4086 13.8464 68.9775 14.2264 68.9766 14.7555L68.9619 30.7225C68.9619 31.4429 69.286 32.0709 69.9799 32.46L76.0648 35.8819C76.2112 35.9643 76.366 36.0009 76.5161 36C76.9903 35.9963 77.4224 35.6164 77.4224 35.0873V18.7138L80.6392 20.5044C81.334 20.8907 81.6572 21.5215 81.6572 22.2419V31.8357L87.6743 35.2109C87.8208 35.2933 87.9755 35.3299 88.1256 35.329C88.5998 35.3253 89.0319 34.9454 89.0319 34.4163L89.0383 19.2338C89.0383 18.5133 88.7143 17.8854 88.0204 17.4963L78.433 12.1181Z" fill="white"/>
</g>
<path d="M100.755 30V19.04H107.667V20.592H102.531V23.696H106.707V25.232H102.531V28.432H107.667V30H100.755ZM111.135 30H109.391V22H111.119V22.496C111.898 22.048 112.634 21.824 113.327 21.824C114.394 21.824 115.119 22.128 115.503 22.736C115.898 23.3333 116.095 24.3253 116.095 25.712V30H114.367V25.76C114.367 24.896 114.271 24.2827 114.079 23.92C113.898 23.5573 113.519 23.376 112.943 23.376C112.399 23.376 111.876 23.4827 111.375 23.696L111.135 23.792V30ZM122.429 23.488H120.221V27.008C120.221 27.6587 120.269 28.0907 120.365 28.304C120.461 28.5173 120.707 28.624 121.101 28.624L122.413 28.576L122.493 29.968C121.779 30.1067 121.235 30.176 120.861 30.176C119.955 30.176 119.331 29.968 118.989 29.552C118.659 29.136 118.493 28.352 118.493 27.2V23.488H117.469V22H118.493V19.68H120.221V22H122.429V23.488ZM123.86 30V22H125.588V22.96C126.494 22.3733 127.401 21.9947 128.308 21.824V23.568C127.39 23.7493 126.606 23.984 125.956 24.272L125.604 24.416V30H123.86ZM135.561 24.464V28.112C135.572 28.3467 135.63 28.5227 135.737 28.64C135.854 28.7467 136.03 28.816 136.265 28.848L136.217 30.176C135.3 30.176 134.59 29.9787 134.089 29.584C133.236 29.9787 132.377 30.176 131.513 30.176C129.924 30.176 129.129 29.328 129.129 27.632C129.129 26.8213 129.342 26.2347 129.769 25.872C130.206 25.5093 130.873 25.2907 131.769 25.216L133.833 25.04V24.464C133.833 24.0373 133.737 23.7387 133.545 23.568C133.364 23.3973 133.092 23.312 132.729 23.312C132.046 23.312 131.193 23.3547 130.169 23.44L129.657 23.472L129.593 22.24C130.756 21.9627 131.822 21.824 132.793 21.824C133.774 21.824 134.478 22.0373 134.905 22.464C135.342 22.88 135.561 23.5467 135.561 24.464ZM131.977 26.448C131.241 26.512 130.873 26.912 130.873 27.648C130.873 28.384 131.198 28.752 131.849 28.752C132.382 28.752 132.948 28.6667 133.545 28.496L133.833 28.4V26.272L131.977 26.448ZM144.258 21.824C144.823 21.824 145.49 21.8987 146.258 22.048L146.658 22.128L146.594 23.504C145.751 23.4187 145.127 23.376 144.722 23.376C143.911 23.376 143.367 23.5573 143.09 23.92C142.813 24.2827 142.674 24.9653 142.674 25.968C142.674 26.9707 142.807 27.664 143.074 28.048C143.341 28.432 143.895 28.624 144.738 28.624L146.61 28.496L146.658 29.888C145.581 30.08 144.77 30.176 144.226 30.176C143.01 30.176 142.151 29.8507 141.65 29.2C141.159 28.5387 140.914 27.4613 140.914 25.968C140.914 24.4747 141.175 23.4133 141.698 22.784C142.221 22.144 143.074 21.824 144.258 21.824ZM148.698 22.864C149.253 22.1707 150.17 21.824 151.45 21.824C152.73 21.824 153.642 22.1707 154.186 22.864C154.741 23.5573 155.018 24.5973 155.018 25.984C155.018 27.3707 154.751 28.416 154.218 29.12C153.685 29.824 152.762 30.176 151.45 30.176C150.138 30.176 149.215 29.824 148.682 29.12C148.149 28.416 147.882 27.3707 147.882 25.984C147.882 24.5973 148.154 23.5573 148.698 22.864ZM150.01 28.064C150.255 28.4907 150.735 28.704 151.45 28.704C152.165 28.704 152.645 28.4907 152.89 28.064C153.135 27.6373 153.258 26.9387 153.258 25.968C153.258 24.9973 153.125 24.3093 152.858 23.904C152.602 23.4987 152.133 23.296 151.45 23.296C150.767 23.296 150.293 23.4987 150.026 23.904C149.77 24.3093 149.642 24.9973 149.642 25.968C149.642 26.9387 149.765 27.6373 150.01 28.064ZM158.494 30H156.75V22H158.478V22.496C159.257 22.048 159.993 21.824 160.686 21.824C161.753 21.824 162.478 22.128 162.862 22.736C163.257 23.3333 163.454 24.3253 163.454 25.712V30H161.726V25.76C161.726 24.896 161.63 24.2827 161.438 23.92C161.257 23.5573 160.878 23.376 160.302 23.376C159.758 23.376 159.236 23.4827 158.734 23.696L158.494 23.792V30ZM169.208 30V19.04H170.984V30H169.208ZM172.449 20.624V19.04H180.449V20.624H177.361V30H175.569V20.624H172.449ZM180.686 26.48V24.896H185.47V26.48H180.686ZM186.563 19.04H188.435L190.003 28.464H190.339L192.419 19.072H194.499L196.579 28.464H196.931L198.499 19.04H200.371L198.211 30H195.347L193.459 21.216L191.587 30H188.707L186.563 19.04ZM207.498 24.464V28.112C207.509 28.3467 207.568 28.5227 207.674 28.64C207.792 28.7467 207.968 28.816 208.202 28.848L208.154 30.176C207.237 30.176 206.528 29.9787 206.026 29.584C205.173 29.9787 204.314 30.176 203.45 30.176C201.861 30.176 201.066 29.328 201.066 27.632C201.066 26.8213 201.28 26.2347 201.706 25.872C202.144 25.5093 202.81 25.2907 203.706 25.216L205.77 25.04V24.464C205.77 24.0373 205.674 23.7387 205.482 23.568C205.301 23.3973 205.029 23.312 204.666 23.312C203.984 23.312 203.13 23.3547 202.106 23.44L201.594 23.472L201.53 22.24C202.693 21.9627 203.76 21.824 204.73 21.824C205.712 21.824 206.416 22.0373 206.842 22.464C207.28 22.88 207.498 23.5467 207.498 24.464ZM203.914 26.448C203.178 26.512 202.81 26.912 202.81 27.648C202.81 28.384 203.136 28.752 203.786 28.752C204.32 28.752 204.885 28.6667 205.482 28.496L205.77 28.4V26.272L203.914 26.448ZM209.784 30V18.672H211.528V30H209.784ZM213.831 30V18.672H215.575V30H213.831ZM223.478 28.56L223.926 28.512L223.958 29.808C222.742 30.0533 221.664 30.176 220.726 30.176C219.542 30.176 218.688 29.8507 218.166 29.2C217.654 28.5493 217.398 27.5093 217.398 26.08C217.398 23.2427 218.555 21.824 220.87 21.824C223.11 21.824 224.23 23.0453 224.23 25.488L224.118 26.736H219.158C219.168 27.3973 219.312 27.8827 219.59 28.192C219.867 28.5013 220.384 28.656 221.142 28.656C221.899 28.656 222.678 28.624 223.478 28.56ZM222.518 25.392C222.518 24.6027 222.39 24.0533 222.134 23.744C221.888 23.424 221.467 23.264 220.87 23.264C220.272 23.264 219.835 23.4293 219.558 23.76C219.291 24.0907 219.152 24.6347 219.142 25.392H222.518ZM230.211 23.488H228.003V27.008C228.003 27.6587 228.051 28.0907 228.147 28.304C228.243 28.5173 228.488 28.624 228.883 28.624L230.195 28.576L230.275 29.968C229.56 30.1067 229.016 30.176 228.643 30.176C227.736 30.176 227.112 29.968 226.771 29.552C226.44 29.136 226.275 28.352 226.275 27.2V23.488H225.251V22H226.275V19.68H228.003V22H230.211V23.488Z" fill="white"/>
<defs>
<clipPath id="clip0_2149_27027">
<rect width="20.0764" height="24" fill="white" transform="translate(68.9619 12)"/>
</clipPath>
</defs>
</svg>
