<svg width="1440" height="790" viewBox="0 0 1440 790" fill="none" xmlns="http://www.w3.org/2000/svg">
<g clip-path="url(#clip0_4177_47337)">
<rect width="1440" height="790" fill="white"/>
<rect width="1440" height="48" fill="#004D99"/>
<path d="M73.904 24.198C73.904 25.6167 74.0907 26.6387 74.464 27.264C74.8373 27.88 75.556 28.188 76.62 28.188C77.6933 28.188 78.412 27.8847 78.776 27.278C79.1493 26.6713 79.336 25.654 79.336 24.226C79.336 22.798 79.1447 21.7573 78.762 21.104C78.3793 20.4507 77.6607 20.124 76.606 20.124C75.5607 20.124 74.8467 20.4507 74.464 21.104C74.0907 21.748 73.904 22.7793 73.904 24.198ZM80.456 24.226C80.456 25.9527 80.1807 27.2033 79.63 27.978C79.0793 28.7527 78.076 29.14 76.62 29.14C75.1733 29.14 74.1747 28.7433 73.624 27.95C73.0733 27.1567 72.798 25.9107 72.798 24.212C72.798 22.504 73.078 21.2393 73.638 20.418C74.198 19.5873 75.192 19.172 76.62 19.172C78.048 19.172 79.042 19.5827 79.602 20.404C80.1713 21.2253 80.456 22.4993 80.456 24.226ZM82.2502 29V22H83.2862V22.952C84.0982 22.392 84.9522 22.0233 85.8482 21.846V22.91C85.4562 22.9847 85.0455 23.1013 84.6162 23.26C84.1962 23.4187 83.8742 23.5587 83.6502 23.68L83.3002 23.862V29H82.2502ZM89.6963 32.29C88.5763 32.29 87.7923 32.136 87.3443 31.828C86.9057 31.5293 86.6863 30.9787 86.6863 30.176C86.6863 29.7933 86.7703 29.4807 86.9383 29.238C87.1063 29.0047 87.391 28.7387 87.7923 28.44C87.531 28.2627 87.4003 27.9407 87.4003 27.474C87.4003 27.3153 87.517 27.0213 87.7503 26.592L87.8763 26.368C87.139 26.032 86.7703 25.3273 86.7703 24.254C86.7703 22.658 87.643 21.86 89.3883 21.86C89.8363 21.86 90.2517 21.9067 90.6343 22L90.8443 22.042L92.9163 21.986V22.882L91.5863 22.854C91.8943 23.162 92.0483 23.6287 92.0483 24.254C92.0483 25.1313 91.829 25.7473 91.3903 26.102C90.961 26.4473 90.2797 26.62 89.3463 26.62C89.0943 26.62 88.8657 26.6013 88.6603 26.564C88.4923 26.9747 88.4083 27.2407 88.4083 27.362C88.4083 27.6513 88.497 27.8333 88.6743 27.908C88.8517 27.9733 89.3883 28.006 90.2843 28.006C91.1803 28.006 91.8243 28.146 92.2163 28.426C92.6083 28.706 92.8043 29.252 92.8043 30.064C92.8043 31.548 91.7683 32.29 89.6963 32.29ZM87.7223 30.092C87.7223 30.5867 87.8577 30.9273 88.1283 31.114C88.4083 31.31 88.917 31.408 89.6543 31.408C90.401 31.408 90.933 31.3053 91.2503 31.1C91.577 30.8947 91.7403 30.5493 91.7403 30.064C91.7403 29.588 91.6237 29.28 91.3903 29.14C91.157 29 90.6997 28.93 90.0183 28.93L88.5063 28.86C88.1983 29.084 87.9883 29.28 87.8763 29.448C87.7737 29.616 87.7223 29.8307 87.7223 30.092ZM87.8203 24.254C87.8203 24.8047 87.9417 25.1967 88.1843 25.43C88.4363 25.6633 88.847 25.78 89.4163 25.78C89.9857 25.78 90.3917 25.6633 90.6343 25.43C90.877 25.1967 90.9983 24.8047 90.9983 24.254C90.9983 23.694 90.877 23.2973 90.6343 23.064C90.3917 22.8307 89.9857 22.714 89.4163 22.714C88.847 22.714 88.4363 22.8353 88.1843 23.078C87.9417 23.3113 87.8203 23.7033 87.8203 24.254ZM99.1277 24.114V27.698C99.1557 28.0433 99.4264 28.2487 99.9397 28.314L99.8977 29.14C99.1604 29.14 98.6051 28.9533 98.2317 28.58C97.3917 28.9533 96.5517 29.14 95.7117 29.14C95.0677 29.14 94.5777 28.958 94.2417 28.594C93.9057 28.23 93.7377 27.7073 93.7377 27.026C93.7377 26.3447 93.9104 25.8453 94.2557 25.528C94.6011 25.2013 95.1424 25.0007 95.8797 24.926L98.0777 24.716V24.114C98.0777 23.638 97.9751 23.2973 97.7697 23.092C97.5644 22.8867 97.2844 22.784 96.9297 22.784C96.1831 22.784 95.4084 22.8307 94.6057 22.924L94.1717 22.966L94.1297 22.168C95.1564 21.9627 96.0664 21.86 96.8597 21.86C97.6531 21.86 98.2271 22.042 98.5817 22.406C98.9457 22.77 99.1277 23.3393 99.1277 24.114ZM94.8157 26.97C94.8157 27.8287 95.1704 28.258 95.8797 28.258C96.5144 28.258 97.1397 28.1507 97.7557 27.936L98.0777 27.824V25.514L96.0057 25.71C95.5857 25.7473 95.2824 25.8687 95.0957 26.074C94.9091 26.2793 94.8157 26.578 94.8157 26.97ZM102.249 29H101.199V22H102.235V22.49C102.991 22.07 103.715 21.86 104.405 21.86C105.339 21.86 105.964 22.112 106.281 22.616C106.608 23.12 106.771 24.016 106.771 25.304V29H105.735V25.332C105.735 24.3613 105.637 23.6987 105.441 23.344C105.255 22.98 104.849 22.798 104.223 22.798C103.925 22.798 103.607 22.8447 103.271 22.938C102.945 23.022 102.693 23.106 102.515 23.19L102.249 23.316V29ZM108.719 29V22H109.769V29H108.719ZM108.719 20.418V19.2H109.769V20.418H108.719ZM111.361 22.938V22H116.555V22.938L112.635 28.062H116.555V29H111.361V28.062L115.281 22.938H111.361ZM123.095 24.114V27.698C123.123 28.0433 123.393 28.2487 123.907 28.314L123.865 29.14C123.127 29.14 122.572 28.9533 122.199 28.58C121.359 28.9533 120.519 29.14 119.679 29.14C119.035 29.14 118.545 28.958 118.209 28.594C117.873 28.23 117.705 27.7073 117.705 27.026C117.705 26.3447 117.877 25.8453 118.223 25.528C118.568 25.2013 119.109 25.0007 119.847 24.926L122.045 24.716V24.114C122.045 23.638 121.942 23.2973 121.737 23.092C121.531 22.8867 121.251 22.784 120.897 22.784C120.15 22.784 119.375 22.8307 118.573 22.924L118.139 22.966L118.097 22.168C119.123 21.9627 120.033 21.86 120.827 21.86C121.62 21.86 122.194 22.042 122.549 22.406C122.913 22.77 123.095 23.3393 123.095 24.114ZM118.783 26.97C118.783 27.8287 119.137 28.258 119.847 28.258C120.481 28.258 121.107 28.1507 121.723 27.936L122.045 27.824V25.514L119.973 25.71C119.553 25.7473 119.249 25.8687 119.063 26.074C118.876 26.2793 118.783 26.578 118.783 26.97ZM128.792 22.91H126.566V26.256C126.566 27.0587 126.622 27.586 126.734 27.838C126.856 28.09 127.136 28.216 127.574 28.216L128.82 28.132L128.89 29C128.265 29.1027 127.789 29.154 127.462 29.154C126.734 29.154 126.23 28.9767 125.95 28.622C125.67 28.2673 125.53 27.5907 125.53 26.592V22.91H124.536V22H125.53V19.858H126.566V22H128.792V22.91ZM130.074 29V22H131.124V29H130.074ZM130.074 20.418V19.2H131.124V20.418H130.074ZM132.829 25.486C132.829 24.2073 133.058 23.2833 133.515 22.714C133.972 22.1447 134.742 21.86 135.825 21.86C136.917 21.86 137.687 22.1447 138.135 22.714C138.592 23.2833 138.821 24.2073 138.821 25.486C138.821 26.7647 138.606 27.6933 138.177 28.272C137.748 28.8507 136.964 29.14 135.825 29.14C134.686 29.14 133.902 28.8507 133.473 28.272C133.044 27.6933 132.829 26.7647 132.829 25.486ZM133.907 25.472C133.907 26.4893 134.028 27.2033 134.271 27.614C134.523 28.0247 135.041 28.23 135.825 28.23C136.618 28.23 137.136 28.0293 137.379 27.628C137.622 27.2173 137.743 26.4987 137.743 25.472C137.743 24.4453 137.608 23.7407 137.337 23.358C137.066 22.966 136.562 22.77 135.825 22.77C135.097 22.77 134.593 22.966 134.313 23.358C134.042 23.7407 133.907 24.4453 133.907 25.472ZM141.583 29H140.533V22H141.569V22.49C142.325 22.07 143.049 21.86 143.739 21.86C144.673 21.86 145.298 22.112 145.615 22.616C145.942 23.12 146.105 24.016 146.105 25.304V29H145.069V25.332C145.069 24.3613 144.971 23.6987 144.775 23.344C144.589 22.98 144.183 22.798 143.557 22.798C143.259 22.798 142.941 22.8447 142.605 22.938C142.279 23.022 142.027 23.106 141.849 23.19L141.583 23.316V29ZM152.179 29H151.129V22H152.165V22.49C152.921 22.07 153.644 21.86 154.335 21.86C155.268 21.86 155.894 22.112 156.211 22.616C156.538 23.12 156.701 24.016 156.701 25.304V29H155.665V25.332C155.665 24.3613 155.567 23.6987 155.371 23.344C155.184 22.98 154.778 22.798 154.153 22.798C153.854 22.798 153.537 22.8447 153.201 22.938C152.874 23.022 152.622 23.106 152.445 23.19L152.179 23.316V29ZM163.591 24.114V27.698C163.619 28.0433 163.889 28.2487 164.403 28.314L164.361 29.14C163.623 29.14 163.068 28.9533 162.695 28.58C161.855 28.9533 161.015 29.14 160.175 29.14C159.531 29.14 159.041 28.958 158.705 28.594C158.369 28.23 158.201 27.7073 158.201 27.026C158.201 26.3447 158.373 25.8453 158.719 25.528C159.064 25.2013 159.605 25.0007 160.343 24.926L162.541 24.716V24.114C162.541 23.638 162.438 23.2973 162.233 23.092C162.027 22.8867 161.747 22.784 161.393 22.784C160.646 22.784 159.871 22.8307 159.069 22.924L158.635 22.966L158.593 22.168C159.619 21.9627 160.529 21.86 161.323 21.86C162.116 21.86 162.69 22.042 163.045 22.406C163.409 22.77 163.591 23.3393 163.591 24.114ZM159.279 26.97C159.279 27.8287 159.633 28.258 160.343 28.258C160.977 28.258 161.603 28.1507 162.219 27.936L162.541 27.824V25.514L160.469 25.71C160.049 25.7473 159.745 25.8687 159.559 26.074C159.372 26.2793 159.279 26.578 159.279 26.97ZM166.712 29H165.662V22H166.698V22.49C167.398 22.07 168.08 21.86 168.742 21.86C169.61 21.86 170.217 22.098 170.562 22.574C170.87 22.3873 171.267 22.224 171.752 22.084C172.247 21.9347 172.681 21.86 173.054 21.86C173.988 21.86 174.613 22.112 174.93 22.616C175.257 23.1107 175.42 24.0067 175.42 25.304V29H174.37V25.332C174.37 24.3613 174.277 23.6987 174.09 23.344C173.904 22.98 173.507 22.798 172.9 22.798C172.592 22.798 172.275 22.8447 171.948 22.938C171.622 23.022 171.37 23.106 171.192 23.19L170.926 23.316C171.048 23.624 171.108 24.3053 171.108 25.36V29H170.058V25.388C170.058 24.38 169.965 23.6987 169.778 23.344C169.601 22.98 169.204 22.798 168.588 22.798C168.29 22.798 167.982 22.8447 167.664 22.938C167.356 23.022 167.118 23.106 166.95 23.19L166.712 23.316V29ZM182.125 28.132L182.531 28.09L182.559 28.916C181.495 29.0653 180.585 29.14 179.829 29.14C178.821 29.14 178.107 28.8507 177.687 28.272C177.267 27.684 177.057 26.774 177.057 25.542C177.057 23.0873 178.033 21.86 179.983 21.86C180.926 21.86 181.631 22.126 182.097 22.658C182.564 23.1807 182.797 24.0067 182.797 25.136L182.741 25.934H178.121C178.121 26.7087 178.261 27.2827 178.541 27.656C178.821 28.0293 179.307 28.216 179.997 28.216C180.697 28.216 181.407 28.188 182.125 28.132ZM181.747 25.094C181.747 24.2353 181.607 23.6287 181.327 23.274C181.057 22.9193 180.609 22.742 179.983 22.742C179.367 22.742 178.901 22.9287 178.583 23.302C178.275 23.6753 178.117 24.2727 178.107 25.094H181.747Z" fill="white"/>
<g clip-path="url(#clip1_4177_47337)">
<path d="M1322.11 29V19.41H1328.15V20.768H1323.66V23.484H1327.31V24.828H1323.66V27.628H1328.15V29H1322.11ZM1329.84 29V19.41H1332.56L1335.47 27.628H1335.68V19.41H1337.24V29H1334.58L1331.59 20.768H1331.4V29H1329.84ZM1343.35 25.332V23.96H1346.08V28.832C1345.83 28.8973 1345.31 28.9673 1344.54 29.042C1343.77 29.1167 1343.22 29.154 1342.87 29.154C1341.42 29.154 1340.41 28.7527 1339.86 27.95C1339.31 27.1473 1339.04 25.892 1339.04 24.184C1339.04 22.4667 1339.32 21.216 1339.88 20.432C1340.45 19.648 1341.43 19.256 1342.82 19.256C1343.64 19.256 1344.56 19.3493 1345.59 19.536L1346.08 19.634L1346.02 20.866C1344.89 20.7167 1343.88 20.642 1342.98 20.642C1342.09 20.642 1341.47 20.894 1341.14 21.398C1340.81 21.902 1340.65 22.8353 1340.65 24.198C1340.65 25.5607 1340.8 26.5033 1341.11 27.026C1341.43 27.5393 1342.06 27.796 1343.01 27.796C1343.69 27.796 1344.2 27.754 1344.54 27.67V25.332H1343.35Z" fill="white"/>
<path d="M1363 27.2L1357.4 21.6L1358.1 20.8L1363 25.7L1367.9 20.8L1368.6 21.6L1363 27.2Z" fill="white"/>
</g>
<rect width="1440" height="93" transform="translate(0 47.999)" fill="#F2F7FC"/>
<rect x="72.5" y="72.499" width="155.768" height="44" fill="#F2F7FC"/>
<rect x="72.5" y="72.499" width="155.768" height="44" stroke="#C5C7C9"/>
<line x1="72.9291" y1="72.5501" x2="228.123" y2="115.79" stroke="#C5C7C9"/>
<path d="M193.966 98.7792C194.386 99.5072 195.163 99.8712 196.297 99.8712C197.431 99.8712 198.201 99.5072 198.607 98.7792C199.027 98.0372 199.237 96.8052 199.237 95.0832C199.237 93.3472 199.027 92.0872 198.607 91.3032C198.187 90.5192 197.417 90.1272 196.297 90.1272C195.177 90.1272 194.407 90.5192 193.987 91.3032C193.567 92.0872 193.357 93.3472 193.357 95.0832C193.357 96.8052 193.56 98.0372 193.966 98.7792ZM200.875 100.627C199.993 101.803 198.467 102.391 196.297 102.391C194.127 102.391 192.594 101.803 191.698 100.627C190.816 99.4372 190.375 97.5822 190.375 95.0622C190.375 92.5422 190.816 90.6732 191.698 89.4552C192.594 88.2232 194.127 87.6072 196.297 87.6072C198.467 87.6072 199.993 88.2232 200.875 89.4552C201.771 90.6732 202.219 92.5422 202.219 95.0622C202.219 97.5822 201.771 99.4372 200.875 100.627Z" fill="black"/>
<path d="M184.111 97.0152V94.4952H188.269V101.908C186.267 102.23 184.643 102.391 183.397 102.391C181.171 102.391 179.638 101.796 178.798 100.606C177.972 99.4162 177.559 97.5262 177.559 94.9362C177.559 92.3462 177.993 90.4772 178.861 89.3292C179.729 88.1812 181.206 87.6072 183.292 87.6072C184.594 87.6072 186.001 87.7542 187.513 88.0482L188.269 88.1952L188.185 90.4422C186.505 90.2602 185.126 90.1692 184.048 90.1692C182.984 90.1692 182.235 90.2952 181.801 90.5472C181.367 90.7992 181.045 91.2682 180.835 91.9542C180.639 92.6262 180.541 93.7882 180.541 95.4402C180.541 97.0782 180.744 98.2262 181.15 98.8842C181.556 99.5422 182.396 99.8712 183.67 99.8712L185.413 99.7872V97.0152H184.111Z" fill="black"/>
<path d="M167.429 98.7792C167.849 99.5072 168.626 99.8712 169.76 99.8712C170.894 99.8712 171.664 99.5072 172.07 98.7792C172.49 98.0372 172.7 96.8052 172.7 95.0832C172.7 93.3472 172.49 92.0872 172.07 91.3032C171.65 90.5192 170.88 90.1272 169.76 90.1272C168.64 90.1272 167.87 90.5192 167.45 91.3032C167.03 92.0872 166.82 93.3472 166.82 95.0832C166.82 96.8052 167.023 98.0372 167.429 98.7792ZM174.338 100.627C173.456 101.803 171.93 102.391 169.76 102.391C167.59 102.391 166.057 101.803 165.161 100.627C164.279 99.4372 163.838 97.5822 163.838 95.0622C163.838 92.5422 164.279 90.6732 165.161 89.4552C166.057 88.2232 167.59 87.6072 169.76 87.6072C171.93 87.6072 173.456 88.2232 174.338 89.4552C175.234 90.6732 175.682 92.5422 175.682 95.0622C175.682 97.5822 175.234 99.4372 174.338 100.627Z" fill="black"/>
<path d="M162.813 102.139H154.686V87.8589H157.584V99.5769H162.813V102.139Z" fill="black"/>
<path d="M103.147 101.896H100.348V96.3176L96.0879 88.1025H99.1914L101.727 93.5995L104.262 88.1025H107.366L103.147 96.3176V101.896Z" fill="black"/>
<path d="M111.165 98.6503C111.571 99.3535 112.322 99.7051 113.417 99.7051C114.512 99.7051 115.256 99.3535 115.648 98.6503C116.054 97.9336 116.257 96.7436 116.257 95.0803C116.257 93.4035 116.054 92.1864 115.648 91.4291C115.243 90.6719 114.499 90.2932 113.417 90.2932C112.335 90.2932 111.591 90.6719 111.186 91.4291C110.78 92.1864 110.577 93.4035 110.577 95.0803C110.577 96.7436 110.773 97.9336 111.165 98.6503ZM117.839 100.435C116.987 101.571 115.513 102.139 113.417 102.139C111.321 102.139 109.84 101.571 108.975 100.435C108.123 99.2859 107.697 97.4941 107.697 95.06C107.697 92.6259 108.123 90.8206 108.975 89.6441C109.84 88.4541 111.321 87.8591 113.417 87.8591C115.513 87.8591 116.987 88.4541 117.839 89.6441C118.704 90.8206 119.137 92.6259 119.137 95.06C119.137 97.4941 118.704 99.2859 117.839 100.435Z" fill="black"/>
<path d="M124.215 97.2913C124.215 98.9005 125.033 99.7051 126.67 99.7051C128.306 99.7051 129.124 98.9005 129.124 97.2913V88.1025H131.923V97.2304C131.923 98.9207 131.484 100.165 130.605 100.963C129.739 101.747 128.427 102.139 126.67 102.139C124.912 102.139 123.593 101.747 122.714 100.963C121.849 100.165 121.416 98.9207 121.416 97.2304V88.1025H124.215V97.2913Z" fill="black"/>
<path d="M137.609 97.271V101.896H134.809V88.1025H140.165C143.41 88.1025 145.033 89.6171 145.033 92.6462C145.033 94.4447 144.357 95.7699 143.004 96.6219L144.972 101.896H141.909L140.306 97.271H137.609ZM140.205 94.8774C140.868 94.8774 141.361 94.6746 141.686 94.2689C142.01 93.8632 142.173 93.3291 142.173 92.6665C142.173 92.0039 141.997 91.4765 141.645 91.0843C141.307 90.6921 140.814 90.4961 140.165 90.4961H137.609V94.8774H140.205Z" fill="black"/>
<path d="M252.768 59.999V128.999" stroke="#C5C7C9" stroke-linejoin="round"/>
<path d="M288.795 78.4993C288.995 78.4981 289.201 78.5467 289.396 78.6565L302.179 85.8274C303.104 86.3461 303.536 87.1833 303.536 88.1438L303.527 108.387C303.527 109.092 302.952 109.6 302.319 109.605C302.119 109.606 301.913 109.556 301.718 109.447L293.694 104.947V92.1546C293.694 91.1941 293.263 90.3532 292.337 89.8382L288.048 87.4505V109.282C288.048 109.988 287.472 110.494 286.84 110.499C286.64 110.501 286.434 110.451 286.238 110.341L278.125 105.779C277.2 105.26 276.768 104.423 276.768 103.462L276.787 82.1731C276.788 81.4678 277.363 80.9614 277.995 80.9563C278.195 80.9551 278.402 81.0037 278.598 81.1135L287.622 86.1751L287.587 79.7161C287.583 79.0107 288.163 78.5043 288.795 78.4993ZM381.396 88.9973C385.873 88.9973 388.462 91.2509 388.462 95.0823V100.031C388.462 100.663 388.739 100.971 389.202 100.971H389.8L389.798 100.974C390.025 100.974 390.195 101.147 390.195 101.374V104.557C390.195 104.784 390.034 104.955 389.807 104.955H386.981C385.75 104.955 384.737 104.509 384.146 103.81C382.81 104.852 381.111 105.38 379.299 105.38C375.885 105.38 373.863 103.51 373.863 100.3C373.863 97.2645 375.671 95.7229 379.656 95.4544L383.452 95.1975V94.5725C383.451 93.2765 382.552 92.5579 381.068 92.5579C380.036 92.558 379.361 92.908 379.044 93.5071C378.905 93.7683 378.77 93.8587 378.532 93.8587H374.293C374.054 93.8586 373.896 93.7204 373.893 93.5178C373.89 93.3909 373.951 93.1996 374.057 92.9485C375.07 90.5562 377.706 88.9974 381.396 88.9973ZM415.525 88.9973C420.277 88.9973 423.131 91.8923 423.131 96.4485V97.9534C423.131 98.1803 422.96 98.3537 422.733 98.3538H412.577C412.709 100.231 413.54 101.76 415.687 101.76C416.695 101.76 417.501 101.421 417.913 100.777C418.07 100.532 418.215 100.459 418.353 100.459H422.42C422.743 100.459 422.851 100.655 422.853 100.871C422.854 100.995 422.817 101.125 422.734 101.341C421.759 103.881 419.36 105.38 415.787 105.38C410.715 105.38 407.728 102.312 407.728 97.178C407.728 92.0448 410.654 88.998 415.525 88.9973ZM373.746 83.6194V83.6204C374.001 83.6204 374.209 83.8602 374.165 84.1116L370.568 104.619C370.534 104.817 370.363 104.956 370.163 104.956H364.047C363.853 104.956 363.691 104.824 363.649 104.635L360.382 89.6438H360.087L356.819 104.635C356.778 104.824 356.613 104.956 356.42 104.956H350.303C350.104 104.956 349.936 104.816 349.901 104.619L346.304 84.1116C346.26 83.8602 346.466 83.6204 346.721 83.6204H350.759C350.96 83.6204 351.133 83.7743 351.166 83.9719L353.59 98.4729H353.854L356.952 83.9553C356.994 83.7651 357.169 83.6206 357.363 83.6204H363.306C363.501 83.6204 363.66 83.765 363.7 83.9553L366.736 98.5003H366.999L369.456 83.9729C369.489 83.7742 369.65 83.6194 369.852 83.6194H373.746ZM319.085 83.6184C319.312 83.6184 319.483 83.7852 319.483 84.012V104.557C319.483 104.784 319.311 104.955 319.084 104.955H314.562C314.336 104.955 314.164 104.784 314.164 104.557L314.155 84.0139C314.155 83.787 314.336 83.6196 314.562 83.6194H319.085V83.6184ZM337.84 83.6184C338.068 83.6187 338.238 83.8195 338.238 84.0462V87.5725H338.237C338.237 87.8006 338.067 88 337.84 88.0003H332.208V104.556C332.208 104.783 332.007 104.954 331.78 104.954H327.314C327.087 104.954 326.889 104.779 326.889 104.552V87.9983H321.254C321.027 87.9982 320.857 87.7985 320.857 87.5716V84.0442C320.857 83.8172 321.03 83.6184 321.257 83.6184H337.84ZM396.067 83.6194C396.295 83.6195 396.466 83.7901 396.466 84.0169V99.9495C396.466 100.584 396.83 100.971 397.465 100.971H398.429C398.656 100.971 398.854 101.14 398.854 101.366V104.559C398.854 104.786 398.675 104.954 398.448 104.954H396.243C392.917 104.956 391.316 103.483 391.316 100.459V84.0169C391.317 83.79 391.488 83.6194 391.715 83.6194H396.067ZM404.604 83.6194C404.83 83.6194 405.013 83.79 405.014 84.0169V99.9495C405.014 100.584 405.365 100.971 406 100.971H406.966C407.193 100.971 407.404 101.15 407.404 101.377V104.559C407.404 104.786 407.212 104.954 406.985 104.954H404.779C401.453 104.955 399.854 103.483 399.854 100.459V84.0169C399.854 83.7901 400.024 83.6196 400.251 83.6194H404.604ZM430.31 85.1829C430.536 85.183 430.708 85.3536 430.708 85.5803V89.4221H433.325C433.553 89.4221 433.753 89.5927 433.753 89.8196V93.0051C433.753 93.2333 433.579 93.4034 433.353 93.4036H430.708V99.9485C430.708 100.583 431.069 100.97 431.703 100.97H433.354C433.581 100.97 433.753 101.17 433.753 101.397V104.555C433.753 104.782 433.58 104.952 433.354 104.952H431.108C427.427 104.952 425.588 103.14 425.588 99.5491V93.4036H423.767C423.539 93.4034 423.369 93.2311 423.369 93.0042V89.8196C423.369 89.5928 423.568 89.4212 423.795 89.4212H425.587V85.5882C425.587 85.3613 425.782 85.1831 426.009 85.1829H430.31ZM380.745 98.5315C379.282 98.6414 378.753 99.1662 378.753 100.09C378.753 101.126 379.417 101.76 380.774 101.76C381.612 101.76 382.521 101.521 383.455 100.915H383.456V98.3274L380.745 98.5315ZM344.95 94.2581L344.952 94.2591C345.179 94.2593 345.351 94.4306 345.351 94.6575V98.0139C345.35 98.2408 345.176 98.4114 344.949 98.4114H336.768C336.539 98.4113 336.362 98.2419 336.36 98.0149V94.6536C336.36 94.4253 336.53 94.2551 336.757 94.2551L344.95 94.2581ZM415.524 92.2551C413.769 92.2552 412.608 93.3332 412.597 95.0921H418.343C418.368 93.3198 417.28 92.2551 415.524 92.2551Z" fill="#0066CC"/>
<rect width="1440" height="459.604" transform="translate(0 172.999)" fill="white"/>
<path d="M536.872 235.999L541.768 214.239H550.152L555.048 235.999H550.632L549.768 232.063H542.152L541.288 235.999H536.872ZM545.192 217.887L542.984 228.223H548.936L546.728 217.887H545.192ZM567.002 219.999H571.29V235.999H567.034V235.103C565.498 235.956 564.165 236.383 563.034 236.383C560.815 236.383 559.322 235.775 558.554 234.559C557.786 233.322 557.402 231.263 557.402 228.383V219.999H561.69V228.447C561.69 230.026 561.818 231.103 562.074 231.679C562.33 232.255 562.949 232.543 563.93 232.543C564.869 232.543 565.754 232.394 566.586 232.095L567.002 231.967V219.999ZM584.114 223.647H580.178V230.207C580.178 230.847 580.188 231.306 580.21 231.583C580.252 231.839 580.37 232.063 580.562 232.255C580.775 232.447 581.095 232.543 581.522 232.543L583.954 232.479L584.146 235.903C582.716 236.223 581.628 236.383 580.882 236.383C578.962 236.383 577.65 235.956 576.946 235.103C576.242 234.228 575.89 232.628 575.89 230.303V223.647H574.002V219.999H575.89V215.551H580.178V219.999H584.114V223.647ZM591.194 235.999H586.906V213.599H591.194V220.767C592.666 219.999 593.989 219.615 595.162 219.615C597.295 219.615 598.767 220.244 599.578 221.503C600.389 222.762 600.794 224.703 600.794 227.327V235.999H596.506V227.423C596.506 226.079 596.346 225.087 596.026 224.447C595.706 223.786 595.066 223.455 594.106 223.455C593.274 223.455 592.442 223.583 591.61 223.839L591.194 223.967V235.999ZM608.113 229.823C608.135 230.804 608.391 231.519 608.881 231.967C609.393 232.394 610.119 232.607 611.057 232.607C613.041 232.607 614.812 232.543 616.369 232.415L617.265 232.319L617.329 235.487C614.876 236.084 612.657 236.383 610.673 236.383C608.263 236.383 606.513 235.743 605.425 234.463C604.337 233.183 603.793 231.103 603.793 228.223C603.793 222.484 606.151 219.615 610.865 219.615C615.516 219.615 617.841 222.026 617.841 226.847L617.521 229.823H608.113ZM613.617 226.559C613.617 225.279 613.415 224.394 613.009 223.903C612.604 223.391 611.889 223.135 610.865 223.135C609.863 223.135 609.148 223.402 608.721 223.935C608.316 224.447 608.103 225.322 608.081 226.559H613.617ZM625.194 235.999H620.906V219.999H625.162V220.895C626.613 220.042 627.946 219.615 629.162 219.615C631.295 219.615 632.767 220.244 633.578 221.503C634.389 222.762 634.794 224.703 634.794 227.327V235.999H630.506V227.455C630.506 226.09 630.346 225.087 630.026 224.447C629.706 223.786 629.066 223.455 628.106 223.455C627.231 223.455 626.389 223.604 625.578 223.903L625.194 224.031V235.999ZM647.457 223.647H643.521V230.207C643.521 230.847 643.532 231.306 643.553 231.583C643.596 231.839 643.713 232.063 643.905 232.255C644.119 232.447 644.439 232.543 644.865 232.543L647.297 232.479L647.489 235.903C646.06 236.223 644.972 236.383 644.225 236.383C642.305 236.383 640.993 235.956 640.289 235.103C639.585 234.228 639.233 232.628 639.233 230.303V223.647H637.345V219.999H639.233V215.551H643.521V219.999H647.457V223.647ZM650.25 235.999V219.999H654.538V235.999H650.25ZM650.25 217.951V213.599H654.538V217.951H650.25ZM664.484 219.615C665.593 219.615 667.012 219.786 668.74 220.127L669.604 220.319L669.476 223.711C667.79 223.54 666.542 223.455 665.732 223.455C664.26 223.455 663.278 223.775 662.788 224.415C662.318 225.034 662.084 226.218 662.084 227.967C662.084 229.716 662.318 230.922 662.788 231.583C663.278 232.223 664.27 232.543 665.764 232.543L669.476 232.287L669.604 235.711C667.321 236.159 665.582 236.383 664.388 236.383C662.02 236.383 660.313 235.722 659.268 234.399C658.244 233.055 657.732 230.911 657.732 227.967C657.732 225.023 658.265 222.9 659.332 221.599C660.398 220.276 662.116 219.615 664.484 219.615ZM685.037 224.991V231.647C685.08 232.159 685.165 232.522 685.293 232.735C685.421 232.927 685.688 233.066 686.093 233.151L685.965 236.383C684.877 236.383 684.002 236.308 683.341 236.159C682.701 236.01 682.05 235.711 681.389 235.263C679.853 236.01 678.285 236.383 676.685 236.383C673.378 236.383 671.725 234.634 671.725 231.135C671.725 229.428 672.184 228.223 673.101 227.519C674.018 226.794 675.426 226.367 677.325 226.239L680.749 225.983V224.991C680.749 224.33 680.6 223.882 680.301 223.647C680.002 223.391 679.522 223.263 678.861 223.263L672.845 223.519L672.717 220.543C675 219.924 677.165 219.615 679.213 219.615C681.282 219.615 682.765 220.042 683.661 220.895C684.578 221.748 685.037 223.114 685.037 224.991ZM677.837 229.215C676.642 229.322 676.045 229.962 676.045 231.135C676.045 232.308 676.568 232.895 677.613 232.895C678.424 232.895 679.309 232.767 680.269 232.511L680.749 232.383V228.959L677.837 229.215ZM697.989 223.647H694.053V230.207C694.053 230.847 694.063 231.306 694.085 231.583C694.127 231.839 694.245 232.063 694.437 232.255C694.65 232.447 694.97 232.543 695.397 232.543L697.829 232.479L698.021 235.903C696.591 236.223 695.503 236.383 694.757 236.383C692.837 236.383 691.525 235.956 690.821 235.103C690.117 234.228 689.765 232.628 689.765 230.303V223.647H687.877V219.999H689.765V215.551H694.053V219.999H697.989V223.647ZM700.781 235.999V219.999H705.069V235.999H700.781ZM700.781 217.951V213.599H705.069V217.951H700.781ZM709.895 221.823C711.026 220.351 712.914 219.615 715.559 219.615C718.204 219.615 720.092 220.351 721.223 221.823C722.354 223.274 722.919 225.322 722.919 227.967C722.919 233.578 720.466 236.383 715.559 236.383C710.652 236.383 708.199 233.578 708.199 227.967C708.199 225.322 708.764 223.274 709.895 221.823ZM713.191 231.583C713.639 232.351 714.428 232.735 715.559 232.735C716.69 232.735 717.468 232.351 717.895 231.583C718.343 230.815 718.567 229.61 718.567 227.967C718.567 226.324 718.343 225.13 717.895 224.383C717.468 223.636 716.69 223.263 715.559 223.263C714.428 223.263 713.639 223.636 713.191 224.383C712.764 225.13 712.551 226.324 712.551 227.967C712.551 229.61 712.764 230.815 713.191 231.583ZM730.35 235.999H726.062V219.999H730.318V220.895C731.769 220.042 733.102 219.615 734.318 219.615C736.451 219.615 737.923 220.244 738.734 221.503C739.545 222.762 739.95 224.703 739.95 227.327V235.999H735.662V227.455C735.662 226.09 735.502 225.087 735.182 224.447C734.862 223.786 734.222 223.455 733.262 223.455C732.387 223.455 731.545 223.604 730.734 223.903L730.35 224.031V235.999ZM756.765 219.615C757.874 219.615 759.293 219.786 761.021 220.127L761.885 220.319L761.757 223.711C760.072 223.54 758.824 223.455 758.013 223.455C756.541 223.455 755.56 223.775 755.069 224.415C754.6 225.034 754.365 226.218 754.365 227.967C754.365 229.716 754.6 230.922 755.069 231.583C755.56 232.223 756.552 232.543 758.045 232.543L761.757 232.287L761.885 235.711C759.602 236.159 757.864 236.383 756.669 236.383C754.301 236.383 752.594 235.722 751.549 234.399C750.525 233.055 750.013 230.911 750.013 227.967C750.013 225.023 750.546 222.9 751.613 221.599C752.68 220.276 754.397 219.615 756.765 219.615ZM765.801 221.823C766.932 220.351 768.82 219.615 771.465 219.615C774.11 219.615 775.998 220.351 777.129 221.823C778.26 223.274 778.825 225.322 778.825 227.967C778.825 233.578 776.372 236.383 771.465 236.383C766.558 236.383 764.105 233.578 764.105 227.967C764.105 225.322 764.67 223.274 765.801 221.823ZM769.097 231.583C769.545 232.351 770.334 232.735 771.465 232.735C772.596 232.735 773.374 232.351 773.801 231.583C774.249 230.815 774.473 229.61 774.473 227.967C774.473 226.324 774.249 225.13 773.801 224.383C773.374 223.636 772.596 223.263 771.465 223.263C770.334 223.263 769.545 223.636 769.097 224.383C768.67 225.13 768.457 226.324 768.457 227.967C768.457 229.61 768.67 230.815 769.097 231.583ZM786.256 235.999H781.968V219.999H786.224V220.895C787.696 220.042 788.955 219.615 790 219.615C791.728 219.615 793.062 220.116 794 221.119C795.963 220.116 797.755 219.615 799.376 219.615C801.488 219.615 802.95 220.234 803.76 221.471C804.592 222.687 805.008 224.639 805.008 227.327V235.999H800.72V227.455C800.72 226.09 800.571 225.087 800.272 224.447C799.974 223.786 799.376 223.455 798.48 223.455C797.798 223.455 796.966 223.604 795.984 223.903L795.504 224.063C795.59 225.663 795.632 226.879 795.632 227.711V235.999H791.344V227.775C791.344 226.196 791.206 225.087 790.928 224.447C790.651 223.786 790.043 223.455 789.104 223.455C788.272 223.455 787.451 223.604 786.64 223.903L786.256 224.031V235.999ZM808.812 242.719V219.999H813.068V220.863C814.455 220.031 815.671 219.615 816.716 219.615C818.871 219.615 820.46 220.266 821.484 221.567C822.508 222.847 823.02 225.034 823.02 228.127C823.02 231.22 822.455 233.375 821.324 234.591C820.193 235.786 818.337 236.383 815.756 236.383C815.052 236.383 814.295 236.319 813.484 236.191L813.1 236.127V242.719H808.812ZM815.884 223.455C815.095 223.455 814.295 223.615 813.484 223.935L813.1 224.095V232.479C814.06 232.607 814.839 232.671 815.436 232.671C816.673 232.671 817.516 232.308 817.964 231.583C818.433 230.858 818.668 229.62 818.668 227.871C818.668 224.927 817.74 223.455 815.884 223.455ZM826.41 235.999V213.599H830.698V235.999H826.41ZM838.363 229.823C838.385 230.804 838.641 231.519 839.131 231.967C839.643 232.394 840.369 232.607 841.307 232.607C843.291 232.607 845.062 232.543 846.619 232.415L847.515 232.319L847.579 235.487C845.126 236.084 842.907 236.383 840.923 236.383C838.513 236.383 836.763 235.743 835.675 234.463C834.587 233.183 834.043 231.103 834.043 228.223C834.043 222.484 836.401 219.615 841.115 219.615C845.766 219.615 848.091 222.026 848.091 226.847L847.771 229.823H838.363ZM843.867 226.559C843.867 225.279 843.665 224.394 843.259 223.903C842.854 223.391 842.139 223.135 841.115 223.135C840.113 223.135 839.398 223.402 838.971 223.935C838.566 224.447 838.353 225.322 838.331 226.559H843.867ZM860.02 223.647H856.084V230.207C856.084 230.847 856.095 231.306 856.116 231.583C856.159 231.839 856.276 232.063 856.468 232.255C856.681 232.447 857.001 232.543 857.428 232.543L859.86 232.479L860.052 235.903C858.623 236.223 857.535 236.383 856.788 236.383C854.868 236.383 853.556 235.956 852.852 235.103C852.148 234.228 851.796 232.628 851.796 230.303V223.647H849.908V219.999H851.796V215.551H856.084V219.999H860.02V223.647ZM866.332 229.823C866.353 230.804 866.609 231.519 867.1 231.967C867.612 232.394 868.337 232.607 869.276 232.607C871.26 232.607 873.031 232.543 874.588 232.415L875.484 232.319L875.548 235.487C873.095 236.084 870.876 236.383 868.892 236.383C866.481 236.383 864.732 235.743 863.644 234.463C862.556 233.183 862.012 231.103 862.012 228.223C862.012 222.484 864.369 219.615 869.084 219.615C873.735 219.615 876.06 222.026 876.06 226.847L875.74 229.823H866.332ZM871.836 226.559C871.836 225.279 871.633 224.394 871.228 223.903C870.823 223.391 870.108 223.135 869.084 223.135C868.081 223.135 867.367 223.402 866.94 223.935C866.535 224.447 866.321 225.322 866.3 226.559H871.836ZM892.725 213.599V235.999H888.469V235.327C886.975 236.031 885.685 236.383 884.597 236.383C882.271 236.383 880.65 235.711 879.733 234.367C878.815 233.023 878.357 230.9 878.357 227.999C878.357 225.076 878.901 222.954 879.989 221.631C881.098 220.287 882.762 219.615 884.981 219.615C885.663 219.615 886.613 219.722 887.829 219.935L888.437 220.063V213.599H892.725ZM887.989 232.159L888.437 232.063V223.647C887.263 223.434 886.218 223.327 885.301 223.327C883.573 223.327 882.709 224.863 882.709 227.935C882.709 229.599 882.901 230.783 883.285 231.487C883.669 232.191 884.298 232.543 885.173 232.543C886.069 232.543 887.007 232.415 887.989 232.159ZM896.879 235.999V230.847H901.487V235.999H896.879ZM897.295 227.999L896.879 214.239H901.519L901.071 227.999H897.295Z" fill="#17324D"/>
<path d="M742.865 406.493C721.601 392.219 707.933 360.605 712.331 335.879C716.729 311.153 737.537 302.681 758.795 316.955C780.059 331.229 793.727 362.843 789.329 387.569C784.931 412.295 764.123 420.767 742.865 406.493Z" fill="#0066CC"/>
<path d="M732.599 412.127C711.335 397.853 697.667 366.239 702.065 341.513C706.463 316.787 727.271 308.315 748.529 322.589C769.793 336.863 783.461 368.477 779.063 393.203C774.665 417.929 753.857 426.401 732.599 412.127Z" fill="#FFB458"/>
<path d="M722.675 417.965C701.411 403.691 687.743 372.077 692.141 347.351C696.539 322.625 717.347 314.153 738.605 328.427C759.869 342.701 773.537 374.315 769.139 399.041C764.741 423.767 743.933 432.239 722.675 417.965Z" fill="#7AC1FA"/>
<path d="M737.609 390.683L734.639 388.967C734.243 388.739 733.733 388.871 733.499 389.261C730.613 394.097 727.913 394.655 723.413 392.483C718.973 390.347 715.991 384.833 715.469 378.893C715.403 378.173 714.983 377.531 714.359 377.171L711.617 375.587C711.263 375.383 710.807 375.641 710.819 376.055C711.077 384.077 714.629 392.543 721.013 396.395C727.985 400.601 733.649 398.309 737.975 392.387C738.389 391.823 738.215 391.025 737.609 390.677V390.683Z" fill="#003366"/>
<path d="M711.857 368.417L714.785 370.109C715.487 370.517 716.363 370.007 716.363 369.197V353.003C716.363 352.247 715.961 351.557 715.307 351.179L712.379 349.487C711.677 349.079 710.801 349.589 710.801 350.399V366.593C710.801 367.349 711.203 368.039 711.857 368.417Z" fill="#003366"/>
<path d="M739.776 363.563L736.848 361.871C736.146 361.463 735.27 361.973 735.27 362.783V378.977C735.27 379.733 735.672 380.423 736.326 380.801L739.254 382.493C739.956 382.901 740.832 382.391 740.832 381.581V365.387C740.832 364.631 740.43 363.941 739.776 363.563Z" fill="#003366"/>
<path d="M669.499 420.947C669.055 419.345 668.851 417.701 668.791 415.811C668.665 412.067 668.539 408.323 668.425 404.579C668.317 401.117 668.233 397.661 668.125 394.199C668.095 393.269 668.035 392.345 668.191 391.415C668.557 389.249 670.627 387.311 672.817 387.119C673.945 387.017 673.759 387.209 673.873 386.099C674.185 383.147 674.485 380.195 674.743 377.237C674.845 376.067 674.857 374.891 675.241 373.757C676.393 370.319 681.055 369.077 683.761 371.483C686.503 373.805 685.549 376.661 685.345 379.763C685.339 379.859 685.315 379.967 685.501 380.093C686.449 376.847 687.163 373.571 688.141 370.337C690.355 363.419 700.429 366.467 698.515 373.391C696.781 379.793 695.173 386.051 693.367 392.459C698.935 389.225 705.757 389.627 710.401 394.253C712.861 396.647 714.517 399.533 715.171 402.905C715.681 405.545 715.387 408.119 713.587 410.273C709.681 414.953 705.601 408.425 704.521 404.747C702.121 397.823 696.679 402.077 695.641 407.231C694.933 410.045 695.359 414.257 697.561 416.351C699.283 417.983 702.187 417.893 704.101 416.645C707.161 414.731 712.327 409.247 714.685 414.851C716.023 418.433 715.219 421.625 712.741 424.439C710.779 426.665 708.907 427.319 706.243 428.135C703.117 429.095 700.057 431.651 697.261 433.343C693.919 435.359 690.409 437.435 686.515 437.675C682.879 437.897 680.167 436.205 678.103 433.409C675.925 430.463 672.991 428.441 671.167 425.057C670.399 423.635 669.859 422.303 669.487 420.947H669.499Z" fill="#FFB458"/>
<path d="M691.638 435.479C691.638 426.671 684.498 415.409 675.69 410.321C670.59 407.375 666.054 407.153 663.132 409.193L653.562 414.803C650.586 415.985 648.738 418.961 648.738 423.443C648.738 432.251 655.878 443.513 664.686 448.601C669.21 451.211 673.284 451.679 676.188 450.335C676.566 450.161 676.926 449.951 677.262 449.717L687.492 443.813C687.534 443.789 687.576 443.759 687.624 443.735L687.696 443.693C690.15 442.307 691.638 439.493 691.638 435.479Z" fill="#0066CC"/>
<path d="M637.402 538.801C636.166 539.053 635.056 539.179 634.072 539.179C633.088 539.179 632.29 539.047 631.678 538.783C631.078 538.507 630.61 538.087 630.274 537.523C629.95 536.947 629.722 536.293 629.59 535.561C629.47 534.817 629.41 533.893 629.41 532.789C629.41 531.685 629.47 530.761 629.59 530.017C629.722 529.261 629.95 528.595 630.274 528.019C630.61 527.443 631.078 527.023 631.678 526.759C632.278 526.495 633.058 526.363 634.018 526.363C634.978 526.363 636.106 526.495 637.402 526.759L637.348 527.929C636.136 527.713 635.056 527.605 634.108 527.605C632.788 527.605 631.912 528.001 631.48 528.793C631.06 529.573 630.85 530.911 630.85 532.807C630.85 533.755 630.886 534.517 630.958 535.093C631.042 535.669 631.198 536.191 631.426 536.659C631.654 537.115 631.984 537.445 632.416 537.649C632.86 537.841 633.502 537.937 634.342 537.937C635.194 537.937 636.196 537.829 637.348 537.613L637.402 538.801ZM638.863 534.481C638.863 532.837 639.157 531.649 639.745 530.917C640.333 530.185 641.323 529.819 642.715 529.819C644.119 529.819 645.109 530.185 645.685 530.917C646.273 531.649 646.567 532.837 646.567 534.481C646.567 536.125 646.291 537.319 645.739 538.063C645.187 538.807 644.179 539.179 642.715 539.179C641.251 539.179 640.243 538.807 639.691 538.063C639.139 537.319 638.863 536.125 638.863 534.481ZM640.249 534.463C640.249 535.771 640.405 536.689 640.717 537.217C641.041 537.745 641.707 538.009 642.715 538.009C643.735 538.009 644.401 537.751 644.713 537.235C645.025 536.707 645.181 535.783 645.181 534.463C645.181 533.143 645.007 532.237 644.659 531.745C644.311 531.241 643.663 530.989 642.715 530.989C641.779 530.989 641.131 531.241 640.771 531.745C640.423 532.237 640.249 533.143 640.249 534.463ZM650.119 538.999H648.769V529.999H650.101V530.629C651.073 530.089 652.003 529.819 652.891 529.819C654.091 529.819 654.895 530.143 655.303 530.791C655.723 531.439 655.933 532.591 655.933 534.247V538.999H654.601V534.283C654.601 533.035 654.475 532.183 654.223 531.727C653.983 531.259 653.461 531.025 652.657 531.025C652.273 531.025 651.865 531.085 651.433 531.205C651.013 531.313 650.689 531.421 650.461 531.529L650.119 531.691V538.999ZM663.046 531.169H660.184V535.471C660.184 536.503 660.256 537.181 660.4 537.505C660.556 537.829 660.916 537.991 661.48 537.991L663.082 537.883L663.172 538.999C662.368 539.131 661.756 539.197 661.336 539.197C660.4 539.197 659.752 538.969 659.392 538.513C659.032 538.057 658.852 537.187 658.852 535.903V531.169H657.574V529.999H658.852V527.245H660.184V529.999H663.046V531.169ZM664.694 538.999V529.999H666.044V538.999H664.694ZM664.694 527.965V526.399H666.044V527.965H664.694ZM669.982 538.999H668.632V529.999H669.964V530.629C670.936 530.089 671.866 529.819 672.754 529.819C673.954 529.819 674.758 530.143 675.166 530.791C675.586 531.439 675.796 532.591 675.796 534.247V538.999H674.464V534.283C674.464 533.035 674.338 532.183 674.086 531.727C673.846 531.259 673.324 531.025 672.52 531.025C672.136 531.025 671.728 531.085 671.296 531.205C670.876 531.313 670.552 531.421 670.324 531.529L669.982 531.691V538.999ZM683.916 529.999H685.266V538.999H683.916V538.369C683.016 538.909 682.128 539.179 681.252 539.179C680.028 539.179 679.212 538.861 678.804 538.225C678.408 537.589 678.21 536.413 678.21 534.697V529.999H679.56V534.679C679.56 535.987 679.674 536.863 679.902 537.307C680.13 537.751 680.646 537.973 681.45 537.973C681.846 537.973 682.248 537.919 682.656 537.811C683.064 537.691 683.376 537.577 683.592 537.469L683.916 537.307V529.999ZM693.982 537.883L694.504 537.829L694.54 538.891C693.172 539.083 692.002 539.179 691.03 539.179C689.734 539.179 688.816 538.807 688.276 538.063C687.736 537.307 687.466 536.137 687.466 534.553C687.466 531.397 688.72 529.819 691.228 529.819C692.44 529.819 693.346 530.161 693.946 530.845C694.546 531.517 694.846 532.579 694.846 534.031L694.774 535.057H688.834C688.834 536.053 689.014 536.791 689.374 537.271C689.734 537.751 690.358 537.991 691.246 537.991C692.146 537.991 693.058 537.955 693.982 537.883ZM693.496 533.977C693.496 532.873 693.316 532.093 692.956 531.637C692.608 531.181 692.032 530.953 691.228 530.953C690.436 530.953 689.836 531.193 689.428 531.673C689.032 532.153 688.828 532.921 688.816 533.977H693.496ZM700.509 534.481C700.509 532.837 700.803 531.649 701.391 530.917C701.979 530.185 702.969 529.819 704.361 529.819C705.765 529.819 706.755 530.185 707.331 530.917C707.919 531.649 708.213 532.837 708.213 534.481C708.213 536.125 707.937 537.319 707.385 538.063C706.833 538.807 705.825 539.179 704.361 539.179C702.897 539.179 701.889 538.807 701.337 538.063C700.785 537.319 700.509 536.125 700.509 534.481ZM701.895 534.463C701.895 535.771 702.051 536.689 702.363 537.217C702.687 537.745 703.353 538.009 704.361 538.009C705.381 538.009 706.047 537.751 706.359 537.235C706.671 536.707 706.827 535.783 706.827 534.463C706.827 533.143 706.653 532.237 706.305 531.745C705.957 531.241 705.309 530.989 704.361 530.989C703.425 530.989 702.777 531.241 702.417 531.745C702.069 532.237 701.895 533.143 701.895 534.463ZM711.765 538.999H710.415V529.999H711.747V530.629C712.719 530.089 713.649 529.819 714.537 529.819C715.737 529.819 716.541 530.143 716.949 530.791C717.369 531.439 717.579 532.591 717.579 534.247V538.999H716.247V534.283C716.247 533.035 716.121 532.183 715.869 531.727C715.629 531.259 715.107 531.025 714.303 531.025C713.919 531.025 713.511 531.085 713.079 531.205C712.659 531.313 712.335 531.421 712.107 531.529L711.765 531.691V538.999ZM728.7 531.169H725.838V535.471C725.838 536.503 725.91 537.181 726.054 537.505C726.21 537.829 726.57 537.991 727.134 537.991L728.736 537.883L728.826 538.999C728.022 539.131 727.41 539.197 726.99 539.197C726.054 539.197 725.406 538.969 725.046 538.513C724.686 538.057 724.506 537.187 724.506 535.903V531.169H723.228V529.999H724.506V527.245H725.838V529.999H728.7V531.169ZM731.699 538.999H730.349V526.075H731.699V530.503C732.659 530.047 733.583 529.819 734.471 529.819C735.671 529.819 736.475 530.143 736.883 530.791C737.303 531.439 737.513 532.591 737.513 534.247V538.999H736.163V534.283C736.163 533.035 736.037 532.183 735.785 531.727C735.545 531.259 735.029 531.025 734.237 531.025C733.481 531.025 732.749 531.163 732.041 531.439L731.699 531.565V538.999ZM746.137 537.883L746.659 537.829L746.695 538.891C745.327 539.083 744.157 539.179 743.185 539.179C741.889 539.179 740.971 538.807 740.431 538.063C739.891 537.307 739.621 536.137 739.621 534.553C739.621 531.397 740.875 529.819 743.383 529.819C744.595 529.819 745.501 530.161 746.101 530.845C746.701 531.517 747.001 532.579 747.001 534.031L746.929 535.057H740.989C740.989 536.053 741.169 536.791 741.529 537.271C741.889 537.751 742.513 537.991 743.401 537.991C744.301 537.991 745.213 537.955 746.137 537.883ZM745.651 533.977C745.651 532.873 745.471 532.093 745.111 531.637C744.763 531.181 744.187 530.953 743.383 530.953C742.591 530.953 741.991 531.193 741.583 531.673C741.187 532.153 740.983 532.921 740.971 533.977H745.651ZM752.322 529.999H753.672L755.49 537.829H755.778L757.92 530.179H759.324L761.466 537.829H761.772L763.572 529.999H764.922L762.78 538.999H760.53L758.622 531.961L756.714 538.999H754.464L752.322 529.999ZM772.803 537.883L773.325 537.829L773.361 538.891C771.993 539.083 770.823 539.179 769.851 539.179C768.555 539.179 767.637 538.807 767.097 538.063C766.557 537.307 766.287 536.137 766.287 534.553C766.287 531.397 767.541 529.819 770.049 529.819C771.261 529.819 772.167 530.161 772.767 530.845C773.367 531.517 773.667 532.579 773.667 534.031L773.595 535.057H767.655C767.655 536.053 767.835 536.791 768.195 537.271C768.555 537.751 769.179 537.991 770.067 537.991C770.967 537.991 771.879 537.955 772.803 537.883ZM772.317 533.977C772.317 532.873 772.137 532.093 771.777 531.637C771.429 531.181 770.853 530.953 770.049 530.953C769.257 530.953 768.657 531.193 768.249 531.673C767.853 532.153 767.649 532.921 767.637 533.977H772.317ZM779.749 529.819C780.961 529.819 781.807 530.167 782.287 530.863C782.779 531.547 783.025 532.753 783.025 534.481C783.025 536.209 782.719 537.427 782.107 538.135C781.507 538.831 780.397 539.179 778.777 539.179C778.273 539.179 777.439 539.131 776.275 539.035L775.771 538.981V526.075H777.103V530.449C778.015 530.029 778.897 529.819 779.749 529.819ZM778.759 537.973C779.935 537.973 780.709 537.709 781.081 537.181C781.465 536.641 781.657 535.735 781.657 534.463C781.657 533.191 781.507 532.303 781.207 531.799C780.907 531.283 780.373 531.025 779.605 531.025C778.909 531.025 778.195 531.157 777.463 531.421L777.103 531.547V537.883C777.883 537.943 778.435 537.973 778.759 537.973ZM788.071 531.025C786.763 531.025 786.109 531.481 786.109 532.393C786.109 532.813 786.259 533.113 786.559 533.293C786.859 533.461 787.543 533.641 788.611 533.833C789.679 534.013 790.435 534.271 790.879 534.607C791.323 534.943 791.545 535.573 791.545 536.497C791.545 537.421 791.245 538.099 790.645 538.531C790.057 538.963 789.193 539.179 788.053 539.179C787.309 539.179 786.433 539.095 785.425 538.927L784.885 538.837L784.957 537.667C786.325 537.871 787.357 537.973 788.053 537.973C788.749 537.973 789.277 537.865 789.637 537.649C790.009 537.421 790.195 537.049 790.195 536.533C790.195 536.005 790.039 535.651 789.727 535.471C789.415 535.279 788.731 535.099 787.675 534.931C786.619 534.763 785.869 534.517 785.425 534.193C784.981 533.869 784.759 533.269 784.759 532.393C784.759 531.517 785.065 530.869 785.677 530.449C786.301 530.029 787.075 529.819 787.999 529.819C788.731 529.819 789.649 529.903 790.753 530.071L791.257 530.161L791.221 531.313C789.889 531.121 788.839 531.025 788.071 531.025ZM793.612 538.999V529.999H794.962V538.999H793.612ZM793.612 527.965V526.399H794.962V527.965H793.612ZM802.212 531.169H799.35V535.471C799.35 536.503 799.422 537.181 799.566 537.505C799.722 537.829 800.082 537.991 800.646 537.991L802.248 537.883L802.338 538.999C801.534 539.131 800.922 539.197 800.502 539.197C799.566 539.197 798.918 538.969 798.558 538.513C798.198 538.057 798.018 537.187 798.018 535.903V531.169H796.74V529.999H798.018V527.245H799.35V529.999H802.212V531.169ZM809.98 537.883L810.502 537.829L810.538 538.891C809.17 539.083 808 539.179 807.028 539.179C805.732 539.179 804.814 538.807 804.274 538.063C803.734 537.307 803.464 536.137 803.464 534.553C803.464 531.397 804.718 529.819 807.226 529.819C808.438 529.819 809.344 530.161 809.944 530.845C810.544 531.517 810.844 532.579 810.844 534.031L810.772 535.057H804.832C804.832 536.053 805.012 536.791 805.372 537.271C805.732 537.751 806.356 537.991 807.244 537.991C808.144 537.991 809.056 537.955 809.98 537.883ZM809.494 533.977C809.494 532.873 809.314 532.093 808.954 531.637C808.606 531.181 808.03 530.953 807.226 530.953C806.434 530.953 805.834 531.193 805.426 531.673C805.03 532.153 804.826 532.921 804.814 533.977H809.494Z" fill="#17324D"/>
<rect x="665.5" y="593.999" width="109" height="48" rx="4" fill="#0066CC"/>
<path d="M694.483 624.175C692.883 624.175 691.795 623.732 691.219 622.847C690.654 621.962 690.371 620.506 690.371 618.479C690.371 616.452 690.659 615.012 691.235 614.159C691.811 613.295 692.894 612.863 694.483 612.863C695.432 612.863 696.478 612.996 697.619 613.263L697.555 614.703C696.595 614.532 695.635 614.447 694.675 614.447C693.715 614.447 693.064 614.735 692.723 615.311C692.382 615.876 692.211 616.948 692.211 618.527C692.211 620.095 692.376 621.167 692.707 621.743C693.038 622.308 693.683 622.591 694.643 622.591C695.603 622.591 696.574 622.511 697.555 622.351L697.603 623.823C696.504 624.058 695.464 624.175 694.483 624.175ZM699.59 616.863C700.144 616.17 701.062 615.823 702.342 615.823C703.622 615.823 704.534 616.17 705.078 616.863C705.632 617.556 705.91 618.596 705.91 619.983C705.91 621.37 705.643 622.415 705.11 623.119C704.576 623.823 703.654 624.175 702.342 624.175C701.03 624.175 700.107 623.823 699.574 623.119C699.04 622.415 698.774 621.37 698.774 619.983C698.774 618.596 699.046 617.556 699.59 616.863ZM700.902 622.063C701.147 622.49 701.627 622.703 702.342 622.703C703.056 622.703 703.536 622.49 703.782 622.063C704.027 621.636 704.15 620.938 704.15 619.967C704.15 618.996 704.016 618.308 703.75 617.903C703.494 617.498 703.024 617.295 702.342 617.295C701.659 617.295 701.184 617.498 700.918 617.903C700.662 618.308 700.534 618.996 700.534 619.967C700.534 620.938 700.656 621.636 700.902 622.063ZM709.386 623.999H707.642V615.999H709.37V616.495C710.149 616.047 710.885 615.823 711.578 615.823C712.645 615.823 713.37 616.127 713.754 616.735C714.149 617.332 714.346 618.324 714.346 619.711V623.999H712.618V619.759C712.618 618.895 712.522 618.282 712.33 617.919C712.149 617.556 711.77 617.375 711.194 617.375C710.65 617.375 710.127 617.482 709.626 617.695L709.386 617.791V623.999ZM720.68 617.487H718.472V621.007C718.472 621.658 718.52 622.09 718.616 622.303C718.712 622.516 718.958 622.623 719.352 622.623L720.664 622.575L720.744 623.967C720.03 624.106 719.486 624.175 719.112 624.175C718.206 624.175 717.582 623.967 717.24 623.551C716.91 623.135 716.744 622.351 716.744 621.199V617.487H715.72V615.999H716.744V613.679H718.472V615.999H720.68V617.487ZM722.111 623.999V615.999H723.855V623.999H722.111ZM722.111 614.639V612.799H723.855V614.639H722.111ZM727.714 623.999H725.97V615.999H727.698V616.495C728.477 616.047 729.213 615.823 729.906 615.823C730.973 615.823 731.698 616.127 732.082 616.735C732.477 617.332 732.674 618.324 732.674 619.711V623.999H730.946V619.759C730.946 618.895 730.85 618.282 730.658 617.919C730.477 617.556 730.098 617.375 729.522 617.375C728.978 617.375 728.455 617.482 727.954 617.695L727.714 617.791V623.999ZM739.552 615.999H741.28V623.999H739.552V623.503C738.774 623.951 738.054 624.175 737.392 624.175C736.294 624.175 735.558 623.882 735.184 623.295C734.811 622.698 734.624 621.658 734.624 620.175V615.999H736.368V620.191C736.368 621.151 736.448 621.796 736.608 622.127C736.768 622.458 737.142 622.623 737.728 622.623C738.304 622.623 738.832 622.516 739.312 622.303L739.552 622.207V615.999ZM749.088 622.559L749.536 622.511L749.568 623.807C748.352 624.052 747.275 624.175 746.336 624.175C745.152 624.175 744.299 623.85 743.776 623.199C743.264 622.548 743.008 621.508 743.008 620.079C743.008 617.242 744.165 615.823 746.48 615.823C748.72 615.823 749.84 617.044 749.84 619.487L749.728 620.735H744.768C744.779 621.396 744.923 621.882 745.2 622.191C745.477 622.5 745.995 622.655 746.752 622.655C747.509 622.655 748.288 622.623 749.088 622.559ZM748.128 619.391C748.128 618.602 748 618.052 747.744 617.743C747.499 617.423 747.077 617.263 746.48 617.263C745.883 617.263 745.445 617.428 745.168 617.759C744.901 618.09 744.763 618.634 744.752 619.391H748.128Z" fill="white"/>
<rect width="1440" height="64" transform="translate(0 725.999)" fill="#003366"/>
<mask id="path-26-inside-1_4177_47337" fill="white">
<path d="M0 725.999H1440V789.999H0V725.999Z"/>
</mask>
<path d="M0 725.999H1440V789.999H0V725.999Z" fill="#003366"/>
<path d="M0 725.999V726.999H1440V725.999V724.999H0V725.999Z" fill="white" fill-opacity="0.5" mask="url(#path-26-inside-1_4177_47337)"/>
<path d="M30.482 762.999H25.106V753.409H26.66V761.613H30.482V762.999ZM36.5525 761.739L36.9445 761.697L36.9725 762.831C35.9085 763.046 34.9659 763.153 34.1445 763.153C33.1085 763.153 32.3619 762.868 31.9045 762.299C31.4565 761.73 31.2325 760.82 31.2325 759.569C31.2325 757.086 32.2452 755.845 34.2705 755.845C36.2305 755.845 37.2105 756.914 37.2105 759.051L37.1125 760.143H32.7725C32.7819 760.722 32.9079 761.146 33.1505 761.417C33.3932 761.688 33.8459 761.823 34.5085 761.823C35.1712 761.823 35.8525 761.795 36.5525 761.739ZM35.7125 758.967C35.7125 758.276 35.6005 757.796 35.3765 757.525C35.1619 757.245 34.7932 757.105 34.2705 757.105C33.7479 757.105 33.3652 757.25 33.1225 757.539C32.8892 757.828 32.7679 758.304 32.7585 758.967H35.7125ZM44.7959 763.951C44.7959 765.482 43.6899 766.247 41.4779 766.247C40.4139 766.247 39.6252 766.102 39.1119 765.813C38.5986 765.524 38.3419 764.996 38.3419 764.231C38.3419 763.886 38.4259 763.587 38.5939 763.335C38.7619 763.092 39.0326 762.826 39.4059 762.537C39.0979 762.332 38.9439 761.991 38.9439 761.515C38.9439 761.328 39.0699 761.025 39.3219 760.605L39.4479 760.395C38.7759 759.994 38.4399 759.294 38.4399 758.295C38.4399 757.455 38.6919 756.839 39.1959 756.447C39.6999 756.055 40.3812 755.859 41.2399 755.859C41.6506 755.859 42.0566 755.906 42.4579 755.999L42.6679 756.041L44.8379 755.985V757.217L43.6759 757.147C43.9279 757.474 44.0539 757.856 44.0539 758.295C44.0539 759.21 43.8206 759.844 43.3539 760.199C42.8966 760.544 42.1779 760.717 41.1979 760.717C40.9552 760.717 40.7499 760.698 40.5819 760.661C40.4512 760.978 40.3859 761.226 40.3859 761.403C40.3859 761.571 40.4699 761.688 40.6379 761.753C40.8152 761.818 41.2352 761.856 41.8979 761.865C43.0086 761.874 43.7692 762.024 44.1799 762.313C44.5906 762.602 44.7959 763.148 44.7959 763.951ZM39.8399 764.091C39.8399 764.418 39.9706 764.651 40.2319 764.791C40.4932 764.931 40.9412 765.001 41.5759 765.001C42.7052 765.001 43.2699 764.679 43.2699 764.035C43.2699 763.671 43.1672 763.438 42.9619 763.335C42.7659 763.242 42.3692 763.19 41.7719 763.181L40.3999 763.097C40.1946 763.265 40.0499 763.419 39.9659 763.559C39.8819 763.708 39.8399 763.886 39.8399 764.091ZM39.9519 758.295C39.9519 758.724 40.0546 759.042 40.2599 759.247C40.4652 759.443 40.7966 759.541 41.2539 759.541C41.7112 759.541 42.0379 759.443 42.2339 759.247C42.4392 759.042 42.5419 758.724 42.5419 758.295C42.5419 757.866 42.4392 757.553 42.2339 757.357C42.0286 757.152 41.6972 757.049 41.2399 757.049C40.3812 757.049 39.9519 757.464 39.9519 758.295ZM51.2134 758.155V761.347C51.2227 761.552 51.274 761.706 51.3674 761.809C51.47 761.902 51.624 761.963 51.8294 761.991L51.7874 763.153C50.9847 763.153 50.364 762.98 49.9254 762.635C49.1787 762.98 48.4274 763.153 47.6714 763.153C46.2807 763.153 45.5854 762.411 45.5854 760.927C45.5854 760.218 45.772 759.704 46.1454 759.387C46.528 759.07 47.1114 758.878 47.8954 758.813L49.7014 758.659V758.155C49.7014 757.782 49.6174 757.52 49.4494 757.371C49.2907 757.222 49.0527 757.147 48.7354 757.147C48.138 757.147 47.3914 757.184 46.4954 757.259L46.0474 757.287L45.9914 756.209C47.0087 755.966 47.942 755.845 48.7914 755.845C49.65 755.845 50.266 756.032 50.6394 756.405C51.022 756.769 51.2134 757.352 51.2134 758.155ZM48.0774 759.891C47.4334 759.947 47.1114 760.297 47.1114 760.941C47.1114 761.585 47.396 761.907 47.9654 761.907C48.432 761.907 48.9267 761.832 49.4494 761.683L49.7014 761.599V759.737L48.0774 759.891ZM53.2131 762.999V753.087H54.7391V762.999H53.2131ZM61.2723 762.999H59.7463V755.999H61.2583V756.433C61.9396 756.041 62.5836 755.845 63.1903 755.845C64.1236 755.845 64.7583 756.111 65.0943 756.643C65.4396 757.166 65.6123 758.034 65.6123 759.247V762.999H64.1003V759.289C64.1003 758.533 64.0163 757.996 63.8483 757.679C63.6896 757.362 63.3583 757.203 62.8543 757.203C62.3783 757.203 61.9209 757.296 61.4823 757.483L61.2723 757.567V762.999ZM67.7668 756.755C68.2522 756.148 69.0548 755.845 70.1748 755.845C71.2948 755.845 72.0928 756.148 72.5688 756.755C73.0542 757.362 73.2968 758.272 73.2968 759.485C73.2968 760.698 73.0635 761.613 72.5968 762.229C72.1302 762.845 71.3228 763.153 70.1748 763.153C69.0268 763.153 68.2195 762.845 67.7528 762.229C67.2862 761.613 67.0528 760.698 67.0528 759.485C67.0528 758.272 67.2908 757.362 67.7668 756.755ZM68.9148 761.305C69.1295 761.678 69.5495 761.865 70.1748 761.865C70.8002 761.865 71.2202 761.678 71.4348 761.305C71.6495 760.932 71.7568 760.32 71.7568 759.471C71.7568 758.622 71.6402 758.02 71.4068 757.665C71.1828 757.31 70.7722 757.133 70.1748 757.133C69.5775 757.133 69.1622 757.31 68.9288 757.665C68.7048 758.02 68.5928 758.622 68.5928 759.471C68.5928 760.32 68.7002 760.932 68.9148 761.305ZM78.5787 757.301H76.6467V760.381C76.6467 760.95 76.6887 761.328 76.7727 761.515C76.8567 761.702 77.0713 761.795 77.4167 761.795L78.5647 761.753L78.6347 762.971C78.0093 763.092 77.5333 763.153 77.2067 763.153C76.4133 763.153 75.8673 762.971 75.5687 762.607C75.2793 762.243 75.1347 761.557 75.1347 760.549V757.301H74.2387V755.999H75.1347V753.969H76.6467V755.999H78.5787V757.301ZM84.8143 761.739L85.2063 761.697L85.2343 762.831C84.1703 763.046 83.2276 763.153 82.4062 763.153C81.3703 763.153 80.6236 762.868 80.1663 762.299C79.7183 761.73 79.4943 760.82 79.4943 759.569C79.4943 757.086 80.5069 755.845 82.5323 755.845C84.4923 755.845 85.4723 756.914 85.4723 759.051L85.3743 760.143H81.0343C81.0436 760.722 81.1696 761.146 81.4123 761.417C81.6549 761.688 82.1076 761.823 82.7703 761.823C83.4329 761.823 84.1143 761.795 84.8143 761.739ZM83.9743 758.967C83.9743 758.276 83.8623 757.796 83.6383 757.525C83.4236 757.245 83.0549 757.105 82.5323 757.105C82.0096 757.105 81.6269 757.25 81.3843 757.539C81.1509 757.828 81.0296 758.304 81.0203 758.967H83.9743ZM91.7976 757.441C90.6963 757.292 89.8983 757.217 89.4036 757.217C88.909 757.217 88.5636 757.278 88.3676 757.399C88.181 757.511 88.0876 757.693 88.0876 757.945C88.0876 758.197 88.1903 758.374 88.3956 758.477C88.6103 758.58 89.105 758.701 89.8796 758.841C90.6636 758.972 91.219 759.182 91.5456 759.471C91.8723 759.76 92.0356 760.274 92.0356 761.011C92.0356 761.748 91.7976 762.29 91.3216 762.635C90.855 762.98 90.169 763.153 89.2636 763.153C88.6943 763.153 87.9756 763.074 87.1076 762.915L86.6736 762.845L86.7296 761.571C87.8496 761.72 88.657 761.795 89.1516 761.795C89.6463 761.795 89.9963 761.734 90.2016 761.613C90.4163 761.492 90.5236 761.291 90.5236 761.011C90.5236 760.731 90.421 760.54 90.2156 760.437C90.0196 760.325 89.539 760.208 88.7736 760.087C88.0176 759.956 87.4623 759.756 87.1076 759.485C86.753 759.214 86.5756 758.72 86.5756 758.001C86.5756 757.282 86.8183 756.746 87.3036 756.391C87.7983 756.036 88.4283 755.859 89.1936 755.859C89.791 755.859 90.5236 755.934 91.3916 756.083L91.8256 756.167L91.7976 757.441Z" fill="white"/>
<path d="M24 764.539H37.9394V764.959H24V764.539ZM45.1466 764.539H92.5816V764.959H45.1466V764.539Z" fill="white"/>
<path d="M121.62 760.017H119.66V762.999H118.106V753.409H121.62C123.795 753.409 124.882 754.482 124.882 756.629C124.882 757.73 124.607 758.57 124.056 759.149C123.515 759.728 122.703 760.017 121.62 760.017ZM119.66 758.673H121.606C122.726 758.673 123.286 757.992 123.286 756.629C123.286 755.976 123.151 755.5 122.88 755.201C122.609 754.902 122.185 754.753 121.606 754.753H119.66V758.673ZM126.195 762.999V755.999H127.707V756.839C128.501 756.326 129.294 755.994 130.087 755.845V757.371C129.285 757.53 128.599 757.735 128.029 757.987L127.721 758.113V762.999H126.195ZM131.254 762.999V755.999H132.78V762.999H131.254ZM131.254 754.809V753.199H132.78V754.809H131.254ZM133.973 755.999H135.569L136.913 761.697H137.361L138.761 755.999H140.315L138.495 762.999H135.779L133.973 755.999ZM146.592 758.155V761.347C146.602 761.552 146.653 761.706 146.746 761.809C146.849 761.902 147.003 761.963 147.208 761.991L147.166 763.153C146.364 763.153 145.743 762.98 145.304 762.635C144.558 762.98 143.806 763.153 143.05 763.153C141.66 763.153 140.964 762.411 140.964 760.927C140.964 760.218 141.151 759.704 141.524 759.387C141.907 759.07 142.49 758.878 143.274 758.813L145.08 758.659V758.155C145.08 757.782 144.996 757.52 144.828 757.371C144.67 757.222 144.432 757.147 144.114 757.147C143.517 757.147 142.77 757.184 141.874 757.259L141.426 757.287L141.37 756.209C142.388 755.966 143.321 755.845 144.17 755.845C145.029 755.845 145.645 756.032 146.018 756.405C146.401 756.769 146.592 757.352 146.592 758.155ZM143.456 759.891C142.812 759.947 142.49 760.297 142.49 760.941C142.49 761.585 142.775 761.907 143.344 761.907C143.811 761.907 144.306 761.832 144.828 761.683L145.08 761.599V759.737L143.456 759.891ZM151.126 755.845C151.621 755.845 152.204 755.91 152.876 756.041L153.226 756.111L153.17 757.315C152.433 757.24 151.887 757.203 151.532 757.203C150.823 757.203 150.347 757.362 150.104 757.679C149.861 757.996 149.74 758.594 149.74 759.471C149.74 760.348 149.857 760.955 150.09 761.291C150.323 761.627 150.809 761.795 151.546 761.795L153.184 761.683L153.226 762.901C152.283 763.069 151.574 763.153 151.098 763.153C150.034 763.153 149.283 762.868 148.844 762.299C148.415 761.72 148.2 760.778 148.2 759.471C148.2 758.164 148.429 757.236 148.886 756.685C149.343 756.125 150.09 755.845 151.126 755.845ZM154.057 755.999H155.555L157.039 761.697H157.417L158.901 755.999H160.413L157.753 766.009H156.255L157.095 762.999H155.891L154.057 755.999ZM168.364 760.017H166.404V762.999H164.85V753.409H168.364C170.539 753.409 171.626 754.482 171.626 756.629C171.626 757.73 171.351 758.57 170.8 759.149C170.259 759.728 169.447 760.017 168.364 760.017ZM166.404 758.673H168.35C169.47 758.673 170.03 757.992 170.03 756.629C170.03 755.976 169.895 755.5 169.624 755.201C169.353 754.902 168.929 754.753 168.35 754.753H166.404V758.673ZM173.318 756.755C173.803 756.148 174.606 755.845 175.726 755.845C176.846 755.845 177.644 756.148 178.12 756.755C178.605 757.362 178.848 758.272 178.848 759.485C178.848 760.698 178.614 761.613 178.148 762.229C177.681 762.845 176.874 763.153 175.726 763.153C174.578 763.153 173.77 762.845 173.304 762.229C172.837 761.613 172.604 760.698 172.604 759.485C172.604 758.272 172.842 757.362 173.318 756.755ZM174.466 761.305C174.68 761.678 175.1 761.865 175.726 761.865C176.351 761.865 176.771 761.678 176.986 761.305C177.2 760.932 177.308 760.32 177.308 759.471C177.308 758.622 177.191 758.02 176.958 757.665C176.734 757.31 176.323 757.133 175.726 757.133C175.128 757.133 174.713 757.31 174.48 757.665C174.256 758.02 174.144 758.622 174.144 759.471C174.144 760.32 174.251 760.932 174.466 761.305ZM180.447 762.999V753.087H181.973V762.999H180.447ZM183.904 762.999V755.999H185.43V762.999H183.904ZM183.904 754.809V753.199H185.43V754.809H183.904ZM189.899 755.845C190.394 755.845 190.977 755.91 191.649 756.041L191.999 756.111L191.943 757.315C191.206 757.24 190.66 757.203 190.305 757.203C189.596 757.203 189.12 757.362 188.877 757.679C188.635 757.996 188.513 758.594 188.513 759.471C188.513 760.348 188.63 760.955 188.863 761.291C189.097 761.627 189.582 761.795 190.319 761.795L191.957 761.683L191.999 762.901C191.057 763.069 190.347 763.153 189.871 763.153C188.807 763.153 188.056 762.868 187.617 762.299C187.188 761.72 186.973 760.778 186.973 759.471C186.973 758.164 187.202 757.236 187.659 756.685C188.117 756.125 188.863 755.845 189.899 755.845ZM192.831 755.999H194.329L195.813 761.697H196.191L197.675 755.999H199.187L196.527 766.009H195.029L195.869 762.999H194.665L192.831 755.999Z" fill="white"/>
<path d="M117 764.539H199.439V764.959H117V764.539Z" fill="white"/>
<path d="M224.28 762.999L226.646 753.409H229.74L232.12 762.999H230.552L230.034 760.941H226.352L225.834 762.999H224.28ZM227.85 754.711L226.66 759.569H229.726L228.55 754.711H227.85ZM235.855 755.845C236.349 755.845 236.933 755.91 237.605 756.041L237.955 756.111L237.899 757.315C237.161 757.24 236.615 757.203 236.261 757.203C235.551 757.203 235.075 757.362 234.833 757.679C234.59 757.996 234.469 758.594 234.469 759.471C234.469 760.348 234.585 760.955 234.819 761.291C235.052 761.627 235.537 761.795 236.275 761.795L237.913 761.683L237.955 762.901C237.012 763.069 236.303 763.153 235.827 763.153C234.763 763.153 234.011 762.868 233.573 762.299C233.143 761.72 232.929 760.778 232.929 759.471C232.929 758.164 233.157 757.236 233.615 756.685C234.072 756.125 234.819 755.845 235.855 755.845ZM241.98 755.845C242.474 755.845 243.058 755.91 243.73 756.041L244.08 756.111L244.024 757.315C243.286 757.24 242.74 757.203 242.386 757.203C241.676 757.203 241.2 757.362 240.958 757.679C240.715 757.996 240.594 758.594 240.594 759.471C240.594 760.348 240.71 760.955 240.944 761.291C241.177 761.627 241.662 761.795 242.4 761.795L244.038 761.683L244.08 762.901C243.137 763.069 242.428 763.153 241.952 763.153C240.888 763.153 240.136 762.868 239.698 762.299C239.268 761.72 239.054 760.778 239.054 759.471C239.054 758.164 239.282 757.236 239.74 756.685C240.197 756.125 240.944 755.845 241.98 755.845ZM250.471 761.739L250.863 761.697L250.891 762.831C249.827 763.046 248.884 763.153 248.062 763.153C247.027 763.153 246.28 762.868 245.823 762.299C245.375 761.73 245.151 760.82 245.151 759.569C245.151 757.086 246.163 755.845 248.189 755.845C250.149 755.845 251.129 756.914 251.129 759.051L251.031 760.143H246.691C246.7 760.722 246.826 761.146 247.069 761.417C247.311 761.688 247.764 761.823 248.427 761.823C249.089 761.823 249.771 761.795 250.471 761.739ZM249.631 758.967C249.631 758.276 249.519 757.796 249.295 757.525C249.08 757.245 248.711 757.105 248.189 757.105C247.666 757.105 247.283 757.25 247.041 757.539C246.807 757.828 246.686 758.304 246.677 758.967H249.631ZM257.454 757.441C256.353 757.292 255.555 757.217 255.06 757.217C254.565 757.217 254.22 757.278 254.024 757.399C253.837 757.511 253.744 757.693 253.744 757.945C253.744 758.197 253.847 758.374 254.052 758.477C254.267 758.58 254.761 758.701 255.536 758.841C256.32 758.972 256.875 759.182 257.202 759.471C257.529 759.76 257.692 760.274 257.692 761.011C257.692 761.748 257.454 762.29 256.978 762.635C256.511 762.98 255.825 763.153 254.92 763.153C254.351 763.153 253.632 763.074 252.764 762.915L252.33 762.845L252.386 761.571C253.506 761.72 254.313 761.795 254.808 761.795C255.303 761.795 255.653 761.734 255.858 761.613C256.073 761.492 256.18 761.291 256.18 761.011C256.18 760.731 256.077 760.54 255.872 760.437C255.676 760.325 255.195 760.208 254.43 760.087C253.674 759.956 253.119 759.756 252.764 759.485C252.409 759.214 252.232 758.72 252.232 758.001C252.232 757.282 252.475 756.746 252.96 756.391C253.455 756.036 254.085 755.859 254.85 755.859C255.447 755.859 256.18 755.934 257.048 756.083L257.482 756.167L257.454 757.441ZM264.016 757.441C262.915 757.292 262.117 757.217 261.622 757.217C261.128 757.217 260.782 757.278 260.586 757.399C260.4 757.511 260.306 757.693 260.306 757.945C260.306 758.197 260.409 758.374 260.614 758.477C260.829 758.58 261.324 758.701 262.098 758.841C262.882 758.972 263.438 759.182 263.764 759.471C264.091 759.76 264.254 760.274 264.254 761.011C264.254 761.748 264.016 762.29 263.54 762.635C263.074 762.98 262.388 763.153 261.482 763.153C260.913 763.153 260.194 763.074 259.326 762.915L258.892 762.845L258.948 761.571C260.068 761.72 260.876 761.795 261.37 761.795C261.865 761.795 262.215 761.734 262.42 761.613C262.635 761.492 262.742 761.291 262.742 761.011C262.742 760.731 262.64 760.54 262.434 760.437C262.238 760.325 261.758 760.208 260.992 760.087C260.236 759.956 259.681 759.756 259.326 759.485C258.972 759.214 258.794 758.72 258.794 758.001C258.794 757.282 259.037 756.746 259.522 756.391C260.017 756.036 260.647 755.859 261.412 755.859C262.01 755.859 262.742 755.934 263.61 756.083L264.044 756.167L264.016 757.441ZM265.721 762.999V755.999H267.247V762.999H265.721ZM265.721 754.809V753.199H267.247V754.809H265.721ZM272.36 755.845C273.321 755.845 274.012 756.116 274.432 756.657C274.861 757.189 275.076 758.136 275.076 759.499C275.076 760.862 274.824 761.814 274.32 762.355C273.816 762.887 272.929 763.153 271.66 763.153C271.221 763.153 270.526 763.111 269.574 763.027L269.098 762.985V753.087H270.61V756.265C271.254 755.985 271.837 755.845 272.36 755.845ZM271.66 761.795C272.406 761.795 272.901 761.622 273.144 761.277C273.396 760.922 273.522 760.325 273.522 759.485C273.522 758.645 273.414 758.057 273.2 757.721C272.994 757.376 272.654 757.203 272.178 757.203C271.73 757.203 271.282 757.273 270.834 757.413L270.61 757.483V761.739C271.123 761.776 271.473 761.795 271.66 761.795ZM276.604 762.999V755.999H278.13V762.999H276.604ZM276.604 754.809V753.199H278.13V754.809H276.604ZM280.065 762.999V753.087H281.591V762.999H280.065ZM283.522 762.999V755.999H285.048V762.999H283.522ZM283.522 754.809V753.199H285.048V754.809H283.522ZM290.665 757.301H288.733V760.381C288.733 760.95 288.775 761.328 288.859 761.515C288.943 761.702 289.157 761.795 289.503 761.795L290.651 761.753L290.721 762.971C290.095 763.092 289.619 763.153 289.293 763.153C288.499 763.153 287.953 762.971 287.655 762.607C287.365 762.243 287.221 761.557 287.221 760.549V757.301H286.325V755.999H287.221V753.969H288.733V755.999H290.665V757.301ZM291.272 755.999H292.77L294.254 761.697H294.632L296.116 755.999H297.628L294.968 766.009H293.47L294.31 762.999H293.106L291.272 755.999ZM306.741 757.441C305.64 757.292 304.842 757.217 304.347 757.217C303.852 757.217 303.507 757.278 303.311 757.399C303.124 757.511 303.031 757.693 303.031 757.945C303.031 758.197 303.134 758.374 303.339 758.477C303.554 758.58 304.048 758.701 304.823 758.841C305.607 758.972 306.162 759.182 306.489 759.471C306.816 759.76 306.979 760.274 306.979 761.011C306.979 761.748 306.741 762.29 306.265 762.635C305.798 762.98 305.112 763.153 304.207 763.153C303.638 763.153 302.919 763.074 302.051 762.915L301.617 762.845L301.673 761.571C302.793 761.72 303.6 761.795 304.095 761.795C304.59 761.795 304.94 761.734 305.145 761.613C305.36 761.492 305.467 761.291 305.467 761.011C305.467 760.731 305.364 760.54 305.159 760.437C304.963 760.325 304.482 760.208 303.717 760.087C302.961 759.956 302.406 759.756 302.051 759.485C301.696 759.214 301.519 758.72 301.519 758.001C301.519 757.282 301.762 756.746 302.247 756.391C302.742 756.036 303.372 755.859 304.137 755.859C304.734 755.859 305.467 755.934 306.335 756.083L306.769 756.167L306.741 757.441ZM312.211 757.301H310.279V760.381C310.279 760.95 310.321 761.328 310.405 761.515C310.489 761.702 310.704 761.795 311.049 761.795L312.197 761.753L312.267 762.971C311.642 763.092 311.166 763.153 310.839 763.153C310.046 763.153 309.5 762.971 309.201 762.607C308.912 762.243 308.767 761.557 308.767 760.549V757.301H307.871V755.999H308.767V753.969H310.279V755.999H312.211V757.301ZM318.643 758.155V761.347C318.652 761.552 318.704 761.706 318.797 761.809C318.9 761.902 319.054 761.963 319.259 761.991L319.217 763.153C318.414 763.153 317.794 762.98 317.355 762.635C316.608 762.98 315.857 763.153 315.101 763.153C313.71 763.153 313.015 762.411 313.015 760.927C313.015 760.218 313.202 759.704 313.575 759.387C313.958 759.07 314.541 758.878 315.325 758.813L317.131 758.659V758.155C317.131 757.782 317.047 757.52 316.879 757.371C316.72 757.222 316.482 757.147 316.165 757.147C315.568 757.147 314.821 757.184 313.925 757.259L313.477 757.287L313.421 756.209C314.438 755.966 315.372 755.845 316.221 755.845C317.08 755.845 317.696 756.032 318.069 756.405C318.452 756.769 318.643 757.352 318.643 758.155ZM315.507 759.891C314.863 759.947 314.541 760.297 314.541 760.941C314.541 761.585 314.826 761.907 315.395 761.907C315.862 761.907 316.356 761.832 316.879 761.683L317.131 761.599V759.737L315.507 759.891ZM324.325 757.301H322.393V760.381C322.393 760.95 322.435 761.328 322.519 761.515C322.603 761.702 322.817 761.795 323.163 761.795L324.311 761.753L324.381 762.971C323.755 763.092 323.279 763.153 322.953 763.153C322.159 763.153 321.613 762.971 321.315 762.607C321.025 762.243 320.881 761.557 320.881 760.549V757.301H319.985V755.999H320.881V753.969H322.393V755.999H324.325V757.301ZM330.56 761.739L330.952 761.697L330.98 762.831C329.916 763.046 328.974 763.153 328.152 763.153C327.116 763.153 326.37 762.868 325.912 762.299C325.464 761.73 325.24 760.82 325.24 759.569C325.24 757.086 326.253 755.845 328.278 755.845C330.238 755.845 331.218 756.914 331.218 759.051L331.12 760.143H326.78C326.79 760.722 326.916 761.146 327.158 761.417C327.401 761.688 327.854 761.823 328.516 761.823C329.179 761.823 329.86 761.795 330.56 761.739ZM329.72 758.967C329.72 758.276 329.608 757.796 329.384 757.525C329.17 757.245 328.801 757.105 328.278 757.105C327.756 757.105 327.373 757.25 327.13 757.539C326.897 757.828 326.776 758.304 326.766 758.967H329.72ZM334.212 762.999H332.686V755.999H334.198V756.433C334.86 756.041 335.467 755.845 336.018 755.845C336.83 755.845 337.422 756.074 337.796 756.531C338.645 756.074 339.49 755.845 340.33 755.845C341.17 755.845 341.762 756.106 342.108 756.629C342.453 757.142 342.626 758.015 342.626 759.247V762.999H341.114V759.289C341.114 758.533 341.034 757.996 340.876 757.679C340.726 757.362 340.409 757.203 339.924 757.203C339.504 757.203 339.051 757.296 338.566 757.483L338.328 757.581C338.402 757.768 338.44 758.365 338.44 759.373V762.999H336.928V759.401C336.928 758.57 336.853 757.996 336.704 757.679C336.554 757.362 336.228 757.203 335.724 757.203C335.257 757.203 334.823 757.296 334.422 757.483L334.212 757.567V762.999ZM349.4 761.739L349.792 761.697L349.82 762.831C348.756 763.046 347.814 763.153 346.992 763.153C345.956 763.153 345.21 762.868 344.752 762.299C344.304 761.73 344.08 760.82 344.08 759.569C344.08 757.086 345.093 755.845 347.118 755.845C349.078 755.845 350.058 756.914 350.058 759.051L349.96 760.143H345.62C345.63 760.722 345.756 761.146 345.998 761.417C346.241 761.688 346.694 761.823 347.356 761.823C348.019 761.823 348.7 761.795 349.4 761.739ZM348.56 758.967C348.56 758.276 348.448 757.796 348.224 757.525C348.01 757.245 347.641 757.105 347.118 757.105C346.596 757.105 346.213 757.25 345.97 757.539C345.737 757.828 345.616 758.304 345.606 758.967H348.56ZM353.052 762.999H351.526V755.999H353.038V756.433C353.719 756.041 354.363 755.845 354.97 755.845C355.903 755.845 356.538 756.111 356.874 756.643C357.219 757.166 357.392 758.034 357.392 759.247V762.999H355.88V759.289C355.88 758.533 355.796 757.996 355.628 757.679C355.469 757.362 355.138 757.203 354.634 757.203C354.158 757.203 353.7 757.296 353.262 757.483L353.052 757.567V762.999ZM362.934 757.301H361.002V760.381C361.002 760.95 361.044 761.328 361.128 761.515C361.212 761.702 361.427 761.795 361.772 761.795L362.92 761.753L362.99 762.971C362.365 763.092 361.889 763.153 361.562 763.153C360.769 763.153 360.223 762.971 359.924 762.607C359.635 762.243 359.49 761.557 359.49 760.549V757.301H358.594V755.999H359.49V753.969H361.002V755.999H362.934V757.301Z" fill="white"/>
<path d="M224 764.539H293.346V764.959H224V764.539ZM295.779 764.539H363.256V764.959H295.779V764.539Z" fill="white"/>
</g>
<defs>
<clipPath id="clip0_4177_47337">
<rect width="1440" height="790" fill="white"/>
</clipPath>
<clipPath id="clip1_4177_47337">
<rect width="47" height="24" fill="white" transform="translate(1321 12)"/>
</clipPath>
</defs>
</svg>
