<svg width="412" height="108" viewBox="0 0 412 108" fill="none" xmlns="http://www.w3.org/2000/svg">
<rect width="411.727" height="108" fill="white"/>
<path d="M350.202 74.002H342.426V33.9979H350.202V74.002Z" fill="#0066CC"/>
<path d="M371.219 40.7593H366.092V67.2406H371.219C377.641 67.2406 379.725 63.7473 379.725 53.6606C379.725 42.9006 377.641 40.7593 371.219 40.7593ZM358.316 33.998H370.937C384.065 33.998 387.727 39.182 387.727 53.6606C387.727 66.6766 384.796 74.002 371.275 74.002H358.316V33.998Z" fill="#0066CC"/>
<path d="M268.2 66.5364L266.391 66.5377C265.201 66.5391 264.541 65.8111 264.541 64.6204V34.7471C264.541 34.3204 264.199 34.0004 263.772 34.0004H255.611C255.184 34.0004 254.865 34.3204 254.865 34.7471V65.5764C254.865 71.2457 257.864 74.0044 264.101 74.0044H268.237C268.664 74.0044 269.023 73.6884 269.023 73.2617L269.021 67.2977C269.021 66.8711 268.627 66.5364 268.2 66.5364Z" fill="#0066CC"/>
<path d="M278.758 55.5126C278.78 52.2152 280.957 50.1952 284.25 50.1952C287.597 50.1952 289.581 52.1899 289.533 55.5126H278.758ZM284.253 44.0859C275.117 44.0859 269.629 49.7992 269.629 59.4232C269.629 69.1459 275.229 74.8032 284.74 74.8032C291.438 74.8032 295.938 71.9939 297.768 67.2312C297.922 66.8246 297.992 66.5806 297.99 66.3486C297.986 65.9432 297.784 65.5766 297.178 65.5766H289.554C289.294 65.5766 289.025 65.7112 288.73 66.1726C287.956 67.3792 286.448 68.0139 284.554 68.0139C280.53 68.0139 278.97 65.1499 278.725 61.6299H297.768C298.194 61.6299 298.513 61.3046 298.513 60.8779V58.0579C298.513 49.5152 293.162 44.0859 284.253 44.0859Z" fill="#0066CC"/>
<path d="M317.674 52.3461C318.101 52.3461 318.425 52.0274 318.425 51.6008V45.6274C318.425 45.2008 318.05 44.8808 317.624 44.8808H312.717V37.6794C312.717 37.2528 312.396 36.9341 311.969 36.9341L303.906 36.9327C303.48 36.9314 303.114 37.2674 303.114 37.6941L303.117 44.8808H299.756C299.329 44.8808 298.956 45.2034 298.956 45.6301V51.6008C298.956 52.0274 299.274 52.3488 299.701 52.3488H303.117V63.8728C303.117 70.6048 306.566 74.0034 313.468 74.0034H317.676C318.102 74.0034 318.425 73.6834 318.425 73.2568V67.3368C318.425 66.9114 318.104 66.5368 317.677 66.5368H314.581C313.39 66.5368 312.716 65.8114 312.716 64.6208L312.717 52.3488L317.674 52.3461Z" fill="#0066CC"/>
<path d="M224.118 66.4307C222.367 67.5654 220.662 68.0147 219.092 68.0147C216.546 68.0147 215.302 66.8267 215.302 64.8827C215.302 63.1494 216.292 62.1667 219.035 61.9614L224.118 61.5801V66.4307ZM236.015 66.5361H234.896C234.026 66.5361 233.506 65.9587 233.506 64.7707V55.4934C233.506 48.3094 228.652 44.0854 220.258 44.0854C213.339 44.0854 208.395 47.0081 206.496 51.4947C206.298 51.9654 206.186 52.3254 206.19 52.5627C206.196 52.9414 206.492 53.2014 206.94 53.2014H214.89C215.336 53.2014 215.588 53.0307 215.848 52.5414C216.444 51.4187 217.708 50.7601 219.646 50.7601C222.43 50.7601 224.114 52.1081 224.116 54.5401L224.118 55.7121L216.999 56.1907C209.527 56.6947 206.138 59.5854 206.138 65.2774C206.138 71.2961 209.927 74.8027 216.328 74.8027C219.727 74.8027 222.914 73.8147 225.419 71.8587C226.527 73.1694 228.423 74.0041 230.732 74.0041H236.031C236.458 74.0041 236.759 73.6841 236.759 73.2574L236.76 67.2881C236.76 66.8614 236.442 66.5361 236.015 66.5361Z" fill="#0066CC"/>
<path d="M139.338 41.4146V34.8026C139.338 34.3759 139.017 33.9999 138.59 33.9999H107.497C107.07 33.9999 106.747 34.3719 106.749 34.7986V41.4146C106.749 41.8412 107.066 42.2146 107.493 42.2146H118.055V73.2519C118.055 73.6786 118.429 74.0039 118.855 74.0039H127.229C127.655 74.0039 128.03 73.6839 128.03 73.2572V42.2146H138.591C139.018 42.2146 139.338 41.8412 139.338 41.4146Z" fill="#0066CC"/>
<path d="M252.197 66.5364L250.388 66.5377C249.198 66.5391 248.517 65.8111 248.517 64.6204V34.7471C248.517 34.3204 248.196 34.0004 247.769 34.0004H239.608C239.181 34.0004 238.862 34.3204 238.862 34.7471V65.5764C238.862 71.2457 241.861 74.0044 248.098 74.0044H252.234C252.661 74.0044 252.996 73.6884 252.996 73.2617L252.998 67.2777C252.998 66.8511 252.624 66.5364 252.197 66.5364Z" fill="#0066CC"/>
<path d="M151.922 53.9487L136.559 53.9447C136.132 53.9447 135.815 54.2634 135.815 54.69L135.818 60.9927C135.818 61.4194 136.151 61.7354 136.578 61.7354H151.918C152.344 61.7354 152.67 61.4167 152.67 60.99L152.671 54.6954C152.671 54.2687 152.348 53.9487 151.922 53.9487Z" fill="#0066CC"/>
<path d="M103.426 33.9999H94.946C94.5193 33.9999 94.1807 34.3132 94.1807 34.7399L94.198 73.2572C94.198 73.6839 94.5193 74.0039 94.946 74.0039H103.425C103.851 74.0039 104.173 73.6839 104.173 73.2572V34.7386C104.173 34.3119 103.853 33.9999 103.426 33.9999Z" fill="#0066CC"/>
<path d="M205.914 33.9999H198.61C198.234 33.9999 197.931 34.2906 197.869 34.6626L193.261 61.9012H192.769L187.074 34.6279C186.999 34.2706 186.701 33.9999 186.337 33.9999H175.195C174.833 33.9999 174.502 34.2706 174.426 34.6252L168.617 61.8479H168.121L163.577 34.6599C163.515 34.2879 163.193 33.9999 162.815 33.9999H155.242C154.763 33.9999 154.379 34.4479 154.462 34.9199L161.207 73.3719C161.271 73.7399 161.586 74.0039 161.961 74.0039H173.431C173.794 74.0039 174.102 73.7559 174.179 73.4012L180.305 45.2946H180.858L186.983 73.4026C187.061 73.7572 187.365 74.0039 187.727 74.0039H199.195C199.57 74.0039 199.89 73.7412 199.955 73.3732L206.699 34.9199C206.782 34.4479 206.393 33.9999 205.914 33.9999Z" fill="#0066CC"/>
<path d="M47.676 24.2946C47.3107 24.0893 46.924 23.9973 46.548 23.9999C45.364 24.0093 44.276 24.9599 44.2827 26.2813L44.3493 38.3919L27.4293 28.9039C27.064 28.6986 26.6773 28.6066 26.3013 28.6093C25.1173 28.6173 24.0373 29.5693 24.036 30.8906L24 70.8093C24 72.6106 24.8107 74.1799 26.544 75.1519L41.7547 83.7053C42.12 83.9106 42.5067 84.0026 42.8827 83.9999C44.068 83.9919 45.148 83.0413 45.148 81.7186V40.7853L53.1907 45.2626C54.9267 46.2293 55.7347 47.8039 55.7347 49.6053V73.5879L70.7787 82.0266C71.144 82.2319 71.5293 82.3239 71.9053 82.3213C73.0907 82.3133 74.1707 81.3626 74.1707 80.0399L74.188 42.0826C74.188 40.2813 73.3773 38.7119 71.644 37.7399L47.676 24.2946Z" fill="#0066CC"/>
</svg>
