<svg width="1440" height="840" viewBox="0 0 1440 840" fill="none" xmlns="http://www.w3.org/2000/svg">
<g clip-path="url(#clip0_2087_7484)">
<rect width="1440" height="840" fill="white"/>
<rect width="1440" height="52" fill="#004D99"/>
<path d="M76.104 22.65L76.23 24.9C76.23 25.656 76.104 26.202 75.852 26.538C75.6 26.874 75.072 27.15 74.268 27.366C75.06 27.57 75.582 27.858 75.834 28.23C76.098 28.59 76.23 29.154 76.23 29.922L76.104 32.028C76.104 32.544 76.218 32.94 76.446 33.216C76.674 33.504 77.1 33.666 77.724 33.702V35.358C76.44 35.31 75.528 35.046 74.988 34.566C74.46 34.098 74.196 33.324 74.196 32.244L74.322 30.066C74.322 29.142 73.662 28.5 72.342 28.14V26.61C73.026 26.454 73.524 26.232 73.836 25.944C74.16 25.644 74.322 25.26 74.322 24.792L74.196 22.506C74.196 21.378 74.46 20.586 74.988 20.13C75.528 19.662 76.446 19.404 77.742 19.356L77.76 21.012C77.124 21.06 76.686 21.216 76.446 21.48C76.218 21.744 76.104 22.134 76.104 22.65ZM79.8556 33V20.67H87.6316V22.416H81.8536V25.908H86.5516V27.636H81.8536V31.236H87.6316V33H79.8556ZM91.5328 33H89.5708V24H91.5148V24.558C92.3908 24.054 93.2188 23.802 93.9988 23.802C95.1988 23.802 96.0148 24.144 96.4468 24.828C96.8908 25.5 97.1128 26.616 97.1128 28.176V33H95.1688V28.23C95.1688 27.258 95.0608 26.568 94.8448 26.16C94.6408 25.752 94.2148 25.548 93.5668 25.548C92.9548 25.548 92.3668 25.668 91.8028 25.908L91.5328 26.016V33ZM104.239 25.674H101.755V29.634C101.755 30.366 101.809 30.852 101.917 31.092C102.025 31.332 102.301 31.452 102.745 31.452L104.221 31.398L104.311 32.964C103.507 33.12 102.895 33.198 102.475 33.198C101.455 33.198 100.753 32.964 100.369 32.496C99.997 32.028 99.811 31.146 99.811 29.85V25.674H98.659V24H99.811V21.39H101.755V24H104.239V25.674ZM105.848 33V24H107.81V33H105.848ZM105.848 22.47V20.4H107.81V22.47H105.848ZM115.032 25.674H112.548V29.634C112.548 30.366 112.602 30.852 112.71 31.092C112.818 31.332 113.094 31.452 113.538 31.452L115.014 31.398L115.104 32.964C114.3 33.12 113.688 33.198 113.268 33.198C112.248 33.198 111.546 32.964 111.162 32.496C110.79 32.028 110.604 31.146 110.604 29.85V25.674H109.452V24H110.604V21.39H112.548V24H115.032V25.674ZM115.813 24H117.739L119.647 31.326H120.133L122.041 24H123.985L120.565 36.87H118.639L119.719 33H118.171L115.813 24ZM131.418 33H129.456V24H131.4V24.558C132.276 24.054 133.104 23.802 133.884 23.802C135.084 23.802 135.9 24.144 136.332 24.828C136.776 25.5 136.998 26.616 136.998 28.176V33H135.054V28.23C135.054 27.258 134.946 26.568 134.73 26.16C134.526 25.752 134.1 25.548 133.452 25.548C132.84 25.548 132.252 25.668 131.688 25.908L131.418 26.016V33ZM145.942 26.772V30.876C145.954 31.14 146.02 31.338 146.14 31.47C146.272 31.59 146.47 31.668 146.734 31.704L146.68 33.198C145.648 33.198 144.85 32.976 144.286 32.532C143.326 32.976 142.36 33.198 141.388 33.198C139.6 33.198 138.706 32.244 138.706 30.336C138.706 29.424 138.946 28.764 139.426 28.356C139.918 27.948 140.668 27.702 141.676 27.618L143.998 27.42V26.772C143.998 26.292 143.89 25.956 143.674 25.764C143.47 25.572 143.164 25.476 142.756 25.476C141.988 25.476 141.028 25.524 139.876 25.62L139.3 25.656L139.228 24.27C140.536 23.958 141.736 23.802 142.828 23.802C143.932 23.802 144.724 24.042 145.204 24.522C145.696 24.99 145.942 25.74 145.942 26.772ZM141.91 29.004C141.082 29.076 140.668 29.526 140.668 30.354C140.668 31.182 141.034 31.596 141.766 31.596C142.366 31.596 143.002 31.5 143.674 31.308L143.998 31.2V28.806L141.91 29.004ZM150.367 33H148.405V24H150.349V24.558C151.201 24.054 151.981 23.802 152.689 23.802C153.733 23.802 154.495 24.096 154.975 24.684C156.067 24.096 157.153 23.802 158.233 23.802C159.313 23.802 160.075 24.138 160.519 24.81C160.963 25.47 161.185 26.592 161.185 28.176V33H159.241V28.23C159.241 27.258 159.139 26.568 158.935 26.16C158.743 25.752 158.335 25.548 157.711 25.548C157.171 25.548 156.589 25.668 155.965 25.908L155.659 26.034C155.755 26.274 155.803 27.042 155.803 28.338V33H153.859V28.374C153.859 27.306 153.763 26.568 153.571 26.16C153.379 25.752 152.959 25.548 152.311 25.548C151.711 25.548 151.153 25.668 150.637 25.908L150.367 26.016V33ZM169.895 31.38L170.399 31.326L170.435 32.784C169.067 33.06 167.855 33.198 166.799 33.198C165.467 33.198 164.507 32.832 163.919 32.1C163.343 31.368 163.055 30.198 163.055 28.59C163.055 25.398 164.357 23.802 166.961 23.802C169.481 23.802 170.741 25.176 170.741 27.924L170.615 29.328H165.035C165.047 30.072 165.209 30.618 165.521 30.966C165.833 31.314 166.415 31.488 167.267 31.488C168.119 31.488 168.995 31.452 169.895 31.38ZM168.815 27.816C168.815 26.928 168.671 26.31 168.383 25.962C168.107 25.602 167.633 25.422 166.961 25.422C166.289 25.422 165.797 25.608 165.485 25.98C165.185 26.352 165.029 26.964 165.017 27.816H168.815ZM173.445 32.028L173.319 29.922C173.319 29.154 173.445 28.59 173.697 28.23C173.961 27.858 174.489 27.57 175.281 27.366C174.477 27.15 173.949 26.874 173.697 26.538C173.445 26.202 173.319 25.656 173.319 24.9L173.445 22.65C173.445 22.134 173.325 21.744 173.085 21.48C172.857 21.216 172.425 21.06 171.789 21.012L171.807 19.356C173.103 19.404 174.015 19.662 174.543 20.13C175.083 20.586 175.353 21.378 175.353 22.506L175.227 24.792C175.227 25.26 175.383 25.644 175.695 25.944C176.019 26.232 176.523 26.454 177.207 26.61V28.14C175.887 28.5 175.227 29.142 175.227 30.066L175.353 32.244C175.353 33.324 175.083 34.098 174.543 34.566C174.015 35.046 173.109 35.31 171.825 35.358V33.702C172.449 33.666 172.875 33.504 173.103 33.216C173.331 32.94 173.445 32.544 173.445 32.028Z" fill="white"/>
<path d="M72 34.98H75.1163V35.52H72V34.98ZM78.2666 34.98H118.476V35.52H78.2666V34.98ZM121.603 34.98H171.288V35.52H121.603V34.98ZM174.423 34.98H177.549V35.52H174.423V34.98Z" fill="white"/>
<g clip-path="url(#clip1_2087_7484)">
<path d="M1322.11 31V21.41H1328.15V22.768H1323.66V25.484H1327.31V26.828H1323.66V29.628H1328.15V31H1322.11ZM1329.84 31V21.41H1332.56L1335.47 29.628H1335.68V21.41H1337.24V31H1334.58L1331.59 22.768H1331.4V31H1329.84ZM1343.35 27.332V25.96H1346.08V30.832C1345.83 30.8973 1345.31 30.9673 1344.54 31.042C1343.77 31.1167 1343.22 31.154 1342.87 31.154C1341.42 31.154 1340.41 30.7527 1339.86 29.95C1339.31 29.1473 1339.04 27.892 1339.04 26.184C1339.04 24.4667 1339.32 23.216 1339.88 22.432C1340.45 21.648 1341.43 21.256 1342.82 21.256C1343.64 21.256 1344.56 21.3493 1345.59 21.536L1346.08 21.634L1346.02 22.866C1344.89 22.7167 1343.88 22.642 1342.98 22.642C1342.09 22.642 1341.47 22.894 1341.14 23.398C1340.81 23.902 1340.65 24.8353 1340.65 26.198C1340.65 27.5607 1340.8 28.5033 1341.11 29.026C1341.43 29.5393 1342.06 29.796 1343.01 29.796C1343.69 29.796 1344.2 29.754 1344.54 29.67V27.332H1343.35Z" fill="white"/>
<path d="M1363 29.2008L1357.4 23.6008L1358.1 22.8008L1363 27.7008L1367.9 22.8008L1368.6 23.6008L1363 29.2008Z" fill="white"/>
</g>
<rect width="1440" height="93" transform="translate(0 52)" fill="#F2F7FC"/>
<rect x="72.5" y="69" width="208.024" height="59" fill="#F2F7FC"/>
<rect x="72.5" y="69" width="208.024" height="59" stroke="#C5C7C9"/>
<line x1="73.1957" y1="69.3953" x2="280.121" y2="127.049" stroke="#C5C7C9"/>
<path d="M115.463 108.5H111.599V100.8L105.719 89.46H110.003L113.503 97.048L117.003 89.46H121.287L115.463 100.8V108.5ZM126.532 104.02C127.092 104.991 128.128 105.476 129.64 105.476C131.152 105.476 132.179 104.991 132.72 104.02C133.28 103.031 133.56 101.388 133.56 99.092C133.56 96.7773 133.28 95.0973 132.72 94.052C132.16 93.0067 131.134 92.484 129.64 92.484C128.147 92.484 127.12 93.0067 126.56 94.052C126 95.0973 125.72 96.7773 125.72 99.092C125.72 101.388 125.991 103.031 126.532 104.02ZM135.744 106.484C134.568 108.052 132.534 108.836 129.64 108.836C126.747 108.836 124.703 108.052 123.508 106.484C122.332 104.897 121.744 102.424 121.744 99.064C121.744 95.704 122.332 93.212 123.508 91.588C124.703 89.9453 126.747 89.124 129.64 89.124C132.534 89.124 134.568 89.9453 135.744 91.588C136.939 93.212 137.536 95.704 137.536 99.064C137.536 102.424 136.939 104.897 135.744 106.484ZM144.546 102.144C144.546 104.365 145.675 105.476 147.934 105.476C150.192 105.476 151.322 104.365 151.322 102.144V89.46H155.186V102.06C155.186 104.393 154.579 106.111 153.366 107.212C152.171 108.295 150.36 108.836 147.934 108.836C145.507 108.836 143.687 108.295 142.474 107.212C141.279 106.111 140.682 104.393 140.682 102.06V89.46H144.546V102.144ZM163.034 102.116V108.5H159.17V89.46H166.562C171.042 89.46 173.282 91.5507 173.282 95.732C173.282 98.2147 172.349 100.044 170.482 101.22L173.198 108.5H168.97L166.758 102.116H163.034ZM166.618 98.812C167.533 98.812 168.214 98.532 168.662 97.972C169.11 97.412 169.334 96.6747 169.334 95.76C169.334 94.8453 169.091 94.1173 168.606 93.576C168.139 93.0347 167.458 92.764 166.562 92.764H163.034V98.812H166.618ZM193.522 108.5H182.686V89.46H186.55V105.084H193.522V108.5ZM199.677 104.02C200.237 104.991 201.273 105.476 202.785 105.476C204.297 105.476 205.323 104.991 205.865 104.02C206.425 103.031 206.705 101.388 206.705 99.092C206.705 96.7773 206.425 95.0973 205.865 94.052C205.305 93.0067 204.278 92.484 202.785 92.484C201.291 92.484 200.265 93.0067 199.705 94.052C199.145 95.0973 198.865 96.7773 198.865 99.092C198.865 101.388 199.135 103.031 199.677 104.02ZM208.889 106.484C207.713 108.052 205.678 108.836 202.785 108.836C199.891 108.836 197.847 108.052 196.653 106.484C195.477 104.897 194.889 102.424 194.889 99.064C194.889 95.704 195.477 93.212 196.653 91.588C197.847 89.9453 199.891 89.124 202.785 89.124C205.678 89.124 207.713 89.9453 208.889 91.588C210.083 93.212 210.681 95.704 210.681 99.064C210.681 102.424 210.083 104.897 208.889 106.484ZM221.918 101.668V98.308H227.462V108.192C224.793 108.621 222.628 108.836 220.966 108.836C217.998 108.836 215.954 108.043 214.834 106.456C213.733 104.869 213.182 102.349 213.182 98.896C213.182 95.4427 213.761 92.9507 214.918 91.42C216.076 89.8893 218.045 89.124 220.826 89.124C222.562 89.124 224.438 89.32 226.454 89.712L227.462 89.908L227.35 92.904C225.11 92.6613 223.272 92.54 221.834 92.54C220.416 92.54 219.417 92.708 218.838 93.044C218.26 93.38 217.83 94.0053 217.55 94.92C217.289 95.816 217.158 97.3653 217.158 99.568C217.158 101.752 217.429 103.283 217.97 104.16C218.512 105.037 219.632 105.476 221.33 105.476L223.654 105.364V101.668H221.918ZM235.06 104.02C235.62 104.991 236.656 105.476 238.168 105.476C239.68 105.476 240.706 104.991 241.248 104.02C241.808 103.031 242.088 101.388 242.088 99.092C242.088 96.7773 241.808 95.0973 241.248 94.052C240.688 93.0067 239.661 92.484 238.168 92.484C236.674 92.484 235.648 93.0067 235.088 94.052C234.528 95.0973 234.248 96.7773 234.248 99.092C234.248 101.388 234.518 103.031 235.06 104.02ZM244.272 106.484C243.096 108.052 241.061 108.836 238.168 108.836C235.274 108.836 233.23 108.052 232.036 106.484C230.86 104.897 230.272 102.424 230.272 99.064C230.272 95.704 230.86 93.212 232.036 91.588C233.23 89.9453 235.274 89.124 238.168 89.124C241.061 89.124 243.096 89.9453 244.272 91.588C245.466 93.212 246.064 95.704 246.064 99.064C246.064 102.424 245.466 104.897 244.272 106.484Z" fill="black"/>
<path d="M305.024 68.5V128.5" stroke="#C5C7C9" stroke-linejoin="round"/>
<path d="M341.052 82.5C341.252 82.4988 341.458 82.5474 341.652 82.6572L354.436 89.8281C355.361 90.3468 355.793 91.184 355.793 92.1445L355.784 112.388C355.784 113.093 355.208 113.601 354.576 113.605C354.376 113.607 354.17 113.557 353.975 113.447L345.951 108.947V96.1553C345.951 95.1948 345.52 94.3539 344.594 93.8389L340.305 91.4512V113.283C340.304 113.988 339.729 114.495 339.097 114.5C338.897 114.501 338.69 114.452 338.495 114.342L330.382 109.779C329.457 109.261 329.024 108.423 329.024 107.463L329.044 86.1738C329.045 85.4685 329.62 84.9621 330.252 84.957C330.452 84.9558 330.659 85.0044 330.854 85.1143L339.879 90.1758L339.844 83.7168C339.84 83.0114 340.42 82.505 341.052 82.5ZM433.652 92.998C438.129 92.998 440.719 95.2516 440.719 99.083V104.031C440.719 104.664 440.996 104.971 441.459 104.972H442.057L442.055 104.975C442.282 104.975 442.452 105.148 442.452 105.375V108.558C442.452 108.785 442.291 108.956 442.063 108.956H439.238C438.007 108.956 436.994 108.51 436.403 107.811C435.067 108.853 433.368 109.381 431.556 109.381C428.142 109.381 426.12 107.511 426.12 104.301C426.12 101.265 427.928 99.7236 431.913 99.4551L435.709 99.1982V98.5732C435.708 97.2772 434.809 96.5586 433.325 96.5586C432.293 96.5587 431.618 96.9087 431.301 97.5078C431.162 97.769 431.027 97.8594 430.789 97.8594H426.55C426.311 97.8593 426.153 97.7211 426.149 97.5186C426.147 97.3916 426.207 97.2003 426.313 96.9492C427.327 94.5569 429.963 92.9981 433.652 92.998ZM467.782 92.998C472.534 92.998 475.388 95.893 475.388 100.449V101.954C475.388 102.181 475.217 102.354 474.99 102.354H464.834C464.966 104.232 465.797 105.761 467.943 105.761C468.952 105.761 469.757 105.422 470.17 104.777C470.327 104.532 470.472 104.46 470.609 104.46H474.677C475 104.46 475.108 104.656 475.109 104.872C475.111 104.995 475.074 105.126 474.991 105.342C474.016 107.882 471.616 109.381 468.044 109.381C462.971 109.381 459.985 106.312 459.984 101.179C459.984 96.0455 462.911 92.9987 467.782 92.998ZM426.003 87.6201V87.6211C426.258 87.6211 426.466 87.8609 426.422 88.1123L422.825 108.62C422.791 108.818 422.62 108.957 422.42 108.957H416.304C416.11 108.957 415.948 108.825 415.906 108.636L412.639 93.6445H412.344L409.076 108.636C409.035 108.825 408.87 108.957 408.677 108.957H402.56C402.361 108.957 402.192 108.817 402.158 108.62L398.561 88.1123C398.517 87.8609 398.722 87.6211 398.978 87.6211H403.016C403.217 87.6211 403.39 87.775 403.423 87.9727L405.847 102.474H406.111L409.209 87.9561C409.25 87.7658 409.426 87.6213 409.62 87.6211H415.562C415.758 87.6211 415.917 87.7657 415.957 87.9561L418.993 102.501H419.256L421.713 87.9736C421.746 87.7749 421.907 87.6201 422.108 87.6201H426.003ZM371.342 87.6191C371.569 87.6191 371.74 87.7859 371.74 88.0127V108.558C371.74 108.785 371.568 108.956 371.341 108.956H366.819C366.592 108.956 366.421 108.785 366.421 108.558L366.412 88.0146C366.412 87.7877 366.592 87.6203 366.819 87.6201H371.342V87.6191ZM390.097 87.6191C390.325 87.6194 390.495 87.8202 390.495 88.0469V91.5732H390.494C390.494 91.8013 390.323 92.0007 390.097 92.001H384.465V108.557C384.465 108.784 384.264 108.955 384.037 108.955H379.571C379.344 108.955 379.146 108.78 379.146 108.553V91.999H373.511C373.284 91.9989 373.114 91.7992 373.114 91.5723V88.0449C373.114 87.8179 373.287 87.6191 373.514 87.6191H390.097ZM448.324 87.6201C448.552 87.6202 448.722 87.7908 448.723 88.0176V103.95C448.723 104.585 449.087 104.972 449.722 104.972H450.686C450.913 104.972 451.111 105.14 451.111 105.367V108.56C451.111 108.786 450.932 108.955 450.705 108.955H448.5C445.174 108.956 443.573 107.483 443.573 104.46V88.0176C443.573 87.7907 443.745 87.6201 443.972 87.6201H448.324ZM456.86 87.6201C457.087 87.6201 457.27 87.7907 457.271 88.0176V103.95C457.271 104.585 457.622 104.972 458.257 104.972H459.223C459.45 104.972 459.661 105.151 459.661 105.378V108.56C459.661 108.786 459.469 108.955 459.242 108.955H457.036C453.71 108.956 452.11 107.483 452.11 104.46V88.0176C452.111 87.7909 452.281 87.6203 452.508 87.6201H456.86ZM482.566 89.1836C482.793 89.1837 482.965 89.3544 482.965 89.5811V93.4229H485.582C485.81 93.4229 486.01 93.5934 486.01 93.8203V97.0059C486.01 97.234 485.836 97.4041 485.609 97.4043H482.965V103.949C482.965 104.584 483.325 104.971 483.96 104.971H485.611C485.838 104.971 486.01 105.171 486.01 105.397V108.556C486.01 108.783 485.837 108.953 485.61 108.953H483.365C479.684 108.953 477.845 107.141 477.845 103.55V97.4043H476.023C475.795 97.4041 475.626 97.2318 475.626 97.0049V93.8203C475.626 93.5935 475.825 93.422 476.052 93.4219H477.844V89.5889C477.844 89.362 478.039 89.1838 478.266 89.1836H482.566ZM433.002 102.532C431.539 102.642 431.01 103.167 431.01 104.091C431.01 105.127 431.674 105.761 433.031 105.761C433.869 105.761 434.778 105.521 435.712 104.916H435.713V102.328L433.002 102.532ZM397.207 98.2588L397.209 98.2598C397.436 98.26 397.607 98.4313 397.607 98.6582V102.015C397.607 102.242 397.433 102.412 397.206 102.412H389.024C388.796 102.412 388.618 102.243 388.617 102.016V98.6543C388.617 98.426 388.787 98.2559 389.014 98.2559L397.207 98.2588ZM467.781 96.2559C466.026 96.2559 464.865 97.3339 464.854 99.0928H470.6C470.625 97.3205 469.536 96.2559 467.781 96.2559Z" fill="#0066CC"/>
<rect width="1440" height="441" transform="translate(0 257)" fill="white"/>
<path d="M530.801 319.648C528.539 320.139 526.502 320.384 524.689 320.384C522.875 320.384 521.425 320.16 520.337 319.712C519.249 319.264 518.395 318.549 517.777 317.568C517.158 316.587 516.731 315.435 516.497 314.112C516.262 312.789 516.145 311.125 516.145 309.12C516.145 304.917 516.731 301.995 517.905 300.352C519.099 298.688 521.286 297.856 524.465 297.856C526.299 297.856 528.422 298.144 530.833 298.72L530.705 302.24C528.593 301.92 526.833 301.76 525.425 301.76C524.038 301.76 523.046 301.952 522.449 302.336C521.851 302.699 521.403 303.403 521.105 304.448C520.827 305.493 520.689 307.275 520.689 309.792C520.689 312.309 520.977 314.059 521.553 315.04C522.15 316 523.323 316.48 525.073 316.48C526.843 316.48 528.721 316.331 530.705 316.032L530.801 319.648ZM534.614 305.824C535.744 304.352 537.632 303.616 540.278 303.616C542.923 303.616 544.811 304.352 545.942 305.824C547.072 307.275 547.638 309.323 547.638 311.968C547.638 317.579 545.184 320.384 540.278 320.384C535.371 320.384 532.918 317.579 532.918 311.968C532.918 309.323 533.483 307.275 534.614 305.824ZM537.91 315.584C538.358 316.352 539.147 316.736 540.278 316.736C541.408 316.736 542.187 316.352 542.614 315.584C543.062 314.816 543.286 313.611 543.286 311.968C543.286 310.325 543.062 309.131 542.614 308.384C542.187 307.637 541.408 307.264 540.278 307.264C539.147 307.264 538.358 307.637 537.91 308.384C537.483 309.131 537.27 310.325 537.27 311.968C537.27 313.611 537.483 314.816 537.91 315.584ZM555.069 320H550.781V304H555.037V304.896C556.488 304.043 557.821 303.616 559.037 303.616C561.17 303.616 562.642 304.245 563.453 305.504C564.264 306.763 564.669 308.704 564.669 311.328V320H560.381V311.456C560.381 310.091 560.221 309.088 559.901 308.448C559.581 307.787 558.941 307.456 557.981 307.456C557.106 307.456 556.264 307.605 555.453 307.904L555.069 308.032V320ZM577.332 307.648H573.396V314.208C573.396 314.848 573.407 315.307 573.428 315.584C573.471 315.84 573.588 316.064 573.78 316.256C573.994 316.448 574.314 316.544 574.74 316.544L577.172 316.48L577.364 319.904C575.935 320.224 574.847 320.384 574.1 320.384C572.18 320.384 570.868 319.957 570.164 319.104C569.46 318.229 569.108 316.629 569.108 314.304V307.648H567.22V304H569.108V299.552H573.396V304H577.332V307.648ZM580.125 320V304H584.413V320H580.125ZM580.125 301.952V297.6H584.413V301.952H580.125ZM592.663 320H588.375V304H592.631V304.896C594.081 304.043 595.415 303.616 596.631 303.616C598.764 303.616 600.236 304.245 601.047 305.504C601.857 306.763 602.263 308.704 602.263 311.328V320H597.975V311.456C597.975 310.091 597.815 309.088 597.495 308.448C597.175 307.787 596.535 307.456 595.575 307.456C594.7 307.456 593.857 307.605 593.047 307.904L592.663 308.032V320ZM615.502 304H619.79V320H615.534V319.104C613.998 319.957 612.665 320.384 611.534 320.384C609.315 320.384 607.822 319.776 607.054 318.56C606.286 317.323 605.902 315.264 605.902 312.384V304H610.19V312.448C610.19 314.027 610.318 315.104 610.574 315.68C610.83 316.256 611.449 316.544 612.43 316.544C613.369 316.544 614.254 316.395 615.086 316.096L615.502 315.968V304ZM627.27 313.824C627.291 314.805 627.547 315.52 628.038 315.968C628.55 316.395 629.275 316.608 630.214 316.608C632.198 316.608 633.968 316.544 635.526 316.416L636.422 316.32L636.486 319.488C634.032 320.085 631.814 320.384 629.83 320.384C627.419 320.384 625.67 319.744 624.582 318.464C623.494 317.184 622.95 315.104 622.95 312.224C622.95 306.485 625.307 303.616 630.022 303.616C634.672 303.616 636.998 306.027 636.998 310.848L636.678 313.824H627.27ZM632.774 310.56C632.774 309.28 632.571 308.395 632.166 307.904C631.76 307.392 631.046 307.136 630.022 307.136C629.019 307.136 628.304 307.403 627.878 307.936C627.472 308.448 627.259 309.323 627.238 310.56H632.774ZM647.957 305.824C649.088 304.352 650.976 303.616 653.621 303.616C656.267 303.616 658.155 304.352 659.285 305.824C660.416 307.275 660.981 309.323 660.981 311.968C660.981 317.579 658.528 320.384 653.621 320.384C648.715 320.384 646.261 317.579 646.261 311.968C646.261 309.323 646.827 307.275 647.957 305.824ZM651.253 315.584C651.701 316.352 652.491 316.736 653.621 316.736C654.752 316.736 655.531 316.352 655.957 315.584C656.405 314.816 656.629 313.611 656.629 311.968C656.629 310.325 656.405 309.131 655.957 308.384C655.531 307.637 654.752 307.264 653.621 307.264C652.491 307.264 651.701 307.637 651.253 308.384C650.827 309.131 650.613 310.325 650.613 311.968C650.613 313.611 650.827 314.816 651.253 315.584ZM668.413 320H664.125V304H668.381V304.896C669.831 304.043 671.165 303.616 672.381 303.616C674.514 303.616 675.986 304.245 676.797 305.504C677.607 306.763 678.013 308.704 678.013 311.328V320H673.725V311.456C673.725 310.091 673.565 309.088 673.245 308.448C672.925 307.787 672.285 307.456 671.325 307.456C670.45 307.456 669.607 307.605 668.797 307.904L668.413 308.032V320ZM697.707 307.648H693.771V314.208C693.771 314.848 693.782 315.307 693.803 315.584C693.846 315.84 693.963 316.064 694.155 316.256C694.369 316.448 694.689 316.544 695.115 316.544L697.547 316.48L697.739 319.904C696.31 320.224 695.222 320.384 694.475 320.384C692.555 320.384 691.243 319.957 690.539 319.104C689.835 318.229 689.483 316.629 689.483 314.304V307.648H687.595V304H689.483V299.552H693.771V304H697.707V307.648ZM704.788 320H700.5V297.6H704.788V304.768C706.26 304 707.582 303.616 708.756 303.616C710.889 303.616 712.361 304.245 713.172 305.504C713.982 306.763 714.388 308.704 714.388 311.328V320H710.1V311.424C710.1 310.08 709.94 309.088 709.62 308.448C709.3 307.787 708.66 307.456 707.7 307.456C706.868 307.456 706.036 307.584 705.204 307.84L704.788 307.968V320ZM721.707 313.824C721.728 314.805 721.984 315.52 722.475 315.968C722.987 316.395 723.712 316.608 724.651 316.608C726.635 316.608 728.406 316.544 729.963 316.416L730.859 316.32L730.923 319.488C728.47 320.085 726.251 320.384 724.267 320.384C721.856 320.384 720.107 319.744 719.019 318.464C717.931 317.184 717.387 315.104 717.387 312.224C717.387 306.485 719.744 303.616 724.459 303.616C729.11 303.616 731.435 306.027 731.435 310.848L731.115 313.824H721.707ZM727.211 310.56C727.211 309.28 727.008 308.395 726.603 307.904C726.198 307.392 725.483 307.136 724.459 307.136C723.456 307.136 722.742 307.403 722.315 307.936C721.91 308.448 721.696 309.323 721.675 310.56H727.211ZM741.915 320V298.24H746.331V320H741.915ZM749.119 302.144V298.24H765.119V302.144H759.359V320H754.943V302.144H749.119ZM765.526 313.44V309.536H774.998V313.44H765.526ZM776.936 298.24H781.576L784.264 316.224H784.744L788.648 298.24H793.768L797.672 316.224H798.152L800.84 298.24H805.48L801.32 320H794.632L791.208 303.456L787.784 320H781.096L776.936 298.24ZM819.849 308.992V315.648C819.892 316.16 819.977 316.523 820.105 316.736C820.233 316.928 820.5 317.067 820.905 317.152L820.777 320.384C819.689 320.384 818.815 320.309 818.153 320.16C817.513 320.011 816.863 319.712 816.201 319.264C814.665 320.011 813.097 320.384 811.497 320.384C808.191 320.384 806.537 318.635 806.537 315.136C806.537 313.429 806.996 312.224 807.913 311.52C808.831 310.795 810.239 310.368 812.137 310.24L815.561 309.984V308.992C815.561 308.331 815.412 307.883 815.113 307.648C814.815 307.392 814.335 307.264 813.673 307.264L807.657 307.52L807.529 304.544C809.812 303.925 811.977 303.616 814.025 303.616C816.095 303.616 817.577 304.043 818.473 304.896C819.391 305.749 819.849 307.115 819.849 308.992ZM812.649 313.216C811.455 313.323 810.857 313.963 810.857 315.136C810.857 316.309 811.38 316.896 812.425 316.896C813.236 316.896 814.121 316.768 815.081 316.512L815.561 316.384V312.96L812.649 313.216ZM824.129 320V297.6H828.417V320H824.129ZM832.754 320V297.6H837.042V320H832.754ZM844.707 313.824C844.728 314.805 844.984 315.52 845.475 315.968C845.987 316.395 846.712 316.608 847.651 316.608C849.635 316.608 851.406 316.544 852.963 316.416L853.859 316.32L853.923 319.488C851.47 320.085 849.251 320.384 847.267 320.384C844.856 320.384 843.107 319.744 842.019 318.464C840.931 317.184 840.387 315.104 840.387 312.224C840.387 306.485 842.744 303.616 847.459 303.616C852.11 303.616 854.435 306.027 854.435 310.848L854.115 313.824H844.707ZM850.211 310.56C850.211 309.28 850.008 308.395 849.603 307.904C849.198 307.392 848.483 307.136 847.459 307.136C846.456 307.136 845.742 307.403 845.315 307.936C844.91 308.448 844.696 309.323 844.675 310.56H850.211ZM866.364 307.648H862.428V314.208C862.428 314.848 862.438 315.307 862.46 315.584C862.502 315.84 862.62 316.064 862.812 316.256C863.025 316.448 863.345 316.544 863.772 316.544L866.204 316.48L866.396 319.904C864.966 320.224 863.878 320.384 863.132 320.384C861.212 320.384 859.9 319.957 859.196 319.104C858.492 318.229 858.14 316.629 858.14 314.304V307.648H856.252V304H858.14V299.552H862.428V304H866.364V307.648ZM888.443 308.992V315.648C888.486 316.16 888.571 316.523 888.699 316.736C888.827 316.928 889.094 317.067 889.499 317.152L889.371 320.384C888.283 320.384 887.408 320.309 886.747 320.16C886.107 320.011 885.456 319.712 884.795 319.264C883.259 320.011 881.691 320.384 880.091 320.384C876.784 320.384 875.131 318.635 875.131 315.136C875.131 313.429 875.59 312.224 876.507 311.52C877.424 310.795 878.832 310.368 880.731 310.24L884.155 309.984V308.992C884.155 308.331 884.006 307.883 883.707 307.648C883.408 307.392 882.928 307.264 882.267 307.264L876.251 307.52L876.123 304.544C878.406 303.925 880.571 303.616 882.619 303.616C884.688 303.616 886.171 304.043 887.067 304.896C887.984 305.749 888.443 307.115 888.443 308.992ZM881.243 313.216C880.048 313.323 879.451 313.963 879.451 315.136C879.451 316.309 879.974 316.896 881.019 316.896C881.83 316.896 882.715 316.768 883.675 316.512L884.155 316.384V312.96L881.243 313.216ZM892.531 326.72V304H896.787V304.864C898.174 304.032 899.39 303.616 900.435 303.616C902.59 303.616 904.179 304.267 905.203 305.568C906.227 306.848 906.739 309.035 906.739 312.128C906.739 315.221 906.174 317.376 905.043 318.592C903.912 319.787 902.056 320.384 899.475 320.384C898.771 320.384 898.014 320.32 897.203 320.192L896.819 320.128V326.72H892.531ZM899.603 307.456C898.814 307.456 898.014 307.616 897.203 307.936L896.819 308.096V316.48C897.779 316.608 898.558 316.672 899.155 316.672C900.392 316.672 901.235 316.309 901.683 315.584C902.152 314.859 902.387 313.621 902.387 311.872C902.387 308.928 901.459 307.456 899.603 307.456ZM909.937 326.72V304H914.193V304.864C915.58 304.032 916.796 303.616 917.841 303.616C919.996 303.616 921.585 304.267 922.609 305.568C923.633 306.848 924.145 309.035 924.145 312.128C924.145 315.221 923.58 317.376 922.449 318.592C921.318 319.787 919.462 320.384 916.881 320.384C916.177 320.384 915.42 320.32 914.609 320.192L914.225 320.128V326.72H909.937ZM917.009 307.456C916.22 307.456 915.42 307.616 914.609 307.936L914.225 308.096V316.48C915.185 316.608 915.964 316.672 916.561 316.672C917.798 316.672 918.641 316.309 919.089 315.584C919.558 314.859 919.793 313.621 919.793 311.872C919.793 308.928 918.865 307.456 917.009 307.456Z" fill="#17324D"/>
<path d="M730.602 467.484V375.258C730.602 370.992 735.216 368.328 738.912 370.464L774.36 390.93C777.978 393.018 780.204 396.876 780.204 401.058V494.67C780.204 498.936 775.59 501.6 771.894 499.464L737.646 479.694C733.284 477.174 730.602 472.524 730.602 467.49V467.484Z" fill="#7AC1FA"/>
<path d="M720.414 473.4V381.18C720.414 376.914 725.028 374.25 728.724 376.386L764.172 396.852C767.79 398.94 770.016 402.798 770.016 406.98V500.592C770.016 504.858 765.402 507.522 761.706 505.386L727.458 485.616C723.096 483.096 720.414 478.446 720.414 473.412V473.4Z" fill="#FFB357"/>
<path d="M709.974 480.948V387.336C709.974 383.07 714.588 380.406 718.284 382.542L753.732 403.008C757.35 405.096 759.576 408.954 759.576 413.136V506.748C759.576 511.014 754.962 513.678 751.266 511.542L715.818 491.076C712.2 488.988 709.974 485.13 709.974 480.948Z" fill="#0066CC"/>
<path d="M713.729 477.282V395.148C713.729 393.078 715.967 391.788 717.761 392.82L744.905 408.492C747.605 410.052 749.267 412.926 749.267 416.046V498.18C749.267 500.25 747.029 501.54 745.235 500.508L718.091 484.836C715.391 483.276 713.729 480.402 713.729 477.282Z" fill="white"/>
<path d="M721.325 406.115C721.325 403.823 723.803 402.395 725.789 403.541L736.673 409.829C738.449 410.855 739.541 412.751 739.541 414.803V415.889C739.541 417.695 737.585 418.829 736.019 417.923L724.193 411.095C722.417 410.069 721.325 408.173 721.325 406.121V406.115Z" fill="#0066CC"/>
<path d="M741.384 430.878L730.008 424.5C729.318 424.11 728.46 424.614 728.46 425.406V431.19L720.45 426.696C719.73 426.294 718.842 426.81 718.842 427.638V446.55C718.842 447.408 719.304 448.2 720.054 448.62L727.23 452.646C727.95 453.048 728.838 452.532 728.838 451.704V432.324L732.252 434.238C733.236 434.79 733.848 435.834 733.848 436.962V447.852L741.042 451.884C741.732 452.274 742.59 451.77 742.59 450.978V432.93C742.59 432.078 742.128 431.292 741.384 430.872V430.878Z" fill="#0066CC"/>
<path d="M690.438 507.541C673.512 497.773 659.796 476.131 659.796 459.205C659.796 442.279 673.518 436.483 690.438 446.251C707.364 456.019 721.08 477.661 721.08 494.587C721.08 511.513 707.358 517.309 690.438 507.541Z" fill="#CDD2FC"/>
<path d="M704.604 484.694L692.01 464.828C691.476 463.982 690.408 463.652 689.484 464.042L688.71 464.372C687.546 464.864 687.102 466.286 687.78 467.348L694.65 478.184L679.026 469.166C677.664 468.38 675.96 469.364 675.96 470.936V471.872C675.96 473.126 676.626 474.278 677.712 474.902L695.874 485.384C695.946 485.426 696.024 485.45 696.096 485.486L689.946 488.084C688.782 488.576 688.338 489.998 689.016 491.06L689.49 491.81C690.024 492.656 691.092 492.986 692.016 492.596L703.68 487.67C704.844 487.178 705.288 485.756 704.61 484.694H704.604Z" fill="#0066CC"/>
<path d="M544.128 563.786V562.544H553.128V563.786H549.33V575H547.962V563.786H544.128ZM552.633 570.482C552.633 568.838 552.927 567.65 553.515 566.918C554.103 566.186 555.093 565.82 556.485 565.82C557.889 565.82 558.879 566.186 559.455 566.918C560.043 567.65 560.337 568.838 560.337 570.482C560.337 572.126 560.061 573.32 559.509 574.064C558.957 574.808 557.949 575.18 556.485 575.18C555.021 575.18 554.013 574.808 553.461 574.064C552.909 573.32 552.633 572.126 552.633 570.482ZM554.019 570.464C554.019 571.772 554.175 572.69 554.487 573.218C554.811 573.746 555.477 574.01 556.485 574.01C557.505 574.01 558.171 573.752 558.483 573.236C558.795 572.708 558.951 571.784 558.951 570.464C558.951 569.144 558.777 568.238 558.429 567.746C558.081 567.242 557.433 566.99 556.485 566.99C555.549 566.99 554.901 567.242 554.541 567.746C554.193 568.238 554.019 569.144 554.019 570.464ZM569.86 565.82C570.256 565.82 570.928 565.892 571.876 566.036L572.308 566.09L572.254 567.188C571.294 567.08 570.586 567.026 570.13 567.026C569.11 567.026 568.414 567.272 568.042 567.764C567.682 568.244 567.502 569.144 567.502 570.464C567.502 571.772 567.67 572.684 568.006 573.2C568.354 573.716 569.068 573.974 570.148 573.974L572.272 573.812L572.326 574.928C571.21 575.096 570.376 575.18 569.824 575.18C568.42 575.18 567.448 574.82 566.908 574.1C566.38 573.38 566.116 572.168 566.116 570.464C566.116 568.748 566.404 567.548 566.98 566.864C567.556 566.168 568.516 565.82 569.86 565.82ZM573.833 570.482C573.833 568.838 574.127 567.65 574.715 566.918C575.303 566.186 576.293 565.82 577.685 565.82C579.089 565.82 580.079 566.186 580.655 566.918C581.243 567.65 581.537 568.838 581.537 570.482C581.537 572.126 581.261 573.32 580.709 574.064C580.157 574.808 579.149 575.18 577.685 575.18C576.221 575.18 575.213 574.808 574.661 574.064C574.109 573.32 573.833 572.126 573.833 570.482ZM575.219 570.464C575.219 571.772 575.375 572.69 575.687 573.218C576.011 573.746 576.677 574.01 577.685 574.01C578.705 574.01 579.371 573.752 579.683 573.236C579.995 572.708 580.151 571.784 580.151 570.464C580.151 569.144 579.977 568.238 579.629 567.746C579.281 567.242 578.633 566.99 577.685 566.99C576.749 566.99 576.101 567.242 575.741 567.746C575.393 568.238 575.219 569.144 575.219 570.464ZM585.088 575H583.738V566H585.07V566.63C586.042 566.09 586.972 565.82 587.86 565.82C589.06 565.82 589.864 566.144 590.272 566.792C590.692 567.44 590.902 568.592 590.902 570.248V575H589.57V570.284C589.57 569.036 589.444 568.184 589.192 567.728C588.952 567.26 588.43 567.026 587.626 567.026C587.242 567.026 586.834 567.086 586.402 567.206C585.982 567.314 585.658 567.422 585.43 567.53L585.088 567.692V575ZM598.016 567.17H595.154V571.472C595.154 572.504 595.226 573.182 595.37 573.506C595.526 573.83 595.886 573.992 596.45 573.992L598.052 573.884L598.142 575C597.338 575.132 596.726 575.198 596.306 575.198C595.37 575.198 594.722 574.97 594.362 574.514C594.002 574.058 593.822 573.188 593.822 571.904V567.17H592.544V566H593.822V563.246H595.154V566H598.016V567.17ZM599.664 575V566H601.014V575H599.664ZM599.664 563.966V562.4H601.014V563.966H599.664ZM604.952 575H603.602V566H604.934V566.63C605.906 566.09 606.836 565.82 607.724 565.82C608.924 565.82 609.728 566.144 610.136 566.792C610.556 567.44 610.766 568.592 610.766 570.248V575H609.434V570.284C609.434 569.036 609.308 568.184 609.056 567.728C608.816 567.26 608.294 567.026 607.49 567.026C607.106 567.026 606.698 567.086 606.266 567.206C605.846 567.314 605.522 567.422 605.294 567.53L604.952 567.692V575ZM618.886 566H620.236V575H618.886V574.37C617.986 574.91 617.098 575.18 616.222 575.18C614.998 575.18 614.182 574.862 613.774 574.226C613.378 573.59 613.18 572.414 613.18 570.698V566H614.53V570.68C614.53 571.988 614.644 572.864 614.872 573.308C615.1 573.752 615.616 573.974 616.42 573.974C616.816 573.974 617.218 573.92 617.626 573.812C618.034 573.692 618.346 573.578 618.562 573.47L618.886 573.308V566ZM628.952 573.884L629.474 573.83L629.51 574.892C628.142 575.084 626.972 575.18 626 575.18C624.704 575.18 623.786 574.808 623.246 574.064C622.706 573.308 622.436 572.138 622.436 570.554C622.436 567.398 623.69 565.82 626.198 565.82C627.41 565.82 628.316 566.162 628.916 566.846C629.516 567.518 629.816 568.58 629.816 570.032L629.744 571.058H623.804C623.804 572.054 623.984 572.792 624.344 573.272C624.704 573.752 625.328 573.992 626.216 573.992C627.116 573.992 628.028 573.956 628.952 573.884ZM628.466 569.978C628.466 568.874 628.286 568.094 627.926 567.638C627.578 567.182 627.002 566.954 626.198 566.954C625.406 566.954 624.806 567.194 624.398 567.674C624.002 568.154 623.798 568.922 623.786 569.978H628.466ZM631.236 577.214L632.064 573.074H633.558L632.352 577.214H631.236ZM641.611 567.17V575H640.261V567.17H639.127V566H640.261V565.19C640.261 563.918 640.441 563.054 640.801 562.598C641.161 562.13 641.791 561.896 642.691 561.896L644.509 562.022L644.491 563.138C643.819 563.114 643.261 563.102 642.817 563.102C642.385 563.102 642.073 563.246 641.881 563.534C641.701 563.822 641.611 564.38 641.611 565.208V566H644.221V567.17H641.611ZM645.288 570.482C645.288 568.838 645.582 567.65 646.17 566.918C646.758 566.186 647.748 565.82 649.14 565.82C650.544 565.82 651.534 566.186 652.11 566.918C652.698 567.65 652.992 568.838 652.992 570.482C652.992 572.126 652.716 573.32 652.164 574.064C651.612 574.808 650.604 575.18 649.14 575.18C647.676 575.18 646.668 574.808 646.116 574.064C645.564 573.32 645.288 572.126 645.288 570.482ZM646.674 570.464C646.674 571.772 646.83 572.69 647.142 573.218C647.466 573.746 648.132 574.01 649.14 574.01C650.16 574.01 650.826 573.752 651.138 573.236C651.45 572.708 651.606 571.784 651.606 570.464C651.606 569.144 651.432 568.238 651.084 567.746C650.736 567.242 650.088 566.99 649.14 566.99C648.204 566.99 647.556 567.242 647.196 567.746C646.848 568.238 646.674 569.144 646.674 570.464ZM655.301 575V562.076H656.651V575H655.301ZM659.467 575V562.076H660.817V575H659.467ZM663.129 570.482C663.129 568.838 663.423 567.65 664.011 566.918C664.599 566.186 665.589 565.82 666.981 565.82C668.385 565.82 669.375 566.186 669.951 566.918C670.539 567.65 670.833 568.838 670.833 570.482C670.833 572.126 670.557 573.32 670.005 574.064C669.453 574.808 668.445 575.18 666.981 575.18C665.517 575.18 664.509 574.808 663.957 574.064C663.405 573.32 663.129 572.126 663.129 570.482ZM664.515 570.464C664.515 571.772 664.671 572.69 664.983 573.218C665.307 573.746 665.973 574.01 666.981 574.01C668.001 574.01 668.667 573.752 668.979 573.236C669.291 572.708 669.447 571.784 669.447 570.464C669.447 569.144 669.273 568.238 668.925 567.746C668.577 567.242 667.929 566.99 666.981 566.99C666.045 566.99 665.397 567.242 665.037 567.746C664.689 568.238 664.515 569.144 664.515 570.464ZM672.209 566H673.559L675.377 573.83H675.665L677.807 566.18H679.211L681.353 573.83H681.659L683.459 566H684.809L682.667 575H680.417L678.509 567.962L676.601 575H674.351L672.209 566ZM695.275 567.17H692.413V571.472C692.413 572.504 692.485 573.182 692.629 573.506C692.785 573.83 693.145 573.992 693.709 573.992L695.311 573.884L695.401 575C694.597 575.132 693.985 575.198 693.565 575.198C692.629 575.198 691.981 574.97 691.621 574.514C691.261 574.058 691.081 573.188 691.081 571.904V567.17H689.803V566H691.081V563.246H692.413V566H695.275V567.17ZM698.274 575H696.924V562.076H698.274V566.504C699.234 566.048 700.158 565.82 701.046 565.82C702.246 565.82 703.05 566.144 703.458 566.792C703.878 567.44 704.088 568.592 704.088 570.248V575H702.738V570.284C702.738 569.036 702.612 568.184 702.36 567.728C702.12 567.26 701.604 567.026 700.812 567.026C700.056 567.026 699.324 567.164 698.616 567.44L698.274 567.566V575ZM712.712 573.884L713.234 573.83L713.27 574.892C711.902 575.084 710.732 575.18 709.76 575.18C708.464 575.18 707.546 574.808 707.006 574.064C706.466 573.308 706.196 572.138 706.196 570.554C706.196 567.398 707.45 565.82 709.958 565.82C711.17 565.82 712.076 566.162 712.676 566.846C713.276 567.518 713.576 568.58 713.576 570.032L713.504 571.058H707.564C707.564 572.054 707.744 572.792 708.104 573.272C708.464 573.752 709.088 573.992 709.976 573.992C710.876 573.992 711.788 573.956 712.712 573.884ZM712.226 569.978C712.226 568.874 712.046 568.094 711.686 567.638C711.338 567.182 710.762 566.954 709.958 566.954C709.166 566.954 708.566 567.194 708.158 567.674C707.762 568.154 707.558 568.922 707.546 569.978H712.226ZM719.635 575V566H720.985V575H719.635ZM719.635 563.966V562.4H720.985V563.966H719.635ZM724.922 575H723.572V566H724.904V566.63C725.876 566.09 726.806 565.82 727.694 565.82C728.894 565.82 729.698 566.144 730.106 566.792C730.526 567.44 730.736 568.592 730.736 570.248V575H729.404V570.284C729.404 569.036 729.278 568.184 729.026 567.728C728.786 567.26 728.264 567.026 727.46 567.026C727.076 567.026 726.668 567.086 726.236 567.206C725.816 567.314 725.492 567.422 725.264 567.53L724.922 567.692V575ZM736.066 567.026C734.758 567.026 734.104 567.482 734.104 568.394C734.104 568.814 734.254 569.114 734.554 569.294C734.854 569.462 735.538 569.642 736.606 569.834C737.674 570.014 738.43 570.272 738.874 570.608C739.318 570.944 739.54 571.574 739.54 572.498C739.54 573.422 739.24 574.1 738.64 574.532C738.052 574.964 737.188 575.18 736.048 575.18C735.304 575.18 734.428 575.096 733.42 574.928L732.88 574.838L732.952 573.668C734.32 573.872 735.352 573.974 736.048 573.974C736.744 573.974 737.272 573.866 737.632 573.65C738.004 573.422 738.19 573.05 738.19 572.534C738.19 572.006 738.034 571.652 737.722 571.472C737.41 571.28 736.726 571.1 735.67 570.932C734.614 570.764 733.864 570.518 733.42 570.194C732.976 569.87 732.754 569.27 732.754 568.394C732.754 567.518 733.06 566.87 733.672 566.45C734.296 566.03 735.07 565.82 735.994 565.82C736.726 565.82 737.644 565.904 738.748 566.072L739.252 566.162L739.216 567.314C737.884 567.122 736.834 567.026 736.066 567.026ZM746.27 567.17H743.408V571.472C743.408 572.504 743.48 573.182 743.624 573.506C743.78 573.83 744.14 573.992 744.704 573.992L746.306 573.884L746.396 575C745.592 575.132 744.98 575.198 744.56 575.198C743.624 575.198 742.976 574.97 742.616 574.514C742.256 574.058 742.076 573.188 742.076 571.904V567.17H740.798V566H742.076V563.246H743.408V566H746.27V567.17ZM747.918 575V566H749.25V567.224C750.294 566.504 751.392 566.03 752.544 565.802V567.17C752.04 567.266 751.512 567.416 750.96 567.62C750.42 567.824 750.006 568.004 749.718 568.16L749.268 568.394V575H747.918ZM759.757 566H761.107V575H759.757V574.37C758.857 574.91 757.969 575.18 757.093 575.18C755.869 575.18 755.053 574.862 754.645 574.226C754.249 573.59 754.051 572.414 754.051 570.698V566H755.401V570.68C755.401 571.988 755.515 572.864 755.743 573.308C755.971 573.752 756.487 573.974 757.291 573.974C757.687 573.974 758.089 573.92 758.497 573.812C758.905 573.692 759.217 573.578 759.433 573.47L759.757 573.308V566ZM767.069 565.82C767.465 565.82 768.137 565.892 769.085 566.036L769.517 566.09L769.463 567.188C768.503 567.08 767.795 567.026 767.339 567.026C766.319 567.026 765.623 567.272 765.251 567.764C764.891 568.244 764.711 569.144 764.711 570.464C764.711 571.772 764.879 572.684 765.215 573.2C765.563 573.716 766.277 573.974 767.357 573.974L769.481 573.812L769.535 574.928C768.419 575.096 767.585 575.18 767.033 575.18C765.629 575.18 764.657 574.82 764.117 574.1C763.589 573.38 763.325 572.168 763.325 570.464C763.325 568.748 763.613 567.548 764.189 566.864C764.765 566.168 765.725 565.82 767.069 565.82ZM776.205 567.17H773.343V571.472C773.343 572.504 773.415 573.182 773.559 573.506C773.715 573.83 774.075 573.992 774.639 573.992L776.241 573.884L776.331 575C775.527 575.132 774.915 575.198 774.495 575.198C773.559 575.198 772.911 574.97 772.551 574.514C772.191 574.058 772.011 573.188 772.011 571.904V567.17H770.733V566H772.011V563.246H773.343V566H776.205V567.17ZM777.854 575V566H779.204V575H777.854ZM777.854 563.966V562.4H779.204V563.966H777.854ZM781.395 570.482C781.395 568.838 781.689 567.65 782.277 566.918C782.865 566.186 783.855 565.82 785.247 565.82C786.651 565.82 787.641 566.186 788.217 566.918C788.805 567.65 789.099 568.838 789.099 570.482C789.099 572.126 788.823 573.32 788.271 574.064C787.719 574.808 786.711 575.18 785.247 575.18C783.783 575.18 782.775 574.808 782.223 574.064C781.671 573.32 781.395 572.126 781.395 570.482ZM782.781 570.464C782.781 571.772 782.937 572.69 783.249 573.218C783.573 573.746 784.239 574.01 785.247 574.01C786.267 574.01 786.933 573.752 787.245 573.236C787.557 572.708 787.713 571.784 787.713 570.464C787.713 569.144 787.539 568.238 787.191 567.746C786.843 567.242 786.195 566.99 785.247 566.99C784.311 566.99 783.663 567.242 783.303 567.746C782.955 568.238 782.781 569.144 782.781 570.464ZM792.651 575H791.301V566H792.633V566.63C793.605 566.09 794.535 565.82 795.423 565.82C796.623 565.82 797.427 566.144 797.835 566.792C798.255 567.44 798.465 568.592 798.465 570.248V575H797.133V570.284C797.133 569.036 797.007 568.184 796.755 567.728C796.515 567.26 795.993 567.026 795.189 567.026C794.805 567.026 794.397 567.086 793.965 567.206C793.545 567.314 793.221 567.422 792.993 567.53L792.651 567.692V575ZM803.795 567.026C802.487 567.026 801.833 567.482 801.833 568.394C801.833 568.814 801.983 569.114 802.283 569.294C802.583 569.462 803.267 569.642 804.335 569.834C805.403 570.014 806.159 570.272 806.603 570.608C807.047 570.944 807.269 571.574 807.269 572.498C807.269 573.422 806.969 574.1 806.369 574.532C805.781 574.964 804.917 575.18 803.777 575.18C803.033 575.18 802.157 575.096 801.149 574.928L800.609 574.838L800.681 573.668C802.049 573.872 803.081 573.974 803.777 573.974C804.473 573.974 805.001 573.866 805.361 573.65C805.733 573.422 805.919 573.05 805.919 572.534C805.919 572.006 805.763 571.652 805.451 571.472C805.139 571.28 804.455 571.1 803.399 570.932C802.343 570.764 801.593 570.518 801.149 570.194C800.705 569.87 800.483 569.27 800.483 568.394C800.483 567.518 800.789 566.87 801.401 566.45C802.025 566.03 802.799 565.82 803.723 565.82C804.455 565.82 805.373 565.904 806.477 566.072L806.981 566.162L806.945 567.314C805.613 567.122 804.563 567.026 803.795 567.026ZM812.895 570.482C812.895 568.838 813.189 567.65 813.777 566.918C814.365 566.186 815.355 565.82 816.747 565.82C818.151 565.82 819.141 566.186 819.717 566.918C820.305 567.65 820.599 568.838 820.599 570.482C820.599 572.126 820.323 573.32 819.771 574.064C819.219 574.808 818.211 575.18 816.747 575.18C815.283 575.18 814.275 574.808 813.723 574.064C813.171 573.32 812.895 572.126 812.895 570.482ZM814.281 570.464C814.281 571.772 814.437 572.69 814.749 573.218C815.073 573.746 815.739 574.01 816.747 574.01C817.767 574.01 818.433 573.752 818.745 573.236C819.057 572.708 819.213 571.784 819.213 570.464C819.213 569.144 819.039 568.238 818.691 567.746C818.343 567.242 817.695 566.99 816.747 566.99C815.811 566.99 815.163 567.242 814.803 567.746C814.455 568.238 814.281 569.144 814.281 570.464ZM824.151 575H822.801V566H824.133V566.63C825.105 566.09 826.035 565.82 826.923 565.82C828.123 565.82 828.927 566.144 829.335 566.792C829.755 567.44 829.965 568.592 829.965 570.248V575H828.633V570.284C828.633 569.036 828.507 568.184 828.255 567.728C828.015 567.26 827.493 567.026 826.689 567.026C826.305 567.026 825.897 567.086 825.465 567.206C825.045 567.314 824.721 567.422 824.493 567.53L824.151 567.692V575ZM841.086 567.17H838.224V571.472C838.224 572.504 838.296 573.182 838.44 573.506C838.596 573.83 838.956 573.992 839.52 573.992L841.122 573.884L841.212 575C840.408 575.132 839.796 575.198 839.376 575.198C838.44 575.198 837.792 574.97 837.432 574.514C837.072 574.058 836.892 573.188 836.892 571.904V567.17H835.614V566H836.892V563.246H838.224V566H841.086V567.17ZM844.084 575H842.734V562.076H844.084V566.504C845.044 566.048 845.968 565.82 846.856 565.82C848.056 565.82 848.86 566.144 849.268 566.792C849.688 567.44 849.898 568.592 849.898 570.248V575H848.548V570.284C848.548 569.036 848.422 568.184 848.17 567.728C847.93 567.26 847.414 567.026 846.622 567.026C845.866 567.026 845.134 567.164 844.426 567.44L844.084 567.566V575ZM858.522 573.884L859.044 573.83L859.08 574.892C857.712 575.084 856.542 575.18 855.57 575.18C854.274 575.18 853.356 574.808 852.816 574.064C852.276 573.308 852.006 572.138 852.006 570.554C852.006 567.398 853.26 565.82 855.768 565.82C856.98 565.82 857.886 566.162 858.486 566.846C859.086 567.518 859.386 568.58 859.386 570.032L859.314 571.058H853.374C853.374 572.054 853.554 572.792 853.914 573.272C854.274 573.752 854.898 573.992 855.786 573.992C856.686 573.992 857.598 573.956 858.522 573.884ZM858.036 569.978C858.036 568.874 857.856 568.094 857.496 567.638C857.148 567.182 856.572 566.954 855.768 566.954C854.976 566.954 854.376 567.194 853.968 567.674C853.572 568.154 853.368 568.922 853.356 569.978H858.036ZM871.799 568.718V573.326C871.835 573.77 872.183 574.034 872.843 574.118L872.789 575.18C871.841 575.18 871.127 574.94 870.647 574.46C869.567 574.94 868.487 575.18 867.407 575.18C866.579 575.18 865.949 574.946 865.517 574.478C865.085 574.01 864.869 573.338 864.869 572.462C864.869 571.586 865.091 570.944 865.535 570.536C865.979 570.116 866.675 569.858 867.623 569.762L870.449 569.492V568.718C870.449 568.106 870.317 567.668 870.053 567.404C869.789 567.14 869.429 567.008 868.973 567.008C868.013 567.008 867.017 567.068 865.985 567.188L865.427 567.242L865.373 566.216C866.693 565.952 867.863 565.82 868.883 565.82C869.903 565.82 870.641 566.054 871.097 566.522C871.565 566.99 871.799 567.722 871.799 568.718ZM866.255 572.39C866.255 573.494 866.711 574.046 867.623 574.046C868.439 574.046 869.243 573.908 870.035 573.632L870.449 573.488V570.518L867.785 570.77C867.245 570.818 866.855 570.974 866.615 571.238C866.375 571.502 866.255 571.886 866.255 572.39ZM874.463 578.996V566H875.795V566.648C876.707 566.096 877.607 565.82 878.495 565.82C879.635 565.82 880.463 566.186 880.979 566.918C881.495 567.638 881.753 568.832 881.753 570.5C881.753 572.168 881.447 573.368 880.835 574.1C880.235 574.82 879.233 575.18 877.829 575.18C877.097 575.18 876.425 575.114 875.813 574.982V578.996H874.463ZM878.297 567.026C877.937 567.026 877.547 567.086 877.127 567.206C876.719 567.326 876.395 567.446 876.155 567.566L875.813 567.746V573.812C876.665 573.944 877.313 574.01 877.757 574.01C878.729 574.01 879.407 573.734 879.791 573.182C880.187 572.63 880.385 571.73 880.385 570.482C880.385 569.234 880.205 568.346 879.845 567.818C879.497 567.29 878.981 567.026 878.297 567.026ZM883.955 578.996V566H885.287V566.648C886.199 566.096 887.099 565.82 887.987 565.82C889.127 565.82 889.955 566.186 890.471 566.918C890.987 567.638 891.245 568.832 891.245 570.5C891.245 572.168 890.939 573.368 890.327 574.1C889.727 574.82 888.725 575.18 887.321 575.18C886.589 575.18 885.917 575.114 885.305 574.982V578.996H883.955ZM887.789 567.026C887.429 567.026 887.039 567.086 886.619 567.206C886.211 567.326 885.887 567.446 885.647 567.566L885.305 567.746V573.812C886.157 573.944 886.805 574.01 887.249 574.01C888.221 574.01 888.899 573.734 889.283 573.182C889.679 572.63 889.877 571.73 889.877 570.482C889.877 569.234 889.697 568.346 889.337 567.818C888.989 567.29 888.473 567.026 887.789 567.026ZM648.592 595.718V600.326C648.628 600.77 648.976 601.034 649.636 601.118L649.582 602.18C648.634 602.18 647.92 601.94 647.44 601.46C646.36 601.94 645.28 602.18 644.2 602.18C643.372 602.18 642.742 601.946 642.31 601.478C641.878 601.01 641.662 600.338 641.662 599.462C641.662 598.586 641.884 597.944 642.328 597.536C642.772 597.116 643.468 596.858 644.416 596.762L647.242 596.492V595.718C647.242 595.106 647.11 594.668 646.846 594.404C646.582 594.14 646.222 594.008 645.766 594.008C644.806 594.008 643.81 594.068 642.778 594.188L642.22 594.242L642.166 593.216C643.486 592.952 644.656 592.82 645.676 592.82C646.696 592.82 647.434 593.054 647.89 593.522C648.358 593.99 648.592 594.722 648.592 595.718ZM643.048 599.39C643.048 600.494 643.504 601.046 644.416 601.046C645.232 601.046 646.036 600.908 646.828 600.632L647.242 600.488V597.518L644.578 597.77C644.038 597.818 643.648 597.974 643.408 598.238C643.168 598.502 643.048 598.886 643.048 599.39ZM652.606 602H651.256V593H652.588V593.63C653.56 593.09 654.49 592.82 655.378 592.82C656.578 592.82 657.382 593.144 657.79 593.792C658.21 594.44 658.42 595.592 658.42 597.248V602H657.088V597.284C657.088 596.036 656.962 595.184 656.71 594.728C656.47 594.26 655.948 594.026 655.144 594.026C654.76 594.026 654.352 594.086 653.92 594.206C653.5 594.314 653.176 594.422 652.948 594.53L652.606 594.692V602ZM667.836 589.076V602H666.504V601.388C665.58 601.916 664.668 602.18 663.768 602.18C663.288 602.18 662.868 602.12 662.508 602C662.148 601.88 661.812 601.664 661.5 601.352C660.852 600.704 660.528 599.51 660.528 597.77C660.528 596.018 660.816 594.758 661.392 593.99C661.98 593.21 662.946 592.82 664.29 592.82C664.986 592.82 665.724 592.898 666.504 593.054V589.076H667.836ZM662.544 600.38C662.736 600.608 662.94 600.764 663.156 600.848C663.372 600.932 663.648 600.974 663.984 600.974C664.332 600.974 664.716 600.92 665.136 600.812C665.568 600.692 665.904 600.578 666.144 600.47L666.504 600.308V594.206C665.736 594.062 665.022 593.99 664.362 593.99C663.45 593.99 662.814 594.284 662.454 594.872C662.094 595.448 661.914 596.348 661.914 597.572C661.914 598.964 662.124 599.9 662.544 600.38ZM680.76 595.718V600.326C680.796 600.77 681.144 601.034 681.804 601.118L681.75 602.18C680.802 602.18 680.088 601.94 679.608 601.46C678.528 601.94 677.448 602.18 676.368 602.18C675.54 602.18 674.91 601.946 674.478 601.478C674.046 601.01 673.83 600.338 673.83 599.462C673.83 598.586 674.052 597.944 674.496 597.536C674.94 597.116 675.636 596.858 676.584 596.762L679.41 596.492V595.718C679.41 595.106 679.278 594.668 679.014 594.404C678.75 594.14 678.39 594.008 677.934 594.008C676.974 594.008 675.978 594.068 674.946 594.188L674.388 594.242L674.334 593.216C675.654 592.952 676.824 592.82 677.844 592.82C678.864 592.82 679.602 593.054 680.058 593.522C680.526 593.99 680.76 594.722 680.76 595.718ZM675.216 599.39C675.216 600.494 675.672 601.046 676.584 601.046C677.4 601.046 678.204 600.908 678.996 600.632L679.41 600.488V597.518L676.746 597.77C676.206 597.818 675.816 597.974 675.576 598.238C675.336 598.502 675.216 598.886 675.216 599.39ZM689.04 593H690.39V602H689.04V601.37C688.14 601.91 687.252 602.18 686.376 602.18C685.152 602.18 684.336 601.862 683.928 601.226C683.532 600.59 683.334 599.414 683.334 597.698V593H684.684V597.68C684.684 598.988 684.798 599.864 685.026 600.308C685.254 600.752 685.77 600.974 686.574 600.974C686.97 600.974 687.372 600.92 687.78 600.812C688.188 600.692 688.5 600.578 688.716 600.47L689.04 600.308V593ZM697.648 594.17H694.786V598.472C694.786 599.504 694.858 600.182 695.002 600.506C695.158 600.83 695.518 600.992 696.082 600.992L697.684 600.884L697.774 602C696.97 602.132 696.358 602.198 695.938 602.198C695.002 602.198 694.354 601.97 693.994 601.514C693.634 601.058 693.454 600.188 693.454 598.904V594.17H692.176V593H693.454V590.246H694.786V593H697.648V594.17ZM700.647 602H699.297V589.076H700.647V593.504C701.607 593.048 702.531 592.82 703.419 592.82C704.619 592.82 705.423 593.144 705.831 593.792C706.251 594.44 706.461 595.592 706.461 597.248V602H705.111V597.284C705.111 596.036 704.985 595.184 704.733 594.728C704.493 594.26 703.977 594.026 703.185 594.026C702.429 594.026 701.697 594.164 700.989 594.44L700.647 594.566V602ZM708.569 597.482C708.569 595.838 708.863 594.65 709.451 593.918C710.039 593.186 711.029 592.82 712.421 592.82C713.825 592.82 714.815 593.186 715.391 593.918C715.979 594.65 716.273 595.838 716.273 597.482C716.273 599.126 715.997 600.32 715.445 601.064C714.893 601.808 713.885 602.18 712.421 602.18C710.957 602.18 709.949 601.808 709.397 601.064C708.845 600.32 708.569 599.126 708.569 597.482ZM709.955 597.464C709.955 598.772 710.111 599.69 710.423 600.218C710.747 600.746 711.413 601.01 712.421 601.01C713.441 601.01 714.107 600.752 714.419 600.236C714.731 599.708 714.887 598.784 714.887 597.464C714.887 596.144 714.713 595.238 714.365 594.746C714.017 594.242 713.369 593.99 712.421 593.99C711.485 593.99 710.837 594.242 710.477 594.746C710.129 595.238 709.955 596.144 709.955 597.464ZM718.475 602V593H719.807V594.224C720.851 593.504 721.949 593.03 723.101 592.802V594.17C722.597 594.266 722.069 594.416 721.517 594.62C720.977 594.824 720.563 595.004 720.275 595.16L719.825 595.394V602H718.475ZM724.697 602V593H726.047V602H724.697ZM724.697 590.966V589.4H726.047V590.966H724.697ZM731.461 594.026C730.153 594.026 729.499 594.482 729.499 595.394C729.499 595.814 729.649 596.114 729.949 596.294C730.249 596.462 730.933 596.642 732.001 596.834C733.069 597.014 733.825 597.272 734.269 597.608C734.713 597.944 734.935 598.574 734.935 599.498C734.935 600.422 734.635 601.1 734.035 601.532C733.447 601.964 732.583 602.18 731.443 602.18C730.699 602.18 729.823 602.096 728.815 601.928L728.275 601.838L728.347 600.668C729.715 600.872 730.747 600.974 731.443 600.974C732.139 600.974 732.667 600.866 733.027 600.65C733.399 600.422 733.585 600.05 733.585 599.534C733.585 599.006 733.429 598.652 733.117 598.472C732.805 598.28 732.121 598.1 731.065 597.932C730.009 597.764 729.259 597.518 728.815 597.194C728.371 596.87 728.149 596.27 728.149 595.394C728.149 594.518 728.455 593.87 729.067 593.45C729.691 593.03 730.465 592.82 731.389 592.82C732.121 592.82 733.039 592.904 734.143 593.072L734.647 593.162L734.611 594.314C733.279 594.122 732.229 594.026 731.461 594.026ZM743.122 600.884L743.644 600.83L743.68 601.892C742.312 602.084 741.142 602.18 740.17 602.18C738.874 602.18 737.956 601.808 737.416 601.064C736.876 600.308 736.606 599.138 736.606 597.554C736.606 594.398 737.86 592.82 740.368 592.82C741.58 592.82 742.486 593.162 743.086 593.846C743.686 594.518 743.986 595.58 743.986 597.032L743.914 598.058H737.974C737.974 599.054 738.154 599.792 738.514 600.272C738.874 600.752 739.498 600.992 740.386 600.992C741.286 600.992 742.198 600.956 743.122 600.884ZM742.636 596.978C742.636 595.874 742.456 595.094 742.096 594.638C741.748 594.182 741.172 593.954 740.368 593.954C739.576 593.954 738.976 594.194 738.568 594.674C738.172 595.154 737.968 595.922 737.956 596.978H742.636ZM756.399 595.718V600.326C756.435 600.77 756.783 601.034 757.443 601.118L757.389 602.18C756.441 602.18 755.727 601.94 755.247 601.46C754.167 601.94 753.087 602.18 752.007 602.18C751.179 602.18 750.549 601.946 750.117 601.478C749.685 601.01 749.469 600.338 749.469 599.462C749.469 598.586 749.691 597.944 750.135 597.536C750.579 597.116 751.275 596.858 752.223 596.762L755.049 596.492V595.718C755.049 595.106 754.917 594.668 754.653 594.404C754.389 594.14 754.029 594.008 753.573 594.008C752.613 594.008 751.617 594.068 750.585 594.188L750.027 594.242L749.973 593.216C751.293 592.952 752.463 592.82 753.483 592.82C754.503 592.82 755.241 593.054 755.697 593.522C756.165 593.99 756.399 594.722 756.399 595.718ZM750.855 599.39C750.855 600.494 751.311 601.046 752.223 601.046C753.039 601.046 753.843 600.908 754.635 600.632L755.049 600.488V597.518L752.385 597.77C751.845 597.818 751.455 597.974 751.215 598.238C750.975 598.502 750.855 598.886 750.855 599.39ZM762.429 592.82C762.825 592.82 763.497 592.892 764.445 593.036L764.877 593.09L764.823 594.188C763.863 594.08 763.155 594.026 762.699 594.026C761.679 594.026 760.983 594.272 760.611 594.764C760.251 595.244 760.071 596.144 760.071 597.464C760.071 598.772 760.239 599.684 760.575 600.2C760.923 600.716 761.637 600.974 762.717 600.974L764.841 600.812L764.895 601.928C763.779 602.096 762.945 602.18 762.393 602.18C760.989 602.18 760.017 601.82 759.477 601.1C758.949 600.38 758.685 599.168 758.685 597.464C758.685 595.748 758.973 594.548 759.549 593.864C760.125 593.168 761.085 592.82 762.429 592.82ZM770.163 592.82C770.559 592.82 771.231 592.892 772.179 593.036L772.611 593.09L772.557 594.188C771.597 594.08 770.889 594.026 770.433 594.026C769.413 594.026 768.717 594.272 768.345 594.764C767.985 595.244 767.805 596.144 767.805 597.464C767.805 598.772 767.973 599.684 768.309 600.2C768.657 600.716 769.371 600.974 770.451 600.974L772.575 600.812L772.629 601.928C771.513 602.096 770.679 602.18 770.127 602.18C768.723 602.18 767.751 601.82 767.211 601.1C766.683 600.38 766.419 599.168 766.419 597.464C766.419 595.748 766.707 594.548 767.283 593.864C767.859 593.168 768.819 592.82 770.163 592.82ZM780.651 600.884L781.173 600.83L781.209 601.892C779.841 602.084 778.671 602.18 777.699 602.18C776.403 602.18 775.485 601.808 774.945 601.064C774.405 600.308 774.135 599.138 774.135 597.554C774.135 594.398 775.389 592.82 777.897 592.82C779.109 592.82 780.015 593.162 780.615 593.846C781.215 594.518 781.515 595.58 781.515 597.032L781.443 598.058H775.503C775.503 599.054 775.683 599.792 776.043 600.272C776.403 600.752 777.027 600.992 777.915 600.992C778.815 600.992 779.727 600.956 780.651 600.884ZM780.165 596.978C780.165 595.874 779.985 595.094 779.625 594.638C779.277 594.182 778.701 593.954 777.897 593.954C777.105 593.954 776.505 594.194 776.097 594.674C775.701 595.154 775.497 595.922 775.485 596.978H780.165ZM786.445 594.026C785.137 594.026 784.483 594.482 784.483 595.394C784.483 595.814 784.633 596.114 784.933 596.294C785.233 596.462 785.917 596.642 786.985 596.834C788.053 597.014 788.809 597.272 789.253 597.608C789.697 597.944 789.919 598.574 789.919 599.498C789.919 600.422 789.619 601.1 789.019 601.532C788.431 601.964 787.567 602.18 786.427 602.18C785.683 602.18 784.807 602.096 783.799 601.928L783.259 601.838L783.331 600.668C784.699 600.872 785.731 600.974 786.427 600.974C787.123 600.974 787.651 600.866 788.011 600.65C788.383 600.422 788.569 600.05 788.569 599.534C788.569 599.006 788.413 598.652 788.101 598.472C787.789 598.28 787.105 598.1 786.049 597.932C784.993 597.764 784.243 597.518 783.799 597.194C783.355 596.87 783.133 596.27 783.133 595.394C783.133 594.518 783.439 593.87 784.051 593.45C784.675 593.03 785.449 592.82 786.373 592.82C787.105 592.82 788.023 592.904 789.127 593.072L789.631 593.162L789.595 594.314C788.263 594.122 787.213 594.026 786.445 594.026ZM794.812 594.026C793.504 594.026 792.85 594.482 792.85 595.394C792.85 595.814 793 596.114 793.3 596.294C793.6 596.462 794.284 596.642 795.352 596.834C796.42 597.014 797.176 597.272 797.62 597.608C798.064 597.944 798.286 598.574 798.286 599.498C798.286 600.422 797.986 601.1 797.386 601.532C796.798 601.964 795.934 602.18 794.794 602.18C794.05 602.18 793.174 602.096 792.166 601.928L791.626 601.838L791.698 600.668C793.066 600.872 794.098 600.974 794.794 600.974C795.49 600.974 796.018 600.866 796.378 600.65C796.75 600.422 796.936 600.05 796.936 599.534C796.936 599.006 796.78 598.652 796.468 598.472C796.156 598.28 795.472 598.1 794.416 597.932C793.36 597.764 792.61 597.518 792.166 597.194C791.722 596.87 791.5 596.27 791.5 595.394C791.5 594.518 791.806 593.87 792.418 593.45C793.042 593.03 793.816 592.82 794.74 592.82C795.472 592.82 796.39 592.904 797.494 593.072L797.998 593.162L797.962 594.314C796.63 594.122 795.58 594.026 794.812 594.026Z" fill="#17324D"/>
<rect width="1440" height="62" transform="translate(0 778)" fill="#003366"/>
<mask id="path-19-inside-1_2087_7484" fill="white">
<path d="M0 778H1440V840H0V778Z"/>
</mask>
<path d="M0 778H1440V840H0V778Z" fill="#004D99"/>
<path d="M0 778V779H1440V778V777H0V778Z" fill="white" fill-opacity="0.5" mask="url(#path-19-inside-1_2087_7484)"/>
<path d="M30.482 814H25.106V804.41H26.66V812.614H30.482V814ZM36.5525 812.74L36.9445 812.698L36.9725 813.832C35.9085 814.047 34.9659 814.154 34.1445 814.154C33.1085 814.154 32.3619 813.869 31.9045 813.3C31.4565 812.731 31.2325 811.821 31.2325 810.57C31.2325 808.087 32.2452 806.846 34.2705 806.846C36.2305 806.846 37.2105 807.915 37.2105 810.052L37.1125 811.144H32.7725C32.7819 811.723 32.9079 812.147 33.1505 812.418C33.3932 812.689 33.8459 812.824 34.5085 812.824C35.1712 812.824 35.8525 812.796 36.5525 812.74ZM35.7125 809.968C35.7125 809.277 35.6005 808.797 35.3765 808.526C35.1619 808.246 34.7932 808.106 34.2705 808.106C33.7479 808.106 33.3652 808.251 33.1225 808.54C32.8892 808.829 32.7679 809.305 32.7585 809.968H35.7125ZM44.7959 814.952C44.7959 816.483 43.6899 817.248 41.4779 817.248C40.4139 817.248 39.6252 817.103 39.1119 816.814C38.5986 816.525 38.3419 815.997 38.3419 815.232C38.3419 814.887 38.4259 814.588 38.5939 814.336C38.7619 814.093 39.0326 813.827 39.4059 813.538C39.0979 813.333 38.9439 812.992 38.9439 812.516C38.9439 812.329 39.0699 812.026 39.3219 811.606L39.4479 811.396C38.7759 810.995 38.4399 810.295 38.4399 809.296C38.4399 808.456 38.6919 807.84 39.1959 807.448C39.6999 807.056 40.3812 806.86 41.2399 806.86C41.6506 806.86 42.0566 806.907 42.4579 807L42.6679 807.042L44.8379 806.986V808.218L43.6759 808.148C43.9279 808.475 44.0539 808.857 44.0539 809.296C44.0539 810.211 43.8206 810.845 43.3539 811.2C42.8966 811.545 42.1779 811.718 41.1979 811.718C40.9552 811.718 40.7499 811.699 40.5819 811.662C40.4512 811.979 40.3859 812.227 40.3859 812.404C40.3859 812.572 40.4699 812.689 40.6379 812.754C40.8152 812.819 41.2352 812.857 41.8979 812.866C43.0086 812.875 43.7692 813.025 44.1799 813.314C44.5906 813.603 44.7959 814.149 44.7959 814.952ZM39.8399 815.092C39.8399 815.419 39.9706 815.652 40.2319 815.792C40.4932 815.932 40.9412 816.002 41.5759 816.002C42.7052 816.002 43.2699 815.68 43.2699 815.036C43.2699 814.672 43.1672 814.439 42.9619 814.336C42.7659 814.243 42.3692 814.191 41.7719 814.182L40.3999 814.098C40.1946 814.266 40.0499 814.42 39.9659 814.56C39.8819 814.709 39.8399 814.887 39.8399 815.092ZM39.9519 809.296C39.9519 809.725 40.0546 810.043 40.2599 810.248C40.4652 810.444 40.7966 810.542 41.2539 810.542C41.7112 810.542 42.0379 810.444 42.2339 810.248C42.4392 810.043 42.5419 809.725 42.5419 809.296C42.5419 808.867 42.4392 808.554 42.2339 808.358C42.0286 808.153 41.6972 808.05 41.2399 808.05C40.3812 808.05 39.9519 808.465 39.9519 809.296ZM51.2134 809.156V812.348C51.2227 812.553 51.274 812.707 51.3674 812.81C51.47 812.903 51.624 812.964 51.8294 812.992L51.7874 814.154C50.9847 814.154 50.364 813.981 49.9254 813.636C49.1787 813.981 48.4274 814.154 47.6714 814.154C46.2807 814.154 45.5854 813.412 45.5854 811.928C45.5854 811.219 45.772 810.705 46.1454 810.388C46.528 810.071 47.1114 809.879 47.8954 809.814L49.7014 809.66V809.156C49.7014 808.783 49.6174 808.521 49.4494 808.372C49.2907 808.223 49.0527 808.148 48.7354 808.148C48.138 808.148 47.3914 808.185 46.4954 808.26L46.0474 808.288L45.9914 807.21C47.0087 806.967 47.942 806.846 48.7914 806.846C49.65 806.846 50.266 807.033 50.6394 807.406C51.022 807.77 51.2134 808.353 51.2134 809.156ZM48.0774 810.892C47.4334 810.948 47.1114 811.298 47.1114 811.942C47.1114 812.586 47.396 812.908 47.9654 812.908C48.432 812.908 48.9267 812.833 49.4494 812.684L49.7014 812.6V810.738L48.0774 810.892ZM53.2131 814V804.088H54.7391V814H53.2131ZM59.9283 814V804.41H62.6443L65.5563 812.628H65.7663V804.41H67.3203V814H64.6603L61.6783 805.768H61.4823V814H59.9283ZM69.6399 807.756C70.1252 807.149 70.9279 806.846 72.0479 806.846C73.1679 806.846 73.9659 807.149 74.4419 807.756C74.9272 808.363 75.1699 809.273 75.1699 810.486C75.1699 811.699 74.9366 812.614 74.4699 813.23C74.0032 813.846 73.1959 814.154 72.0479 814.154C70.8999 814.154 70.0926 813.846 69.6259 813.23C69.1592 812.614 68.9259 811.699 68.9259 810.486C68.9259 809.273 69.1639 808.363 69.6399 807.756ZM70.7879 812.306C71.0026 812.679 71.4226 812.866 72.0479 812.866C72.6732 812.866 73.0932 812.679 73.3079 812.306C73.5226 811.933 73.6299 811.321 73.6299 810.472C73.6299 809.623 73.5132 809.021 73.2799 808.666C73.0559 808.311 72.6452 808.134 72.0479 808.134C71.4506 808.134 71.0352 808.311 70.8019 808.666C70.5779 809.021 70.4659 809.623 70.4659 810.472C70.4659 811.321 70.5732 811.933 70.7879 812.306ZM80.4517 808.302H78.5197V811.382C78.5197 811.951 78.5617 812.329 78.6457 812.516C78.7297 812.703 78.9444 812.796 79.2897 812.796L80.4377 812.754L80.5077 813.972C79.8824 814.093 79.4064 814.154 79.0797 814.154C78.2864 814.154 77.7404 813.972 77.4417 813.608C77.1524 813.244 77.0077 812.558 77.0077 811.55V808.302H76.1117V807H77.0077V804.97H78.5197V807H80.4517V808.302ZM86.6873 812.74L87.0793 812.698L87.1073 813.832C86.0433 814.047 85.1006 814.154 84.2793 814.154C83.2433 814.154 82.4966 813.869 82.0393 813.3C81.5913 812.731 81.3673 811.821 81.3673 810.57C81.3673 808.087 82.38 806.846 84.4053 806.846C86.3653 806.846 87.3453 807.915 87.3453 810.052L87.2473 811.144H82.9073C82.9166 811.723 83.0426 812.147 83.2853 812.418C83.528 812.689 83.9806 812.824 84.6433 812.824C85.306 812.824 85.9873 812.796 86.6873 812.74ZM85.8473 809.968C85.8473 809.277 85.7353 808.797 85.5113 808.526C85.2966 808.246 84.928 808.106 84.4053 808.106C83.8826 808.106 83.5 808.251 83.2573 808.54C83.024 808.829 82.9026 809.305 82.8933 809.968H85.8473ZM93.6707 808.442C92.5693 808.293 91.7713 808.218 91.2767 808.218C90.782 808.218 90.4367 808.279 90.2407 808.4C90.054 808.512 89.9607 808.694 89.9607 808.946C89.9607 809.198 90.0633 809.375 90.2687 809.478C90.4833 809.581 90.978 809.702 91.7527 809.842C92.5367 809.973 93.092 810.183 93.4187 810.472C93.7453 810.761 93.9087 811.275 93.9087 812.012C93.9087 812.749 93.6707 813.291 93.1947 813.636C92.728 813.981 92.042 814.154 91.1367 814.154C90.5673 814.154 89.8487 814.075 88.9807 813.916L88.5467 813.846L88.6027 812.572C89.7227 812.721 90.53 812.796 91.0247 812.796C91.5193 812.796 91.8693 812.735 92.0747 812.614C92.2893 812.493 92.3967 812.292 92.3967 812.012C92.3967 811.732 92.294 811.541 92.0887 811.438C91.8927 811.326 91.412 811.209 90.6467 811.088C89.8907 810.957 89.3353 810.757 88.9807 810.486C88.626 810.215 88.4487 809.721 88.4487 809.002C88.4487 808.283 88.6913 807.747 89.1767 807.392C89.6713 807.037 90.3013 806.86 91.0667 806.86C91.664 806.86 92.3967 806.935 93.2647 807.084L93.6987 807.168L93.6707 808.442Z" fill="white"/>
<path d="M24 815.54H37.9394V815.96H24V815.54ZM45.1466 815.54H94.4547V815.96H45.1466V815.54Z" fill="white"/>
<path d="M123.62 811.018H121.66V814H120.106V804.41H123.62C125.795 804.41 126.882 805.483 126.882 807.63C126.882 808.731 126.607 809.571 126.056 810.15C125.515 810.729 124.703 811.018 123.62 811.018ZM121.66 809.674H123.606C124.726 809.674 125.286 808.993 125.286 807.63C125.286 806.977 125.151 806.501 124.88 806.202C124.609 805.903 124.185 805.754 123.606 805.754H121.66V809.674ZM128.195 814V807H129.707V807.84C130.501 807.327 131.294 806.995 132.087 806.846V808.372C131.285 808.531 130.599 808.736 130.029 808.988L129.721 809.114V814H128.195ZM133.254 814V807H134.78V814H133.254ZM133.254 805.81V804.2H134.78V805.81H133.254ZM135.973 807H137.569L138.913 812.698H139.361L140.761 807H142.315L140.495 814H137.779L135.973 807ZM148.592 809.156V812.348C148.602 812.553 148.653 812.707 148.746 812.81C148.849 812.903 149.003 812.964 149.208 812.992L149.166 814.154C148.364 814.154 147.743 813.981 147.304 813.636C146.558 813.981 145.806 814.154 145.05 814.154C143.66 814.154 142.964 813.412 142.964 811.928C142.964 811.219 143.151 810.705 143.524 810.388C143.907 810.071 144.49 809.879 145.274 809.814L147.08 809.66V809.156C147.08 808.783 146.996 808.521 146.828 808.372C146.67 808.223 146.432 808.148 146.114 808.148C145.517 808.148 144.77 808.185 143.874 808.26L143.426 808.288L143.37 807.21C144.388 806.967 145.321 806.846 146.17 806.846C147.029 806.846 147.645 807.033 148.018 807.406C148.401 807.77 148.592 808.353 148.592 809.156ZM145.456 810.892C144.812 810.948 144.49 811.298 144.49 811.942C144.49 812.586 144.775 812.908 145.344 812.908C145.811 812.908 146.306 812.833 146.828 812.684L147.08 812.6V810.738L145.456 810.892ZM153.126 806.846C153.621 806.846 154.204 806.911 154.876 807.042L155.226 807.112L155.17 808.316C154.433 808.241 153.887 808.204 153.532 808.204C152.823 808.204 152.347 808.363 152.104 808.68C151.861 808.997 151.74 809.595 151.74 810.472C151.74 811.349 151.857 811.956 152.09 812.292C152.323 812.628 152.809 812.796 153.546 812.796L155.184 812.684L155.226 813.902C154.283 814.07 153.574 814.154 153.098 814.154C152.034 814.154 151.283 813.869 150.844 813.3C150.415 812.721 150.2 811.779 150.2 810.472C150.2 809.165 150.429 808.237 150.886 807.686C151.343 807.126 152.09 806.846 153.126 806.846ZM156.057 807H157.555L159.039 812.698H159.417L160.901 807H162.413L159.753 817.01H158.255L159.095 814H157.891L156.057 807ZM170.364 811.018H168.404V814H166.85V804.41H170.364C172.539 804.41 173.626 805.483 173.626 807.63C173.626 808.731 173.351 809.571 172.8 810.15C172.259 810.729 171.447 811.018 170.364 811.018ZM168.404 809.674H170.35C171.47 809.674 172.03 808.993 172.03 807.63C172.03 806.977 171.895 806.501 171.624 806.202C171.353 805.903 170.929 805.754 170.35 805.754H168.404V809.674ZM175.318 807.756C175.803 807.149 176.606 806.846 177.726 806.846C178.846 806.846 179.644 807.149 180.12 807.756C180.605 808.363 180.848 809.273 180.848 810.486C180.848 811.699 180.614 812.614 180.148 813.23C179.681 813.846 178.874 814.154 177.726 814.154C176.578 814.154 175.77 813.846 175.304 813.23C174.837 812.614 174.604 811.699 174.604 810.486C174.604 809.273 174.842 808.363 175.318 807.756ZM176.466 812.306C176.68 812.679 177.1 812.866 177.726 812.866C178.351 812.866 178.771 812.679 178.986 812.306C179.2 811.933 179.308 811.321 179.308 810.472C179.308 809.623 179.191 809.021 178.958 808.666C178.734 808.311 178.323 808.134 177.726 808.134C177.128 808.134 176.713 808.311 176.48 808.666C176.256 809.021 176.144 809.623 176.144 810.472C176.144 811.321 176.251 811.933 176.466 812.306ZM182.447 814V804.088H183.973V814H182.447ZM185.904 814V807H187.43V814H185.904ZM185.904 805.81V804.2H187.43V805.81H185.904ZM191.899 806.846C192.394 806.846 192.977 806.911 193.649 807.042L193.999 807.112L193.943 808.316C193.206 808.241 192.66 808.204 192.305 808.204C191.596 808.204 191.12 808.363 190.877 808.68C190.635 808.997 190.513 809.595 190.513 810.472C190.513 811.349 190.63 811.956 190.863 812.292C191.097 812.628 191.582 812.796 192.319 812.796L193.957 812.684L193.999 813.902C193.057 814.07 192.347 814.154 191.871 814.154C190.807 814.154 190.056 813.869 189.617 813.3C189.188 812.721 188.973 811.779 188.973 810.472C188.973 809.165 189.202 808.237 189.659 807.686C190.117 807.126 190.863 806.846 191.899 806.846ZM194.831 807H196.329L197.813 812.698H198.191L199.675 807H201.187L198.527 817.01H197.029L197.869 814H196.665L194.831 807Z" fill="white"/>
<path d="M119 815.54H158.127V815.96H119V815.54ZM160.561 815.54H196.9V815.96H160.561V815.54ZM199.334 815.54H201.439V815.96H199.334V815.54Z" fill="white"/>
<path d="M226.28 814L228.646 804.41H231.74L234.12 814H232.552L232.034 811.942H228.352L227.834 814H226.28ZM229.85 805.712L228.66 810.57H231.726L230.55 805.712H229.85ZM237.855 806.846C238.349 806.846 238.933 806.911 239.605 807.042L239.955 807.112L239.899 808.316C239.161 808.241 238.615 808.204 238.261 808.204C237.551 808.204 237.075 808.363 236.833 808.68C236.59 808.997 236.469 809.595 236.469 810.472C236.469 811.349 236.585 811.956 236.819 812.292C237.052 812.628 237.537 812.796 238.275 812.796L239.913 812.684L239.955 813.902C239.012 814.07 238.303 814.154 237.827 814.154C236.763 814.154 236.011 813.869 235.573 813.3C235.143 812.721 234.929 811.779 234.929 810.472C234.929 809.165 235.157 808.237 235.615 807.686C236.072 807.126 236.819 806.846 237.855 806.846ZM243.98 806.846C244.474 806.846 245.058 806.911 245.73 807.042L246.08 807.112L246.024 808.316C245.286 808.241 244.74 808.204 244.386 808.204C243.676 808.204 243.2 808.363 242.958 808.68C242.715 808.997 242.594 809.595 242.594 810.472C242.594 811.349 242.71 811.956 242.944 812.292C243.177 812.628 243.662 812.796 244.4 812.796L246.038 812.684L246.08 813.902C245.137 814.07 244.428 814.154 243.952 814.154C242.888 814.154 242.136 813.869 241.698 813.3C241.268 812.721 241.054 811.779 241.054 810.472C241.054 809.165 241.282 808.237 241.74 807.686C242.197 807.126 242.944 806.846 243.98 806.846ZM252.471 812.74L252.863 812.698L252.891 813.832C251.827 814.047 250.884 814.154 250.062 814.154C249.027 814.154 248.28 813.869 247.823 813.3C247.375 812.731 247.151 811.821 247.151 810.57C247.151 808.087 248.163 806.846 250.189 806.846C252.149 806.846 253.129 807.915 253.129 810.052L253.031 811.144H248.691C248.7 811.723 248.826 812.147 249.069 812.418C249.311 812.689 249.764 812.824 250.427 812.824C251.089 812.824 251.771 812.796 252.471 812.74ZM251.631 809.968C251.631 809.277 251.519 808.797 251.295 808.526C251.08 808.246 250.711 808.106 250.189 808.106C249.666 808.106 249.283 808.251 249.041 808.54C248.807 808.829 248.686 809.305 248.677 809.968H251.631ZM259.454 808.442C258.353 808.293 257.555 808.218 257.06 808.218C256.565 808.218 256.22 808.279 256.024 808.4C255.837 808.512 255.744 808.694 255.744 808.946C255.744 809.198 255.847 809.375 256.052 809.478C256.267 809.581 256.761 809.702 257.536 809.842C258.32 809.973 258.875 810.183 259.202 810.472C259.529 810.761 259.692 811.275 259.692 812.012C259.692 812.749 259.454 813.291 258.978 813.636C258.511 813.981 257.825 814.154 256.92 814.154C256.351 814.154 255.632 814.075 254.764 813.916L254.33 813.846L254.386 812.572C255.506 812.721 256.313 812.796 256.808 812.796C257.303 812.796 257.653 812.735 257.858 812.614C258.073 812.493 258.18 812.292 258.18 812.012C258.18 811.732 258.077 811.541 257.872 811.438C257.676 811.326 257.195 811.209 256.43 811.088C255.674 810.957 255.119 810.757 254.764 810.486C254.409 810.215 254.232 809.721 254.232 809.002C254.232 808.283 254.475 807.747 254.96 807.392C255.455 807.037 256.085 806.86 256.85 806.86C257.447 806.86 258.18 806.935 259.048 807.084L259.482 807.168L259.454 808.442ZM266.016 808.442C264.915 808.293 264.117 808.218 263.622 808.218C263.128 808.218 262.782 808.279 262.586 808.4C262.4 808.512 262.306 808.694 262.306 808.946C262.306 809.198 262.409 809.375 262.614 809.478C262.829 809.581 263.324 809.702 264.098 809.842C264.882 809.973 265.438 810.183 265.764 810.472C266.091 810.761 266.254 811.275 266.254 812.012C266.254 812.749 266.016 813.291 265.54 813.636C265.074 813.981 264.388 814.154 263.482 814.154C262.913 814.154 262.194 814.075 261.326 813.916L260.892 813.846L260.948 812.572C262.068 812.721 262.876 812.796 263.37 812.796C263.865 812.796 264.215 812.735 264.42 812.614C264.635 812.493 264.742 812.292 264.742 812.012C264.742 811.732 264.64 811.541 264.434 811.438C264.238 811.326 263.758 811.209 262.992 811.088C262.236 810.957 261.681 810.757 261.326 810.486C260.972 810.215 260.794 809.721 260.794 809.002C260.794 808.283 261.037 807.747 261.522 807.392C262.017 807.037 262.647 806.86 263.412 806.86C264.01 806.86 264.742 806.935 265.61 807.084L266.044 807.168L266.016 808.442ZM267.721 814V807H269.247V814H267.721ZM267.721 805.81V804.2H269.247V805.81H267.721ZM274.36 806.846C275.321 806.846 276.012 807.117 276.432 807.658C276.861 808.19 277.076 809.137 277.076 810.5C277.076 811.863 276.824 812.815 276.32 813.356C275.816 813.888 274.929 814.154 273.66 814.154C273.221 814.154 272.526 814.112 271.574 814.028L271.098 813.986V804.088H272.61V807.266C273.254 806.986 273.837 806.846 274.36 806.846ZM273.66 812.796C274.406 812.796 274.901 812.623 275.144 812.278C275.396 811.923 275.522 811.326 275.522 810.486C275.522 809.646 275.414 809.058 275.2 808.722C274.994 808.377 274.654 808.204 274.178 808.204C273.73 808.204 273.282 808.274 272.834 808.414L272.61 808.484V812.74C273.123 812.777 273.473 812.796 273.66 812.796ZM278.604 814V807H280.13V814H278.604ZM278.604 805.81V804.2H280.13V805.81H278.604ZM282.065 814V804.088H283.591V814H282.065ZM285.522 814V807H287.048V814H285.522ZM285.522 805.81V804.2H287.048V805.81H285.522ZM292.665 808.302H290.733V811.382C290.733 811.951 290.775 812.329 290.859 812.516C290.943 812.703 291.157 812.796 291.503 812.796L292.651 812.754L292.721 813.972C292.095 814.093 291.619 814.154 291.293 814.154C290.499 814.154 289.953 813.972 289.655 813.608C289.365 813.244 289.221 812.558 289.221 811.55V808.302H288.325V807H289.221V804.97H290.733V807H292.665V808.302ZM293.272 807H294.77L296.254 812.698H296.632L298.116 807H299.628L296.968 817.01H295.47L296.31 814H295.106L293.272 807ZM306.879 805.614C305.694 805.614 305.101 806.029 305.101 806.86C305.101 807.289 305.241 807.597 305.521 807.784C305.801 807.961 306.417 808.185 307.369 808.456C308.33 808.717 309.007 809.035 309.399 809.408C309.791 809.772 309.987 810.351 309.987 811.144C309.987 812.152 309.698 812.908 309.119 813.412C308.55 813.907 307.77 814.154 306.781 814.154C305.988 814.154 305.11 814.061 304.149 813.874L303.645 813.776L303.799 812.53C305.059 812.698 306.02 812.782 306.683 812.782C307.84 812.782 308.419 812.269 308.419 811.242C308.419 810.841 308.288 810.547 308.027 810.36C307.766 810.164 307.178 809.954 306.263 809.73C305.348 809.497 304.667 809.179 304.219 808.778C303.771 808.377 303.547 807.742 303.547 806.874C303.547 806.006 303.827 805.353 304.387 804.914C304.956 804.466 305.74 804.242 306.739 804.242C307.458 804.242 308.307 804.326 309.287 804.494L309.777 804.578L309.651 805.838C308.344 805.689 307.42 805.614 306.879 805.614ZM315.155 808.302H313.223V811.382C313.223 811.951 313.265 812.329 313.349 812.516C313.433 812.703 313.648 812.796 313.993 812.796L315.141 812.754L315.211 813.972C314.586 814.093 314.11 814.154 313.783 814.154C312.99 814.154 312.444 813.972 312.145 813.608C311.856 813.244 311.711 812.558 311.711 811.55V808.302H310.815V807H311.711V804.97H313.223V807H315.155V808.302ZM321.586 809.156V812.348C321.596 812.553 321.647 812.707 321.74 812.81C321.843 812.903 321.997 812.964 322.202 812.992L322.16 814.154C321.358 814.154 320.737 813.981 320.298 813.636C319.552 813.981 318.8 814.154 318.044 814.154C316.654 814.154 315.958 813.412 315.958 811.928C315.958 811.219 316.145 810.705 316.518 810.388C316.901 810.071 317.484 809.879 318.268 809.814L320.074 809.66V809.156C320.074 808.783 319.99 808.521 319.822 808.372C319.664 808.223 319.426 808.148 319.108 808.148C318.511 808.148 317.764 808.185 316.868 808.26L316.42 808.288L316.364 807.21C317.382 806.967 318.315 806.846 319.164 806.846C320.023 806.846 320.639 807.033 321.012 807.406C321.395 807.77 321.586 808.353 321.586 809.156ZM318.45 810.892C317.806 810.948 317.484 811.298 317.484 811.942C317.484 812.586 317.769 812.908 318.338 812.908C318.805 812.908 319.3 812.833 319.822 812.684L320.074 812.6V810.738L318.45 810.892ZM327.268 808.302H325.336V811.382C325.336 811.951 325.378 812.329 325.462 812.516C325.546 812.703 325.761 812.796 326.106 812.796L327.254 812.754L327.324 813.972C326.699 814.093 326.223 814.154 325.896 814.154C325.103 814.154 324.557 813.972 324.258 813.608C323.969 813.244 323.824 812.558 323.824 811.55V808.302H322.928V807H323.824V804.97H325.336V807H327.268V808.302ZM333.504 812.74L333.896 812.698L333.924 813.832C332.86 814.047 331.917 814.154 331.096 814.154C330.06 814.154 329.313 813.869 328.856 813.3C328.408 812.731 328.184 811.821 328.184 810.57C328.184 808.087 329.196 806.846 331.222 806.846C333.182 806.846 334.162 807.915 334.162 810.052L334.064 811.144H329.724C329.733 811.723 329.859 812.147 330.102 812.418C330.344 812.689 330.797 812.824 331.46 812.824C332.122 812.824 332.804 812.796 333.504 812.74ZM332.664 809.968C332.664 809.277 332.552 808.797 332.328 808.526C332.113 808.246 331.744 808.106 331.222 808.106C330.699 808.106 330.316 808.251 330.074 808.54C329.84 808.829 329.719 809.305 329.71 809.968H332.664ZM337.155 814H335.629V807H337.141V807.434C337.804 807.042 338.41 806.846 338.961 806.846C339.773 806.846 340.366 807.075 340.739 807.532C341.588 807.075 342.433 806.846 343.273 806.846C344.113 806.846 344.706 807.107 345.051 807.63C345.396 808.143 345.569 809.016 345.569 810.248V814H344.057V810.29C344.057 809.534 343.978 808.997 343.819 808.68C343.67 808.363 343.352 808.204 342.867 808.204C342.447 808.204 341.994 808.297 341.509 808.484L341.271 808.582C341.346 808.769 341.383 809.366 341.383 810.374V814H339.871V810.402C339.871 809.571 339.796 808.997 339.647 808.68C339.498 808.363 339.171 808.204 338.667 808.204C338.2 808.204 337.766 808.297 337.365 808.484L337.155 808.568V814ZM352.344 812.74L352.736 812.698L352.764 813.832C351.7 814.047 350.757 814.154 349.936 814.154C348.9 814.154 348.153 813.869 347.696 813.3C347.248 812.731 347.024 811.821 347.024 810.57C347.024 808.087 348.036 806.846 350.062 806.846C352.022 806.846 353.002 807.915 353.002 810.052L352.904 811.144H348.564C348.573 811.723 348.699 812.147 348.942 812.418C349.184 812.689 349.637 812.824 350.3 812.824C350.962 812.824 351.644 812.796 352.344 812.74ZM351.504 809.968C351.504 809.277 351.392 808.797 351.168 808.526C350.953 808.246 350.584 808.106 350.062 808.106C349.539 808.106 349.156 808.251 348.914 808.54C348.68 808.829 348.559 809.305 348.55 809.968H351.504ZM355.995 814H354.469V807H355.981V807.434C356.662 807.042 357.306 806.846 357.913 806.846C358.846 806.846 359.481 807.112 359.817 807.644C360.162 808.167 360.335 809.035 360.335 810.248V814H358.823V810.29C358.823 809.534 358.739 808.997 358.571 808.68C358.412 808.363 358.081 808.204 357.577 808.204C357.101 808.204 356.644 808.297 356.205 808.484L355.995 808.568V814ZM365.878 808.302H363.946V811.382C363.946 811.951 363.988 812.329 364.072 812.516C364.156 812.703 364.37 812.796 364.716 812.796L365.864 812.754L365.934 813.972C365.308 814.093 364.832 814.154 364.506 814.154C363.712 814.154 363.166 813.972 362.868 813.608C362.578 813.244 362.434 812.558 362.434 811.55V808.302H361.538V807H362.434V804.97H363.946V807H365.878V808.302Z" fill="white"/>
<path d="M226 815.54H295.346V815.96H226V815.54ZM297.779 815.54H366.199V815.96H297.779V815.54Z" fill="white"/>
</g>
<defs>
<clipPath id="clip0_2087_7484">
<rect width="1440" height="840" fill="white"/>
</clipPath>
<clipPath id="clip1_2087_7484">
<rect width="47" height="24" fill="white" transform="translate(1321 14)"/>
</clipPath>
</defs>
</svg>
