<svg width="1440" height="840" viewBox="0 0 1440 840" fill="none" xmlns="http://www.w3.org/2000/svg">
<g clip-path="url(#clip0_2083_8952)">
<rect width="1440" height="840" fill="white"/>
<rect width="1440" height="52" fill="#004D99"/>
<path d="M76.104 22.65L76.23 24.9C76.23 25.656 76.104 26.202 75.852 26.538C75.6 26.874 75.072 27.15 74.268 27.366C75.06 27.57 75.582 27.858 75.834 28.23C76.098 28.59 76.23 29.154 76.23 29.922L76.104 32.028C76.104 32.544 76.218 32.94 76.446 33.216C76.674 33.504 77.1 33.666 77.724 33.702V35.358C76.44 35.31 75.528 35.046 74.988 34.566C74.46 34.098 74.196 33.324 74.196 32.244L74.322 30.066C74.322 29.142 73.662 28.5 72.342 28.14V26.61C73.026 26.454 73.524 26.232 73.836 25.944C74.16 25.644 74.322 25.26 74.322 24.792L74.196 22.506C74.196 21.378 74.46 20.586 74.988 20.13C75.528 19.662 76.446 19.404 77.742 19.356L77.76 21.012C77.124 21.06 76.686 21.216 76.446 21.48C76.218 21.744 76.104 22.134 76.104 22.65ZM79.8556 33V20.67H83.3476L87.0916 31.236H87.3616V20.67H89.3596V33H85.9396L82.1056 22.416H81.8536V33H79.8556ZM92.342 24.972C92.966 24.192 93.998 23.802 95.438 23.802C96.878 23.802 97.904 24.192 98.516 24.972C99.14 25.752 99.452 26.922 99.452 28.482C99.452 30.042 99.152 31.218 98.552 32.01C97.952 32.802 96.914 33.198 95.438 33.198C93.962 33.198 92.924 32.802 92.324 32.01C91.724 31.218 91.424 30.042 91.424 28.482C91.424 26.922 91.73 25.752 92.342 24.972ZM93.818 30.822C94.094 31.302 94.634 31.542 95.438 31.542C96.242 31.542 96.782 31.302 97.058 30.822C97.334 30.342 97.472 29.556 97.472 28.464C97.472 27.372 97.322 26.598 97.022 26.142C96.734 25.686 96.206 25.458 95.438 25.458C94.67 25.458 94.136 25.686 93.836 26.142C93.548 26.598 93.404 27.372 93.404 28.464C93.404 29.556 93.542 30.342 93.818 30.822ZM103.363 33H101.401V24H103.345V24.558C104.197 24.054 104.977 23.802 105.685 23.802C106.729 23.802 107.491 24.096 107.971 24.684C109.063 24.096 110.149 23.802 111.229 23.802C112.309 23.802 113.071 24.138 113.515 24.81C113.959 25.47 114.181 26.592 114.181 28.176V33H112.237V28.23C112.237 27.258 112.135 26.568 111.931 26.16C111.739 25.752 111.331 25.548 110.707 25.548C110.167 25.548 109.585 25.668 108.961 25.908L108.655 26.034C108.751 26.274 108.799 27.042 108.799 28.338V33H106.855V28.374C106.855 27.306 106.759 26.568 106.567 26.16C106.375 25.752 105.955 25.548 105.307 25.548C104.707 25.548 104.149 25.668 103.633 25.908L103.363 26.016V33ZM122.891 31.38L123.395 31.326L123.431 32.784C122.063 33.06 120.851 33.198 119.795 33.198C118.463 33.198 117.503 32.832 116.915 32.1C116.339 31.368 116.051 30.198 116.051 28.59C116.051 25.398 117.353 23.802 119.957 23.802C122.477 23.802 123.737 25.176 123.737 27.924L123.611 29.328H118.031C118.043 30.072 118.205 30.618 118.517 30.966C118.829 31.314 119.411 31.488 120.263 31.488C121.115 31.488 121.991 31.452 122.891 31.38ZM121.811 27.816C121.811 26.928 121.667 26.31 121.379 25.962C121.103 25.602 120.629 25.422 119.957 25.422C119.285 25.422 118.793 25.608 118.481 25.98C118.181 26.352 118.025 26.964 118.013 27.816H121.811ZM135.987 31.38L136.491 31.326L136.527 32.784C135.159 33.06 133.947 33.198 132.891 33.198C131.559 33.198 130.599 32.832 130.011 32.1C129.435 31.368 129.147 30.198 129.147 28.59C129.147 25.398 130.449 23.802 133.053 23.802C135.573 23.802 136.833 25.176 136.833 27.924L136.707 29.328H131.127C131.139 30.072 131.301 30.618 131.613 30.966C131.925 31.314 132.507 31.488 133.359 31.488C134.211 31.488 135.087 31.452 135.987 31.38ZM134.907 27.816C134.907 26.928 134.763 26.31 134.475 25.962C134.199 25.602 133.725 25.422 133.053 25.422C132.381 25.422 131.889 25.608 131.577 25.98C131.277 26.352 131.121 26.964 131.109 27.816H134.907ZM140.681 33H138.719V24H140.663V24.558C141.539 24.054 142.367 23.802 143.147 23.802C144.347 23.802 145.163 24.144 145.595 24.828C146.039 25.5 146.261 26.616 146.261 28.176V33H144.317V28.23C144.317 27.258 144.209 26.568 143.993 26.16C143.789 25.752 143.363 25.548 142.715 25.548C142.103 25.548 141.515 25.668 140.951 25.908L140.681 26.016V33ZM153.387 25.674H150.903V29.634C150.903 30.366 150.957 30.852 151.065 31.092C151.173 31.332 151.449 31.452 151.893 31.452L153.369 31.398L153.459 32.964C152.655 33.12 152.043 33.198 151.623 33.198C150.603 33.198 149.901 32.964 149.517 32.496C149.145 32.028 148.959 31.146 148.959 29.85V25.674H147.807V24H148.959V21.39H150.903V24H153.387V25.674ZM161.405 31.38L161.909 31.326L161.945 32.784C160.577 33.06 159.365 33.198 158.309 33.198C156.977 33.198 156.017 32.832 155.429 32.1C154.853 31.368 154.565 30.198 154.565 28.59C154.565 25.398 155.867 23.802 158.471 23.802C160.991 23.802 162.251 25.176 162.251 27.924L162.125 29.328H156.545C156.557 30.072 156.719 30.618 157.031 30.966C157.343 31.314 157.925 31.488 158.777 31.488C159.629 31.488 160.505 31.452 161.405 31.38ZM160.325 27.816C160.325 26.928 160.181 26.31 159.893 25.962C159.617 25.602 159.143 25.422 158.471 25.422C157.799 25.422 157.307 25.608 156.995 25.98C156.695 26.352 156.539 26.964 156.527 27.816H160.325ZM164.955 32.028L164.829 29.922C164.829 29.154 164.955 28.59 165.207 28.23C165.471 27.858 165.999 27.57 166.791 27.366C165.987 27.15 165.459 26.874 165.207 26.538C164.955 26.202 164.829 25.656 164.829 24.9L164.955 22.65C164.955 22.134 164.835 21.744 164.595 21.48C164.367 21.216 163.935 21.06 163.299 21.012L163.317 19.356C164.613 19.404 165.525 19.662 166.053 20.13C166.593 20.586 166.863 21.378 166.863 22.506L166.737 24.792C166.737 25.26 166.893 25.644 167.205 25.944C167.529 26.232 168.033 26.454 168.717 26.61V28.14C167.397 28.5 166.737 29.142 166.737 30.066L166.863 32.244C166.863 33.324 166.593 34.098 166.053 34.566C165.525 35.046 164.619 35.31 163.335 35.358V33.702C163.959 33.666 164.385 33.504 164.613 33.216C164.841 32.94 164.955 32.544 164.955 32.028Z" fill="white"/>
<path d="M72 34.98H75.1163V35.52H72V34.98ZM78.2666 34.98H162.796V35.52H78.2666V34.98ZM165.931 34.98H169.059V35.52H165.931V34.98Z" fill="white"/>
<g clip-path="url(#clip1_2083_8952)">
<path d="M1322.11 31V21.41H1323.66V31H1322.11ZM1324.94 22.796V21.41H1331.94V22.796H1329.24V31H1327.67V22.796H1324.94ZM1331.83 31L1334.2 21.41H1337.29L1339.67 31H1338.11L1337.59 28.942H1333.91L1333.39 31H1331.83ZM1335.4 22.712L1334.21 27.57H1337.28L1336.1 22.712H1335.4Z" fill="white"/>
<path d="M1356 29.2008L1350.4 23.6008L1351.1 22.8008L1356 27.7008L1360.9 22.8008L1361.6 23.6008L1356 29.2008Z" fill="white"/>
</g>
<rect width="1440" height="93" transform="translate(0 52)" fill="#F2F7FC"/>
<rect x="72.5" y="69" width="208.024" height="59" fill="#F2F7FC"/>
<rect x="72.5" y="69" width="208.024" height="59" stroke="#C5C7C9"/>
<line x1="73.1957" y1="69.3953" x2="280.121" y2="127.049" stroke="#C5C7C9"/>
<path d="M102.815 108.5V89.46H106.679V108.5H102.815ZM121.662 108.5H110.826V89.46H114.69V105.084H121.662V108.5ZM128.478 92.876V89.46H142.478V92.876H137.438V108.5H133.574V92.876H128.478ZM148.62 102.144C148.62 104.365 149.749 105.476 152.008 105.476C154.267 105.476 155.396 104.365 155.396 102.144V89.46H159.26V102.06C159.26 104.393 158.653 106.111 157.44 107.212C156.245 108.295 154.435 108.836 152.008 108.836C149.581 108.836 147.761 108.295 146.548 107.212C145.353 106.111 144.756 104.393 144.756 102.06V89.46H148.62V102.144ZM167.192 104.02C167.752 104.991 168.788 105.476 170.3 105.476C171.812 105.476 172.839 104.991 173.38 104.02C173.94 103.031 174.22 101.388 174.22 99.092C174.22 96.7773 173.94 95.0973 173.38 94.052C172.82 93.0067 171.794 92.484 170.3 92.484C168.807 92.484 167.78 93.0067 167.22 94.052C166.66 95.0973 166.38 96.7773 166.38 99.092C166.38 101.388 166.651 103.031 167.192 104.02ZM176.404 106.484C175.228 108.052 173.194 108.836 170.3 108.836C167.407 108.836 165.363 108.052 164.168 106.484C162.992 104.897 162.404 102.424 162.404 99.064C162.404 95.704 162.992 93.212 164.168 91.588C165.363 89.9453 167.407 89.124 170.3 89.124C173.194 89.124 175.228 89.9453 176.404 91.588C177.599 93.212 178.196 95.704 178.196 99.064C178.196 102.424 177.599 104.897 176.404 106.484ZM198.498 108.5H187.662V89.46H191.526V105.084H198.498V108.5ZM204.653 104.02C205.213 104.991 206.249 105.476 207.761 105.476C209.273 105.476 210.3 104.991 210.841 104.02C211.401 103.031 211.681 101.388 211.681 99.092C211.681 96.7773 211.401 95.0973 210.841 94.052C210.281 93.0067 209.255 92.484 207.761 92.484C206.268 92.484 205.241 93.0067 204.681 94.052C204.121 95.0973 203.841 96.7773 203.841 99.092C203.841 101.388 204.112 103.031 204.653 104.02ZM213.865 106.484C212.689 108.052 210.655 108.836 207.761 108.836C204.868 108.836 202.824 108.052 201.629 106.484C200.453 104.897 199.865 102.424 199.865 99.064C199.865 95.704 200.453 93.212 201.629 91.588C202.824 89.9453 204.868 89.124 207.761 89.124C210.655 89.124 212.689 89.9453 213.865 91.588C215.06 93.212 215.657 95.704 215.657 99.064C215.657 102.424 215.06 104.897 213.865 106.484ZM226.895 101.668V98.308H232.439V108.192C229.77 108.621 227.604 108.836 225.943 108.836C222.975 108.836 220.931 108.043 219.811 106.456C218.71 104.869 218.159 102.349 218.159 98.896C218.159 95.4427 218.738 92.9507 219.895 91.42C221.052 89.8893 223.022 89.124 225.803 89.124C227.539 89.124 229.415 89.32 231.431 89.712L232.439 89.908L232.327 92.904C230.087 92.6613 228.248 92.54 226.811 92.54C225.392 92.54 224.394 92.708 223.815 93.044C223.236 93.38 222.807 94.0053 222.527 94.92C222.266 95.816 222.135 97.3653 222.135 99.568C222.135 101.752 222.406 103.283 222.947 104.16C223.488 105.037 224.608 105.476 226.307 105.476L228.631 105.364V101.668H226.895ZM240.036 104.02C240.596 104.991 241.632 105.476 243.144 105.476C244.656 105.476 245.683 104.991 246.224 104.02C246.784 103.031 247.064 101.388 247.064 99.092C247.064 96.7773 246.784 95.0973 246.224 94.052C245.664 93.0067 244.637 92.484 243.144 92.484C241.651 92.484 240.624 93.0067 240.064 94.052C239.504 95.0973 239.224 96.7773 239.224 99.092C239.224 101.388 239.495 103.031 240.036 104.02ZM249.248 106.484C248.072 108.052 246.037 108.836 243.144 108.836C240.251 108.836 238.207 108.052 237.012 106.484C235.836 104.897 235.248 102.424 235.248 99.064C235.248 95.704 235.836 93.212 237.012 91.588C238.207 89.9453 240.251 89.124 243.144 89.124C246.037 89.124 248.072 89.9453 249.248 91.588C250.443 93.212 251.04 95.704 251.04 99.064C251.04 102.424 250.443 104.897 249.248 106.484Z" fill="black"/>
<path d="M305.024 68.5V128.5" stroke="#C5C7C9" stroke-linejoin="round"/>
<path d="M341.052 82.5C341.252 82.4988 341.458 82.5474 341.652 82.6572L354.436 89.8281C355.361 90.3468 355.793 91.184 355.793 92.1445L355.784 112.388C355.784 113.093 355.208 113.601 354.576 113.605C354.376 113.607 354.17 113.557 353.975 113.447L345.951 108.947V96.1553C345.951 95.1948 345.52 94.3539 344.594 93.8389L340.305 91.4512V113.283C340.304 113.988 339.729 114.495 339.097 114.5C338.897 114.501 338.69 114.452 338.495 114.342L330.382 109.779C329.457 109.261 329.024 108.423 329.024 107.463L329.044 86.1738C329.045 85.4685 329.62 84.9621 330.252 84.957C330.452 84.9558 330.659 85.0044 330.854 85.1143L339.879 90.1758L339.844 83.7168C339.84 83.0114 340.42 82.505 341.052 82.5ZM433.652 92.998C438.129 92.998 440.719 95.2516 440.719 99.083V104.031C440.719 104.664 440.996 104.971 441.459 104.972H442.057L442.055 104.975C442.282 104.975 442.452 105.148 442.452 105.375V108.558C442.452 108.785 442.291 108.956 442.063 108.956H439.238C438.007 108.956 436.994 108.51 436.403 107.811C435.067 108.853 433.368 109.381 431.556 109.381C428.142 109.381 426.12 107.511 426.12 104.301C426.12 101.265 427.928 99.7236 431.913 99.4551L435.709 99.1982V98.5732C435.708 97.2772 434.809 96.5586 433.325 96.5586C432.293 96.5587 431.618 96.9087 431.301 97.5078C431.162 97.769 431.027 97.8594 430.789 97.8594H426.55C426.311 97.8593 426.153 97.7211 426.149 97.5186C426.147 97.3916 426.207 97.2003 426.313 96.9492C427.327 94.5569 429.963 92.9981 433.652 92.998ZM467.782 92.998C472.534 92.998 475.388 95.893 475.388 100.449V101.954C475.388 102.181 475.217 102.354 474.99 102.354H464.834C464.966 104.232 465.797 105.761 467.943 105.761C468.952 105.761 469.757 105.422 470.17 104.777C470.327 104.532 470.472 104.46 470.609 104.46H474.677C475 104.46 475.108 104.656 475.109 104.872C475.111 104.995 475.074 105.126 474.991 105.342C474.016 107.882 471.616 109.381 468.044 109.381C462.971 109.381 459.985 106.312 459.984 101.179C459.984 96.0455 462.911 92.9987 467.782 92.998ZM426.003 87.6201V87.6211C426.258 87.6211 426.466 87.8609 426.422 88.1123L422.825 108.62C422.791 108.818 422.62 108.957 422.42 108.957H416.304C416.11 108.957 415.948 108.825 415.906 108.636L412.639 93.6445H412.344L409.076 108.636C409.035 108.825 408.87 108.957 408.677 108.957H402.56C402.361 108.957 402.192 108.817 402.158 108.62L398.561 88.1123C398.517 87.8609 398.722 87.6211 398.978 87.6211H403.016C403.217 87.6211 403.39 87.775 403.423 87.9727L405.847 102.474H406.111L409.209 87.9561C409.25 87.7658 409.426 87.6213 409.62 87.6211H415.562C415.758 87.6211 415.917 87.7657 415.957 87.9561L418.993 102.501H419.256L421.713 87.9736C421.746 87.7749 421.907 87.6201 422.108 87.6201H426.003ZM371.342 87.6191C371.569 87.6191 371.74 87.7859 371.74 88.0127V108.558C371.74 108.785 371.568 108.956 371.341 108.956H366.819C366.592 108.956 366.421 108.785 366.421 108.558L366.412 88.0146C366.412 87.7877 366.592 87.6203 366.819 87.6201H371.342V87.6191ZM390.097 87.6191C390.325 87.6194 390.495 87.8202 390.495 88.0469V91.5732H390.494C390.494 91.8013 390.323 92.0007 390.097 92.001H384.465V108.557C384.465 108.784 384.264 108.955 384.037 108.955H379.571C379.344 108.955 379.146 108.78 379.146 108.553V91.999H373.511C373.284 91.9989 373.114 91.7992 373.114 91.5723V88.0449C373.114 87.8179 373.287 87.6191 373.514 87.6191H390.097ZM448.324 87.6201C448.552 87.6202 448.722 87.7908 448.723 88.0176V103.95C448.723 104.585 449.087 104.972 449.722 104.972H450.686C450.913 104.972 451.111 105.14 451.111 105.367V108.56C451.111 108.786 450.932 108.955 450.705 108.955H448.5C445.174 108.956 443.573 107.483 443.573 104.46V88.0176C443.573 87.7907 443.745 87.6201 443.972 87.6201H448.324ZM456.86 87.6201C457.087 87.6201 457.27 87.7907 457.271 88.0176V103.95C457.271 104.585 457.622 104.972 458.257 104.972H459.223C459.45 104.972 459.661 105.151 459.661 105.378V108.56C459.661 108.786 459.469 108.955 459.242 108.955H457.036C453.71 108.956 452.11 107.483 452.11 104.46V88.0176C452.111 87.7909 452.281 87.6203 452.508 87.6201H456.86ZM482.566 89.1836C482.793 89.1837 482.965 89.3544 482.965 89.5811V93.4229H485.582C485.81 93.4229 486.01 93.5934 486.01 93.8203V97.0059C486.01 97.234 485.836 97.4041 485.609 97.4043H482.965V103.949C482.965 104.584 483.325 104.971 483.96 104.971H485.611C485.838 104.971 486.01 105.171 486.01 105.397V108.556C486.01 108.783 485.837 108.953 485.61 108.953H483.365C479.684 108.953 477.845 107.141 477.845 103.55V97.4043H476.023C475.795 97.4041 475.626 97.2318 475.626 97.0049V93.8203C475.626 93.5935 475.825 93.422 476.052 93.4219H477.844V89.5889C477.844 89.362 478.039 89.1838 478.266 89.1836H482.566ZM433.002 102.532C431.539 102.642 431.01 103.167 431.01 104.091C431.01 105.127 431.674 105.761 433.031 105.761C433.869 105.761 434.778 105.521 435.712 104.916H435.713V102.328L433.002 102.532ZM397.207 98.2588L397.209 98.2598C397.436 98.26 397.607 98.4313 397.607 98.6582V102.015C397.607 102.242 397.433 102.412 397.206 102.412H389.024C388.796 102.412 388.618 102.243 388.617 102.016V98.6543C388.617 98.426 388.787 98.2559 389.014 98.2559L397.207 98.2588ZM467.781 96.2559C466.026 96.2559 464.865 97.3339 464.854 99.0928H470.6C470.625 97.3205 469.536 96.2559 467.781 96.2559Z" fill="#0066CC"/>
<rect width="1440" height="459.604" transform="translate(0 249)" fill="white"/>
<path d="M530.888 312L535.784 290.24H544.168L549.064 312H544.648L543.784 308.064H536.168L535.304 312H530.888ZM539.208 293.888L537 304.224H542.952L540.744 293.888H539.208ZM561.018 296H565.306V312H561.05V311.104C559.514 311.957 558.18 312.384 557.05 312.384C554.831 312.384 553.338 311.776 552.57 310.56C551.802 309.323 551.418 307.264 551.418 304.384V296H555.706V304.448C555.706 306.027 555.834 307.104 556.09 307.68C556.346 308.256 556.964 308.544 557.946 308.544C558.884 308.544 559.77 308.395 560.602 308.096L561.018 307.968V296ZM578.129 299.648H574.193V306.208C574.193 306.848 574.204 307.307 574.225 307.584C574.268 307.84 574.385 308.064 574.577 308.256C574.791 308.448 575.111 308.544 575.537 308.544L577.969 308.48L578.161 311.904C576.732 312.224 575.644 312.384 574.897 312.384C572.977 312.384 571.665 311.957 570.961 311.104C570.257 310.229 569.905 308.629 569.905 306.304V299.648H568.017V296H569.905V291.552H574.193V296H578.129V299.648ZM584.442 305.824C584.463 306.805 584.719 307.52 585.21 307.968C585.722 308.395 586.447 308.608 587.385 308.608C589.37 308.608 591.14 308.544 592.698 308.416L593.594 308.32L593.658 311.488C591.204 312.085 588.986 312.384 587.002 312.384C584.591 312.384 582.842 311.744 581.754 310.464C580.666 309.184 580.122 307.104 580.122 304.224C580.122 298.485 582.479 295.616 587.194 295.616C591.844 295.616 594.17 298.027 594.17 302.848L593.85 305.824H584.442ZM589.946 302.56C589.946 301.28 589.743 300.395 589.338 299.904C588.932 299.392 588.218 299.136 587.194 299.136C586.191 299.136 585.476 299.403 585.05 299.936C584.644 300.448 584.431 301.323 584.41 302.56H589.946ZM601.522 312H597.234V296H601.49V296.896C602.941 296.043 604.274 295.616 605.49 295.616C607.623 295.616 609.095 296.245 609.906 297.504C610.717 298.763 611.122 300.704 611.122 303.328V312H606.834V303.456C606.834 302.091 606.674 301.088 606.354 300.448C606.034 299.787 605.394 299.456 604.434 299.456C603.559 299.456 602.717 299.605 601.906 299.904L601.522 300.032V312ZM623.786 299.648H619.85V306.208C619.85 306.848 619.86 307.307 619.882 307.584C619.924 307.84 620.042 308.064 620.234 308.256C620.447 308.448 620.767 308.544 621.194 308.544L623.626 308.48L623.818 311.904C622.388 312.224 621.3 312.384 620.554 312.384C618.634 312.384 617.322 311.957 616.618 311.104C615.914 310.229 615.562 308.629 615.562 306.304V299.648H613.674V296H615.562V291.552H619.85V296H623.786V299.648ZM626.578 312V296H630.866V312H626.578ZM626.578 293.952V289.6H630.866V293.952H626.578ZM640.812 295.616C641.921 295.616 643.34 295.787 645.068 296.128L645.932 296.32L645.804 299.712C644.118 299.541 642.87 299.456 642.06 299.456C640.588 299.456 639.606 299.776 639.116 300.416C638.646 301.035 638.412 302.219 638.412 303.968C638.412 305.717 638.646 306.923 639.116 307.584C639.606 308.224 640.598 308.544 642.092 308.544L645.804 308.288L645.932 311.712C643.649 312.16 641.91 312.384 640.716 312.384C638.348 312.384 636.641 311.723 635.596 310.4C634.572 309.056 634.06 306.912 634.06 303.968C634.06 301.024 634.593 298.901 635.66 297.6C636.726 296.277 638.444 295.616 640.812 295.616ZM661.365 300.992V307.648C661.408 308.16 661.493 308.523 661.621 308.736C661.749 308.928 662.016 309.067 662.421 309.152L662.293 312.384C661.205 312.384 660.33 312.309 659.669 312.16C659.029 312.011 658.378 311.712 657.717 311.264C656.181 312.011 654.613 312.384 653.013 312.384C649.706 312.384 648.053 310.635 648.053 307.136C648.053 305.429 648.512 304.224 649.429 303.52C650.346 302.795 651.754 302.368 653.653 302.24L657.077 301.984V300.992C657.077 300.331 656.928 299.883 656.629 299.648C656.33 299.392 655.85 299.264 655.189 299.264L649.173 299.52L649.045 296.544C651.328 295.925 653.493 295.616 655.541 295.616C657.61 295.616 659.093 296.043 659.989 296.896C660.906 297.749 661.365 299.115 661.365 300.992ZM654.165 305.216C652.97 305.323 652.373 305.963 652.373 307.136C652.373 308.309 652.896 308.896 653.941 308.896C654.752 308.896 655.637 308.768 656.597 308.512L657.077 308.384V304.96L654.165 305.216ZM664.781 299.84V296H676.653V299.84L669.933 308.16H676.653V312H664.781V308.16L671.501 299.84H664.781ZM679.984 312V296H684.272V312H679.984ZM679.984 293.952V289.6H684.272V293.952H679.984ZM689.098 297.824C690.229 296.352 692.117 295.616 694.762 295.616C697.407 295.616 699.295 296.352 700.426 297.824C701.557 299.275 702.122 301.323 702.122 303.968C702.122 309.579 699.669 312.384 694.762 312.384C689.855 312.384 687.402 309.579 687.402 303.968C687.402 301.323 687.967 299.275 689.098 297.824ZM692.394 307.584C692.842 308.352 693.631 308.736 694.762 308.736C695.893 308.736 696.671 308.352 697.098 307.584C697.546 306.816 697.77 305.611 697.77 303.968C697.77 302.325 697.546 301.131 697.098 300.384C696.671 299.637 695.893 299.264 694.762 299.264C693.631 299.264 692.842 299.637 692.394 300.384C691.967 301.131 691.754 302.325 691.754 303.968C691.754 305.611 691.967 306.816 692.394 307.584ZM709.553 312H705.265V296H709.521V296.896C710.972 296.043 712.305 295.616 713.521 295.616C715.655 295.616 717.127 296.245 717.937 297.504C718.748 298.763 719.153 300.704 719.153 303.328V312H714.865V303.456C714.865 302.091 714.705 301.088 714.385 300.448C714.065 299.787 713.425 299.456 712.465 299.456C711.591 299.456 710.748 299.605 709.937 299.904L709.553 300.032V312ZM726.473 305.824C726.494 306.805 726.75 307.52 727.241 307.968C727.753 308.395 728.478 308.608 729.417 308.608C731.401 308.608 733.171 308.544 734.729 308.416L735.625 308.32L735.689 311.488C733.235 312.085 731.017 312.384 729.033 312.384C726.622 312.384 724.873 311.744 723.785 310.464C722.697 309.184 722.153 307.104 722.153 304.224C722.153 298.485 724.51 295.616 729.225 295.616C733.875 295.616 736.201 298.027 736.201 302.848L735.881 305.824H726.473ZM731.977 302.56C731.977 301.28 731.774 300.395 731.369 299.904C730.963 299.392 730.249 299.136 729.225 299.136C728.222 299.136 727.507 299.403 727.081 299.936C726.675 300.448 726.462 301.323 726.441 302.56H731.977ZM752.281 295.616C753.39 295.616 754.809 295.787 756.537 296.128L757.401 296.32L757.273 299.712C755.587 299.541 754.339 299.456 753.529 299.456C752.057 299.456 751.075 299.776 750.585 300.416C750.115 301.035 749.881 302.219 749.881 303.968C749.881 305.717 750.115 306.923 750.585 307.584C751.075 308.224 752.067 308.544 753.561 308.544L757.273 308.288L757.401 311.712C755.118 312.16 753.379 312.384 752.185 312.384C749.817 312.384 748.11 311.723 747.065 310.4C746.041 309.056 745.529 306.912 745.529 303.968C745.529 301.024 746.062 298.901 747.129 297.6C748.195 296.277 749.913 295.616 752.281 295.616ZM761.317 297.824C762.447 296.352 764.335 295.616 766.981 295.616C769.626 295.616 771.514 296.352 772.645 297.824C773.775 299.275 774.341 301.323 774.341 303.968C774.341 309.579 771.887 312.384 766.981 312.384C762.074 312.384 759.621 309.579 759.621 303.968C759.621 301.323 760.186 299.275 761.317 297.824ZM764.613 307.584C765.061 308.352 765.85 308.736 766.981 308.736C768.111 308.736 768.89 308.352 769.317 307.584C769.765 306.816 769.989 305.611 769.989 303.968C769.989 302.325 769.765 301.131 769.317 300.384C768.89 299.637 768.111 299.264 766.981 299.264C765.85 299.264 765.061 299.637 764.613 300.384C764.186 301.131 763.973 302.325 763.973 303.968C763.973 305.611 764.186 306.816 764.613 307.584ZM781.772 312H777.484V296H781.74V296.896C783.212 296.043 784.471 295.616 785.516 295.616C787.244 295.616 788.577 296.117 789.516 297.12C791.479 296.117 793.271 295.616 794.892 295.616C797.004 295.616 798.465 296.235 799.276 297.472C800.108 298.688 800.524 300.64 800.524 303.328V312H796.236V303.456C796.236 302.091 796.087 301.088 795.788 300.448C795.489 299.787 794.892 299.456 793.996 299.456C793.313 299.456 792.481 299.605 791.5 299.904L791.02 300.064C791.105 301.664 791.148 302.88 791.148 303.712V312H786.86V303.776C786.86 302.197 786.721 301.088 786.444 300.448C786.167 299.787 785.559 299.456 784.62 299.456C783.788 299.456 782.967 299.605 782.156 299.904L781.772 300.032V312ZM804.328 318.72V296H808.584V296.864C809.97 296.032 811.186 295.616 812.232 295.616C814.386 295.616 815.976 296.267 817 297.568C818.024 298.848 818.536 301.035 818.536 304.128C818.536 307.221 817.97 309.376 816.84 310.592C815.709 311.787 813.853 312.384 811.272 312.384C810.568 312.384 809.81 312.32 809 312.192L808.616 312.128V318.72H804.328ZM811.4 299.456C810.61 299.456 809.81 299.616 809 299.936L808.616 300.096V308.48C809.576 308.608 810.354 308.672 810.952 308.672C812.189 308.672 813.032 308.309 813.48 307.584C813.949 306.859 814.184 305.621 814.184 303.872C814.184 300.928 813.256 299.456 811.4 299.456ZM821.926 312V289.6H826.214V312H821.926ZM833.879 305.824C833.9 306.805 834.156 307.52 834.647 307.968C835.159 308.395 835.884 308.608 836.823 308.608C838.807 308.608 840.578 308.544 842.135 308.416L843.031 308.32L843.095 311.488C840.642 312.085 838.423 312.384 836.439 312.384C834.028 312.384 832.279 311.744 831.191 310.464C830.103 309.184 829.559 307.104 829.559 304.224C829.559 298.485 831.916 295.616 836.631 295.616C841.282 295.616 843.607 298.027 843.607 302.848L843.287 305.824H833.879ZM839.383 302.56C839.383 301.28 839.18 300.395 838.775 299.904C838.37 299.392 837.655 299.136 836.631 299.136C835.628 299.136 834.914 299.403 834.487 299.936C834.082 300.448 833.868 301.323 833.847 302.56H839.383ZM855.536 299.648H851.6V306.208C851.6 306.848 851.61 307.307 851.632 307.584C851.674 307.84 851.792 308.064 851.984 308.256C852.197 308.448 852.517 308.544 852.944 308.544L855.376 308.48L855.568 311.904C854.138 312.224 853.05 312.384 852.304 312.384C850.384 312.384 849.072 311.957 848.368 311.104C847.664 310.229 847.312 308.629 847.312 306.304V299.648H845.424V296H847.312V291.552H851.6V296H855.536V299.648ZM870.584 300.992V307.648C870.626 308.16 870.712 308.523 870.84 308.736C870.968 308.928 871.234 309.067 871.64 309.152L871.512 312.384C870.424 312.384 869.549 312.309 868.888 312.16C868.248 312.011 867.597 311.712 866.936 311.264C865.4 312.011 863.832 312.384 862.232 312.384C858.925 312.384 857.272 310.635 857.272 307.136C857.272 305.429 857.73 304.224 858.648 303.52C859.565 302.795 860.973 302.368 862.872 302.24L866.296 301.984V300.992C866.296 300.331 866.146 299.883 865.848 299.648C865.549 299.392 865.069 299.264 864.408 299.264L858.392 299.52L858.264 296.544C860.546 295.925 862.712 295.616 864.76 295.616C866.829 295.616 868.312 296.043 869.208 296.896C870.125 297.749 870.584 299.115 870.584 300.992ZM863.384 305.216C862.189 305.323 861.592 305.963 861.592 307.136C861.592 308.309 862.114 308.896 863.16 308.896C863.97 308.896 864.856 308.768 865.816 308.512L866.296 308.384V304.96L863.384 305.216ZM883.536 299.648H879.6V306.208C879.6 306.848 879.61 307.307 879.632 307.584C879.674 307.84 879.792 308.064 879.984 308.256C880.197 308.448 880.517 308.544 880.944 308.544L883.376 308.48L883.568 311.904C882.138 312.224 881.05 312.384 880.304 312.384C878.384 312.384 877.072 311.957 876.368 311.104C875.664 310.229 875.312 308.629 875.312 306.304V299.648H873.424V296H875.312V291.552H879.6V296H883.536V299.648ZM898.584 300.992V307.648C898.626 308.16 898.712 308.523 898.84 308.736C898.968 308.928 899.234 309.067 899.64 309.152L899.512 312.384C898.424 312.384 897.549 312.309 896.888 312.16C896.248 312.011 895.597 311.712 894.936 311.264C893.4 312.011 891.832 312.384 890.232 312.384C886.925 312.384 885.272 310.635 885.272 307.136C885.272 305.429 885.73 304.224 886.648 303.52C887.565 302.795 888.973 302.368 890.872 302.24L894.296 301.984V300.992C894.296 300.331 894.146 299.883 893.848 299.648C893.549 299.392 893.069 299.264 892.408 299.264L886.392 299.52L886.264 296.544C888.546 295.925 890.712 295.616 892.76 295.616C894.829 295.616 896.312 296.043 897.208 296.896C898.125 297.749 898.584 299.115 898.584 300.992ZM891.384 305.216C890.189 305.323 889.592 305.963 889.592 307.136C889.592 308.309 890.114 308.896 891.16 308.896C891.97 308.896 892.856 308.768 893.816 308.512L894.296 308.384V304.96L891.384 305.216ZM902.864 312V306.848H907.472V312H902.864ZM903.28 304L902.864 290.24H907.504L907.056 304H903.28Z" fill="#17324D"/>
<path d="M742.867 458.495C721.603 444.221 707.935 412.607 712.333 387.881C716.731 363.155 737.539 354.683 758.797 368.957C780.061 383.231 793.729 414.845 789.331 439.571C784.933 464.297 764.125 472.769 742.867 458.495Z" fill="#0066CC"/>
<path d="M732.6 464.13C711.336 449.856 697.668 418.242 702.066 393.516C706.464 368.79 727.272 360.318 748.53 374.592C769.794 388.866 783.462 420.48 779.064 445.206C774.666 469.932 753.858 478.404 732.6 464.13Z" fill="#FFB458"/>
<path d="M722.676 469.968C701.412 455.694 687.744 424.08 692.142 399.354C696.54 374.628 717.348 366.156 738.606 380.43C759.87 394.704 773.538 426.318 769.14 451.044C764.742 475.77 743.934 484.242 722.676 469.968Z" fill="#7AC1FA"/>
<path d="M737.611 442.685L734.641 440.969C734.245 440.741 733.735 440.873 733.501 441.263C730.615 446.099 727.915 446.657 723.415 444.485C718.975 442.349 715.993 436.835 715.471 430.895C715.405 430.175 714.985 429.533 714.361 429.173L711.619 427.589C711.265 427.385 710.809 427.643 710.821 428.057C711.079 436.079 714.631 444.545 721.015 448.397C727.987 452.603 733.651 450.311 737.977 444.389C738.391 443.825 738.217 443.027 737.611 442.679V442.685Z" fill="#003366"/>
<path d="M711.859 420.419L714.787 422.111C715.489 422.519 716.365 422.009 716.365 421.199V405.005C716.365 404.249 715.963 403.559 715.309 403.181L712.381 401.489C711.679 401.081 710.803 401.591 710.803 402.401V418.595C710.803 419.351 711.205 420.041 711.859 420.419Z" fill="#003366"/>
<path d="M739.777 415.566L736.849 413.874C736.147 413.466 735.271 413.976 735.271 414.786V430.98C735.271 431.736 735.673 432.426 736.327 432.804L739.255 434.496C739.957 434.904 740.833 434.394 740.833 433.584V417.39C740.833 416.634 740.431 415.944 739.777 415.566Z" fill="#003366"/>
<path d="M669.499 472.948C669.055 471.346 668.851 469.702 668.791 467.812C668.665 464.068 668.539 460.324 668.425 456.58C668.317 453.118 668.233 449.662 668.125 446.2C668.095 445.27 668.035 444.346 668.191 443.416C668.557 441.25 670.627 439.312 672.817 439.12C673.945 439.018 673.759 439.21 673.873 438.1C674.185 435.148 674.485 432.196 674.743 429.238C674.845 428.068 674.857 426.892 675.241 425.758C676.393 422.32 681.055 421.078 683.761 423.484C686.503 425.806 685.549 428.662 685.345 431.764C685.339 431.86 685.315 431.968 685.501 432.094C686.449 428.848 687.163 425.572 688.141 422.338C690.355 415.42 700.429 418.468 698.515 425.392C696.781 431.794 695.173 438.052 693.367 444.46C698.935 441.226 705.757 441.628 710.401 446.254C712.861 448.648 714.517 451.534 715.171 454.906C715.681 457.546 715.387 460.12 713.587 462.274C709.681 466.954 705.601 460.426 704.521 456.748C702.121 449.824 696.679 454.078 695.641 459.232C694.933 462.046 695.359 466.258 697.561 468.352C699.283 469.984 702.187 469.894 704.101 468.646C707.161 466.732 712.327 461.248 714.685 466.852C716.023 470.434 715.219 473.626 712.741 476.44C710.779 478.666 708.907 479.32 706.243 480.136C703.117 481.096 700.057 483.652 697.261 485.344C693.919 487.36 690.409 489.436 686.515 489.676C682.879 489.898 680.167 488.206 678.103 485.41C675.925 482.464 672.991 480.442 671.167 477.058C670.399 475.636 669.859 474.304 669.487 472.948H669.499Z" fill="#FFB458"/>
<path d="M691.638 487.48C691.638 478.672 684.498 467.41 675.69 462.322C670.59 459.376 666.054 459.154 663.132 461.194L653.562 466.804C650.586 467.986 648.738 470.962 648.738 475.444C648.738 484.252 655.878 495.514 664.686 500.602C669.21 503.212 673.284 503.68 676.188 502.336C676.566 502.162 676.926 501.952 677.262 501.718L687.492 495.814C687.534 495.79 687.576 495.76 687.624 495.736L687.696 495.694C690.15 494.308 691.638 491.494 691.638 487.48Z" fill="#0066CC"/>
<path d="M666.37 566.802C665.134 567.054 664.024 567.18 663.04 567.18C662.056 567.18 661.258 567.048 660.646 566.784C660.046 566.508 659.578 566.088 659.242 565.524C658.918 564.948 658.69 564.294 658.558 563.562C658.438 562.818 658.378 561.894 658.378 560.79C658.378 559.686 658.438 558.762 658.558 558.018C658.69 557.262 658.918 556.596 659.242 556.02C659.578 555.444 660.046 555.024 660.646 554.76C661.246 554.496 662.026 554.364 662.986 554.364C663.946 554.364 665.074 554.496 666.37 554.76L666.316 555.93C665.104 555.714 664.024 555.606 663.076 555.606C661.756 555.606 660.88 556.002 660.448 556.794C660.028 557.574 659.818 558.912 659.818 560.808C659.818 561.756 659.854 562.518 659.926 563.094C660.01 563.67 660.166 564.192 660.394 564.66C660.622 565.116 660.952 565.446 661.384 565.65C661.828 565.842 662.47 565.938 663.31 565.938C664.162 565.938 665.164 565.83 666.316 565.614L666.37 566.802ZM667.832 562.482C667.832 560.838 668.126 559.65 668.714 558.918C669.302 558.186 670.292 557.82 671.684 557.82C673.088 557.82 674.078 558.186 674.654 558.918C675.242 559.65 675.536 560.838 675.536 562.482C675.536 564.126 675.26 565.32 674.708 566.064C674.156 566.808 673.148 567.18 671.684 567.18C670.22 567.18 669.212 566.808 668.66 566.064C668.108 565.32 667.832 564.126 667.832 562.482ZM669.218 562.464C669.218 563.772 669.374 564.69 669.686 565.218C670.01 565.746 670.676 566.01 671.684 566.01C672.704 566.01 673.37 565.752 673.682 565.236C673.994 564.708 674.15 563.784 674.15 562.464C674.15 561.144 673.976 560.238 673.628 559.746C673.28 559.242 672.632 558.99 671.684 558.99C670.748 558.99 670.1 559.242 669.74 559.746C669.392 560.238 669.218 561.144 669.218 562.464ZM679.087 567H677.737V558H679.069V558.63C680.041 558.09 680.971 557.82 681.859 557.82C683.059 557.82 683.863 558.144 684.271 558.792C684.691 559.44 684.901 560.592 684.901 562.248V567H683.569V562.284C683.569 561.036 683.443 560.184 683.191 559.728C682.951 559.26 682.429 559.026 681.625 559.026C681.241 559.026 680.833 559.086 680.401 559.206C679.981 559.314 679.657 559.422 679.429 559.53L679.087 559.692V567ZM692.015 559.17H689.153V563.472C689.153 564.504 689.225 565.182 689.369 565.506C689.525 565.83 689.885 565.992 690.449 565.992L692.051 565.884L692.141 567C691.337 567.132 690.725 567.198 690.305 567.198C689.369 567.198 688.721 566.97 688.361 566.514C688.001 566.058 687.821 565.188 687.821 563.904V559.17H686.543V558H687.821V555.246H689.153V558H692.015V559.17ZM693.663 567V558H695.013V567H693.663ZM693.663 555.966V554.4H695.013V555.966H693.663ZM698.951 567H697.601V558H698.933V558.63C699.905 558.09 700.835 557.82 701.723 557.82C702.923 557.82 703.727 558.144 704.135 558.792C704.555 559.44 704.765 560.592 704.765 562.248V567H703.433V562.284C703.433 561.036 703.307 560.184 703.055 559.728C702.815 559.26 702.293 559.026 701.489 559.026C701.105 559.026 700.697 559.086 700.265 559.206C699.845 559.314 699.521 559.422 699.293 559.53L698.951 559.692V567ZM712.885 558H714.235V567H712.885V566.37C711.985 566.91 711.097 567.18 710.221 567.18C708.997 567.18 708.181 566.862 707.773 566.226C707.377 565.59 707.179 564.414 707.179 562.698V558H708.529V562.68C708.529 563.988 708.643 564.864 708.871 565.308C709.099 565.752 709.615 565.974 710.419 565.974C710.815 565.974 711.217 565.92 711.625 565.812C712.033 565.692 712.345 565.578 712.561 565.47L712.885 565.308V558ZM723.185 560.718V565.326C723.221 565.77 723.569 566.034 724.229 566.118L724.175 567.18C723.227 567.18 722.513 566.94 722.033 566.46C720.953 566.94 719.873 567.18 718.793 567.18C717.965 567.18 717.335 566.946 716.903 566.478C716.471 566.01 716.255 565.338 716.255 564.462C716.255 563.586 716.477 562.944 716.921 562.536C717.365 562.116 718.061 561.858 719.009 561.762L721.835 561.492V560.718C721.835 560.106 721.703 559.668 721.439 559.404C721.175 559.14 720.815 559.008 720.359 559.008C719.399 559.008 718.403 559.068 717.371 559.188L716.813 559.242L716.759 558.216C718.079 557.952 719.249 557.82 720.269 557.82C721.289 557.82 722.027 558.054 722.483 558.522C722.951 558.99 723.185 559.722 723.185 560.718ZM717.641 564.39C717.641 565.494 718.097 566.046 719.009 566.046C719.825 566.046 720.629 565.908 721.421 565.632L721.835 565.488V562.518L719.171 562.77C718.631 562.818 718.241 562.974 718.001 563.238C717.761 563.502 717.641 563.886 717.641 564.39ZM732.63 559.026C731.322 559.026 730.668 559.482 730.668 560.394C730.668 560.814 730.818 561.114 731.118 561.294C731.418 561.462 732.102 561.642 733.17 561.834C734.238 562.014 734.994 562.272 735.438 562.608C735.882 562.944 736.104 563.574 736.104 564.498C736.104 565.422 735.804 566.1 735.204 566.532C734.616 566.964 733.752 567.18 732.612 567.18C731.868 567.18 730.992 567.096 729.984 566.928L729.444 566.838L729.516 565.668C730.884 565.872 731.916 565.974 732.612 565.974C733.308 565.974 733.836 565.866 734.196 565.65C734.568 565.422 734.754 565.05 734.754 564.534C734.754 564.006 734.598 563.652 734.286 563.472C733.974 563.28 733.29 563.1 732.234 562.932C731.178 562.764 730.428 562.518 729.984 562.194C729.54 561.87 729.318 561.27 729.318 560.394C729.318 559.518 729.624 558.87 730.236 558.45C730.86 558.03 731.634 557.82 732.558 557.82C733.29 557.82 734.208 557.904 735.312 558.072L735.816 558.162L735.78 559.314C734.448 559.122 733.398 559.026 732.63 559.026ZM743.787 558H745.137V567H743.787V566.37C742.887 566.91 741.999 567.18 741.123 567.18C739.899 567.18 739.083 566.862 738.675 566.226C738.279 565.59 738.081 564.414 738.081 562.698V558H739.431V562.68C739.431 563.988 739.545 564.864 739.773 565.308C740.001 565.752 740.517 565.974 741.321 565.974C741.717 565.974 742.119 565.92 742.527 565.812C742.935 565.692 743.247 565.578 743.463 565.47L743.787 565.308V558ZM747.842 567V554.076H749.192V567H747.842ZM758.681 559.026C757.373 559.026 756.719 559.482 756.719 560.394C756.719 560.814 756.869 561.114 757.169 561.294C757.469 561.462 758.153 561.642 759.221 561.834C760.289 562.014 761.045 562.272 761.489 562.608C761.933 562.944 762.155 563.574 762.155 564.498C762.155 565.422 761.855 566.1 761.255 566.532C760.667 566.964 759.803 567.18 758.663 567.18C757.919 567.18 757.043 567.096 756.035 566.928L755.495 566.838L755.567 565.668C756.935 565.872 757.967 565.974 758.663 565.974C759.359 565.974 759.887 565.866 760.247 565.65C760.619 565.422 760.805 565.05 760.805 564.534C760.805 564.006 760.649 563.652 760.337 563.472C760.025 563.28 759.341 563.1 758.285 562.932C757.229 562.764 756.479 562.518 756.035 562.194C755.591 561.87 755.369 561.27 755.369 560.394C755.369 559.518 755.675 558.87 756.287 558.45C756.911 558.03 757.685 557.82 758.609 557.82C759.341 557.82 760.259 557.904 761.363 558.072L761.867 558.162L761.831 559.314C760.499 559.122 759.449 559.026 758.681 559.026ZM764.222 567V558H765.572V567H764.222ZM764.222 555.966V554.4H765.572V555.966H764.222ZM772.821 559.17H769.959V563.472C769.959 564.504 770.031 565.182 770.175 565.506C770.331 565.83 770.691 565.992 771.255 565.992L772.857 565.884L772.947 567C772.143 567.132 771.531 567.198 771.111 567.198C770.175 567.198 769.527 566.97 769.167 566.514C768.807 566.058 768.627 565.188 768.627 563.904V559.17H767.349V558H768.627V555.246H769.959V558H772.821V559.17ZM774.074 562.482C774.074 560.838 774.368 559.65 774.956 558.918C775.544 558.186 776.534 557.82 777.926 557.82C779.33 557.82 780.32 558.186 780.896 558.918C781.484 559.65 781.778 560.838 781.778 562.482C781.778 564.126 781.502 565.32 780.95 566.064C780.398 566.808 779.39 567.18 777.926 567.18C776.462 567.18 775.454 566.808 774.902 566.064C774.35 565.32 774.074 564.126 774.074 562.482ZM775.46 562.464C775.46 563.772 775.616 564.69 775.928 565.218C776.252 565.746 776.918 566.01 777.926 566.01C778.946 566.01 779.612 565.752 779.924 565.236C780.236 564.708 780.392 563.784 780.392 562.464C780.392 561.144 780.218 560.238 779.87 559.746C779.522 559.242 778.874 558.99 777.926 558.99C776.99 558.99 776.342 559.242 775.982 559.746C775.634 560.238 775.46 561.144 775.46 562.464Z" fill="#17324D"/>
<rect x="666.5" y="599" width="107" height="46" rx="3" stroke="#0066CC" stroke-width="2"/>
<rect x="665.5" y="598" width="109" height="48" rx="4" fill="#0066CC"/>
<path d="M694.491 628.176C692.891 628.176 691.803 627.733 691.227 626.848C690.662 625.963 690.379 624.507 690.379 622.48C690.379 620.453 690.667 619.013 691.243 618.16C691.819 617.296 692.902 616.864 694.491 616.864C695.44 616.864 696.486 616.997 697.627 617.264L697.563 618.704C696.603 618.533 695.643 618.448 694.683 618.448C693.723 618.448 693.072 618.736 692.731 619.312C692.39 619.877 692.219 620.949 692.219 622.528C692.219 624.096 692.384 625.168 692.715 625.744C693.046 626.309 693.691 626.592 694.651 626.592C695.611 626.592 696.582 626.512 697.563 626.352L697.611 627.824C696.512 628.059 695.472 628.176 694.491 628.176ZM699.597 620.864C700.152 620.171 701.069 619.824 702.349 619.824C703.629 619.824 704.541 620.171 705.085 620.864C705.64 621.557 705.917 622.597 705.917 623.984C705.917 625.371 705.651 626.416 705.117 627.12C704.584 627.824 703.661 628.176 702.349 628.176C701.037 628.176 700.115 627.824 699.581 627.12C699.048 626.416 698.781 625.371 698.781 623.984C698.781 622.597 699.053 621.557 699.597 620.864ZM700.909 626.064C701.155 626.491 701.635 626.704 702.349 626.704C703.064 626.704 703.544 626.491 703.789 626.064C704.035 625.637 704.157 624.939 704.157 623.968C704.157 622.997 704.024 622.309 703.757 621.904C703.501 621.499 703.032 621.296 702.349 621.296C701.667 621.296 701.192 621.499 700.925 621.904C700.669 622.309 700.541 622.997 700.541 623.968C700.541 624.939 700.664 625.637 700.909 626.064ZM709.394 628H707.65V620H709.378V620.496C710.156 620.048 710.892 619.824 711.586 619.824C712.652 619.824 713.378 620.128 713.762 620.736C714.156 621.333 714.354 622.325 714.354 623.712V628H712.626V623.76C712.626 622.896 712.53 622.283 712.338 621.92C712.156 621.557 711.778 621.376 711.202 621.376C710.658 621.376 710.135 621.483 709.634 621.696L709.394 621.792V628ZM720.688 621.488H718.48V625.008C718.48 625.659 718.528 626.091 718.624 626.304C718.72 626.517 718.965 626.624 719.36 626.624L720.672 626.576L720.752 627.968C720.037 628.107 719.493 628.176 719.12 628.176C718.213 628.176 717.589 627.968 717.248 627.552C716.917 627.136 716.752 626.352 716.752 625.2V621.488H715.728V620H716.752V617.68H718.48V620H720.688V621.488ZM722.118 628V620H723.863V628H722.118ZM722.118 618.64V616.8H723.863V618.64H722.118ZM727.722 628H725.978V620H727.706V620.496C728.485 620.048 729.221 619.824 729.914 619.824C730.981 619.824 731.706 620.128 732.09 620.736C732.485 621.333 732.682 622.325 732.682 623.712V628H730.954V623.76C730.954 622.896 730.858 622.283 730.666 621.92C730.485 621.557 730.106 621.376 729.53 621.376C728.986 621.376 728.463 621.483 727.962 621.696L727.722 621.792V628ZM739.56 620H741.288V628H739.56V627.504C738.782 627.952 738.062 628.176 737.4 628.176C736.302 628.176 735.566 627.883 735.192 627.296C734.819 626.699 734.632 625.659 734.632 624.176V620H736.376V624.192C736.376 625.152 736.456 625.797 736.616 626.128C736.776 626.459 737.15 626.624 737.736 626.624C738.312 626.624 738.84 626.517 739.32 626.304L739.56 626.208V620ZM749.32 622.464V626.112C749.33 626.347 749.389 626.523 749.496 626.64C749.613 626.747 749.789 626.816 750.024 626.848L749.976 628.176C749.058 628.176 748.349 627.979 747.848 627.584C746.994 627.979 746.136 628.176 745.272 628.176C743.682 628.176 742.888 627.328 742.888 625.632C742.888 624.821 743.101 624.235 743.528 623.872C743.965 623.509 744.632 623.291 745.528 623.216L747.592 623.04V622.464C747.592 622.037 747.496 621.739 747.304 621.568C747.122 621.397 746.85 621.312 746.488 621.312C745.805 621.312 744.952 621.355 743.928 621.44L743.416 621.472L743.352 620.24C744.514 619.963 745.581 619.824 746.552 619.824C747.533 619.824 748.237 620.037 748.664 620.464C749.101 620.88 749.32 621.547 749.32 622.464ZM745.736 624.448C745 624.512 744.632 624.912 744.632 625.648C744.632 626.384 744.957 626.752 745.608 626.752C746.141 626.752 746.706 626.667 747.304 626.496L747.592 626.4V624.272L745.736 624.448Z" fill="white"/>
<rect width="1440" height="62" transform="translate(0 778)" fill="#003366"/>
<mask id="path-23-inside-1_2083_8952" fill="white">
<path d="M0 778H1440V840H0V778Z"/>
</mask>
<path d="M0 778H1440V840H0V778Z" fill="#004D99"/>
<path d="M0 778V779H1440V778V777H0V778Z" fill="white" fill-opacity="0.5" mask="url(#path-23-inside-1_2083_8952)"/>
<path d="M25.106 814V804.41H27.822L30.734 812.628H30.944V804.41H32.498V814H29.838L26.856 805.768H26.66V814H25.106ZM34.8176 807.756C35.303 807.149 36.1056 806.846 37.2256 806.846C38.3456 806.846 39.1436 807.149 39.6196 807.756C40.105 808.363 40.3476 809.273 40.3476 810.486C40.3476 811.699 40.1143 812.614 39.6476 813.23C39.181 813.846 38.3736 814.154 37.2256 814.154C36.0776 814.154 35.2703 813.846 34.8036 813.23C34.337 812.614 34.1036 811.699 34.1036 810.486C34.1036 809.273 34.3416 808.363 34.8176 807.756ZM35.9656 812.306C36.1803 812.679 36.6003 812.866 37.2256 812.866C37.851 812.866 38.271 812.679 38.4856 812.306C38.7003 811.933 38.8076 811.321 38.8076 810.472C38.8076 809.623 38.691 809.021 38.4576 808.666C38.2336 808.311 37.823 808.134 37.2256 808.134C36.6283 808.134 36.213 808.311 35.9796 808.666C35.7556 809.021 35.6436 809.623 35.6436 810.472C35.6436 811.321 35.751 811.933 35.9656 812.306ZM45.6295 808.302H43.6975V811.382C43.6975 811.951 43.7395 812.329 43.8235 812.516C43.9075 812.703 44.1221 812.796 44.4675 812.796L45.6155 812.754L45.6855 813.972C45.0601 814.093 44.5841 814.154 44.2575 814.154C43.4641 814.154 42.9181 813.972 42.6195 813.608C42.3301 813.244 42.1855 812.558 42.1855 811.55V808.302H41.2895V807H42.1855V804.97H43.6975V807H45.6295V808.302ZM51.865 812.74L52.257 812.698L52.285 813.832C51.221 814.047 50.2784 814.154 49.457 814.154C48.421 814.154 47.6744 813.869 47.217 813.3C46.769 812.731 46.545 811.821 46.545 810.57C46.545 808.087 47.5577 806.846 49.583 806.846C51.543 806.846 52.523 807.915 52.523 810.052L52.425 811.144H48.085C48.0944 811.723 48.2204 812.147 48.463 812.418C48.7057 812.689 49.1584 812.824 49.821 812.824C50.4837 812.824 51.165 812.796 51.865 812.74ZM51.025 809.968C51.025 809.277 50.913 808.797 50.689 808.526C50.4744 808.246 50.1057 808.106 49.583 808.106C49.0604 808.106 48.6777 808.251 48.435 808.54C48.2017 808.829 48.0804 809.305 48.071 809.968H51.025ZM62.6246 814H57.2486V804.41H58.8026V812.614H62.6246V814ZM68.6951 812.74L69.0871 812.698L69.1151 813.832C68.0511 814.047 67.1084 814.154 66.2871 814.154C65.2511 814.154 64.5044 813.869 64.0471 813.3C63.5991 812.731 63.3751 811.821 63.3751 810.57C63.3751 808.087 64.3878 806.846 66.4131 806.846C68.3731 806.846 69.3531 807.915 69.3531 810.052L69.2551 811.144H64.9151C64.9244 811.723 65.0504 812.147 65.2931 812.418C65.5358 812.689 65.9884 812.824 66.6511 812.824C67.3138 812.824 67.9951 812.796 68.6951 812.74ZM67.8551 809.968C67.8551 809.277 67.7431 808.797 67.5191 808.526C67.3044 808.246 66.9358 808.106 66.4131 808.106C65.8904 808.106 65.5078 808.251 65.2651 808.54C65.0318 808.829 64.9104 809.305 64.9011 809.968H67.8551ZM76.9385 814.952C76.9385 816.483 75.8325 817.248 73.6205 817.248C72.5565 817.248 71.7678 817.103 71.2545 816.814C70.7412 816.525 70.4845 815.997 70.4845 815.232C70.4845 814.887 70.5685 814.588 70.7365 814.336C70.9045 814.093 71.1752 813.827 71.5485 813.538C71.2405 813.333 71.0865 812.992 71.0865 812.516C71.0865 812.329 71.2125 812.026 71.4645 811.606L71.5905 811.396C70.9185 810.995 70.5825 810.295 70.5825 809.296C70.5825 808.456 70.8345 807.84 71.3385 807.448C71.8425 807.056 72.5238 806.86 73.3825 806.86C73.7932 806.86 74.1992 806.907 74.6005 807L74.8105 807.042L76.9805 806.986V808.218L75.8185 808.148C76.0705 808.475 76.1965 808.857 76.1965 809.296C76.1965 810.211 75.9632 810.845 75.4965 811.2C75.0392 811.545 74.3205 811.718 73.3405 811.718C73.0978 811.718 72.8925 811.699 72.7245 811.662C72.5938 811.979 72.5285 812.227 72.5285 812.404C72.5285 812.572 72.6125 812.689 72.7805 812.754C72.9578 812.819 73.3778 812.857 74.0405 812.866C75.1512 812.875 75.9118 813.025 76.3225 813.314C76.7332 813.603 76.9385 814.149 76.9385 814.952ZM71.9825 815.092C71.9825 815.419 72.1132 815.652 72.3745 815.792C72.6358 815.932 73.0838 816.002 73.7185 816.002C74.8478 816.002 75.4125 815.68 75.4125 815.036C75.4125 814.672 75.3098 814.439 75.1045 814.336C74.9085 814.243 74.5118 814.191 73.9145 814.182L72.5425 814.098C72.3372 814.266 72.1925 814.42 72.1085 814.56C72.0245 814.709 71.9825 814.887 71.9825 815.092ZM72.0945 809.296C72.0945 809.725 72.1972 810.043 72.4025 810.248C72.6078 810.444 72.9392 810.542 73.3965 810.542C73.8538 810.542 74.1805 810.444 74.3765 810.248C74.5818 810.043 74.6845 809.725 74.6845 809.296C74.6845 808.867 74.5818 808.554 74.3765 808.358C74.1712 808.153 73.8398 808.05 73.3825 808.05C72.5238 808.05 72.0945 808.465 72.0945 809.296ZM83.356 809.156V812.348C83.3653 812.553 83.4166 812.707 83.51 812.81C83.6126 812.903 83.7666 812.964 83.972 812.992L83.93 814.154C83.1273 814.154 82.5066 813.981 82.068 813.636C81.3213 813.981 80.57 814.154 79.814 814.154C78.4233 814.154 77.728 813.412 77.728 811.928C77.728 811.219 77.9146 810.705 78.288 810.388C78.6706 810.071 79.254 809.879 80.038 809.814L81.844 809.66V809.156C81.844 808.783 81.76 808.521 81.592 808.372C81.4333 808.223 81.1953 808.148 80.878 808.148C80.2806 808.148 79.534 808.185 78.638 808.26L78.19 808.288L78.134 807.21C79.1513 806.967 80.0846 806.846 80.934 806.846C81.7926 806.846 82.4086 807.033 82.782 807.406C83.1646 807.77 83.356 808.353 83.356 809.156ZM80.22 810.892C79.576 810.948 79.254 811.298 79.254 811.942C79.254 812.586 79.5386 812.908 80.108 812.908C80.5746 812.908 81.0693 812.833 81.592 812.684L81.844 812.6V810.738L80.22 810.892ZM85.3557 814V804.088H86.8817V814H85.3557ZM88.8127 814V807H90.3387V814H88.8127ZM88.8127 805.81V804.2H90.3387V805.81H88.8127Z" fill="white"/>
<path d="M24 815.54H70.08V815.96H24V815.54ZM77.2872 815.54H91.2627V815.96H77.2872V815.54Z" fill="white"/>
<path d="M120.62 811.018H118.66V814H117.106V804.41H120.62C122.795 804.41 123.882 805.483 123.882 807.63C123.882 808.731 123.607 809.571 123.056 810.15C122.515 810.729 121.703 811.018 120.62 811.018ZM118.66 809.674H120.606C121.726 809.674 122.286 808.993 122.286 807.63C122.286 806.977 122.151 806.501 121.88 806.202C121.609 805.903 121.185 805.754 120.606 805.754H118.66V809.674ZM125.195 814V807H126.707V807.84C127.501 807.327 128.294 806.995 129.087 806.846V808.372C128.285 808.531 127.599 808.736 127.029 808.988L126.721 809.114V814H125.195ZM130.254 814V807H131.78V814H130.254ZM130.254 805.81V804.2H131.78V805.81H130.254ZM132.973 807H134.569L135.913 812.698H136.361L137.761 807H139.315L137.495 814H134.779L132.973 807ZM145.592 809.156V812.348C145.602 812.553 145.653 812.707 145.746 812.81C145.849 812.903 146.003 812.964 146.208 812.992L146.166 814.154C145.364 814.154 144.743 813.981 144.304 813.636C143.558 813.981 142.806 814.154 142.05 814.154C140.66 814.154 139.964 813.412 139.964 811.928C139.964 811.219 140.151 810.705 140.524 810.388C140.907 810.071 141.49 809.879 142.274 809.814L144.08 809.66V809.156C144.08 808.783 143.996 808.521 143.828 808.372C143.67 808.223 143.432 808.148 143.114 808.148C142.517 808.148 141.77 808.185 140.874 808.26L140.426 808.288L140.37 807.21C141.388 806.967 142.321 806.846 143.17 806.846C144.029 806.846 144.645 807.033 145.018 807.406C145.401 807.77 145.592 808.353 145.592 809.156ZM142.456 810.892C141.812 810.948 141.49 811.298 141.49 811.942C141.49 812.586 141.775 812.908 142.344 812.908C142.811 812.908 143.306 812.833 143.828 812.684L144.08 812.6V810.738L142.456 810.892ZM150.126 806.846C150.621 806.846 151.204 806.911 151.876 807.042L152.226 807.112L152.17 808.316C151.433 808.241 150.887 808.204 150.532 808.204C149.823 808.204 149.347 808.363 149.104 808.68C148.861 808.997 148.74 809.595 148.74 810.472C148.74 811.349 148.857 811.956 149.09 812.292C149.323 812.628 149.809 812.796 150.546 812.796L152.184 812.684L152.226 813.902C151.283 814.07 150.574 814.154 150.098 814.154C149.034 814.154 148.283 813.869 147.844 813.3C147.415 812.721 147.2 811.779 147.2 810.472C147.2 809.165 147.429 808.237 147.886 807.686C148.343 807.126 149.09 806.846 150.126 806.846ZM153.057 807H154.555L156.039 812.698H156.417L157.901 807H159.413L156.753 817.01H155.255L156.095 814H154.891L153.057 807ZM167.364 811.018H165.404V814H163.85V804.41H167.364C169.539 804.41 170.626 805.483 170.626 807.63C170.626 808.731 170.351 809.571 169.8 810.15C169.259 810.729 168.447 811.018 167.364 811.018ZM165.404 809.674H167.35C168.47 809.674 169.03 808.993 169.03 807.63C169.03 806.977 168.895 806.501 168.624 806.202C168.353 805.903 167.929 805.754 167.35 805.754H165.404V809.674ZM172.318 807.756C172.803 807.149 173.606 806.846 174.726 806.846C175.846 806.846 176.644 807.149 177.12 807.756C177.605 808.363 177.848 809.273 177.848 810.486C177.848 811.699 177.614 812.614 177.148 813.23C176.681 813.846 175.874 814.154 174.726 814.154C173.578 814.154 172.77 813.846 172.304 813.23C171.837 812.614 171.604 811.699 171.604 810.486C171.604 809.273 171.842 808.363 172.318 807.756ZM173.466 812.306C173.68 812.679 174.1 812.866 174.726 812.866C175.351 812.866 175.771 812.679 175.986 812.306C176.2 811.933 176.308 811.321 176.308 810.472C176.308 809.623 176.191 809.021 175.958 808.666C175.734 808.311 175.323 808.134 174.726 808.134C174.128 808.134 173.713 808.311 173.48 808.666C173.256 809.021 173.144 809.623 173.144 810.472C173.144 811.321 173.251 811.933 173.466 812.306ZM179.447 814V804.088H180.973V814H179.447ZM182.904 814V807H184.43V814H182.904ZM182.904 805.81V804.2H184.43V805.81H182.904ZM188.899 806.846C189.394 806.846 189.977 806.911 190.649 807.042L190.999 807.112L190.943 808.316C190.206 808.241 189.66 808.204 189.305 808.204C188.596 808.204 188.12 808.363 187.877 808.68C187.635 808.997 187.513 809.595 187.513 810.472C187.513 811.349 187.63 811.956 187.863 812.292C188.097 812.628 188.582 812.796 189.319 812.796L190.957 812.684L190.999 813.902C190.057 814.07 189.347 814.154 188.871 814.154C187.807 814.154 187.056 813.869 186.617 813.3C186.188 812.721 185.973 811.779 185.973 810.472C185.973 809.165 186.202 808.237 186.659 807.686C187.117 807.126 187.863 806.846 188.899 806.846ZM191.831 807H193.329L194.813 812.698H195.191L196.675 807H198.187L195.527 817.01H194.029L194.869 814H193.665L191.831 807Z" fill="white"/>
<path d="M116 815.54H155.127V815.96H116V815.54ZM157.561 815.54H193.9V815.96H157.561V815.54ZM196.334 815.54H198.439V815.96H196.334V815.54Z" fill="white"/>
<path d="M227.424 814H224.106V804.41H227.424C228.899 804.41 229.907 804.783 230.448 805.53C230.989 806.277 231.26 807.448 231.26 809.044C231.26 809.856 231.204 810.547 231.092 811.116C230.989 811.676 230.803 812.185 230.532 812.642C230 813.547 228.964 814 227.424 814ZM229.65 809.044C229.65 807.887 229.505 807.051 229.216 806.538C228.927 806.025 228.329 805.768 227.424 805.768H225.66V812.628H227.424C228.348 812.628 228.964 812.287 229.272 811.606C229.421 811.261 229.519 810.892 229.566 810.5C229.622 810.108 229.65 809.623 229.65 809.044ZM232.893 814V807H234.419V814H232.893ZM232.893 805.81V804.2H234.419V805.81H232.893ZM238.888 806.846C239.382 806.846 239.966 806.911 240.638 807.042L240.988 807.112L240.932 808.316C240.194 808.241 239.648 808.204 239.294 808.204C238.584 808.204 238.108 808.363 237.866 808.68C237.623 808.997 237.502 809.595 237.502 810.472C237.502 811.349 237.618 811.956 237.852 812.292C238.085 812.628 238.57 812.796 239.308 812.796L240.946 812.684L240.988 813.902C240.045 814.07 239.336 814.154 238.86 814.154C237.796 814.154 237.044 813.869 236.606 813.3C236.176 812.721 235.962 811.779 235.962 810.472C235.962 809.165 236.19 808.237 236.648 807.686C237.105 807.126 237.852 806.846 238.888 806.846ZM243.989 814H242.463V804.088H243.989V807.364C244.68 807.019 245.319 806.846 245.907 806.846C246.84 806.846 247.475 807.112 247.811 807.644C248.156 808.167 248.329 809.035 248.329 810.248V814H246.803V810.29C246.803 809.534 246.724 808.997 246.565 808.68C246.406 808.363 246.07 808.204 245.557 808.204C245.109 808.204 244.661 808.279 244.213 808.428L243.989 808.512V814ZM250.106 814V807H251.632V814H250.106ZM250.106 805.81V804.2H251.632V805.81H250.106ZM258.663 809.156V812.348C258.672 812.553 258.723 812.707 258.817 812.81C258.919 812.903 259.073 812.964 259.279 812.992L259.237 814.154C258.434 814.154 257.813 813.981 257.375 813.636C256.628 813.981 255.877 814.154 255.121 814.154C253.73 814.154 253.035 813.412 253.035 811.928C253.035 811.219 253.221 810.705 253.595 810.388C253.977 810.071 254.561 809.879 255.345 809.814L257.151 809.66V809.156C257.151 808.783 257.067 808.521 256.899 808.372C256.74 808.223 256.502 808.148 256.185 808.148C255.587 808.148 254.841 808.185 253.945 808.26L253.497 808.288L253.441 807.21C254.458 806.967 255.391 806.846 256.241 806.846C257.099 806.846 257.715 807.033 258.089 807.406C258.471 807.77 258.663 808.353 258.663 809.156ZM255.527 810.892C254.883 810.948 254.561 811.298 254.561 811.942C254.561 812.586 254.845 812.908 255.415 812.908C255.881 812.908 256.376 812.833 256.899 812.684L257.151 812.6V810.738L255.527 810.892ZM260.578 814V807H262.09V807.84C262.884 807.327 263.677 806.995 264.47 806.846V808.372C263.668 808.531 262.982 808.736 262.412 808.988L262.104 809.114V814H260.578ZM270.817 809.156V812.348C270.826 812.553 270.878 812.707 270.971 812.81C271.074 812.903 271.228 812.964 271.433 812.992L271.391 814.154C270.588 814.154 269.968 813.981 269.529 813.636C268.782 813.981 268.031 814.154 267.275 814.154C265.884 814.154 265.189 813.412 265.189 811.928C265.189 811.219 265.376 810.705 265.749 810.388C266.132 810.071 266.715 809.879 267.499 809.814L269.305 809.66V809.156C269.305 808.783 269.221 808.521 269.053 808.372C268.894 808.223 268.656 808.148 268.339 808.148C267.742 808.148 266.995 808.185 266.099 808.26L265.651 808.288L265.595 807.21C266.612 806.967 267.546 806.846 268.395 806.846C269.254 806.846 269.87 807.033 270.243 807.406C270.626 807.77 270.817 808.353 270.817 809.156ZM267.681 810.892C267.037 810.948 266.715 811.298 266.715 811.942C266.715 812.586 267 812.908 267.569 812.908C268.036 812.908 268.53 812.833 269.053 812.684L269.305 812.6V810.738L267.681 810.892ZM272.383 808.358V807H277.577V808.358L274.217 812.642H277.577V814H272.383V812.642L275.757 808.358H272.383ZM279.09 814V807H280.616V814H279.09ZM279.09 805.81V804.2H280.616V805.81H279.09ZM282.845 807.756C283.33 807.149 284.133 806.846 285.253 806.846C286.373 806.846 287.171 807.149 287.647 807.756C288.132 808.363 288.375 809.273 288.375 810.486C288.375 811.699 288.142 812.614 287.675 813.23C287.208 813.846 286.401 814.154 285.253 814.154C284.105 814.154 283.298 813.846 282.831 813.23C282.364 812.614 282.131 811.699 282.131 810.486C282.131 809.273 282.369 808.363 282.845 807.756ZM283.993 812.306C284.208 812.679 284.628 812.866 285.253 812.866C285.878 812.866 286.298 812.679 286.513 812.306C286.728 811.933 286.835 811.321 286.835 810.472C286.835 809.623 286.718 809.021 286.485 808.666C286.261 808.311 285.85 808.134 285.253 808.134C284.656 808.134 284.24 808.311 284.007 808.666C283.783 809.021 283.671 809.623 283.671 810.472C283.671 811.321 283.778 811.933 283.993 812.306ZM291.417 814H289.891V807H291.403V807.434C292.084 807.042 292.728 806.846 293.335 806.846C294.268 806.846 294.903 807.112 295.239 807.644C295.584 808.167 295.757 809.035 295.757 810.248V814H294.245V810.29C294.245 809.534 294.161 808.997 293.993 808.68C293.834 808.363 293.503 808.204 292.999 808.204C292.523 808.204 292.065 808.297 291.627 808.484L291.417 808.568V814ZM302.517 812.74L302.909 812.698L302.937 813.832C301.873 814.047 300.931 814.154 300.109 814.154C299.073 814.154 298.327 813.869 297.869 813.3C297.421 812.731 297.197 811.821 297.197 810.57C297.197 808.087 298.21 806.846 300.235 806.846C302.195 806.846 303.175 807.915 303.175 810.052L303.077 811.144H298.737C298.747 811.723 298.873 812.147 299.115 812.418C299.358 812.689 299.811 812.824 300.473 812.824C301.136 812.824 301.817 812.796 302.517 812.74ZM301.677 809.968C301.677 809.277 301.565 808.797 301.341 808.526C301.127 808.246 300.758 808.106 300.235 808.106C299.713 808.106 299.33 808.251 299.087 808.54C298.854 808.829 298.733 809.305 298.723 809.968H301.677ZM307.075 814L309.441 804.41H312.535L314.915 814H313.347L312.829 811.942H309.147L308.629 814H307.075ZM310.645 805.712L309.455 810.57H312.521L311.345 805.712H310.645ZM318.649 806.846C319.144 806.846 319.727 806.911 320.399 807.042L320.749 807.112L320.693 808.316C319.956 808.241 319.41 808.204 319.055 808.204C318.346 808.204 317.87 808.363 317.627 808.68C317.385 808.997 317.263 809.595 317.263 810.472C317.263 811.349 317.38 811.956 317.613 812.292C317.847 812.628 318.332 812.796 319.069 812.796L320.707 812.684L320.749 813.902C319.807 814.07 319.097 814.154 318.621 814.154C317.557 814.154 316.806 813.869 316.367 813.3C315.938 812.721 315.723 811.779 315.723 810.472C315.723 809.165 315.952 808.237 316.409 807.686C316.867 807.126 317.613 806.846 318.649 806.846ZM324.774 806.846C325.269 806.846 325.852 806.911 326.524 807.042L326.874 807.112L326.818 808.316C326.081 808.241 325.535 808.204 325.18 808.204C324.471 808.204 323.995 808.363 323.752 808.68C323.51 808.997 323.388 809.595 323.388 810.472C323.388 811.349 323.505 811.956 323.738 812.292C323.972 812.628 324.457 812.796 325.194 812.796L326.832 812.684L326.874 813.902C325.932 814.07 325.222 814.154 324.746 814.154C323.682 814.154 322.931 813.869 322.492 813.3C322.063 812.721 321.848 811.779 321.848 810.472C321.848 809.165 322.077 808.237 322.534 807.686C322.992 807.126 323.738 806.846 324.774 806.846ZM333.265 812.74L333.657 812.698L333.685 813.832C332.621 814.047 331.679 814.154 330.857 814.154C329.821 814.154 329.075 813.869 328.617 813.3C328.169 812.731 327.945 811.821 327.945 810.57C327.945 808.087 328.958 806.846 330.983 806.846C332.943 806.846 333.923 807.915 333.923 810.052L333.825 811.144H329.485C329.495 811.723 329.621 812.147 329.863 812.418C330.106 812.689 330.559 812.824 331.221 812.824C331.884 812.824 332.565 812.796 333.265 812.74ZM332.425 809.968C332.425 809.277 332.313 808.797 332.089 808.526C331.875 808.246 331.506 808.106 330.983 808.106C330.461 808.106 330.078 808.251 329.835 808.54C329.602 808.829 329.481 809.305 329.471 809.968H332.425ZM340.249 808.442C339.147 808.293 338.349 808.218 337.855 808.218C337.36 808.218 337.015 808.279 336.819 808.4C336.632 808.512 336.539 808.694 336.539 808.946C336.539 809.198 336.641 809.375 336.847 809.478C337.061 809.581 337.556 809.702 338.331 809.842C339.115 809.973 339.67 810.183 339.997 810.472C340.323 810.761 340.487 811.275 340.487 812.012C340.487 812.749 340.249 813.291 339.773 813.636C339.306 813.981 338.62 814.154 337.715 814.154C337.145 814.154 336.427 814.075 335.559 813.916L335.125 813.846L335.181 812.572C336.301 812.721 337.108 812.796 337.603 812.796C338.097 812.796 338.447 812.735 338.653 812.614C338.867 812.493 338.975 812.292 338.975 812.012C338.975 811.732 338.872 811.541 338.667 811.438C338.471 811.326 337.99 811.209 337.225 811.088C336.469 810.957 335.913 810.757 335.559 810.486C335.204 810.215 335.027 809.721 335.027 809.002C335.027 808.283 335.269 807.747 335.755 807.392C336.249 807.037 336.879 806.86 337.645 806.86C338.242 806.86 338.975 806.935 339.843 807.084L340.277 807.168L340.249 808.442ZM346.811 808.442C345.71 808.293 344.912 808.218 344.417 808.218C343.923 808.218 343.577 808.279 343.381 808.4C343.195 808.512 343.101 808.694 343.101 808.946C343.101 809.198 343.204 809.375 343.409 809.478C343.624 809.581 344.119 809.702 344.893 809.842C345.677 809.973 346.233 810.183 346.559 810.472C346.886 810.761 347.049 811.275 347.049 812.012C347.049 812.749 346.811 813.291 346.335 813.636C345.869 813.981 345.183 814.154 344.277 814.154C343.708 814.154 342.989 814.075 342.121 813.916L341.687 813.846L341.743 812.572C342.863 812.721 343.671 812.796 344.165 812.796C344.66 812.796 345.01 812.735 345.215 812.614C345.43 812.493 345.537 812.292 345.537 812.012C345.537 811.732 345.435 811.541 345.229 811.438C345.033 811.326 344.553 811.209 343.787 811.088C343.031 810.957 342.476 810.757 342.121 810.486C341.767 810.215 341.589 809.721 341.589 809.002C341.589 808.283 341.832 807.747 342.317 807.392C342.812 807.037 343.442 806.86 344.207 806.86C344.805 806.86 345.537 806.935 346.405 807.084L346.839 807.168L346.811 808.442ZM348.516 814V807H350.042V814H348.516ZM348.516 805.81V804.2H350.042V805.81H348.516ZM355.155 806.846C356.116 806.846 356.807 807.117 357.227 807.658C357.656 808.19 357.871 809.137 357.871 810.5C357.871 811.863 357.619 812.815 357.115 813.356C356.611 813.888 355.724 814.154 354.455 814.154C354.016 814.154 353.321 814.112 352.369 814.028L351.893 813.986V804.088H353.405V807.266C354.049 806.986 354.632 806.846 355.155 806.846ZM354.455 812.796C355.201 812.796 355.696 812.623 355.939 812.278C356.191 811.923 356.317 811.326 356.317 810.486C356.317 809.646 356.209 809.058 355.995 808.722C355.789 808.377 355.449 808.204 354.973 808.204C354.525 808.204 354.077 808.274 353.629 808.414L353.405 808.484V812.74C353.918 812.777 354.268 812.796 354.455 812.796ZM359.399 814V807H360.925V814H359.399ZM359.399 805.81V804.2H360.925V805.81H359.399ZM362.86 814V804.088H364.386V814H362.86ZM366.317 814V807H367.843V814H366.317ZM366.317 805.81V804.2H367.843V805.81H366.317ZM373.46 808.302H371.528V811.382C371.528 811.951 371.57 812.329 371.654 812.516C371.738 812.703 371.952 812.796 372.298 812.796L373.446 812.754L373.516 813.972C372.89 814.093 372.414 814.154 372.088 814.154C371.294 814.154 370.748 813.972 370.45 813.608C370.16 813.244 370.016 812.558 370.016 811.55V808.302H369.12V807H370.016V804.97H371.528V807H373.46V808.302ZM379.891 809.156V812.348C379.9 812.553 379.952 812.707 380.045 812.81C380.148 812.903 380.302 812.964 380.507 812.992L380.465 814.154C379.662 814.154 379.042 813.981 378.603 813.636C377.856 813.981 377.105 814.154 376.349 814.154C374.958 814.154 374.263 813.412 374.263 811.928C374.263 811.219 374.45 810.705 374.823 810.388C375.206 810.071 375.789 809.879 376.573 809.814L378.379 809.66V809.156C378.379 808.783 378.295 808.521 378.127 808.372C377.968 808.223 377.73 808.148 377.413 808.148C376.816 808.148 376.069 808.185 375.173 808.26L374.725 808.288L374.669 807.21C375.686 806.967 376.62 806.846 377.469 806.846C378.328 806.846 378.944 807.033 379.317 807.406C379.7 807.77 379.891 808.353 379.891 809.156ZM376.755 810.892C376.111 810.948 375.789 811.298 375.789 811.942C375.789 812.586 376.074 812.908 376.643 812.908C377.11 812.908 377.604 812.833 378.127 812.684L378.379 812.6V810.738L376.755 810.892ZM375.817 803.528L379.121 804.942L378.757 805.936L375.341 804.844L375.817 803.528Z" fill="white"/>
<path d="M223 815.54H380.885V815.96H223V815.54Z" fill="white"/>
</g>
<defs>
<clipPath id="clip0_2083_8952">
<rect width="1440" height="840" fill="white"/>
</clipPath>
<clipPath id="clip1_2083_8952">
<rect width="47" height="24" fill="white" transform="translate(1321 14)"/>
</clipPath>
</defs>
</svg>
