<svg width="300" height="48" viewBox="0 0 300 48" fill="none" xmlns="http://www.w3.org/2000/svg">
<rect width="300" height="48" rx="4" fill="#0066CC"/>
<g clip-path="url(#clip0_2158_1694)">
<path d="M33.4711 12.1181C33.3255 12.0357 33.1708 11.9991 33.0207 12C32.5465 12.0037 32.1117 12.3836 32.1144 12.9127L32.141 17.7572L25.3722 13.9609C25.2258 13.8785 25.0711 13.8419 24.9209 13.8428C24.4467 13.8464 24.0156 14.2264 24.0146 14.7555L24 30.7225C24 31.4429 24.3241 32.0709 25.018 32.46L31.1029 35.8819C31.2493 35.9643 31.404 36.0009 31.5542 36C32.0284 35.9963 32.4605 35.6164 32.4605 35.0873V18.7138L35.6773 20.5044C36.3721 20.8907 36.6953 21.5215 36.6953 22.2419V31.8357L42.7124 35.2109C42.8589 35.2933 43.0136 35.3299 43.1637 35.329C43.6379 35.3253 44.07 34.9454 44.07 34.4163L44.0764 19.2338C44.0764 18.5133 43.7523 17.8854 43.0584 17.4963L33.4711 12.1181Z" fill="white"/>
</g>
<path d="M110.767 30H104.623V19.04H106.399V28.416H110.767V30ZM112.44 22.864C112.995 22.1707 113.912 21.824 115.192 21.824C116.472 21.824 117.384 22.1707 117.928 22.864C118.483 23.5573 118.76 24.5973 118.76 25.984C118.76 27.3707 118.494 28.416 117.96 29.12C117.427 29.824 116.504 30.176 115.192 30.176C113.88 30.176 112.958 29.824 112.424 29.12C111.891 28.416 111.624 27.3707 111.624 25.984C111.624 24.5973 111.896 23.5573 112.44 22.864ZM113.752 28.064C113.998 28.4907 114.478 28.704 115.192 28.704C115.907 28.704 116.387 28.4907 116.632 28.064C116.878 27.6373 117 26.9387 117 25.968C117 24.9973 116.867 24.3093 116.6 23.904C116.344 23.4987 115.875 23.296 115.192 23.296C114.51 23.296 114.035 23.4987 113.768 23.904C113.512 24.3093 113.384 24.9973 113.384 25.968C113.384 26.9387 113.507 27.6373 113.752 28.064ZM127.485 31.088C127.485 32.8373 126.221 33.712 123.693 33.712C122.477 33.712 121.575 33.5467 120.989 33.216C120.402 32.8853 120.109 32.2827 120.109 31.408C120.109 31.0133 120.205 30.672 120.397 30.384C120.589 30.1067 120.898 29.8027 121.325 29.472C120.973 29.2373 120.797 28.848 120.797 28.304C120.797 28.0907 120.941 27.744 121.229 27.264L121.373 27.024C120.605 26.5653 120.221 25.7653 120.221 24.624C120.221 23.664 120.509 22.96 121.085 22.512C121.661 22.064 122.439 21.84 123.421 21.84C123.89 21.84 124.354 21.8933 124.813 22L125.053 22.048L127.533 21.984V23.392L126.205 23.312C126.493 23.6853 126.637 24.1227 126.637 24.624C126.637 25.6693 126.37 26.3947 125.837 26.8C125.314 27.1947 124.493 27.392 123.373 27.392C123.095 27.392 122.861 27.3707 122.669 27.328C122.519 27.6907 122.445 27.9733 122.445 28.176C122.445 28.368 122.541 28.5013 122.733 28.576C122.935 28.6507 123.415 28.6933 124.173 28.704C125.442 28.7147 126.311 28.8853 126.781 29.216C127.25 29.5467 127.485 30.1707 127.485 31.088ZM121.821 31.248C121.821 31.6213 121.97 31.888 122.269 32.048C122.567 32.208 123.079 32.288 123.805 32.288C125.095 32.288 125.741 31.92 125.741 31.184C125.741 30.768 125.623 30.5013 125.389 30.384C125.165 30.2773 124.711 30.2187 124.029 30.208L122.461 30.112C122.226 30.304 122.061 30.48 121.965 30.64C121.869 30.8107 121.821 31.0133 121.821 31.248ZM121.949 24.624C121.949 25.1147 122.066 25.4773 122.301 25.712C122.535 25.936 122.914 26.048 123.437 26.048C123.959 26.048 124.333 25.936 124.557 25.712C124.791 25.4773 124.909 25.1147 124.909 24.624C124.909 24.1333 124.791 23.776 124.557 23.552C124.322 23.3173 123.943 23.2 123.421 23.2C122.439 23.2 121.949 23.6747 121.949 24.624ZM128.899 30V22H130.643V30H128.899ZM128.899 20.64V18.8H130.643V20.64H128.899ZM134.502 30H132.758V22H134.486V22.496C135.265 22.048 136.001 21.824 136.694 21.824C137.761 21.824 138.486 22.128 138.87 22.736C139.265 23.3333 139.462 24.3253 139.462 25.712V30H137.734V25.76C137.734 24.896 137.638 24.2827 137.446 23.92C137.265 23.5573 136.886 23.376 136.31 23.376C135.766 23.376 135.244 23.4827 134.742 23.696L134.502 23.792V30ZM144.384 22H146.096L147.36 28.512H147.68L149.2 22.16H150.992L152.512 28.512H152.832L154.08 22H155.808L154.112 30H151.344L150.096 24.512L148.848 30H146.08L144.384 22ZM157.29 30V22H159.034V30H157.29ZM157.29 20.64V18.8H159.034V20.64H157.29ZM165.453 23.488H163.245V27.008C163.245 27.6587 163.293 28.0907 163.389 28.304C163.485 28.5173 163.73 28.624 164.125 28.624L165.437 28.576L165.517 29.968C164.802 30.1067 164.258 30.176 163.885 30.176C162.978 30.176 162.354 29.968 162.013 29.552C161.682 29.136 161.517 28.352 161.517 27.2V23.488H160.493V22H161.517V19.68H163.245V22H165.453V23.488ZM168.627 30H166.883V18.672H168.627V22.416C169.417 22.0213 170.147 21.824 170.819 21.824C171.886 21.824 172.611 22.128 172.995 22.736C173.39 23.3333 173.587 24.3253 173.587 25.712V30H171.843V25.76C171.843 24.896 171.753 24.2827 171.571 23.92C171.39 23.5573 171.006 23.376 170.419 23.376C169.907 23.376 169.395 23.4613 168.883 23.632L168.627 23.728V30ZM179.341 30V19.04H181.117V30H179.341ZM182.582 20.624V19.04H190.582V20.624H187.494V30H185.702V20.624H182.582ZM190.819 26.48V24.896H195.603V26.48H190.819ZM196.696 19.04H198.568L200.136 28.464H200.472L202.552 19.072H204.632L206.712 28.464H207.064L208.632 19.04H210.504L208.344 30H205.48L203.592 21.216L201.72 30H198.84L196.696 19.04ZM217.631 24.464V28.112C217.642 28.3467 217.701 28.5227 217.807 28.64C217.925 28.7467 218.101 28.816 218.335 28.848L218.287 30.176C217.37 30.176 216.661 29.9787 216.159 29.584C215.306 29.9787 214.447 30.176 213.583 30.176C211.994 30.176 211.199 29.328 211.199 27.632C211.199 26.8213 211.413 26.2347 211.839 25.872C212.277 25.5093 212.943 25.2907 213.839 25.216L215.903 25.04V24.464C215.903 24.0373 215.807 23.7387 215.615 23.568C215.434 23.3973 215.162 23.312 214.799 23.312C214.117 23.312 213.263 23.3547 212.239 23.44L211.727 23.472L211.663 22.24C212.826 21.9627 213.893 21.824 214.863 21.824C215.845 21.824 216.549 22.0373 216.975 22.464C217.413 22.88 217.631 23.5467 217.631 24.464ZM214.047 26.448C213.311 26.512 212.943 26.912 212.943 27.648C212.943 28.384 213.269 28.752 213.919 28.752C214.453 28.752 215.018 28.6667 215.615 28.496L215.903 28.4V26.272L214.047 26.448ZM219.917 30V18.672H221.661V30H219.917ZM223.964 30V18.672H225.708V30H223.964ZM233.611 28.56L234.059 28.512L234.091 29.808C232.875 30.0533 231.797 30.176 230.859 30.176C229.675 30.176 228.821 29.8507 228.299 29.2C227.787 28.5493 227.531 27.5093 227.531 26.08C227.531 23.2427 228.688 21.824 231.003 21.824C233.243 21.824 234.363 23.0453 234.363 25.488L234.251 26.736H229.291C229.301 27.3973 229.445 27.8827 229.723 28.192C230 28.5013 230.517 28.656 231.275 28.656C232.032 28.656 232.811 28.624 233.611 28.56ZM232.651 25.392C232.651 24.6027 232.523 24.0533 232.267 23.744C232.021 23.424 231.6 23.264 231.003 23.264C230.405 23.264 229.968 23.4293 229.691 23.76C229.424 24.0907 229.285 24.6347 229.275 25.392H232.651ZM240.344 23.488H238.136V27.008C238.136 27.6587 238.184 28.0907 238.28 28.304C238.376 28.5173 238.621 28.624 239.016 28.624L240.328 28.576L240.408 29.968C239.693 30.1067 239.149 30.176 238.776 30.176C237.869 30.176 237.245 29.968 236.904 29.552C236.573 29.136 236.408 28.352 236.408 27.2V23.488H235.384V22H236.408V19.68H238.136V22H240.344V23.488Z" fill="white"/>
<defs>
<clipPath id="clip0_2158_1694">
<rect width="20.0764" height="24" fill="white" transform="translate(24 12)"/>
</clipPath>
</defs>
</svg>
