<svg xmlns="http://www.w3.org/2000/svg" xmlns:xlink="http://www.w3.org/1999/xlink" contentStyleType="text/css" data-diagram-type="SEQUENCE" height="1602px" preserveAspectRatio="none" style="width:1374px;height:1602px;background:#FFFFFF;" version="1.1" viewBox="0 0 1374 1602" width="1374px" zoomAndPan="magnify"><defs/><g><rect fill="#ADD8E6" height="1590.5078" style="stroke:#181818;stroke-width:0.5;" width="467.4092" x="167.1709" y="6"/><text fill="#000000" font-family="sans-serif" font-size="13" font-weight="bold" lengthAdjust="spacing" textLength="106.5645" x="347.5933" y="18.0669">User's Devices</text><rect fill="#ADD8E6" height="1590.5078" style="stroke:#181818;stroke-width:0.5;" width="458.2202" x="893.353" y="6"/><text fill="#000000" font-family="sans-serif" font-size="13" font-weight="bold" lengthAdjust="spacing" textLength="98.6997" x="1073.1133" y="18.0669">Relying Party</text><g><title>User</title><rect fill="#FFFFFF" height="51.1328" style="stroke:#181818;stroke-width:1;" width="10" x="18.9551" y="91.2969"/></g><g><title>User</title><rect fill="#FFFFFF" height="29.1328" style="stroke:#181818;stroke-width:1;" width="10" x="18.9551" y="836.8906"/></g><g><title>Wallet Instance</title><rect fill="#FFFFFF" height="1015.1875" style="stroke:#181818;stroke-width:1;" width="10" x="227.3218" y="330.2266"/></g><g><title>user-agent</title><rect fill="#FFFFFF" height="217.7969" style="stroke:#181818;stroke-width:1;" width="10" x="580.5654" y="112.4297"/></g><g><title>user-agent</title><rect fill="#FFFFFF" height="214.0625" style="stroke:#181818;stroke-width:1;" width="10" x="580.5654" y="1285.1484"/></g><g><title>Relying Party</title><rect fill="#FFFFFF" height="129.5313" style="stroke:#181818;stroke-width:1;" width="10" x="949.2212" y="171.5625"/></g><g><title>Relying Party</title><rect fill="#FFFFFF" height="137.2031" style="stroke:#181818;stroke-width:1;" width="10" x="949.2212" y="552.1563"/></g><g><title>Relying Party</title><rect fill="#FFFFFF" height="435.125" style="stroke:#181818;stroke-width:1;" width="10" x="949.2212" y="910.2891"/></g><g><title>Relying Party</title><rect fill="#FFFFFF" height="29.1328" style="stroke:#181818;stroke-width:1;" width="10" x="949.2212" y="1470.0781"/></g><g><title>status endpoint</title><rect fill="#FFFFFF" height="44.2656" style="stroke:#181818;stroke-width:1;" width="10" x="1280.8003" y="1389.6797"/></g><rect fill="none" height="59.2656" style="stroke:#000000;stroke-width:1.5;" width="210.6118" x="161.1709" y="345.2266"/><rect fill="none" height="192.6016" style="stroke:#000000;stroke-width:1.5;" width="1137.8882" x="151.1709" y="489.7578"/><rect fill="none" height="132.3359" style="stroke:#000000;stroke-width:1.5;" width="1117.8882" x="161.1709" y="513.8906"/><rect fill="none" height="90.5313" style="stroke:#000000;stroke-width:1.5;" width="859.9185" x="161.1709" y="1202.6172"/><rect fill="none" height="134.7969" style="stroke:#000000;stroke-width:1.5;" width="1196.4023" x="161.1709" y="1307.1484"/><g><title>User</title><rect fill="#000000" fill-opacity="0.00000" height="1435.9141" width="8" x="19.9551" y="81.2969"/><line style="stroke:#181818;stroke-width:0.5;stroke-dasharray:5.0,5.0;" x1="23" x2="23" y1="81.2969" y2="1517.2109"/></g><g><title>Wallet Instance</title><rect fill="#000000" fill-opacity="0.00000" height="1435.9141" width="8" x="228.3218" y="81.2969"/><line style="stroke:#181818;stroke-width:0.5;stroke-dasharray:5.0,5.0;" x1="232.1709" x2="232.1709" y1="81.2969" y2="1517.2109"/></g><g><title>user-agent</title><rect fill="#000000" fill-opacity="0.00000" height="1435.9141" width="8" x="581.5654" y="81.2969"/><line style="stroke:#181818;stroke-width:0.5;stroke-dasharray:5.0,5.0;" x1="585.5508" x2="585.5508" y1="81.2969" y2="1517.2109"/></g><g><title>Relying Party</title><rect fill="#000000" fill-opacity="0.00000" height="1435.9141" width="8" x="950.2212" y="81.2969"/><line style="stroke:#181818;stroke-width:0.5;stroke-dasharray:5.0,5.0;" x1="953.353" x2="953.353" y1="81.2969" y2="1517.2109"/></g><g><title>status endpoint</title><rect fill="#000000" fill-opacity="0.00000" height="1435.9141" width="8" x="1281.8003" y="81.2969"/><line style="stroke:#181818;stroke-width:0.5;stroke-dasharray:5.0,5.0;" x1="1285.0273" x2="1285.0273" y1="81.2969" y2="1517.2109"/></g><g class="participant participant-head" data-participant="u"><text fill="#000000" font-family="sans-serif" font-size="14" lengthAdjust="spacing" textLength="31.9102" x="5" y="77.9951">User</text><ellipse cx="23.9551" cy="13.5" fill="#E2E2F0" rx="8" ry="8" style="stroke:#181818;stroke-width:0.5;"/><path d="M23.9551,21.5 L23.9551,48.5 M10.9551,29.5 L36.9551,29.5 M23.9551,48.5 L10.9551,63.5 M23.9551,48.5 L36.9551,63.5" fill="none" style="stroke:#181818;stroke-width:0.5;"/></g><g class="participant participant-tail" data-participant="u"><text fill="#000000" font-family="sans-serif" font-size="14" lengthAdjust="spacing" textLength="31.9102" x="5" y="1529.2061">User</text><ellipse cx="23.9551" cy="1541.0078" fill="#E2E2F0" rx="8" ry="8" style="stroke:#181818;stroke-width:0.5;"/><path d="M23.9551,1549.0078 L23.9551,1576.0078 M10.9551,1557.0078 L36.9551,1557.0078 M23.9551,1576.0078 L10.9551,1591.0078 M23.9551,1576.0078 L36.9551,1591.0078" fill="none" style="stroke:#181818;stroke-width:0.5;"/></g><g class="participant participant-head" data-participant="w"><rect fill="#E2E2F0" height="30.2969" rx="2.5" ry="2.5" style="stroke:#181818;stroke-width:0.5;" width="122.3018" x="171.1709" y="50"/><text fill="#000000" font-family="sans-serif" font-size="14" lengthAdjust="spacing" textLength="108.3018" x="178.1709" y="69.9951">Wallet Instance</text></g><g class="participant participant-tail" data-participant="w"><rect fill="#E2E2F0" height="30.2969" rx="2.5" ry="2.5" style="stroke:#181818;stroke-width:0.5;" width="122.3018" x="171.1709" y="1516.2109"/><text fill="#000000" font-family="sans-serif" font-size="14" lengthAdjust="spacing" textLength="108.3018" x="178.1709" y="1536.2061">Wallet Instance</text></g><g class="participant participant-head" data-participant="ua"><rect fill="#E2E2F0" height="30.2969" rx="2.5" ry="2.5" style="stroke:#181818;stroke-width:0.5;" width="90.0293" x="540.5508" y="50"/><text fill="#000000" font-family="sans-serif" font-size="14" lengthAdjust="spacing" textLength="76.0293" x="547.5508" y="69.9951">user-agent</text></g><g class="participant participant-tail" data-participant="ua"><rect fill="#E2E2F0" height="30.2969" rx="2.5" ry="2.5" style="stroke:#181818;stroke-width:0.5;" width="90.0293" x="540.5508" y="1516.2109"/><text fill="#000000" font-family="sans-serif" font-size="14" lengthAdjust="spacing" textLength="76.0293" x="547.5508" y="1536.2061">user-agent</text></g><g class="participant participant-head" data-participant="ve"><rect fill="#E2E2F0" height="46.5938" rx="2.5" ry="2.5" style="stroke:#181818;stroke-width:0.5;" width="113.7363" x="897.353" y="33.7031"/><text fill="#000000" font-family="sans-serif" font-size="14" lengthAdjust="spacing" textLength="93.167" x="907.6377" y="53.6982">Relying Party</text><text fill="#000000" font-family="sans-serif" font-size="14" lengthAdjust="spacing" textLength="99.7363" x="904.353" y="69.9951">(OAuth Client)</text></g><g class="participant participant-tail" data-participant="ve"><rect fill="#E2E2F0" height="46.5938" rx="2.5" ry="2.5" style="stroke:#181818;stroke-width:0.5;" width="113.7363" x="897.353" y="1516.2109"/><text fill="#000000" font-family="sans-serif" font-size="14" lengthAdjust="spacing" textLength="93.167" x="907.6377" y="1536.2061">Relying Party</text><text fill="#000000" font-family="sans-serif" font-size="14" lengthAdjust="spacing" textLength="99.7363" x="904.353" y="1552.5029">(OAuth Client)</text></g><g class="participant participant-head" data-participant="se"><rect fill="#E2E2F0" height="30.2969" rx="2.5" ry="2.5" style="stroke:#181818;stroke-width:0.5;" width="123.5459" x="1224.0273" y="50"/><text fill="#000000" font-family="sans-serif" font-size="14" lengthAdjust="spacing" textLength="109.5459" x="1231.0273" y="69.9951">status endpoint</text></g><g class="participant participant-tail" data-participant="se"><rect fill="#E2E2F0" height="30.2969" rx="2.5" ry="2.5" style="stroke:#181818;stroke-width:0.5;" width="123.5459" x="1224.0273" y="1516.2109"/><text fill="#000000" font-family="sans-serif" font-size="14" lengthAdjust="spacing" textLength="109.5459" x="1231.0273" y="1536.2061">status endpoint</text></g><g><title>User</title><rect fill="#FFFFFF" height="51.1328" style="stroke:#181818;stroke-width:1;" width="10" x="18.9551" y="91.2969"/></g><g><title>User</title><rect fill="#FFFFFF" height="29.1328" style="stroke:#181818;stroke-width:1;" width="10" x="18.9551" y="836.8906"/></g><g><title>Wallet Instance</title><rect fill="#FFFFFF" height="1015.1875" style="stroke:#181818;stroke-width:1;" width="10" x="227.3218" y="330.2266"/></g><g><title>user-agent</title><rect fill="#FFFFFF" height="217.7969" style="stroke:#181818;stroke-width:1;" width="10" x="580.5654" y="112.4297"/></g><g><title>user-agent</title><rect fill="#FFFFFF" height="214.0625" style="stroke:#181818;stroke-width:1;" width="10" x="580.5654" y="1285.1484"/></g><g><title>Relying Party</title><rect fill="#FFFFFF" height="129.5313" style="stroke:#181818;stroke-width:1;" width="10" x="949.2212" y="171.5625"/></g><g><title>Relying Party</title><rect fill="#FFFFFF" height="137.2031" style="stroke:#181818;stroke-width:1;" width="10" x="949.2212" y="552.1563"/></g><g><title>Relying Party</title><rect fill="#FFFFFF" height="435.125" style="stroke:#181818;stroke-width:1;" width="10" x="949.2212" y="910.2891"/></g><g><title>Relying Party</title><rect fill="#FFFFFF" height="29.1328" style="stroke:#181818;stroke-width:1;" width="10" x="949.2212" y="1470.0781"/></g><g><title>status endpoint</title><rect fill="#FFFFFF" height="44.2656" style="stroke:#181818;stroke-width:1;" width="10" x="1280.8003" y="1389.6797"/></g><g class="message" data-participant-1="u" data-participant-2="ua"><polygon fill="#181818" points="568.5654,108.4297,578.5654,112.4297,568.5654,116.4297,572.5654,112.4297" style="stroke:#181818;stroke-width:1;"/><line style="stroke:#181818;stroke-width:1;" x1="28.9551" x2="574.5654" y1="112.4297" y2="112.4297"/><text fill="#000000" font-family="sans-serif" font-size="13" font-weight="bold" lengthAdjust="spacing" textLength="9.0454" x="35.9551" y="107.3638">1</text><text fill="#000000" font-family="sans-serif" font-size="13" lengthAdjust="spacing" textLength="154.0449" x="49.0005" y="107.3638">Web Service navigation</text></g><g class="message" data-participant-1="ua" data-participant-2="ve"><polygon fill="#181818" points="937.2212,167.5625,947.2212,171.5625,937.2212,175.5625,941.2212,171.5625" style="stroke:#181818;stroke-width:1;"/><line style="stroke:#181818;stroke-width:1;" x1="590.5654" x2="943.2212" y1="171.5625" y2="171.5625"/><text fill="#000000" font-family="sans-serif" font-size="13" font-weight="bold" lengthAdjust="spacing" textLength="9.0454" x="597.5654" y="166.4966">2</text><text fill="#000000" font-family="sans-serif" font-size="13" lengthAdjust="spacing" textLength="184.8691" x="610.6108" y="166.4966">Request Protected Resource</text></g><rect fill="#EEEEEE" height="3" style="stroke:#EEEEEE;stroke-width:1;" width="1367.5732" x="0" y="200.1289"/><line style="stroke:#000000;stroke-width:1;" x1="0" x2="1367.5732" y1="200.1289" y2="200.1289"/><line style="stroke:#000000;stroke-width:1;" x1="0" x2="1367.5732" y1="203.1289" y2="203.1289"/><rect fill="#EEEEEE" height="23.1328" style="stroke:#000000;stroke-width:2;" width="161.5703" x="603.0015" y="189.5625"/><text fill="#000000" font-family="sans-serif" font-size="13" font-weight="bold" lengthAdjust="spacing" textLength="143.0444" x="609.0015" y="205.6294">Presentation Phase</text><g class="message" data-participant-1="ve" data-participant-2="ve"><line style="stroke:#181818;stroke-width:1;" x1="959.2212" x2="1001.2212" y1="258.9609" y2="258.9609"/><line style="stroke:#181818;stroke-width:1;" x1="1001.2212" x2="1001.2212" y1="258.9609" y2="271.9609"/><line style="stroke:#181818;stroke-width:1;" x1="960.2212" x2="1001.2212" y1="271.9609" y2="271.9609"/><polygon fill="#181818" points="970.2212,267.9609,960.2212,271.9609,970.2212,275.9609,966.2212,271.9609" style="stroke:#181818;stroke-width:1;"/><text fill="#000000" font-family="sans-serif" font-size="13" font-weight="bold" lengthAdjust="spacing" textLength="9.0454" x="966.2212" y="246.3286">3</text><text fill="#000000" font-family="sans-serif" font-size="13" lengthAdjust="spacing" textLength="155.2446" x="979.2666" y="238.7622">Inspect user-agent type</text><text fill="#000000" font-family="sans-serif" font-size="13" lengthAdjust="spacing" textLength="247.5269" x="979.2666" y="253.895">to detect cross device or same device</text></g><g class="message" data-participant-1="ve" data-participant-2="ua"><polygon fill="#181818" points="601.5654,297.0938,591.5654,301.0938,601.5654,305.0938,597.5654,301.0938" style="stroke:#181818;stroke-width:1;"/><line style="stroke:#181818;stroke-width:1;" x1="595.5654" x2="953.2212" y1="301.0938" y2="301.0938"/><text fill="#000000" font-family="sans-serif" font-size="13" font-weight="bold" lengthAdjust="spacing" textLength="9.0454" x="607.5654" y="296.0278">4</text><text fill="#000000" font-family="sans-serif" font-size="13" lengthAdjust="spacing" textLength="321.6104" x="620.6108" y="296.0278">html page with QRCode or href containing the url</text></g><g class="message" data-participant-1="ua" data-participant-2="u"><polygon fill="#181818" points="34.9551,326.2266,24.9551,330.2266,34.9551,334.2266,30.9551,330.2266" style="stroke:#181818;stroke-width:1;"/><line style="stroke:#181818;stroke-width:1;" x1="28.9551" x2="584.5654" y1="330.2266" y2="330.2266"/><text fill="#000000" font-family="sans-serif" font-size="13" font-weight="bold" lengthAdjust="spacing" textLength="9.0454" x="40.9551" y="325.1606">5</text><text fill="#000000" font-family="sans-serif" font-size="13" lengthAdjust="spacing" textLength="307.2012" x="54.0005" y="325.1606">Show the QRCode page or click the href button</text></g><path d="M161.1709,345.2266 L335.7583,345.2266 L335.7583,352.3594 L325.7583,362.3594 L161.1709,362.3594 L161.1709,345.2266" fill="#EEEEEE" style="stroke:#000000;stroke-width:1.5;"/><rect fill="none" height="59.2656" style="stroke:#000000;stroke-width:1.5;" width="210.6118" x="161.1709" y="345.2266"/><text fill="#000000" font-family="sans-serif" font-size="13" font-weight="bold" lengthAdjust="spacing" textLength="129.5874" x="176.1709" y="358.2935">Cross Device only</text><g class="message" data-participant-1="w" data-participant-2="w"><line style="stroke:#181818;stroke-width:1;" x1="237.3218" x2="279.3218" y1="383.4922" y2="383.4922"/><line style="stroke:#181818;stroke-width:1;" x1="279.3218" x2="279.3218" y1="383.4922" y2="396.4922"/><line style="stroke:#181818;stroke-width:1;" x1="238.3218" x2="279.3218" y1="396.4922" y2="396.4922"/><polygon fill="#181818" points="248.3218,392.4922,238.3218,396.4922,248.3218,400.4922,244.3218,396.4922" style="stroke:#181818;stroke-width:1;"/><text fill="#000000" font-family="sans-serif" font-size="13" font-weight="bold" lengthAdjust="spacing" textLength="9.0454" x="244.3218" y="378.4263">6</text><text fill="#000000" font-family="sans-serif" font-size="13" lengthAdjust="spacing" textLength="92.4155" x="257.3672" y="378.4263">Scan QR Code</text></g><g class="message" data-participant-1="u" data-participant-2="w"><polygon fill="#181818" points="215.3218,428.625,225.3218,432.625,215.3218,436.625,219.3218,432.625" style="stroke:#181818;stroke-width:1;"/><line style="stroke:#181818;stroke-width:1;stroke-dasharray:2.0,2.0;" x1="23.9551" x2="221.3218" y1="432.625" y2="432.625"/><text fill="#000000" font-family="sans-serif" font-size="13" font-weight="bold" lengthAdjust="spacing" textLength="9.0454" x="30.9551" y="427.5591">7</text><text fill="#000000" font-family="sans-serif" font-size="13" lengthAdjust="spacing" textLength="166.3213" x="44.0005" y="427.5591">Local User authentication</text></g><g class="message" data-participant-1="w" data-participant-2="w"><line style="stroke:#181818;stroke-width:1;" x1="237.3218" x2="279.3218" y1="461.7578" y2="461.7578"/><line style="stroke:#181818;stroke-width:1;" x1="279.3218" x2="279.3218" y1="461.7578" y2="474.7578"/><line style="stroke:#181818;stroke-width:1;" x1="238.3218" x2="279.3218" y1="474.7578" y2="474.7578"/><polygon fill="#181818" points="248.3218,470.7578,238.3218,474.7578,248.3218,478.7578,244.3218,474.7578" style="stroke:#181818;stroke-width:1;"/><text fill="#000000" font-family="sans-serif" font-size="13" font-weight="bold" lengthAdjust="spacing" textLength="9.0454" x="244.3218" y="456.6919">8</text><text fill="#000000" font-family="sans-serif" font-size="13" lengthAdjust="spacing" textLength="206.8511" x="257.3672" y="456.6919">Evaluate trust with the client_id</text></g><path d="M151.1709,489.7578 L215.6138,489.7578 L215.6138,496.8906 L205.6138,506.8906 L151.1709,506.8906 L151.1709,489.7578" fill="#EEEEEE" style="stroke:#000000;stroke-width:1.5;"/><rect fill="none" height="192.6016" style="stroke:#000000;stroke-width:1.5;" width="1137.8882" x="151.1709" y="489.7578"/><text fill="#000000" font-family="sans-serif" font-size="13" font-weight="bold" lengthAdjust="spacing" textLength="19.4429" x="166.1709" y="502.8247">alt</text><text fill="#000000" font-family="sans-serif" font-size="11" font-weight="bold" lengthAdjust="spacing" textLength="199.939" x="230.6138" y="501.9683">[if Request Object by reference]</text><path d="M161.1709,513.8906 L225.6138,513.8906 L225.6138,521.0234 L215.6138,531.0234 L161.1709,531.0234 L161.1709,513.8906" fill="#EEEEEE" style="stroke:#000000;stroke-width:1.5;"/><rect fill="none" height="132.3359" style="stroke:#000000;stroke-width:1.5;" width="1117.8882" x="161.1709" y="513.8906"/><text fill="#000000" font-family="sans-serif" font-size="13" font-weight="bold" lengthAdjust="spacing" textLength="19.4429" x="176.1709" y="526.9575">alt</text><text fill="#000000" font-family="sans-serif" font-size="11" font-weight="bold" lengthAdjust="spacing" textLength="250.5293" x="240.6138" y="526.1011">[if request_uri_method is set with POST]</text><g class="message" data-participant-1="w" data-participant-2="ve"><polygon fill="#181818" points="937.2212,548.1563,947.2212,552.1563,937.2212,556.1563,941.2212,552.1563" style="stroke:#181818;stroke-width:1;"/><line style="stroke:#181818;stroke-width:1;" x1="237.3218" x2="943.2212" y1="552.1563" y2="552.1563"/><text fill="#000000" font-family="sans-serif" font-size="13" font-weight="bold" lengthAdjust="spacing" textLength="9.0454" x="244.3218" y="547.0903">9</text><text fill="#000000" font-family="sans-serif" font-size="13" lengthAdjust="spacing" textLength="343.0591" x="257.3672" y="547.0903">Provide Wallet metadata to the request_uri endpoint</text></g><g class="message" data-participant-1="ve" data-participant-2="ve"><line style="stroke:#181818;stroke-width:1;" x1="959.2212" x2="1001.2212" y1="581.2891" y2="581.2891"/><line style="stroke:#181818;stroke-width:1;" x1="1001.2212" x2="1001.2212" y1="581.2891" y2="594.2891"/><line style="stroke:#181818;stroke-width:1;" x1="960.2212" x2="1001.2212" y1="594.2891" y2="594.2891"/><polygon fill="#181818" points="970.2212,590.2891,960.2212,594.2891,970.2212,598.2891,966.2212,594.2891" style="stroke:#181818;stroke-width:1;"/><text fill="#000000" font-family="sans-serif" font-size="13" font-weight="bold" lengthAdjust="spacing" textLength="18.0908" x="966.2212" y="576.2231">10</text><text fill="#000000" font-family="sans-serif" font-size="13" lengthAdjust="spacing" textLength="268.7471" x="988.312" y="576.2231">Evaluate the Wallet technical capabilities</text></g><line style="stroke:#000000;stroke-width:1;stroke-dasharray:2.0,2.0;" x1="161.1709" x2="1279.0591" y1="603.2891" y2="603.2891"/><text fill="#000000" font-family="sans-serif" font-size="11" font-weight="bold" lengthAdjust="spacing" textLength="334.7104" x="166.1709" y="613.4995">[if request_uri_method is set with GET or not present]</text><g class="message" data-participant-1="w" data-participant-2="ve"><polygon fill="#181818" points="937.2212,634.2266,947.2212,638.2266,937.2212,642.2266,941.2212,638.2266" style="stroke:#181818;stroke-width:1;"/><line style="stroke:#181818;stroke-width:1;" x1="237.3218" x2="943.2212" y1="638.2266" y2="638.2266"/><text fill="#000000" font-family="sans-serif" font-size="13" font-weight="bold" lengthAdjust="spacing" textLength="18.0908" x="244.3218" y="633.1606">11</text><text fill="#000000" font-family="sans-serif" font-size="13" lengthAdjust="spacing" textLength="423.5854" x="266.4126" y="633.1606">Request the signed request object from the request_uri endpoint</text></g><g class="message" data-participant-1="ve" data-participant-2="w"><polygon fill="#181818" points="248.3218,670.3594,238.3218,674.3594,248.3218,678.3594,244.3218,674.3594" style="stroke:#181818;stroke-width:1;"/><line style="stroke:#181818;stroke-width:1;stroke-dasharray:2.0,2.0;" x1="242.3218" x2="948.2212" y1="674.3594" y2="674.3594"/><text fill="#000000" font-family="sans-serif" font-size="13" font-weight="bold" lengthAdjust="spacing" textLength="18.0908" x="254.3218" y="669.2935">12</text><text fill="#000000" font-family="sans-serif" font-size="13" lengthAdjust="spacing" textLength="147.1196" x="276.4126" y="669.2935">signed Request Object</text></g><g class="message" data-participant-1="w" data-participant-2="w"><line style="stroke:#181818;stroke-width:1;" x1="237.3218" x2="279.3218" y1="710.4922" y2="710.4922"/><line style="stroke:#181818;stroke-width:1;" x1="279.3218" x2="279.3218" y1="710.4922" y2="723.4922"/><line style="stroke:#181818;stroke-width:1;" x1="238.3218" x2="279.3218" y1="723.4922" y2="723.4922"/><polygon fill="#181818" points="248.3218,719.4922,238.3218,723.4922,248.3218,727.4922,244.3218,723.4922" style="stroke:#181818;stroke-width:1;"/><text fill="#000000" font-family="sans-serif" font-size="13" font-weight="bold" lengthAdjust="spacing" textLength="18.0908" x="244.3218" y="705.4263">13</text><text fill="#000000" font-family="sans-serif" font-size="13" lengthAdjust="spacing" textLength="294.8042" x="266.4126" y="705.4263">Evaluate Relying Party Metadata and policies</text></g><g class="message" data-participant-1="w" data-participant-2="w"><line style="stroke:#181818;stroke-width:1;" x1="237.3218" x2="279.3218" y1="752.625" y2="752.625"/><line style="stroke:#181818;stroke-width:1;" x1="279.3218" x2="279.3218" y1="752.625" y2="765.625"/><line style="stroke:#181818;stroke-width:1;" x1="238.3218" x2="279.3218" y1="765.625" y2="765.625"/><polygon fill="#181818" points="248.3218,761.625,238.3218,765.625,248.3218,769.625,244.3218,765.625" style="stroke:#181818;stroke-width:1;"/><text fill="#000000" font-family="sans-serif" font-size="13" font-weight="bold" lengthAdjust="spacing" textLength="18.0908" x="244.3218" y="747.5591">14</text><text fill="#000000" font-family="sans-serif" font-size="13" lengthAdjust="spacing" textLength="297.1528" x="266.4126" y="747.5591">Verify signature of the signed Request Object</text></g><g class="message" data-participant-1="w" data-participant-2="w"><line style="stroke:#181818;stroke-width:1;" x1="237.3218" x2="279.3218" y1="794.7578" y2="794.7578"/><line style="stroke:#181818;stroke-width:1;" x1="279.3218" x2="279.3218" y1="794.7578" y2="807.7578"/><line style="stroke:#181818;stroke-width:1;" x1="238.3218" x2="279.3218" y1="807.7578" y2="807.7578"/><polygon fill="#181818" points="248.3218,803.7578,238.3218,807.7578,248.3218,811.7578,244.3218,807.7578" style="stroke:#181818;stroke-width:1;"/><text fill="#000000" font-family="sans-serif" font-size="13" font-weight="bold" lengthAdjust="spacing" textLength="18.0908" x="244.3218" y="789.6919">15</text><text fill="#000000" font-family="sans-serif" font-size="13" lengthAdjust="spacing" textLength="161.2622" x="266.4126" y="789.6919">Validate requested VP(s)</text></g><g class="message" data-participant-1="w" data-participant-2="u"><polygon fill="#181818" points="39.9551,832.8906,29.9551,836.8906,39.9551,840.8906,35.9551,836.8906" style="stroke:#181818;stroke-width:1;"/><line style="stroke:#181818;stroke-width:1;" x1="33.9551" x2="226.3218" y1="836.8906" y2="836.8906"/><text fill="#000000" font-family="sans-serif" font-size="13" font-weight="bold" lengthAdjust="spacing" textLength="18.0908" x="45.9551" y="831.8247">16</text><text fill="#000000" font-family="sans-serif" font-size="13" lengthAdjust="spacing" textLength="130.9775" x="68.0459" y="831.8247">Request for consent</text></g><g class="message" data-participant-1="u" data-participant-2="w"><polygon fill="#181818" points="215.3218,862.0234,225.3218,866.0234,215.3218,870.0234,219.3218,866.0234" style="stroke:#181818;stroke-width:1;"/><line style="stroke:#181818;stroke-width:1;stroke-dasharray:2.0,2.0;" x1="23.9551" x2="221.3218" y1="866.0234" y2="866.0234"/><text fill="#000000" font-family="sans-serif" font-size="13" font-weight="bold" lengthAdjust="spacing" textLength="18.0908" x="30.9551" y="860.9575">17</text><text fill="#000000" font-family="sans-serif" font-size="13" lengthAdjust="spacing" textLength="67.7168" x="53.0459" y="860.9575">Confirmed</text></g><g class="message" data-participant-1="w" data-participant-2="ve"><polygon fill="#181818" points="937.2212,906.2891,947.2212,910.2891,937.2212,914.2891,941.2212,910.2891" style="stroke:#181818;stroke-width:1;"/><line style="stroke:#181818;stroke-width:1;" x1="237.3218" x2="943.2212" y1="910.2891" y2="910.2891"/><text fill="#000000" font-family="sans-serif" font-size="13" font-weight="bold" lengthAdjust="spacing" textLength="18.0908" x="244.3218" y="897.6567">18</text><text fill="#000000" font-family="sans-serif" font-size="13" lengthAdjust="spacing" textLength="192.6196" x="266.4126" y="890.0903">POST Authorization Response</text><text fill="#000000" font-family="sans-serif" font-size="13" lengthAdjust="spacing" textLength="132.1709" x="270.5449" y="905.2231">with vp_token, state</text></g><g class="message" data-participant-1="ve" data-participant-2="ve"><line style="stroke:#181818;stroke-width:1;" x1="959.2212" x2="1001.2212" y1="939.4219" y2="939.4219"/><line style="stroke:#181818;stroke-width:1;" x1="1001.2212" x2="1001.2212" y1="939.4219" y2="952.4219"/><line style="stroke:#181818;stroke-width:1;" x1="960.2212" x2="1001.2212" y1="952.4219" y2="952.4219"/><polygon fill="#181818" points="970.2212,948.4219,960.2212,952.4219,970.2212,956.4219,966.2212,952.4219" style="stroke:#181818;stroke-width:1;"/><text fill="#000000" font-family="sans-serif" font-size="13" font-weight="bold" lengthAdjust="spacing" textLength="18.0908" x="966.2212" y="934.356">19</text><text fill="#000000" font-family="sans-serif" font-size="13" lengthAdjust="spacing" textLength="275.4883" x="988.312" y="934.356">Evaluate the Verifiable Presentation token</text></g><g class="message" data-participant-1="ve" data-participant-2="ve"><line style="stroke:#181818;stroke-width:1;" x1="959.2212" x2="1001.2212" y1="996.6875" y2="996.6875"/><line style="stroke:#181818;stroke-width:1;" x1="1001.2212" x2="1001.2212" y1="996.6875" y2="1009.6875"/><line style="stroke:#181818;stroke-width:1;" x1="960.2212" x2="1001.2212" y1="1009.6875" y2="1009.6875"/><polygon fill="#181818" points="970.2212,1005.6875,960.2212,1009.6875,970.2212,1013.6875,966.2212,1009.6875" style="stroke:#181818;stroke-width:1;"/><text fill="#000000" font-family="sans-serif" font-size="13" font-weight="bold" lengthAdjust="spacing" textLength="18.0908" x="966.2212" y="984.0552">20</text><text fill="#000000" font-family="sans-serif" font-size="13" lengthAdjust="spacing" textLength="190.9058" x="988.312" y="976.4888">Attest Credential Issuer Trust</text><text fill="#000000" font-family="sans-serif" font-size="13" lengthAdjust="spacing" textLength="177.8804" x="992.4443" y="991.6216">and Validate JWT Signature</text></g><g class="message" data-participant-1="ve" data-participant-2="ve"><line style="stroke:#181818;stroke-width:1;" x1="959.2212" x2="1001.2212" y1="1038.8203" y2="1038.8203"/><line style="stroke:#181818;stroke-width:1;" x1="1001.2212" x2="1001.2212" y1="1038.8203" y2="1051.8203"/><line style="stroke:#181818;stroke-width:1;" x1="960.2212" x2="1001.2212" y1="1051.8203" y2="1051.8203"/><polygon fill="#181818" points="970.2212,1047.8203,960.2212,1051.8203,970.2212,1055.8203,966.2212,1051.8203" style="stroke:#181818;stroke-width:1;"/><text fill="#000000" font-family="sans-serif" font-size="13" font-weight="bold" lengthAdjust="spacing" textLength="18.0908" x="966.2212" y="1033.7544">21</text><text fill="#000000" font-family="sans-serif" font-size="13" lengthAdjust="spacing" textLength="144.6948" x="988.312" y="1033.7544">Process the credential</text></g><rect fill="#90EE90" height="83" style="stroke:#181818;stroke-width:0.5;" width="537" x="685" y="1064.8203"/><text fill="#000000" font-family="sans-serif" font-size="13" lengthAdjust="spacing" textLength="149.0747" x="689" y="1080.8872">Process the credential:</text><text fill="#000000" font-family="sans-serif" font-size="13" lengthAdjust="spacing" textLength="374.6069" x="693.1323" y="1096.02">- Check Holder Key Binding and Proof of Possession using</text><text fill="#000000" font-family="sans-serif" font-size="13" lengthAdjust="spacing" textLength="399.4263" x="701.397" y="1111.1528">the public key bound in the Credential to verify the VP token.</text><text fill="#000000" font-family="sans-serif" font-size="13" lengthAdjust="spacing" textLength="4.1323" x="689" y="1126.2856">&#160;</text><text fill="#000000" font-family="sans-serif" font-size="13" lengthAdjust="spacing" textLength="525.8271" x="693.1323" y="1141.4185">- Extract the disclosed attributes and check if all the required data are available.</text><g class="message" data-participant-1="ve" data-participant-2="ve"><line style="stroke:#181818;stroke-width:1;" x1="959.2212" x2="1001.2212" y1="1174.6172" y2="1174.6172"/><line style="stroke:#181818;stroke-width:1;" x1="1001.2212" x2="1001.2212" y1="1174.6172" y2="1187.6172"/><line style="stroke:#181818;stroke-width:1;" x1="960.2212" x2="1001.2212" y1="1187.6172" y2="1187.6172"/><polygon fill="#181818" points="970.2212,1183.6172,960.2212,1187.6172,970.2212,1191.6172,966.2212,1187.6172" style="stroke:#181818;stroke-width:1;"/><text fill="#000000" font-family="sans-serif" font-size="13" font-weight="bold" lengthAdjust="spacing" textLength="18.0908" x="966.2212" y="1169.5513">22</text><text fill="#000000" font-family="sans-serif" font-size="13" lengthAdjust="spacing" textLength="273.2222" x="988.312" y="1169.5513">Update the User session (cookie updated)</text></g><path d="M161.1709,1202.6172 L426.0029,1202.6172 L426.0029,1209.75 L416.0029,1219.75 L161.1709,1219.75 L161.1709,1202.6172" fill="#EEEEEE" style="stroke:#000000;stroke-width:1.5;"/><rect fill="none" height="90.5313" style="stroke:#000000;stroke-width:1.5;" width="859.9185" x="161.1709" y="1202.6172"/><text fill="#000000" font-family="sans-serif" font-size="13" font-weight="bold" lengthAdjust="spacing" textLength="219.832" x="176.1709" y="1215.6841">Same Device with redirect_uri</text><g class="message" data-participant-1="ve" data-participant-2="w"><polygon fill="#181818" points="248.3218,1252.0156,238.3218,1256.0156,248.3218,1260.0156,244.3218,1256.0156" style="stroke:#181818;stroke-width:1;"/><line style="stroke:#181818;stroke-width:1;stroke-dasharray:2.0,2.0;" x1="242.3218" x2="948.2212" y1="1256.0156" y2="1256.0156"/><text fill="#000000" font-family="sans-serif" font-size="13" font-weight="bold" lengthAdjust="spacing" textLength="18.0908" x="254.3218" y="1243.3833">23</text><text fill="#000000" font-family="sans-serif" font-size="13" lengthAdjust="spacing" textLength="110.3857" x="276.4126" y="1235.8169">HTTP/1.1 200 OK</text><text fill="#000000" font-family="sans-serif" font-size="13" lengthAdjust="spacing" textLength="303.4497" x="280.5449" y="1250.9497">{"redirect_uri": https url with response_code }</text></g><g class="message" data-participant-1="w" data-participant-2="ua"><polygon fill="#181818" points="568.5654,1281.1484,578.5654,1285.1484,568.5654,1289.1484,572.5654,1285.1484" style="stroke:#181818;stroke-width:1;"/><line style="stroke:#181818;stroke-width:1;" x1="237.3218" x2="574.5654" y1="1285.1484" y2="1285.1484"/><text fill="#000000" font-family="sans-serif" font-size="13" font-weight="bold" lengthAdjust="spacing" textLength="18.0908" x="244.3218" y="1280.0825">24</text><text fill="#000000" font-family="sans-serif" font-size="13" lengthAdjust="spacing" textLength="128.375" x="266.4126" y="1280.0825">Use the redirect_uri</text></g><path d="M161.1709,1307.1484 L568.7427,1307.1484 L568.7427,1314.2813 L558.7427,1324.2813 L161.1709,1324.2813 L161.1709,1307.1484" fill="#EEEEEE" style="stroke:#000000;stroke-width:1.5;"/><rect fill="none" height="134.7969" style="stroke:#000000;stroke-width:1.5;" width="1196.4023" x="161.1709" y="1307.1484"/><text fill="#000000" font-family="sans-serif" font-size="13" font-weight="bold" lengthAdjust="spacing" textLength="362.5718" x="176.1709" y="1320.2153">Cross Device or Same Device without redirect_uri</text><g class="message" data-participant-1="ve" data-participant-2="w"><polygon fill="#181818" points="243.3218,1341.4141,233.3218,1345.4141,243.3218,1349.4141,239.3218,1345.4141" style="stroke:#181818;stroke-width:1;"/><line style="stroke:#181818;stroke-width:1;stroke-dasharray:2.0,2.0;" x1="237.3218" x2="953.2212" y1="1345.4141" y2="1345.4141"/><text fill="#000000" font-family="sans-serif" font-size="13" font-weight="bold" lengthAdjust="spacing" textLength="18.0908" x="249.3218" y="1340.3481">25</text><text fill="#000000" font-family="sans-serif" font-size="13" lengthAdjust="spacing" textLength="110.3857" x="271.4126" y="1340.3481">HTTP/1.1 200 OK</text></g><g class="message" data-participant-1="ua" data-participant-2="se"><polygon fill="#181818" points="1268.8003,1385.6797,1278.8003,1389.6797,1268.8003,1393.6797,1272.8003,1389.6797" style="stroke:#181818;stroke-width:1;"/><line style="stroke:#181818;stroke-width:1;" x1="590.5654" x2="1274.8003" y1="1389.6797" y2="1389.6797"/><text fill="#000000" font-family="sans-serif" font-size="13" font-weight="bold" lengthAdjust="spacing" textLength="18.0908" x="597.5654" y="1377.0474">26</text><text fill="#000000" font-family="sans-serif" font-size="13" lengthAdjust="spacing" textLength="247.438" x="619.6563" y="1369.481">JavaScript check: authentication state</text><text fill="#000000" font-family="sans-serif" font-size="13" lengthAdjust="spacing" textLength="175.5127" x="623.7886" y="1384.6138">(HTTP request with cookie)</text></g><g class="message" data-participant-1="se" data-participant-2="ua"><polygon fill="#181818" points="601.5654,1429.9453,591.5654,1433.9453,601.5654,1437.9453,597.5654,1433.9453" style="stroke:#181818;stroke-width:1;"/><line style="stroke:#181818;stroke-width:1;stroke-dasharray:2.0,2.0;" x1="595.5654" x2="1284.8003" y1="1433.9453" y2="1433.9453"/><text fill="#000000" font-family="sans-serif" font-size="13" font-weight="bold" lengthAdjust="spacing" textLength="18.0908" x="607.5654" y="1421.313">27</text><text fill="#000000" font-family="sans-serif" font-size="13" lengthAdjust="spacing" textLength="110.3857" x="629.6563" y="1413.7466">HTTP/1.1 200 OK</text><text fill="#000000" font-family="sans-serif" font-size="13" lengthAdjust="spacing" textLength="299.3174" x="633.7886" y="1428.8794">{"redirect_uri": https url with response_code}</text></g><g class="message" data-participant-1="ua" data-participant-2="ve"><polygon fill="#181818" points="937.2212,1466.0781,947.2212,1470.0781,937.2212,1474.0781,941.2212,1470.0781" style="stroke:#181818;stroke-width:1;"/><line style="stroke:#181818;stroke-width:1;" x1="590.5654" x2="943.2212" y1="1470.0781" y2="1470.0781"/><text fill="#000000" font-family="sans-serif" font-size="13" font-weight="bold" lengthAdjust="spacing" textLength="18.0908" x="597.5654" y="1465.0122">28</text><text fill="#000000" font-family="sans-serif" font-size="13" lengthAdjust="spacing" textLength="225.3354" x="619.6563" y="1465.0122">Redirect to the protected resource</text></g><g class="message" data-participant-1="ve" data-participant-2="ua"><polygon fill="#181818" points="596.5654,1495.2109,586.5654,1499.2109,596.5654,1503.2109,592.5654,1499.2109" style="stroke:#181818;stroke-width:1;"/><line style="stroke:#181818;stroke-width:1;stroke-dasharray:2.0,2.0;" x1="590.5654" x2="953.2212" y1="1499.2109" y2="1499.2109"/><text fill="#000000" font-family="sans-serif" font-size="13" font-weight="bold" lengthAdjust="spacing" textLength="18.0908" x="602.5654" y="1494.145">29</text><text fill="#000000" font-family="sans-serif" font-size="13" lengthAdjust="spacing" textLength="123.6587" x="624.6563" y="1494.145">Protected resource</text></g><!--SRC=[fLPDRzj64BtlhnWeXzf0xIOz6d01Hn5i9swjMafyCI2ibYDnQsgNtGygIf7_tfbTKYBbf2rGmHUJEszcthnvInc3DN6pH2U4k5B1EXXzzEX683r48PRsStxmWuTts6Y5VWIlxlIw36-hYAAMBcYbQsa2Z1vbLM60M-E3D0eJndPu91BKcLoZ2Jc356WAe2njgWUiTjgiOKf1k-zd6XnxCYVtLp6KCAuq0PycvEOeWaeAqGDbgwrkitiyP1T2gg0R6P3QZd3s2zLs0O-uX1awxXkCRFHQ1crDxwWK1VO39KSsU04F-6T47s3gR40LiA0dtaQdK8ZBItgCdcfDS30jfKUul3pWKlKDTb34PqqGSE0Emgx69nCi5CZee9prdlv9XT8ClTnW-syBnDsKOLD1JGYmrKJNxmzZMwJZfSCLA4lrQCEqXfAQSHNqcwEIHDjVl81PQRVfM0kIK0b9LLezfnS9Sna3wMl0aJnqkHLYxMoiOPpAVzUMRwgTs7AUBULHqb0Eu2GyBC6poQ_kh98Li3P1qlI95gtoUFRHaqPMaJC55saMgMkkJIMXB3J1oIg0Nkt7TR_yW_bSxe3AHuSaOm7qQu-vV6mHdLviC9Is0CqwQh6dzxDvEaw_RJS-Ka2ZYQ9sEoXC5Z98eEbnBJt8lJexZ3xvxQE3B0xDbNjm4aDfDFEYP2sNkj91e-TOh4XY_zx1zMJEOpGsG9qb-gAVZYfEw_NQaBHRKB2PlPMpct_iBGsoRIPFgWKQZa7aYH-ByCLq1su0ltO4Izhjsf8WcO8kw1CwlTgbV6G8ZkIswdToLC0-IbQwu5HjHtJoq_J4d-O3yK3AYdV0caJSq50oqDYQbNORB8Q-SH0BAGZOpApJNx8xa6_KZ0XF9i-egHV1FgFv4TZKy3kkCP17wbhBPOL3vqaulQ2h4BYBiSE2zubqTEjzf0sRym9H0SpfdeptZtEOTKJsK4ZnT4_ul6fxA24SoOe8RmYF3h-wkxs-cLy_J2Q_YMz7N0WuWt69v2WtjYeex0FkuAqs1K-RIw4ucX_zJSb0281xYfxV0kkBuUgu90d0CqKkRQGORTBpNe-qYKsMHU9gccav5vn-yZau8ZYzARHNbVKqV1c2qsHkw5CPAjL8sqLRk1U-fWIGXKWoautK5G_Wd4MTc10zoZxMHJUhv6XTCoVAscTD4adlYrFHMUQC7RvrpAGAoaOPLLesSLYic_by-jERypVmy-lNSF-1HlZNg7zqnDT2g7to-nOewssXsDY_jXAdwuCAQvlhPUeRUzhMRpcwUr6kZU4_LjnVbEsH5-Jho1D_y9u8dYcdwv2dSN5qAUHTuHqwuGHxoqejPv9F3ytGbu7F1N7Z_vF3hmCB8-XCrE1Z8ODrTqAz_sXmtKV3yPAtfKrVdZowRGUC_Gq0]--></g></svg>