<svg width="360" height="733" viewBox="0 0 360 733" fill="none" xmlns="http://www.w3.org/2000/svg">
<g clip-path="url(#clip0_4168_46304)">
<rect width="360" height="733" fill="white"/>
<rect width="360" height="48" fill="#004D99"/>
<path d="M13.19 29V19.312H19.084V20.264H14.268V23.61H18.244V24.548H14.268V28.048H19.084V29H13.19ZM21.7963 29H20.7463V22H21.7823V22.49C22.5383 22.07 23.2616 21.86 23.9523 21.86C24.8856 21.86 25.5109 22.112 25.8283 22.616C26.1549 23.12 26.3183 24.016 26.3183 25.304V29H25.2823V25.332C25.2823 24.3613 25.1843 23.6987 24.9883 23.344C24.8016 22.98 24.3956 22.798 23.7703 22.798C23.4716 22.798 23.1543 22.8447 22.8183 22.938C22.4916 23.022 22.2396 23.106 22.0623 23.19L21.7963 23.316V29ZM31.8508 22.91H29.6248V26.256C29.6248 27.0587 29.6808 27.586 29.7928 27.838C29.9141 28.09 30.1941 28.216 30.6328 28.216L31.8788 28.132L31.9488 29C31.3235 29.1027 30.8475 29.154 30.5208 29.154C29.7928 29.154 29.2888 28.9767 29.0088 28.622C28.7288 28.2673 28.5888 27.5907 28.5888 26.592V22.91H27.5948V22H28.5888V19.858H29.6248V22H31.8508V22.91ZM37.893 28.132L38.299 28.09L38.327 28.916C37.263 29.0653 36.353 29.14 35.597 29.14C34.589 29.14 33.875 28.8507 33.455 28.272C33.035 27.684 32.825 26.774 32.825 25.542C32.825 23.0873 33.8003 21.86 35.751 21.86C36.6937 21.86 37.3983 22.126 37.865 22.658C38.3317 23.1807 38.565 24.0067 38.565 25.136L38.509 25.934H33.889C33.889 26.7087 34.029 27.2827 34.309 27.656C34.589 28.0293 35.0743 28.216 35.765 28.216C36.465 28.216 37.1743 28.188 37.893 28.132ZM37.515 25.094C37.515 24.2353 37.375 23.6287 37.095 23.274C36.8243 22.9193 36.3763 22.742 35.751 22.742C35.135 22.742 34.6683 22.9287 34.351 23.302C34.043 23.6753 33.8843 24.2727 33.875 25.094H37.515ZM48.2195 24.114V27.698C48.2475 28.0433 48.5182 28.2487 49.0315 28.314L48.9895 29.14C48.2522 29.14 47.6969 28.9533 47.3235 28.58C46.4835 28.9533 45.6435 29.14 44.8035 29.14C44.1595 29.14 43.6695 28.958 43.3335 28.594C42.9975 28.23 42.8295 27.7073 42.8295 27.026C42.8295 26.3447 43.0022 25.8453 43.3475 25.528C43.6929 25.2013 44.2342 25.0007 44.9715 24.926L47.1695 24.716V24.114C47.1695 23.638 47.0669 23.2973 46.8615 23.092C46.6562 22.8867 46.3762 22.784 46.0215 22.784C45.2749 22.784 44.5002 22.8307 43.6975 22.924L43.2635 22.966L43.2215 22.168C44.2482 21.9627 45.1582 21.86 45.9515 21.86C46.7449 21.86 47.3189 22.042 47.6735 22.406C48.0375 22.77 48.2195 23.3393 48.2195 24.114ZM43.9075 26.97C43.9075 27.8287 44.2622 28.258 44.9715 28.258C45.6062 28.258 46.2315 28.1507 46.8475 27.936L47.1695 27.824V25.514L45.0975 25.71C44.6775 25.7473 44.3742 25.8687 44.1875 26.074C44.0009 26.2793 43.9075 26.578 43.9075 26.97ZM50.2912 32.108V22H51.3272V22.504C52.0365 22.0747 52.7365 21.86 53.4272 21.86C54.3139 21.86 54.9579 22.1447 55.3592 22.714C55.7605 23.274 55.9612 24.2027 55.9612 25.5C55.9612 26.7973 55.7232 27.7307 55.2472 28.3C54.7805 28.86 54.0012 29.14 52.9092 29.14C52.3399 29.14 51.8172 29.0887 51.3412 28.986V32.108H50.2912ZM53.2732 22.798C52.9932 22.798 52.6899 22.8447 52.3632 22.938C52.0459 23.0313 51.7939 23.1247 51.6072 23.218L51.3412 23.358V28.076C52.0039 28.1787 52.5079 28.23 52.8532 28.23C53.6092 28.23 54.1365 28.0153 54.4352 27.586C54.7432 27.1567 54.8972 26.4567 54.8972 25.486C54.8972 24.5153 54.7572 23.8247 54.4772 23.414C54.2065 23.0033 53.8052 22.798 53.2732 22.798ZM57.674 32.108V22H58.71V22.504C59.4193 22.0747 60.1193 21.86 60.81 21.86C61.6967 21.86 62.3407 22.1447 62.742 22.714C63.1433 23.274 63.344 24.2027 63.344 25.5C63.344 26.7973 63.106 27.7307 62.63 28.3C62.1633 28.86 61.384 29.14 60.292 29.14C59.7227 29.14 59.2 29.0887 58.724 28.986V32.108H57.674ZM60.656 22.798C60.376 22.798 60.0727 22.8447 59.746 22.938C59.4287 23.0313 59.1767 23.1247 58.99 23.218L58.724 23.358V28.076C59.3867 28.1787 59.8907 28.23 60.236 28.23C60.992 28.23 61.5193 28.0153 61.818 27.586C62.126 27.1567 62.28 26.4567 62.28 25.486C62.28 24.5153 62.14 23.8247 61.86 23.414C61.5893 23.0033 61.188 22.798 60.656 22.798ZM69.9988 24.114V27.698C70.0268 28.0433 70.2975 28.2487 70.8108 28.314L70.7688 29.14C70.0315 29.14 69.4762 28.9533 69.1028 28.58C68.2628 28.9533 67.4228 29.14 66.5828 29.14C65.9388 29.14 65.4488 28.958 65.1128 28.594C64.7768 28.23 64.6088 27.7073 64.6088 27.026C64.6088 26.3447 64.7815 25.8453 65.1268 25.528C65.4722 25.2013 66.0135 25.0007 66.7508 24.926L68.9488 24.716V24.114C68.9488 23.638 68.8462 23.2973 68.6408 23.092C68.4355 22.8867 68.1555 22.784 67.8008 22.784C67.0542 22.784 66.2795 22.8307 65.4768 22.924L65.0428 22.966L65.0008 22.168C66.0275 21.9627 66.9375 21.86 67.7308 21.86C68.5242 21.86 69.0982 22.042 69.4528 22.406C69.8168 22.77 69.9988 23.3393 69.9988 24.114ZM65.6868 26.97C65.6868 27.8287 66.0415 28.258 66.7508 28.258C67.3855 28.258 68.0108 28.1507 68.6268 27.936L68.9488 27.824V25.514L66.8768 25.71C66.4568 25.7473 66.1535 25.8687 65.9668 26.074C65.7802 26.2793 65.6868 26.578 65.6868 26.97ZM72.0705 29V22H73.1065V22.952C73.9185 22.392 74.7725 22.0233 75.6685 21.846V22.91C75.2765 22.9847 74.8658 23.1013 74.4365 23.26C74.0165 23.4187 73.6945 23.5587 73.4705 23.68L73.1205 23.862V29H72.0705ZM80.5363 22.91H78.3103V26.256C78.3103 27.0587 78.3663 27.586 78.4783 27.838C78.5997 28.09 78.8797 28.216 79.3183 28.216L80.5643 28.132L80.6343 29C80.009 29.1027 79.533 29.154 79.2063 29.154C78.4783 29.154 77.9743 28.9767 77.6943 28.622C77.4143 28.2673 77.2743 27.5907 77.2743 26.592V22.91H76.2803V22H77.2743V19.858H78.3103V22H80.5363V22.91ZM86.5785 28.132L86.9845 28.09L87.0125 28.916C85.9485 29.0653 85.0385 29.14 84.2825 29.14C83.2745 29.14 82.5605 28.8507 82.1405 28.272C81.7205 27.684 81.5105 26.774 81.5105 25.542C81.5105 23.0873 82.4859 21.86 84.4365 21.86C85.3792 21.86 86.0839 22.126 86.5505 22.658C87.0172 23.1807 87.2505 24.0067 87.2505 25.136L87.1945 25.934H82.5745C82.5745 26.7087 82.7145 27.2827 82.9945 27.656C83.2745 28.0293 83.7599 28.216 84.4505 28.216C85.1505 28.216 85.8599 28.188 86.5785 28.132ZM86.2005 25.094C86.2005 24.2353 86.0605 23.6287 85.7805 23.274C85.5099 22.9193 85.0619 22.742 84.4365 22.742C83.8205 22.742 83.3539 22.9287 83.0365 23.302C82.7285 23.6753 82.5699 24.2727 82.5605 25.094H86.2005ZM89.9369 29H88.8869V22H89.9229V22.49C90.6789 22.07 91.4022 21.86 92.0929 21.86C93.0262 21.86 93.6516 22.112 93.9689 22.616C94.2956 23.12 94.4589 24.016 94.4589 25.304V29H93.4229V25.332C93.4229 24.3613 93.3249 23.6987 93.1289 23.344C92.9422 22.98 92.5362 22.798 91.9109 22.798C91.6122 22.798 91.2949 22.8447 90.9589 22.938C90.6322 23.022 90.3802 23.106 90.2029 23.19L89.9369 23.316V29ZM101.166 28.132L101.572 28.09L101.6 28.916C100.536 29.0653 99.6264 29.14 98.8704 29.14C97.8624 29.14 97.1484 28.8507 96.7284 28.272C96.3084 27.684 96.0984 26.774 96.0984 25.542C96.0984 23.0873 97.0738 21.86 99.0244 21.86C99.9671 21.86 100.672 22.126 101.138 22.658C101.605 23.1807 101.838 24.0067 101.838 25.136L101.782 25.934H97.1624C97.1624 26.7087 97.3024 27.2827 97.5824 27.656C97.8624 28.0293 98.3478 28.216 99.0384 28.216C99.7384 28.216 100.448 28.188 101.166 28.132ZM100.788 25.094C100.788 24.2353 100.648 23.6287 100.368 23.274C100.098 22.9193 99.6498 22.742 99.0244 22.742C98.4084 22.742 97.9418 22.9287 97.6244 23.302C97.3164 23.6753 97.1578 24.2727 97.1484 25.094H100.788ZM104.525 29H103.475V22H104.511V22.49C105.267 22.07 105.99 21.86 106.681 21.86C107.614 21.86 108.239 22.112 108.557 22.616C108.883 23.12 109.047 24.016 109.047 25.304V29H108.011V25.332C108.011 24.3613 107.913 23.6987 107.717 23.344C107.53 22.98 107.124 22.798 106.499 22.798C106.2 22.798 105.883 22.8447 105.547 22.938C105.22 23.022 104.968 23.106 104.791 23.19L104.525 23.316V29ZM110.574 22.938V22H115.768V22.938L111.848 28.062H115.768V29H110.574V28.062L114.494 22.938H110.574ZM122.307 24.114V27.698C122.335 28.0433 122.606 28.2487 123.119 28.314L123.077 29.14C122.34 29.14 121.785 28.9533 121.411 28.58C120.571 28.9533 119.731 29.14 118.891 29.14C118.247 29.14 117.757 28.958 117.421 28.594C117.085 28.23 116.917 27.7073 116.917 27.026C116.917 26.3447 117.09 25.8453 117.435 25.528C117.781 25.2013 118.322 25.0007 119.059 24.926L121.257 24.716V24.114C121.257 23.638 121.155 23.2973 120.949 23.092C120.744 22.8867 120.464 22.784 120.109 22.784C119.363 22.784 118.588 22.8307 117.785 22.924L117.351 22.966L117.309 22.168C118.336 21.9627 119.246 21.86 120.039 21.86C120.833 21.86 121.407 22.042 121.761 22.406C122.125 22.77 122.307 23.3393 122.307 24.114ZM117.995 26.97C117.995 27.8287 118.35 28.258 119.059 28.258C119.694 28.258 120.319 28.1507 120.935 27.936L121.257 27.824V25.514L119.185 25.71C118.765 25.7473 118.462 25.8687 118.275 26.074C118.089 26.2793 117.995 26.578 117.995 26.97Z" fill="white"/>
<g clip-path="url(#clip1_4168_46304)">
<path d="M302.106 29V19.41H303.66V29H302.106ZM304.942 20.796V19.41H311.942V20.796H309.24V29H307.672V20.796H304.942ZM311.835 29L314.201 19.41H317.295L319.675 29H318.107L317.589 26.942H313.907L313.389 29H311.835ZM315.405 20.712L314.215 25.57H317.281L316.105 20.712H315.405Z" fill="white"/>
<path d="M336 27.1998L330.4 21.5998L331.1 20.7998L336 25.6998L340.9 20.7998L341.6 21.5998L336 27.1998Z" fill="white"/>
</g>
<rect width="360" height="72" transform="translate(0 48)" fill="#F2F7FC"/>
<rect x="12.5" y="69" width="106" height="30" fill="#F2F7FC"/>
<rect x="12.5" y="69" width="106" height="30" stroke="#C5C7C9"/>
<line x1="13.1967" y1="69.3958" x2="117.899" y2="99.0189" stroke="#C5C7C9"/>
<path d="M23.5667 92.4395V81.4795H25.3427V92.4395H23.5667ZM34.0076 92.4395H27.8636V81.4795H29.6396V90.8555H34.0076V92.4395ZM37.917 83.0635V81.4795H45.917V83.0635H42.829V92.4395H41.037V83.0635H37.917ZM49.0909 88.9355C49.0909 90.3541 49.8375 91.0635 51.3309 91.0635C52.8242 91.0635 53.5709 90.3541 53.5709 88.9355V81.4795H55.3629V88.9035C55.3629 90.1941 55.0215 91.1381 54.3389 91.7355C53.6669 92.3221 52.6589 92.6155 51.3149 92.6155C49.9815 92.6155 48.9789 92.3221 48.3069 91.7355C47.6349 91.1381 47.2989 90.1941 47.2989 88.9035V81.4795H49.0909V88.9355ZM59.7051 90.1195C60.0678 90.7488 60.7611 91.0635 61.7851 91.0635C62.8091 91.0635 63.4971 90.7541 63.8491 90.1355C64.2118 89.5168 64.3931 88.4821 64.3931 87.0315C64.3931 85.5701 64.2064 84.5088 63.8331 83.8475C63.4704 83.1861 62.7878 82.8555 61.7851 82.8555C60.7824 82.8555 60.0944 83.1861 59.7211 83.8475C59.3478 84.5088 59.1611 85.5648 59.1611 87.0155C59.1611 88.4555 59.3424 89.4901 59.7051 90.1195ZM65.2411 91.2715C64.5904 92.1675 63.4384 92.6155 61.7851 92.6155C60.1318 92.6155 58.9744 92.1675 58.3131 91.2715C57.6518 90.3648 57.3211 88.9461 57.3211 87.0155C57.3211 85.0848 57.6518 83.6501 58.3131 82.7115C58.9851 81.7728 60.1424 81.3035 61.7851 81.3035C63.4278 81.3035 64.5798 81.7728 65.2411 82.7115C65.9024 83.6395 66.2331 85.0741 66.2331 87.0155C66.2331 88.9568 65.9024 90.3755 65.2411 91.2715ZM77.9607 92.4395H71.8167V81.4795H73.5927V90.8555H77.9607V92.4395ZM81.127 90.1195C81.4897 90.7488 82.183 91.0635 83.207 91.0635C84.231 91.0635 84.919 90.7541 85.271 90.1355C85.6337 89.5168 85.815 88.4821 85.815 87.0315C85.815 85.5701 85.6283 84.5088 85.255 83.8475C84.8923 83.1861 84.2097 82.8555 83.207 82.8555C82.2043 82.8555 81.5163 83.1861 81.143 83.8475C80.7697 84.5088 80.583 85.5648 80.583 87.0155C80.583 88.4555 80.7643 89.4901 81.127 90.1195ZM86.663 91.2715C86.0123 92.1675 84.8603 92.6155 83.207 92.6155C81.5537 92.6155 80.3963 92.1675 79.735 91.2715C79.0737 90.3648 78.743 88.9461 78.743 87.0155C78.743 85.0848 79.0737 83.6501 79.735 82.7115C80.407 81.7728 81.5643 81.3035 83.207 81.3035C84.8497 81.3035 86.0017 81.7728 86.663 82.7115C87.3243 83.6395 87.655 85.0741 87.655 87.0155C87.655 88.9568 87.3243 90.3755 86.663 91.2715ZM94.187 88.2475V86.6795H97.307V92.2475C97.019 92.3221 96.4323 92.4021 95.547 92.4875C94.6723 92.5728 94.0377 92.6155 93.643 92.6155C91.979 92.6155 90.8323 92.1568 90.203 91.2395C89.5737 90.3221 89.259 88.8875 89.259 86.9355C89.259 84.9728 89.579 83.5435 90.219 82.6475C90.8697 81.7515 91.9897 81.3035 93.579 81.3035C94.5177 81.3035 95.5737 81.4101 96.747 81.6235L97.307 81.7355L97.243 83.1435C95.9523 82.9728 94.795 82.8875 93.771 82.8875C92.747 82.8875 92.043 83.1755 91.659 83.7515C91.2857 84.3275 91.099 85.3941 91.099 86.9515C91.099 88.5088 91.275 89.5861 91.627 90.1835C91.9897 90.7701 92.715 91.0635 93.803 91.0635C94.5817 91.0635 95.163 91.0155 95.547 90.9195V88.2475H94.187ZM101.439 90.1195C101.802 90.7488 102.495 91.0635 103.519 91.0635C104.543 91.0635 105.231 90.7541 105.583 90.1355C105.946 89.5168 106.127 88.4821 106.127 87.0315C106.127 85.5701 105.941 84.5088 105.567 83.8475C105.205 83.1861 104.522 82.8555 103.519 82.8555C102.517 82.8555 101.829 83.1861 101.455 83.8475C101.082 84.5088 100.895 85.5648 100.895 87.0155C100.895 88.4555 101.077 89.4901 101.439 90.1195ZM106.975 91.2715C106.325 92.1675 105.173 92.6155 103.519 92.6155C101.866 92.6155 100.709 92.1675 100.047 91.2715C99.3862 90.3648 99.0555 88.9461 99.0555 87.0155C99.0555 85.0848 99.3862 83.6501 100.047 82.7115C100.719 81.7728 101.877 81.3035 103.519 81.3035C105.162 81.3035 106.314 81.7728 106.975 82.7115C107.637 83.6395 107.967 85.0741 107.967 87.0155C107.967 88.9568 107.637 90.3755 106.975 91.2715Z" fill="black"/>
<path d="M131 68.5V99.5" stroke="#C5C7C9" stroke-linejoin="round"/>
<path d="M152.021 72C152.171 71.9991 152.325 72.0359 152.471 72.1182L162.059 77.4961C162.752 77.8852 163.076 78.513 163.076 79.2334L163.07 94.416C163.07 94.945 162.638 95.3253 162.164 95.3291C162.014 95.33 161.859 95.2931 161.713 95.211L155.695 91.835V82.2412C155.695 81.521 155.372 80.8902 154.678 80.5039L151.461 78.7139V95.0869C151.461 95.6161 151.028 95.9964 150.554 96C150.404 96.0008 150.249 95.9642 150.103 95.8819L144.018 92.46C143.324 92.071 143 91.4429 143 90.7227L143.015 74.7549C143.016 74.2259 143.447 73.8465 143.921 73.8428C144.071 73.8419 144.226 73.8786 144.372 73.961L151.141 77.7569L151.114 72.9121C151.112 72.3832 151.546 72.0038 152.021 72ZM221.471 79.8731C224.828 79.8731 226.77 81.5632 226.771 84.4365V88.1485C226.771 88.6232 226.978 88.8535 227.326 88.8535H227.774L227.773 88.8555C227.943 88.8557 228.07 88.9861 228.07 89.1563V91.543C228.07 91.7133 227.95 91.8418 227.779 91.8418H225.66C224.736 91.8418 223.977 91.508 223.534 90.9834C222.532 91.765 221.258 92.1602 219.898 92.1602C217.338 92.1602 215.822 90.758 215.822 88.3506C215.822 86.0739 217.178 84.9172 220.167 84.7158L223.014 84.5235V84.0547C223.013 83.0827 222.339 82.544 221.226 82.544C220.451 82.544 219.945 82.8064 219.707 83.2559C219.603 83.4518 219.502 83.5195 219.323 83.5195H216.145C215.965 83.5195 215.846 83.4157 215.844 83.2637C215.842 83.1685 215.887 83.0251 215.967 82.8369C216.727 81.0428 218.704 79.8732 221.471 79.8731ZM247.068 79.8731C250.632 79.8731 252.772 82.0447 252.772 85.4619V86.5908C252.772 86.761 252.645 86.8904 252.475 86.8906H244.856C244.955 88.2986 245.579 89.4453 247.189 89.4453C247.946 89.4453 248.55 89.1914 248.859 88.708C248.977 88.5244 249.085 88.4698 249.188 88.4697H252.239C252.481 88.4699 252.562 88.6165 252.563 88.7783C252.564 88.8707 252.538 88.9691 252.476 89.1309C251.744 91.0359 249.944 92.1601 247.265 92.1602C243.46 92.1602 241.22 89.859 241.22 86.0088C241.22 82.1589 243.415 79.8735 247.068 79.8731ZM215.734 75.8399V75.8408C215.926 75.841 216.081 76.0205 216.048 76.209L213.351 91.5899C213.325 91.738 213.197 91.8426 213.047 91.8428H208.459C208.314 91.8427 208.193 91.7434 208.162 91.6016L205.711 80.3584H205.489L203.039 91.6016C203.008 91.7435 202.884 91.8428 202.739 91.8428H198.151C198.002 91.8428 197.876 91.7372 197.851 91.5899L195.152 76.209C195.119 76.0204 195.274 75.8408 195.465 75.8408H198.494C198.645 75.8411 198.774 75.9563 198.799 76.1045L200.616 86.9795H200.815L203.139 76.0918C203.17 75.949 203.302 75.8408 203.447 75.8408H207.903C208.05 75.8408 208.169 75.949 208.199 76.0918L210.477 87.001H210.674L212.517 76.1055C212.541 75.9564 212.662 75.8401 212.812 75.8399H215.734ZM174.738 75.8389C174.908 75.8389 175.036 75.9646 175.036 76.1348V91.543C175.036 91.7132 174.908 91.8418 174.737 91.8418H171.347C171.176 91.8418 171.047 91.7133 171.047 91.543L171.041 76.1358C171.041 75.9655 171.176 75.8399 171.347 75.8399H174.738V75.8389ZM188.804 75.8389C188.975 75.8389 189.103 75.99 189.104 76.1602V78.8047H189.103C189.103 78.9759 188.974 79.125 188.804 79.125H184.58V91.542C184.58 91.7122 184.43 91.8408 184.26 91.8408H180.91C180.74 91.8408 180.591 91.7101 180.591 91.5401V79.125H176.365C176.195 79.125 176.067 78.974 176.067 78.8037V76.1582C176.068 75.9881 176.197 75.8389 176.367 75.8389H188.804ZM232.475 75.8399C232.646 75.8399 232.774 75.9684 232.774 76.1387V88.0879C232.775 88.5636 233.047 88.8534 233.522 88.8535H234.246C234.416 88.8536 234.565 88.9802 234.565 89.1504V91.544C234.565 91.7142 234.431 91.8408 234.261 91.8408H232.606C230.112 91.8417 228.912 90.7373 228.912 88.4697V76.1387C228.912 75.9685 229.04 75.84 229.21 75.8399H232.475ZM238.877 75.8399C239.047 75.8399 239.185 75.9684 239.185 76.1387V88.0879C239.185 88.5637 239.449 88.8535 239.925 88.8535H240.648C240.819 88.8535 240.977 88.9881 240.978 89.1582V91.544C240.978 91.7142 240.833 91.8408 240.663 91.8408H239.009C236.514 91.8417 235.314 90.7372 235.314 88.4697V76.1387C235.314 75.9684 235.443 75.8399 235.613 75.8399H238.877ZM258.156 77.0127C258.327 77.0127 258.456 77.1413 258.456 77.3115V80.1924H260.418C260.589 80.1924 260.738 80.32 260.738 80.4903V82.8799C260.738 83.051 260.609 83.1778 260.438 83.1778H258.456V88.0869C258.456 88.5628 258.726 88.8526 259.202 88.8526H260.44C260.611 88.8526 260.738 89.0028 260.738 89.1729V91.541C260.738 91.7113 260.61 91.8398 260.439 91.8399H258.756C255.995 91.8398 254.615 90.4803 254.615 87.7871V83.1778H253.25C253.079 83.1778 252.951 83.0491 252.951 82.8789V80.4903C252.951 80.3201 253.1 80.1915 253.271 80.1914H254.614V77.3164C254.614 77.1462 254.761 77.0127 254.932 77.0127H258.156ZM220.983 87.0235C219.886 87.1058 219.489 87.4997 219.489 88.1924C219.489 88.9695 219.987 89.4452 221.005 89.4453C221.633 89.4453 222.315 89.2656 223.016 88.8115H223.017V86.8711L220.983 87.0235ZM194.137 83.8194H194.138C194.308 83.8194 194.437 83.9479 194.438 84.1182V86.6358C194.437 86.8058 194.307 86.9344 194.137 86.9346H188C187.829 86.9345 187.695 86.8069 187.694 86.6367V84.1153C187.694 83.9442 187.822 83.8174 187.992 83.8174L194.137 83.8194ZM247.067 82.3164C245.751 82.3165 244.879 83.1253 244.871 84.4444H249.182C249.201 83.1151 248.384 82.3164 247.067 82.3164Z" fill="#0066CC"/>
<path d="M14.5268 204.5L18.8108 185.46H26.1468L30.4308 204.5H26.5668L25.8108 201.056H19.1468L18.3908 204.5H14.5268ZM21.8068 188.652L19.8748 197.696H25.0828L23.1508 188.652H21.8068ZM40.8905 190.5H44.6425V204.5H40.9185V203.716C39.5745 204.463 38.4079 204.836 37.4185 204.836C35.4772 204.836 34.1705 204.304 33.4985 203.24C32.8265 202.157 32.4905 200.356 32.4905 197.836V190.5H36.2425V197.892C36.2425 199.273 36.3545 200.216 36.5785 200.72C36.8025 201.224 37.3439 201.476 38.2025 201.476C39.0239 201.476 39.7985 201.345 40.5265 201.084L40.8905 200.972V190.5ZM55.8631 193.692H52.4191V199.432C52.4191 199.992 52.4284 200.393 52.4471 200.636C52.4844 200.86 52.5871 201.056 52.7551 201.224C52.9418 201.392 53.2218 201.476 53.5951 201.476L55.7231 201.42L55.8911 204.416C54.6404 204.696 53.6884 204.836 53.0351 204.836C51.3551 204.836 50.2071 204.463 49.5911 203.716C48.9751 202.951 48.6671 201.551 48.6671 199.516V193.692H47.0151V190.5H48.6671V186.608H52.4191V190.5H55.8631V193.692ZM61.3863 199.096C61.405 199.955 61.629 200.58 62.0583 200.972C62.5063 201.345 63.141 201.532 63.9623 201.532C65.6983 201.532 67.2476 201.476 68.6103 201.364L69.3943 201.28L69.4503 204.052C67.3036 204.575 65.3623 204.836 63.6263 204.836C61.517 204.836 59.9863 204.276 59.0343 203.156C58.0823 202.036 57.6063 200.216 57.6063 197.696C57.6063 192.675 59.669 190.164 63.7943 190.164C67.8636 190.164 69.8983 192.273 69.8983 196.492L69.6183 199.096H61.3863ZM66.2023 196.24C66.2023 195.12 66.025 194.345 65.6703 193.916C65.3156 193.468 64.6903 193.244 63.7943 193.244C62.917 193.244 62.2916 193.477 61.9183 193.944C61.5636 194.392 61.377 195.157 61.3583 196.24H66.2023ZM76.3318 204.5H72.5798V190.5H76.3038V191.284C77.5731 190.537 78.7398 190.164 79.8038 190.164C81.6704 190.164 82.9584 190.715 83.6678 191.816C84.3771 192.917 84.7318 194.616 84.7318 196.912V204.5H80.9798V197.024C80.9798 195.829 80.8398 194.952 80.5598 194.392C80.2798 193.813 79.7198 193.524 78.8798 193.524C78.1144 193.524 77.3771 193.655 76.6678 193.916L76.3318 194.028V204.5ZM95.8123 193.692H92.3683V199.432C92.3683 199.992 92.3776 200.393 92.3963 200.636C92.4336 200.86 92.5363 201.056 92.7043 201.224C92.891 201.392 93.171 201.476 93.5443 201.476L95.6723 201.42L95.8403 204.416C94.5896 204.696 93.6376 204.836 92.9843 204.836C91.3043 204.836 90.1563 204.463 89.5403 203.716C88.9243 202.951 88.6163 201.551 88.6163 199.516V193.692H86.9643V190.5H88.6163V186.608H92.3683V190.5H95.8123V193.692ZM98.2555 204.5V190.5H102.008V204.5H98.2555ZM98.2555 188.708V184.9H102.008V188.708H98.2555ZM110.71 190.164C111.681 190.164 112.922 190.313 114.434 190.612L115.19 190.78L115.078 193.748C113.604 193.599 112.512 193.524 111.802 193.524C110.514 193.524 109.656 193.804 109.226 194.364C108.816 194.905 108.61 195.941 108.61 197.472C108.61 199.003 108.816 200.057 109.226 200.636C109.656 201.196 110.524 201.476 111.83 201.476L115.078 201.252L115.19 204.248C113.193 204.64 111.672 204.836 110.626 204.836C108.554 204.836 107.061 204.257 106.146 203.1C105.25 201.924 104.802 200.048 104.802 197.472C104.802 194.896 105.269 193.039 106.202 191.9C107.136 190.743 108.638 190.164 110.71 190.164ZM128.694 194.868V200.692C128.732 201.14 128.806 201.457 128.918 201.644C129.03 201.812 129.264 201.933 129.618 202.008L129.506 204.836C128.554 204.836 127.789 204.771 127.21 204.64C126.65 204.509 126.081 204.248 125.502 203.856C124.158 204.509 122.786 204.836 121.386 204.836C118.493 204.836 117.046 203.305 117.046 200.244C117.046 198.751 117.448 197.696 118.25 197.08C119.053 196.445 120.285 196.072 121.946 195.96L124.942 195.736V194.868C124.942 194.289 124.812 193.897 124.55 193.692C124.289 193.468 123.869 193.356 123.29 193.356L118.026 193.58L117.914 190.976C119.912 190.435 121.806 190.164 123.598 190.164C125.409 190.164 126.706 190.537 127.49 191.284C128.293 192.031 128.694 193.225 128.694 194.868ZM122.394 198.564C121.349 198.657 120.826 199.217 120.826 200.244C120.826 201.271 121.284 201.784 122.198 201.784C122.908 201.784 123.682 201.672 124.522 201.448L124.942 201.336V198.34L122.394 198.564ZM131.683 193.86V190.5H142.071V193.86L136.191 201.14H142.071V204.5H131.683V201.14L137.563 193.86H131.683ZM144.986 204.5V190.5H148.738V204.5H144.986ZM144.986 188.708V184.9H148.738V188.708H144.986ZM152.961 192.096C153.95 190.808 155.602 190.164 157.917 190.164C160.231 190.164 161.883 190.808 162.873 192.096C163.862 193.365 164.357 195.157 164.357 197.472C164.357 202.381 162.21 204.836 157.917 204.836C153.623 204.836 151.477 202.381 151.477 197.472C151.477 195.157 151.971 193.365 152.961 192.096ZM155.845 200.636C156.237 201.308 156.927 201.644 157.917 201.644C158.906 201.644 159.587 201.308 159.961 200.636C160.353 199.964 160.549 198.909 160.549 197.472C160.549 196.035 160.353 194.989 159.961 194.336C159.587 193.683 158.906 193.356 157.917 193.356C156.927 193.356 156.237 193.683 155.845 194.336C155.471 194.989 155.285 196.035 155.285 197.472C155.285 198.909 155.471 199.964 155.845 200.636ZM170.859 204.5H167.107V190.5H170.831V191.284C172.1 190.537 173.267 190.164 174.331 190.164C176.198 190.164 177.486 190.715 178.195 191.816C178.904 192.917 179.259 194.616 179.259 196.912V204.5H175.507V197.024C175.507 195.829 175.367 194.952 175.087 194.392C174.807 193.813 174.247 193.524 173.407 193.524C172.642 193.524 171.904 193.655 171.195 193.916L170.859 194.028V204.5ZM185.664 199.096C185.682 199.955 185.906 200.58 186.336 200.972C186.784 201.345 187.418 201.532 188.24 201.532C189.976 201.532 191.525 201.476 192.888 201.364L193.672 201.28L193.728 204.052C191.581 204.575 189.64 204.836 187.904 204.836C185.794 204.836 184.264 204.276 183.312 203.156C182.36 202.036 181.884 200.216 181.884 197.696C181.884 192.675 183.946 190.164 188.072 190.164C192.141 190.164 194.176 192.273 194.176 196.492L193.896 199.096H185.664ZM190.48 196.24C190.48 195.12 190.302 194.345 189.948 193.916C189.593 193.468 188.968 193.244 188.072 193.244C187.194 193.244 186.569 193.477 186.196 193.944C185.841 194.392 185.654 195.157 185.636 196.24H190.48ZM208.245 190.164C209.216 190.164 210.457 190.313 211.969 190.612L212.725 190.78L212.613 193.748C211.139 193.599 210.047 193.524 209.337 193.524C208.049 193.524 207.191 193.804 206.761 194.364C206.351 194.905 206.145 195.941 206.145 197.472C206.145 199.003 206.351 200.057 206.761 200.636C207.191 201.196 208.059 201.476 209.365 201.476L212.613 201.252L212.725 204.248C210.728 204.64 209.207 204.836 208.161 204.836C206.089 204.836 204.596 204.257 203.681 203.1C202.785 201.924 202.337 200.048 202.337 197.472C202.337 194.896 202.804 193.039 203.737 191.9C204.671 190.743 206.173 190.164 208.245 190.164ZM216.152 192.096C217.141 190.808 218.793 190.164 221.108 190.164C223.423 190.164 225.075 190.808 226.064 192.096C227.053 193.365 227.548 195.157 227.548 197.472C227.548 202.381 225.401 204.836 221.108 204.836C216.815 204.836 214.668 202.381 214.668 197.472C214.668 195.157 215.163 193.365 216.152 192.096ZM219.036 200.636C219.428 201.308 220.119 201.644 221.108 201.644C222.097 201.644 222.779 201.308 223.152 200.636C223.544 199.964 223.74 198.909 223.74 197.472C223.74 196.035 223.544 194.989 223.152 194.336C222.779 193.683 222.097 193.356 221.108 193.356C220.119 193.356 219.428 193.683 219.036 194.336C218.663 194.989 218.476 196.035 218.476 197.472C218.476 198.909 218.663 199.964 219.036 200.636ZM234.051 204.5H230.299V190.5H234.023V191.284C235.311 190.537 236.412 190.164 237.327 190.164C238.839 190.164 240.005 190.603 240.827 191.48C242.544 190.603 244.112 190.164 245.531 190.164C247.379 190.164 248.657 190.705 249.367 191.788C250.095 192.852 250.459 194.56 250.459 196.912V204.5H246.707V197.024C246.707 195.829 246.576 194.952 246.315 194.392C246.053 193.813 245.531 193.524 244.747 193.524C244.149 193.524 243.421 193.655 242.562 193.916L242.143 194.056C242.217 195.456 242.255 196.52 242.255 197.248V204.5H238.503V197.304C238.503 195.923 238.381 194.952 238.139 194.392C237.896 193.813 237.364 193.524 236.543 193.524C235.815 193.524 235.096 193.655 234.387 193.916L234.051 194.028V204.5ZM253.787 210.38V190.5H257.511V191.256C258.724 190.528 259.788 190.164 260.703 190.164C262.588 190.164 263.979 190.733 264.875 191.872C265.771 192.992 266.219 194.905 266.219 197.612C266.219 200.319 265.724 202.204 264.735 203.268C263.745 204.313 262.121 204.836 259.863 204.836C259.247 204.836 258.584 204.78 257.875 204.668L257.539 204.612V210.38H253.787ZM259.975 193.524C259.284 193.524 258.584 193.664 257.875 193.944L257.539 194.084V201.42C258.379 201.532 259.06 201.588 259.583 201.588C260.665 201.588 261.403 201.271 261.795 200.636C262.205 200.001 262.411 198.919 262.411 197.388C262.411 194.812 261.599 193.524 259.975 193.524ZM269.185 204.5V184.9H272.937V204.5H269.185ZM279.644 199.096C279.663 199.955 279.887 200.58 280.316 200.972C280.764 201.345 281.399 201.532 282.22 201.532C283.956 201.532 285.505 201.476 286.868 201.364L287.652 201.28L287.708 204.052C285.561 204.575 283.62 204.836 281.884 204.836C279.775 204.836 278.244 204.276 277.292 203.156C276.34 202.036 275.864 200.216 275.864 197.696C275.864 192.675 277.927 190.164 282.052 190.164C286.121 190.164 288.156 192.273 288.156 196.492L287.876 199.096H279.644ZM284.46 196.24C284.46 195.12 284.283 194.345 283.928 193.916C283.573 193.468 282.948 193.244 282.052 193.244C281.175 193.244 280.549 193.477 280.176 193.944C279.821 194.392 279.635 195.157 279.616 196.24H284.46ZM298.594 193.692H295.15V199.432C295.15 199.992 295.159 200.393 295.178 200.636C295.215 200.86 295.318 201.056 295.486 201.224C295.672 201.392 295.952 201.476 296.326 201.476L298.454 201.42L298.622 204.416C297.371 204.696 296.419 204.836 295.766 204.836C294.086 204.836 292.938 204.463 292.322 203.716C291.706 202.951 291.398 201.551 291.398 199.516V193.692H289.746V190.5H291.398V186.608H295.15V190.5H298.594V193.692ZM311.761 194.868V200.692C311.798 201.14 311.873 201.457 311.985 201.644C312.097 201.812 312.33 201.933 312.685 202.008L312.573 204.836C311.621 204.836 310.855 204.771 310.277 204.64C309.717 204.509 309.147 204.248 308.569 203.856C307.225 204.509 305.853 204.836 304.453 204.836C301.559 204.836 300.113 203.305 300.113 200.244C300.113 198.751 300.514 197.696 301.317 197.08C302.119 196.445 303.351 196.072 305.013 195.96L308.009 195.736V194.868C308.009 194.289 307.878 193.897 307.617 193.692C307.355 193.468 306.935 193.356 306.357 193.356L301.093 193.58L300.981 190.976C302.978 190.435 304.873 190.164 306.665 190.164C308.475 190.164 309.773 190.537 310.557 191.284C311.359 192.031 311.761 193.225 311.761 194.868ZM305.461 198.564C304.415 198.657 303.893 199.217 303.893 200.244C303.893 201.271 304.35 201.784 305.265 201.784C305.974 201.784 306.749 201.672 307.589 201.448L308.009 201.336V198.34L305.461 198.564ZM323.094 193.692H319.65V199.432C319.65 199.992 319.659 200.393 319.678 200.636C319.715 200.86 319.818 201.056 319.986 201.224C320.172 201.392 320.452 201.476 320.826 201.476L322.954 201.42L323.122 204.416C321.871 204.696 320.919 204.836 320.266 204.836C318.586 204.836 317.438 204.463 316.822 203.716C316.206 202.951 315.898 201.551 315.898 199.516V193.692H314.246V190.5H315.898V186.608H319.65V190.5H323.094V193.692ZM336.261 194.868V200.692C336.298 201.14 336.373 201.457 336.485 201.644C336.597 201.812 336.83 201.933 337.185 202.008L337.073 204.836C336.121 204.836 335.355 204.771 334.777 204.64C334.217 204.509 333.647 204.248 333.069 203.856C331.725 204.509 330.353 204.836 328.953 204.836C326.059 204.836 324.613 203.305 324.613 200.244C324.613 198.751 325.014 197.696 325.817 197.08C326.619 196.445 327.851 196.072 329.513 195.96L332.509 195.736V194.868C332.509 194.289 332.378 193.897 332.117 193.692C331.855 193.468 331.435 193.356 330.857 193.356L325.593 193.58L325.481 190.976C327.478 190.435 329.373 190.164 331.165 190.164C332.975 190.164 334.273 190.537 335.057 191.284C335.859 192.031 336.261 193.225 336.261 194.868ZM329.961 198.564C328.915 198.657 328.393 199.217 328.393 200.244C328.393 201.271 328.85 201.784 329.765 201.784C330.474 201.784 331.249 201.672 332.089 201.448L332.509 201.336V198.34L329.961 198.564ZM340.006 204.5V199.992H344.038V204.5H340.006ZM340.37 197.5L340.006 185.46H344.066L343.674 197.5H340.37Z" fill="#17324D"/>
<path d="M200.326 337.162C181.425 324.474 169.275 296.372 173.185 274.394C177.094 252.415 195.59 244.884 214.486 257.572C233.387 270.26 245.537 298.362 241.627 320.34C237.718 342.319 219.222 349.85 200.326 337.162Z" fill="#0066CC"/>
<path d="M191.201 342.169C172.3 329.481 160.15 301.38 164.06 279.401C167.969 257.423 186.465 249.892 205.361 262.58C224.262 275.268 236.412 303.369 232.502 325.348C228.593 347.327 210.097 354.857 191.201 342.169Z" fill="#FFB458"/>
<path d="M182.379 347.359C163.477 334.671 151.328 306.57 155.237 284.591C159.147 262.612 177.643 255.082 196.539 267.77C215.44 280.458 227.589 308.559 223.68 330.538C219.771 352.516 201.275 360.047 182.379 347.359Z" fill="#7AC1FA"/>
<path d="M195.653 323.109L193.013 321.584C192.661 321.381 192.208 321.498 192 321.845C189.435 326.144 187.035 326.64 183.035 324.709C179.088 322.81 176.437 317.909 175.973 312.629C175.915 311.989 175.541 311.418 174.987 311.098L172.549 309.69C172.235 309.509 171.829 309.738 171.84 310.106C172.069 317.237 175.227 324.762 180.901 328.186C187.099 331.925 192.133 329.888 195.979 324.624C196.347 324.122 196.192 323.413 195.653 323.104V323.109Z" fill="#003366"/>
<path d="M172.763 303.317L175.366 304.821C175.99 305.183 176.768 304.73 176.768 304.01V289.615C176.768 288.943 176.411 288.33 175.83 287.994L173.227 286.49C172.603 286.127 171.824 286.581 171.824 287.301V301.695C171.824 302.367 172.182 302.981 172.763 303.317Z" fill="#003366"/>
<path d="M197.58 299.002L194.977 297.498C194.353 297.135 193.574 297.588 193.574 298.308V312.703C193.574 313.375 193.932 313.988 194.513 314.324L197.116 315.829C197.74 316.191 198.518 315.738 198.518 315.018V300.623C198.518 299.951 198.161 299.338 197.58 299.002Z" fill="#003366"/>
<path d="M135.109 350.01C134.715 348.586 134.533 347.124 134.48 345.444C134.368 342.116 134.256 338.788 134.155 335.46C134.059 332.383 133.984 329.311 133.888 326.234C133.861 325.407 133.808 324.586 133.947 323.759C134.272 321.834 136.112 320.111 138.059 319.94C139.061 319.85 138.896 320.02 138.997 319.034C139.275 316.41 139.541 313.786 139.771 311.156C139.861 310.116 139.872 309.071 140.213 308.063C141.237 305.007 145.381 303.903 147.787 306.042C150.224 308.106 149.376 310.644 149.195 313.402C149.189 313.487 149.168 313.583 149.333 313.695C150.176 310.81 150.811 307.898 151.68 305.023C153.648 298.874 162.603 301.583 160.901 307.738C159.36 313.428 157.931 318.991 156.325 324.687C161.275 321.812 167.339 322.17 171.467 326.282C173.653 328.41 175.125 330.975 175.707 333.972C176.16 336.319 175.899 338.607 174.299 340.522C170.827 344.682 167.2 338.879 166.24 335.61C164.107 329.455 159.269 333.236 158.347 337.818C157.717 340.319 158.096 344.063 160.053 345.924C161.584 347.375 164.165 347.295 165.867 346.186C168.587 344.484 173.179 339.61 175.275 344.591C176.464 347.775 175.749 350.612 173.547 353.114C171.803 355.092 170.139 355.674 167.771 356.399C164.992 357.252 162.272 359.524 159.787 361.028C156.816 362.82 153.696 364.666 150.235 364.879C147.003 365.076 144.592 363.572 142.757 361.087C140.821 358.468 138.213 356.671 136.592 353.663C135.909 352.399 135.429 351.215 135.099 350.01H135.109Z" fill="#FFB458"/>
<path d="M154.79 362.927C154.79 355.097 148.443 345.087 140.614 340.564C136.08 337.945 132.048 337.748 129.451 339.561L120.944 344.548C118.299 345.599 116.656 348.244 116.656 352.228C116.656 360.057 123.003 370.068 130.832 374.591C134.854 376.911 138.475 377.327 141.056 376.132C141.392 375.977 141.712 375.791 142.011 375.583L151.104 370.335C151.142 370.313 151.179 370.287 151.222 370.265L151.286 370.228C153.467 368.996 154.79 366.495 154.79 362.927Z" fill="#0066CC"/>
<path d="M132.33 436.324C131.232 436.548 130.245 436.66 129.37 436.66C128.496 436.66 127.786 436.543 127.242 436.308C126.709 436.063 126.293 435.689 125.994 435.188C125.706 434.676 125.504 434.095 125.386 433.444C125.28 432.783 125.226 431.961 125.226 430.98C125.226 429.999 125.28 429.177 125.386 428.516C125.504 427.844 125.706 427.252 125.994 426.74C126.293 426.228 126.709 425.855 127.242 425.62C127.776 425.385 128.469 425.268 129.322 425.268C130.176 425.268 131.178 425.385 132.33 425.62L132.282 426.66C131.205 426.468 130.245 426.372 129.402 426.372C128.229 426.372 127.45 426.724 127.066 427.428C126.693 428.121 126.506 429.311 126.506 430.996C126.506 431.839 126.538 432.516 126.602 433.028C126.677 433.54 126.816 434.004 127.018 434.42C127.221 434.825 127.514 435.119 127.898 435.3C128.293 435.471 128.864 435.556 129.61 435.556C130.368 435.556 131.258 435.46 132.282 435.268L132.33 436.324ZM133.629 432.484C133.629 431.023 133.89 429.967 134.413 429.316C134.936 428.665 135.816 428.34 137.053 428.34C138.301 428.34 139.181 428.665 139.693 429.316C140.216 429.967 140.477 431.023 140.477 432.484C140.477 433.945 140.232 435.007 139.741 435.668C139.25 436.329 138.354 436.66 137.053 436.66C135.752 436.66 134.856 436.329 134.365 435.668C133.874 435.007 133.629 433.945 133.629 432.484ZM134.861 432.468C134.861 433.631 135 434.447 135.277 434.916C135.565 435.385 136.157 435.62 137.053 435.62C137.96 435.62 138.552 435.391 138.829 434.932C139.106 434.463 139.245 433.641 139.245 432.468C139.245 431.295 139.09 430.489 138.781 430.052C138.472 429.604 137.896 429.38 137.053 429.38C136.221 429.38 135.645 429.604 135.325 430.052C135.016 430.489 134.861 431.295 134.861 432.468ZM143.634 436.5H142.434V428.5H143.618V429.06C144.482 428.58 145.309 428.34 146.098 428.34C147.165 428.34 147.88 428.628 148.242 429.204C148.616 429.78 148.802 430.804 148.802 432.276V436.5H147.618V432.308C147.618 431.199 147.506 430.441 147.282 430.036C147.069 429.62 146.605 429.412 145.89 429.412C145.549 429.412 145.186 429.465 144.802 429.572C144.429 429.668 144.141 429.764 143.938 429.86L143.634 430.004V436.5ZM155.125 429.54H152.581V433.364C152.581 434.281 152.645 434.884 152.773 435.172C152.912 435.46 153.232 435.604 153.733 435.604L155.157 435.508L155.237 436.5C154.522 436.617 153.978 436.676 153.605 436.676C152.773 436.676 152.197 436.473 151.877 436.068C151.557 435.663 151.397 434.889 151.397 433.748V429.54H150.261V428.5H151.397V426.052H152.581V428.5H155.125V429.54ZM156.59 436.5V428.5H157.79V436.5H156.59ZM156.59 426.692V425.3H157.79V426.692H156.59ZM161.29 436.5H160.09V428.5H161.274V429.06C162.138 428.58 162.965 428.34 163.754 428.34C164.821 428.34 165.536 428.628 165.898 429.204C166.272 429.78 166.458 430.804 166.458 432.276V436.5H165.274V432.308C165.274 431.199 165.162 430.441 164.938 430.036C164.725 429.62 164.261 429.412 163.546 429.412C163.205 429.412 162.842 429.465 162.458 429.572C162.085 429.668 161.797 429.764 161.594 429.86L161.29 430.004V436.5ZM173.676 428.5H174.876V436.5H173.676V435.94C172.876 436.42 172.087 436.66 171.308 436.66C170.22 436.66 169.495 436.377 169.132 435.812C168.78 435.247 168.604 434.201 168.604 432.676V428.5H169.804V432.66C169.804 433.823 169.906 434.601 170.108 434.996C170.311 435.391 170.77 435.588 171.484 435.588C171.836 435.588 172.194 435.54 172.556 435.444C172.919 435.337 173.196 435.236 173.388 435.14L173.676 434.996V428.5ZM182.832 430.916V435.012C182.864 435.407 183.174 435.641 183.76 435.716L183.712 436.66C182.87 436.66 182.235 436.447 181.808 436.02C180.848 436.447 179.888 436.66 178.928 436.66C178.192 436.66 177.632 436.452 177.248 436.036C176.864 435.62 176.672 435.023 176.672 434.244C176.672 433.465 176.87 432.895 177.264 432.532C177.659 432.159 178.278 431.929 179.12 431.844L181.632 431.604V430.916C181.632 430.372 181.515 429.983 181.28 429.748C181.046 429.513 180.726 429.396 180.32 429.396C179.467 429.396 178.582 429.449 177.664 429.556L177.168 429.604L177.12 428.692C178.294 428.457 179.334 428.34 180.24 428.34C181.147 428.34 181.803 428.548 182.208 428.964C182.624 429.38 182.832 430.031 182.832 430.916ZM177.904 434.18C177.904 435.161 178.31 435.652 179.12 435.652C179.846 435.652 180.56 435.529 181.264 435.284L181.632 435.156V432.516L179.264 432.74C178.784 432.783 178.438 432.921 178.224 433.156C178.011 433.391 177.904 433.732 177.904 434.18ZM191.227 429.412C190.065 429.412 189.483 429.817 189.483 430.628C189.483 431.001 189.617 431.268 189.883 431.428C190.15 431.577 190.758 431.737 191.707 431.908C192.657 432.068 193.329 432.297 193.723 432.596C194.118 432.895 194.315 433.455 194.315 434.276C194.315 435.097 194.049 435.7 193.515 436.084C192.993 436.468 192.225 436.66 191.211 436.66C190.55 436.66 189.771 436.585 188.875 436.436L188.395 436.356L188.459 435.316C189.675 435.497 190.593 435.588 191.211 435.588C191.83 435.588 192.299 435.492 192.619 435.3C192.95 435.097 193.115 434.767 193.115 434.308C193.115 433.839 192.977 433.524 192.699 433.364C192.422 433.193 191.814 433.033 190.875 432.884C189.937 432.735 189.27 432.516 188.875 432.228C188.481 431.94 188.283 431.407 188.283 430.628C188.283 429.849 188.555 429.273 189.099 428.9C189.654 428.527 190.342 428.34 191.163 428.34C191.814 428.34 192.63 428.415 193.611 428.564L194.059 428.644L194.027 429.668C192.843 429.497 191.91 429.412 191.227 429.412ZM201.145 428.5H202.345V436.5H201.145V435.94C200.345 436.42 199.556 436.66 198.777 436.66C197.689 436.66 196.964 436.377 196.601 435.812C196.249 435.247 196.073 434.201 196.073 432.676V428.5H197.273V432.66C197.273 433.823 197.374 434.601 197.577 434.996C197.78 435.391 198.238 435.588 198.953 435.588C199.305 435.588 199.662 435.54 200.025 435.444C200.388 435.337 200.665 435.236 200.857 435.14L201.145 434.996V428.5ZM204.749 436.5V425.012H205.949V436.5H204.749ZM214.384 429.412C213.221 429.412 212.64 429.817 212.64 430.628C212.64 431.001 212.773 431.268 213.04 431.428C213.306 431.577 213.914 431.737 214.864 431.908C215.813 432.068 216.485 432.297 216.88 432.596C217.274 432.895 217.472 433.455 217.472 434.276C217.472 435.097 217.205 435.7 216.672 436.084C216.149 436.468 215.381 436.66 214.368 436.66C213.706 436.66 212.928 436.585 212.032 436.436L211.552 436.356L211.616 435.316C212.832 435.497 213.749 435.588 214.368 435.588C214.986 435.588 215.456 435.492 215.776 435.3C216.106 435.097 216.272 434.767 216.272 434.308C216.272 433.839 216.133 433.524 215.856 433.364C215.578 433.193 214.97 433.033 214.032 432.884C213.093 432.735 212.426 432.516 212.032 432.228C211.637 431.94 211.44 431.407 211.44 430.628C211.44 429.849 211.712 429.273 212.256 428.9C212.81 428.527 213.498 428.34 214.32 428.34C214.97 428.34 215.786 428.415 216.768 428.564L217.216 428.644L217.184 429.668C216 429.497 215.066 429.412 214.384 429.412ZM219.309 436.5V428.5H220.509V436.5H219.309ZM219.309 426.692V425.3H220.509V426.692H219.309ZM226.953 429.54H224.409V433.364C224.409 434.281 224.473 434.884 224.601 435.172C224.74 435.46 225.06 435.604 225.561 435.604L226.985 435.508L227.065 436.5C226.351 436.617 225.807 436.676 225.433 436.676C224.601 436.676 224.025 436.473 223.705 436.068C223.385 435.663 223.225 434.889 223.225 433.748V429.54H222.089V428.5H223.225V426.052H224.409V428.5H226.953V429.54ZM228.067 432.484C228.067 431.023 228.328 429.967 228.851 429.316C229.373 428.665 230.253 428.34 231.491 428.34C232.739 428.34 233.619 428.665 234.131 429.316C234.653 429.967 234.915 431.023 234.915 432.484C234.915 433.945 234.669 435.007 234.179 435.668C233.688 436.329 232.792 436.66 231.491 436.66C230.189 436.66 229.293 436.329 228.803 435.668C228.312 435.007 228.067 433.945 228.067 432.484ZM229.299 432.468C229.299 433.631 229.437 434.447 229.715 434.916C230.003 435.385 230.595 435.62 231.491 435.62C232.397 435.62 232.989 435.391 233.267 434.932C233.544 434.463 233.683 433.641 233.683 432.468C233.683 431.295 233.528 430.489 233.219 430.052C232.909 429.604 232.333 429.38 231.491 429.38C230.659 429.38 230.083 429.604 229.763 430.052C229.453 430.489 229.299 431.295 229.299 432.468Z" fill="#17324D"/>
<rect x="125.5" y="466.5" width="109" height="48" rx="4" fill="#0066CC"/>
<path d="M154.491 496.676C152.891 496.676 151.803 496.233 151.227 495.348C150.662 494.463 150.379 493.007 150.379 490.98C150.379 488.953 150.667 487.513 151.243 486.66C151.819 485.796 152.902 485.364 154.491 485.364C155.44 485.364 156.486 485.497 157.627 485.764L157.563 487.204C156.603 487.033 155.643 486.948 154.683 486.948C153.723 486.948 153.072 487.236 152.731 487.812C152.39 488.377 152.219 489.449 152.219 491.028C152.219 492.596 152.384 493.668 152.715 494.244C153.046 494.809 153.691 495.092 154.651 495.092C155.611 495.092 156.582 495.012 157.563 494.852L157.611 496.324C156.512 496.559 155.472 496.676 154.491 496.676ZM159.597 489.364C160.152 488.671 161.069 488.324 162.349 488.324C163.629 488.324 164.541 488.671 165.085 489.364C165.64 490.057 165.917 491.097 165.917 492.484C165.917 493.871 165.651 494.916 165.117 495.62C164.584 496.324 163.661 496.676 162.349 496.676C161.037 496.676 160.115 496.324 159.581 495.62C159.048 494.916 158.781 493.871 158.781 492.484C158.781 491.097 159.053 490.057 159.597 489.364ZM160.909 494.564C161.155 494.991 161.635 495.204 162.349 495.204C163.064 495.204 163.544 494.991 163.789 494.564C164.035 494.137 164.157 493.439 164.157 492.468C164.157 491.497 164.024 490.809 163.757 490.404C163.501 489.999 163.032 489.796 162.349 489.796C161.667 489.796 161.192 489.999 160.925 490.404C160.669 490.809 160.541 491.497 160.541 492.468C160.541 493.439 160.664 494.137 160.909 494.564ZM169.394 496.5H167.65V488.5H169.378V488.996C170.156 488.548 170.892 488.324 171.586 488.324C172.652 488.324 173.378 488.628 173.762 489.236C174.156 489.833 174.354 490.825 174.354 492.212V496.5H172.626V492.26C172.626 491.396 172.53 490.783 172.338 490.42C172.156 490.057 171.778 489.876 171.202 489.876C170.658 489.876 170.135 489.983 169.634 490.196L169.394 490.292V496.5ZM180.688 489.988H178.48V493.508C178.48 494.159 178.528 494.591 178.624 494.804C178.72 495.017 178.965 495.124 179.36 495.124L180.672 495.076L180.752 496.468C180.037 496.607 179.493 496.676 179.12 496.676C178.213 496.676 177.589 496.468 177.248 496.052C176.917 495.636 176.752 494.852 176.752 493.7V489.988H175.728V488.5H176.752V486.18H178.48V488.5H180.688V489.988ZM182.118 496.5V488.5H183.863V496.5H182.118ZM182.118 487.14V485.3H183.863V487.14H182.118ZM187.722 496.5H185.978V488.5H187.706V488.996C188.485 488.548 189.221 488.324 189.914 488.324C190.981 488.324 191.706 488.628 192.09 489.236C192.485 489.833 192.682 490.825 192.682 492.212V496.5H190.954V492.26C190.954 491.396 190.858 490.783 190.666 490.42C190.485 490.057 190.106 489.876 189.53 489.876C188.986 489.876 188.463 489.983 187.962 490.196L187.722 490.292V496.5ZM199.56 488.5H201.288V496.5H199.56V496.004C198.782 496.452 198.062 496.676 197.4 496.676C196.302 496.676 195.566 496.383 195.192 495.796C194.819 495.199 194.632 494.159 194.632 492.676V488.5H196.376V492.692C196.376 493.652 196.456 494.297 196.616 494.628C196.776 494.959 197.15 495.124 197.736 495.124C198.312 495.124 198.84 495.017 199.32 494.804L199.56 494.708V488.5ZM209.32 490.964V494.612C209.33 494.847 209.389 495.023 209.496 495.14C209.613 495.247 209.789 495.316 210.024 495.348L209.976 496.676C209.058 496.676 208.349 496.479 207.848 496.084C206.994 496.479 206.136 496.676 205.272 496.676C203.682 496.676 202.888 495.828 202.888 494.132C202.888 493.321 203.101 492.735 203.528 492.372C203.965 492.009 204.632 491.791 205.528 491.716L207.592 491.54V490.964C207.592 490.537 207.496 490.239 207.304 490.068C207.122 489.897 206.85 489.812 206.488 489.812C205.805 489.812 204.952 489.855 203.928 489.94L203.416 489.972L203.352 488.74C204.514 488.463 205.581 488.324 206.552 488.324C207.533 488.324 208.237 488.537 208.664 488.964C209.101 489.38 209.32 490.047 209.32 490.964ZM205.736 492.948C205 493.012 204.632 493.412 204.632 494.148C204.632 494.884 204.957 495.252 205.608 495.252C206.141 495.252 206.706 495.167 207.304 494.996L207.592 494.9V492.772L205.736 492.948Z" fill="white"/>
<rect width="360" height="160" transform="translate(0 573)" fill="#003366"/>
<path d="M13.106 618V608.41H15.822L18.734 616.628H18.944V608.41H20.498V618H17.838L14.856 609.768H14.66V618H13.106ZM22.8176 611.756C23.303 611.149 24.1056 610.846 25.2256 610.846C26.3456 610.846 27.1436 611.149 27.6196 611.756C28.105 612.363 28.3476 613.273 28.3476 614.486C28.3476 615.699 28.1143 616.614 27.6476 617.23C27.181 617.846 26.3736 618.154 25.2256 618.154C24.0776 618.154 23.2703 617.846 22.8036 617.23C22.337 616.614 22.1036 615.699 22.1036 614.486C22.1036 613.273 22.3416 612.363 22.8176 611.756ZM23.9656 616.306C24.1803 616.679 24.6003 616.866 25.2256 616.866C25.851 616.866 26.271 616.679 26.4856 616.306C26.7003 615.933 26.8076 615.321 26.8076 614.472C26.8076 613.623 26.691 613.021 26.4576 612.666C26.2336 612.311 25.823 612.134 25.2256 612.134C24.6283 612.134 24.213 612.311 23.9796 612.666C23.7556 613.021 23.6436 613.623 23.6436 614.472C23.6436 615.321 23.751 615.933 23.9656 616.306ZM33.6295 612.302H31.6975V615.382C31.6975 615.951 31.7395 616.329 31.8235 616.516C31.9075 616.703 32.1221 616.796 32.4675 616.796L33.6155 616.754L33.6855 617.972C33.0601 618.093 32.5841 618.154 32.2575 618.154C31.4641 618.154 30.9181 617.972 30.6195 617.608C30.3301 617.244 30.1855 616.558 30.1855 615.55V612.302H29.2895V611H30.1855V608.97H31.6975V611H33.6295V612.302ZM39.865 616.74L40.257 616.698L40.285 617.832C39.221 618.047 38.2784 618.154 37.457 618.154C36.421 618.154 35.6744 617.869 35.217 617.3C34.769 616.731 34.545 615.821 34.545 614.57C34.545 612.087 35.5577 610.846 37.583 610.846C39.543 610.846 40.523 611.915 40.523 614.052L40.425 615.144H36.085C36.0944 615.723 36.2204 616.147 36.463 616.418C36.7057 616.689 37.1584 616.824 37.821 616.824C38.4837 616.824 39.165 616.796 39.865 616.74ZM39.025 613.968C39.025 613.277 38.913 612.797 38.689 612.526C38.4744 612.246 38.1057 612.106 37.583 612.106C37.0604 612.106 36.6777 612.251 36.435 612.54C36.2017 612.829 36.0804 613.305 36.071 613.968H39.025ZM50.6246 618H45.2486V608.41H46.8026V616.614H50.6246V618ZM56.6951 616.74L57.0871 616.698L57.1151 617.832C56.0511 618.047 55.1084 618.154 54.2871 618.154C53.2511 618.154 52.5044 617.869 52.0471 617.3C51.5991 616.731 51.3751 615.821 51.3751 614.57C51.3751 612.087 52.3878 610.846 54.4131 610.846C56.3731 610.846 57.3531 611.915 57.3531 614.052L57.2551 615.144H52.9151C52.9244 615.723 53.0504 616.147 53.2931 616.418C53.5358 616.689 53.9884 616.824 54.6511 616.824C55.3138 616.824 55.9951 616.796 56.6951 616.74ZM55.8551 613.968C55.8551 613.277 55.7431 612.797 55.5191 612.526C55.3044 612.246 54.9358 612.106 54.4131 612.106C53.8904 612.106 53.5078 612.251 53.2651 612.54C53.0318 612.829 52.9104 613.305 52.9011 613.968H55.8551ZM64.9385 618.952C64.9385 620.483 63.8325 621.248 61.6205 621.248C60.5565 621.248 59.7678 621.103 59.2545 620.814C58.7412 620.525 58.4845 619.997 58.4845 619.232C58.4845 618.887 58.5685 618.588 58.7365 618.336C58.9045 618.093 59.1752 617.827 59.5485 617.538C59.2405 617.333 59.0865 616.992 59.0865 616.516C59.0865 616.329 59.2125 616.026 59.4645 615.606L59.5905 615.396C58.9185 614.995 58.5825 614.295 58.5825 613.296C58.5825 612.456 58.8345 611.84 59.3385 611.448C59.8425 611.056 60.5238 610.86 61.3825 610.86C61.7932 610.86 62.1992 610.907 62.6005 611L62.8105 611.042L64.9805 610.986V612.218L63.8185 612.148C64.0705 612.475 64.1965 612.857 64.1965 613.296C64.1965 614.211 63.9632 614.845 63.4965 615.2C63.0392 615.545 62.3205 615.718 61.3405 615.718C61.0978 615.718 60.8925 615.699 60.7245 615.662C60.5938 615.979 60.5285 616.227 60.5285 616.404C60.5285 616.572 60.6125 616.689 60.7805 616.754C60.9578 616.819 61.3778 616.857 62.0405 616.866C63.1512 616.875 63.9118 617.025 64.3225 617.314C64.7332 617.603 64.9385 618.149 64.9385 618.952ZM59.9825 619.092C59.9825 619.419 60.1132 619.652 60.3745 619.792C60.6358 619.932 61.0838 620.002 61.7185 620.002C62.8478 620.002 63.4125 619.68 63.4125 619.036C63.4125 618.672 63.3098 618.439 63.1045 618.336C62.9085 618.243 62.5118 618.191 61.9145 618.182L60.5425 618.098C60.3372 618.266 60.1925 618.42 60.1085 618.56C60.0245 618.709 59.9825 618.887 59.9825 619.092ZM60.0945 613.296C60.0945 613.725 60.1972 614.043 60.4025 614.248C60.6078 614.444 60.9392 614.542 61.3965 614.542C61.8538 614.542 62.1805 614.444 62.3765 614.248C62.5818 614.043 62.6845 613.725 62.6845 613.296C62.6845 612.867 62.5818 612.554 62.3765 612.358C62.1712 612.153 61.8398 612.05 61.3825 612.05C60.5238 612.05 60.0945 612.465 60.0945 613.296ZM71.356 613.156V616.348C71.3653 616.553 71.4166 616.707 71.51 616.81C71.6126 616.903 71.7666 616.964 71.972 616.992L71.93 618.154C71.1273 618.154 70.5066 617.981 70.068 617.636C69.3213 617.981 68.57 618.154 67.814 618.154C66.4233 618.154 65.728 617.412 65.728 615.928C65.728 615.219 65.9146 614.705 66.288 614.388C66.6706 614.071 67.254 613.879 68.038 613.814L69.844 613.66V613.156C69.844 612.783 69.76 612.521 69.592 612.372C69.4333 612.223 69.1953 612.148 68.878 612.148C68.2806 612.148 67.534 612.185 66.638 612.26L66.19 612.288L66.134 611.21C67.1513 610.967 68.0846 610.846 68.934 610.846C69.7926 610.846 70.4086 611.033 70.782 611.406C71.1646 611.77 71.356 612.353 71.356 613.156ZM68.22 614.892C67.576 614.948 67.254 615.298 67.254 615.942C67.254 616.586 67.5386 616.908 68.108 616.908C68.5746 616.908 69.0693 616.833 69.592 616.684L69.844 616.6V614.738L68.22 614.892ZM73.3557 618V608.088H74.8817V618H73.3557ZM76.8127 618V611H78.3387V618H76.8127ZM76.8127 609.81V608.2H78.3387V609.81H76.8127Z" fill="white"/>
<path d="M12 619.54H58.08V619.96H12V619.54ZM65.2872 619.54H79.2627V619.96H65.2872V619.54Z" fill="white"/>
<path d="M16.62 655.018H14.66V658H13.106V648.41H16.62C18.7947 648.41 19.882 649.483 19.882 651.63C19.882 652.731 19.6067 653.571 19.056 654.15C18.5147 654.729 17.7027 655.018 16.62 655.018ZM14.66 653.674H16.606C17.726 653.674 18.286 652.993 18.286 651.63C18.286 650.977 18.1507 650.501 17.88 650.202C17.6093 649.903 17.1847 649.754 16.606 649.754H14.66V653.674ZM21.1955 658V651H22.7075V651.84C23.5008 651.327 24.2942 650.995 25.0875 650.846V652.372C24.2848 652.531 23.5988 652.736 23.0295 652.988L22.7215 653.114V658H21.1955ZM26.2541 658V651H27.7801V658H26.2541ZM26.2541 649.81V648.2H27.7801V649.81H26.2541ZM28.973 651H30.569L31.913 656.698H32.361L33.761 651H35.315L33.495 658H30.779L28.973 651ZM41.5923 653.156V656.348C41.6016 656.553 41.6529 656.707 41.7463 656.81C41.8489 656.903 42.0029 656.964 42.2083 656.992L42.1663 658.154C41.3636 658.154 40.7429 657.981 40.3043 657.636C39.5576 657.981 38.8063 658.154 38.0503 658.154C36.6596 658.154 35.9643 657.412 35.9643 655.928C35.9643 655.219 36.1509 654.705 36.5243 654.388C36.9069 654.071 37.4903 653.879 38.2743 653.814L40.0803 653.66V653.156C40.0803 652.783 39.9963 652.521 39.8283 652.372C39.6696 652.223 39.4316 652.148 39.1143 652.148C38.5169 652.148 37.7703 652.185 36.8743 652.26L36.4263 652.288L36.3703 651.21C37.3876 650.967 38.3209 650.846 39.1703 650.846C40.0289 650.846 40.6449 651.033 41.0183 651.406C41.4009 651.77 41.5923 652.353 41.5923 653.156ZM38.4563 654.892C37.8123 654.948 37.4903 655.298 37.4903 655.942C37.4903 656.586 37.7749 656.908 38.3443 656.908C38.8109 656.908 39.3056 656.833 39.8283 656.684L40.0803 656.6V654.738L38.4563 654.892ZM46.126 650.846C46.6207 650.846 47.204 650.911 47.876 651.042L48.226 651.112L48.17 652.316C47.4327 652.241 46.8867 652.204 46.532 652.204C45.8227 652.204 45.3467 652.363 45.104 652.68C44.8613 652.997 44.74 653.595 44.74 654.472C44.74 655.349 44.8567 655.956 45.09 656.292C45.3233 656.628 45.8087 656.796 46.546 656.796L48.184 656.684L48.226 657.902C47.2833 658.07 46.574 658.154 46.098 658.154C45.034 658.154 44.2827 657.869 43.844 657.3C43.4147 656.721 43.2 655.779 43.2 654.472C43.2 653.165 43.4287 652.237 43.886 651.686C44.3433 651.126 45.09 650.846 46.126 650.846ZM49.0573 651H50.5553L52.0393 656.698H52.4173L53.9013 651H55.4133L52.7533 661.01H51.2553L52.0953 658H50.8913L49.0573 651ZM63.3641 655.018H61.4041V658H59.8501V648.41H63.3641C65.5388 648.41 66.6261 649.483 66.6261 651.63C66.6261 652.731 66.3508 653.571 65.8001 654.15C65.2588 654.729 64.4468 655.018 63.3641 655.018ZM61.4041 653.674H63.3501C64.4701 653.674 65.0301 652.993 65.0301 651.63C65.0301 650.977 64.8948 650.501 64.6241 650.202C64.3535 649.903 63.9288 649.754 63.3501 649.754H61.4041V653.674ZM68.3176 651.756C68.803 651.149 69.6056 650.846 70.7256 650.846C71.8456 650.846 72.6436 651.149 73.1196 651.756C73.605 652.363 73.8476 653.273 73.8476 654.486C73.8476 655.699 73.6143 656.614 73.1476 657.23C72.681 657.846 71.8736 658.154 70.7256 658.154C69.5776 658.154 68.7703 657.846 68.3036 657.23C67.837 656.614 67.6036 655.699 67.6036 654.486C67.6036 653.273 67.8416 652.363 68.3176 651.756ZM69.4656 656.306C69.6803 656.679 70.1003 656.866 70.7256 656.866C71.351 656.866 71.771 656.679 71.9856 656.306C72.2003 655.933 72.3076 655.321 72.3076 654.472C72.3076 653.623 72.191 653.021 71.9576 652.666C71.7336 652.311 71.323 652.134 70.7256 652.134C70.1283 652.134 69.713 652.311 69.4796 652.666C69.2556 653.021 69.1436 653.623 69.1436 654.472C69.1436 655.321 69.251 655.933 69.4656 656.306ZM75.4475 658V648.088H76.9735V658H75.4475ZM78.9045 658V651H80.4305V658H78.9045ZM78.9045 649.81V648.2H80.4305V649.81H78.9045ZM84.8994 650.846C85.3941 650.846 85.9774 650.911 86.6494 651.042L86.9994 651.112L86.9434 652.316C86.2061 652.241 85.6601 652.204 85.3054 652.204C84.5961 652.204 84.1201 652.363 83.8774 652.68C83.6348 652.997 83.5134 653.595 83.5134 654.472C83.5134 655.349 83.6301 655.956 83.8634 656.292C84.0968 656.628 84.5821 656.796 85.3194 656.796L86.9574 656.684L86.9994 657.902C86.0568 658.07 85.3474 658.154 84.8714 658.154C83.8074 658.154 83.0561 657.869 82.6174 657.3C82.1881 656.721 81.9734 655.779 81.9734 654.472C81.9734 653.165 82.2021 652.237 82.6594 651.686C83.1168 651.126 83.8634 650.846 84.8994 650.846ZM87.8308 651H89.3288L90.8128 656.698H91.1908L92.6748 651H94.1868L91.5268 661.01H90.0288L90.8688 658H89.6648L87.8308 651Z" fill="white"/>
<path d="M12 659.54H51.1269V659.96H12V659.54ZM53.5606 659.54H89.9003V659.96H53.5606V659.54ZM92.3341 659.54H94.4388V659.96H92.3341V659.54Z" fill="white"/>
<path d="M16.424 698H13.106V688.41H16.424C17.8987 688.41 18.9067 688.783 19.448 689.53C19.9893 690.277 20.26 691.448 20.26 693.044C20.26 693.856 20.204 694.547 20.092 695.116C19.9893 695.676 19.8027 696.185 19.532 696.642C19 697.547 17.964 698 16.424 698ZM18.65 693.044C18.65 691.887 18.5053 691.051 18.216 690.538C17.9267 690.025 17.3293 689.768 16.424 689.768H14.66V696.628H16.424C17.348 696.628 17.964 696.287 18.272 695.606C18.4213 695.261 18.5193 694.892 18.566 694.5C18.622 694.108 18.65 693.623 18.65 693.044ZM21.8927 698V691H23.4188V698H21.8927ZM21.8927 689.81V688.2H23.4188V689.81H21.8927ZM27.8877 690.846C28.3824 690.846 28.9657 690.911 29.6377 691.042L29.9877 691.112L29.9317 692.316C29.1944 692.241 28.6484 692.204 28.2937 692.204C27.5844 692.204 27.1084 692.363 26.8657 692.68C26.623 692.997 26.5017 693.595 26.5017 694.472C26.5017 695.349 26.6184 695.956 26.8517 696.292C27.085 696.628 27.5704 696.796 28.3077 696.796L29.9457 696.684L29.9877 697.902C29.045 698.07 28.3357 698.154 27.8597 698.154C26.7957 698.154 26.0444 697.869 25.6057 697.3C25.1764 696.721 24.9617 695.779 24.9617 694.472C24.9617 693.165 25.1904 692.237 25.6477 691.686C26.105 691.126 26.8517 690.846 27.8877 690.846ZM32.9891 698H31.4631V688.088H32.9891V691.364C33.6797 691.019 34.3191 690.846 34.9071 690.846C35.8404 690.846 36.4751 691.112 36.8111 691.644C37.1564 692.167 37.3291 693.035 37.3291 694.248V698H35.8031V694.29C35.8031 693.534 35.7237 692.997 35.5651 692.68C35.4064 692.363 35.0704 692.204 34.5571 692.204C34.1091 692.204 33.6611 692.279 33.2131 692.428L32.9891 692.512V698ZM39.1056 698V691H40.6316V698H39.1056ZM39.1056 689.81V688.2H40.6316V689.81H39.1056ZM47.6626 693.156V696.348C47.6719 696.553 47.7233 696.707 47.8166 696.81C47.9193 696.903 48.0733 696.964 48.2786 696.992L48.2366 698.154C47.4339 698.154 46.8133 697.981 46.3746 697.636C45.6279 697.981 44.8766 698.154 44.1206 698.154C42.7299 698.154 42.0346 697.412 42.0346 695.928C42.0346 695.219 42.2213 694.705 42.5946 694.388C42.9773 694.071 43.5606 693.879 44.3446 693.814L46.1506 693.66V693.156C46.1506 692.783 46.0666 692.521 45.8986 692.372C45.7399 692.223 45.5019 692.148 45.1846 692.148C44.5873 692.148 43.8406 692.185 42.9446 692.26L42.4966 692.288L42.4406 691.21C43.4579 690.967 44.3913 690.846 45.2406 690.846C46.0993 690.846 46.7153 691.033 47.0886 691.406C47.4713 691.77 47.6626 692.353 47.6626 693.156ZM44.5266 694.892C43.8826 694.948 43.5606 695.298 43.5606 695.942C43.5606 696.586 43.8453 696.908 44.4146 696.908C44.8813 696.908 45.3759 696.833 45.8986 696.684L46.1506 696.6V694.738L44.5266 694.892ZM49.5783 698V691H51.0903V691.84C51.8836 691.327 52.677 690.995 53.4703 690.846V692.372C52.6676 692.531 51.9816 692.736 51.4123 692.988L51.1043 693.114V698H49.5783ZM59.8169 693.156V696.348C59.8262 696.553 59.8776 696.707 59.9709 696.81C60.0736 696.903 60.2276 696.964 60.4329 696.992L60.3909 698.154C59.5882 698.154 58.9676 697.981 58.5289 697.636C57.7822 697.981 57.0309 698.154 56.2749 698.154C54.8842 698.154 54.1889 697.412 54.1889 695.928C54.1889 695.219 54.3756 694.705 54.7489 694.388C55.1316 694.071 55.7149 693.879 56.4989 693.814L58.3049 693.66V693.156C58.3049 692.783 58.2209 692.521 58.0529 692.372C57.8942 692.223 57.6562 692.148 57.3389 692.148C56.7416 692.148 55.9949 692.185 55.0989 692.26L54.6509 692.288L54.5949 691.21C55.6122 690.967 56.5456 690.846 57.3949 690.846C58.2536 690.846 58.8696 691.033 59.2429 691.406C59.6256 691.77 59.8169 692.353 59.8169 693.156ZM56.6809 694.892C56.0369 694.948 55.7149 695.298 55.7149 695.942C55.7149 696.586 55.9996 696.908 56.5689 696.908C57.0356 696.908 57.5302 696.833 58.0529 696.684L58.3049 696.6V694.738L56.6809 694.892ZM61.3826 692.358V691H66.5766V692.358L63.2166 696.642H66.5766V698H61.3826V696.642L64.7566 692.358H61.3826ZM68.09 698V691H69.616V698H68.09ZM68.09 689.81V688.2H69.616V689.81H68.09ZM71.845 691.756C72.3303 691.149 73.133 690.846 74.253 690.846C75.373 690.846 76.171 691.149 76.647 691.756C77.1323 692.363 77.375 693.273 77.375 694.486C77.375 695.699 77.1416 696.614 76.675 697.23C76.2083 697.846 75.401 698.154 74.253 698.154C73.105 698.154 72.2976 697.846 71.831 697.23C71.3643 696.614 71.131 695.699 71.131 694.486C71.131 693.273 71.369 692.363 71.845 691.756ZM72.993 696.306C73.2076 696.679 73.6276 696.866 74.253 696.866C74.8783 696.866 75.2983 696.679 75.513 696.306C75.7276 695.933 75.835 695.321 75.835 694.472C75.835 693.623 75.7183 693.021 75.485 692.666C75.261 692.311 74.8503 692.134 74.253 692.134C73.6556 692.134 73.2403 692.311 73.007 692.666C72.783 693.021 72.671 693.623 72.671 694.472C72.671 695.321 72.7783 695.933 72.993 696.306ZM80.4168 698H78.8908V691H80.4028V691.434C81.0841 691.042 81.7281 690.846 82.3348 690.846C83.2681 690.846 83.9028 691.112 84.2388 691.644C84.5841 692.167 84.7568 693.035 84.7568 694.248V698H83.2448V694.29C83.2448 693.534 83.1608 692.997 82.9928 692.68C82.8341 692.363 82.5028 692.204 81.9988 692.204C81.5228 692.204 81.0655 692.297 80.6268 692.484L80.4168 692.568V698ZM91.5174 696.74L91.9094 696.698L91.9374 697.832C90.8734 698.047 89.9307 698.154 89.1094 698.154C88.0734 698.154 87.3267 697.869 86.8694 697.3C86.4214 696.731 86.1974 695.821 86.1974 694.57C86.1974 692.087 87.21 690.846 89.2354 690.846C91.1954 690.846 92.1754 691.915 92.1754 694.052L92.0774 695.144H87.7374C87.7467 695.723 87.8727 696.147 88.1154 696.418C88.358 696.689 88.8107 696.824 89.4734 696.824C90.136 696.824 90.8174 696.796 91.5174 696.74ZM90.6774 693.968C90.6774 693.277 90.5654 692.797 90.3414 692.526C90.1267 692.246 89.758 692.106 89.2354 692.106C88.7127 692.106 88.33 692.251 88.0874 692.54C87.854 692.829 87.7327 693.305 87.7234 693.968H90.6774ZM96.0749 698L98.4409 688.41H101.535L103.915 698H102.347L101.829 695.942H98.1469L97.6289 698H96.0749ZM99.6449 689.712L98.4549 694.57H101.521L100.345 689.712H99.6449ZM107.649 690.846C108.144 690.846 108.727 690.911 109.399 691.042L109.749 691.112L109.693 692.316C108.956 692.241 108.41 692.204 108.055 692.204C107.346 692.204 106.87 692.363 106.627 692.68C106.385 692.997 106.263 693.595 106.263 694.472C106.263 695.349 106.38 695.956 106.613 696.292C106.847 696.628 107.332 696.796 108.069 696.796L109.707 696.684L109.749 697.902C108.807 698.07 108.097 698.154 107.621 698.154C106.557 698.154 105.806 697.869 105.367 697.3C104.938 696.721 104.723 695.779 104.723 694.472C104.723 693.165 104.952 692.237 105.409 691.686C105.867 691.126 106.613 690.846 107.649 690.846ZM113.774 690.846C114.269 690.846 114.852 690.911 115.524 691.042L115.874 691.112L115.818 692.316C115.081 692.241 114.535 692.204 114.18 692.204C113.471 692.204 112.995 692.363 112.752 692.68C112.51 692.997 112.388 693.595 112.388 694.472C112.388 695.349 112.505 695.956 112.738 696.292C112.972 696.628 113.457 696.796 114.194 696.796L115.832 696.684L115.874 697.902C114.932 698.07 114.222 698.154 113.746 698.154C112.682 698.154 111.931 697.869 111.492 697.3C111.063 696.721 110.848 695.779 110.848 694.472C110.848 693.165 111.077 692.237 111.534 691.686C111.992 691.126 112.738 690.846 113.774 690.846ZM122.265 696.74L122.657 696.698L122.685 697.832C121.621 698.047 120.679 698.154 119.857 698.154C118.821 698.154 118.075 697.869 117.617 697.3C117.169 696.731 116.945 695.821 116.945 694.57C116.945 692.087 117.958 690.846 119.983 690.846C121.943 690.846 122.923 691.915 122.923 694.052L122.825 695.144H118.485C118.495 695.723 118.621 696.147 118.863 696.418C119.106 696.689 119.559 696.824 120.221 696.824C120.884 696.824 121.565 696.796 122.265 696.74ZM121.425 693.968C121.425 693.277 121.313 692.797 121.089 692.526C120.875 692.246 120.506 692.106 119.983 692.106C119.461 692.106 119.078 692.251 118.835 692.54C118.602 692.829 118.481 693.305 118.471 693.968H121.425ZM129.249 692.442C128.147 692.293 127.349 692.218 126.855 692.218C126.36 692.218 126.015 692.279 125.819 692.4C125.632 692.512 125.539 692.694 125.539 692.946C125.539 693.198 125.641 693.375 125.847 693.478C126.061 693.581 126.556 693.702 127.331 693.842C128.115 693.973 128.67 694.183 128.997 694.472C129.323 694.761 129.487 695.275 129.487 696.012C129.487 696.749 129.249 697.291 128.773 697.636C128.306 697.981 127.62 698.154 126.715 698.154C126.145 698.154 125.427 698.075 124.559 697.916L124.125 697.846L124.181 696.572C125.301 696.721 126.108 696.796 126.603 696.796C127.097 696.796 127.447 696.735 127.653 696.614C127.867 696.493 127.975 696.292 127.975 696.012C127.975 695.732 127.872 695.541 127.667 695.438C127.471 695.326 126.99 695.209 126.225 695.088C125.469 694.957 124.913 694.757 124.559 694.486C124.204 694.215 124.027 693.721 124.027 693.002C124.027 692.283 124.269 691.747 124.755 691.392C125.249 691.037 125.879 690.86 126.645 690.86C127.242 690.86 127.975 690.935 128.843 691.084L129.277 691.168L129.249 692.442ZM135.811 692.442C134.71 692.293 133.912 692.218 133.417 692.218C132.923 692.218 132.577 692.279 132.381 692.4C132.195 692.512 132.101 692.694 132.101 692.946C132.101 693.198 132.204 693.375 132.409 693.478C132.624 693.581 133.119 693.702 133.893 693.842C134.677 693.973 135.233 694.183 135.559 694.472C135.886 694.761 136.049 695.275 136.049 696.012C136.049 696.749 135.811 697.291 135.335 697.636C134.869 697.981 134.183 698.154 133.277 698.154C132.708 698.154 131.989 698.075 131.121 697.916L130.687 697.846L130.743 696.572C131.863 696.721 132.671 696.796 133.165 696.796C133.66 696.796 134.01 696.735 134.215 696.614C134.43 696.493 134.537 696.292 134.537 696.012C134.537 695.732 134.435 695.541 134.229 695.438C134.033 695.326 133.553 695.209 132.787 695.088C132.031 694.957 131.476 694.757 131.121 694.486C130.767 694.215 130.589 693.721 130.589 693.002C130.589 692.283 130.832 691.747 131.317 691.392C131.812 691.037 132.442 690.86 133.207 690.86C133.805 690.86 134.537 690.935 135.405 691.084L135.839 691.168L135.811 692.442ZM137.516 698V691H139.042V698H137.516ZM137.516 689.81V688.2H139.042V689.81H137.516ZM144.155 690.846C145.116 690.846 145.807 691.117 146.227 691.658C146.656 692.19 146.871 693.137 146.871 694.5C146.871 695.863 146.619 696.815 146.115 697.356C145.611 697.888 144.724 698.154 143.455 698.154C143.016 698.154 142.321 698.112 141.369 698.028L140.893 697.986V688.088H142.405V691.266C143.049 690.986 143.632 690.846 144.155 690.846ZM143.455 696.796C144.201 696.796 144.696 696.623 144.939 696.278C145.191 695.923 145.317 695.326 145.317 694.486C145.317 693.646 145.209 693.058 144.995 692.722C144.789 692.377 144.449 692.204 143.973 692.204C143.525 692.204 143.077 692.274 142.629 692.414L142.405 692.484V696.74C142.918 696.777 143.268 696.796 143.455 696.796ZM148.399 698V691H149.925V698H148.399ZM148.399 689.81V688.2H149.925V689.81H148.399ZM151.86 698V688.088H153.386V698H151.86ZM155.317 698V691H156.843V698H155.317ZM155.317 689.81V688.2H156.843V689.81H155.317ZM162.46 692.302H160.528V695.382C160.528 695.951 160.57 696.329 160.654 696.516C160.738 696.703 160.952 696.796 161.298 696.796L162.446 696.754L162.516 697.972C161.89 698.093 161.414 698.154 161.088 698.154C160.294 698.154 159.748 697.972 159.45 697.608C159.16 697.244 159.016 696.558 159.016 695.55V692.302H158.12V691H159.016V688.97H160.528V691H162.46V692.302ZM168.891 693.156V696.348C168.9 696.553 168.952 696.707 169.045 696.81C169.148 696.903 169.302 696.964 169.507 696.992L169.465 698.154C168.662 698.154 168.042 697.981 167.603 697.636C166.856 697.981 166.105 698.154 165.349 698.154C163.958 698.154 163.263 697.412 163.263 695.928C163.263 695.219 163.45 694.705 163.823 694.388C164.206 694.071 164.789 693.879 165.573 693.814L167.379 693.66V693.156C167.379 692.783 167.295 692.521 167.127 692.372C166.968 692.223 166.73 692.148 166.413 692.148C165.816 692.148 165.069 692.185 164.173 692.26L163.725 692.288L163.669 691.21C164.686 690.967 165.62 690.846 166.469 690.846C167.328 690.846 167.944 691.033 168.317 691.406C168.7 691.77 168.891 692.353 168.891 693.156ZM165.755 694.892C165.111 694.948 164.789 695.298 164.789 695.942C164.789 696.586 165.074 696.908 165.643 696.908C166.11 696.908 166.604 696.833 167.127 696.684L167.379 696.6V694.738L165.755 694.892ZM164.817 687.528L168.121 688.942L167.757 689.936L164.341 688.844L164.817 687.528Z" fill="white"/>
<path d="M12 699.54H169.885V699.96H12V699.54Z" fill="white"/>
</g>
<defs>
<clipPath id="clip0_4168_46304">
<rect width="360" height="733" fill="white"/>
</clipPath>
<clipPath id="clip1_4168_46304">
<rect width="47" height="24" fill="white" transform="translate(301 12)"/>
</clipPath>
</defs>
</svg>
